<svg xmlns="http://www.w3.org/2000/svg" xmlns:xlink="http://www.w3.org/1999/xlink" width="2048" zoomAndPan="magnify" viewBox="0 0 1536 1535.999932" height="2048" preserveAspectRatio="xMidYMid meet" version="1.0"><defs><g/></defs><path stroke-linecap="butt" transform="matrix(0.75, 0, 0, 0.75, 0.00003385, -0.00002)" fill-opacity="1" fill="#f3c309" fill-rule="nonzero" stroke-linejoin="miter" d="M 2038.00013 1024.000114 C 2038.00013 1040.593866 2037.59388 1057.177201 2036.776171 1073.755327 C 2035.963671 1090.328245 2034.744921 1106.875122 2033.114713 1123.390748 C 2031.489712 1139.906374 2029.458462 1156.369917 2027.02617 1172.786586 C 2024.58867 1189.198045 2021.755337 1205.547005 2018.515753 1221.823048 C 2015.276169 1238.099091 2011.645961 1254.286593 2007.609502 1270.380344 C 2003.578252 1286.479304 1999.156376 1302.468888 1994.338668 1318.349098 C 1989.520959 1334.229308 1984.317833 1349.979309 1978.724083 1365.60431 C 1973.135541 1381.229312 1967.161582 1396.70848 1960.812623 1412.041814 C 1954.463664 1427.369941 1947.739705 1442.536609 1940.645955 1457.541818 C 1933.552204 1472.54182 1926.088662 1487.359529 1918.265744 1501.994947 C 1910.442827 1516.630365 1902.265743 1531.067866 1893.734492 1545.302242 C 1885.203242 1559.53141 1876.328241 1573.552245 1867.10949 1587.349121 C 1857.890739 1601.145997 1848.338655 1614.708498 1838.453237 1628.036625 C 1828.56782 1641.369959 1818.359486 1654.448085 1807.833443 1667.276211 C 1797.302192 1680.104337 1786.468858 1692.666838 1775.323024 1704.958506 C 1764.182398 1717.255382 1752.739688 1729.271008 1741.005312 1741.005384 C 1729.270936 1752.73976 1717.25531 1764.18247 1704.958434 1775.323096 C 1692.666767 1786.46893 1680.104266 1797.302264 1667.276139 1807.833515 C 1654.448013 1818.359558 1641.369887 1828.567892 1628.036553 1838.453309 C 1614.708427 1848.338727 1601.145925 1857.890811 1587.349049 1867.109562 C 1573.552173 1876.328313 1559.531339 1885.203313 1545.302171 1893.734564 C 1531.067794 1902.265815 1516.630293 1910.442899 1501.994875 1918.265816 C 1487.359457 1926.088733 1472.541748 1933.552276 1457.541747 1940.646026 C 1442.536537 1947.739777 1427.369869 1954.463736 1412.041743 1960.812695 C 1396.708408 1967.161654 1381.22924 1973.135613 1365.604239 1978.724155 C 1349.979237 1984.317905 1334.229236 1989.521031 1318.349026 1994.338739 C 1302.468817 1999.156448 1286.479232 2003.578323 1270.380272 2007.609574 C 1254.286521 2011.646032 1238.099019 2015.276241 1221.822976 2018.515825 C 1205.546933 2021.755408 1189.197973 2024.588742 1172.786514 2027.026242 C 1156.369846 2029.458534 1139.906303 2031.489784 1123.390676 2033.114784 C 1106.87505 2034.744993 1090.328173 2035.963743 1073.755255 2036.776243 C 1057.177129 2037.593951 1040.593794 2038.000201 1024.000043 2038.000201 C 1007.406291 2038.000201 990.817748 2037.593951 974.24483 2036.776243 C 957.671912 2035.963743 941.125036 2034.744993 924.609409 2033.114784 C 908.093783 2031.489784 891.63024 2029.458534 875.213572 2027.026242 C 858.802112 2024.588742 842.453152 2021.755408 826.177109 2018.515825 C 809.901066 2015.276241 793.713565 2011.646032 777.619813 2007.609574 C 761.520853 2003.578323 745.531269 1999.156448 729.651059 1994.338739 C 713.770849 1989.521031 698.020848 1984.317905 682.395847 1978.724155 C 666.770845 1973.135613 651.291677 1967.161654 635.958343 1960.812695 C 620.625008 1954.463736 605.45834 1947.739777 590.458339 1940.646026 C 575.458338 1933.547067 560.640628 1926.088733 546.00521 1918.265816 C 531.369792 1910.442899 516.932291 1902.265815 502.697915 1893.734564 C 488.463538 1885.203313 474.447912 1876.328313 460.651036 1867.109562 C 446.85416 1857.890811 433.291659 1848.338727 419.958324 1838.453309 C 406.630198 1828.567892 393.552072 1818.359558 380.723946 1807.833515 C 367.89582 1797.302264 355.333319 1786.46893 343.041651 1775.323096 C 330.744775 1764.18247 318.729149 1752.73976 306.994773 1741.005384 C 295.260397 1729.271008 283.817688 1717.255382 272.677062 1704.958506 C 261.531227 1692.666838 250.692685 1680.104337 240.166642 1667.276211 C 229.6406 1654.448085 219.432265 1641.369959 209.546848 1628.036625 C 199.66143 1614.708498 190.109346 1601.145997 180.890595 1587.349121 C 171.671845 1573.552245 162.796844 1559.53141 154.265593 1545.302242 C 145.729134 1531.067866 137.55205 1516.630365 129.734341 1501.994947 C 121.911424 1487.359529 114.447881 1472.54182 107.354131 1457.541818 C 100.26038 1442.536609 93.536421 1427.369941 87.187462 1412.041814 C 80.833295 1396.70848 74.864545 1381.229312 69.276002 1365.60431 C 63.682252 1349.979309 58.479127 1334.229308 53.661418 1318.349098 C 48.843709 1302.468888 44.421834 1286.479304 40.390583 1270.380344 C 36.354125 1254.286593 32.718708 1238.099091 29.484332 1221.823048 C 26.244749 1205.547005 23.411415 1189.198045 20.973915 1172.786586 C 18.541623 1156.369917 16.510373 1139.906374 14.880164 1123.390748 C 13.255164 1106.875122 12.036414 1090.328245 11.223914 1073.755327 C 10.406206 1057.177201 9.999956 1040.593866 9.999956 1024.000114 C 9.999956 1007.406363 10.406206 990.81782 11.223914 974.244902 C 12.036414 957.671984 13.255164 941.125107 14.880164 924.609481 C 16.510373 908.093855 18.541623 891.630311 20.973915 875.213643 C 23.411415 858.802184 26.244749 842.453224 29.484332 826.177181 C 32.718708 809.901138 36.354125 793.713636 40.390583 777.619885 C 44.421834 761.520925 48.843709 745.531341 53.661418 729.651131 C 58.479127 713.770921 63.682252 698.02092 69.276002 682.395919 C 74.864545 666.770917 80.833295 651.291749 87.187462 635.958415 C 93.536421 620.62508 100.26038 605.458412 107.354131 590.458411 C 114.447881 575.458409 121.911424 560.6407 129.734341 546.005282 C 137.55205 531.369864 145.729134 516.932363 154.265593 502.697986 C 162.796844 488.46361 171.671845 474.447984 180.890595 460.651108 C 190.109346 446.854232 199.66143 433.29173 209.546848 419.958396 C 219.432265 406.63027 229.6406 393.552144 240.166642 380.724018 C 250.692685 367.895892 261.531227 355.33339 272.677062 343.041723 C 283.817688 330.744847 295.260397 318.729221 306.994773 306.994845 C 318.729149 295.260469 330.744775 283.817759 343.041651 272.677133 C 355.333319 261.531299 367.89582 250.692756 380.723946 240.166714 C 393.552072 229.640671 406.630198 219.432337 419.958324 209.54692 C 433.291659 199.661502 446.85416 190.109418 460.651036 180.890667 C 474.447912 171.671916 488.463538 162.796916 502.697915 154.265665 C 516.932291 145.729206 531.369792 137.552122 546.00521 129.734413 C 560.640628 121.911495 575.458338 114.447953 590.458339 107.354203 C 605.45834 100.260452 620.625008 93.536493 635.958343 87.187534 C 651.291677 80.833367 666.770845 74.864616 682.395847 69.276074 C 698.020848 63.682324 713.770849 58.479198 729.651059 53.66149 C 745.531269 48.843781 761.520853 44.421905 777.619813 40.390655 C 793.713565 36.354196 809.901066 32.718779 826.177109 29.484404 C 842.453152 26.244821 858.802112 23.411487 875.213572 20.973987 C 891.63024 18.541695 908.093783 16.510445 924.609409 14.880236 C 941.125036 13.255236 957.671912 12.036486 974.24483 11.223986 C 990.817748 10.406278 1007.406291 10.000028 1024.000043 10.000028 C 1040.593794 10.000028 1057.177129 10.406278 1073.755255 11.223986 C 1090.328173 12.036486 1106.87505 13.255236 1123.390676 14.880236 C 1139.906303 16.510445 1156.369846 18.541695 1172.786514 20.973987 C 1189.197973 23.411487 1205.546933 26.244821 1221.822976 29.484404 C 1238.099019 32.718779 1254.286521 36.354196 1270.380272 40.390655 C 1286.479232 44.421905 1302.468817 48.843781 1318.349026 53.66149 C 1334.229236 58.479198 1349.979237 63.682324 1365.604239 69.276074 C 1381.22924 74.864616 1396.708408 80.833367 1412.041743 87.187534 C 1427.369869 93.536493 1442.536537 100.260452 1457.541747 107.354203 C 1472.541748 114.447953 1487.359457 121.911495 1501.994875 129.734413 C 1516.630293 137.552122 1531.067794 145.729206 1545.302171 154.265665 C 1559.531339 162.796916 1573.552173 171.671916 1587.349049 180.890667 C 1601.145925 190.109418 1614.708427 199.661502 1628.036553 209.54692 C 1641.369887 219.432337 1654.448013 229.640671 1667.276139 240.166714 C 1680.104266 250.692756 1692.666767 261.531299 1704.958434 272.677133 C 1717.25531 283.817759 1729.270936 295.260469 1741.005312 306.994845 C 1752.739688 318.729221 1764.182398 330.744847 1775.323024 343.041723 C 1786.468858 355.33339 1797.302192 367.895892 1807.833443 380.724018 C 1818.359486 393.552144 1828.56782 406.63027 1838.453237 419.958396 C 1848.338655 433.29173 1857.890739 446.854232 1867.10949 460.651108 C 1876.328241 474.447984 1885.203242 488.46361 1893.734492 502.697986 C 1902.265743 516.932363 1910.442827 531.369864 1918.265744 546.005282 C 1926.088662 560.6407 1933.552204 575.458409 1940.645955 590.458411 C 1947.739705 605.458412 1954.463664 620.62508 1960.812623 635.958415 C 1967.16679 651.291749 1973.135541 666.770917 1978.724083 682.395919 C 1984.317833 698.02092 1989.520959 713.770921 1994.338668 729.651131 C 1999.156376 745.531341 2003.578252 761.520925 2007.609502 777.619885 C 2011.645961 793.713636 2015.276169 809.901138 2018.515753 826.177181 C 2021.755337 842.453224 2024.58867 858.802184 2027.02617 875.213643 C 2029.458462 891.630311 2031.489712 908.093855 2033.114713 924.609481 C 2034.744921 941.125107 2035.963671 957.671984 2036.776171 974.244902 C 2037.59388 990.81782 2038.00013 1007.406363 2038.00013 1024.000114 Z M 2038.00013 1024.000114 " stroke="#cd2029" stroke-width="14" stroke-opacity="1" stroke-miterlimit="4"/><path stroke-linecap="butt" transform="matrix(1.125, 0, 0, 1.125, 251.250012, 899.999903)" fill-opacity="1" fill="#cd2029" fill-rule="nonzero" stroke-linejoin="miter" d="M 1024.000077 100.000095 L 810.000059 400.000121 L 510.000033 500.000129 L 49.999993 380.000119 L -100.00002 100.000095 L -150.000024 0.0000863715 L 432.541693 0.0000863715 C 446.47225 1.059114 473.409752 7.406337 473.895863 46.854257 C 473.895863 37.472312 476.559058 2.055642 515.659755 0.0000863715 L 1024.000077 0.0000863715 Z M 1024.000077 100.000095 " stroke="#ffffff" stroke-width="5" stroke-opacity="1" stroke-miterlimit="4"/><path stroke-linecap="butt" transform="matrix(0.75, 0, 0, 0.75, 0.00003385, -0.00002)" fill-opacity="1" fill="#cd2029" fill-rule="evenodd" stroke-linejoin="miter" d="M 23.999957 1024.000114 C 23.999957 1040.364699 24.400999 1056.724076 25.203082 1073.067827 C 26.005165 1089.411578 27.213499 1105.729288 28.817666 1122.015748 C 30.421832 1138.302208 32.421833 1154.541792 34.822875 1170.729294 C 37.223916 1186.916795 40.020792 1203.036588 43.2135 1219.088673 C 46.406209 1235.140758 49.994751 1251.104301 53.968709 1266.979302 C 57.947877 1282.854303 62.307252 1298.625138 67.057252 1314.286598 C 71.812461 1329.948057 76.94267 1345.479309 82.458295 1360.890768 C 87.968712 1376.29702 93.859338 1391.562646 100.119755 1406.682439 C 106.385381 1421.802232 113.01559 1436.760567 120.010382 1451.552234 C 127.010382 1466.349111 134.36455 1480.963695 142.078092 1495.395988 C 149.791634 1509.828281 157.859343 1524.062657 166.270802 1538.104325 C 174.68747 1552.140785 183.437471 1565.963703 192.531221 1579.56787 C 201.624972 1593.177247 211.04164 1606.552248 220.79164 1619.698082 C 230.541641 1632.843917 240.60935 1645.739751 250.98956 1658.390794 C 261.369769 1671.041837 272.05727 1683.432463 283.046854 1695.557464 C 294.041647 1707.687673 305.322898 1719.536632 316.895815 1731.104342 C 328.463525 1742.677259 340.312484 1753.95851 352.442693 1764.953303 C 364.567694 1775.942887 376.958321 1786.630388 389.604155 1797.010597 C 402.255198 1807.390807 415.15624 1817.458516 428.302075 1827.208517 C 441.447909 1836.958518 454.822911 1846.375185 468.432287 1855.468936 C 482.036455 1864.562687 495.859372 1873.312687 509.895832 1881.729355 C 523.932291 1890.140814 538.171876 1898.208523 552.604169 1905.922065 C 567.036462 1913.635607 581.651046 1920.989775 596.442714 1927.989775 C 611.239591 1934.984568 626.197925 1941.614776 641.317718 1947.880402 C 656.437511 1954.140819 671.703137 1960.031445 687.109389 1965.541862 C 702.520848 1971.057487 718.0521 1976.187696 733.713559 1980.937697 C 749.375019 1985.692905 765.145854 1990.052281 781.020855 1994.031448 C 796.895857 1998.005406 812.8594 2001.593948 828.911484 2004.786657 C 844.958361 2007.979366 861.083362 2010.776241 877.270863 2013.177283 C 893.458365 2015.578324 909.69795 2017.578325 925.984409 2019.182491 C 942.270869 2020.786658 958.588579 2021.994992 974.93233 2022.797075 C 991.276082 2023.599159 1007.635458 2024.0002 1024.000043 2024.0002 C 1040.364627 2024.0002 1056.724004 2023.599159 1073.067755 2022.797075 C 1089.411507 2021.994992 1105.729216 2020.786658 1122.015676 2019.182491 C 1138.302136 2017.578325 1154.541721 2015.578324 1170.729222 2013.177283 C 1186.916723 2010.776241 1203.036516 2007.979366 1219.088601 2004.786657 C 1235.140686 2001.593948 1251.104229 1998.005406 1266.97923 1994.031448 C 1282.854232 1990.052281 1298.625066 1985.692905 1314.286526 1980.937697 C 1329.947986 1976.187696 1345.479237 1971.057487 1360.890697 1965.541862 C 1376.296948 1960.031445 1391.562574 1954.140819 1406.682367 1947.880402 C 1421.80216 1941.614776 1436.760495 1934.984568 1451.557371 1927.989775 C 1466.349039 1920.989775 1480.963624 1913.635607 1495.395916 1905.922065 C 1509.828209 1898.208523 1524.062586 1890.140814 1538.104253 1881.729355 C 1552.140713 1873.312687 1565.963631 1864.562687 1579.567799 1855.468936 C 1593.177175 1846.375185 1606.552176 1836.958518 1619.69801 1827.208517 C 1632.843845 1817.458516 1645.744888 1807.390807 1658.390722 1797.010597 C 1671.041765 1786.630388 1683.432391 1775.942887 1695.557392 1764.953303 C 1707.687601 1753.95851 1719.536561 1742.677259 1731.10427 1731.104342 C 1742.677188 1719.536632 1753.958439 1707.687673 1764.953231 1695.557464 C 1775.942815 1683.432463 1786.630316 1671.041837 1797.010526 1658.390794 C 1807.390735 1645.744959 1817.458444 1632.843917 1827.208445 1619.698082 C 1836.958446 1606.552248 1846.375113 1593.177247 1855.468864 1579.56787 C 1864.562615 1565.963703 1873.312615 1552.140785 1881.729283 1538.104325 C 1890.140742 1524.062657 1898.208451 1509.828281 1905.921993 1495.395988 C 1913.635536 1480.963695 1920.989703 1466.349111 1927.989704 1451.552234 C 1934.984496 1436.760567 1941.614705 1421.802232 1947.88033 1406.682439 C 1954.140747 1391.562646 1960.031373 1376.29702 1965.54179 1360.890768 C 1971.057416 1345.479309 1976.187624 1329.948057 1980.942833 1314.286598 C 1985.692833 1298.625138 1990.052209 1282.854303 1994.031376 1266.979302 C 1998.005335 1251.104301 2001.593876 1235.140758 2004.786585 1219.088673 C 2007.979294 1203.036588 2010.776169 1186.916795 2013.177211 1170.729294 C 2015.578253 1154.541792 2017.578253 1138.302208 2019.18242 1122.015748 C 2020.786586 1105.729288 2021.99492 1089.411578 2022.797003 1073.067827 C 2023.599087 1056.724076 2024.000128 1040.364699 2024.000128 1024.000114 C 2024.000128 1007.63553 2023.599087 991.276153 2022.797003 974.932402 C 2021.99492 958.588651 2020.786586 942.270941 2019.18242 925.984481 C 2017.578253 909.698021 2015.578253 893.458437 2013.177211 877.270935 C 2010.776169 861.078225 2007.979294 844.958432 2004.786585 828.911556 C 2001.593876 812.859471 1998.005335 796.895928 1994.031376 781.020927 C 1990.052209 765.145926 1985.692833 749.375091 1980.942833 733.713631 C 1976.187624 718.052172 1971.057416 702.52092 1965.54179 687.109461 C 1960.031373 671.703209 1954.140747 656.437583 1947.88033 641.31779 C 1941.614705 626.197997 1934.984496 611.239662 1927.989704 596.442786 C 1920.989703 581.651118 1913.635536 567.036534 1905.921993 552.604241 C 1898.208451 538.171948 1890.140742 523.932363 1881.729283 509.895904 C 1873.312615 495.859444 1864.562615 482.036526 1855.468864 468.42715 C 1846.375113 454.822982 1836.958446 441.447981 1827.208445 428.302147 C 1817.458444 415.156312 1807.390735 402.255269 1797.010526 389.604227 C 1786.630316 376.958392 1775.942815 364.567766 1764.953231 352.442765 C 1753.958439 340.312556 1742.677188 328.463596 1731.10427 316.890679 C 1719.536561 305.32297 1707.687601 294.041719 1695.557392 283.046926 C 1683.432391 272.057342 1671.041765 261.369841 1658.390722 250.989632 C 1645.744888 240.609422 1632.843845 230.541713 1619.69801 220.791712 C 1606.552176 211.041711 1593.177175 201.625044 1579.567799 192.531293 C 1565.963631 183.437542 1552.140713 174.687542 1538.104253 166.270874 C 1524.067794 157.859415 1509.828209 149.791706 1495.395916 142.078164 C 1480.963624 134.364622 1466.349039 127.010454 1451.557371 120.010454 C 1436.760495 113.015661 1421.80216 106.385452 1406.682367 100.119827 C 1391.562574 93.85941 1376.296948 87.968784 1360.890697 82.458367 C 1345.479237 76.942742 1329.947986 71.812533 1314.286526 67.057324 C 1298.625066 62.307324 1282.854232 57.94274 1266.97923 53.968781 C 1251.104229 49.989614 1235.140686 46.406281 1219.088601 43.213572 C 1203.036516 40.020863 1186.916723 37.223988 1170.729222 34.822946 C 1154.541721 32.421904 1138.302136 30.421904 1122.015676 28.817737 C 1105.729216 27.213571 1089.411507 26.005237 1073.067755 25.203154 C 1056.724004 24.40107 1040.364627 24.000029 1024.000043 24.000029 C 1007.635458 24.000029 991.276082 24.40107 974.93233 25.203154 C 958.588579 26.005237 942.270869 27.213571 925.984409 28.817737 C 909.69795 30.421904 893.458365 32.421904 877.270863 34.822946 C 861.083362 37.223988 844.958361 40.020863 828.911484 43.213572 C 812.8594 46.406281 796.895857 49.989614 781.020855 53.968781 C 765.145854 57.94274 749.375019 62.307324 733.713559 67.057324 C 718.0521 71.812533 702.520848 76.942742 687.109389 82.458367 C 671.703137 87.968784 656.437511 93.85941 641.317718 100.119827 C 626.197925 106.385452 611.239591 113.015661 596.442714 120.010454 C 581.651046 127.010454 567.036462 134.364622 552.604169 142.078164 C 538.171876 149.791706 523.932291 157.859415 509.895832 166.270874 C 495.859372 174.687542 482.036455 183.437542 468.432287 192.531293 C 454.822911 201.625044 441.447909 211.041711 428.302075 220.791712 C 415.15624 230.541713 402.255198 240.609422 389.604155 250.989632 C 376.958321 261.369841 364.567694 272.057342 352.442693 283.046926 C 340.312484 294.041719 328.463525 305.32297 316.895815 316.890679 C 305.322898 328.463596 294.041647 340.312556 283.046854 352.442765 C 272.05727 364.567766 261.369769 376.958392 250.98956 389.604227 C 240.60935 402.255269 230.541641 415.156312 220.79164 428.302147 C 211.04164 441.447981 201.624972 454.822982 192.531221 468.42715 C 183.437471 482.036526 174.68747 495.859444 166.270802 509.895904 C 157.859343 523.932363 149.791634 538.171948 142.078092 552.604241 C 134.36455 567.036534 127.010382 581.651118 120.010382 596.442786 C 113.01559 611.239662 106.385381 626.197997 100.119755 641.31779 C 93.859338 656.437583 87.968712 671.703209 82.458295 687.109461 C 76.94267 702.52092 71.812461 718.052172 67.057252 733.713631 C 62.307252 749.375091 57.947877 765.145926 53.968709 781.020927 C 49.994751 796.895928 46.406209 812.859471 43.2135 828.911556 C 40.020792 844.958432 37.223916 861.078225 34.822875 877.270935 C 32.421833 893.458437 30.421832 909.698021 28.817666 925.984481 C 27.213499 942.270941 26.005165 958.588651 25.203082 974.932402 C 24.400999 991.276153 23.999957 1007.63553 23.999957 1024.000114 M 223.999974 1024.000114 C 223.999974 1037.093866 224.322891 1050.1772 224.963516 1063.255326 C 225.604141 1076.333452 226.567683 1089.385537 227.854141 1102.41158 C 229.135391 1115.442831 230.739558 1128.432415 232.656225 1141.385541 C 234.5781 1154.333459 236.817684 1167.229293 239.369767 1180.073045 C 241.927059 1192.911587 244.791643 1205.682422 247.973934 1218.385548 C 251.156226 1231.083466 254.64581 1243.69805 258.447894 1256.229301 C 262.249977 1268.755344 266.354144 1281.182428 270.765603 1293.510554 C 275.177062 1305.83868 279.885396 1318.052223 284.895813 1330.145974 C 289.90623 1342.244933 295.208314 1354.208476 300.807272 1366.04181 C 306.406231 1377.880353 312.291648 1389.573062 318.463524 1401.11473 C 324.635399 1412.661606 331.088525 1424.052232 337.817692 1435.2814 C 344.546859 1446.510567 351.552068 1457.56786 358.822902 1468.458486 C 366.098945 1479.343904 373.635404 1490.041821 381.432279 1500.557447 C 389.234363 1511.073073 397.286447 1521.39599 405.59374 1531.515783 C 413.895824 1541.635576 422.447908 1551.547035 431.239575 1561.244952 C 440.031243 1570.948078 449.057285 1580.427246 458.312494 1589.687663 C 467.572912 1598.942872 477.052079 1607.968915 486.755205 1616.760582 C 496.453122 1625.552249 506.364582 1634.104333 516.484374 1642.406417 C 526.604167 1650.71371 536.921876 1658.765794 547.44271 1666.567878 C 557.958336 1674.364754 568.656254 1681.901213 579.541671 1689.177255 C 590.432297 1696.448089 601.48959 1703.453298 612.718757 1710.182465 C 623.947925 1716.911632 635.333343 1723.364758 646.880219 1729.536633 C 658.427095 1735.708509 670.119804 1741.593926 681.958347 1747.192885 C 693.791681 1752.786635 705.755224 1758.093927 717.854183 1763.104345 C 729.947934 1768.114762 742.161477 1772.823095 754.489603 1777.234554 C 766.817729 1781.646013 779.244813 1785.75018 791.770856 1789.552263 C 804.302107 1793.354347 816.916692 1796.843931 829.614609 1800.026223 C 842.317735 1803.208515 855.08857 1806.073098 867.927113 1808.63039 C 880.770864 1811.182474 893.666698 1813.422057 906.614616 1815.338724 C 919.567742 1817.260599 932.557326 1818.864766 945.588578 1820.146016 C 958.61462 1821.432475 971.666705 1822.396016 984.744831 1823.036641 C 997.822957 1823.677266 1010.906292 1824.000183 1024.000043 1824.000183 C 1037.093794 1824.000183 1050.177128 1823.677266 1063.255254 1823.036641 C 1076.33338 1822.396016 1089.385465 1821.432475 1102.411508 1820.146016 C 1115.442759 1818.864766 1128.432343 1817.260599 1141.385469 1815.338724 C 1154.333387 1813.422057 1167.229222 1811.182474 1180.072973 1808.63039 C 1192.911515 1806.073098 1205.68235 1803.208515 1218.385476 1800.026223 C 1231.083394 1796.843931 1243.697978 1793.354347 1256.229229 1789.552263 C 1268.755272 1785.75018 1281.182356 1781.646013 1293.510482 1777.234554 C 1305.838608 1772.823095 1318.052151 1768.114762 1330.145902 1763.104345 C 1342.244862 1758.093927 1354.208404 1752.786635 1366.041739 1747.192885 C 1377.880281 1741.593926 1389.572991 1735.708509 1401.114658 1729.536633 C 1412.661534 1723.364758 1424.05216 1716.911632 1435.281328 1710.182465 C 1446.510496 1703.453298 1457.567788 1696.448089 1468.458414 1689.177255 C 1479.343832 1681.901213 1490.041749 1674.364754 1500.557375 1666.567878 C 1511.073001 1658.765794 1521.395919 1650.71371 1531.515711 1642.406417 C 1541.635504 1634.104333 1551.546963 1625.552249 1561.24488 1616.760582 C 1570.948006 1607.968915 1580.427174 1598.942872 1589.687591 1589.687663 C 1598.9428 1580.427246 1607.968843 1570.948078 1616.76051 1561.244952 C 1625.552178 1551.547035 1634.104262 1541.635576 1642.406346 1531.515783 C 1650.713638 1521.39599 1658.765722 1511.073073 1666.567806 1500.557447 C 1674.364682 1490.041821 1681.901141 1479.343904 1689.177183 1468.458486 C 1696.448017 1457.56786 1703.453226 1446.510567 1710.182393 1435.2814 C 1716.91156 1424.052232 1723.364686 1412.661606 1729.536561 1401.11473 C 1735.708437 1389.573062 1741.593854 1377.880353 1747.192813 1366.04181 C 1752.791772 1354.208476 1758.093856 1342.244933 1763.104273 1330.145974 C 1768.11469 1318.052223 1772.823024 1305.83868 1777.234482 1293.510554 C 1781.645941 1281.182428 1785.750108 1268.755344 1789.552192 1256.229301 C 1793.354275 1243.69805 1796.843859 1231.083466 1800.026151 1218.385548 C 1803.208443 1205.682422 1806.073026 1192.911587 1808.630318 1180.073045 C 1811.182402 1167.229293 1813.421985 1154.333459 1815.338652 1141.385541 C 1817.260527 1128.432415 1818.864694 1115.442831 1820.145944 1102.41158 C 1821.432403 1089.385537 1822.395944 1076.333452 1823.03657 1063.255326 C 1823.677195 1050.1772 1824.000111 1037.093866 1824.000111 1024.000114 C 1824.000111 1010.906363 1823.677195 997.823029 1823.03657 984.744903 C 1822.395944 971.666777 1821.432403 958.614692 1820.145944 945.588649 C 1818.864694 932.557398 1817.260527 919.567814 1815.338652 906.614688 C 1813.421985 893.66677 1811.182402 880.770936 1808.630318 867.927184 C 1806.073026 855.088642 1803.208443 842.317807 1800.026151 829.614681 C 1796.843859 816.916763 1793.354275 804.302179 1789.552192 791.770928 C 1785.750108 779.244885 1781.645941 766.817801 1777.234482 754.489675 C 1772.823024 742.161549 1768.11469 729.948006 1763.104273 717.854255 C 1758.093856 705.755296 1752.791772 693.791753 1747.192813 681.958418 C 1741.593854 670.119876 1735.708437 658.427166 1729.536561 646.88029 C 1723.364686 635.333414 1716.91156 623.947997 1710.182393 612.718829 C 1703.453226 601.489662 1696.448017 590.432369 1689.177183 579.541743 C 1681.901141 568.656325 1674.364682 557.958408 1666.567806 547.442782 C 1658.765722 536.921948 1650.713638 526.604238 1642.406346 516.484446 C 1634.104262 506.364653 1625.552178 496.453194 1616.76051 486.755277 C 1607.968843 477.052151 1598.9428 467.572983 1589.687591 458.312566 C 1580.427174 449.057357 1570.948006 440.031314 1561.24488 431.239647 C 1551.546963 422.44798 1541.635504 413.895895 1531.515711 405.593811 C 1521.395919 397.286519 1511.073001 389.234435 1500.557375 381.432351 C 1490.041749 373.635475 1479.343832 366.099016 1468.458414 358.822974 C 1457.567788 351.55214 1446.510496 344.546931 1435.281328 337.817764 C 1424.05216 331.088597 1412.661534 324.635471 1401.114658 318.463596 C 1389.572991 312.29172 1377.880281 306.406303 1366.041739 300.807344 C 1354.208404 295.208385 1342.244862 289.906302 1330.145902 284.895884 C 1318.052151 279.885467 1305.838608 275.177134 1293.510482 270.765675 C 1281.182356 266.354216 1268.755272 262.250049 1256.229229 258.447965 C 1243.697978 254.645882 1231.083394 251.156298 1218.385476 247.974006 C 1205.68235 244.791714 1192.911515 241.927131 1180.072973 239.369839 C 1167.229222 236.817755 1154.333387 234.578172 1141.385469 232.656297 C 1128.432343 230.73963 1115.442759 229.135463 1102.411508 227.854213 C 1089.385465 226.567754 1076.33338 225.604213 1063.255254 224.963588 C 1050.177128 224.322963 1037.093794 224.000046 1024.000043 224.000046 C 1010.906292 224.000046 997.822957 224.322963 984.744831 224.963588 C 971.666705 225.604213 958.61462 226.567754 945.588578 227.854213 C 932.557326 229.135463 919.567742 230.73963 906.614616 232.656297 C 893.666698 234.578172 880.770864 236.817755 867.927113 239.369839 C 855.08857 241.927131 842.317735 244.791714 829.614609 247.974006 C 816.916692 251.156298 804.302107 254.645882 791.770856 258.447965 C 779.244813 262.250049 766.817729 266.354216 754.489603 270.765675 C 742.161477 275.177134 729.947934 279.885467 717.854183 284.895884 C 705.755224 289.906302 693.791681 295.208385 681.958347 300.807344 C 670.119804 306.406303 658.427095 312.29172 646.880219 318.463596 C 635.333343 324.635471 623.947925 331.088597 612.718757 337.817764 C 601.48959 344.546931 590.432297 351.55214 579.541671 358.822974 C 568.656254 366.099016 557.958336 373.635475 547.44271 381.432351 C 536.921876 389.234435 526.604167 397.286519 516.484374 405.593811 C 506.364582 413.895895 496.453122 422.44798 486.755205 431.239647 C 477.052079 440.031314 467.572912 449.057357 458.312494 458.312566 C 449.057285 467.572983 440.031243 477.052151 431.239575 486.755277 C 422.447908 496.453194 413.895824 506.364653 405.59374 516.484446 C 397.286447 526.604238 389.234363 536.921948 381.432279 547.442782 C 373.635404 557.958408 366.098945 568.656325 358.822902 579.541743 C 351.552068 590.432369 344.546859 601.489662 337.817692 612.718829 C 331.088525 623.947997 324.635399 635.333414 318.463524 646.88029 C 312.291648 658.427166 306.406231 670.119876 300.807272 681.958418 C 295.208314 693.791753 289.90623 705.755296 284.895813 717.854255 C 279.885396 729.948006 275.177062 742.161549 270.765603 754.489675 C 266.354144 766.817801 262.249977 779.244885 258.447894 791.770928 C 254.64581 804.302179 251.156226 816.916763 247.973934 829.614681 C 244.791643 842.317807 241.927059 855.088642 239.369767 867.927184 C 236.817684 880.770936 234.5781 893.66677 232.656225 906.614688 C 230.739558 919.567814 229.135391 932.557398 227.854141 945.588649 C 226.567683 958.614692 225.604141 971.666777 224.963516 984.744903 C 224.322891 997.823029 223.999974 1010.906363 223.999974 1024.000114 " stroke="#ffffff" stroke-width="15" stroke-opacity="1" stroke-miterlimit="4"/><path stroke-linecap="butt" transform="matrix(1.8, 0, 0, -1.8, 764.568472, 808.670839)" fill-opacity="1" fill="#ffffff" fill-rule="nonzero" stroke-linejoin="miter" d="M 0.00102234 -0.000575743 L 8.605624 -0.000575743 L 8.605624 -21.866899 L -43.937786 -21.866899 L -43.937786 -11.994935 L -35.331014 -11.994935 L -35.331014 42.217313 L -43.937786 42.217313 L -43.937786 51.8332 L -16.044987 51.8332 L -16.044987 42.217313 L -24.549763 42.217313 L -24.549763 -11.994935 L 0.00102234 -11.994935 Z M 0.00102234 -0.000575743 " stroke="#cd2029" stroke-width="1.5" stroke-opacity="1" stroke-miterlimit="4"/><path stroke-linecap="butt" transform="matrix(1.8, 0, 0, -1.8, 785.159847, 715.370007)" fill-opacity="1" fill="#ffffff" fill-rule="nonzero" stroke-linejoin="miter" d="M 0.000172067 -0.000603938 L 27.445923 -0.000603938 L 27.445923 -9.429859 L 19.108248 -9.429859 L 19.108248 -44.319187 C 19.108248 -51.317886 20.000175 -56.280994 21.836113 -59.208512 C 23.674221 -62.1382 27.148614 -63.626916 32.309205 -63.626916 C 37.471966 -63.626916 40.994102 -62.28577 42.83004 -59.557905 C 44.665977 -56.82787 45.609988 -52.31181 45.609988 -45.957642 L 45.609988 -9.429859 L 37.172487 -9.429859 L 37.172487 -0.000603938 L 64.520581 -0.000603938 L 64.520581 -9.429859 L 56.08308 -9.429859 L 56.08308 -45.859986 C 56.08308 -50.473702 55.883427 -54.147748 55.536205 -56.877783 C 55.188983 -59.607818 54.297055 -62.086117 52.955909 -64.31919 C 49.234121 -70.276222 42.185508 -73.700702 32.70634 -73.700702 C 22.73021 -73.700702 15.881251 -70.673358 12.059636 -64.620839 C 10.521007 -62.1382 9.529253 -59.557905 9.132118 -56.82787 C 8.734982 -54.097834 8.53533 -50.473702 8.53533 -45.859986 L 8.53533 -9.429859 L 0.000172067 -9.429859 Z M 0.000172067 -0.000603938 " stroke="#cd2029" stroke-width="1.5" stroke-opacity="1" stroke-miterlimit="4"/><path stroke-linecap="butt" transform="matrix(1.8, 0, 0, -1.8, 956.602872, 848.031363)" fill-opacity="1" fill="#ffffff" fill-rule="nonzero" stroke-linejoin="miter" d="M -0.000727405 0.0000629377 L -27.891357 0.0000629377 L -27.891357 9.872026 L -19.286755 9.872026 L -19.286755 64.084274 L -27.891357 64.084274 L -27.891357 73.700161 L -2.936926 73.700161 L 18.425925 16.705795 L 39.786605 73.700161 L 64.790949 73.700161 L 64.790949 64.084274 L 56.186347 64.084274 L 56.186347 9.872026 L 64.790949 9.872026 L 64.790949 0.0000629377 L 36.90032 0.0000629377 L 36.90032 9.872026 L 46.114731 9.872026 L 46.114731 63.982278 L 22.171585 0.0000629377 L 14.578268 0.0000629377 L -9.364878 63.982278 L -9.364878 9.872026 L -0.000727405 9.872026 Z M -0.000727405 0.0000629377 " stroke="#cd2029" stroke-width="1.5" stroke-opacity="1" stroke-miterlimit="4"/><path stroke-linecap="butt" transform="matrix(1.8, 0, 0, -1.8, 1128.533481, 848.031363)" fill-opacity="1" fill="#ffffff" fill-rule="nonzero" stroke-linejoin="miter" d="M 0.000930646 0.0000629377 L -27.891869 0.0000629377 L -27.891869 9.872026 L -19.285097 9.872026 L -19.285097 64.084274 L -27.891869 64.084274 L -27.891869 73.700161 L -8.401848 73.700161 L 27.537827 18.222722 L 27.537827 64.084274 L 18.829059 64.084274 L 18.829059 73.700161 L 46.721858 73.700161 L 46.721858 64.084274 L 38.115086 64.084274 L 38.115086 0.0000629377 L 27.689737 0.0000629377 L -8.705668 57.198422 L -8.705668 9.872026 L 0.000930646 9.872026 Z M 0.000930646 0.0000629377 " stroke="#cd2029" stroke-width="1.5" stroke-opacity="1" stroke-miterlimit="4"/><path stroke-linecap="butt" transform="matrix(1.8, 0, 0, -1.8, 1267.937037, 848.031363)" fill-opacity="1" fill="#ffffff" fill-rule="nonzero" stroke-linejoin="miter" d="M 0.000257148 0.0000629377 L -27.890372 0.0000629377 L -27.890372 9.872026 L -19.28577 9.872026 L -19.28577 64.084274 L -27.890372 64.084274 L -27.890372 73.700161 L 0.000257148 73.700161 L 0.000257148 64.084274 L -8.604345 64.084274 L -8.604345 9.872026 L 0.000257148 9.872026 Z M 0.000257148 0.0000629377 " stroke="#cd2029" stroke-width="1.5" stroke-opacity="1" stroke-miterlimit="4"/><path stroke-linecap="butt" transform="matrix(1.8, 0, 0, -1.8, 600.38583, 732.740197)" fill-opacity="1" fill="#ffffff" fill-rule="nonzero" stroke-linejoin="miter" d="M 0.000493544 0.0010644 C -24.882323 24.083099 -50.821997 40.4568 -68.387104 44.558363 C -68.389274 44.558363 -68.389274 44.560533 -68.391444 44.560533 C -68.393614 44.560533 -68.397954 44.560533 -68.397954 44.560533 C -70.448736 45.224596 -72.759934 45.547946 -75.294657 45.547946 L -75.307678 45.547946 C -77.100213 45.613051 -78.753859 45.493693 -80.253425 45.181193 L -80.257765 45.181193 C -80.259935 45.181193 -80.264276 45.179023 -80.266446 45.179023 C -80.268616 45.176853 -80.272956 45.176853 -80.272956 45.176853 C -80.277296 45.176853 -80.277296 45.176853 -80.281637 45.176853 C -80.285977 45.174682 -80.285977 45.174682 -80.290317 45.174682 C -97.434417 42.741956 -121.991713 28.547076 -144.793365 6.409486 C -145.34024 5.879972 -145.880605 5.350458 -146.416629 4.820944 C -149.094581 4.065735 -146.123661 13.390823 -140.157948 27.040999 C -140.157948 27.05185 -140.157948 27.064871 -140.144927 27.077891 C -132.636245 51.496298 -88.525996 136.576606 -74.986497 136.576606 C -64.550298 136.576606 -36.937446 91.198995 -10.839352 43.594821 C 4.803012 15.04881 19.90284 -14.293643 30.432356 -35.13349 C 22.441903 -23.788002 12.10553 -11.717687 0.000493544 0.0010644 M -55.370609 13.751066 C -42.397516 10.046639 -27.275986 4.833964 -13.389265 -4.764561 C 10.501797 -21.279321 24.162824 -34.230712 35.679752 -48.926894 C 37.954058 -52.225506 41.235309 -57.051896 42.155448 -58.909535 C 42.157618 -58.913875 42.153278 -58.907365 42.155448 -58.909535 C 44.651108 -63.97681 44.729233 -63.801029 44.878973 -64.098338 C 44.740084 -63.638268 43.572549 -59.777591 41.552149 -53.319256 C 41.552149 -53.317086 41.552149 -53.317086 41.549979 -53.314916 C 26.335133 -4.699457 -37.258627 191.018889 -74.986497 191.018889 C -100.618011 191.018889 -142.032948 110.109588 -167.521233 42.425116 C -167.555956 42.340481 -167.592848 42.255845 -167.61672 42.16904 C -188.107174 -15.990692 -201.509954 -57.733319 -193.916637 -63.330108 C -192.269501 -64.543216 -187.848927 -63.98115 -184.834604 -62.392608 C -175.89363 -57.683406 -161.38191 -45.504585 -161.379739 -45.502415 C -146.89623 -32.388263 -142.130605 -27.81795 -137.634076 -23.4538 C -127.310724 -13.432097 -116.631469 -5.042339 -106.442665 1.368252 C -105.353255 2.054016 -104.270356 2.715909 -103.193967 3.3561 C -96.512108 7.325284 -90.793791 11.415997 -84.871481 13.505841 C -75.867574 16.680754 -70.450906 17.937265 -56.690053 14.12216 Z M -55.370609 13.751066 " stroke="#cd2029" stroke-width="1.5" stroke-opacity="1" stroke-miterlimit="4"/><path fill="#cd2029" d="M 699.707031 679.039062 L 706.824219 679.039062 C 716.308594 679.039062 721.050781 675.695312 721.050781 669 C 721.050781 665.691406 719.847656 663.136719 717.4375 661.328125 C 715.027344 659.519531 711.601562 658.617188 707.167969 658.617188 L 699.707031 658.617188 Z M 699.707031 645.535156 L 704.300781 645.535156 C 712.484375 645.535156 716.578125 642.761719 716.578125 637.214844 C 716.578125 634.519531 715.617188 632.457031 713.707031 631.03125 C 711.792969 629.609375 709.078125 628.894531 705.5625 628.894531 L 699.707031 628.894531 Z M 685.480469 692.121094 L 685.480469 615.585938 L 700.625 615.585938 C 703.914062 615.585938 706.746094 615.683594 709.121094 615.875 C 711.488281 616.066406 713.574219 616.394531 715.371094 616.851562 C 717.167969 617.3125 718.757812 617.90625 720.132812 618.632812 C 721.511719 619.359375 722.847656 620.300781 724.148438 621.449219 C 726.136719 623.214844 727.722656 625.398438 728.910156 628.003906 C 730.097656 630.609375 730.691406 633.21875 730.691406 635.820312 C 730.691406 639.195312 730.003906 642.050781 728.625 644.386719 C 727.246094 646.726562 725.105469 648.742188 722.199219 650.425781 C 724.722656 651.417969 726.789062 652.527344 728.394531 653.746094 C 730.003906 654.96875 731.378906 656.574219 732.527344 658.558594 C 733.367188 660.007812 734.035156 661.671875 734.535156 663.542969 C 735.03125 665.414062 735.28125 667.378906 735.28125 669.441406 C 735.28125 673.867188 734.113281 677.878906 731.78125 681.464844 C 729.445312 685.058594 726.214844 687.730469 722.085938 689.488281 C 718.105469 691.242188 712.714844 692.121094 705.90625 692.121094 Z M 685.480469 692.121094 " fill-opacity="1" fill-rule="nonzero"/><path fill="#cd2029" d="M 769.527344 659.304688 L 785.9375 659.304688 L 777.789062 635.78125 Z M 740.382812 692.121094 L 772.167969 615.585938 L 783.296875 615.585938 L 815.425781 692.121094 L 799.707031 692.121094 L 791.558594 672.386719 L 764.480469 672.386719 L 755.988281 692.121094 Z M 740.382812 692.121094 " fill-opacity="1" fill-rule="nonzero"/><path fill="#cd2029" d="M 858.742188 679.53125 C 862.273438 679.53125 865.4375 678.824219 868.238281 677.40625 C 871.039062 675.992188 874.019531 673.605469 877.183594 670.253906 L 892.976562 670.253906 C 891.578125 673.566406 889.71875 676.566406 887.398438 679.253906 C 885.082031 681.941406 882.429688 684.242188 879.449219 686.15625 C 876.464844 688.070312 873.226562 689.542969 869.730469 690.574219 C 866.230469 691.605469 862.644531 692.121094 858.960938 692.121094 C 853.730469 692.121094 848.78125 691.109375 844.109375 689.082031 C 839.429688 687.058594 835.34375 684.300781 831.847656 680.800781 C 828.351562 677.304688 825.589844 673.21875 823.566406 668.542969 C 821.539062 663.867188 820.527344 658.878906 820.527344 653.578125 C 820.527344 648.425781 821.539062 643.527344 823.566406 638.886719 C 825.589844 634.25 828.332031 630.21875 831.792969 626.792969 C 835.253906 623.371094 839.285156 620.648438 843.886719 618.621094 C 848.488281 616.597656 853.402344 615.585938 858.628906 615.585938 C 863.933594 615.585938 868.917969 616.578125 873.59375 618.570312 C 878.269531 620.554688 882.488281 623.464844 886.238281 627.292969 C 887.125 628.175781 887.878906 628.988281 888.503906 629.722656 C 889.128906 630.457031 889.71875 631.230469 890.269531 632.042969 C 890.824219 632.851562 891.335938 633.734375 891.816406 634.691406 C 892.296875 635.648438 892.828125 636.789062 893.421875 638.117188 L 877.957031 638.117188 C 876.191406 636.03125 874.550781 634.410156 873.042969 633.257812 C 871.535156 632.105469 869.820312 631.117188 867.90625 630.300781 C 866.433594 629.703125 864.816406 629.199219 863.046875 628.789062 C 861.28125 628.378906 859.660156 628.175781 858.1875 628.175781 C 854.945312 628.175781 851.875 628.859375 848.96875 630.226562 C 846.058594 631.59375 843.515625 633.464844 841.347656 635.828125 C 839.171875 638.199219 837.441406 640.929688 836.15625 644.039062 C 834.867188 647.144531 834.222656 650.394531 834.222656 653.796875 C 834.222656 657.273438 834.882812 660.5625 836.210938 663.667969 C 837.539062 666.777344 839.304688 669.511719 841.511719 671.878906 C 843.71875 674.246094 846.316406 676.113281 849.296875 677.480469 C 852.28125 678.847656 855.425781 679.53125 858.742188 679.53125 " fill-opacity="1" fill-rule="nonzero"/><path fill="#cd2029" d="M 898.523438 692.121094 L 898.523438 615.585938 L 912.75 615.585938 L 912.75 646.910156 L 940.0625 646.910156 L 940.0625 615.585938 L 954.289062 615.585938 L 954.289062 692.121094 L 940.0625 692.121094 L 940.0625 659.992188 L 912.75 659.992188 L 912.75 692.121094 Z M 898.523438 692.121094 " fill-opacity="1" fill-rule="nonzero"/><path fill="#cd2029" d="M 990.332031 692.121094 L 990.332031 615.585938 L 1004.558594 615.585938 L 1004.558594 648.746094 L 1028.65625 615.585938 L 1045.292969 615.585938 L 1016.378906 653.222656 L 1045.292969 692.121094 L 1028.65625 692.121094 L 1004.558594 658.5 L 1004.558594 692.121094 Z M 990.332031 692.121094 " fill-opacity="1" fill-rule="nonzero"/><path fill="#cd2029" d="M 1050.394531 692.121094 L 1050.394531 615.585938 L 1064.625 615.585938 L 1064.625 646.910156 L 1091.933594 646.910156 L 1091.933594 615.585938 L 1106.164062 615.585938 L 1106.164062 692.121094 L 1091.933594 692.121094 L 1091.933594 659.992188 L 1064.625 659.992188 L 1064.625 692.121094 Z M 1050.394531 692.121094 " fill-opacity="1" fill-rule="nonzero"/><path fill="#cd2029" d="M 1152.597656 656.921875 C 1151.777344 657.742188 1150.703125 658.179688 1149.535156 658.179688 C 1148.371094 658.179688 1147.296875 657.742188 1146.476562 656.921875 C 1144.78125 655.226562 1144.78125 652.476562 1146.476562 650.785156 C 1147.296875 649.964844 1148.371094 649.507812 1149.535156 649.507812 C 1150.703125 649.507812 1151.777344 649.964844 1152.597656 650.785156 C 1153.414062 651.605469 1153.871094 652.695312 1153.871094 653.84375 C 1153.871094 655.011719 1153.414062 656.101562 1152.597656 656.921875 M 1156.75 652.421875 C 1156.714844 652.1875 1156.65625 651.949219 1156.585938 651.730469 C 1156.238281 650.582031 1155.621094 649.507812 1154.746094 648.632812 C 1154.234375 648.125 1153.671875 647.707031 1153.050781 647.378906 C 1152.835938 647.25 1152.613281 647.160156 1152.398438 647.070312 C 1151.503906 646.6875 1150.539062 646.484375 1149.535156 646.484375 C 1148.535156 646.484375 1147.570312 646.6875 1146.679688 647.070312 C 1146.457031 647.160156 1146.242188 647.25 1146.019531 647.378906 C 1145.402344 647.707031 1144.839844 648.125 1144.328125 648.632812 C 1143.816406 649.144531 1143.378906 649.710938 1143.070312 650.328125 C 1142.46875 651.402344 1142.160156 652.605469 1142.160156 653.84375 C 1142.160156 655.082031 1142.453125 656.265625 1143.035156 657.304688 C 1143.363281 657.941406 1143.800781 658.523438 1144.328125 659.054688 L 1144.328125 659.070312 C 1144.964844 659.707031 1145.710938 660.21875 1146.515625 660.566406 C 1146.679688 660.636719 1146.84375 660.710938 1147.003906 660.765625 C 1147.167969 660.820312 1147.351562 660.875 1147.515625 660.929688 C 1147.695312 660.984375 1147.859375 661.019531 1148.042969 661.054688 C 1148.519531 661.164062 1149.007812 661.21875 1149.519531 661.21875 C 1149.773438 661.21875 1150.027344 661.203125 1150.285156 661.164062 C 1150.519531 661.144531 1150.757812 661.109375 1150.996094 661.054688 C 1151.011719 661.074219 1151.03125 661.074219 1151.046875 661.054688 C 1153.398438 660.566406 1155.347656 658.941406 1156.277344 656.777344 C 1156.511719 656.25 1156.675781 655.71875 1156.765625 655.175781 C 1156.804688 654.992188 1156.839844 654.789062 1156.855469 654.589844 C 1156.929688 653.863281 1156.894531 653.132812 1156.75 652.421875 " fill-opacity="1" fill-rule="nonzero"/><path fill="#cd2029" d="M 1149.523438 637.496094 C 1145.148438 637.496094 1141.039062 639.195312 1137.953125 642.28125 C 1134.863281 645.371094 1133.160156 649.480469 1133.160156 653.855469 C 1133.160156 658.222656 1134.863281 662.332031 1137.953125 665.425781 C 1141.039062 668.511719 1145.148438 670.210938 1149.523438 670.210938 C 1153.902344 670.210938 1158.011719 668.511719 1161.097656 665.425781 C 1164.183594 662.339844 1165.882812 658.230469 1165.882812 653.851562 C 1165.882812 649.476562 1164.183594 645.367188 1161.097656 642.28125 C 1158.011719 639.195312 1153.902344 637.496094 1149.523438 637.496094 M 1149.523438 675.367188 C 1143.769531 675.367188 1138.363281 673.132812 1134.304688 669.074219 C 1130.238281 665.007812 1128 659.601562 1128 653.855469 C 1128 648.101562 1130.238281 642.695312 1134.304688 638.632812 C 1138.363281 634.574219 1143.769531 632.339844 1149.523438 632.339844 C 1155.28125 632.339844 1160.6875 634.574219 1164.746094 638.632812 C 1173.140625 647.023438 1173.140625 660.679688 1164.746094 669.074219 C 1160.6875 673.132812 1155.28125 675.367188 1149.523438 675.367188 " fill-opacity="1" fill-rule="nonzero"/><path fill="#cd2029" d="M 1124.269531 674.773438 C 1123.113281 674.773438 1122.023438 675.222656 1121.203125 676.039062 C 1120.386719 676.859375 1119.9375 677.945312 1119.9375 679.109375 C 1119.9375 680.265625 1120.386719 681.355469 1121.203125 682.171875 C 1122.023438 682.992188 1123.113281 683.441406 1124.269531 683.441406 C 1125.429688 683.441406 1126.519531 682.992188 1127.339844 682.171875 C 1129.027344 680.484375 1129.027344 677.730469 1127.339844 676.039062 C 1126.519531 675.222656 1125.429688 674.773438 1124.269531 674.773438 M 1124.269531 686.480469 C 1122.296875 686.480469 1120.445312 685.710938 1119.054688 684.324219 C 1116.828125 682.097656 1116.269531 678.695312 1117.65625 675.859375 L 1117.878906 675.410156 L 1117.601562 674.992188 C 1107.585938 659.875 1109.621094 639.597656 1122.445312 626.773438 C 1129.660156 619.558594 1139.269531 615.585938 1149.503906 615.585938 C 1154.855469 615.585938 1160.210938 616.71875 1165.078125 618.871094 C 1165.074219 618.878906 1165.070312 618.882812 1165.066406 618.886719 C 1163.816406 620.132812 1162.839844 621.59375 1162.148438 623.230469 C 1158.136719 621.578125 1153.890625 620.738281 1149.511719 620.738281 C 1140.65625 620.738281 1132.339844 624.179688 1126.097656 630.421875 C 1115.230469 641.289062 1113.3125 658.597656 1121.539062 671.578125 L 1121.878906 672.113281 L 1122.492188 671.960938 C 1123.078125 671.816406 1123.679688 671.742188 1124.285156 671.742188 C 1126.253906 671.742188 1128.101562 672.503906 1129.488281 673.890625 C 1132.363281 676.769531 1132.363281 681.445312 1129.488281 684.324219 C 1128.097656 685.714844 1126.242188 686.480469 1124.269531 686.480469 " fill-opacity="1" fill-rule="nonzero"/><path fill="#cd2029" d="M 1174.78125 624.265625 C 1173.621094 624.265625 1172.53125 624.714844 1171.710938 625.53125 C 1170.023438 627.222656 1170.023438 629.976562 1171.710938 631.664062 C 1172.53125 632.484375 1173.621094 632.933594 1174.78125 632.933594 C 1175.9375 632.933594 1177.027344 632.484375 1177.847656 631.664062 C 1178.664062 630.847656 1179.113281 629.757812 1179.113281 628.601562 C 1179.113281 627.4375 1178.664062 626.351562 1177.847656 625.53125 C 1177.027344 624.714844 1175.9375 624.265625 1174.78125 624.265625 M 1149.546875 692.121094 C 1144.195312 692.121094 1138.839844 690.984375 1133.972656 688.832031 C 1133.976562 688.828125 1133.980469 688.824219 1133.984375 688.820312 C 1135.234375 687.570312 1136.210938 686.113281 1136.902344 684.476562 C 1140.914062 686.128906 1145.160156 686.964844 1149.539062 686.964844 C 1158.394531 686.964844 1166.710938 683.527344 1172.953125 677.28125 C 1183.820312 666.417969 1185.734375 649.109375 1177.507812 636.128906 L 1177.171875 635.59375 L 1176.558594 635.746094 C 1175.972656 635.890625 1175.371094 635.964844 1174.769531 635.964844 C 1172.796875 635.964844 1170.949219 635.199219 1169.5625 633.816406 C 1168.171875 632.421875 1167.40625 630.570312 1167.40625 628.597656 C 1167.40625 626.625 1168.171875 624.773438 1169.5625 623.382812 C 1170.953125 621.992188 1172.808594 621.226562 1174.78125 621.226562 C 1176.753906 621.226562 1178.605469 621.992188 1179.996094 623.382812 C 1182.21875 625.605469 1182.78125 629.003906 1181.398438 631.839844 L 1181.179688 632.289062 L 1181.457031 632.707031 C 1191.472656 647.820312 1189.433594 668.105469 1176.605469 680.929688 C 1169.390625 688.148438 1159.777344 692.121094 1149.546875 692.121094 Z M 1149.546875 692.121094 " fill-opacity="1" fill-rule="nonzero"/><path fill="#cd2029" d="M 1222.039062 659.304688 L 1238.445312 659.304688 L 1230.300781 635.78125 Z M 1192.894531 692.121094 L 1224.675781 615.585938 L 1235.804688 615.585938 L 1267.9375 692.121094 L 1252.214844 692.121094 L 1244.066406 672.386719 L 1216.988281 672.386719 L 1208.496094 692.121094 Z M 1192.894531 692.121094 " fill-opacity="1" fill-rule="nonzero"/><g fill="#ffffff" fill-opacity="1"><g transform="translate(318.316417, 1112.999885)"><g><path d="M 48.125 -73.53125 L 48.125 0 L 29.765625 0 L 29.765625 -73.53125 L 1.4375 -73.53125 L 1.4375 -87.71875 L 76.515625 -87.71875 L 76.515625 -73.53125 Z M 48.125 -73.53125 "/></g></g></g><g fill="#ffffff" fill-opacity="1"><g transform="translate(382.985601, 1112.999885)"><g><path d="M 70.53125 0 L 62.75 -22.40625 L 29.328125 -22.40625 L 21.546875 0 L 3.171875 0 L 35.171875 -87.71875 L 56.84375 -87.71875 L 88.71875 0 Z M 46 -74.203125 L 45.640625 -72.84375 C 45.222656 -71.34375 44.722656 -69.640625 44.140625 -67.734375 C 43.554688 -65.828125 39.988281 -55.328125 33.4375 -36.234375 L 58.640625 -36.234375 L 49.984375 -61.453125 L 47.3125 -69.90625 Z M 46 -74.203125 "/></g></g></g><g fill="#ffffff" fill-opacity="1"><g transform="translate(471.312009, 1112.999885)"><g><path d="M 61.9375 0 L 23.71875 -67.546875 C 24.46875 -60.992188 24.84375 -55.722656 24.84375 -51.734375 L 24.84375 0 L 8.53125 0 L 8.53125 -87.71875 L 29.515625 -87.71875 L 68.296875 -19.609375 C 67.546875 -25.878906 67.171875 -31.585938 67.171875 -36.734375 L 67.171875 -87.71875 L 83.484375 -87.71875 L 83.484375 0 Z M 61.9375 0 "/></g></g></g><g fill="#ffffff" fill-opacity="1"><g transform="translate(591.311999, 1112.999885)"><g><path d="M 80.0625 -25.28125 C 80.0625 -16.6875 76.875 -10.113281 70.5 -5.5625 C 64.132812 -1.019531 54.785156 1.25 42.453125 1.25 C 31.210938 1.25 22.394531 -0.738281 16 -4.71875 C 9.601562 -8.707031 5.492188 -14.75 3.671875 -22.84375 L 21.421875 -25.78125 C 22.617188 -21.125 24.960938 -17.75 28.453125 -15.65625 C 31.941406 -13.5625 36.773438 -12.515625 42.953125 -12.515625 C 55.773438 -12.515625 62.1875 -16.414062 62.1875 -24.21875 C 62.1875 -26.707031 61.453125 -28.757812 59.984375 -30.375 C 58.515625 -32 56.441406 -33.347656 53.765625 -34.421875 C 51.085938 -35.503906 45.945312 -36.8125 38.34375 -38.34375 C 31.789062 -39.882812 27.226562 -41.117188 24.65625 -42.046875 C 22.082031 -42.984375 19.753906 -44.082031 17.671875 -45.34375 C 15.597656 -46.613281 13.832031 -48.140625 12.375 -49.921875 C 10.925781 -51.710938 9.796875 -53.8125 8.984375 -56.21875 C 8.179688 -58.625 7.78125 -61.382812 7.78125 -64.5 C 7.78125 -72.425781 10.757812 -78.492188 16.71875 -82.703125 C 22.675781 -86.921875 31.335938 -89.03125 42.703125 -89.03125 C 53.578125 -89.03125 61.742188 -87.328125 67.203125 -83.921875 C 72.660156 -80.515625 76.175781 -74.890625 77.75 -67.046875 L 59.953125 -64.625 C 59.035156 -68.394531 57.175781 -71.234375 54.375 -73.140625 C 51.570312 -75.054688 47.554688 -76.015625 42.328125 -76.015625 C 31.210938 -76.015625 25.65625 -72.53125 25.65625 -65.5625 C 25.65625 -63.269531 26.242188 -61.398438 27.421875 -59.953125 C 28.609375 -58.503906 30.363281 -57.269531 32.6875 -56.25 C 35.007812 -55.226562 39.71875 -53.953125 46.8125 -52.421875 C 55.238281 -50.640625 61.265625 -48.988281 64.890625 -47.46875 C 68.523438 -45.957031 71.398438 -44.191406 73.515625 -42.171875 C 75.640625 -40.160156 77.257812 -37.753906 78.375 -34.953125 C 79.5 -32.148438 80.0625 -28.925781 80.0625 -25.28125 Z M 80.0625 -25.28125 "/></g></g></g><g fill="#ffffff" fill-opacity="1"><g transform="translate(672.603496, 1112.999885)"><g><path d="M 93.8125 -44.265625 C 93.8125 -35.128906 92.003906 -27.097656 88.390625 -20.171875 C 84.785156 -13.242188 79.617188 -7.941406 72.890625 -4.265625 C 66.171875 -0.585938 58.332031 1.25 49.375 1.25 C 35.59375 1.25 24.789062 -2.804688 16.96875 -10.921875 C 9.144531 -19.035156 5.234375 -30.148438 5.234375 -44.265625 C 5.234375 -58.335938 9.132812 -69.316406 16.9375 -77.203125 C 24.738281 -85.085938 35.59375 -89.03125 49.5 -89.03125 C 63.394531 -89.03125 74.253906 -85.046875 82.078125 -77.078125 C 89.898438 -69.109375 93.8125 -58.171875 93.8125 -44.265625 Z M 75.078125 -44.265625 C 75.078125 -53.722656 72.835938 -61.140625 68.359375 -66.515625 C 63.878906 -71.890625 57.59375 -74.578125 49.5 -74.578125 C 41.28125 -74.578125 34.925781 -71.910156 30.4375 -66.578125 C 25.957031 -61.242188 23.71875 -53.804688 23.71875 -44.265625 C 23.71875 -34.640625 26.007812 -27.054688 30.59375 -21.515625 C 35.1875 -15.972656 41.445312 -13.203125 49.375 -13.203125 C 57.59375 -13.203125 63.929688 -15.898438 68.390625 -21.296875 C 72.847656 -26.691406 75.078125 -34.347656 75.078125 -44.265625 Z M 75.078125 -44.265625 "/></g></g></g><g fill="#ffffff" fill-opacity="1"><g transform="translate(768.027071, 1112.999885)"><g><path d="M 61.9375 0 L 23.71875 -67.546875 C 24.46875 -60.992188 24.84375 -55.722656 24.84375 -51.734375 L 24.84375 0 L 8.53125 0 L 8.53125 -87.71875 L 29.515625 -87.71875 L 68.296875 -19.609375 C 67.546875 -25.878906 67.171875 -31.585938 67.171875 -36.734375 L 67.171875 -87.71875 L 83.484375 -87.71875 L 83.484375 0 Z M 61.9375 0 "/></g></g></g><g fill="#ffffff" fill-opacity="1"><g transform="translate(888.027061, 1112.999885)"><g><path d="M 61.9375 0 L 23.71875 -67.546875 C 24.46875 -60.992188 24.84375 -55.722656 24.84375 -51.734375 L 24.84375 0 L 8.53125 0 L 8.53125 -87.71875 L 29.515625 -87.71875 L 68.296875 -19.609375 C 67.546875 -25.878906 67.171875 -31.585938 67.171875 -36.734375 L 67.171875 -87.71875 L 83.484375 -87.71875 L 83.484375 0 Z M 61.9375 0 "/></g></g></g><g fill="#ffffff" fill-opacity="1"><g transform="translate(976.35347, 1112.999885)"><g><path d="M 65.125 0 L 65.125 -37.609375 L 26.890625 -37.609375 L 26.890625 0 L 8.53125 0 L 8.53125 -87.71875 L 26.890625 -87.71875 L 26.890625 -52.796875 L 65.125 -52.796875 L 65.125 -87.71875 L 83.484375 -87.71875 L 83.484375 0 Z M 65.125 0 "/></g></g></g><g fill="#ffffff" fill-opacity="1"><g transform="translate(1064.679879, 1112.999885)"><g><path d="M 70.53125 0 L 62.75 -22.40625 L 29.328125 -22.40625 L 21.546875 0 L 3.171875 0 L 35.171875 -87.71875 L 56.84375 -87.71875 L 88.71875 0 Z M 46 -74.203125 L 45.640625 -72.84375 C 45.222656 -71.34375 44.722656 -69.640625 44.140625 -67.734375 C 43.554688 -65.828125 39.988281 -55.328125 33.4375 -36.234375 L 58.640625 -36.234375 L 49.984375 -61.453125 L 47.3125 -69.90625 Z M 46 -74.203125 "/></g></g></g><g fill="#ffffff" fill-opacity="1"><g transform="translate(1143.543397, 1112.999885)"><g><path d="M 48.125 -73.53125 L 48.125 0 L 29.765625 0 L 29.765625 -73.53125 L 1.4375 -73.53125 L 1.4375 -87.71875 L 76.515625 -87.71875 L 76.515625 -73.53125 Z M 48.125 -73.53125 "/></g></g></g><g fill="#f3c309" fill-opacity="1"><g transform="translate(126.982874, 793.570442)"><g><path d="M 1.46875 -35.796875 C 1.300781 -25.921875 -1.445312 -18.257812 -6.78125 -12.8125 C -12.113281 -7.363281 -19.421875 -4.71875 -28.703125 -4.875 C -38.785156 -5.039062 -46.394531 -7.8125 -51.53125 -13.1875 C -56.664062 -18.5625 -59.148438 -26.414062 -58.984375 -36.75 C -58.867188 -43.582031 -57.765625 -50.640625 -55.671875 -57.921875 L -41.546875 -57.953125 L -41.609375 -54 L -50.15625 -52.90625 C -52.84375 -49.09375 -54.226562 -44.617188 -54.3125 -39.484375 C -54.425781 -32.691406 -52.394531 -27.691406 -48.21875 -24.484375 C -44.050781 -21.285156 -37.515625 -19.613281 -28.609375 -19.46875 C -20.367188 -19.332031 -14.066406 -20.867188 -9.703125 -24.078125 C -5.335938 -27.285156 -3.101562 -32.023438 -3 -38.296875 C -2.945312 -41.609375 -3.335938 -44.507812 -4.171875 -47 C -5.015625 -49.488281 -6.03125 -51.441406 -7.21875 -52.859375 L -16.859375 -54.421875 L -16.78125 -58.421875 L -1.859375 -57.90625 C -0.878906 -55.25 -0.0664062 -51.804688 0.578125 -47.578125 C 1.234375 -43.359375 1.53125 -39.429688 1.46875 -35.796875 Z M 1.46875 -35.796875 "/></g></g></g><g fill="#f3c309" fill-opacity="1"><g transform="translate(127.575303, 727.833383)"><g><path d="M -26.984375 -22.46875 C -17.703125 -21.320312 -10.921875 -21.773438 -6.640625 -23.828125 C -2.359375 -25.878906 0.125 -29.671875 0.8125 -35.203125 C 1.488281 -40.691406 -0.00390625 -44.953125 -3.671875 -47.984375 C -7.335938 -51.015625 -13.796875 -53.101562 -23.046875 -54.25 C -32.265625 -55.382812 -38.960938 -54.921875 -43.140625 -52.859375 C -47.328125 -50.796875 -49.757812 -47.019531 -50.4375 -41.53125 C -51.125 -36 -49.691406 -31.722656 -46.140625 -28.703125 C -42.585938 -25.679688 -36.203125 -23.601562 -26.984375 -22.46875 Z M -28.78125 -7.984375 C -48.664062 -10.441406 -57.351562 -21.804688 -54.84375 -42.078125 C -53.601562 -52.078125 -50.144531 -59.320312 -44.46875 -63.8125 C -38.800781 -68.300781 -31.066406 -69.941406 -21.265625 -68.734375 C -11.347656 -67.503906 -4.160156 -63.988281 0.296875 -58.1875 C 4.765625 -52.382812 6.390625 -44.539062 5.171875 -34.65625 C 3.953125 -24.789062 0.476562 -17.570312 -5.25 -13 C -10.988281 -8.425781 -18.832031 -6.753906 -28.78125 -7.984375 Z M 14.25 -26.75 C 12.351562 -26.976562 10.847656 -27.832031 9.734375 -29.3125 C 8.617188 -30.800781 8.171875 -32.460938 8.390625 -34.296875 C 8.617188 -36.160156 9.460938 -37.65625 10.921875 -38.78125 C 12.378906 -39.914062 14.039062 -40.367188 15.90625 -40.140625 C 17.726562 -39.910156 19.222656 -39.078125 20.390625 -37.640625 C 21.554688 -36.203125 22.019531 -34.535156 21.78125 -32.640625 C 21.550781 -30.773438 20.707031 -29.265625 19.25 -28.109375 C 17.800781 -26.960938 16.132812 -26.507812 14.25 -26.75 Z M -60.765625 -28.46875 L -62.203125 -28.640625 L -73.8125 -39.71875 L -72.65625 -49.015625 L -58.703125 -56.890625 L -57.265625 -56.71875 L -57.671875 -53.40625 L -66.09375 -43.46875 L -60.359375 -31.765625 Z M -60.765625 -28.46875 "/></g></g></g><g fill="#f3c309" fill-opacity="1"><g transform="translate(136.022978, 657.62515)"><g><path d="M -41.59375 -61.828125 L -44.53125 -54.390625 L -47.65625 -55.125 L -42.875 -75.546875 L -39.75 -74.8125 L -40.34375 -67.1875 L 12.796875 -54.78125 L 11.625 -49.765625 L -42.78125 -25.140625 L -0.921875 -15.375 L 2.03125 -22.8125 L 5.15625 -22.078125 L 0.390625 -1.671875 L -2.734375 -2.40625 L -2.171875 -10.015625 L -51.03125 -21.421875 L -53.875 -14.34375 L -57 -15.078125 L -52.40625 -34.71875 L -9.15625 -54.25 Z M -41.59375 -61.828125 "/></g></g></g><g fill="#f3c309" fill-opacity="1"><g transform="translate(150.49507, 593.479375)"><g><path d="M 17.453125 -59.34375 C 17.390625 -55.53125 16.90625 -51.234375 16 -46.453125 C 15.09375 -41.679688 14.007812 -37.488281 12.75 -33.875 C 10.632812 -27.8125 7.679688 -22.898438 3.890625 -19.140625 C 0.0976562 -15.390625 -4.335938 -13.023438 -9.421875 -12.046875 C -14.503906 -11.078125 -19.9375 -11.601562 -25.71875 -13.625 C -35.039062 -16.875 -41.289062 -22.039062 -44.46875 -29.125 C -47.65625 -36.21875 -47.523438 -44.703125 -44.078125 -54.578125 C -43.234375 -56.984375 -42.367188 -59.140625 -41.484375 -61.046875 C -40.597656 -62.960938 -39.691406 -64.71875 -38.765625 -66.3125 C -37.835938 -67.914062 -35.921875 -70.785156 -33.015625 -74.921875 L -20.234375 -70.453125 L -21.53125 -66.71875 L -29.09375 -68.25 C -31.363281 -66.582031 -33.367188 -64.578125 -35.109375 -62.234375 C -36.847656 -59.890625 -38.203125 -57.320312 -39.171875 -54.53125 C -41.421875 -48.09375 -41.054688 -42.703125 -38.078125 -38.359375 C -35.109375 -34.015625 -29.421875 -30.375 -21.015625 -27.4375 C -13.179688 -24.707031 -6.707031 -24.195312 -1.59375 -25.90625 C 3.519531 -27.613281 7.101562 -31.410156 9.15625 -37.296875 C 10.28125 -40.503906 10.863281 -43.726562 10.90625 -46.96875 L -5.203125 -52.59375 L -8.75 -45.84375 L -11.828125 -46.90625 L -2.890625 -72.546875 L 0.1875 -71.484375 L -0.640625 -65.65625 Z M 17.453125 -59.34375 "/></g></g></g><g fill="#f3c309" fill-opacity="1"><g transform="translate(175.113866, 525.13257)"><g/></g></g><g fill="#f3c309" fill-opacity="1"><g transform="translate(184.411504, 501.513034)"><g><path d="M -37.90625 -54.5 C -32.976562 -63.851562 -27.21875 -69.644531 -20.625 -71.875 C -14.03125 -74.113281 -6.378906 -72.941406 2.328125 -68.359375 C 11.265625 -63.648438 16.789062 -58.003906 18.90625 -51.421875 C 21.03125 -44.847656 19.8125 -37.234375 15.25 -28.578125 L 5.890625 -11.203125 L 1.640625 -3.109375 L -1.1875 -4.609375 L 0.828125 -10.984375 L -18.96875 -21.40625 L -22.640625 -14.453125 L -27.375 -16.953125 L -23.703125 -23.90625 L -43.5625 -34.375 L -48.109375 -28.21875 L -50.953125 -29.71875 Z M -4.15625 -55.28125 C -11.675781 -59.238281 -17.914062 -60.765625 -22.875 -59.859375 C -27.832031 -58.960938 -31.941406 -55.421875 -35.203125 -49.234375 L -36.71875 -46.359375 L -17.28125 -36.125 L -12.03125 -46.078125 L -7.296875 -43.578125 L -12.546875 -33.625 L 6.703125 -23.5 C 8.222656 -25.875 9.515625 -28.066406 10.578125 -30.078125 C 12.359375 -33.453125 13.039062 -36.5 12.625 -39.21875 C 12.207031 -41.945312 10.6875 -44.578125 8.0625 -47.109375 C 5.4375 -49.648438 1.363281 -52.375 -4.15625 -55.28125 Z M -4.15625 -55.28125 "/></g></g></g><g fill="#f3c309" fill-opacity="1"><g transform="translate(214.612409, 443.132634)"><g><path d="M -13.9375 -32.21875 C -6.175781 -27.007812 0.0703125 -24.351562 4.8125 -24.25 C 9.5625 -24.144531 13.492188 -26.40625 16.609375 -31.03125 C 19.691406 -35.625 20.28125 -40.101562 18.375 -44.46875 C 16.46875 -48.84375 11.648438 -53.625 3.921875 -58.8125 C -3.796875 -64 -9.984375 -66.613281 -14.640625 -66.65625 C -19.304688 -66.695312 -23.179688 -64.421875 -26.265625 -59.828125 C -29.378906 -55.203125 -30.03125 -50.738281 -28.21875 -46.4375 C -26.414062 -42.144531 -21.65625 -37.40625 -13.9375 -32.21875 Z M -22.0625 -20.09375 C -38.707031 -31.269531 -41.335938 -45.335938 -29.953125 -62.296875 C -24.335938 -70.660156 -17.984375 -75.566406 -10.890625 -77.015625 C -3.796875 -78.460938 3.847656 -76.429688 12.046875 -70.921875 C 20.335938 -65.359375 25.160156 -58.976562 26.515625 -51.78125 C 27.878906 -44.59375 25.789062 -36.863281 20.25 -28.59375 C 14.707031 -20.34375 8.347656 -15.46875 1.171875 -13.96875 C -5.992188 -12.46875 -13.738281 -14.507812 -22.0625 -20.09375 Z M -27.359375 -73.703125 L -38.28125 -67.890625 L -39.515625 -55.59375 L -41.375 -52.828125 L -42.578125 -53.640625 L -46.546875 -67.78125 L -41.328125 -75.546875 L -26.71875 -77.28125 L -25.515625 -76.46875 Z M -47.25 -57.171875 L -58.546875 -53.6875 L -59.890625 -54.59375 L -55.109375 -61.71875 L -46.34375 -61.125 L -45.140625 -60.3125 Z M -47.25 -57.171875 "/></g></g></g><g fill="#f3c309" fill-opacity="1"><g transform="translate(253.817982, 384.314891)"><g><path d="M -9.234375 -73.953125 L -15.1875 -68.625 L -17.65625 -70.6875 L -4.1875 -86.765625 L -1.71875 -84.703125 L -5.703125 -78.171875 L 36.125 -43.109375 L 32.828125 -39.171875 L -26.828125 -41.75 L 6.125 -14.125 L 12.109375 -19.4375 L 14.5625 -17.375 L 1.109375 -1.3125 L -1.34375 -3.375 L 2.59375 -9.90625 L -35.875 -42.15625 L -41.59375 -37.109375 L -44.0625 -39.171875 L -31.109375 -54.640625 L 16.296875 -52.546875 Z M -9.234375 -73.953125 "/></g></g></g><g fill="#f3c309" fill-opacity="1"><g transform="translate(295.639395, 333.645625)"><g><path d="M 42.34375 -45.09375 C 40.5625 -41.707031 38.191406 -38.085938 35.234375 -34.234375 C 32.273438 -30.390625 29.414062 -27.132812 26.65625 -24.46875 C 22.03125 -20.019531 17.179688 -16.976562 12.109375 -15.34375 C 7.035156 -13.707031 2.007812 -13.597656 -2.96875 -15.015625 C -7.945312 -16.441406 -12.5625 -19.359375 -16.8125 -23.765625 C -23.664062 -30.878906 -26.910156 -38.3125 -26.546875 -46.0625 C -26.191406 -53.8125 -22.25 -61.316406 -14.71875 -68.578125 C -12.882812 -70.347656 -11.140625 -71.882812 -9.484375 -73.1875 C -7.828125 -74.488281 -6.222656 -75.644531 -4.671875 -76.65625 C -3.117188 -77.664062 -0.113281 -79.363281 4.34375 -81.75 L 13.75 -72 L 10.890625 -69.265625 L 4.8125 -74.046875 C 2.050781 -73.578125 -0.632812 -72.6875 -3.25 -71.375 C -5.863281 -70.070312 -8.234375 -68.394531 -10.359375 -66.34375 C -15.273438 -61.613281 -17.382812 -56.632812 -16.6875 -51.40625 C -15.988281 -46.1875 -12.546875 -40.375 -6.359375 -33.96875 C -0.609375 -27.988281 4.929688 -24.609375 10.265625 -23.828125 C 15.597656 -23.046875 20.507812 -24.820312 25 -29.15625 C 27.445312 -31.507812 29.421875 -34.125 30.921875 -37 L 19.09375 -49.28125 L 12.859375 -44.859375 L 10.609375 -47.203125 L 30.171875 -66.046875 L 32.421875 -63.703125 L 29.0625 -58.890625 Z M 42.34375 -45.09375 "/></g></g></g><g fill="#f3c309" fill-opacity="1"><g transform="translate(348.382225, 283.809111)"><g/></g></g><g fill="#f3c309" fill-opacity="1"><g transform="translate(367.644471, 266.848434)"><g><path d="M 5.515625 -58.546875 C 3.515625 -61.328125 1.472656 -62.90625 -0.609375 -63.28125 C -2.691406 -63.664062 -5.117188 -62.867188 -7.890625 -60.890625 L -12.84375 -57.34375 L -0.890625 -40.65625 L 4.359375 -44.421875 C 6.910156 -46.242188 8.3125 -48.253906 8.5625 -50.453125 C 8.8125 -52.648438 7.796875 -55.347656 5.515625 -58.546875 Z M 24.96875 -39.015625 C 22.695312 -42.179688 20.210938 -43.96875 17.515625 -44.375 C 14.828125 -44.789062 11.691406 -43.710938 8.109375 -41.140625 L 1.921875 -36.71875 L 15.84375 -17.28125 C 19.363281 -19.59375 22.113281 -21.460938 24.09375 -22.890625 C 26.882812 -24.878906 28.34375 -27.203125 28.46875 -29.859375 C 28.601562 -32.515625 27.4375 -35.566406 24.96875 -39.015625 Z M 1.21875 -0.875 L -0.640625 -3.484375 L 4.828125 -8.859375 L -24.390625 -49.671875 L -31.21875 -46.171875 L -33.09375 -48.796875 L -9.828125 -65.453125 C -3.472656 -70.003906 1.828125 -72.507812 6.078125 -72.96875 C 10.328125 -73.425781 13.816406 -71.75 16.546875 -67.9375 C 18.585938 -65.082031 19.453125 -61.976562 19.140625 -58.625 C 18.835938 -55.28125 17.421875 -52.210938 14.890625 -49.421875 C 19.671875 -52.148438 23.90625 -53.351562 27.59375 -53.03125 C 31.289062 -52.707031 34.351562 -50.851562 36.78125 -47.46875 C 40.101562 -42.820312 40.910156 -38.066406 39.203125 -33.203125 C 37.492188 -28.335938 33.4375 -23.609375 27.03125 -19.015625 L 10.578125 -7.578125 Z M 1.21875 -0.875 "/></g></g></g><g fill="#f3c309" fill-opacity="1"><g transform="translate(416.880179, 230.868322)"><g><path d="M 26.875 -83.1875 L 28.46875 -80.390625 L 22.765625 -75.828125 L 14.359375 -51.234375 L 53.25 -35.4375 L 58.59375 -37.125 L 60.1875 -34.34375 L 43.46875 -24.796875 L 10.265625 -38.546875 L 8.03125 -32.21875 L 17.75 -15.1875 L 25.703125 -18.359375 L 27.296875 -15.578125 L 1.328125 -0.765625 L -0.265625 -3.546875 L 5.71875 -8.3125 L -19.15625 -51.90625 L -26.28125 -49.15625 L -27.875 -51.953125 L -2.671875 -66.328125 L -1.078125 -63.53125 L -7.125 -58.78125 L 4.765625 -37.953125 L 16.203125 -72.09375 L 10.9375 -70.390625 L 9.34375 -73.1875 Z M 26.875 -83.1875 "/></g></g></g><g fill="#f3c309" fill-opacity="1"><g transform="translate(477.937192, 195.575491)"><g><path d="M 1.40625 -0.609375 L 0.109375 -3.59375 L 6.59375 -7.640625 L -13.328125 -53.65625 L -20.734375 -51.734375 L -22.015625 -54.6875 L 4.5625 -66.203125 L 5.84375 -63.25 L -0.625 -59.15625 L 8.046875 -39.15625 L 30.140625 -48.734375 L 21.46875 -68.734375 L 14.078125 -66.8125 L 12.796875 -69.765625 L 39.453125 -81.296875 L 40.734375 -78.34375 L 34.21875 -74.25 L 54.140625 -28.234375 L 61.578125 -30.203125 L 62.875 -27.21875 L 36.21875 -15.6875 L 34.921875 -18.671875 L 41.390625 -22.71875 L 32.046875 -44.296875 L 9.953125 -34.71875 L 19.296875 -13.140625 L 26.6875 -15.109375 L 27.984375 -12.125 Z M 1.40625 -0.609375 "/></g></g></g><g fill="#f3c309" fill-opacity="1"><g transform="translate(542.751319, 167.266343)"><g><path d="M 32.203125 -67.21875 L 24.328125 -65.9375 L 23.359375 -69.015625 L 43.375 -75.25 L 44.34375 -72.171875 L 37.453125 -68.84375 L 53.703125 -16.734375 L 48.796875 -15.21875 L 0 -49.625 L 12.78125 -8.578125 L 20.6875 -9.8125 L 21.640625 -6.75 L 1.640625 -0.515625 L 0.6875 -3.578125 L 7.53125 -6.9375 L -7.40625 -54.859375 L -14.9375 -53.703125 L -15.90625 -56.78125 L 3.34375 -62.78125 L 42.125 -35.40625 Z M 32.203125 -67.21875 "/></g></g></g><g fill="#f3c309" fill-opacity="1"><g transform="translate(607.691253, 147.645799)"><g/></g></g><g fill="#f3c309" fill-opacity="1"><g transform="translate(631.930401, 140.863525)"><g><path d="M 54.8125 -68.109375 L 55.3125 -64.921875 L 48.34375 -62.6875 L 31.734375 -42.734375 L 62.390625 -14.078125 L 68 -13.75 L 68.484375 -10.578125 L 49.453125 -7.640625 L 23.375 -32.34375 L 19.015625 -27.21875 L 22 -7.84375 L 30.5625 -7.96875 L 31.046875 -4.796875 L 1.515625 -0.234375 L 1.03125 -3.40625 L 8.3125 -5.734375 L 0.65625 -55.328125 L -6.984375 -55.296875 L -7.484375 -58.484375 L 21.1875 -62.90625 L 21.6875 -59.71875 L 14.34375 -57.4375 L 18 -33.734375 L 40.890625 -61.53125 L 35.375 -61.84375 L 34.875 -65.03125 Z M 54.8125 -68.109375 "/></g></g></g><g fill="#f3c309" fill-opacity="1"><g transform="translate(701.579106, 129.72509)"><g><path d="M 1.53125 -0.0625 L 1.390625 -3.3125 L 8.890625 -4.78125 L 6.71875 -54.875 L -0.875 -55.734375 L -1.015625 -58.9375 L 27.921875 -60.1875 L 28.0625 -56.984375 L 20.5625 -55.46875 L 21.5 -33.6875 L 45.546875 -34.734375 L 44.609375 -56.515625 L 37.03125 -57.375 L 36.890625 -60.578125 L 65.90625 -61.84375 L 66.046875 -58.640625 L 58.484375 -57.125 L 60.65625 -7.03125 L 68.3125 -6.21875 L 68.453125 -2.96875 L 39.4375 -1.703125 L 39.296875 -4.953125 L 46.78125 -6.421875 L 45.765625 -29.90625 L 21.71875 -28.859375 L 22.734375 -5.375 L 30.328125 -4.5625 L 30.46875 -1.3125 Z M 1.53125 -0.0625 "/></g></g></g><g fill="#f3c309" fill-opacity="1"><g transform="translate(772.24579, 126.43055)"><g><path d="M 37.09375 -3.015625 C 41.476562 -2.742188 44.945312 -3.757812 47.5 -6.0625 C 50.050781 -8.375 51.476562 -11.910156 51.78125 -16.671875 L 53.96875 -51.28125 L 46.15625 -52.90625 L 46.359375 -56.109375 L 66.34375 -54.859375 L 66.140625 -51.65625 L 59.40625 -50.921875 L 57.25 -16.671875 C 56.820312 -9.890625 54.53125 -4.8125 50.375 -1.4375 C 46.226562 1.9375 40.519531 3.394531 33.25 2.9375 C 25.375 2.4375 19.453125 0.21875 15.484375 -3.71875 C 11.523438 -7.65625 9.765625 -13.082031 10.203125 -20 L 12.34375 -53.90625 L 5.75 -55.46875 L 5.953125 -58.671875 L 33.984375 -56.90625 L 33.78125 -53.703125 L 26.15625 -53.03125 L 23.984375 -18.515625 C 23.679688 -13.804688 24.640625 -10.117188 26.859375 -7.453125 C 29.085938 -4.785156 32.5 -3.304688 37.09375 -3.015625 Z M 37.09375 -3.015625 "/></g></g></g><g fill="#f3c309" fill-opacity="1"><g transform="translate(839.972107, 131.347672)"><g/></g></g><g fill="#f3c309" fill-opacity="1"><g transform="translate(863.727351, 133.599197)"><g><path d="M 74.703125 -44.578125 L 74.03125 -41.421875 L 68.34375 -41.40625 L 34.609375 8.625 L 28.890625 7.4375 L 16.890625 -52.171875 L 12.40625 -54.328125 L 13.078125 -57.484375 L 38.140625 -52.234375 L 37.46875 -49.078125 L 31.25 -49.171875 L 39.578125 -7.96875 L 62.625 -42.609375 L 57.046875 -44.984375 L 57.71875 -48.140625 Z M 74.703125 -44.578125 "/></g></g></g><g fill="#f3c309" fill-opacity="1"><g transform="translate(928.127569, 146.522464)"><g><path d="M 85.09375 -32.703125 C 83.945312 -29.171875 81.71875 -26.472656 78.40625 -24.609375 C 75.09375 -22.742188 71.003906 -21.90625 66.140625 -22.09375 L 59.59375 -1.96875 C 57.5 4.5 54.019531 8.851562 49.15625 11.09375 C 44.300781 13.332031 38.410156 13.328125 31.484375 11.078125 C 23.984375 8.640625 18.800781 5.023438 15.9375 0.234375 C 13.070312 -4.554688 12.707031 -10.253906 14.84375 -16.859375 L 25.34375 -49.15625 L 19.328125 -52.3125 L 20.328125 -55.375 L 47.046875 -46.703125 L 46.046875 -43.640625 L 38.515625 -44.875 L 27.828125 -11.984375 C 26.367188 -7.503906 26.382812 -3.695312 27.875 -0.5625 C 29.363281 2.570312 32.300781 4.851562 36.6875 6.28125 C 40.863281 7.632812 44.472656 7.507812 47.515625 5.90625 C 50.566406 4.300781 52.828125 1.226562 54.296875 -3.3125 L 65.015625 -36.28125 L 57.828125 -39.8125 L 58.828125 -42.875 L 71.546875 -38.75 L 67.484375 -26.25 C 70.347656 -26.257812 72.53125 -26.609375 74.03125 -27.296875 C 75.53125 -27.984375 76.453125 -28.851562 76.796875 -29.90625 C 76.953125 -30.40625 76.890625 -30.914062 76.609375 -31.4375 C 76.335938 -31.96875 75.769531 -32.695312 74.90625 -33.625 C 73.332031 -35.238281 72.851562 -36.976562 73.46875 -38.84375 C 73.96875 -40.40625 74.90625 -41.5 76.28125 -42.125 C 77.664062 -42.757812 79.191406 -42.804688 80.859375 -42.265625 C 82.835938 -41.628906 84.210938 -40.421875 84.984375 -38.640625 C 85.765625 -36.867188 85.800781 -34.890625 85.09375 -32.703125 Z M 21.09375 18.265625 C 21.6875 16.453125 22.8125 15.132812 24.46875 14.3125 C 26.132812 13.5 27.84375 13.378906 29.59375 13.953125 C 31.382812 14.523438 32.695312 15.632812 33.53125 17.28125 C 34.363281 18.925781 34.488281 20.640625 33.90625 22.421875 C 33.34375 24.171875 32.242188 25.484375 30.609375 26.359375 C 28.972656 27.234375 27.25 27.378906 25.4375 26.796875 C 23.65625 26.210938 22.335938 25.097656 21.484375 23.453125 C 20.640625 21.804688 20.507812 20.078125 21.09375 18.265625 Z M 21.09375 18.265625 "/></g></g></g><g fill="#f3c309" fill-opacity="1"><g transform="translate(996.947818, 168.661216)"><g><path d="M 32.3125 15.453125 C 23.300781 11.410156 17.34375 5.863281 14.4375 -1.1875 C 11.53125 -8.238281 11.976562 -16 15.78125 -24.46875 C 19.90625 -33.664062 25.445312 -39.566406 32.40625 -42.171875 C 39.375 -44.773438 47.578125 -43.96875 57.015625 -39.75 C 63.242188 -36.945312 69.300781 -33.15625 75.1875 -28.375 L 69.640625 -15.359375 L 66.03125 -16.96875 L 68.390625 -25.234375 C 65.941406 -29.222656 62.375 -32.269531 57.6875 -34.375 C 51.488281 -37.15625 46.09375 -37.253906 41.5 -34.671875 C 36.914062 -32.097656 32.800781 -26.75 29.15625 -18.625 C 25.789062 -11.101562 24.722656 -4.707031 25.953125 0.5625 C 27.179688 5.832031 30.65625 9.75 36.375 12.3125 C 39.394531 13.664062 42.210938 14.445312 44.828125 14.65625 C 47.441406 14.863281 49.644531 14.707031 51.4375 14.1875 L 56.671875 5.953125 L 60.3125 7.578125 L 53.96875 21.109375 C 51.144531 20.960938 47.660156 20.351562 43.515625 19.28125 C 39.367188 18.207031 35.632812 16.929688 32.3125 15.453125 Z M 32.3125 15.453125 "/></g></g></g><g fill="#f3c309" fill-opacity="1"><g transform="translate(1058.652262, 197.016192)"><g/></g></g><g fill="#f3c309" fill-opacity="1"><g transform="translate(1080.197623, 207.669314)"><g><path d="M 11.53125 7.25 L 13.234375 4.53125 L 21.796875 8.515625 L 48.328125 -33.71875 L 46.4375 -34.90625 C 40.75 -38.488281 36.597656 -40.75 33.984375 -41.6875 L 27.171875 -33.0625 L 23.78125 -35.1875 L 32.546875 -49.15625 L 81.03125 -18.6875 L 72.265625 -4.71875 L 68.84375 -6.875 L 73.65625 -16.765625 C 71.875 -18.503906 67.945312 -21.285156 61.875 -25.109375 L 60.046875 -26.25 L 33.5625 15.90625 L 40.84375 21.875 L 39.140625 24.59375 Z M 11.53125 7.25 "/></g></g></g><g fill="#f3c309" fill-opacity="1"><g transform="translate(1132.274518, 239.879187)"><g><path d="M 16.828125 9.015625 L 14.859375 11.546875 L 0.6875 0.53125 L 2.65625 -2 L 6.859375 -0.234375 L 57.171875 -30.828125 L 67.234375 -23 L 49.953125 33.25 L 52.78125 36.9375 L 50.8125 39.46875 L 30.078125 23.375 L 32.046875 20.84375 L 38.15625 24.078125 L 43.0625 8.578125 L 25.203125 -5.296875 L 11.578125 3.4375 Z M 53.25 -22.625 L 29.59375 -8.03125 L 44.734375 3.734375 Z M 53.578125 -39.15625 L 54.46875 -40.3125 L 69.921875 -44.609375 L 77.3125 -38.875 L 76.953125 -22.859375 L 76.0625 -21.703125 L 73.421875 -23.75 L 69.171875 -36.0625 L 56.203125 -37.125 Z M 53.578125 -39.15625 "/></g></g></g><g fill="#f3c309" fill-opacity="1"><g transform="translate(1184.571495, 280.06784)"><g><path d="M 74.40625 -4.359375 L 69.46875 -10.640625 L 71.703125 -12.96875 L 86.859375 1.515625 L 84.625 3.84375 L 78.375 -0.546875 L 40.640625 38.890625 L 36.9375 35.328125 L 43.421875 -24.03125 L 13.703125 7.03125 L 18.59375 13.359375 L 16.375 15.671875 L 1.234375 1.1875 L 3.453125 -1.125 L 9.71875 3.234375 L 44.421875 -33.03125 L 39.75 -39.078125 L 41.984375 -41.40625 L 56.5625 -27.46875 L 51.375 19.71875 Z M 74.40625 -4.359375 "/></g></g></g><g fill="#f3c309" fill-opacity="1"><g transform="translate(1233.171064, 327.394396)"><g/></g></g><g fill="#f3c309" fill-opacity="1"><g transform="translate(1250.923896, 346.22309)"><g><path d="M 17.109375 -7.515625 L 19.515625 -4.5 L 13.359375 2.96875 C 13.003906 4.820312 13.222656 7.019531 14.015625 9.5625 C 14.816406 12.113281 16.046875 14.429688 17.703125 16.515625 C 22.941406 23.085938 28.269531 24.21875 33.6875 19.90625 C 35.375 18.550781 36.304688 16.785156 36.484375 14.609375 C 36.660156 12.429688 36.132812 9.632812 34.90625 6.21875 C 33.070312 1.25 31.875 -2.425781 31.3125 -4.8125 C 30.75 -7.195312 30.539062 -9.421875 30.6875 -11.484375 C 30.84375 -13.554688 31.421875 -15.570312 32.421875 -17.53125 C 33.421875 -19.488281 35.066406 -21.382812 37.359375 -23.21875 C 41.410156 -26.4375 45.597656 -27.507812 49.921875 -26.4375 C 54.242188 -25.375 58.519531 -22.1875 62.75 -16.875 C 65.820312 -13.019531 68.734375 -8.363281 71.484375 -2.90625 L 60.515625 5.828125 L 58.0625 2.765625 L 63.171875 -3.8125 C 62.992188 -7.5 61.660156 -10.90625 59.171875 -14.03125 C 56.921875 -16.84375 54.671875 -18.585938 52.421875 -19.265625 C 50.179688 -19.941406 47.988281 -19.421875 45.84375 -17.703125 C 44.3125 -16.484375 43.5 -14.804688 43.40625 -12.671875 C 43.320312 -10.546875 43.925781 -7.804688 45.21875 -4.453125 C 47.6875 2.160156 49.066406 6.953125 49.359375 9.921875 C 49.648438 12.898438 49.265625 15.648438 48.203125 18.171875 C 47.140625 20.703125 45.335938 22.976562 42.796875 25 C 33.015625 32.800781 23.53125 30.9375 14.34375 19.40625 C 12.25 16.78125 10.332031 13.921875 8.59375 10.828125 C 6.851562 7.734375 5.566406 4.910156 4.734375 2.359375 Z M 17.109375 -7.515625 "/></g></g></g><g fill="#f3c309" fill-opacity="1"><g transform="translate(1283.621672, 386.001712)"><g><path d="M 27.140625 -12.4375 C 43.929688 -23.375 57.898438 -20.28125 69.046875 -3.15625 C 75.890625 7.34375 77.351562 16.785156 73.4375 25.171875 C 75.738281 26.265625 77.546875 26.382812 78.859375 25.53125 C 79.304688 25.238281 79.582031 24.800781 79.6875 24.21875 C 79.800781 23.644531 79.816406 22.726562 79.734375 21.46875 C 79.515625 19.21875 80.234375 17.550781 81.890625 16.46875 C 83.253906 15.582031 84.671875 15.320312 86.140625 15.6875 C 87.609375 16.0625 88.820312 16.988281 89.78125 18.46875 C 90.914062 20.207031 91.226562 22.007812 90.71875 23.875 C 90.207031 25.75 88.992188 27.3125 87.078125 28.5625 C 84.847656 30.019531 82.394531 30.789062 79.71875 30.875 C 77.039062 30.957031 74.25 30.265625 71.34375 28.796875 C 68.882812 32.429688 65.285156 35.789062 60.546875 38.875 C 52.171875 44.320312 44.40625 46.265625 37.25 44.703125 C 30.101562 43.140625 23.8125 38.1875 18.375 29.84375 C 12.957031 21.507812 10.960938 13.742188 12.390625 6.546875 C 13.828125 -0.640625 18.742188 -6.96875 27.140625 -12.4375 Z M 35.109375 -0.203125 C 27.273438 4.890625 22.378906 9.601562 20.421875 13.9375 C 18.472656 18.269531 19.019531 22.769531 22.0625 27.4375 C 25.082031 32.070312 28.972656 34.367188 33.734375 34.328125 C 38.492188 34.285156 44.773438 31.722656 52.578125 26.640625 C 60.359375 21.566406 65.179688 16.894531 67.046875 12.625 C 68.921875 8.351562 68.347656 3.898438 65.328125 -0.734375 C 62.285156 -5.398438 58.429688 -7.742188 53.765625 -7.765625 C 49.109375 -7.796875 42.890625 -5.273438 35.109375 -0.203125 Z M 35.109375 -0.203125 "/></g></g></g><g fill="#f3c309" fill-opacity="1"><g transform="translate(1322.401294, 445.158535)"><g><path d="M 71.65625 20.484375 L 69.09375 12.921875 L 71.96875 11.453125 L 81.46875 30.140625 L 78.59375 31.609375 L 74.15625 25.375 L 25.515625 50.125 L 23.171875 45.546875 L 48.921875 -8.328125 L 10.609375 11.171875 L 13.140625 18.75 L 10.28125 20.203125 L 0.78125 1.53125 L 3.640625 0.078125 L 8.109375 6.28125 L 52.84375 -16.484375 L 50.4375 -23.734375 L 53.3125 -25.203125 L 62.453125 -7.21875 L 41.96875 35.59375 Z M 71.65625 20.484375 "/></g></g></g><g fill="#f3c309" fill-opacity="1"><g transform="translate(1352.643974, 505.917913)"><g/></g></g><g fill="#f3c309" fill-opacity="1"><g transform="translate(1363.341056, 528.917701)"><g><path d="M 67.9375 30.65625 L 66.484375 22.796875 L 69.53125 21.765625 L 76.234375 41.640625 L 73.1875 42.671875 L 69.6875 35.859375 L 17.96875 53.296875 L 16.328125 48.421875 L 49.609375 -1.15625 L 8.875 12.578125 L 10.28125 20.453125 L 7.25 21.484375 L 0.546875 1.625 L 3.578125 0.59375 L 7.109375 7.375 L 54.671875 -8.65625 L 53.34375 -16.171875 L 56.390625 -17.203125 L 62.84375 1.921875 L 36.375 41.296875 Z M 67.9375 30.65625 "/></g></g></g><g fill="#f3c309" fill-opacity="1"><g transform="translate(1384.818596, 591.077445)"><g><path d="M 0.328125 1.5 L 3.5 0.796875 L 6.25 7.921875 L 55.203125 -2.96875 L 54.71875 -10.59375 L 57.859375 -11.296875 L 64.15625 16.96875 L 61.015625 17.671875 L 58.21875 10.546875 L 36.9375 15.28125 L 42.15625 38.78125 L 63.4375 34.046875 L 62.953125 26.4375 L 66.09375 25.734375 L 72.40625 54.078125 L 69.265625 54.78125 L 66.453125 47.609375 L 17.5 58.5 L 18.046875 66.171875 L 14.875 66.875 L 8.5625 38.53125 L 11.734375 37.828125 L 14.484375 44.9375 L 37.4375 39.828125 L 32.21875 16.328125 L 9.265625 21.4375 L 9.796875 29.0625 L 6.625 29.765625 Z M 0.328125 1.5 "/></g></g></g><g fill="#f3c309" fill-opacity="1"><g transform="translate(1400.39575, 660.093333)"><g><path d="M 5.296875 18.328125 L 2.109375 18.6875 L 0.09375 0.875 L 3.28125 0.515625 L 4.953125 4.75 L 61.984375 19.40625 L 63.421875 32.078125 L 11.078125 58.984375 L 10.40625 63.578125 L 7.21875 63.9375 L 4.265625 37.859375 L 7.453125 37.5 L 9.390625 44.125 L 23.921875 36.828125 L 21.390625 14.34375 L 5.625 10.671875 Z M 53.375 22.328125 L 26.390625 15.59375 L 28.546875 34.640625 Z M 65.453125 11.15625 L 66.90625 11 L 79.078125 19.265625 L 80.125 28.5625 L 70.109375 39.28125 L 68.65625 39.4375 L 68.28125 36.125 L 72.859375 24.640625 L 65.828125 14.453125 Z M 75.4375 34.53125 L 76.890625 34.359375 L 84.9375 37.875 L 85.90625 46.390625 L 84.28125 46.5625 L 75.859375 38.28125 Z M 75.4375 34.53125 "/></g></g></g><g fill="#f3c309" fill-opacity="1"><g transform="translate(1408.011403, 725.805917)"><g><path d="M 0.171875 13.625 L 3.375 13.578125 L 4.6875 22.921875 L 54.5625 22.28125 L 54.53125 20.046875 C 54.445312 13.328125 54.097656 8.609375 53.484375 5.890625 L 42.53125 4.859375 L 42.46875 0.859375 L 58.953125 0.640625 L 59.703125 57.90625 L 43.21875 58.125 L 43.171875 54.078125 L 54.09375 52.734375 C 54.59375 50.304688 54.796875 45.503906 54.703125 38.328125 L 54.671875 36.171875 L 4.875 36.8125 L 3.8125 46.1875 L 0.609375 46.234375 Z M 0.171875 13.625 "/></g></g></g><g fill="#f3c309" fill-opacity="1"><g transform="translate(314.837872, 1299.781871)"><g><path d="M 14.921875 -11.265625 L 17.953125 -8.875 L 13.6875 -0.21875 C 13.769531 1.675781 14.492188 3.765625 15.859375 6.046875 C 17.222656 8.335938 18.957031 10.304688 21.0625 11.953125 C 27.675781 17.140625 33.113281 17.015625 37.375 11.578125 C 38.707031 9.867188 39.207031 7.929688 38.875 5.765625 C 38.539062 3.597656 37.382812 1.003906 35.40625 -2.015625 C 32.46875 -6.429688 30.445312 -9.734375 29.34375 -11.921875 C 28.25 -14.109375 27.535156 -16.222656 27.203125 -18.265625 C 26.867188 -20.316406 26.960938 -22.410156 27.484375 -24.546875 C 28.003906 -26.679688 29.171875 -28.90625 30.984375 -31.21875 C 34.171875 -35.300781 37.988281 -37.320312 42.4375 -37.28125 C 46.894531 -37.238281 51.796875 -35.125 57.140625 -30.9375 C 61.023438 -27.90625 64.929688 -24.050781 68.859375 -19.375 L 60.21875 -8.328125 L 57.140625 -10.734375 L 60.578125 -18.3125 C 59.554688 -21.863281 57.472656 -24.867188 54.328125 -27.328125 C 51.492188 -29.546875 48.90625 -30.726562 46.5625 -30.875 C 44.21875 -31.019531 42.195312 -30.007812 40.5 -27.84375 C 39.289062 -26.300781 38.890625 -24.484375 39.296875 -22.390625 C 39.710938 -20.296875 40.9375 -17.765625 42.96875 -14.796875 C 46.894531 -8.929688 49.34375 -4.585938 50.3125 -1.765625 C 51.28125 1.054688 51.539062 3.816406 51.09375 6.515625 C 50.65625 9.222656 49.4375 11.859375 47.4375 14.421875 C 39.71875 24.265625 30.054688 24.644531 18.453125 15.5625 C 15.796875 13.488281 13.265625 11.144531 10.859375 8.53125 C 8.453125 5.925781 6.550781 3.476562 5.15625 1.1875 Z M 14.921875 -11.265625 "/></g></g></g><g fill="#f3c309" fill-opacity="1"><g transform="translate(365.560432, 1339.69471)"><g><path d="M 1.296875 0.8125 L 3.015625 -1.9375 L 10.046875 1.09375 L 36.578125 -41.453125 L 30.78125 -46.46875 L 32.484375 -49.1875 L 57.0625 -33.859375 L 55.359375 -31.140625 L 48.328125 -34.125 L 36.796875 -15.640625 L 57.21875 -2.890625 L 68.75 -21.375 L 62.96875 -26.390625 L 64.671875 -29.109375 L 89.3125 -13.734375 L 87.609375 -11.015625 L 80.53125 -14.03125 L 54 28.515625 L 59.84375 33.515625 L 58.125 36.265625 L 33.484375 20.890625 L 35.203125 18.140625 L 42.21875 21.171875 L 54.65625 1.21875 L 34.234375 -11.53125 L 21.796875 8.421875 L 27.59375 13.390625 L 25.875 16.140625 Z M 1.296875 0.8125 "/></g></g></g><g fill="#f3c309" fill-opacity="1"><g transform="translate(438.181098, 1384.28192)"><g><path d="M 18.390625 5.09375 L 17.03125 8 L 0.796875 0.375 L 2.15625 -2.53125 L 6.65625 -1.71875 L 49.03125 -42.625 L 60.5625 -37.203125 L 56.046875 21.5 L 59.59375 24.46875 L 58.234375 27.375 L 34.46875 16.203125 L 35.828125 13.296875 L 42.515625 15.125 L 43.90625 -1.078125 L 23.4375 -10.703125 L 12.0625 0.8125 Z M 47 -33.75 L 27.125 -14.3125 L 44.46875 -6.15625 Z M 47 -33.75 "/></g></g></g><g fill="#f3c309" fill-opacity="1"><g transform="translate(510.694985, 1417.897714)"><g><path d="M 29.75 -16.3125 L 23.1875 3.1875 L 29.96875 6.71875 L 28.953125 9.75 L 2 0.671875 L 3.015625 -2.359375 L 10.03125 -1.25 L 26.046875 -48.8125 L 19.25 -52.3125 L 20.265625 -55.375 L 46.953125 -46.375 C 55.179688 -43.601562 60.894531 -40.269531 64.09375 -36.375 C 67.300781 -32.476562 68 -27.851562 66.1875 -22.5 C 63.5 -14.5 58.023438 -10.617188 49.765625 -10.859375 L 57.71875 14.8125 L 63.359375 17.96875 L 62.34375 21 L 44.265625 14.921875 L 36.671875 -13.984375 Z M 53.1875 -26.78125 C 54.582031 -30.945312 54.691406 -34.128906 53.515625 -36.328125 C 52.335938 -38.535156 49.457031 -40.414062 44.875 -41.96875 L 39.046875 -43.921875 L 31.296875 -20.890625 L 37.34375 -18.859375 C 41.613281 -17.421875 44.953125 -17.285156 47.359375 -18.453125 C 49.765625 -19.617188 51.707031 -22.394531 53.1875 -26.78125 Z M 53.1875 -26.78125 "/></g></g></g><g fill="#f3c309" fill-opacity="1"><g transform="translate(585.268718, 1442.0217)"><g><path d="M 24.78125 1.40625 L 31.875 4.265625 L 31.125 7.421875 L 2.953125 0.703125 L 3.703125 -2.453125 L 11.3125 -1.8125 L 22.953125 -50.59375 L 15.890625 -53.5 L 16.625 -56.625 L 44.796875 -49.90625 L 44.0625 -46.78125 L 36.421875 -47.375 Z M 24.78125 1.40625 "/></g></g></g><g fill="#f3c309" fill-opacity="1"><g transform="translate(632.315622, 1453.678986)"><g><path d="M 58.03125 -46.765625 L 50.375 -49.015625 L 50.828125 -52.203125 L 71.578125 -49.203125 L 71.125 -46.015625 L 63.46875 -45.984375 L 55.671875 8.03125 L 50.578125 7.296875 L 21.375 -44.78125 L 15.234375 -2.234375 L 22.890625 0.0625 L 22.4375 3.234375 L 1.703125 0.25 L 2.15625 -2.921875 L 9.796875 -3.015625 L 16.96875 -52.6875 L 9.671875 -54.890625 L 10.125 -58.078125 L 30.09375 -55.203125 L 53.28125 -13.796875 Z M 58.03125 -46.765625 "/></g></g></g><g fill="#f3c309" fill-opacity="1"><g transform="translate(711.790118, 1464.838593)"><g><path d="M 61.84375 -1.53125 C 58.1875 -0.425781 53.945312 0.421875 49.125 1.015625 C 44.300781 1.617188 39.972656 1.875 36.140625 1.78125 C 29.722656 1.613281 24.148438 0.300781 19.421875 -2.15625 C 14.691406 -4.625 11.082031 -8.128906 8.59375 -12.671875 C 6.113281 -17.210938 4.953125 -22.539062 5.109375 -28.65625 C 5.359375 -38.53125 8.367188 -46.0625 14.140625 -51.25 C 19.910156 -56.445312 28.019531 -58.914062 38.46875 -58.65625 C 41.019531 -58.59375 43.335938 -58.429688 45.421875 -58.171875 C 47.515625 -57.910156 49.46875 -57.582031 51.28125 -57.1875 C 53.09375 -56.789062 56.410156 -55.84375 61.234375 -54.34375 L 60.90625 -40.796875 L 56.953125 -40.90625 L 56.078125 -48.578125 C 53.804688 -50.222656 51.285156 -51.515625 48.515625 -52.453125 C 45.753906 -53.398438 42.894531 -53.910156 39.9375 -53.984375 C 33.113281 -54.160156 28.09375 -52.164062 24.875 -48 C 21.65625 -43.832031 19.929688 -37.296875 19.703125 -28.390625 C 19.492188 -20.109375 20.984375 -13.789062 24.171875 -9.4375 C 27.359375 -5.09375 32.070312 -2.84375 38.3125 -2.6875 C 41.707031 -2.601562 44.953125 -3.035156 48.046875 -3.984375 L 48.484375 -21.03125 L 40.953125 -22.359375 L 41.046875 -25.59375 L 68.203125 -24.921875 L 68.109375 -21.6875 L 62.328125 -20.6875 Z M 61.84375 -1.53125 "/></g></g></g><g fill="#f3c309" fill-opacity="1"><g transform="translate(794.555809, 1465.667386)"><g/></g></g><g fill="#f3c309" fill-opacity="1"><g transform="translate(827.510617, 1464.156252)"><g><path d="M 55.875 -66.671875 L 56.296875 -63.46875 L 50.921875 -61.578125 L 35.515625 -3.234375 L 29.71875 -2.484375 L -1.203125 -54.828125 L -6.15625 -55.375 L -6.578125 -58.578125 L 18.828125 -61.875 L 19.25 -58.671875 L 13.34375 -56.71875 L 34.734375 -20.546875 L 45.125 -60.828125 L 39.078125 -61.234375 L 38.65625 -64.4375 Z M 55.875 -66.671875 "/></g></g></g><g fill="#f3c309" fill-opacity="1"><g transform="translate(894.722471, 1455.382641)"><g><path d="M 17.546875 -7.46875 L 18.296875 -4.359375 L 0.84375 -0.203125 L 0.09375 -3.3125 L 4.125 -5.484375 L 11.734375 -63.890625 L 24.140625 -66.84375 L 57.203125 -18.15625 L 61.84375 -18.03125 L 62.59375 -14.921875 L 37.046875 -8.84375 L 36.296875 -11.953125 L 42.671875 -14.6875 L 33.640625 -28.21875 L 11.640625 -22.96875 L 9.921875 -6.875 Z M 15.6875 -55.6875 L 12.265625 -28.09375 L 30.90625 -32.546875 Z M 15.6875 -55.6875 "/></g></g></g><g fill="#f3c309" fill-opacity="1"><g transform="translate(972.084022, 1436.391873)"><g><path d="M 11.3125 -63.25 L 3.15625 -59.125 L 20.015625 -12.125 L 31.3125 -16.171875 C 37.175781 -18.285156 41.390625 -20.113281 43.953125 -21.65625 L 43.203125 -34.421875 L 46.921875 -35.75 L 51.375 -18.4375 L 1.4375 -0.515625 L 0.359375 -3.53125 L 7.078125 -7.203125 L -9.875 -54.453125 L -17.34375 -52.96875 L -18.421875 -56 L 10.234375 -66.28125 Z M 11.3125 -63.25 "/></g></g></g><g fill="#f3c309" fill-opacity="1"><g transform="translate(1042.343786, 1410.900481)"><g><path d="M 30.71875 -21 C 34.664062 -22.925781 37.175781 -25.523438 38.25 -28.796875 C 39.320312 -32.066406 38.8125 -35.84375 36.71875 -40.125 L 21.484375 -71.265625 L 13.890625 -68.828125 L 12.46875 -71.71875 L 30.453125 -80.515625 L 31.875 -77.625 L 26.390625 -73.671875 L 41.46875 -42.859375 C 44.457031 -36.742188 44.984375 -31.191406 43.046875 -26.203125 C 41.109375 -21.210938 36.867188 -17.113281 30.328125 -13.90625 C 23.242188 -10.445312 17.003906 -9.445312 11.609375 -10.90625 C 6.222656 -12.363281 2.003906 -16.207031 -1.046875 -22.4375 L -15.96875 -52.9375 L -22.484375 -51.03125 L -23.90625 -53.921875 L 1.328125 -66.265625 L 2.75 -63.375 L -3.53125 -59.015625 L 11.65625 -27.96875 C 13.726562 -23.726562 16.390625 -21 19.640625 -19.78125 C 22.890625 -18.570312 26.582031 -18.976562 30.71875 -21 Z M 30.71875 -21 "/></g></g></g><g fill="#f3c309" fill-opacity="1"><g transform="translate(1113.698542, 1375.375826)"><g><path d="M -0.421875 -3.53125 L 5.3125 -8.578125 L -21.578125 -50.953125 L -28.5625 -47.875 L -30.296875 -50.59375 L 12.0625 -77.484375 L 20.09375 -64.828125 L 16.71875 -62.6875 L 10.421875 -69.984375 C 7.441406 -68.566406 3.332031 -66.191406 -1.90625 -62.859375 L -9.625 -57.96875 L 1.953125 -39.703125 L 14.984375 -47.96875 L 12.65625 -54.203125 L 15.953125 -56.296875 L 25.65625 -41.015625 L 22.359375 -38.921875 L 17.625 -43.8125 L 4.59375 -35.546875 L 16.765625 -16.375 L 26.15625 -22.328125 C 32.539062 -26.378906 36.597656 -29.226562 38.328125 -30.875 L 34.59375 -41.4375 L 37.984375 -43.578125 L 46.078125 -29.25 L 1.296875 -0.828125 Z M -0.421875 -3.53125 "/></g></g></g><g fill="#f3c309" fill-opacity="1"><g transform="translate(1175.832049, 1335.277977)"><g><path d="M -7.359375 -17.171875 L -4.328125 -19.5625 L 3.0625 -13.34375 C 4.914062 -12.96875 7.117188 -13.164062 9.671875 -13.9375 C 12.222656 -14.71875 14.550781 -15.929688 16.65625 -17.578125 C 23.269531 -22.765625 24.445312 -28.078125 20.1875 -33.515625 C 18.851562 -35.222656 17.097656 -36.171875 14.921875 -36.359375 C 12.742188 -36.546875 9.945312 -36.046875 6.53125 -34.859375 C 1.53125 -33.066406 -2.15625 -31.898438 -4.53125 -31.359375 C -6.914062 -30.816406 -9.144531 -30.625 -11.21875 -30.78125 C -13.289062 -30.945312 -15.300781 -31.539062 -17.25 -32.5625 C -19.195312 -33.582031 -21.078125 -35.25 -22.890625 -37.5625 C -26.078125 -41.644531 -27.113281 -45.84375 -26 -50.15625 C -24.894531 -54.46875 -21.671875 -58.71875 -16.328125 -62.90625 C -12.441406 -65.9375 -7.765625 -68.800781 -2.296875 -71.5 L 6.34375 -60.453125 L 3.265625 -58.046875 L -3.265625 -63.1875 C -6.953125 -63.050781 -10.367188 -61.753906 -13.515625 -59.296875 C -16.347656 -57.078125 -18.113281 -54.847656 -18.8125 -52.609375 C -19.507812 -50.367188 -19.007812 -48.164062 -17.3125 -46 C -16.101562 -44.457031 -14.429688 -43.632812 -12.296875 -43.53125 C -10.171875 -43.425781 -7.425781 -44.003906 -4.0625 -45.265625 C 2.570312 -47.671875 7.375 -49.003906 10.34375 -49.265625 C 13.3125 -49.523438 16.054688 -49.113281 18.578125 -48.03125 C 21.109375 -46.957031 23.375 -45.140625 25.375 -42.578125 C 33.09375 -32.734375 31.148438 -23.269531 19.546875 -14.1875 C 16.890625 -12.113281 14.003906 -10.21875 10.890625 -8.5 C 7.773438 -6.789062 4.945312 -5.53125 2.40625 -4.71875 Z M -7.359375 -17.171875 "/></g></g></g><path fill="#f3c309" d="M 225.144531 1167.457031 L 234.054688 1140.070312 L 242.941406 1167.457031 L 271.699219 1167.457031 L 248.390625 1184.347656 L 257.277344 1211.734375 L 233.996094 1194.78125 L 210.660156 1211.859375 L 219.570312 1184.472656 L 196.261719 1167.578125 Z M 225.144531 1167.457031 " fill-opacity="1" fill-rule="nonzero"/><path fill="#f3c309" d="M 1290.144531 1167.457031 L 1299.054688 1140.070312 L 1307.941406 1167.457031 L 1336.699219 1167.457031 L 1313.390625 1184.347656 L 1322.277344 1211.734375 L 1298.992188 1194.78125 L 1275.660156 1211.859375 L 1284.570312 1184.472656 L 1261.261719 1167.578125 Z M 1290.144531 1167.457031 " fill-opacity="1" fill-rule="nonzero"/></svg>