<svg xmlns="http://www.w3.org/2000/svg" viewBox="0 0 2048 2048" width="2048" height="2048">
  <!-- <rect width="100%" height="100%" fill="white" /> -->

    <circle 
    cx="1024" 
    cy="1024" 
    r="800" 
    fill="white" 

  />

<g transform="translate(370, 1550) scale(1.35)">
<path d="M 1024 120
         L 300 300
         L 0 120 
         L 0 0 
         L 532.541 0 
         C 546.472 1.059 573.410 7.407 573.895 46.853 
         C 573.895 37.474 576.560 2.056 615.661 0 
         L 1024 0 Z"
      fill="#F3C309"
      stroke="#cd2029" 
      stroke-width="6"/>
     </g>
  <!-- <circle 
    cx="1024" 
    cy="1024" 
    r="1000" 
    fill="#F3C309" 
    stroke="#cd2029" 
    stroke-width="10" 
  /> -->


  <svg xmlns="http://www.w3.org/2000/svg" viewBox="0 0 2048 2048" width="2048" height="2048">
  <path 
    fill="#cd2029" 
    fill-rule="evenodd"
    d="
      M 1024, 1024
      m -1000, 0
      a 1000,1000 0 1,0 2000,0
      a 1000,1000 0 1,0 -2000,0
      
      M 1024, 1024
      m -800, 0
      a 800,800 0 1,0 1600,0
      a 800,800 0 1,0 -1600,0
    " 
  />

</svg>
  <g transform="translate(0, 120) scale(1.8)">
    
    <path id="path5" d="m 0,0 h 8.605 v -21.867 h -52.543 v 9.871 h 8.606 v 54.213 h -8.606 v 9.617 h 27.892 V 42.217 H -24.55 V -11.996 H 0 Z"
           style="fill:#F3C309;fill-opacity:1;stroke:#cd2029;stroke-width:1.5;"
           transform="matrix(1.3333333,0,0,-1.3333333,566.34707,504.57107)" />
           
    <path id="path6" d="M 0,0 H 27.446 V -9.429 H 19.108 V -44.32 c 0,-6.997 0.893,-11.961 2.729,-14.889 1.837,-2.929 5.311,-4.417 10.473,-4.417 5.161,0 8.685,1.34 10.521,4.069 1.836,2.73 2.78,7.246 2.78,13.599 V -9.429 H 37.173 V 0 H 64.52 v -9.429 h -8.438 v -36.43 c 0,-4.615 -0.198,-8.288 -0.546,-11.018 -0.347,-2.73 -1.24,-5.21 -2.58,-7.443 -3.722,-5.957 -10.77,-9.381 -20.25,-9.381 -9.975,0 -16.824,3.028 -20.646,9.081 -1.538,2.482 -2.531,5.063 -2.928,7.793 -0.397,2.73 -0.596,6.353 -0.596,10.968 v 36.43 l -8.536,0 z"
           style="fill:#F3C309;fill-opacity:1;stroke:#cd2029;stroke-width:1.5;"
           transform="matrix(1.3333333,0,0,-1.3333333,581.6,435.45933)" />

    <path id="path8" d="m 0,0 h -27.891 v 9.871 h 8.605 v 54.213 h -8.605 v 9.617 H -2.936 L 18.425,16.705 39.786,73.701 H 64.792 V 64.084 H 56.187 V 9.871 h 8.605 V 0 H 36.901 v 9.871 h 9.213 V 63.982 L 22.171,0 H 14.578 L -9.365,63.982 V 9.871 H 0 Z"
           style="fill:#F3C309;fill-opacity:1;stroke:#cd2029;stroke-width:1.5;"
           transform="matrix(1.3333333,0,0,-1.3333333,708.5948,533.72707)" />

    <path id="path10" d="m 0,0 h -27.891 v 9.871 h 8.605 v 54.213 h -8.605 v 9.617 H -8.402 L 27.537,18.223 V 64.084 H 18.83 v 9.617 H 46.721 V 64.084 H 38.116 V 0 H 27.689 L -8.706,57.199 V 9.871 H 0 Z"
           style="fill:#F3C309;fill-opacity:1;stroke:#cd2029;stroke-width:1.5;"
           transform="matrix(1.3333333,0,0,-1.3333333,835.9508,533.72707)" />

    <path id="path12" d="m 0,0 h -27.891 v 9.871 h 8.605 v 54.213 h -8.605 v 9.617 H 0 V 64.084 H -8.605 V 9.871 l 8.605,0 z"
           style="fill:#F3C309;fill-opacity:1;stroke:#cd2029;stroke-width:1.5;"
           transform="matrix(1.3333333,0,0,-1.3333333,939.21267,533.72707)" />

<path id="path14" d="m 0,0 c -24.883,24.084 -50.822,40.456 -68.387,44.558 -0.002,0 -0.003,0.002 -0.005,0.002 -0.002,0 -0.005,10e-4 -0.006,10e-4 -2.051,0.664 -4.363,0.987 -6.897,0.987 h -0.012 c -1.793,0.065 -3.447,-0.054 -4.946,-0.367 h -0.005 c -0.003,0 -0.006,-0.002 -0.009,-0.002 -0.002,-0.002 -0.005,-0.002 -0.007,-0.002 -0.003,-10e-4 -0.004,-10e-4 -0.008,-10e-4 -0.003,-0.002 -0.004,-0.002 -0.008,-0.002 -17.145,-2.433 -41.701,-16.626 -64.504,-38.764 -0.546,-0.529 -1.087,-1.06 -1.622,-1.59 -2.678,-0.754 0.293,8.571 6.258,22.221 0,0.011 0,0.024 0.013,0.036 7.508,24.419 51.62,109.499 65.159,109.499 10.435,0 38.048,-45.376 64.146,-92.981 C 4.803,15.049 19.903,-14.294 30.432,-35.133 22.441,-23.789 12.106,-11.717 0,0 m -55.37,13.751 c 12.973,-3.705 28.094,-8.916 41.98,-18.515 23.892,-16.515 37.553,-29.466 49.07,-44.162 2.275,-3.3 5.556,-8.126 6.475,-9.984 0.002,-0.003 -10e-4,0.002 0,0 2.497,-5.067 2.575,-4.891 2.723,-5.189 -0.138,0.46 -1.305,4.322 -3.326,10.78 0,0.001 0,0.003 -0.002,0.004 -15.214,48.615 -78.809,244.334 -116.536,244.334 -25.632,0 -67.046,-80.91 -92.535,-148.594 -0.036,-0.085 -0.071,-0.17 -0.095,-0.255 -20.492,-58.16 -33.894,-99.904 -26.301,-105.501 1.648,-1.212 6.068,-0.65 9.083,0.938 8.941,4.709 23.453,16.888 23.454,16.89 14.483,13.114 19.25,17.684 23.747,22.05 10.322,10.02 21.001,18.411 31.19,24.821 1.089,0.686 2.172,1.348 3.249,1.989 6.683,3.968 12.401,8.06 18.322,10.149 9.005,3.175 14.422,4.432 28.183,0.616 Z"
      style="fill:#F3C309;fill-opacity:1;stroke:#cd2029;stroke-width:1.5;"
      transform="matrix(1.3333333,0,0,-1.3333333,444.73027,448.32613)" />

    <!-- BÁCH KHOA -->

    <path id="path16" d="m 0,0 h 3.953 c 5.269,0 7.904,1.859 7.904,5.577 0,1.838 -0.669,3.259 -2.008,4.263 -1.339,1.004 -3.241,1.507 -5.705,1.507 H 0 Z m 0,18.614 h 2.55 c 4.547,0 6.821,1.541 6.821,4.622 0,1.498 -0.532,2.643 -1.594,3.435 -1.063,0.791 -2.572,1.187 -4.526,1.187 H 0 Z M -7.905,-7.267 v 42.52 H 0.51 c 1.827,0 3.4,-0.054 4.718,-0.161 1.316,-0.106 2.475,-0.288 3.474,-0.542 0.998,-0.256 1.88,-0.586 2.645,-0.991 0.765,-0.404 1.508,-0.926 2.231,-1.565 1.105,-0.98 1.986,-2.193 2.646,-3.641 0.658,-1.448 0.988,-2.896 0.988,-4.343 0,-1.874 -0.382,-3.46 -1.147,-4.759 -0.766,-1.299 -1.956,-2.418 -3.57,-3.354 1.402,-0.552 2.55,-1.167 3.442,-1.845 0.893,-0.68 1.657,-1.57 2.295,-2.673 0.467,-0.806 0.839,-1.729 1.115,-2.769 0.276,-1.04 0.415,-2.131 0.415,-3.277 0,-2.46 -0.649,-4.687 -1.944,-6.681 -1.297,-1.995 -3.092,-3.479 -5.387,-4.456 -2.21,-0.976 -5.206,-1.463 -8.989,-1.463 z"
           style="fill:#cd2029;fill-opacity:1;stroke:none"
           transform="matrix(1.3333333,0,0,-1.3333333,518.30293,408.54827)" />
    <path id="path18" d="M 0,0 H 9.115 L 4.59,13.068 Z M -16.192,-18.232 1.466,24.288 H 7.65 l 17.849,-42.52 H 16.766 L 12.239,-7.268 H -2.805 l -4.717,-10.964 z"
           style="fill:#cd2029;fill-opacity:1;stroke:none"
           transform="matrix(1.3333333,0,0,-1.3333333,570.02133,393.92827)" />
    <path id="path20" d="m 0,0 c 1.963,0 3.721,0.393 5.276,1.18 1.555,0.786 3.211,2.111 4.97,3.974 h 8.774 c -0.777,-1.84 -1.81,-3.508 -3.099,-5 -1.288,-1.494 -2.76,-2.772 -4.417,-3.835 -1.657,-1.064 -3.457,-1.882 -5.4,-2.454 -1.943,-0.573 -3.936,-0.859 -5.982,-0.859 -2.905,0 -5.655,0.562 -8.252,1.687 -2.598,1.125 -4.868,2.658 -6.811,4.602 -1.943,1.942 -3.476,4.212 -4.601,6.81 -1.125,2.597 -1.687,5.369 -1.687,8.314 0,2.862 0.562,5.583 1.687,8.16 1.125,2.577 2.647,4.817 4.571,6.719 1.922,1.901 4.161,3.414 6.718,4.54 2.557,1.125 5.286,1.687 8.191,1.687 2.946,0 5.716,-0.552 8.314,-1.657 2.597,-1.104 4.94,-2.72 7.025,-4.846 0.491,-0.492 0.91,-0.942 1.258,-1.35 0.347,-0.409 0.675,-0.839 0.981,-1.289 0.307,-0.45 0.593,-0.941 0.859,-1.472 0.266,-0.532 0.562,-1.166 0.891,-1.903 h -8.59 c -0.982,1.159 -1.893,2.058 -2.73,2.699 -0.839,0.641 -1.791,1.189 -2.854,1.644 -0.819,0.331 -1.717,0.61 -2.7,0.838 -0.981,0.228 -1.882,0.341 -2.699,0.341 -1.801,0 -3.507,-0.38 -5.123,-1.139 -1.617,-0.76 -3.028,-1.798 -4.234,-3.112 -1.207,-1.316 -2.169,-2.835 -2.883,-4.561 -0.716,-1.725 -1.075,-3.532 -1.075,-5.422 0,-1.93 0.368,-3.759 1.106,-5.484 0.736,-1.726 1.717,-3.246 2.944,-4.56 C -8.345,2.936 -6.903,1.899 -5.246,1.14 -3.59,0.38 -1.841,0 0,0"
           style="fill:#cd2029;fill-opacity:1;stroke:none"
           transform="matrix(1.3333333,0,0,-1.3333333,636.1048,408.91173)" />
    <path id="path22" d="M 0,0 V 42.52 H 7.905 V 25.117 H 23.077 V 42.52 h 7.904 V 0 H 23.077 V 17.85 H 7.905 L 7.905,0 Z"
           style="fill:#cd2029;fill-opacity:1;stroke:none"
           transform="matrix(1.3333333,0,0,-1.3333333,665.572,418.2376)" />
    <path id="path32" d="M 0,0 V 42.52 H 7.905 V 24.097 L 21.292,42.52 h 9.243 L 14.471,21.61 30.535,0 H 21.292 L 7.905,18.678 V 0 Z"
           style="fill:#cd2029;fill-opacity:1;stroke:none"
           transform="matrix(1.3333333,0,0,-1.3333333,733.57827,418.2376)" />
    <path id="path34" d="M 0,0 V 42.52 H 7.905 V 25.117 H 23.077 V 42.52 h 7.904 V 0 H 23.077 V 17.85 H 7.905 L 7.905,0 Z"
           style="fill:#cd2029;fill-opacity:1;stroke:none"
           transform="matrix(1.3333333,0,0,-1.3333333,778.07147,418.2376)" />
   
    <!-- o của O -->
    <path
       id="path24"
       d="m 0,0 c -0.455,-0.455 -1.052,-0.698 -1.7,-0.698 -0.647,0 -1.244,0.243 -1.7,0.698 -0.941,0.941 -0.941,2.469 0,3.41 0.456,0.455 1.053,0.708 1.7,0.708 0.648,0 1.245,-0.253 1.7,-0.708 C 0.455,2.954 0.708,2.347 0.708,1.71 0.708,1.062 0.455,0.455 0,0 M 2.307,2.499 C 2.287,2.631 2.256,2.762 2.216,2.884 2.024,3.521 1.68,4.118 1.194,4.604 0.911,4.887 0.597,5.12 0.253,5.302 0.132,5.373 0.01,5.423 -0.111,5.474 -0.607,5.686 -1.143,5.798 -1.7,5.798 -2.256,5.798 -2.793,5.686 -3.288,5.474 -3.41,5.423 -3.531,5.373 -3.653,5.302 -3.997,5.12 -4.31,4.887 -4.594,4.604 -4.877,4.32 -5.12,4.007 -5.292,3.663 -5.626,3.066 -5.798,2.398 -5.798,1.71 c 0,-0.688 0.162,-1.346 0.486,-1.922 0.182,-0.355 0.425,-0.678 0.718,-0.972 v -0.01 c 0.355,-0.354 0.769,-0.637 1.215,-0.83 0.091,-0.04 0.182,-0.081 0.273,-0.111 0.091,-0.03 0.192,-0.061 0.283,-0.091 0.101,-0.03 0.192,-0.05 0.294,-0.071 0.263,-0.06 0.536,-0.091 0.819,-0.091 0.142,0 0.283,0.01 0.425,0.031 0.132,0.01 0.263,0.03 0.395,0.06 0.01,-0.01 0.02,-0.01 0.03,0 1.305,0.273 2.388,1.174 2.904,2.378 0.131,0.293 0.222,0.587 0.273,0.89 0.02,0.102 0.04,0.213 0.05,0.324 0.041,0.405 0.021,0.81 -0.06,1.204"
       style="fill:#cd2029;fill-opacity:1;fill-rule:nonzero;stroke:none"
       transform="matrix(1.3333333,0,0,-1.3333333,853.77533,392.16427)"
       clip-path="url(#clipPath25)" />
    <!-- O của O -->
    <path
       id="path26"
       d="m 0,0 c -2.431,0 -4.714,-0.944 -6.429,-2.659 -1.717,-1.717 -2.663,-4 -2.663,-6.429 0,-2.428 0.946,-4.711 2.663,-6.428 1.715,-1.715 3.998,-2.659 6.429,-2.659 2.431,0 4.714,0.944 6.429,2.659 1.715,1.714 2.659,3.997 2.659,6.429 0,2.431 -0.944,4.714 -2.659,6.428 C 4.714,-0.944 2.431,0 0,0 m 0,-21.04 c -3.198,0 -6.201,1.241 -8.456,3.496 -2.259,2.259 -3.503,5.262 -3.503,8.456 0,3.195 1.244,6.198 3.503,8.457 2.255,2.254 5.258,3.496 8.456,3.496 3.198,0 6.201,-1.242 8.456,-3.496 4.663,-4.663 4.663,-12.25 0,-16.913 C 6.201,-19.799 3.198,-21.04 0,-21.04"
       style="fill:#cd2029;fill-opacity:1;fill-rule:nonzero;stroke:none"
       transform="matrix(1.3333333,0,0,-1.3333333,851.50027,377.77427)"
       clip-path="url(#clipPath27)" />
    <!-- ( của O -->
    <path
       id="path28"
       d="m 0,0 c -0.644,0 -1.249,-0.25 -1.704,-0.705 -0.454,-0.454 -0.704,-1.059 -0.704,-1.704 0,-0.644 0.25,-1.249 0.704,-1.703 0.455,-0.455 1.06,-0.705 1.704,-0.705 0.644,0 1.249,0.25 1.704,0.705 0.939,0.939 0.939,2.468 0,3.407 C 1.249,-0.25 0.644,0 0,0 m 0,-6.504 c -1.096,0 -2.125,0.426 -2.898,1.198 -1.236,1.236 -1.548,3.126 -0.777,4.701 l 0.123,0.251 -0.154,0.232 c -5.564,8.398 -4.432,19.664 2.692,26.788 4.009,4.008 9.347,6.216 15.033,6.216 2.972,0 5.948,-0.631 8.652,-1.827 -0.002,-0.003 -0.004,-0.005 -0.006,-0.007 -0.695,-0.694 -1.238,-1.504 -1.621,-2.413 -2.23,0.918 -4.589,1.383 -7.022,1.383 -4.919,0 -9.539,-1.911 -13.008,-5.38 C -5.023,18.602 -6.087,8.986 -1.517,1.774 l 0.188,-0.296 0.34,0.084 c 0.326,0.08 0.661,0.121 0.996,0.121 1.094,0 2.121,-0.424 2.891,-1.194 1.597,-1.598 1.597,-4.197 0,-5.795 C 2.125,-6.079 1.096,-6.504 0,-6.504"
       style="fill:#cd2029;fill-opacity:1;fill-rule:nonzero;stroke:none"
       transform="matrix(1.3333333,0,0,-1.3333333,832.79333,405.38667)"
       clip-path="url(#clipPath29)" />
    <!-- ) của O -->
    <path
       id="path30"
       d="m 0,0 c -0.644,0 -1.249,-0.25 -1.704,-0.705 -0.939,-0.939 -0.939,-2.468 0,-3.407 0.455,-0.454 1.06,-0.705 1.704,-0.705 0.644,0 1.249,0.251 1.704,0.705 0.454,0.454 0.704,1.059 0.704,1.703 0,0.645 -0.25,1.25 -0.704,1.704 C 1.249,-0.25 0.644,0 0,0 m -14.019,-37.698 c -2.973,0 -5.948,0.63 -8.652,1.827 0.002,0.002 0.004,0.004 0.006,0.006 0.695,0.694 1.238,1.504 1.621,2.413 2.23,-0.917 4.589,-1.382 7.022,-1.382 4.919,0 9.539,1.91 13.008,5.379 6.036,6.036 7.1,15.652 2.53,22.864 L 1.328,-6.295 0.988,-6.379 C 0.663,-6.459 0.329,-6.5 -0.006,-6.5 c -1.095,0 -2.122,0.424 -2.892,1.194 -0.772,0.773 -1.198,1.802 -1.198,2.898 0,1.096 0.426,2.125 1.198,2.898 0.773,0.772 1.802,1.198 2.898,1.198 1.096,0 2.125,-0.426 2.898,-1.198 1.235,-1.235 1.548,-3.123 0.779,-4.698 L 3.555,-4.458 3.709,-4.69 c 5.565,-8.398 4.431,-19.666 -2.695,-26.792 -4.009,-4.009 -9.348,-6.216 -15.033,-6.216 z"
       style="fill:#cd2029;fill-opacity:1;fill-rule:nonzero;stroke:none"
       transform="matrix(1.3333333,0,0,-1.3333333,870.20733,367.9732)"
       clip-path="url(#clipPath31)" />
    <path id="path36" d="M 0,0 H 9.116 L 4.59,13.068 Z m -16.191,-18.232 17.657,42.52 h 6.183 l 17.85,-42.52 H 16.766 L 12.239,-7.268 H -2.805 l -4.718,-10.964 z"
           style="fill:#cd2029;fill-opacity:1;stroke:none"
           transform="matrix(1.3333333,0,0,-1.3333333,905.21333,393.92827)" />
  </g>

<text 
    x="1024" 
    y="1424" 
    font-family="'Linh Avant Garde', sans-serif" 
    font-size="250" 
    fill="#cd2029" 
    text-anchor="middle" 
    font-weight="bold">
    BKHN-TSN
  </text>

  <defs>
    <!-- <path id="textCurveBottom" d="M 524,1024 A 500,500 0 0,0 1524,1024" /> -->
    <!-- <path id="textCurveBottom" d="M 424,1024 A 600,600 0 0,0 1624,1024" /> -->
    <!-- <path id="textCurveBottom" d="M 324,1024 A 700,700 0 0,0 1724,1024" /> -->
    <!-- <path id="textCurveBottom" d="M 224,1024 A 800,800 0 0,0 1824,1024" /> -->
    <path id="textCurveBottom" d="M 174,1024 A 850,850 0 0,0 1874,1024" />
    <!-- <path id="textCurveBottom" d="M 124,1024 A 900,900 0 0,0 1924,1024" /> -->
    <!-- <path id="textCurveBottom" d="M 24,1024 A 1000,1000 0 0,0 2024,1024" /> -->
  </defs>

  <text 
    fill="#F3C309" 
    font-family="Arial, Helvetica, sans-serif" 
    font-size="120" 
    font-weight="bold" 
    letter-spacing="10"
    dominant-baseline="hanging">
    
    <textPath href="#textCurveBottom" startOffset="50%" text-anchor="middle">
      SHARING VALUES
    </textPath>
  </text>

 
</svg>