<?xml version="1.0" standalone="no"?>
<!DOCTYPE svg PUBLIC "-//W3C//DTD SVG 1.1//EN" "http://www.w3.org/Graphics/SVG/1.1/DTD/svg11.dtd" >
<svg xmlns="http://www.w3.org/2000/svg" xmlns:xlink="http://www.w3.org/1999/xlink" version="1.1">
<metadata>
Created by FontForge 20201107 at Sat Jun 13 22:17:32 2009
 By 
\(c\) Copyright 1998 E+F Designstudio. ITC Avant Garde is a registered trademark of International Typeface Corporation.
</metadata>
<defs>
<font id="LinhAvantGarde-Bold" horiz-adv-x="500" >
  <font-face 
    font-family="Linh AvantGarde"
    font-weight="700"
    font-stretch="normal"
    units-per-em="1000"
    panose-1="2 0 8 3 2 0 0 2 0 4"
    ascent="800"
    descent="-200"
    x-height="500"
    cap-height="667"
    bbox="-200.833 -250 1137 993.174"
    underline-thickness="20"
    underline-position="-166"
    unicode-range="U+0020-FB02"
  />
<missing-glyph horiz-adv-x="280" 
 />
    <glyph glyph-name="fi" unicode="fi" horiz-adv-x="544" 
d="M494 667v-114h-150v114h150zM494 500v-500h-150v500h150zM63 0v387h-55v113h55v26q0 38 12 68t35 48q27 21 59 29.5t85 8.5h23v-113h-18q-46 0 -46 -47v-20h64v-113h-64v-387h-150z" />
    <glyph glyph-name="fl" unicode="fl" horiz-adv-x="544" 
d="M344 0v667h150v-667h-150zM63 0v387h-55v113h55v26q0 38 12 68t35 48q27 21 59 29.5t85 8.5h23v-113h-18q-46 0 -46 -47v-20h64v-113h-64v-387h-150z" />
    <glyph glyph-name=".notdef" horiz-adv-x="280" 
 />
    <glyph glyph-name=".null" horiz-adv-x="0" 
 />
    <glyph glyph-name="nonmarkingreturn" horiz-adv-x="333" 
 />
    <glyph glyph-name="space" unicode=" " horiz-adv-x="250" 
 />
    <glyph glyph-name="quotedbl" unicode="&#x22;" horiz-adv-x="408" 
d="M343 399h-93l-24 268h141zM158 399h-93l-24 268h141z" />
    <glyph glyph-name="numbersign" unicode="#" horiz-adv-x="600" 
d="M356 383h-87l-13 -86h87zM575 297l-18 -114h-102l-29 -183h-130l29 183h-87l-29 -183h-129l30 183h-102l17 114h102l14 86h-101l17 114h101l28 170h128l-27 -170h87l27 170h130l-27 -170h100l-17 -114h-101l-13 -86h102z" />
    <glyph glyph-name="dollar" unicode="$" horiz-adv-x="550" 
d="M337 731v-91q31 -8 50.5 -20t38.5 -36q20 -26 28.5 -50t8.5 -56v-9h-140q-5 57 -49 57q-22 0 -35.5 -14t-13.5 -37q0 -26 19.5 -44.5t70.5 -36.5l31 -11q63 -23 98 -69.5t35 -104.5q0 -63 -38 -112t-104 -70v-95h-122v91q-40 8 -64.5 22t-44.5 39q-18 23 -29 52.5
t-11 55.5v10h154q6 -64 53 -64q22 0 37 15.5t15 38.5q0 26 -19 44t-64 35l-30 11q-141 52 -141 176q0 69 37.5 116t106.5 66v91h122z" />
    <glyph glyph-name="percent" unicode="%" horiz-adv-x="800" 
d="M607 210q-25 0 -42.5 -17.5t-17.5 -43.5q0 -27 17 -45t43 -18t42.5 18t16.5 44t-17 44t-42 18zM194 580q-26 0 -43 -17.5t-17 -43.5t17 -44t43 -18q25 0 42 18t17 44t-17.5 43.5t-41.5 17.5zM487 667h106l-280 -667h-106zM607 -13q-36 0 -66 12t-51.5 33t-34 50t-12.5 64
q0 36 12.5 66t34 51.5t51.5 34t66 12.5q35 0 65 -12t51.5 -34t34 -51.5t12.5 -64.5t-12.5 -64t-34 -51t-51.5 -34t-65 -12zM194 357q-36 0 -66 12t-51.5 33.5t-34 50.5t-12.5 64t12 65t34 51.5t52 34t65 12.5t65 -12t52 -34t34.5 -51.5t12.5 -63.5q0 -35 -12.5 -64.5
t-34 -51.5t-51.5 -34t-65 -12z" />
    <glyph glyph-name="ampersand" unicode="&#x26;" horiz-adv-x="660" 
d="M235 515q0 -18 8.5 -33.5t29.5 -38.5q24 23 33 39t9 35q0 20 -10.5 31.5t-28.5 11.5q-17 0 -29 -12.5t-12 -32.5zM245 274q-29 -23 -40 -40.5t-11 -37.5q0 -29 21.5 -47.5t55.5 -18.5q26 0 44.5 8t36.5 28zM486 393h157l-51 -124q-11 -25 -22.5 -46.5t-27.5 -42.5l91 -93
l-102 -100l-79 81q-15 -13 -26.5 -22.5t-22.5 -16t-22 -12t-26 -11.5q-25 -10 -50.5 -14.5t-51.5 -4.5q-47 0 -87.5 15t-70.5 41t-47.5 61t-17.5 76q0 44 21.5 82.5t60.5 70.5q9 7 19 15t22 16q-32 32 -47.5 67t-15.5 77q0 36 14.5 67.5t39 55t58.5 36.5t73 13
q37 0 69.5 -12.5t56 -34.5t37 -52t13.5 -65q0 -47 -22 -82.5t-71 -70.5l79 -79z" />
    <glyph glyph-name="quotesingle" unicode="'" horiz-adv-x="223" 
d="M158 399h-93l-24 268h141z" />
    <glyph glyph-name="parenleft" unicode="(" horiz-adv-x="372" 
d="M187 249q0 -45 11.5 -88.5t32.5 -81.5t50 -68.5t64 -48.5v-149q-40 15 -70 31t-59 37q-44 33 -78.5 74t-58.5 88.5t-36.5 100t-12.5 106.5q0 110 49 206.5t137 162.5q29 21 59 37t70 31v-149q-35 -19 -64 -49.5t-50 -68.5t-32.5 -82t-11.5 -89z" />
    <glyph glyph-name="parenright" unicode=")" horiz-adv-x="372" 
d="M185 251q0 45 -11.5 88.5t-32.5 81.5t-50 68.5t-64 48.5v149q40 -15 70 -31t59 -37q44 -33 78.5 -74t58.5 -88.5t36.5 -100t12.5 -106.5q0 -110 -49 -206.5t-137 -162.5q-29 -21 -59 -37t-70 -31v149q35 18 64 48.5t50 69t32.5 82.5t11.5 89z" />
    <glyph glyph-name="asterisk" unicode="*" horiz-adv-x="550" 
d="M221 667h108l-6 -126l116 43l35 -99l-119 -36l75 -99l-84 -64l-73 104l-72 -104l-84 64l78 99l-119 36l33 99l115 -43z" />
    <glyph glyph-name="plus" unicode="+" 
d="M33 398h154v154h126v-154h154v-117h-154v-154h-126v154h-154v117z" />
    <glyph glyph-name="comma" unicode="," horiz-adv-x="262" 
d="M209 153v-189q0 -49 -25 -79t-67 -30h-64v80h31q17 0 28 9.5t11 24.5v31h-70v153h156z" />
    <glyph glyph-name="hyphen" unicode="-" horiz-adv-x="253" 
d="M253 320v-127h-253v127h253z" />
    <glyph glyph-name="hyphen" unicode="&#xad;" horiz-adv-x="253" 
d="M253 320v-127h-253v127h253z" />
    <glyph glyph-name="period" unicode="." horiz-adv-x="262" 
d="M209 153v-153h-156v153h156z" />
    <glyph glyph-name="slash" unicode="/" horiz-adv-x="422" 
d="M242 667h147l-261 -834h-147z" />
    <glyph glyph-name="zero" unicode="0" horiz-adv-x="550" 
d="M275 137q79 0 79 99v195q0 99 -79 99q-38 0 -58.5 -26t-20.5 -73v-195q0 -48 20.5 -73.5t58.5 -25.5zM50 126q-11 23 -17.5 53.5t-6.5 56.5v194q0 123 91 193q35 27 77 42t83 15q35 0 69.5 -11t65 -30t54.5 -45.5t37 -56.5q9 -22 15 -51t6 -56v-194q0 -53 -19 -98.5
t-52 -79t-78 -52.5t-97 -19q-35 0 -69.5 10.5t-65 29t-55 44t-38.5 55.5z" />
    <glyph glyph-name="one" unicode="1" horiz-adv-x="550" 
d="M383 667v-667h-170v523h-109v144h279z" />
    <glyph glyph-name="two" unicode="2" horiz-adv-x="550" 
d="M404 257q-12 -14 -23 -25l-24 -24t-30.5 -28.5t-41.5 -36.5h226v-143h-470v133l26 16q29 18 49.5 31.5t36.5 26.5t30 26t30 28q17 17 32.5 34t29.5 36q62 78 62 134q0 29 -17 47t-46 18q-37 0 -55.5 -25t-21.5 -81h-162q1 30 3.5 51.5t7 38.5t11 32t17.5 31q32 49 86 76
t121 27q48 0 89.5 -14.5t72 -41t47.5 -62t17 -77.5q0 -57 -25 -112.5t-78 -115.5z" />
    <glyph glyph-name="three" unicode="3" horiz-adv-x="547" 
d="M42 112q-5 11 -7.5 20t-5 18.5t-4 20.5t-2.5 27h172q15 -61 76 -61q33 0 53.5 18t20.5 48q0 67 -90 67h-60v125h28q84 0 84 77q0 26 -12.5 42t-34.5 16q-49 0 -52 -57h-168q1 46 17.5 84.5t46.5 65.5t71.5 42t92.5 15q45 0 83 -14t66 -38t44 -57.5t16 -72.5
q0 -93 -88 -141q62 -20 94 -61t32 -100q0 -43 -19.5 -81t-53 -66.5t-78.5 -45t-96 -16.5q-40 0 -76 9t-65.5 25t-51 39t-33.5 52z" />
    <glyph glyph-name="four" unicode="4" horiz-adv-x="550" 
d="M314 251v209l-134 -209h134zM303 117h-293v125l298 425h159v-416h73v-134h-73v-117h-164v117z" />
    <glyph glyph-name="five" unicode="5" horiz-adv-x="550" 
d="M41 289l57 378h369v-144h-238l-15 -91q21 11 41 16t49 5q48 0 88.5 -17t70.5 -47t47 -71t17 -89q0 -52 -19.5 -96t-54 -76.5t-81.5 -51t-102 -18.5q-49 0 -91.5 13.5t-75.5 38.5t-55.5 60.5t-30.5 79.5h171q31 -42 79 -42q18 0 34.5 7t28.5 19t19.5 28t7.5 34
q0 38 -26 63t-66 25q-30 0 -52.5 -14.5t-34.5 -43.5z" />
    <glyph glyph-name="six" unicode="6" horiz-adv-x="550" 
d="M272 318q-39 0 -65 -25.5t-26 -63.5q0 -39 27 -65.5t66 -26.5q38 0 64.5 26t26.5 64q0 19 -7 35.5t-19.5 29t-29.5 19.5t-37 7zM438 667l-147 -203q15 2 23.5 3t18.5 1q43 0 80 -17.5t64.5 -47.5t43 -71.5t15.5 -89.5q0 -55 -19.5 -102t-54.5 -81t-82.5 -53t-103.5 -19
q-55 0 -103 20t-83.5 54.5t-56 81.5t-20.5 101q0 41 16.5 88.5t45.5 90.5l166 244h197z" />
    <glyph glyph-name="seven" unicode="7" horiz-adv-x="550" 
d="M61 667h435v-131l-235 -536h-187l246 523h-259v144z" />
    <glyph glyph-name="eight" unicode="8" horiz-adv-x="550" 
d="M275 289q-32 0 -52.5 -21.5t-20.5 -53.5q0 -34 21.5 -55.5t53.5 -21.5q29 0 50 22t21 54t-21 54t-52 22zM276 542q-26 0 -44.5 -17.5t-18.5 -43.5v-3q0 -25 17.5 -42t43.5 -17t44 18.5t18 44.5q0 25 -17.5 42.5t-42.5 17.5zM478 494q0 -39 -15.5 -69.5t-49.5 -57.5
q50 -21 77.5 -65t27.5 -101q0 -45 -19 -84t-52 -68t-77 -45.5t-94 -16.5t-94.5 17t-77.5 46t-52.5 68t-19.5 83q0 57 27.5 101t76.5 65q-35 28 -50 57t-15 68q0 40 15.5 74.5t42.5 60t64.5 39.5t81.5 14q43 0 80.5 -14t64.5 -39t42.5 -59t15.5 -74z" />
    <glyph glyph-name="nine" unicode="9" horiz-adv-x="550" 
d="M274 530q-17 0 -33 -6.5t-28 -18t-20 -26.5t-9 -32q0 -2 -0.5 -3t-0.5 -2q0 -38 27 -64.5t65 -26.5t64.5 26t26.5 64q0 18 -7 34.5t-19.5 28.5t-29.5 19t-36 7zM126 0l150 207q-15 -5 -23.5 -6t-21.5 -1q-47 0 -86.5 17.5t-68.5 48.5t-45.5 73.5t-16.5 92.5
q0 53 19.5 98.5t54.5 78.5t82 52t103 19q58 0 106.5 -19.5t83.5 -54t54.5 -82.5t19.5 -105q0 -47 -10.5 -81t-36.5 -74l-170 -264h-194z" />
    <glyph glyph-name="colon" unicode=":" horiz-adv-x="262" 
d="M209 500v-153h-156v153h156zM209 153v-153h-156v153h156z" />
    <glyph glyph-name="semicolon" unicode=";" horiz-adv-x="262" 
d="M209 500v-153h-156v153h156zM209 153v-189q0 -49 -25 -79t-67 -30h-64v80h31q17 0 28 9.5t11 24.5v31h-70v153h156z" />
    <glyph glyph-name="semicolon" unicode="&#x37e;" horiz-adv-x="262" 
d="M209 500v-153h-156v153h156zM209 153v-189q0 -49 -25 -79t-67 -30h-64v80h31q17 0 28 9.5t11 24.5v31h-70v153h156z" />
    <glyph glyph-name="less" unicode="&#x3c;" 
d="M467 607v-126l-300 -148l299 -148l1 -124l-434 220v106z" />
    <glyph glyph-name="equal" unicode="=" 
d="M33 309h434v-110h-434v110zM33 481h434v-110h-434v110z" />
    <glyph glyph-name="greater" unicode="&#x3e;" 
d="M33 61v125l300 148l-299 148l-1 125l434 -220v-107z" />
    <glyph glyph-name="question" unicode="?" horiz-adv-x="496" 
d="M295 153v-153h-156v153h156zM241 526q-33 0 -47 -19.5t-15 -67.5h-165q-1 6 -1 10v7q0 49 17.5 90t49 71t75 46.5t95.5 16.5q45 0 84.5 -15t69 -40.5t46 -60.5t16.5 -75q0 -24 -7 -48.5t-19 -44.5q-7 -11 -13 -19t-14 -17t-19.5 -20.5t-29.5 -27.5q-20 -18 -33 -31.5
t-20.5 -25t-11 -21.5t-4.5 -22h-156q0 21 4.5 38t15 35t28 38.5t45.5 47.5q34 32 47.5 54.5t13.5 44.5q0 56 -52 56z" />
    <glyph glyph-name="at" unicode="@" horiz-adv-x="733" 
d="M444 345q0 29 -18.5 47.5t-45.5 18.5q-18 0 -34 -8.5t-28 -22.5t-19 -33.5t-7 -40.5q0 -32 18.5 -52t47.5 -20q17 0 32.5 8.5t27.5 23t19 34t7 41.5v4zM473 492l87 -1l-37 -190q-4 -20 -5 -29t-1 -15q0 -32 23 -32q24 0 46 32q18 26 27.5 59t9.5 68q0 48 -17 87.5t-48 68
t-74 44.5t-95 16q-57 0 -106.5 -21t-86 -58t-57.5 -87t-21 -108q0 -42 11.5 -81t32.5 -71t50.5 -56t64.5 -36q49 -16 112 -16q95 0 182 31l20 -78q-43 -15 -95.5 -23t-108.5 -8q-155 0 -249 90q-50 47 -77.5 112.5t-27.5 137.5q0 73 27.5 137t74.5 111.5t111 74.5t138 27
q68 0 126 -22t100 -61.5t66 -93.5t24 -117q0 -45 -13.5 -87t-36 -74t-52.5 -51t-62 -19q-29 0 -50 15.5t-28 39.5q-20 -29 -53 -46t-71 -17q-30 0 -56 12t-44.5 33t-29.5 50t-11 62q0 40 14 76.5t38 64t56 43.5t67 16q32 0 58 -13t40 -36z" />
    <glyph glyph-name="A" unicode="A" horiz-adv-x="660" 
d="M262 232h139l-69 228zM447 97h-232l-35 -97h-183l267 667h135l265 -667h-185z" />
    <glyph glyph-name="B" unicode="B" horiz-adv-x="577" 
d="M220 150h80q85 0 85 63q0 31 -20 44.5t-65 13.5h-80v-121zM220 413h60q38 0 55 13t17 40t-16.5 39t-55.5 12h-60v-104zM57 0v667h205q42 0 72 -2t51.5 -6t37.5 -11.5t29 -17.5q29 -23 46 -60t17 -78q0 -44 -19.5 -78.5t-57.5 -56.5q110 -37 110 -155q0 -42 -16 -79.5
t-45 -64.5q-19 -18 -37.5 -29t-43.5 -17.5t-58 -9t-80 -2.5h-211z" />
    <glyph glyph-name="C" unicode="C" horiz-adv-x="736" 
d="M378 137q107 0 161 112h178q-14 -59 -45.5 -107t-76 -82.5t-99.5 -53.5t-116 -19q-74 0 -138 27t-111 74t-74.5 110.5t-27.5 136.5q0 72 27 135t74 109.5t110.5 73.5t137.5 27q94 0 170.5 -41.5t125.5 -119.5q11 -17 18 -29.5t11.5 -24t7.5 -24t6 -28.5h-178
q-20 54 -63.5 85.5t-98.5 31.5q-38 0 -70.5 -15t-56.5 -41t-37.5 -61.5t-13.5 -77.5t14 -78t38 -63t56.5 -42t70.5 -15z" />
    <glyph glyph-name="D" unicode="D" horiz-adv-x="662" 
d="M227 150h73q80 0 121.5 46.5t41.5 134.5q0 90 -42 138t-120 48h-74v-367zM57 0v667h224q38 0 67.5 -2.5t54 -8t46 -15t42.5 -22.5q47 -29 81 -77q61 -85 61 -206q0 -76 -22.5 -138t-63.5 -106t-99 -68t-129 -24h-262z" />
    <glyph glyph-name="E" unicode="E" horiz-adv-x="469" 
d="M57 0v667h370v-150h-207v-103h201v-150h-201v-114h207v-150h-370z" />
    <glyph glyph-name="F" unicode="F" horiz-adv-x="444" 
d="M57 0v667h364v-150h-201v-113h194v-150h-194v-254h-163z" />
    <glyph glyph-name="G" unicode="G" horiz-adv-x="767" 
d="M342 379h395q1 -12 1.5 -19t0.5 -15q0 -77 -27 -142.5t-75 -113.5t-113.5 -75t-141.5 -27q-74 0 -138.5 27t-112 74.5t-75 111t-27.5 136.5t27.5 135.5t75.5 109t113 73t141 26.5q57 0 110.5 -18t98 -49.5t77 -75t46.5 -94.5h-191q-23 42 -60.5 64.5t-85.5 22.5
q-39 0 -72.5 -14t-57.5 -39t-38 -59.5t-14 -74.5q0 -47 14 -85t39.5 -65t61 -42t79.5 -15q57 0 96 28.5t51 78.5h-198v136z" />
    <glyph glyph-name="H" unicode="H" horiz-adv-x="671" 
d="M57 0v667h170v-250h218v250h170v-667h-170v267h-218v-267h-170z" />
    <glyph glyph-name="I" unicode="I" horiz-adv-x="283" 
d="M57 0v667h170v-667h-170z" />
    <glyph glyph-name="J" unicode="J" horiz-adv-x="504" 
d="M284 667h170v-404q0 -39 -2 -68t-6.5 -50.5t-12.5 -38.5t-20 -32q-32 -41 -82 -64t-107 -23q-36 0 -69 9.5t-60.5 26.5t-48 40.5t-30.5 52.5q-5 13 -8 23.5t-5 21t-2.5 23t-0.5 30.5h181q2 -41 14 -59t38 -18q28 0 39.5 19t11.5 65v446z" />
    <glyph glyph-name="K" unicode="K" horiz-adv-x="603" 
d="M57 0v667h170v-301l190 301h179l-222 -333l236 -334h-200l-183 288v-288h-170z" />
    <glyph glyph-name="L" unicode="L" horiz-adv-x="437" 
d="M57 0v667h170v-517h197v-150h-367z" />
    <glyph glyph-name="M" unicode="M" horiz-adv-x="817" 
d="M57 0v667h219l132 -439l132 439h220v-667h-157l6 501l-144 -501h-113l-144 501l5 -501h-156z" />
    <glyph glyph-name="N" unicode="N" horiz-adv-x="676" 
d="M57 0v667h146l260 -420l-7 420h163v-667h-148l-258 405l7 -405h-163z" />
    <glyph glyph-name="O" unicode="O" horiz-adv-x="761" 
d="M381 530q-39 0 -72.5 -15t-57.5 -41t-38 -61.5t-14 -77.5t14 -78.5t38.5 -63t58.5 -41.5t73 -15q38 0 71 15t57 41t38 62t14 77q0 42 -14 78t-38.5 63t-57.5 42t-72 15zM379 -13q-74 0 -138 26.5t-111 73t-74 109.5t-27 136q0 74 27 137.5t74 110.5t111 73.5t138 26.5
q75 0 139.5 -27t112 -73.5t75 -110t27.5 -136.5t-27.5 -136t-75 -109.5t-112 -73.5t-139.5 -27z" />
    <glyph glyph-name="P" unicode="P" horiz-adv-x="578" 
d="M220 360h69q106 0 106 78q0 42 -26.5 60.5t-86.5 18.5h-62v-157zM57 0v667h218q40 0 71 -2.5t55 -8.5t43 -15.5t36 -23.5q38 -31 58 -77t20 -100q0 -51 -19 -97t-51 -76q-34 -32 -79 -45t-116 -13h-73v-209h-163z" />
    <glyph glyph-name="Q" unicode="Q" horiz-adv-x="765" 
d="M377 137q21 0 35 5t36 20q-25 32 -46 50t-50 31q-35 17 -75 17q-17 0 -29.5 -2.5t-30.5 -8.5q21 -51 65 -81.5t95 -30.5zM452 328q15 -11 26 -19.5t21.5 -18t20.5 -21.5t24 -28q13 33 18 53t5 46q0 41 -14 76t-39 60.5t-59.5 39.5t-75.5 14q-70 0 -118 -45t-61 -123
q30 13 50 17.5t45 4.5q77 0 157 -56zM753 122q3 0 6 0.5t8 0.5v-135q-16 -1 -23.5 -1.5t-18.5 -0.5q-51 0 -92 14t-64 39q-86 -52 -181 -52q-76 0 -141.5 26.5t-114 72.5t-76 109t-27.5 135q0 73 27 137t74.5 111.5t111 74.5t137.5 27q75 0 140.5 -27t114 -74t76 -111
t27.5 -138q0 -51 -13.5 -95t-43.5 -89q26 -24 73 -24z" />
    <glyph glyph-name="R" unicode="R" horiz-adv-x="586" 
d="M220 332h60q54 0 82.5 24.5t28.5 69.5t-28 68t-81 23h-62v-185zM57 0v667h211q42 0 73 -2.5t55 -8t42 -14.5t35 -23q38 -32 60 -80t22 -103q0 -83 -45 -139.5t-121 -69.5l181 -227h-195l-155 216v-216h-163z" />
    <glyph glyph-name="S" unicode="S" horiz-adv-x="516" 
d="M439 604q12 -15 20 -28t13 -28t7.5 -33t4.5 -42h-169q-5 34 -19.5 49t-41.5 15q-24 0 -41.5 -15t-17.5 -36q0 -40 57 -66l82 -37q84 -38 119.5 -82.5t35.5 -109.5q0 -97 -61.5 -150.5t-171.5 -53.5q-56 0 -100.5 14.5t-76 42t-48.5 66.5t-17 88v22h171q0 -42 18.5 -66
t50.5 -24q28 0 47 18.5t19 45.5q0 23 -16.5 40t-54.5 32q-30 13 -49.5 20.5t-27.5 11.5q-23 10 -43 21.5t-37 25.5q-31 25 -49 61.5t-18 76.5q0 42 18 78t49.5 62.5t74.5 41.5t92 15q54 0 102.5 -20.5t77.5 -55.5z" />
    <glyph glyph-name="T" unicode="T" horiz-adv-x="447" 
d="M139 0v517h-132v150h434v-150h-132v-517h-170z" />
    <glyph glyph-name="U" unicode="U" horiz-adv-x="612" 
d="M50 667h170v-404q0 -66 20.5 -96t66.5 -30q47 0 66 28t19 98v404h170v-404q0 -74 -15 -120.5t-51 -83.5q-71 -72 -189 -72q-59 0 -107 18t-83 53q-19 19 -32 38.5t-20.5 43.5t-11 53.5t-3.5 69.5v404z" />
    <glyph glyph-name="V" unicode="V" horiz-adv-x="602" 
d="M-10 667h176l135 -468l135 468h176l-224 -667h-175z" />
    <glyph glyph-name="W" unicode="W" horiz-adv-x="868" 
d="M7 667h173l89 -434l99 434h131l98 -436l91 436h173l-177 -667h-150l-101 431l-101 -431h-153z" />
    <glyph glyph-name="X" unicode="X" horiz-adv-x="644" 
d="M435 667h192l-204 -315l231 -352h-193l-144 236l-137 -236h-190l233 355l-206 312h193l114 -191z" />
    <glyph glyph-name="Y" unicode="Y" horiz-adv-x="547" 
d="M189 0v243l-199 424h185l99 -268l100 268h183l-198 -424v-243h-170z" />
    <glyph glyph-name="Z" unicode="Z" horiz-adv-x="457" 
d="M17 0v112l230 405h-230v150h420v-138l-213 -379h213v-150h-420z" />
    <glyph glyph-name="bracketleft" unicode="[" horiz-adv-x="372" 
d="M295 677q7 2 17 3v-147q-54 -2 -76.5 -29.5t-22.5 -90.5v-383q0 -63 22.5 -91t76.5 -30v-147l-15 3q-25 5 -43.5 9.5t-34 10t-29.5 13t-30 18.5q-42 31 -66 72q-18 32 -26 68.5t-8 90.5v349q0 84 23.5 137t76.5 93q16 12 28.5 19.5t27 13t33 9.5t46.5 9z" />
    <glyph glyph-name="backslash" unicode="\" 
d="M151 750l306 -833h-123l-307 833h124z" />
    <glyph glyph-name="bracketright" unicode="]" horiz-adv-x="372" 
d="M77 -235q-5 0 -17 -3v147q54 2 76.5 30t22.5 91v383q0 63 -22.5 90.5t-76.5 29.5v147l15 -2q25 -3 43.5 -7.5t34 -10.5t29.5 -14t30 -20q42 -31 66 -72q18 -32 26 -68t8 -90v-349q0 -84 -23.5 -137.5t-76.5 -93.5q-16 -12 -28.5 -19.5t-27 -13t-33 -9.5t-46.5 -9z" />
    <glyph glyph-name="asciicircum" unicode="^" 
d="M138 336h-132l161 334h166l161 -334h-132l-112 233z" />
    <glyph glyph-name="underscore" unicode="_" 
d="M0 -47h500v-114h-500v114z" />
    <glyph glyph-name="grave" unicode="`" 
d="M137 721l193 -104l-36 -74l-197 87z" />
    <glyph glyph-name="a" unicode="a" horiz-adv-x="627" 
d="M301 377q-26 0 -49 -9.5t-39.5 -27t-26 -40.5t-9.5 -50t9.5 -50t26.5 -40.5t40 -27t49 -9.5q27 0 50 9.5t39.5 26.5t26 40.5t9.5 51.5q0 27 -9.5 50t-26 40t-40 26.5t-50.5 9.5zM577 500v-500h-141v54q-36 -71 -155 -71q-57 0 -103.5 19.5t-80 54.5t-52 84t-18.5 109
q0 59 19 108.5t53 85t81 55t104 19.5t94 -17t58 -54v53h141z" />
    <glyph glyph-name="b" unicode="b" horiz-adv-x="618" 
d="M318 377q-27 0 -49.5 -9.5t-39 -27t-26 -40.5t-9.5 -50t9 -50.5t25.5 -40.5t39 -26.5t48.5 -9.5q27 0 49.5 9.5t39.5 27t26.5 40.5t9.5 50t-9.5 50t-26 40t-39 27t-48.5 10zM50 0v667h150v-207q54 57 144 57q54 0 99 -19.5t78 -55t51.5 -84t18.5 -105.5
q0 -59 -18.5 -108.5t-52.5 -85.5t-80.5 -56t-101.5 -20q-23 0 -41 3.5t-35 11.5t-34 22t-36 34v-54h-142z" />
    <glyph glyph-name="c" unicode="c" horiz-adv-x="574" 
d="M296 123q35 0 61 16t49 51h151q-11 -46 -35.5 -84t-59 -65.5t-77.5 -42.5t-90 -15q-56 0 -105 21t-85 57t-57 85t-21 105t20.5 104.5t56 84.5t83.5 56.5t104 20.5q49 0 93 -15t79 -43t59 -66.5t34 -85.5h-151q-14 33 -43 51.5t-66 18.5q-26 0 -48 -9.5t-37.5 -27
t-24.5 -41t-9 -51.5q0 -55 33.5 -90t85.5 -35z" />
    <glyph glyph-name="d" unicode="d" horiz-adv-x="623" 
d="M305 377q-28 0 -51.5 -9.5t-40.5 -26t-26.5 -40t-9.5 -50.5q0 -28 9.5 -51.5t26 -40.5t40 -26.5t50.5 -9.5q56 0 92 36t36 93q0 27 -9.5 49.5t-26.5 39.5t-40 26.5t-50 9.5zM573 667v-667h-142v53q-30 -37 -65.5 -53.5t-87.5 -16.5q-55 0 -101 20t-79.5 55.5t-52 84.5
t-18.5 108q0 57 19 106t52 84.5t78.5 55.5t98.5 20q47 0 82 -14.5t66 -44.5v209h150z" />
    <glyph glyph-name="e" unicode="e" horiz-adv-x="578" 
d="M401 303q-8 39 -38.5 63t-74.5 24t-73.5 -22.5t-38.5 -64.5h225zM374 149q1 2 3 3.5t4 3.5h152q-35 -81 -99 -127t-144 -46q-55 0 -103 20.5t-83.5 56.5t-56 84.5t-20.5 104.5t20.5 105t55.5 85t82.5 57t101.5 21q56 0 104.5 -21t84 -57.5t55.5 -86.5t20 -108
q0 -13 -1 -20.5t-3 -20.5h-375q5 -42 35 -67.5t75 -25.5q28 0 48 8t44 31z" />
    <glyph glyph-name="f" unicode="f" horiz-adv-x="294" 
d="M63 0v387h-55v113h55v26q0 38 12 68t35 48q27 21 59 29.5t85 8.5h23v-113h-18q-46 0 -46 -47v-20h64v-113h-64v-387h-150z" />
    <glyph glyph-name="g" unicode="g" horiz-adv-x="620" 
d="M299 377q-26 0 -48 -9.5t-38.5 -26.5t-26 -40t-9.5 -49q0 -56 34 -92.5t87 -36.5q54 0 88 35t34 90q0 57 -33.5 93t-87.5 36zM570 500v-440q0 -42 -1.5 -70t-6.5 -48t-13.5 -35.5t-22.5 -31.5q-42 -48 -103 -73t-136 -25q-51 0 -94.5 12.5t-76.5 35.5t-53.5 55.5
t-25.5 72.5h173q21 -49 88 -49q58 0 89.5 35.5t31.5 99.5v16q-8 -15 -23 -28.5t-35 -23t-43.5 -15t-47.5 -5.5q-51 0 -95.5 20.5t-77 56.5t-51.5 84t-19 103q0 58 19.5 107.5t53.5 85.5t80.5 56.5t101.5 20.5q95 0 146 -63v46h142z" />
    <glyph glyph-name="h" unicode="h" horiz-adv-x="560" 
d="M50 0v667h150v-212q37 62 131 62q41 0 76.5 -14t58.5 -40q14 -15 23 -31t14.5 -36.5t7.5 -48.5t2 -68v-279h-150v273q0 104 -80 104q-83 0 -83 -100v-277h-150z" />
    <glyph glyph-name="i" unicode="i" horiz-adv-x="250" 
d="M185 656v-92h-120v92h120zM200 500v-500h-150v500h150z" />
    <glyph glyph-name="j" unicode="j" horiz-adv-x="250" 
d="M185 656v-92h-120v92h120zM200 500v-489q0 -58 -9 -92.5t-30 -56.5q-24 -25 -57 -35t-90 -10h-37v113h20q30 0 41.5 16.5t11.5 59.5v494h150z" />
    <glyph glyph-name="k" unicode="k" horiz-adv-x="511" 
d="M50 0v667h150v-348l141 181h177l-189 -219l184 -281h-170l-143 241v-241h-150z" />
    <glyph glyph-name="l" unicode="l" horiz-adv-x="250" 
d="M50 0v667h150v-667h-150z" />
    <glyph glyph-name="m" unicode="m" horiz-adv-x="864" 
d="M50 0v500h142v-53q45 70 137 70q96 0 145 -89q55 89 159 89q77 0 129 -50q17 -17 28 -32.5t17 -37t8 -51t2 -73.5v-273h-150v266q0 60 -17 85.5t-57 25.5q-82 0 -82 -104v-273h-150v273q0 104 -77 104q-84 0 -84 -104v-273h-150z" />
    <glyph glyph-name="n" unicode="n" horiz-adv-x="560" 
d="M50 0v500h142v-53q26 37 57.5 53.5t79.5 16.5q40 0 75 -13.5t59 -37.5q15 -14 24.5 -28.5t15 -32t8 -40t2.5 -52.5v-313h-150v273q0 54 -18.5 79t-59.5 25q-85 0 -85 -98v-279h-150z" />
    <glyph glyph-name="o" unicode="o" horiz-adv-x="595" 
d="M298 377q-26 0 -48 -10t-38 -27t-25.5 -40t-9.5 -49q0 -27 9 -50.5t25.5 -41t38.5 -27t48 -9.5q25 0 47 9.5t38 27t25 40.5t9 50t-9.5 50t-25.5 40t-37.5 27t-46.5 10zM298 -17q-59 0 -108.5 20t-85.5 55t-56.5 83.5t-20.5 105.5q0 58 20 107.5t56 85.5t85.5 56.5
t108.5 20.5q58 0 107.5 -20t85.5 -56t56.5 -85t20.5 -106t-20.5 -106t-56.5 -85t-85 -56t-107 -20z" />
    <glyph glyph-name="p" unicode="p" horiz-adv-x="623" 
d="M318 377q-26 0 -48.5 -10t-39.5 -27t-27 -39.5t-10 -48.5q0 -27 9.5 -50.5t26.5 -41t40 -27.5t50 -10q26 0 49 9.5t40 27t26.5 40.5t9.5 50t-9.5 50t-26.5 40.5t-40 27t-50 9.5zM50 -167v667h141v-55q29 38 66.5 55t91.5 17t99 -20t77.5 -56t50.5 -86t18 -109
q0 -56 -18.5 -104.5t-51.5 -83.5t-77.5 -55t-96.5 -20q-48 0 -84 15t-66 48v-213h-150z" />
    <glyph glyph-name="q" unicode="q" horiz-adv-x="623" 
d="M302 377q-27 0 -49.5 -9.5t-39.5 -27t-26.5 -41t-9.5 -50.5t10 -50t27 -40t40 -26.5t50 -9.5q26 0 48.5 10t39.5 27t27 40t10 49q0 27 -9.5 50.5t-27 41t-40.5 27t-50 9.5zM573 500v-667h-150v218q-32 -36 -67.5 -52t-86.5 -16q-52 0 -96.5 19.5t-76.5 54t-50.5 81.5
t-18.5 103q0 60 18.5 111t52.5 87.5t80 57t102 20.5q98 0 151 -72v55h142z" />
    <glyph glyph-name="r" unicode="r" horiz-adv-x="323" 
d="M50 0v500h142v-53q21 37 49 53.5t72 16.5h4v-150q-65 -2 -91.5 -22.5t-26.5 -68.5v-276h-149z" />
    <glyph glyph-name="s" unicode="s" horiz-adv-x="445" 
d="M223 517q79 0 128 -42t56 -115h-146q-4 37 -43 37q-21 0 -34 -9t-13 -23q0 -17 18 -30.5t59 -24.5q39 -11 63.5 -19t40.5 -16t26.5 -18.5t21.5 -25.5q23 -34 23 -78q0 -36 -16 -67.5t-44 -54t-66 -35.5t-82 -13q-42 0 -77 11.5t-61 33t-42 52t-20 69.5h149q6 -46 57 -46
q21 0 36.5 11t15.5 27q0 34 -58 50l-88 23q-23 6 -42.5 19.5t-33.5 31.5t-22 40.5t-8 46.5q0 34 15.5 64.5t43 52.5t64.5 35t79 13z" />
    <glyph glyph-name="t" unicode="t" horiz-adv-x="293" 
d="M213 667v-167h72v-113h-72v-387h-150v387h-73v113h73v167h150z" />
    <glyph glyph-name="u" unicode="u" horiz-adv-x="562" 
d="M512 500v-500h-142v53q-35 -70 -132 -70q-91 0 -146 63q-13 15 -21.5 30t-14 33t-7.5 40t-2 52v299h150v-279q0 -52 19 -75t61 -23q41 0 63 25.5t22 72.5v279h150z" />
    <glyph glyph-name="v" unicode="v" horiz-adv-x="483" 
d="M493 500l-180 -500h-143l-180 500h155l96 -312l97 312h155z" />
    <glyph glyph-name="w" unicode="w" horiz-adv-x="753" 
d="M0 500h154l76 -311l83 311h127l83 -311l76 311h154l-153 -500h-139l-85 323l-84 -323h-139z" />
    <glyph glyph-name="x" unicode="x" horiz-adv-x="545" 
d="M352 500h177l-168 -232l194 -268h-183l-100 155l-103 -155h-179l190 268l-168 232h179l81 -131z" />
    <glyph glyph-name="y" unicode="y" horiz-adv-x="496" 
d="M347 500h159l-251 -667h-158l79 192l-186 475h159l101 -290z" />
    <glyph glyph-name="z" unicode="z" horiz-adv-x="405" 
d="M193 113h196v-113h-372v103l210 284h-210v113h372v-114z" />
    <glyph glyph-name="braceleft" unicode="{" 
d="M302 366q0 -26 -2.5 -44t-9.5 -32t-18.5 -26t-29.5 -24q17 -11 28.5 -23t18.5 -26.5t10 -33t3 -43.5v-125v-13q0 -18 3 -29.5t12 -17.5t24.5 -8t40.5 -2h20v-112h-33l-32 -2h-10q-82 0 -116.5 33.5t-34.5 111.5v155q0 42 -12.5 61t-42.5 25v107q29 6 42 24t13 53v156
q0 78 34.5 111t116.5 33h10q2 -1 10 -1t22 -1h33v-112h-20q-25 0 -40.5 -2t-24.5 -8.5t-12 -17.5t-3 -29v-13v-125z" />
    <glyph glyph-name="bar" unicode="|" 
d="M187 750h126v-1000h-126v1000z" />
    <glyph glyph-name="braceright" unicode="}" 
d="M220 114q0 25 2.5 43.5t9.5 32.5t18.5 26t29.5 24q-17 11 -28.5 23t-18.5 26.5t-10 33t-3 43.5v125v13q0 18 -3 29.5t-12 17.5t-25 8t-41 2h-18v112h32l32 2h10q82 0 116.5 -33.5t34.5 -111.5v-155q0 -42 12.5 -61t42.5 -25v-107q-29 -6 -42 -24t-13 -53v-156
q0 -78 -34.5 -111t-117.5 -33h-9l-32 2h-32v112h20q25 0 40.5 2t24 8.5t11.5 17.5t3 29v13v125z" />
    <glyph glyph-name="asciitilde" unicode="~" horiz-adv-x="667" 
d="M233 623q-25 0 -39.5 -12.5t-33.5 -49.5l-70 46q3 5 4.5 9.5t3.5 7.5q15 34 29.5 57t31.5 37.5t36.5 20.5t45.5 6q18 0 42 -6.5t62 -20.5q23 -8 36.5 -13t22 -7.5t14.5 -3t14 -0.5q25 0 40 11t33 42l72 -42q-13 -27 -24 -45.5t-21.5 -32t-21.5 -22.5t-26 -16
q-32 -17 -66 -17q-15 0 -36 5.5t-65 22.5q-22 8 -35.5 12.5t-22 7t-14 3t-12.5 0.5z" />
    <glyph glyph-name="nonbreakingspace" unicode="&#xa0;" horiz-adv-x="333" 
 />
    <glyph glyph-name="exclamdown" unicode="&#xa1;" horiz-adv-x="295" 
d="M225 280v-447h-155v447h155zM225 500v-153h-155v153h155z" />
    <glyph glyph-name="cent" unicode="&#xa2;" horiz-adv-x="550" 
d="M331 649v-91q33 -9 62 -27t51 -42t36 -52.5t17 -58.5h-155q-20 36 -64 36q-32 0 -54.5 -22.5t-22.5 -54.5t22.5 -53.5t54.5 -21.5q34 0 61 31h158q-12 -65 -55.5 -111t-104.5 -59v-95h-124v95q-75 25 -117.5 81.5t-42.5 131.5q0 38 11.5 72.5t32.5 63t50.5 49.5t65.5 33
v95h118z" />
    <glyph glyph-name="sterling" unicode="&#xa3;" horiz-adv-x="550" 
d="M404 195q0 8 -1 14.5t-5 17.5h145q5 -17 7.5 -28.5t2.5 -28.5q0 -36 -15 -67.5t-41.5 -54t-62.5 -35.5t-78 -13h-320v133h44q44 0 63 11t19 37q0 24 -16 46l-22 29h-116v120h44q-15 29 -20 46t-5 39q0 45 19 85t51.5 69.5t76 47t93.5 17.5q64 0 117 -27.5t84 -78.5
q8 -13 13.5 -24.5t9 -24.5t6.5 -29t5 -38h-157q-7 72 -69 72q-34 0 -56.5 -23.5t-22.5 -58.5q0 -20 6.5 -36t23.5 -36h141v-120h-69q17 -20 23 -33t6 -29q0 -17 -7.5 -30.5t-27.5 -30.5h38q73 0 73 62z" />
    <glyph glyph-name="currency" unicode="&#xa4;" horiz-adv-x="667" 
d="M471 376q0 29 -10.5 54.5t-29.5 44t-44 29.5t-53 11q-29 0 -54 -11t-44 -29.5t-29.5 -44t-10.5 -54.5t11 -54t29.5 -43.5t43.5 -29.5t54 -11q28 0 53 11t44 29.5t29.5 43.5t10.5 54zM22 137l103 102q-45 64 -45 138q0 38 11 70t34 67l-104 104l69 69l104 -104
q35 23 68.5 33.5t71.5 10.5t70.5 -10t67.5 -33l102 102l68 -69l-101 -101q25 -40 35.5 -71t10.5 -69q0 -37 -10.5 -69t-33.5 -67l102 -103l-68 -69l-102 102q-67 -45 -142 -45q-37 0 -69.5 10.5t-70.5 34.5l-102 -102z" />
    <glyph glyph-name="yen" unicode="&#xa5;" horiz-adv-x="550" 
d="M194 167h-125v105h112l-38 89h-101v105h55l-86 201h169l96 -268l96 268h167l-90 -211h59v-105h-104l-34 -79h111v-105h-124v-167h-163v167z" />
    <glyph glyph-name="section" unicode="&#xa7;" horiz-adv-x="550" 
d="M181 331q-36 -17 -36 -49q0 -20 11 -32.5t37 -24.5l182 -84q33 22 33 55q0 18 -13.5 31.5t-47.5 28.5zM283 680q46 0 85 -13.5t67.5 -38.5t45.5 -59t19 -74h-147q-15 52 -79 52q-30 0 -46.5 -12t-16.5 -35q0 -17 11.5 -28.5t41.5 -25.5l164 -74q60 -27 86.5 -62t26.5 -88
q0 -39 -15.5 -71t-56.5 -66l-6 -5q25 -33 36 -63t11 -65q0 -43 -16.5 -79t-46.5 -62t-71.5 -40.5t-91.5 -14.5q-53 0 -98 15t-78 43t-52.5 67.5t-23.5 87.5h148q6 -38 32 -57.5t69 -19.5q36 0 59 16.5t23 42.5q0 21 -16.5 36t-62.5 36l-154 71q-39 18 -60 33.5t-35 36.5
q-26 38 -26 87q0 45 21 82t65 69q-15 23 -21.5 47t-6.5 53q0 40 15.5 72.5t44 56t68 36.5t88.5 13z" />
    <glyph glyph-name="dieresis" unicode="&#xa8;" 
d="M278 567v136h144v-136h-144zM78 567v136h144v-136h-144z" />
    <glyph glyph-name="copyright" unicode="&#xa9;" horiz-adv-x="747" 
d="M376 215q67 0 100 68h110q-9 -35 -28.5 -64t-47 -50t-61.5 -32.5t-71 -11.5q-46 0 -85.5 16t-69 44.5t-46 66.5t-16.5 82q0 43 16.5 81t46 66t68.5 44t84 16q38 0 73.5 -12.5t64 -34t47.5 -50.5t25 -63h-110q-13 32 -39.5 51t-60.5 19q-48 0 -79 -33t-31 -84
q0 -25 8.5 -47t23.5 -38t35 -25t43 -9zM373 46q59 0 111 22.5t90.5 61.5t61 91.5t22.5 111.5q0 60 -22.5 112.5t-61 91.5t-90.5 61.5t-111 22.5t-111 -22.5t-90.5 -61.5t-61 -91.5t-22.5 -112.5q0 -59 22.5 -111.5t61 -91.5t90.5 -61.5t111 -22.5zM373 680q72 0 135 -27
t110.5 -74.5t74.5 -110.5t27 -135t-27 -135t-74.5 -110t-110.5 -74t-135 -27t-135 27t-110 74t-74 110t-27 135t27 135t74 110.5t110 74.5t135 27z" />
    <glyph glyph-name="ordfeminine" unicode="&#xaa;" horiz-adv-x="367" 
d="M170 598q-27 0 -45 -18.5t-18 -46.5q0 -27 18.5 -45.5t45.5 -18.5q28 0 46 18t18 47q0 28 -18 46t-47 18zM312 330v-33h-282v33h282zM319 667v-267h-79v23q-13 -17 -32 -24.5t-48 -7.5q-61 0 -99 39.5t-38 103.5q0 31 10 57t28.5 45t44 29.5t55.5 10.5q56 0 79 -32v23h79
z" />
    <glyph glyph-name="guillemotleft" unicode="&#xab;" horiz-adv-x="368" 
d="M313 434v-133l-47 -41l47 -42v-132l-116 115v115zM149 434v-133l-46 -41l46 -42v-132l-116 115v115z" />
    <glyph glyph-name="logicalnot" unicode="&#xac;" 
d="M340 0v153h-307v114h434v-267h-127z" />
    <glyph glyph-name="registered" unicode="&#xae;" horiz-adv-x="513" 
d="M232 558h20q37 0 37 28t-37 28h-20v-56zM172 447v220h75q101 0 101 -77q0 -26 -15 -45.5t-38 -24.5l62 -73h-73l-50 67v-67h-62zM429 557q0 36 -13.5 67t-37 54.5t-54.5 37t-67 13.5t-67.5 -13.5t-55 -37t-37 -54.5t-13.5 -67t13.5 -67.5t37 -55t55 -37t67.5 -13.5
t67 13.5t54.5 37t37 55t13.5 67.5zM45 557q0 44 16.5 82.5t45.5 67.5t67.5 45.5t82.5 16.5t82.5 -16.5t67.5 -45.5t45.5 -67.5t16.5 -82.5t-16.5 -82.5t-45.5 -67.5t-67.5 -45.5t-82.5 -16.5t-82.5 16.5t-67.5 45.5t-45.5 67.5t-16.5 82.5z" />
    <glyph glyph-name="macron" unicode="&#xaf;" 
d="M410 680v-87h-320v87h320z" />
    <glyph glyph-name="macron" unicode="&#x2c9;" 
d="M410 680v-87h-320v87h320z" />
    <glyph glyph-name="degree" unicode="&#xb0;" 
d="M250 586q-32 0 -55 -22t-23 -54q0 -16 6 -30t16.5 -24.5t25 -16.5t30.5 -6t30.5 6t25 16.5t16.5 24.5t6 30q0 32 -23 54t-55 22zM250 358q-32 0 -60 12t-49 32.5t-33 48t-12 59.5q0 31 12 58.5t33 48t49 32.5t60 12t60 -12t49 -32.5t33 -48t12 -58.5q0 -32 -12 -59.5
t-33 -48t-49 -32.5t-60 -12z" />
    <glyph glyph-name="plusminus" unicode="&#xb1;" 
d="M33 168h434v-117h-434v117zM33 473h154v154h126v-154h154v-117h-154v-154h-126v154h-154v117z" />
    <glyph glyph-name="acute" unicode="&#xb4;" 
d="M363 719l41 -91l-198 -87l-35 74z" />
    <glyph glyph-name="mu" unicode="&#xb5;" 
d="M28 -173v653h126v-255q0 -135 99 -135q95 0 95 139v251h126v-480h-126v58q-18 -36 -41 -52t-57 -16q-32 0 -54.5 14.5t-41.5 46.5v-224h-126z" />
    <glyph glyph-name="mu" unicode="&#x3bc;" 
d="M28 -173v653h126v-255q0 -135 99 -135q95 0 95 139v251h126v-480h-126v58q-18 -36 -41 -52t-57 -16q-32 0 -54.5 14.5t-41.5 46.5v-224h-126z" />
    <glyph glyph-name="paragraph" unicode="&#xb6;" horiz-adv-x="662" 
d="M217 -92v413q-4 0 -6.5 -0.5t-4.5 -0.5q-40 0 -73 12.5t-56.5 35t-36.5 53.5t-13 69q0 177 230 177h332v-98h-73v-661h-107v661h-84v-661h-108z" />
    <glyph glyph-name="periodcentered" unicode="&#xb7;" horiz-adv-x="173" 
d="M173 426v-172h-173v172h173z" />
    <glyph glyph-name="periodcentered" unicode="&#x2219;" horiz-adv-x="173" 
d="M173 426v-172h-173v172h173z" />
    <glyph glyph-name="cedilla" unicode="&#xb8;" 
d="M281 0l-26 -52q13 3 20 3q29 0 50.5 -22t21.5 -52q0 -39 -27.5 -64.5t-69.5 -25.5q-82 0 -91 77h60q6 -14 12.5 -19.5t18.5 -5.5q15 0 25 9.5t10 24.5q0 14 -8.5 22.5t-22.5 8.5q-8 0 -13.5 -3t-13.5 -11l-44 32l37 78h61z" />
    <glyph glyph-name="ordmasculine" unicode="&#xba;" horiz-adv-x="367" 
d="M183 598q-26 0 -43.5 -18.5t-17.5 -45.5q0 -28 17.5 -46.5t44.5 -18.5q26 0 43.5 18.5t17.5 45.5t-18 46t-44 19zM322 330v-33h-277v33h277zM184 391q-32 0 -58.5 10.5t-46 29.5t-30.5 45t-11 56q0 31 11 57.5t30.5 45.5t46 29.5t57.5 10.5t58 -10.5t46 -29.5t30 -45
t11 -57q0 -30 -11 -56t-30 -45t-45.5 -30t-57.5 -11z" />
    <glyph glyph-name="guillemotright" unicode="&#xbb;" horiz-adv-x="353" 
d="M40 86v133l46 41l-46 42v132l116 -118v-116zM203 86v133l47 41l-47 42v132l116 -118v-116z" />
    <glyph glyph-name="questiondown" unicode="&#xbf;" horiz-adv-x="496" 
d="M201 347v153h155v-153h-155zM255 -26q33 0 46.5 19.5t15.5 67.5h165v-17q0 -49 -17.5 -90t-49 -71t-75 -46.5t-94.5 -16.5q-46 0 -85.5 15t-68.5 40.5t-45.5 60.5t-16.5 75q0 50 26 93q6 10 12 18.5t14.5 17.5t20 20t29.5 28q19 18 32 31.5t20.5 25t11 21.5t5.5 22h155
q0 -21 -4 -38t-14.5 -35t-28 -38.5t-45.5 -47.5q-34 -32 -47.5 -54.5t-13.5 -44.5q0 -56 52 -56z" />
    <glyph glyph-name="Agrave" unicode="&#xc0;" horiz-adv-x="660" 
d="M262 232h139l-69 228zM248 891l193 -104l-36 -74l-197 87zM447 97h-232l-35 -97h-183l267 667h135l265 -667h-185z" />
    <glyph glyph-name="Aacute" unicode="&#xc1;" horiz-adv-x="660" 
d="M262 232h139l-69 228zM406 894l41 -91l-198 -87l-35 74zM447 97h-232l-35 -97h-183l267 667h135l265 -667h-185z" />
    <glyph glyph-name="Acircumflex" unicode="&#xc2;" horiz-adv-x="660" 
d="M262 232h139l-69 228zM330 758l-35 -51h-127l104 120h119l102 -120h-126zM447 97h-232l-35 -97h-183l267 667h135l265 -667h-185z" />
    <glyph glyph-name="Atilde" unicode="&#xc3;" horiz-adv-x="660" 
d="M262 232h139l-69 228zM380 812q16 0 30 3.5t34 13.5l51 -70q-23 -16 -49 -24.5t-49 -8.5q-17 0 -39 5l-26 5q-16 4 -29.5 6t-22.5 2q-13 0 -25 -3.5t-34 -14.5l-56 71q47 32 96 32q11 0 23 -1.5t36 -6.5q24 -6 36 -7.5t24 -1.5zM447 97h-232l-35 -97h-183l267 667h135
l265 -667h-185z" />
    <glyph glyph-name="Adieresis" unicode="&#xc4;" horiz-adv-x="660" 
d="M262 232h139l-69 228zM360 733v150h157v-150h-157zM143 733v150h157v-150h-157zM447 97h-232l-35 -97h-183l267 667h135l265 -667h-185z" />
    <glyph glyph-name="Aring" unicode="&#xc5;" horiz-adv-x="660" 
d="M372 828q0 18 -12.5 30.5t-29.5 12.5t-29.5 -12.5t-11.5 -30.5q0 -18 12 -30.5t29 -12.5t29.5 12.5t12.5 30.5zM262 232h139l-69 228zM215 828q0 24 9 44.5t24.5 36t36.5 24.5t45 9t45 -9t37 -24.5t25 -36t9 -44.5t-9.5 -44.5t-25 -36.5t-36.5 -25t-45 -9t-45 9t-36.5 25
t-24.5 36.5t-9 44.5zM447 97h-232l-35 -97h-183l267 667h135l265 -667h-185z" />
    <glyph glyph-name="AE" unicode="&#xc6;" horiz-adv-x="858" 
d="M446 243v182l-125 -182h125zM446 111h-194l-72 -111h-207l464 667h380v-150h-208v-103h201v-150h-201v-114h208v-150h-371v111z" />
    <glyph glyph-name="Ccedilla" unicode="&#xc7;" horiz-adv-x="736" 
d="M401 -13l-18 -34q7 2 10.5 2h8.5q34 0 56 -22t22 -56q0 -46 -31 -76t-79 -30q-45 0 -70.5 23.5t-30.5 67.5h70q7 -14 14 -19.5t22 -5.5q14 0 23.5 9.5t9.5 23.5t-10 23.5t-24 9.5q-9 0 -15 -3t-14 -11l-51 31l36 70h-3q-64 9 -118.5 39.5t-94.5 76.5t-62.5 105t-22.5 124
q0 72 27 135t74 109.5t110.5 73.5t137.5 27q94 0 170.5 -41.5t125.5 -119.5q11 -17 18 -29.5t11.5 -24t7.5 -24t6 -28.5h-178q-20 54 -63.5 85.5t-98.5 31.5q-38 0 -70.5 -15t-56.5 -41t-37.5 -61.5t-13.5 -77.5t14 -78t38 -63t56.5 -42t70.5 -15q107 0 161 112h178
q-14 -56 -43 -103.5t-70 -83t-92 -55.5t-108 -20h-3z" />
    <glyph glyph-name="Egrave" unicode="&#xc8;" horiz-adv-x="469" 
d="M166 893l192 -104l-35 -74l-197 87zM57 0v667h370v-150h-207v-103h201v-150h-201v-114h207v-150h-370z" />
    <glyph glyph-name="Eacute" unicode="&#xc9;" horiz-adv-x="469" 
d="M318 880l40 -91l-197 -87l-35 74zM57 0v667h370v-150h-207v-103h201v-150h-201v-114h207v-150h-370z" />
    <glyph glyph-name="Ecircumflex" unicode="&#xca;" horiz-adv-x="469" 
d="M242 741l-33 -46h-113l106 120h83l103 -120h-112zM57 0v667h370v-150h-207v-103h201v-150h-201v-114h207v-150h-370z" />
    <glyph glyph-name="Edieresis" unicode="&#xcb;" horiz-adv-x="469" 
d="M272 733v150h157v-150h-157zM55 733v150h157v-150h-157zM57 0v667h370v-150h-207v-103h201v-150h-201v-114h207v-150h-370z" />
    <glyph glyph-name="Igrave" unicode="&#xcc;" horiz-adv-x="283" 
d="M66 883l192 -104l-35 -74l-198 87zM57 0v667h170v-667h-170z" />
    <glyph glyph-name="Iacute" unicode="&#xcd;" horiz-adv-x="283" 
d="M217 884l41 -91l-197 -87l-36 74zM57 0v667h170v-667h-170z" />
    <glyph glyph-name="Icircumflex" unicode="&#xce;" horiz-adv-x="283" 
d="M89 883h108l93 -150h-108l-40 77l-39 -77h-110zM57 0v667h170v-667h-170z" />
    <glyph glyph-name="Idieresis" unicode="&#xcf;" horiz-adv-x="283" 
d="M167 733v150h111v-150h-111zM5 733v150h111v-150h-111zM57 0v667h170v-667h-170z" />
    <glyph glyph-name="Ntilde" unicode="&#xd1;" horiz-adv-x="676" 
d="M400 853q21 0 38 4.5t42 16.5l64 -88q-29 -19 -61 -30t-61 -11q-22 0 -49 6l-32 7q-20 5 -37 7.5t-28 2.5q-17 0 -32 -4.5t-42 -18.5l-70 89q59 40 119 40q15 0 30 -2t45 -8q30 -7 45 -9t29 -2zM57 0v667h146l260 -420l-7 420h163v-667h-148l-258 405l7 -405h-163z" />
    <glyph glyph-name="Ograve" unicode="&#xd2;" horiz-adv-x="761" 
d="M381 530q-39 0 -72.5 -15t-57.5 -41t-38 -61.5t-14 -77.5t14 -78.5t38.5 -63t58.5 -41.5t73 -15q38 0 71 15t57 41t38 62t14 77q0 42 -14 78t-38.5 63t-57.5 42t-72 15zM325 881l192 -104l-35 -74l-198 87zM379 -13q-74 0 -138 26.5t-111 73t-74 109.5t-27 136
q0 74 27 137.5t74 110.5t111 73.5t138 26.5q75 0 139.5 -27t112 -73.5t75 -110t27.5 -136.5t-27.5 -136t-75 -109.5t-112 -73.5t-139.5 -27z" />
    <glyph glyph-name="Oacute" unicode="&#xd3;" horiz-adv-x="761" 
d="M381 530q-39 0 -72.5 -15t-57.5 -41t-38 -61.5t-14 -77.5t14 -78.5t38.5 -63t58.5 -41.5t73 -15q38 0 71 15t57 41t38 62t14 77q0 42 -14 78t-38.5 63t-57.5 42t-72 15zM456 890l41 -91l-197 -87l-36 74zM379 -13q-74 0 -138 26.5t-111 73t-74 109.5t-27 136
q0 74 27 137.5t74 110.5t111 73.5t138 26.5q75 0 139.5 -27t112 -73.5t75 -110t27.5 -136.5t-27.5 -136t-75 -109.5t-112 -73.5t-139.5 -27z" />
    <glyph glyph-name="Ocircumflex" unicode="&#xd4;" horiz-adv-x="761" 
d="M381 530q-39 0 -72.5 -15t-57.5 -41t-38 -61.5t-14 -77.5t14 -78.5t38.5 -63t58.5 -41.5t73 -15q38 0 71 15t57 41t38 62t14 77q0 42 -14 78t-38.5 63t-57.5 42t-72 15zM381 762l-36 -51h-127l105 120h119l101 -120h-126zM379 -13q-74 0 -138 26.5t-111 73t-74 109.5
t-27 136q0 74 27 137.5t74 110.5t111 73.5t138 26.5q75 0 139.5 -27t112 -73.5t75 -110t27.5 -136.5t-27.5 -136t-75 -109.5t-112 -73.5t-139.5 -27z" />
    <glyph glyph-name="Otilde" unicode="&#xd5;" horiz-adv-x="761" 
d="M381 530q-39 0 -72.5 -15t-57.5 -41t-38 -61.5t-14 -77.5t14 -78.5t38.5 -63t58.5 -41.5t73 -15q38 0 71 15t57 41t38 62t14 77q0 42 -14 78t-38.5 63t-57.5 42t-72 15zM430 812q17 0 30.5 3.5t33.5 13.5l51 -70q-23 -16 -49 -24.5t-49 -8.5q-17 0 -38 5l-26 5
q-16 4 -30 6t-23 2q-13 0 -24.5 -3.5t-34.5 -14.5l-55 71q47 32 95 32q11 0 23.5 -1.5t35.5 -6.5q24 -6 36 -7.5t24 -1.5zM379 -13q-74 0 -138 26.5t-111 73t-74 109.5t-27 136q0 74 27 137.5t74 110.5t111 73.5t138 26.5q75 0 139.5 -27t112 -73.5t75 -110t27.5 -136.5
t-27.5 -136t-75 -109.5t-112 -73.5t-139.5 -27z" />
    <glyph glyph-name="Odieresis" unicode="&#xd6;" horiz-adv-x="761" 
d="M381 530q-39 0 -72.5 -15t-57.5 -41t-38 -61.5t-14 -77.5t14 -78.5t38.5 -63t58.5 -41.5t73 -15q38 0 71 15t57 41t38 62t14 77q0 42 -14 78t-38.5 63t-57.5 42t-72 15zM411 733v150h156v-150h-156zM194 733v150h157v-150h-157zM379 -13q-74 0 -138 26.5t-111 73
t-74 109.5t-27 136q0 74 27 137.5t74 110.5t111 73.5t138 26.5q75 0 139.5 -27t112 -73.5t75 -110t27.5 -136.5t-27.5 -136t-75 -109.5t-112 -73.5t-139.5 -27z" />
    <glyph glyph-name="multiply" unicode="&#xd7;" horiz-adv-x="549" 
d="M275 193l-174 -174l-44 44l174 173l-174 173l44 44l174 -173l173 172l44 -43l-174 -173l174 -173l-44 -44z" />
    <glyph glyph-name="Oslash" unicode="&#xd8;" horiz-adv-x="761" 
d="M563 332q0 53 -26 103l-214 -289q17 -6 28 -7.5t31 -1.5q38 0 71 15t57.5 41t38.5 62t14 77zM199 336q0 -26 6.5 -53.5t17.5 -49.5l214 288q-17 6 -27.5 7.5t-28.5 1.5q-39 0 -72 -15t-57.5 -41t-38.5 -61.5t-14 -76.5zM121 96l-2 3q-90 97 -90 234q0 74 27 137.5t74 110
t111.5 73t139.5 26.5q25 0 44 -1t35.5 -4.5t33 -10t37.5 -16.5l59 78l106 -76l-58 -78l2 -3q93 -101 93 -236q0 -73 -27.5 -136.5t-75 -110t-112 -73t-139.5 -26.5q-24 0 -42 1.5t-34.5 4.5t-33.5 9t-38 15l-3 2l-56 -76l-106 78z" />
    <glyph glyph-name="Ugrave" unicode="&#xd9;" horiz-adv-x="612" 
d="M230 889l192 -104l-35 -74l-197 87zM50 667h170v-404q0 -66 20.5 -96t66.5 -30q47 0 66 28t19 98v404h170v-404q0 -74 -15 -120.5t-51 -83.5q-71 -72 -189 -72q-59 0 -107 18t-83 53q-19 19 -32 38.5t-20.5 43.5t-11 53.5t-3.5 69.5v404z" />
    <glyph glyph-name="Uacute" unicode="&#xda;" horiz-adv-x="612" 
d="M382 902l40 -91l-197 -87l-35 74zM50 667h170v-404q0 -66 20.5 -96t66.5 -30q47 0 66 28t19 98v404h170v-404q0 -74 -15 -120.5t-51 -83.5q-71 -72 -189 -72q-59 0 -107 18t-83 53q-19 19 -32 38.5t-20.5 43.5t-11 53.5t-3.5 69.5v404z" />
    <glyph glyph-name="Ucircumflex" unicode="&#xdb;" horiz-adv-x="612" 
d="M306 797l-44 -64h-160l132 150h148l128 -150h-158zM50 667h170v-404q0 -66 20.5 -96t66.5 -30q47 0 66 28t19 98v404h170v-404q0 -74 -15 -120.5t-51 -83.5q-71 -72 -189 -72q-59 0 -107 18t-83 53q-19 19 -32 38.5t-20.5 43.5t-11 53.5t-3.5 69.5v404z" />
    <glyph glyph-name="Udieresis" unicode="&#xdc;" horiz-adv-x="612" 
d="M336 733v150h157v-150h-157zM119 733v150h157v-150h-157zM50 667h170v-404q0 -66 20.5 -96t66.5 -30q47 0 66 28t19 98v404h170v-404q0 -74 -15 -120.5t-51 -83.5q-71 -72 -189 -72q-59 0 -107 18t-83 53q-19 19 -32 38.5t-20.5 43.5t-11 53.5t-3.5 69.5v404z" />
    <glyph glyph-name="Yacute" unicode="&#xdd;" horiz-adv-x="547" 
d="M367 887l40 -91l-197 -87l-35 74zM189 0v243l-199 424h185l99 -268l100 268h183l-198 -424v-243h-170z" />
    <glyph glyph-name="germandbls" unicode="&#xdf;" horiz-adv-x="617" 
d="M197 188h83q19 -65 78 -65q35 0 58.5 23.5t23.5 58.5q0 38 -27 61t-74 23h-81v112h30q35 0 55.5 19t20.5 51t-22 52.5t-56 20.5q-44 0 -66.5 -30t-22.5 -87v-239zM197 0h-150v385q0 43 2.5 74t9 55t17.5 43.5t28 38.5q37 42 89.5 65t108.5 23q44 0 82.5 -15t67.5 -40.5
t45.5 -59.5t16.5 -73t-15 -66.5t-49 -50.5q31 -7 56.5 -23.5t44 -39.5t29 -51.5t10.5 -59.5q0 -46 -18.5 -86.5t-50 -70.5t-74 -47.5t-90.5 -17.5q-25 0 -46 4t-39.5 12.5t-36.5 23t-38 35.5v-58z" />
    <glyph glyph-name="agrave" unicode="&#xe0;" horiz-adv-x="627" 
d="M301 377q-26 0 -49 -9.5t-39.5 -27t-26 -40.5t-9.5 -50t9.5 -50t26.5 -40.5t40 -27t49 -9.5q27 0 50 9.5t39.5 26.5t26 40.5t9.5 51.5q0 27 -9.5 50t-26 40t-40 26.5t-50.5 9.5zM268 730l156 -119l-40 -59l-164 105zM577 500v-500h-141v54q-36 -71 -155 -71
q-57 0 -103.5 19.5t-80 54.5t-52 84t-18.5 109q0 59 19 108.5t53 85t81 55t104 19.5t94 -17t58 -54v53h141z" />
    <glyph glyph-name="aacute" unicode="&#xe1;" horiz-adv-x="627" 
d="M301 377q-26 0 -49 -9.5t-39.5 -27t-26 -40.5t-9.5 -50t9.5 -50t26.5 -40.5t40 -27t49 -9.5q27 0 50 9.5t39.5 26.5t26 40.5t9.5 51.5q0 27 -9.5 50t-26 40t-40 26.5t-50.5 9.5zM379 734l48 -73l-163 -105l-41 59zM577 500v-500h-141v54q-36 -71 -155 -71
q-57 0 -103.5 19.5t-80 54.5t-52 84t-18.5 109q0 59 19 108.5t53 85t81 55t104 19.5t94 -17t58 -54v53h141z" />
    <glyph glyph-name="acircumflex" unicode="&#xe2;" horiz-adv-x="627" 
d="M301 377q-26 0 -49 -9.5t-39.5 -27t-26 -40.5t-9.5 -50t9.5 -50t26.5 -40.5t40 -27t49 -9.5q27 0 50 9.5t39.5 26.5t26 40.5t9.5 51.5q0 27 -9.5 50t-26 40t-40 26.5t-50.5 9.5zM315 601l-33 -46h-114l106 119h83l104 -119h-113zM577 500v-500h-141v54q-36 -71 -155 -71
q-57 0 -103.5 19.5t-80 54.5t-52 84t-18.5 109q0 59 19 108.5t53 85t81 55t104 19.5t94 -17t58 -54v53h141z" />
    <glyph glyph-name="atilde" unicode="&#xe3;" horiz-adv-x="627" 
d="M301 377q-26 0 -49 -9.5t-39.5 -27t-26 -40.5t-9.5 -50t9.5 -50t26.5 -40.5t40 -27t49 -9.5q27 0 50 9.5t39.5 26.5t26 40.5t9.5 51.5q0 27 -9.5 50t-26 40t-40 26.5t-50.5 9.5zM370 643q17 0 28 3t31 11l46 -60q-44 -31 -89 -31q-9 0 -18 1.5t-18 2.5l-23 5q-32 6 -48 6
q-12 0 -24 -3.5t-32 -12.5l-47 64q26 15 46 21.5t38 6.5q11 0 23 -1.5t32 -5.5q12 -2 19 -3.5t13 -2t11 -1t12 -0.5zM577 500v-500h-141v54q-36 -71 -155 -71q-57 0 -103.5 19.5t-80 54.5t-52 84t-18.5 109q0 59 19 108.5t53 85t81 55t104 19.5t94 -17t58 -54v53h141z" />
    <glyph glyph-name="adieresis" unicode="&#xe4;" horiz-adv-x="627" 
d="M301 377q-26 0 -49 -9.5t-39.5 -27t-26 -40.5t-9.5 -50t9.5 -50t26.5 -40.5t40 -27t49 -9.5q27 0 50 9.5t39.5 26.5t26 40.5t9.5 51.5q0 27 -9.5 50t-26 40t-40 26.5t-50.5 9.5zM351 567v136h143v-136h-143zM151 567v136h143v-136h-143zM577 500v-500h-141v54
q-36 -71 -155 -71q-57 0 -103.5 19.5t-80 54.5t-52 84t-18.5 109q0 59 19 108.5t53 85t81 55t104 19.5t94 -17t58 -54v53h141z" />
    <glyph glyph-name="aring" unicode="&#xe5;" horiz-adv-x="627" 
d="M355 662q0 18 -12.5 31t-30.5 13q-17 0 -30 -13t-13 -31q0 -19 13 -32t30 -13q18 0 30.5 13t12.5 32zM301 377q-26 0 -49 -9.5t-39.5 -27t-26 -40.5t-9.5 -50t9.5 -50t26.5 -40.5t40 -27t49 -9.5q27 0 50 9.5t39.5 26.5t26 40.5t9.5 51.5q0 27 -9.5 50t-26 40t-40 26.5
t-50.5 9.5zM200 662q0 23 9 43t24 35t35.5 24t43.5 9q24 0 44.5 -9t35.5 -24t24 -35t9 -43t-9 -43.5t-24.5 -35.5t-36 -24t-43.5 -9t-43.5 9t-35.5 24t-24 35.5t-9 43.5zM577 500v-500h-141v54q-36 -71 -155 -71q-57 0 -103.5 19.5t-80 54.5t-52 84t-18.5 109q0 59 19 108.5
t53 85t81 55t104 19.5t94 -17t58 -54v53h141z" />
    <glyph glyph-name="ae" unicode="&#xe6;" horiz-adv-x="979" 
d="M299 377q-26 0 -48 -10t-38.5 -27t-26 -40t-9.5 -50t10 -50t27 -40.5t40 -27t50 -9.5q26 0 48.5 9.5t39 26.5t26 40.5t9.5 50.5q0 57 -35.5 92t-92.5 35zM804 303q-24 87 -112 87q-45 0 -77 -24t-39 -63h228zM952 241q0 -14 -0.5 -20.5t-3.5 -17.5h-375q6 -43 37 -68
t77 -25q30 0 51 10.5t46 37.5h151q-17 -41 -35 -66.5t-45 -48.5q-71 -60 -157 -60q-48 0 -80 17t-55 54v-54h-136v54q-30 -71 -147 -71q-57 0 -103.5 19.5t-79.5 54.5t-51.5 84t-18.5 109q0 59 19 108t53 84.5t81 55t104 19.5q55 0 88 -16.5t55 -53.5v53h136v-53
q23 36 55.5 53t79.5 17q54 0 100 -21.5t80.5 -58.5t54 -87.5t19.5 -108.5z" />
    <glyph glyph-name="ccedilla" unicode="&#xe7;" horiz-adv-x="574" 
d="M557 190q-10 -44 -33 -80.5t-55 -63.5t-71.5 -43t-83.5 -19l-18 -36q13 3 20 3q29 0 50.5 -22t21.5 -52q0 -39 -27.5 -64.5t-69.5 -25.5q-80 0 -91 77h61q5 -14 11.5 -19.5t18.5 -5.5q16 0 25.5 9.5t9.5 24.5q0 14 -8.5 22.5t-22.5 8.5q-8 0 -13.5 -3t-13.5 -11l-44 32
l31 64q-50 7 -91.5 30.5t-72 59t-47.5 80.5t-17 95q0 56 20.5 104.5t56 84.5t83.5 56.5t104 20.5q49 0 93 -15t79 -43t59 -66.5t34 -85.5h-151q-14 33 -43 51.5t-66 18.5q-26 0 -48 -9.5t-37.5 -27t-24.5 -41t-9 -51.5q0 -55 33.5 -90t85.5 -35q35 0 61 16t49 51h151z" />
    <glyph glyph-name="egrave" unicode="&#xe8;" horiz-adv-x="578" 
d="M401 303q-8 39 -38.5 63t-74.5 24t-73.5 -22.5t-38.5 -64.5h225zM241 731l156 -119l-40 -59l-164 105zM374 149q1 2 3 3.5t4 3.5h152q-35 -81 -99 -127t-144 -46q-55 0 -103 20.5t-83.5 56.5t-56 84.5t-20.5 104.5t20.5 105t55.5 85t82.5 57t101.5 21q56 0 104.5 -21
t84 -57.5t55.5 -86.5t20 -108q0 -13 -1 -20.5t-3 -20.5h-375q5 -42 35 -67.5t75 -25.5q28 0 48 8t44 31z" />
    <glyph glyph-name="eacute" unicode="&#xe9;" horiz-adv-x="578" 
d="M401 303q-8 39 -38.5 63t-74.5 24t-73.5 -22.5t-38.5 -64.5h225zM336 722l48 -73l-163 -105l-41 59zM374 149q1 2 3 3.5t4 3.5h152q-35 -81 -99 -127t-144 -46q-55 0 -103 20.5t-83.5 56.5t-56 84.5t-20.5 104.5t20.5 105t55.5 85t82.5 57t101.5 21q56 0 104.5 -21
t84 -57.5t55.5 -86.5t20 -108q0 -13 -1 -20.5t-3 -20.5h-375q5 -42 35 -67.5t75 -25.5q28 0 48 8t44 31z" />
    <glyph glyph-name="ecircumflex" unicode="&#xea;" horiz-adv-x="578" 
d="M401 303q-8 39 -38.5 63t-74.5 24t-73.5 -22.5t-38.5 -64.5h225zM289 595l-33 -46h-113l106 119h83l103 -119h-112zM374 149q1 2 3 3.5t4 3.5h152q-35 -81 -99 -127t-144 -46q-55 0 -103 20.5t-83.5 56.5t-56 84.5t-20.5 104.5t20.5 105t55.5 85t82.5 57t101.5 21
q56 0 104.5 -21t84 -57.5t55.5 -86.5t20 -108q0 -13 -1 -20.5t-3 -20.5h-375q5 -42 35 -67.5t75 -25.5q28 0 48 8t44 31z" />
    <glyph glyph-name="edieresis" unicode="&#xeb;" horiz-adv-x="578" 
d="M401 303q-8 39 -38.5 63t-74.5 24t-73.5 -22.5t-38.5 -64.5h225zM321 567v136h144v-136h-144zM121 567v136h144v-136h-144zM374 149q1 2 3 3.5t4 3.5h152q-35 -81 -99 -127t-144 -46q-55 0 -103 20.5t-83.5 56.5t-56 84.5t-20.5 104.5t20.5 105t55.5 85t82.5 57t101.5 21
q56 0 104.5 -21t84 -57.5t55.5 -86.5t20 -108q0 -13 -1 -20.5t-3 -20.5h-375q5 -42 35 -67.5t75 -25.5q28 0 48 8t44 31z" />
    <glyph glyph-name="igrave" unicode="&#xec;" horiz-adv-x="250" 
d="M71 718l156 -119l-41 -59l-163 105zM200 500v-500h-150v500h150z" />
    <glyph glyph-name="iacute" unicode="&#xed;" horiz-adv-x="250" 
d="M179 720l48 -73l-163 -105l-41 59zM200 500v-500h-150v500h150z" />
    <glyph glyph-name="icircumflex" unicode="&#xee;" horiz-adv-x="250" 
d="M90 709h72l90 -149h-91l-36 71l-35 -71h-92zM200 500v-500h-150v500h150z" />
    <glyph glyph-name="idieresis" unicode="&#xef;" horiz-adv-x="250" 
d="M149 573v123h100v-123h-100zM1 573v123h100v-123h-100zM200 500v-500h-150v500h150z" />
    <glyph glyph-name="ntilde" unicode="&#xf1;" horiz-adv-x="560" 
d="M335 673q22 0 36 3.5t38 14.5l58 -76q-55 -38 -112 -38q-10 0 -21 1t-24 4l-28 6q-20 5 -34.5 6.5t-24.5 1.5q-17 0 -32 -4.5t-40 -15.5l-58 80q32 18 57 26.5t49 8.5q13 0 28 -2t40 -7q14 -3 23.5 -5t16.5 -2.5t13.5 -1t14.5 -0.5zM50 0v500h142v-53q26 37 57.5 53.5
t79.5 16.5q40 0 75 -13.5t59 -37.5q15 -14 24.5 -28.5t15 -32t8 -40t2.5 -52.5v-313h-150v273q0 54 -18.5 79t-59.5 25q-85 0 -85 -98v-279h-150z" />
    <glyph glyph-name="ograve" unicode="&#xf2;" horiz-adv-x="595" 
d="M298 377q-26 0 -48 -10t-38 -27t-25.5 -40t-9.5 -49q0 -27 9 -50.5t25.5 -41t38.5 -27t48 -9.5q25 0 47 9.5t38 27t25 40.5t9 50t-9.5 50t-25.5 40t-37.5 27t-46.5 10zM250 722l156 -119l-41 -59l-163 105zM298 -17q-59 0 -108.5 20t-85.5 55t-56.5 83.5t-20.5 105.5
q0 58 20 107.5t56 85.5t85.5 56.5t108.5 20.5q58 0 107.5 -20t85.5 -56t56.5 -85t20.5 -106t-20.5 -106t-56.5 -85t-85 -56t-107 -20z" />
    <glyph glyph-name="oacute" unicode="&#xf3;" horiz-adv-x="595" 
d="M298 377q-26 0 -48 -10t-38 -27t-25.5 -40t-9.5 -49q0 -27 9 -50.5t25.5 -41t38.5 -27t48 -9.5q25 0 47 9.5t38 27t25 40.5t9 50t-9.5 50t-25.5 40t-37.5 27t-46.5 10zM345 728l47 -73l-163 -105l-41 59zM298 -17q-59 0 -108.5 20t-85.5 55t-56.5 83.5t-20.5 105.5
q0 58 20 107.5t56 85.5t85.5 56.5t108.5 20.5q58 0 107.5 -20t85.5 -56t56.5 -85t20.5 -106t-20.5 -106t-56.5 -85t-85 -56t-107 -20z" />
    <glyph glyph-name="ocircumflex" unicode="&#xf4;" horiz-adv-x="595" 
d="M298 377q-26 0 -48 -10t-38 -27t-25.5 -40t-9.5 -49q0 -27 9 -50.5t25.5 -41t38.5 -27t48 -9.5q25 0 47 9.5t38 27t25 40.5t9 50t-9.5 50t-25.5 40t-37.5 27t-46.5 10zM298 595l-33 -46h-114l106 119h83l104 -119h-113zM298 -17q-59 0 -108.5 20t-85.5 55t-56.5 83.5
t-20.5 105.5q0 58 20 107.5t56 85.5t85.5 56.5t108.5 20.5q58 0 107.5 -20t85.5 -56t56.5 -85t20.5 -106t-20.5 -106t-56.5 -85t-85 -56t-107 -20z" />
    <glyph glyph-name="otilde" unicode="&#xf5;" horiz-adv-x="595" 
d="M298 377q-26 0 -48 -10t-38 -27t-25.5 -40t-9.5 -49q0 -27 9 -50.5t25.5 -41t38.5 -27t48 -9.5q25 0 47 9.5t38 27t25 40.5t9 50t-9.5 50t-25.5 40t-37.5 27t-46.5 10zM342 643q17 0 28 3t30 11l47 -60q-44 -31 -89 -31q-9 0 -18 1.5t-18 2.5l-23 5q-16 3 -28 4.5
t-20 1.5q-13 0 -25 -3.5t-31 -12.5l-47 64q26 15 45.5 21.5t38.5 6.5q11 0 23 -1.5t32 -5.5q12 -2 19 -3.5t13 -2t11 -1t12 -0.5zM298 -17q-59 0 -108.5 20t-85.5 55t-56.5 83.5t-20.5 105.5q0 58 20 107.5t56 85.5t85.5 56.5t108.5 20.5q58 0 107.5 -20t85.5 -56t56.5 -85
t20.5 -106t-20.5 -106t-56.5 -85t-85 -56t-107 -20z" />
    <glyph glyph-name="odieresis" unicode="&#xf6;" horiz-adv-x="595" 
d="M298 377q-26 0 -48 -10t-38 -27t-25.5 -40t-9.5 -49q0 -27 9 -50.5t25.5 -41t38.5 -27t48 -9.5q25 0 47 9.5t38 27t25 40.5t9 50t-9.5 50t-25.5 40t-37.5 27t-46.5 10zM326 567v136h143v-136h-143zM126 567v136h143v-136h-143zM298 -17q-59 0 -108.5 20t-85.5 55
t-56.5 83.5t-20.5 105.5q0 58 20 107.5t56 85.5t85.5 56.5t108.5 20.5q58 0 107.5 -20t85.5 -56t56.5 -85t20.5 -106t-20.5 -106t-56.5 -85t-85 -56t-107 -20z" />
    <glyph glyph-name="divide" unicode="&#xf7;" 
d="M33 398h434v-117h-434v117zM177 168q0 31 21 52t52 21q30 0 51.5 -21t21.5 -52q0 -29 -21.5 -50.5t-51.5 -21.5t-51.5 21.5t-21.5 50.5zM177 510q0 30 21 51.5t52 21.5q30 0 51.5 -21.5t21.5 -51.5t-21.5 -51.5t-51.5 -21.5t-51.5 21.5t-21.5 51.5z" />
    <glyph glyph-name="oslash" unicode="&#xf8;" horiz-adv-x="595" 
d="M417 251q0 15 -2 25t-8 27l-132 -177q8 -2 12 -2.5t10 -0.5q26 0 48 9.5t38 27t25 41t9 50.5zM177 250q0 -16 2 -26.5t10 -28.5l134 179q-8 2 -13 2.5t-12 0.5q-26 0 -48 -10t-38 -27t-25.5 -40t-9.5 -50zM299 517q17 0 30 -1t25 -3t24.5 -6.5t29.5 -10.5l55 74l96 -69
l-56 -75q33 -40 48.5 -83t15.5 -94q0 -57 -20.5 -105.5t-56.5 -84.5t-85 -56t-107 -20q-17 0 -30 1t-25 3t-24.5 6.5t-29.5 10.5l-58 -79l-95 72l55 74q-32 36 -48 81.5t-16 96.5q0 58 20.5 107t56.5 85t86 56t109 20z" />
    <glyph glyph-name="ugrave" unicode="&#xf9;" horiz-adv-x="562" 
d="M233 730l156 -119l-40 -59l-164 105zM512 500v-500h-142v53q-35 -70 -132 -70q-91 0 -146 63q-13 15 -21.5 30t-14 33t-7.5 40t-2 52v299h150v-279q0 -52 19 -75t61 -23q41 0 63 25.5t22 72.5v279h150z" />
    <glyph glyph-name="uacute" unicode="&#xfa;" horiz-adv-x="562" 
d="M338 728l48 -73l-163 -105l-41 59zM512 500v-500h-142v53q-35 -70 -132 -70q-91 0 -146 63q-13 15 -21.5 30t-14 33t-7.5 40t-2 52v299h150v-279q0 -52 19 -75t61 -23q41 0 63 25.5t22 72.5v279h150z" />
    <glyph glyph-name="ucircumflex" unicode="&#xfb;" horiz-adv-x="562" 
d="M281 618l-41 -58h-142l133 149h104l129 -149h-141zM512 500v-500h-142v53q-35 -70 -132 -70q-91 0 -146 63q-13 15 -21.5 30t-14 33t-7.5 40t-2 52v299h150v-279q0 -52 19 -75t61 -23q41 0 63 25.5t22 72.5v279h150z" />
    <glyph glyph-name="udieresis" unicode="&#xfc;" horiz-adv-x="562" 
d="M308 567v136h143v-136h-143zM108 567v136h143v-136h-143zM512 500v-500h-142v53q-35 -70 -132 -70q-91 0 -146 63q-13 15 -21.5 30t-14 33t-7.5 40t-2 52v299h150v-279q0 -52 19 -75t61 -23q41 0 63 25.5t22 72.5v279h150z" />
    <glyph glyph-name="yacute" unicode="&#xfd;" horiz-adv-x="496" 
d="M307 727l48 -73l-163 -105l-41 59zM347 500h159l-251 -667h-158l79 192l-186 475h159l101 -290z" />
    <glyph glyph-name="ydieresis" unicode="&#xff;" horiz-adv-x="496" 
d="M276 567v136h144v-136h-144zM76 567v136h144v-136h-144zM347 500h159l-251 -667h-158l79 192l-186 475h159l101 -290z" />
    <glyph glyph-name="Abreve" unicode="&#x102;" horiz-adv-x="660" 
d="M262 232h139l-69 228zM447 97h-232l-35 -97h-183l267 667h135l265 -667h-185zM330 692q-62 0 -96 28t-38 80h76q9 -19 22.5 -27t38.5 -8q40 0 55 35h76q-4 -52 -38 -80t-96 -28z" />
    <glyph glyph-name="abreve" unicode="&#x103;" horiz-adv-x="627" 
d="M320 544q-62 0 -96 28t-38 80h76q9 -19 22.5 -27t38.5 -8q40 0 55 35h76q-4 -52 -38 -80t-96 -28zM301 377q-26 0 -49 -9.5t-39.5 -27t-26 -40.5t-9.5 -50t9.5 -50t26.5 -40.5t40 -27t49 -9.5q27 0 50 9.5t39.5 26.5t26 40.5t9.5 51.5q0 27 -9.5 50t-26 40t-40 26.5
t-50.5 9.5zM577 500v-500h-141v54q-36 -71 -155 -71q-57 0 -103.5 19.5t-80 54.5t-52 84t-18.5 109q0 59 19 108.5t53 85t81 55t104 19.5t94 -17t58 -54v53h141z" />
    <glyph glyph-name="Dcroat" unicode="&#x110;" horiz-adv-x="662" 
d="M57 0v285h-56v125h56v257h224q38 0 67.5 -2.5t54 -8t46 -15t42.5 -22.5q47 -29 81 -77q61 -85 61 -206q0 -76 -22.5 -138t-63.5 -106t-99 -68t-129 -24h-262zM227 150h73q80 0 121.5 46.5t41.5 134.5q0 90 -42 138t-120 48h-74v-107h103v-125h-103v-135z" />
    <glyph glyph-name="dcroat" unicode="&#x111;" horiz-adv-x="623" 
d="M573 667v-41h50v-93h-50v-533h-142v53q-30 -37 -65.5 -53.5t-87.5 -16.5q-55 0 -101 20t-79.5 55.5t-52 84.5t-18.5 108q0 57 19 106t52 84.5t78.5 55.5t98.5 20q47 0 82 -14.5t66 -44.5v75h-86v93h86v41h150zM305 377q-28 0 -51.5 -9.5t-40.5 -26t-26.5 -40t-9.5 -50.5
q0 -28 9.5 -51.5t26 -40.5t40 -26.5t50.5 -9.5q56 0 92 36t36 93q0 27 -9.5 49.5t-26.5 39.5t-40 26.5t-50 9.5z" />
    <glyph glyph-name="Itilde" unicode="&#x128;" horiz-adv-x="283" 
d="M57 0v667h170v-667h-170zM194 831q15 0 25 2t29 10l44 -62q-42 -27 -86 -27q-18 0 -40 5l-23 5q-32 8 -50 8q-12 0 -24 -2.5t-31 -10.5l-44 64q48 26 81 26q11 0 24 -2t35 -8q23 -5 34.5 -6.5t25.5 -1.5z" />
    <glyph glyph-name="itilde" unicode="&#x129;" horiz-adv-x="250" 
d="M177 664q15 0 25 2t29 10l44 -62q-42 -27 -86 -27q-18 0 -40 5l-23 5q-32 8 -50 8q-12 0 -24 -2.5t-31 -10.5l-44 64q48 26 81 26q11 0 24 -2t35 -8q23 -5 34.5 -6.5t25.5 -1.5zM200 500v-500h-150v500h150z" />
    <glyph glyph-name="dotlessi" unicode="&#x131;" horiz-adv-x="250" 
d="M200 500v-500h-150v500h150z" />
    <glyph glyph-name="OE" unicode="&#x152;" horiz-adv-x="971" 
d="M379 530q-39 0 -72 -15t-57 -41t-37.5 -62.5t-13.5 -79.5q0 -41 13.5 -77t37.5 -62t56.5 -41t70.5 -15q39 0 72.5 15t57.5 41.5t37.5 63t13.5 79.5q0 42 -13.5 78t-37 61.5t-56.5 40t-72 14.5zM930 667v-150h-207v-103h200v-150h-200v-114h207v-150h-371v43
q-42 -29 -85.5 -42.5t-98.5 -13.5q-72 0 -135.5 27t-110 73.5t-73.5 109.5t-27 135q0 74 26.5 137.5t73.5 110.5t111 73.5t138 26.5q28 0 51.5 -3t45 -10t42 -17.5t42.5 -26.5v44h371z" />
    <glyph glyph-name="oe" unicode="&#x153;" horiz-adv-x="966" 
d="M298 377q-25 0 -47 -10t-38.5 -27t-26 -40t-9.5 -49q0 -27 9.5 -50t26 -40.5t39 -27.5t47.5 -10t46.5 10t38 27t26 40.5t9.5 49.5t-9.5 49t-26 40.5t-38.5 27.5t-47 10zM789 303q-9 40 -39.5 63.5t-73.5 23.5t-74 -24t-39 -63h226zM672 110q30 0 51.5 10t45.5 36h152
q-16 -40 -41.5 -72t-57.5 -54.5t-69.5 -34.5t-77.5 -12q-63 0 -107.5 21t-80.5 69q-15 -19 -23.5 -28t-21.5 -18q-29 -21 -68 -32.5t-81 -11.5q-58 0 -106.5 20t-84 55.5t-55.5 84t-20 106.5q0 59 20 108t55.5 84.5t85 55.5t108.5 20q128 0 191 -86q13 19 34 35t45.5 27
t52.5 17.5t56 6.5q55 0 103 -21t84 -58t56.5 -86.5t20.5 -106.5q0 -12 -1 -20t-4 -22h-375q5 -42 35 -67.5t78 -25.5z" />
    <glyph glyph-name="Utilde" unicode="&#x168;" horiz-adv-x="612" 
d="M50 667h170v-404q0 -66 20.5 -96t66.5 -30q47 0 66 28t19 98v404h170v-404q0 -74 -15 -120.5t-51 -83.5q-71 -72 -189 -72q-59 0 -107 18t-83 53q-19 19 -32 38.5t-20.5 43.5t-11 53.5t-3.5 69.5v404zM357 813q15 0 25 2t29 10l44 -62q-42 -27 -86 -27q-18 0 -40 5l-23 5
q-32 8 -50 8q-12 0 -24 -2.5t-31 -10.5l-44 64q48 26 81 26q11 0 24 -2t35 -8q23 -5 34.5 -6.5t25.5 -1.5z" />
    <glyph glyph-name="utilde" unicode="&#x169;" horiz-adv-x="562" 
d="M512 500v-500h-142v53q-35 -70 -132 -70q-91 0 -146 63q-13 15 -21.5 30t-14 33t-7.5 40t-2 52v299h150v-279q0 -52 19 -75t61 -23q41 0 63 25.5t22 72.5v279h150zM332 634q15 0 25 2t29 10l44 -62q-42 -27 -86 -27q-18 0 -40 5l-23 5q-32 8 -50 8q-12 0 -24 -2.5
t-31 -10.5l-44 64q48 26 81 26q11 0 24 -2t35 -8q23 -5 34.5 -6.5t25.5 -1.5z" />
    <glyph glyph-name="Ydieresis" unicode="&#x178;" horiz-adv-x="547" 
d="M304 733v150h156v-150h-156zM87 733v150h157v-150h-157zM189 0v243l-199 424h185l99 -268l100 268h183l-198 -424v-243h-170z" />
    <glyph glyph-name="florin" unicode="&#x192;" horiz-adv-x="550" 
d="M405 529h65l-20 -113h-65l-50 -282q-6 -32 -10.5 -54t-9 -38t-9.5 -28.5t-12 -25.5q-10 -17 -22 -32.5t-27 -28.5q-31 -27 -72 -41.5t-86 -14.5q-17 0 -28.5 1.5t-20.5 3.5l24 134q6 -1 8.5 -1h7.5q24 0 41 5t29 17.5t19.5 33t12.5 50.5l52 301h-65l19 113h66l5 29
q7 39 26 71.5t47 55.5t63.5 35.5t75.5 12.5h22t15 -2l-19 -120h-5q-63 0 -75 -70z" />
    <glyph glyph-name="Ohorn" unicode="&#x1a0;" horiz-adv-x="761" 
d="M379 -13q-74 0 -138 26.5t-111 73t-74 109.5t-27 136q0 74 27 137.5t74 110.5t111 73.5t138 26.5q75 0 139 -27q45 -19 82 -48q27 30 27 94v15h96v-15q0 -42 -17.5 -81t-49.5 -68q30 -36 49 -81q28 -63 28 -136t-27.5 -136t-75 -109.5t-112 -73.5t-139.5 -27zM381 530
q-39 0 -72.5 -15t-57.5 -41t-38 -61.5t-14 -77.5t14 -78.5t38.5 -63t58.5 -41.5t73 -15q38 0 71 15t57 41t38 62t14 77q0 42 -14 78t-38.5 63t-57.5 42t-72 15z" />
    <glyph glyph-name="ohorn" unicode="&#x1a1;" horiz-adv-x="595" 
d="M298 -17q-59 0 -108.5 20t-85.5 55t-56.5 83.5t-20.5 105.5q0 58 20 107.5t56 85.5t85.5 56.5t108.5 20.5q58 0 107 -20q37 -15 66 -39q20 24 20 72v12h77v-12q0 -32 -14 -63.5t-39 -54.5q19 -25 32 -56q21 -49 21 -106t-20.5 -106t-56.5 -85t-85 -56t-107 -20zM298 377
q-26 0 -48 -10t-38 -27t-25.5 -40t-9.5 -49q0 -27 9 -50.5t25.5 -41t38.5 -27t48 -9.5q25 0 47 9.5t38 27t25 40.5t9 50t-9.5 50t-25.5 40t-37.5 27t-46.5 10z" />
    <glyph glyph-name="Uhorn" unicode="&#x1af;" horiz-adv-x="612" 
d="M50 667h170v-404q0 -66 20.5 -96t66.5 -30q47 0 66 28t19 98v404h170v-62q20 15 28.5 41t8.5 62v15h96v-15q0 -30 -9.5 -59.5t-27 -54.5t-42 -44.5t-54.5 -31.5v-255q0 -74 -15 -120.5t-51 -83.5q-71 -72 -189 -72q-59 0 -107 18t-83 53q-19 19 -32 38.5t-20.5 43.5
t-11 53.5t-3.5 69.5v404z" />
    <glyph glyph-name="uhorn" unicode="&#x1b0;" horiz-adv-x="562" 
d="M512 500v-53q17 12 23.5 32.5t6.5 49.5v12h77v-12q0 -48 -29.5 -90.5t-77.5 -61.5v-377h-142v53q-35 -70 -132 -70q-91 0 -146 63q-13 15 -21.5 30t-14 33t-7.5 40t-2 52v299h150v-279q0 -52 19 -75t61 -23q41 0 63 25.5t22 72.5v279h150z" />
    <glyph glyph-name="circumflex" unicode="&#x2c6;" 
d="M250 621l-33 -46h-113l106 119h83l103 -119h-112z" />
    <glyph glyph-name="caron" unicode="&#x2c7;" 
d="M250 652l41 57h142l-133 -149h-104l-129 149h141z" />
    <glyph glyph-name="breve" unicode="&#x2d8;" 
d="M250 583q-62 0 -96 28t-38 80h76q9 -19 22.5 -27t38.5 -8q40 0 55 35h76q-4 -52 -38 -80t-96 -28z" />
    <glyph glyph-name="dotaccent" unicode="&#x2d9;" 
d="M178 567v136h144v-136h-144z" />
    <glyph glyph-name="ring" unicode="&#x2da;" 
d="M293 662q0 18 -13 31t-30 13q-18 0 -30.5 -13t-12.5 -31q0 -19 12.5 -32t30.5 -13q17 0 30 13t13 32zM137 662q0 23 9 43t24.5 35t36 24t43.5 9t43.5 -9t36 -24t24.5 -35t9 -43t-9 -43.5t-24.5 -35.5t-36 -24t-43.5 -9t-43.5 9t-36 24t-24.5 35.5t-9 43.5z" />
    <glyph glyph-name="ogonek" unicode="&#x2db;" 
d="M334 0q-55 -29 -55 -64q0 -18 13.5 -31t32.5 -13q10 0 18.5 2t25.5 9v-74q-27 -9 -42.5 -12t-35.5 -3q-48 0 -77.5 24t-29.5 64q0 26 16.5 48t58.5 50h75z" />
    <glyph glyph-name="tilde" unicode="&#x2dc;" 
d="M301 664q15 0 25 2t29 10l44 -62q-42 -27 -86 -27q-18 0 -40 5l-23 5q-32 8 -50 8q-12 0 -24 -2.5t-31 -10.5l-44 64q48 26 81 26q11 0 24 -2t35 -8q23 -5 34.5 -6.5t25.5 -1.5z" />
    <glyph glyph-name="hungarumlaut" unicode="&#x2dd;" 
d="M397 762l74 -75l-145 -144l-62 59zM229 762l74 -75l-145 -144l-62 59z" />
    <glyph glyph-name="gravecomb" unicode="&#x300;" 
d="M137 721l193 -104l-36 -74l-197 87z" />
    <glyph glyph-name="acutecomb" unicode="&#x301;" 
d="M363 719l41 -91l-198 -87l-35 74z" />
    <glyph glyph-name="hookabovecomb" unicode="&#x309;" horiz-adv-x="0" 
d="M-65 537h-68q-1 24 0 34q2 11 6.5 20.5t14.5 18.5l13 12q8 7 15.5 14.5t7.5 15.5q0 18 -9 24.5t-20 6.5q-13 0 -22 -7t-9 -25h-64q-5 43 20 72t72 31q25 1 44 -6t31.5 -19t19.5 -27.5t7 -33.5q1 -26 -9.5 -40.5t-20.5 -25.5l-15 -15q-6 -6 -9 -10.5t-4 -9.5t-1 -11.5
v-16.5v-2z" />
    <glyph glyph-name="dotbelowcomb" unicode="&#x323;" 
d="M192 -151v108h116v-108h-116z" />
    <glyph glyph-name="Delta" unicode="&#x394;" horiz-adv-x="667" 
d="M198 115h268l-134 397zM17 0l246 667h137l250 -667h-633z" />
    <glyph glyph-name="Delta" unicode="&#x2206;" horiz-adv-x="667" 
d="M198 115h268l-134 397zM17 0l246 667h137l250 -667h-633z" />
    <glyph glyph-name="Omega" unicode="&#x3a9;" horiz-adv-x="667" 
d="M29 0v114h138q-20 12 -35 23t-27 22.5t-21 23.5t-18 27q-38 65 -38 156q0 69 23 127t63.5 100t96.5 66t122 24t122 -24t96.5 -66t63.5 -100t23 -127q0 -123 -69 -198q-15 -16 -29 -26.5t-40 -27.5h138v-114h-269v101q38 22 60.5 43t39.5 50q18 32 27.5 72.5t9.5 85.5
q0 47 -13 87t-36 69t-54.5 45t-68.5 16q-38 0 -69.5 -16.5t-54.5 -45.5t-36 -68.5t-13 -86.5q0 -129 71 -202q16 -16 28.5 -25.5t38.5 -23.5v-101h-270z" />
    <glyph glyph-name="Omega" unicode="&#x2126;" horiz-adv-x="667" 
d="M29 0v114h138q-20 12 -35 23t-27 22.5t-21 23.5t-18 27q-38 65 -38 156q0 69 23 127t63.5 100t96.5 66t122 24t122 -24t96.5 -66t63.5 -100t23 -127q0 -123 -69 -198q-15 -16 -29 -26.5t-40 -27.5h138v-114h-269v101q38 22 60.5 43t39.5 50q18 32 27.5 72.5t9.5 85.5
q0 47 -13 87t-36 69t-54.5 45t-68.5 16q-38 0 -69.5 -16.5t-54.5 -45.5t-36 -68.5t-13 -86.5q0 -129 71 -202q16 -16 28.5 -25.5t38.5 -23.5v-101h-270z" />
    <glyph glyph-name="pi" unicode="&#x3c0;" horiz-adv-x="662" 
d="M114 0v368h-77v114h587v-114h-75v-368h-127v368h-182v-368h-126z" />
    <glyph glyph-name="uni1EA0" unicode="&#x1ea0;" horiz-adv-x="660" 
d="M262 232h139l-69 228zM447 97h-232l-35 -97h-183l267 667h135l265 -667h-185zM272 -151v108h116v-108h-116z" />
    <glyph glyph-name="uni1EA1" unicode="&#x1ea1;" horiz-adv-x="627" 
d="M301 377q-26 0 -49 -9.5t-39.5 -27t-26 -40.5t-9.5 -50t9.5 -50t26.5 -40.5t40 -27t49 -9.5q27 0 50 9.5t39.5 26.5t26 40.5t9.5 51.5q0 27 -9.5 50t-26 40t-40 26.5t-50.5 9.5zM577 500v-500h-141v54q-36 -71 -155 -71q-57 0 -103.5 19.5t-80 54.5t-52 84t-18.5 109
q0 59 19 108.5t53 85t81 55t104 19.5t94 -17t58 -54v53h141zM255 -151v108h116v-108h-116z" />
    <glyph glyph-name="uni1EA2" unicode="&#x1ea2;" horiz-adv-x="660" 
d="M262 232h139l-69 228zM447 97h-232l-35 -97h-183l267 667h135l265 -667h-185zM361 704h-68q-1 24 0 34q2 11 6.5 20.5t14.5 18.5l13 12q8 7 15.5 14.5t7.5 15.5q0 18 -9 24.5t-20 6.5q-13 0 -22 -7t-9 -25h-64q-5 43 20 72t72 31q25 1 44 -6t31.5 -19t19.5 -27.5t7 -33.5
q1 -26 -9.5 -40.5t-20.5 -25.5l-15 -15q-6 -6 -9 -10.5t-4 -9.5t-1 -11.5v-16.5v-2z" />
    <glyph glyph-name="uni1EA3" unicode="&#x1ea3;" horiz-adv-x="627" 
d="M301 377q-26 0 -49 -9.5t-39.5 -27t-26 -40.5t-9.5 -50t9.5 -50t26.5 -40.5t40 -27t49 -9.5q27 0 50 9.5t39.5 26.5t26 40.5t9.5 51.5q0 27 -9.5 50t-26 40t-40 26.5t-50.5 9.5zM577 500v-500h-141v54q-36 -71 -155 -71q-57 0 -103.5 19.5t-80 54.5t-52 84t-18.5 109
q0 59 19 108.5t53 85t81 55t104 19.5t94 -17t58 -54v53h141zM344 555h-68q-1 24 0 34q2 11 6.5 20.5t14.5 18.5l13 12q8 7 15.5 14.5t7.5 15.5q0 18 -9 24.5t-20 6.5q-13 0 -22 -7t-9 -25h-64q-5 43 20 72t72 31q25 1 44 -6t31.5 -19t19.5 -27.5t7 -33.5q1 -26 -9.5 -40.5
t-20.5 -25.5l-15 -15q-6 -6 -9 -10.5t-4 -9.5t-1 -11.5v-16.5v-2z" />
    <glyph glyph-name="uni1EA4" unicode="&#x1ea4;" horiz-adv-x="660" 
d="M599 926l33 -73l-159 -69l-28 59zM262 232h139l-69 228zM330 758l-35 -51h-127l104 120h119l102 -120h-126zM447 97h-232l-35 -97h-183l267 667h135l265 -667h-185z" />
    <glyph glyph-name="uni1EA5" unicode="&#x1ea5;" horiz-adv-x="627" 
d="M582 764l33 -73l-159 -69l-28 59zM301 377q-26 0 -49 -9.5t-39.5 -27t-26 -40.5t-9.5 -50t9.5 -50t26.5 -40.5t40 -27t49 -9.5q27 0 50 9.5t39.5 26.5t26 40.5t9.5 51.5q0 27 -9.5 50t-26 40t-40 26.5t-50.5 9.5zM315 601l-33 -46h-114l106 119h83l104 -119h-113z
M577 500v-500h-141v54q-36 -71 -155 -71q-57 0 -103.5 19.5t-80 54.5t-52 84t-18.5 109q0 59 19 108.5t53 85t81 55t104 19.5t94 -17t58 -54v53h141z" />
    <glyph glyph-name="uni1EA6" unicode="&#x1ea6;" horiz-adv-x="660" 
d="M66 931l155 -83l-29 -59l-158 69zM262 232h139l-69 228zM330 758l-35 -51h-127l104 120h119l102 -120h-126zM447 97h-232l-35 -97h-183l267 667h135l265 -667h-185z" />
    <glyph glyph-name="uni1EA7" unicode="&#x1ea7;" horiz-adv-x="627" 
d="M66 780l155 -83l-29 -59l-158 69zM301 377q-26 0 -49 -9.5t-39.5 -27t-26 -40.5t-9.5 -50t9.5 -50t26.5 -40.5t40 -27t49 -9.5q27 0 50 9.5t39.5 26.5t26 40.5t9.5 51.5q0 27 -9.5 50t-26 40t-40 26.5t-50.5 9.5zM315 601l-33 -46h-114l106 119h83l104 -119h-113z
M577 500v-500h-141v54q-36 -71 -155 -71q-57 0 -103.5 19.5t-80 54.5t-52 84t-18.5 109q0 59 19 108.5t53 85t81 55t104 19.5t94 -17t58 -54v53h141z" />
    <glyph glyph-name="uni1EA8" unicode="&#x1ea8;" horiz-adv-x="660" 
d="M508 796h-55v27q2 9 5.5 16.5t11.5 14.5l11 10q6 5 12 11.5t6 12.5q0 14 -7 19.5t-16 5.5q-11 0 -18 -6t-7 -20h-51q-5 35 15.5 58t57.5 24q40 2 60.5 -19t21.5 -49q1 -21 -7.5 -33t-16.5 -20l-12 -12q-11 -10 -10.5 -16.5t-0.5 -22.5v-1zM262 232h139l-69 228zM330 758
l-35 -51h-127l104 120h119l102 -120h-126zM447 97h-232l-35 -97h-183l267 667h135l265 -667h-185z" />
    <glyph glyph-name="uni1EA9" unicode="&#x1ea9;" horiz-adv-x="627" 
d="M488 631h-55v27q2 9 5.5 16.5t11.5 14.5l11 10q6 5 12 11.5t6 12.5q0 14 -7 19.5t-16 5.5q-11 0 -18 -6t-7 -20h-51q-5 35 15.5 58t57.5 24q40 2 60.5 -19t21.5 -49q1 -21 -7.5 -33t-16.5 -20l-12 -12q-11 -10 -10.5 -16.5t-0.5 -22.5v-1zM301 377q-26 0 -49 -9.5
t-39.5 -27t-26 -40.5t-9.5 -50t9.5 -50t26.5 -40.5t40 -27t49 -9.5q27 0 50 9.5t39.5 26.5t26 40.5t9.5 51.5q0 27 -9.5 50t-26 40t-40 26.5t-50.5 9.5zM315 601l-33 -46h-114l106 119h83l104 -119h-113zM577 500v-500h-141v54q-36 -71 -155 -71q-57 0 -103.5 19.5t-80 54.5
t-52 84t-18.5 109q0 59 19 108.5t53 85t81 55t104 19.5t94 -17t58 -54v53h141z" />
    <glyph glyph-name="uni1EAA" unicode="&#x1eaa;" horiz-adv-x="660" 
d="M371 923q12 0 20 1.5t23 8.5l35 -50q-33 -22 -69 -22q-14 0 -32 4l-18 4q-26 7 -40 7q-10 0 -19.5 -2t-24.5 -9l-35 52q38 20 65 20q8 0 18.5 -1.5t28.5 -6.5q18 -4 27.5 -5t20.5 -1zM262 232h139l-69 228zM330 758l-35 -51h-127l104 120h119l102 -120h-126zM447 97h-232
l-35 -97h-183l267 667h135l265 -667h-185z" />
    <glyph glyph-name="uni1EAB" unicode="&#x1eab;" horiz-adv-x="627" 
d="M349 777q12 0 20 1.5t23 8.5l35 -50q-33 -22 -69 -22q-14 0 -32 4l-18 4q-26 7 -40 7q-10 0 -19.5 -2t-24.5 -9l-35 52q38 20 65 20q8 0 18.5 -1.5t28.5 -6.5q18 -4 27.5 -5t20.5 -1zM301 377q-26 0 -49 -9.5t-39.5 -27t-26 -40.5t-9.5 -50t9.5 -50t26.5 -40.5t40 -27
t49 -9.5q27 0 50 9.5t39.5 26.5t26 40.5t9.5 51.5q0 27 -9.5 50t-26 40t-40 26.5t-50.5 9.5zM315 601l-33 -46h-114l106 119h83l104 -119h-113zM577 500v-500h-141v54q-36 -71 -155 -71q-57 0 -103.5 19.5t-80 54.5t-52 84t-18.5 109q0 59 19 108.5t53 85t81 55t104 19.5
t94 -17t58 -54v53h141z" />
    <glyph glyph-name="uni1EAC" unicode="&#x1eac;" horiz-adv-x="660" 
d="M272 -151v108h116v-108h-116zM262 232h139l-69 228zM330 758l-35 -51h-127l104 120h119l102 -120h-126zM447 97h-232l-35 -97h-183l267 667h135l265 -667h-185z" />
    <glyph glyph-name="uni1EAD" unicode="&#x1ead;" horiz-adv-x="627" 
d="M255 -151v108h116v-108h-116zM301 377q-26 0 -49 -9.5t-39.5 -27t-26 -40.5t-9.5 -50t9.5 -50t26.5 -40.5t40 -27t49 -9.5q27 0 50 9.5t39.5 26.5t26 40.5t9.5 51.5q0 27 -9.5 50t-26 40t-40 26.5t-50.5 9.5zM315 601l-33 -46h-114l106 119h83l104 -119h-113zM577 500
v-500h-141v54q-36 -71 -155 -71q-57 0 -103.5 19.5t-80 54.5t-52 84t-18.5 109q0 59 19 108.5t53 85t81 55t104 19.5t94 -17t58 -54v53h141z" />
    <glyph glyph-name="uni1EAE" unicode="&#x1eae;" horiz-adv-x="660" 
d="M412 970l33 -73l-159 -69l-28 59zM262 232h139l-69 228zM447 97h-232l-35 -97h-183l267 667h135l265 -667h-185zM330 692q-62 0 -96 28t-38 80h76q9 -19 22.5 -27t38.5 -8q40 0 55 35h76q-4 -52 -38 -80t-96 -28z" />
    <glyph glyph-name="uni1EAF" unicode="&#x1eaf;" horiz-adv-x="627" 
d="M400 816l33 -73l-159 -69l-28 59zM320 544q-62 0 -96 28t-38 80h76q9 -19 22.5 -27t38.5 -8q40 0 55 35h76q-4 -52 -38 -80t-96 -28zM301 377q-26 0 -49 -9.5t-39.5 -27t-26 -40.5t-9.5 -50t9.5 -50t26.5 -40.5t40 -27t49 -9.5q27 0 50 9.5t39.5 26.5t26 40.5t9.5 51.5
q0 27 -9.5 50t-26 40t-40 26.5t-50.5 9.5zM577 500v-500h-141v54q-36 -71 -155 -71q-57 0 -103.5 19.5t-80 54.5t-52 84t-18.5 109q0 59 19 108.5t53 85t81 55t104 19.5t94 -17t58 -54v53h141z" />
    <glyph glyph-name="uni1EB0" unicode="&#x1eb0;" horiz-adv-x="660" 
d="M234 962l155 -83l-29 -59l-158 69zM262 232h139l-69 228zM447 97h-232l-35 -97h-183l267 667h135l265 -667h-185zM330 692q-62 0 -96 28t-38 80h76q9 -19 22.5 -27t38.5 -8q40 0 55 35h76q-4 -52 -38 -80t-96 -28z" />
    <glyph glyph-name="uni1EB1" unicode="&#x1eb1;" horiz-adv-x="627" 
d="M241 822l155 -83l-29 -59l-158 69zM320 544q-62 0 -96 28t-38 80h76q9 -19 22.5 -27t38.5 -8q40 0 55 35h76q-4 -52 -38 -80t-96 -28zM301 377q-26 0 -49 -9.5t-39.5 -27t-26 -40.5t-9.5 -50t9.5 -50t26.5 -40.5t40 -27t49 -9.5q27 0 50 9.5t39.5 26.5t26 40.5t9.5 51.5
q0 27 -9.5 50t-26 40t-40 26.5t-50.5 9.5zM577 500v-500h-141v54q-36 -71 -155 -71q-57 0 -103.5 19.5t-80 54.5t-52 84t-18.5 109q0 59 19 108.5t53 85t81 55t104 19.5t94 -17t58 -54v53h141z" />
    <glyph glyph-name="uni1EB2" unicode="&#x1eb2;" horiz-adv-x="660" 
d="M364 820h-55v27q2 9 5.5 16.5t11.5 14.5l11 10q6 5 12 11.5t6 12.5q0 14 -7 19.5t-16 5.5q-11 0 -18 -6t-7 -20h-51q-5 35 15.5 58t57.5 24q40 2 60.5 -19t21.5 -49q1 -21 -7.5 -33t-16.5 -20l-12 -12q-11 -10 -10.5 -16.5t-0.5 -22.5v-1zM262 232h139l-69 228zM447 97
h-232l-35 -97h-183l267 667h135l265 -667h-185zM330 692q-62 0 -96 28t-38 80h76q9 -19 22.5 -27t38.5 -8q40 0 55 35h76q-4 -52 -38 -80t-96 -28z" />
    <glyph glyph-name="uni1EB3" unicode="&#x1eb3;" horiz-adv-x="627" 
d="M350 677h-55v27q2 9 5.5 16.5t11.5 14.5l11 10q6 5 12 11.5t6 12.5q0 14 -7 19.5t-16 5.5q-11 0 -18 -6t-7 -20h-51q-5 35 15.5 58t57.5 24q40 2 60.5 -19t21.5 -49q1 -21 -7.5 -33t-16.5 -20l-12 -12q-11 -10 -10.5 -16.5t-0.5 -22.5v-1zM320 544q-62 0 -96 28t-38 80
h76q9 -19 22.5 -27t38.5 -8q40 0 55 35h76q-4 -52 -38 -80t-96 -28zM301 377q-26 0 -49 -9.5t-39.5 -27t-26 -40.5t-9.5 -50t9.5 -50t26.5 -40.5t40 -27t49 -9.5q27 0 50 9.5t39.5 26.5t26 40.5t9.5 51.5q0 27 -9.5 50t-26 40t-40 26.5t-50.5 9.5zM577 500v-500h-141v54
q-36 -71 -155 -71q-57 0 -103.5 19.5t-80 54.5t-52 84t-18.5 109q0 59 19 108.5t53 85t81 55t104 19.5t94 -17t58 -54v53h141z" />
    <glyph glyph-name="uni1EB4" unicode="&#x1eb4;" horiz-adv-x="660" 
d="M367 891q12 0 20 1.5t23 8.5l35 -50q-33 -22 -69 -22q-14 0 -32 4l-18 4q-26 7 -40 7q-10 0 -19.5 -2t-24.5 -9l-35 52q38 20 65 20q8 0 18.5 -1.5t28.5 -6.5q18 -4 27.5 -5t20.5 -1zM262 232h139l-69 228zM447 97h-232l-35 -97h-183l267 667h135l265 -667h-185zM330 692
q-62 0 -96 28t-38 80h76q9 -19 22.5 -27t38.5 -8q40 0 55 35h76q-4 -52 -38 -80t-96 -28z" />
    <glyph glyph-name="uni1EB5" unicode="&#x1eb5;" horiz-adv-x="627" 
d="M353 747q12 0 20 1.5t23 8.5l35 -50q-33 -22 -69 -22q-14 0 -32 4l-18 4q-26 7 -40 7q-10 0 -19.5 -2t-24.5 -9l-35 52q38 20 65 20q8 0 18.5 -1.5t28.5 -6.5q18 -4 27.5 -5t20.5 -1zM320 544q-62 0 -96 28t-38 80h76q9 -19 22.5 -27t38.5 -8q40 0 55 35h76
q-4 -52 -38 -80t-96 -28zM301 377q-26 0 -49 -9.5t-39.5 -27t-26 -40.5t-9.5 -50t9.5 -50t26.5 -40.5t40 -27t49 -9.5q27 0 50 9.5t39.5 26.5t26 40.5t9.5 51.5q0 27 -9.5 50t-26 40t-40 26.5t-50.5 9.5zM577 500v-500h-141v54q-36 -71 -155 -71q-57 0 -103.5 19.5t-80 54.5
t-52 84t-18.5 109q0 59 19 108.5t53 85t81 55t104 19.5t94 -17t58 -54v53h141z" />
    <glyph glyph-name="uni1EB6" unicode="&#x1eb6;" horiz-adv-x="660" 
d="M272 -151v108h116v-108h-116zM262 232h139l-69 228zM447 97h-232l-35 -97h-183l267 667h135l265 -667h-185zM330 692q-62 0 -96 28t-38 80h76q9 -19 22.5 -27t38.5 -8q40 0 55 35h76q-4 -52 -38 -80t-96 -28z" />
    <glyph glyph-name="uni1EB7" unicode="&#x1eb7;" horiz-adv-x="627" 
d="M255 -151v108h116v-108h-116zM320 544q-62 0 -96 28t-38 80h76q9 -19 22.5 -27t38.5 -8q40 0 55 35h76q-4 -52 -38 -80t-96 -28zM301 377q-26 0 -49 -9.5t-39.5 -27t-26 -40.5t-9.5 -50t9.5 -50t26.5 -40.5t40 -27t49 -9.5q27 0 50 9.5t39.5 26.5t26 40.5t9.5 51.5
q0 27 -9.5 50t-26 40t-40 26.5t-50.5 9.5zM577 500v-500h-141v54q-36 -71 -155 -71q-57 0 -103.5 19.5t-80 54.5t-52 84t-18.5 109q0 59 19 108.5t53 85t81 55t104 19.5t94 -17t58 -54v53h141z" />
    <glyph glyph-name="uni1EB8" unicode="&#x1eb8;" horiz-adv-x="469" 
d="M57 0v667h370v-150h-207v-103h201v-150h-201v-114h207v-150h-370zM178 -151v108h116v-108h-116z" />
    <glyph glyph-name="uni1EB9" unicode="&#x1eb9;" horiz-adv-x="578" 
d="M401 303q-8 39 -38.5 63t-74.5 24t-73.5 -22.5t-38.5 -64.5h225zM374 149q1 2 3 3.5t4 3.5h152q-35 -81 -99 -127t-144 -46q-55 0 -103 20.5t-83.5 56.5t-56 84.5t-20.5 104.5t20.5 105t55.5 85t82.5 57t101.5 21q56 0 104.5 -21t84 -57.5t55.5 -86.5t20 -108
q0 -13 -1 -20.5t-3 -20.5h-375q5 -42 35 -67.5t75 -25.5q28 0 48 8t44 31zM231 -151v108h116v-108h-116z" />
    <glyph glyph-name="uni1EBA" unicode="&#x1eba;" horiz-adv-x="469" 
d="M57 0v667h370v-150h-207v-103h201v-150h-201v-114h207v-150h-370zM283 714h-68q-1 24 0 34q2 11 6.5 20.5t14.5 18.5l13 12q8 7 15.5 14.5t7.5 15.5q0 18 -9 24.5t-20 6.5q-13 0 -22 -7t-9 -25h-64q-5 43 20 72t72 31q25 1 44 -6t31.5 -19t19.5 -27.5t7 -33.5
q1 -26 -9.5 -40.5t-20.5 -25.5l-15 -15q-6 -6 -9 -10.5t-4 -9.5t-1 -11.5v-16.5v-2z" />
    <glyph glyph-name="uni1EBB" unicode="&#x1ebb;" horiz-adv-x="578" 
d="M401 303q-8 39 -38.5 63t-74.5 24t-73.5 -22.5t-38.5 -64.5h225zM374 149q1 2 3 3.5t4 3.5h152q-35 -81 -99 -127t-144 -46q-55 0 -103 20.5t-83.5 56.5t-56 84.5t-20.5 104.5t20.5 105t55.5 85t82.5 57t101.5 21q56 0 104.5 -21t84 -57.5t55.5 -86.5t20 -108
q0 -13 -1 -20.5t-3 -20.5h-375q5 -42 35 -67.5t75 -25.5q28 0 48 8t44 31zM326 556h-68q-1 24 0 34q2 11 6.5 20.5t14.5 18.5l13 12q8 7 15.5 14.5t7.5 15.5q0 18 -9 24.5t-20 6.5q-13 0 -22 -7t-9 -25h-64q-5 43 20 72t72 31q25 1 44 -6t31.5 -19t19.5 -27.5t7 -33.5
q1 -26 -9.5 -40.5t-20.5 -25.5l-15 -15q-6 -6 -9 -10.5t-4 -9.5t-1 -11.5v-16.5v-2z" />
    <glyph glyph-name="uni1EBC" unicode="&#x1ebc;" horiz-adv-x="469" 
d="M57 0v667h370v-150h-207v-103h201v-150h-201v-114h207v-150h-370zM285 802q15 0 25 2t29 10l44 -62q-42 -27 -86 -27q-18 0 -40 5l-23 5q-32 8 -50 8q-12 0 -24 -2.5t-31 -10.5l-44 64q48 26 81 26q11 0 24 -2t35 -8q23 -5 34.5 -6.5t25.5 -1.5z" />
    <glyph glyph-name="uni1EBD" unicode="&#x1ebd;" horiz-adv-x="578" 
d="M401 303q-8 39 -38.5 63t-74.5 24t-73.5 -22.5t-38.5 -64.5h225zM374 149q1 2 3 3.5t4 3.5h152q-35 -81 -99 -127t-144 -46q-55 0 -103 20.5t-83.5 56.5t-56 84.5t-20.5 104.5t20.5 105t55.5 85t82.5 57t101.5 21q56 0 104.5 -21t84 -57.5t55.5 -86.5t20 -108
q0 -13 -1 -20.5t-3 -20.5h-375q5 -42 35 -67.5t75 -25.5q28 0 48 8t44 31zM343 639q15 0 25 2t29 10l44 -62q-42 -27 -86 -27q-18 0 -40 5l-23 5q-32 8 -50 8q-12 0 -24 -2.5t-31 -10.5l-44 64q48 26 81 26q11 0 24 -2t35 -8q23 -5 34.5 -6.5t25.5 -1.5z" />
    <glyph glyph-name="uni1EBE" unicode="&#x1ebe;" horiz-adv-x="469" 
d="M493 907l33 -73l-159 -69l-28 59zM242 741l-33 -46h-113l106 120h83l103 -120h-112zM57 0v667h370v-150h-207v-103h201v-150h-201v-114h207v-150h-370z" />
    <glyph glyph-name="uni1EBF" unicode="&#x1ebf;" horiz-adv-x="578" 
d="M542 760l33 -73l-159 -69l-28 59zM401 303q-8 39 -38.5 63t-74.5 24t-73.5 -22.5t-38.5 -64.5h225zM289 595l-33 -46h-113l106 119h83l103 -119h-112zM374 149q1 2 3 3.5t4 3.5h152q-35 -81 -99 -127t-144 -46q-55 0 -103 20.5t-83.5 56.5t-56 84.5t-20.5 104.5t20.5 105
t55.5 85t82.5 57t101.5 21q56 0 104.5 -21t84 -57.5t55.5 -86.5t20 -108q0 -13 -1 -20.5t-3 -20.5h-375q5 -42 35 -67.5t75 -25.5q28 0 48 8t44 31z" />
    <glyph glyph-name="uni1EC0" unicode="&#x1ec0;" horiz-adv-x="469" 
d="M-7 921l155 -83l-29 -59l-158 69zM242 741l-33 -46h-113l106 120h83l103 -120h-112zM57 0v667h370v-150h-207v-103h201v-150h-201v-114h207v-150h-370z" />
    <glyph glyph-name="uni1EC1" unicode="&#x1ec1;" horiz-adv-x="578" 
d="M44 768l155 -83l-29 -59l-158 69zM401 303q-8 39 -38.5 63t-74.5 24t-73.5 -22.5t-38.5 -64.5h225zM289 595l-33 -46h-113l106 119h83l103 -119h-112zM374 149q1 2 3 3.5t4 3.5h152q-35 -81 -99 -127t-144 -46q-55 0 -103 20.5t-83.5 56.5t-56 84.5t-20.5 104.5t20.5 105
t55.5 85t82.5 57t101.5 21q56 0 104.5 -21t84 -57.5t55.5 -86.5t20 -108q0 -13 -1 -20.5t-3 -20.5h-375q5 -42 35 -67.5t75 -25.5q28 0 48 8t44 31z" />
    <glyph glyph-name="uni1EC2" unicode="&#x1ec2;" horiz-adv-x="469" 
d="M411 784h-55v27q2 9 5.5 16.5t11.5 14.5l11 10q6 5 12 11.5t6 12.5q0 14 -7 19.5t-16 5.5q-11 0 -18 -6t-7 -20h-51q-5 35 15.5 58t57.5 24q40 2 60.5 -19t21.5 -49q1 -21 -7.5 -33t-16.5 -20l-12 -12q-11 -10 -10.5 -16.5t-0.5 -22.5v-1zM242 741l-33 -46h-113l106 120
h83l103 -120h-112zM57 0v667h370v-150h-207v-103h201v-150h-201v-114h207v-150h-370z" />
    <glyph glyph-name="uni1EC3" unicode="&#x1ec3;" horiz-adv-x="578" 
d="M468 631h-55v27q2 9 5.5 16.5t11.5 14.5l11 10q6 5 12 11.5t6 12.5q0 14 -7 19.5t-16 5.5q-11 0 -18 -6t-7 -20h-51q-5 35 15.5 58t57.5 24q40 2 60.5 -19t21.5 -49q1 -21 -7.5 -33t-16.5 -20l-12 -12q-11 -10 -10.5 -16.5t-0.5 -22.5v-1zM401 303q-8 39 -38.5 63
t-74.5 24t-73.5 -22.5t-38.5 -64.5h225zM289 595l-33 -46h-113l106 119h83l103 -119h-112zM374 149q1 2 3 3.5t4 3.5h152q-35 -81 -99 -127t-144 -46q-55 0 -103 20.5t-83.5 56.5t-56 84.5t-20.5 104.5t20.5 105t55.5 85t82.5 57t101.5 21q56 0 104.5 -21t84 -57.5
t55.5 -86.5t20 -108q0 -13 -1 -20.5t-3 -20.5h-375q5 -42 35 -67.5t75 -25.5q28 0 48 8t44 31z" />
    <glyph glyph-name="uni1EC4" unicode="&#x1ec4;" horiz-adv-x="469" 
d="M280 899q12 0 20 1.5t23 8.5l35 -50q-33 -22 -69 -22q-14 0 -32 4l-18 4q-26 7 -40 7q-10 0 -19.5 -2t-24.5 -9l-35 52q38 20 65 20q8 0 18.5 -1.5t28.5 -6.5q18 -4 27.5 -5t20.5 -1zM242 741l-33 -46h-113l106 120h83l103 -120h-112zM57 0v667h370v-150h-207v-103h201
v-150h-201v-114h207v-150h-370z" />
    <glyph glyph-name="uni1EC5" unicode="&#x1ec5;" horiz-adv-x="578" 
d="M325 773q12 0 20 1.5t23 8.5l35 -50q-33 -22 -69 -22q-14 0 -32 4l-18 4q-26 7 -40 7q-10 0 -19.5 -2t-24.5 -9l-35 52q38 20 65 20q8 0 18.5 -1.5t28.5 -6.5q18 -4 27.5 -5t20.5 -1zM401 303q-8 39 -38.5 63t-74.5 24t-73.5 -22.5t-38.5 -64.5h225zM289 595l-33 -46
h-113l106 119h83l103 -119h-112zM374 149q1 2 3 3.5t4 3.5h152q-35 -81 -99 -127t-144 -46q-55 0 -103 20.5t-83.5 56.5t-56 84.5t-20.5 104.5t20.5 105t55.5 85t82.5 57t101.5 21q56 0 104.5 -21t84 -57.5t55.5 -86.5t20 -108q0 -13 -1 -20.5t-3 -20.5h-375q5 -42 35 -67.5
t75 -25.5q28 0 48 8t44 31z" />
    <glyph glyph-name="uni1EC6" unicode="&#x1ec6;" horiz-adv-x="469" 
d="M178 -151v108h116v-108h-116zM242 741l-33 -46h-113l106 120h83l103 -120h-112zM57 0v667h370v-150h-207v-103h201v-150h-201v-114h207v-150h-370z" />
    <glyph glyph-name="uni1EC7" unicode="&#x1ec7;" horiz-adv-x="578" 
d="M231 -151v108h116v-108h-116zM401 303q-8 39 -38.5 63t-74.5 24t-73.5 -22.5t-38.5 -64.5h225zM289 595l-33 -46h-113l106 119h83l103 -119h-112zM374 149q1 2 3 3.5t4 3.5h152q-35 -81 -99 -127t-144 -46q-55 0 -103 20.5t-83.5 56.5t-56 84.5t-20.5 104.5t20.5 105
t55.5 85t82.5 57t101.5 21q56 0 104.5 -21t84 -57.5t55.5 -86.5t20 -108q0 -13 -1 -20.5t-3 -20.5h-375q5 -42 35 -67.5t75 -25.5q28 0 48 8t44 31z" />
    <glyph glyph-name="uni1EC8" unicode="&#x1ec8;" horiz-adv-x="283" 
d="M57 0v667h170v-667h-170zM172 732h-68q-1 24 0 34q2 11 6.5 20.5t14.5 18.5l13 12q8 7 15.5 14.5t7.5 15.5q0 18 -9 24.5t-20 6.5q-13 0 -22 -7t-9 -25h-64q-5 43 20 72t72 31q25 1 44 -6t31.5 -19t19.5 -27.5t7 -33.5q1 -26 -9.5 -40.5t-20.5 -25.5l-15 -15
q-6 -6 -9 -10.5t-4 -9.5t-1 -11.5v-16.5v-2z" />
    <glyph glyph-name="uni1EC9" unicode="&#x1ec9;" horiz-adv-x="250" 
d="M156 547h-68q-1 24 0 34q2 11 6.5 20.5t14.5 18.5l13 12q8 7 15.5 14.5t7.5 15.5q0 18 -9 24.5t-20 6.5q-13 0 -22 -7t-9 -25h-64q-5 43 20 72t72 31q25 1 44 -6t31.5 -19t19.5 -27.5t7 -33.5q1 -26 -9.5 -40.5t-20.5 -25.5l-15 -15q-6 -6 -9 -10.5t-4 -9.5t-1 -11.5
v-16.5v-2zM200 500v-500h-150v500h150z" />
    <glyph glyph-name="uni1ECA" unicode="&#x1eca;" horiz-adv-x="283" 
d="M57 0v667h170v-667h-170zM85 -151v108h116v-108h-116z" />
    <glyph glyph-name="uni1ECB" unicode="&#x1ecb;" horiz-adv-x="250" 
d="M185 656v-92h-120v92h120zM200 500v-500h-150v500h150zM68 -151v108h116v-108h-116z" />
    <glyph glyph-name="uni1ECC" unicode="&#x1ecc;" horiz-adv-x="761" 
d="M381 530q-39 0 -72.5 -15t-57.5 -41t-38 -61.5t-14 -77.5t14 -78.5t38.5 -63t58.5 -41.5t73 -15q38 0 71 15t57 41t38 62t14 77q0 42 -14 78t-38.5 63t-57.5 42t-72 15zM379 -13q-74 0 -138 26.5t-111 73t-74 109.5t-27 136q0 74 27 137.5t74 110.5t111 73.5t138 26.5
q75 0 139.5 -27t112 -73.5t75 -110t27.5 -136.5t-27.5 -136t-75 -109.5t-112 -73.5t-139.5 -27zM322 -151v108h116v-108h-116z" />
    <glyph glyph-name="uni1ECD" unicode="&#x1ecd;" horiz-adv-x="595" 
d="M298 377q-26 0 -48 -10t-38 -27t-25.5 -40t-9.5 -49q0 -27 9 -50.5t25.5 -41t38.5 -27t48 -9.5q25 0 47 9.5t38 27t25 40.5t9 50t-9.5 50t-25.5 40t-37.5 27t-46.5 10zM298 -17q-59 0 -108.5 20t-85.5 55t-56.5 83.5t-20.5 105.5q0 58 20 107.5t56 85.5t85.5 56.5
t108.5 20.5q58 0 107.5 -20t85.5 -56t56.5 -85t20.5 -106t-20.5 -106t-56.5 -85t-85 -56t-107 -20zM239 -151v108h116v-108h-116z" />
    <glyph glyph-name="uni1ECE" unicode="&#x1ece;" horiz-adv-x="761" 
d="M381 530q-39 0 -72.5 -15t-57.5 -41t-38 -61.5t-14 -77.5t14 -78.5t38.5 -63t58.5 -41.5t73 -15q38 0 71 15t57 41t38 62t14 77q0 42 -14 78t-38.5 63t-57.5 42t-72 15zM379 -13q-74 0 -138 26.5t-111 73t-74 109.5t-27 136q0 74 27 137.5t74 110.5t111 73.5t138 26.5
q75 0 139.5 -27t112 -73.5t75 -110t27.5 -136.5t-27.5 -136t-75 -109.5t-112 -73.5t-139.5 -27zM417 737h-68q-1 24 0 34q2 11 6.5 20.5t14.5 18.5l13 12q8 7 15.5 14.5t7.5 15.5q0 18 -9 24.5t-20 6.5q-13 0 -22 -7t-9 -25h-64q-5 43 20 72t72 31q25 1 44 -6t31.5 -19
t19.5 -27.5t7 -33.5q1 -26 -9.5 -40.5t-20.5 -25.5l-15 -15q-6 -6 -9 -10.5t-4 -9.5t-1 -11.5v-16.5v-2z" />
    <glyph glyph-name="uni1ECF" unicode="&#x1ecf;" horiz-adv-x="595" 
d="M298 377q-26 0 -48 -10t-38 -27t-25.5 -40t-9.5 -49q0 -27 9 -50.5t25.5 -41t38.5 -27t48 -9.5q25 0 47 9.5t38 27t25 40.5t9 50t-9.5 50t-25.5 40t-37.5 27t-46.5 10zM298 -17q-59 0 -108.5 20t-85.5 55t-56.5 83.5t-20.5 105.5q0 58 20 107.5t56 85.5t85.5 56.5
t108.5 20.5q58 0 107.5 -20t85.5 -56t56.5 -85t20.5 -106t-20.5 -106t-56.5 -85t-85 -56t-107 -20zM330 579h-68q-1 24 0 34q2 11 6.5 20.5t14.5 18.5l13 12q8 7 15.5 14.5t7.5 15.5q0 18 -9 24.5t-20 6.5q-13 0 -22 -7t-9 -25h-64q-5 43 20 72t72 31q25 1 44 -6t31.5 -19
t19.5 -27.5t7 -33.5q1 -26 -9.5 -40.5t-20.5 -25.5l-15 -15q-6 -6 -9 -10.5t-4 -9.5t-1 -11.5v-16.5v-2z" />
    <glyph glyph-name="uni1ED0" unicode="&#x1ed0;" horiz-adv-x="761" 
d="M662 921l33 -73l-159 -69l-28 59zM381 530q-39 0 -72.5 -15t-57.5 -41t-38 -61.5t-14 -77.5t14 -78.5t38.5 -63t58.5 -41.5t73 -15q38 0 71 15t57 41t38 62t14 77q0 42 -14 78t-38.5 63t-57.5 42t-72 15zM381 762l-36 -51h-127l105 120h119l101 -120h-126zM379 -13
q-74 0 -138 26.5t-111 73t-74 109.5t-27 136q0 74 27 137.5t74 110.5t111 73.5t138 26.5q75 0 139.5 -27t112 -73.5t75 -110t27.5 -136.5t-27.5 -136t-75 -109.5t-112 -73.5t-139.5 -27z" />
    <glyph glyph-name="uni1ED1" unicode="&#x1ed1;" horiz-adv-x="595" 
d="M561 754l33 -73l-159 -69l-28 59zM298 377q-26 0 -48 -10t-38 -27t-25.5 -40t-9.5 -49q0 -27 9 -50.5t25.5 -41t38.5 -27t48 -9.5q25 0 47 9.5t38 27t25 40.5t9 50t-9.5 50t-25.5 40t-37.5 27t-46.5 10zM298 595l-33 -46h-114l106 119h83l104 -119h-113zM298 -17
q-59 0 -108.5 20t-85.5 55t-56.5 83.5t-20.5 105.5q0 58 20 107.5t56 85.5t85.5 56.5t108.5 20.5q58 0 107.5 -20t85.5 -56t56.5 -85t20.5 -106t-20.5 -106t-56.5 -85t-85 -56t-107 -20z" />
    <glyph glyph-name="uni1ED2" unicode="&#x1ed2;" horiz-adv-x="761" 
d="M114 944l155 -83l-29 -59l-158 69zM381 530q-39 0 -72.5 -15t-57.5 -41t-38 -61.5t-14 -77.5t14 -78.5t38.5 -63t58.5 -41.5t73 -15q38 0 71 15t57 41t38 62t14 77q0 42 -14 78t-38.5 63t-57.5 42t-72 15zM381 762l-36 -51h-127l105 120h119l101 -120h-126zM379 -13
q-74 0 -138 26.5t-111 73t-74 109.5t-27 136q0 74 27 137.5t74 110.5t111 73.5t138 26.5q75 0 139.5 -27t112 -73.5t75 -110t27.5 -136.5t-27.5 -136t-75 -109.5t-112 -73.5t-139.5 -27z" />
    <glyph glyph-name="uni1ED3" unicode="&#x1ed3;" horiz-adv-x="595" 
d="M50 766l155 -83l-29 -59l-158 69zM298 377q-26 0 -48 -10t-38 -27t-25.5 -40t-9.5 -49q0 -27 9 -50.5t25.5 -41t38.5 -27t48 -9.5q25 0 47 9.5t38 27t25 40.5t9 50t-9.5 50t-25.5 40t-37.5 27t-46.5 10zM298 595l-33 -46h-114l106 119h83l104 -119h-113zM298 -17
q-59 0 -108.5 20t-85.5 55t-56.5 83.5t-20.5 105.5q0 58 20 107.5t56 85.5t85.5 56.5t108.5 20.5q58 0 107.5 -20t85.5 -56t56.5 -85t20.5 -106t-20.5 -106t-56.5 -85t-85 -56t-107 -20z" />
    <glyph glyph-name="uni1ED4" unicode="&#x1ed4;" horiz-adv-x="761" 
d="M563 802h-55v27q2 9 5.5 16.5t11.5 14.5l11 10q6 5 12 11.5t6 12.5q0 14 -7 19.5t-16 5.5q-11 0 -18 -6t-7 -20h-51q-5 35 15.5 58t57.5 24q40 2 60.5 -19t21.5 -49q1 -21 -7.5 -33t-16.5 -20l-12 -12q-11 -10 -10.5 -16.5t-0.5 -22.5v-1zM381 530q-39 0 -72.5 -15
t-57.5 -41t-38 -61.5t-14 -77.5t14 -78.5t38.5 -63t58.5 -41.5t73 -15q38 0 71 15t57 41t38 62t14 77q0 42 -14 78t-38.5 63t-57.5 42t-72 15zM381 762l-36 -51h-127l105 120h119l101 -120h-126zM379 -13q-74 0 -138 26.5t-111 73t-74 109.5t-27 136q0 74 27 137.5t74 110.5
t111 73.5t138 26.5q75 0 139.5 -27t112 -73.5t75 -110t27.5 -136.5t-27.5 -136t-75 -109.5t-112 -73.5t-139.5 -27z" />
    <glyph glyph-name="uni1ED5" unicode="&#x1ed5;" horiz-adv-x="595" 
d="M480 635h-55v27q2 9 5.5 16.5t11.5 14.5l11 10q6 5 12 11.5t6 12.5q0 14 -7 19.5t-16 5.5q-11 0 -18 -6t-7 -20h-51q-5 35 15.5 58t57.5 24q40 2 60.5 -19t21.5 -49q1 -21 -7.5 -33t-16.5 -20l-12 -12q-11 -10 -10.5 -16.5t-0.5 -22.5v-1zM298 377q-26 0 -48 -10t-38 -27
t-25.5 -40t-9.5 -49q0 -27 9 -50.5t25.5 -41t38.5 -27t48 -9.5q25 0 47 9.5t38 27t25 40.5t9 50t-9.5 50t-25.5 40t-37.5 27t-46.5 10zM298 595l-33 -46h-114l106 119h83l104 -119h-113zM298 -17q-59 0 -108.5 20t-85.5 55t-56.5 83.5t-20.5 105.5q0 58 20 107.5t56 85.5
t85.5 56.5t108.5 20.5q58 0 107.5 -20t85.5 -56t56.5 -85t20.5 -106t-20.5 -106t-56.5 -85t-85 -56t-107 -20z" />
    <glyph glyph-name="uni1ED6" unicode="&#x1ed6;" horiz-adv-x="761" 
d="M421 927q12 0 20 1.5t23 8.5l35 -50q-33 -22 -69 -22q-14 0 -32 4l-18 4q-26 7 -40 7q-10 0 -19.5 -2t-24.5 -9l-35 52q38 20 65 20q8 0 18.5 -1.5t28.5 -6.5q18 -4 27.5 -5t20.5 -1zM381 530q-39 0 -72.5 -15t-57.5 -41t-38 -61.5t-14 -77.5t14 -78.5t38.5 -63
t58.5 -41.5t73 -15q38 0 71 15t57 41t38 62t14 77q0 42 -14 78t-38.5 63t-57.5 42t-72 15zM381 762l-36 -51h-127l105 120h119l101 -120h-126zM379 -13q-74 0 -138 26.5t-111 73t-74 109.5t-27 136q0 74 27 137.5t74 110.5t111 73.5t138 26.5q75 0 139.5 -27t112 -73.5
t75 -110t27.5 -136.5t-27.5 -136t-75 -109.5t-112 -73.5t-139.5 -27z" />
    <glyph glyph-name="uni1ED7" unicode="&#x1ed7;" horiz-adv-x="595" 
d="M333 763q12 0 20 1.5t23 8.5l35 -50q-33 -22 -69 -22q-14 0 -32 4l-18 4q-26 7 -40 7q-10 0 -19.5 -2t-24.5 -9l-35 52q38 20 65 20q8 0 18.5 -1.5t28.5 -6.5q18 -4 27.5 -5t20.5 -1zM298 377q-26 0 -48 -10t-38 -27t-25.5 -40t-9.5 -49q0 -27 9 -50.5t25.5 -41t38.5 -27
t48 -9.5q25 0 47 9.5t38 27t25 40.5t9 50t-9.5 50t-25.5 40t-37.5 27t-46.5 10zM298 595l-33 -46h-114l106 119h83l104 -119h-113zM298 -17q-59 0 -108.5 20t-85.5 55t-56.5 83.5t-20.5 105.5q0 58 20 107.5t56 85.5t85.5 56.5t108.5 20.5q58 0 107.5 -20t85.5 -56t56.5 -85
t20.5 -106t-20.5 -106t-56.5 -85t-85 -56t-107 -20z" />
    <glyph glyph-name="uni1ED8" unicode="&#x1ed8;" horiz-adv-x="761" 
d="M322 -151v108h116v-108h-116zM381 530q-39 0 -72.5 -15t-57.5 -41t-38 -61.5t-14 -77.5t14 -78.5t38.5 -63t58.5 -41.5t73 -15q38 0 71 15t57 41t38 62t14 77q0 42 -14 78t-38.5 63t-57.5 42t-72 15zM381 762l-36 -51h-127l105 120h119l101 -120h-126zM379 -13
q-74 0 -138 26.5t-111 73t-74 109.5t-27 136q0 74 27 137.5t74 110.5t111 73.5t138 26.5q75 0 139.5 -27t112 -73.5t75 -110t27.5 -136.5t-27.5 -136t-75 -109.5t-112 -73.5t-139.5 -27z" />
    <glyph glyph-name="uni1ED9" unicode="&#x1ed9;" horiz-adv-x="595" 
d="M239 -151v108h116v-108h-116zM298 377q-26 0 -48 -10t-38 -27t-25.5 -40t-9.5 -49q0 -27 9 -50.5t25.5 -41t38.5 -27t48 -9.5q25 0 47 9.5t38 27t25 40.5t9 50t-9.5 50t-25.5 40t-37.5 27t-46.5 10zM298 595l-33 -46h-114l106 119h83l104 -119h-113zM298 -17
q-59 0 -108.5 20t-85.5 55t-56.5 83.5t-20.5 105.5q0 58 20 107.5t56 85.5t85.5 56.5t108.5 20.5q58 0 107.5 -20t85.5 -56t56.5 -85t20.5 -106t-20.5 -106t-56.5 -85t-85 -56t-107 -20z" />
    <glyph glyph-name="uni1EDA" unicode="&#x1eda;" horiz-adv-x="761" 
d="M379 -13q-74 0 -138 26.5t-111 73t-74 109.5t-27 136q0 74 27 137.5t74 110.5t111 73.5t138 26.5q75 0 139 -27q45 -19 82 -48q27 30 27 94v15h96v-15q0 -42 -17.5 -81t-49.5 -68q30 -36 49 -81q28 -63 28 -136t-27.5 -136t-75 -109.5t-112 -73.5t-139.5 -27zM381 530
q-39 0 -72.5 -15t-57.5 -41t-38 -61.5t-14 -77.5t14 -78.5t38.5 -63t58.5 -41.5t73 -15q38 0 71 15t57 41t38 62t14 77q0 42 -14 78t-38.5 63t-57.5 42t-72 15zM469 886l41 -91l-198 -87l-35 74z" />
    <glyph glyph-name="uni1EDB" unicode="&#x1edb;" horiz-adv-x="595" 
d="M298 -17q-59 0 -108.5 20t-85.5 55t-56.5 83.5t-20.5 105.5q0 58 20 107.5t56 85.5t85.5 56.5t108.5 20.5q58 0 107 -20q37 -15 66 -39q20 24 20 72v12h77v-12q0 -32 -14 -63.5t-39 -54.5q19 -25 32 -56q21 -49 21 -106t-20.5 -106t-56.5 -85t-85 -56t-107 -20zM298 377
q-26 0 -48 -10t-38 -27t-25.5 -40t-9.5 -49q0 -27 9 -50.5t25.5 -41t38.5 -27t48 -9.5q25 0 47 9.5t38 27t25 40.5t9 50t-9.5 50t-25.5 40t-37.5 27t-46.5 10zM385 719l41 -91l-198 -87l-35 74z" />
    <glyph glyph-name="uni1EDC" unicode="&#x1edc;" horiz-adv-x="761" 
d="M379 -13q-74 0 -138 26.5t-111 73t-74 109.5t-27 136q0 74 27 137.5t74 110.5t111 73.5t138 26.5q75 0 139 -27q45 -19 82 -48q27 30 27 94v15h96v-15q0 -42 -17.5 -81t-49.5 -68q30 -36 49 -81q28 -63 28 -136t-27.5 -136t-75 -109.5t-112 -73.5t-139.5 -27zM381 530
q-39 0 -72.5 -15t-57.5 -41t-38 -61.5t-14 -77.5t14 -78.5t38.5 -63t58.5 -41.5t73 -15q38 0 71 15t57 41t38 62t14 77q0 42 -14 78t-38.5 63t-57.5 42t-72 15zM316 888l193 -104l-36 -74l-197 87z" />
    <glyph glyph-name="uni1EDD" unicode="&#x1edd;" horiz-adv-x="595" 
d="M298 -17q-59 0 -108.5 20t-85.5 55t-56.5 83.5t-20.5 105.5q0 58 20 107.5t56 85.5t85.5 56.5t108.5 20.5q58 0 107 -20q37 -15 66 -39q20 24 20 72v12h77v-12q0 -32 -14 -63.5t-39 -54.5q19 -25 32 -56q21 -49 21 -106t-20.5 -106t-56.5 -85t-85 -56t-107 -20zM298 377
q-26 0 -48 -10t-38 -27t-25.5 -40t-9.5 -49q0 -27 9 -50.5t25.5 -41t38.5 -27t48 -9.5q25 0 47 9.5t38 27t25 40.5t9 50t-9.5 50t-25.5 40t-37.5 27t-46.5 10zM231 721l193 -104l-36 -74l-197 87z" />
    <glyph glyph-name="uni1EDE" unicode="&#x1ede;" horiz-adv-x="761" 
d="M379 -13q-74 0 -138 26.5t-111 73t-74 109.5t-27 136q0 74 27 137.5t74 110.5t111 73.5t138 26.5q75 0 139 -27q45 -19 82 -48q27 30 27 94v15h96v-15q0 -42 -17.5 -81t-49.5 -68q30 -36 49 -81q28 -63 28 -136t-27.5 -136t-75 -109.5t-112 -73.5t-139.5 -27zM381 530
q-39 0 -72.5 -15t-57.5 -41t-38 -61.5t-14 -77.5t14 -78.5t38.5 -63t58.5 -41.5t73 -15q38 0 71 15t57 41t38 62t14 77q0 42 -14 78t-38.5 63t-57.5 42t-72 15zM413 735h-68q-1 24 0 34q2 11 6.5 20.5t14.5 18.5l13 12q8 7 15.5 14.5t7.5 15.5q0 18 -9 24.5t-20 6.5
q-13 0 -22 -7t-9 -25h-64q-5 43 20 72t72 31q25 1 44 -6t31.5 -19t19.5 -27.5t7 -33.5q1 -26 -9.5 -40.5t-20.5 -25.5l-15 -15q-6 -6 -9 -10.5t-4 -9.5t-1 -11.5v-16.5v-2z" />
    <glyph glyph-name="uni1EDF" unicode="&#x1edf;" horiz-adv-x="595" 
d="M298 -17q-59 0 -108.5 20t-85.5 55t-56.5 83.5t-20.5 105.5q0 58 20 107.5t56 85.5t85.5 56.5t108.5 20.5q58 0 107 -20q37 -15 66 -39q20 24 20 72v12h77v-12q0 -32 -14 -63.5t-39 -54.5q19 -25 32 -56q21 -49 21 -106t-20.5 -106t-56.5 -85t-85 -56t-107 -20zM298 377
q-26 0 -48 -10t-38 -27t-25.5 -40t-9.5 -49q0 -27 9 -50.5t25.5 -41t38.5 -27t48 -9.5q25 0 47 9.5t38 27t25 40.5t9 50t-9.5 50t-25.5 40t-37.5 27t-46.5 10zM336 562h-68q-1 24 0 34q2 11 6.5 20.5t14.5 18.5l13 12q8 7 15.5 14.5t7.5 15.5q0 18 -9 24.5t-20 6.5
q-13 0 -22 -7t-9 -25h-64q-5 43 20 72t72 31q25 1 44 -6t31.5 -19t19.5 -27.5t7 -33.5q1 -26 -9.5 -40.5t-20.5 -25.5l-15 -15q-6 -6 -9 -10.5t-4 -9.5t-1 -11.5v-16.5v-2z" />
    <glyph glyph-name="uni1EE0" unicode="&#x1ee0;" horiz-adv-x="761" 
d="M379 -13q-74 0 -138 26.5t-111 73t-74 109.5t-27 136q0 74 27 137.5t74 110.5t111 73.5t138 26.5q75 0 139 -27q45 -19 82 -48q27 30 27 94v15h96v-15q0 -42 -17.5 -81t-49.5 -68q30 -36 49 -81q28 -63 28 -136t-27.5 -136t-75 -109.5t-112 -73.5t-139.5 -27zM381 530
q-39 0 -72.5 -15t-57.5 -41t-38 -61.5t-14 -77.5t14 -78.5t38.5 -63t58.5 -41.5t73 -15q38 0 71 15t57 41t38 62t14 77q0 42 -14 78t-38.5 63t-57.5 42t-72 15zM431 831q15 0 25 2t29 10l44 -62q-42 -27 -86 -27q-18 0 -40 5l-23 5q-32 8 -50 8q-12 0 -24 -2.5t-31 -10.5
l-44 64q48 26 81 26q11 0 24 -2t35 -8q23 -5 34.5 -6.5t25.5 -1.5z" />
    <glyph glyph-name="uni1EE1" unicode="&#x1ee1;" horiz-adv-x="595" 
d="M298 -17q-59 0 -108.5 20t-85.5 55t-56.5 83.5t-20.5 105.5q0 58 20 107.5t56 85.5t85.5 56.5t108.5 20.5q58 0 107 -20q37 -15 66 -39q20 24 20 72v12h77v-12q0 -32 -14 -63.5t-39 -54.5q19 -25 32 -56q21 -49 21 -106t-20.5 -106t-56.5 -85t-85 -56t-107 -20zM298 377
q-26 0 -48 -10t-38 -27t-25.5 -40t-9.5 -49q0 -27 9 -50.5t25.5 -41t38.5 -27t48 -9.5q25 0 47 9.5t38 27t25 40.5t9 50t-9.5 50t-25.5 40t-37.5 27t-46.5 10zM348 664q15 0 25 2t29 10l44 -62q-42 -27 -86 -27q-18 0 -40 5l-23 5q-32 8 -50 8q-12 0 -24 -2.5t-31 -10.5
l-44 64q48 26 81 26q11 0 24 -2t35 -8q23 -5 34.5 -6.5t25.5 -1.5z" />
    <glyph glyph-name="uni1EE2" unicode="&#x1ee2;" horiz-adv-x="761" 
d="M379 -13q-74 0 -138 26.5t-111 73t-74 109.5t-27 136q0 74 27 137.5t74 110.5t111 73.5t138 26.5q75 0 139 -27q45 -19 82 -48q27 30 27 94v15h96v-15q0 -42 -17.5 -81t-49.5 -68q30 -36 49 -81q28 -63 28 -136t-27.5 -136t-75 -109.5t-112 -73.5t-139.5 -27zM381 530
q-39 0 -72.5 -15t-57.5 -41t-38 -61.5t-14 -77.5t14 -78.5t38.5 -63t58.5 -41.5t73 -15q38 0 71 15t57 41t38 62t14 77q0 42 -14 78t-38.5 63t-57.5 42t-72 15zM322 -151v108h116v-108h-116z" />
    <glyph glyph-name="uni1EE3" unicode="&#x1ee3;" horiz-adv-x="595" 
d="M298 -17q-59 0 -108.5 20t-85.5 55t-56.5 83.5t-20.5 105.5q0 58 20 107.5t56 85.5t85.5 56.5t108.5 20.5q58 0 107 -20q37 -15 66 -39q20 24 20 72v12h77v-12q0 -32 -14 -63.5t-39 -54.5q19 -25 32 -56q21 -49 21 -106t-20.5 -106t-56.5 -85t-85 -56t-107 -20zM298 377
q-26 0 -48 -10t-38 -27t-25.5 -40t-9.5 -49q0 -27 9 -50.5t25.5 -41t38.5 -27t48 -9.5q25 0 47 9.5t38 27t25 40.5t9 50t-9.5 50t-25.5 40t-37.5 27t-46.5 10zM239 -151v108h116v-108h-116z" />
    <glyph glyph-name="uni1EE4" unicode="&#x1ee4;" horiz-adv-x="612" 
d="M50 667h170v-404q0 -66 20.5 -96t66.5 -30q47 0 66 28t19 98v404h170v-404q0 -74 -15 -120.5t-51 -83.5q-71 -72 -189 -72q-59 0 -107 18t-83 53q-19 19 -32 38.5t-20.5 43.5t-11 53.5t-3.5 69.5v404zM248 -151v108h116v-108h-116z" />
    <glyph glyph-name="uni1EE5" unicode="&#x1ee5;" horiz-adv-x="562" 
d="M512 500v-500h-142v53q-35 -70 -132 -70q-91 0 -146 63q-13 15 -21.5 30t-14 33t-7.5 40t-2 52v299h150v-279q0 -52 19 -75t61 -23q41 0 63 25.5t22 72.5v279h150zM223 -151v108h116v-108h-116z" />
    <glyph glyph-name="uni1EE6" unicode="&#x1ee6;" horiz-adv-x="612" 
d="M50 667h170v-404q0 -66 20.5 -96t66.5 -30q47 0 66 28t19 98v404h170v-404q0 -74 -15 -120.5t-51 -83.5q-71 -72 -189 -72q-59 0 -107 18t-83 53q-19 19 -32 38.5t-20.5 43.5t-11 53.5t-3.5 69.5v404zM337 712h-68q-1 24 0 34q2 11 6.5 20.5t14.5 18.5l13 12
q8 7 15.5 14.5t7.5 15.5q0 18 -9 24.5t-20 6.5q-13 0 -22 -7t-9 -25h-64q-5 43 20 72t72 31q25 1 44 -6t31.5 -19t19.5 -27.5t7 -33.5q1 -26 -9.5 -40.5t-20.5 -25.5l-15 -15q-6 -6 -9 -10.5t-4 -9.5t-1 -11.5v-16.5v-2z" />
    <glyph glyph-name="uni1EE7" unicode="&#x1ee7;" horiz-adv-x="562" 
d="M512 500v-500h-142v53q-35 -70 -132 -70q-91 0 -146 63q-13 15 -21.5 30t-14 33t-7.5 40t-2 52v299h150v-279q0 -52 19 -75t61 -23q41 0 63 25.5t22 72.5v279h150zM312 547h-68q-1 24 0 34q2 11 6.5 20.5t14.5 18.5l13 12q8 7 15.5 14.5t7.5 15.5q0 18 -9 24.5t-20 6.5
q-13 0 -22 -7t-9 -25h-64q-5 43 20 72t72 31q25 1 44 -6t31.5 -19t19.5 -27.5t7 -33.5q1 -26 -9.5 -40.5t-20.5 -25.5l-15 -15q-6 -6 -9 -10.5t-4 -9.5t-1 -11.5v-16.5v-2z" />
    <glyph glyph-name="uni1EE8" unicode="&#x1ee8;" horiz-adv-x="612" 
d="M50 667h170v-404q0 -66 20.5 -96t66.5 -30q47 0 66 28t19 98v404h170v-62q20 15 28.5 41t8.5 62v15h96v-15q0 -30 -9.5 -59.5t-27 -54.5t-42 -44.5t-54.5 -31.5v-255q0 -74 -15 -120.5t-51 -83.5q-71 -72 -189 -72q-59 0 -107 18t-83 53q-19 19 -32 38.5t-20.5 43.5
t-11 53.5t-3.5 69.5v404zM390 890l41 -91l-198 -87l-35 74z" />
    <glyph glyph-name="uni1EE9" unicode="&#x1ee9;" horiz-adv-x="562" 
d="M512 500v-53q17 12 23.5 32.5t6.5 49.5v12h77v-12q0 -48 -29.5 -90.5t-77.5 -61.5v-377h-142v53q-35 -70 -132 -70q-91 0 -146 63q-13 15 -21.5 30t-14 33t-7.5 40t-2 52v299h150v-279q0 -52 19 -75t61 -23q41 0 63 25.5t22 72.5v279h150zM358 719l41 -91l-198 -87
l-35 74z" />
    <glyph glyph-name="uni1EEA" unicode="&#x1eea;" horiz-adv-x="612" 
d="M50 667h170v-404q0 -66 20.5 -96t66.5 -30q47 0 66 28t19 98v404h170v-62q20 15 28.5 41t8.5 62v15h96v-15q0 -30 -9.5 -59.5t-27 -54.5t-42 -44.5t-54.5 -31.5v-255q0 -74 -15 -120.5t-51 -83.5q-71 -72 -189 -72q-59 0 -107 18t-83 53q-19 19 -32 38.5t-20.5 43.5
t-11 53.5t-3.5 69.5v404zM229 888l193 -104l-36 -74l-197 87z" />
    <glyph glyph-name="uni1EEB" unicode="&#x1eeb;" horiz-adv-x="562" 
d="M512 500v-53q17 12 23.5 32.5t6.5 49.5v12h77v-12q0 -48 -29.5 -90.5t-77.5 -61.5v-377h-142v53q-35 -70 -132 -70q-91 0 -146 63q-13 15 -21.5 30t-14 33t-7.5 40t-2 52v299h150v-279q0 -52 19 -75t61 -23q41 0 63 25.5t22 72.5v279h150zM204 721l193 -104l-36 -74
l-197 87z" />
    <glyph glyph-name="uni1EEC" unicode="&#x1eec;" horiz-adv-x="612" 
d="M50 667h170v-404q0 -66 20.5 -96t66.5 -30q47 0 66 28t19 98v404h170v-62q20 15 28.5 41t8.5 62v15h96v-15q0 -30 -9.5 -59.5t-27 -54.5t-42 -44.5t-54.5 -31.5v-255q0 -74 -15 -120.5t-51 -83.5q-71 -72 -189 -72q-59 0 -107 18t-83 53q-19 19 -32 38.5t-20.5 43.5
t-11 53.5t-3.5 69.5v404zM337 704h-68q-1 24 0 34q2 11 6.5 20.5t14.5 18.5l13 12q8 7 15.5 14.5t7.5 15.5q0 18 -9 24.5t-20 6.5q-13 0 -22 -7t-9 -25h-64q-5 43 20 72t72 31q25 1 44 -6t31.5 -19t19.5 -27.5t7 -33.5q1 -26 -9.5 -40.5t-20.5 -25.5l-15 -15q-6 -6 -9 -10.5
t-4 -9.5t-1 -11.5v-16.5v-2z" />
    <glyph glyph-name="uni1EED" unicode="&#x1eed;" horiz-adv-x="562" 
d="M512 500v-53q17 12 23.5 32.5t6.5 49.5v12h77v-12q0 -48 -29.5 -90.5t-77.5 -61.5v-377h-142v53q-35 -70 -132 -70q-91 0 -146 63q-13 15 -21.5 30t-14 33t-7.5 40t-2 52v299h150v-279q0 -52 19 -75t61 -23q41 0 63 25.5t22 72.5v279h150zM312 537h-68q-1 24 0 34
q2 11 6.5 20.5t14.5 18.5l13 12q8 7 15.5 14.5t7.5 15.5q0 18 -9 24.5t-20 6.5q-13 0 -22 -7t-9 -25h-64q-5 43 20 72t72 31q25 1 44 -6t31.5 -19t19.5 -27.5t7 -33.5q1 -26 -9.5 -40.5t-20.5 -25.5l-15 -15q-6 -6 -9 -10.5t-4 -9.5t-1 -11.5v-16.5v-2z" />
    <glyph glyph-name="uni1EEE" unicode="&#x1eee;" horiz-adv-x="612" 
d="M50 667h170v-404q0 -66 20.5 -96t66.5 -30q47 0 66 28t19 98v404h170v-62q20 15 28.5 41t8.5 62v15h96v-15q0 -30 -9.5 -59.5t-27 -54.5t-42 -44.5t-54.5 -31.5v-255q0 -74 -15 -120.5t-51 -83.5q-71 -72 -189 -72q-59 0 -107 18t-83 53q-19 19 -32 38.5t-20.5 43.5
t-11 53.5t-3.5 69.5v404zM357 819q15 0 25 2t29 10l44 -62q-42 -27 -86 -27q-18 0 -40 5l-23 5q-32 8 -50 8q-12 0 -24 -2.5t-31 -10.5l-44 64q48 26 81 26q11 0 24 -2t35 -8q23 -5 34.5 -6.5t25.5 -1.5z" />
    <glyph glyph-name="uni1EEF" unicode="&#x1eef;" horiz-adv-x="562" 
d="M512 500v-53q17 12 23.5 32.5t6.5 49.5v12h77v-12q0 -48 -29.5 -90.5t-77.5 -61.5v-377h-142v53q-35 -70 -132 -70q-91 0 -146 63q-13 15 -21.5 30t-14 33t-7.5 40t-2 52v299h150v-279q0 -52 19 -75t61 -23q41 0 63 25.5t22 72.5v279h150zM332 649q15 0 25 2t29 10
l44 -62q-42 -27 -86 -27q-18 0 -40 5l-23 5q-32 8 -50 8q-12 0 -24 -2.5t-31 -10.5l-44 64q48 26 81 26q11 0 24 -2t35 -8q23 -5 34.5 -6.5t25.5 -1.5z" />
    <glyph glyph-name="uni1EF0" unicode="&#x1ef0;" horiz-adv-x="612" 
d="M50 667h170v-404q0 -66 20.5 -96t66.5 -30q47 0 66 28t19 98v404h170v-62q20 15 28.5 41t8.5 62v15h96v-15q0 -30 -9.5 -59.5t-27 -54.5t-42 -44.5t-54.5 -31.5v-255q0 -74 -15 -120.5t-51 -83.5q-71 -72 -189 -72q-59 0 -107 18t-83 53q-19 19 -32 38.5t-20.5 43.5
t-11 53.5t-3.5 69.5v404zM248 -151v108h116v-108h-116z" />
    <glyph glyph-name="uni1EF1" unicode="&#x1ef1;" horiz-adv-x="562" 
d="M512 500v-53q17 12 23.5 32.5t6.5 49.5v12h77v-12q0 -48 -29.5 -90.5t-77.5 -61.5v-377h-142v53q-35 -70 -132 -70q-91 0 -146 63q-13 15 -21.5 30t-14 33t-7.5 40t-2 52v299h150v-279q0 -52 19 -75t61 -23q41 0 63 25.5t22 72.5v279h150zM223 -151v108h116v-108h-116z
" />
    <glyph glyph-name="uni1EF2" unicode="&#x1ef2;" horiz-adv-x="547" 
d="M189 0v243l-199 424h185l99 -268l100 268h183l-198 -424v-243h-170zM171 879l193 -104l-36 -74l-197 87z" />
    <glyph glyph-name="uni1EF3" unicode="&#x1ef3;" horiz-adv-x="496" 
d="M347 500h159l-251 -667h-158l79 192l-186 475h159l101 -290zM154 723l193 -104l-36 -74l-197 87z" />
    <glyph glyph-name="uni1EF4" unicode="&#x1ef4;" horiz-adv-x="547" 
d="M189 0v243l-199 424h185l99 -268l100 268h183l-198 -424v-243h-170zM215 -151v108h116v-108h-116z" />
    <glyph glyph-name="uni1EF5" unicode="&#x1ef5;" horiz-adv-x="496" 
d="M347 500h159l-251 -667h-158l79 192l-186 475h159l101 -290zM332 -151v108h116v-108h-116z" />
    <glyph glyph-name="uni1EF6" unicode="&#x1ef6;" horiz-adv-x="547" 
d="M189 0v243l-199 424h185l99 -268l100 268h183l-198 -424v-243h-170zM304 704h-68q-1 24 0 34q2 11 6.5 20.5t14.5 18.5l13 12q8 7 15.5 14.5t7.5 15.5q0 18 -9 24.5t-20 6.5q-13 0 -22 -7t-9 -25h-64q-5 43 20 72t72 31q25 1 44 -6t31.5 -19t19.5 -27.5t7 -33.5
q1 -26 -9.5 -40.5t-20.5 -25.5l-15 -15q-6 -6 -9 -10.5t-4 -9.5t-1 -11.5v-16.5v-2z" />
    <glyph glyph-name="uni1EF7" unicode="&#x1ef7;" horiz-adv-x="496" 
d="M347 500h159l-251 -667h-158l79 192l-186 475h159l101 -290zM279 537h-68q-1 24 0 34q2 11 6.5 20.5t14.5 18.5l13 12q8 7 15.5 14.5t7.5 15.5q0 18 -9 24.5t-20 6.5q-13 0 -22 -7t-9 -25h-64q-5 43 20 72t72 31q25 1 44 -6t31.5 -19t19.5 -27.5t7 -33.5
q1 -26 -9.5 -40.5t-20.5 -25.5l-15 -15q-6 -6 -9 -10.5t-4 -9.5t-1 -11.5v-16.5v-2z" />
    <glyph glyph-name="uni1EF8" unicode="&#x1ef8;" horiz-adv-x="547" 
d="M189 0v243l-199 424h185l99 -268l100 268h183l-198 -424v-243h-170zM324 815q15 0 25 2t29 10l44 -62q-42 -27 -86 -27q-18 0 -40 5l-23 5q-32 8 -50 8q-12 0 -24 -2.5t-31 -10.5l-44 64q48 26 81 26q11 0 24 -2t35 -8q23 -5 34.5 -6.5t25.5 -1.5z" />
    <glyph glyph-name="uni1EF9" unicode="&#x1ef9;" horiz-adv-x="496" 
d="M347 500h159l-251 -667h-158l79 192l-186 475h159l101 -290zM300 642q15 0 25 2t29 10l44 -62q-42 -27 -86 -27q-18 0 -40 5l-23 5q-32 8 -50 8q-12 0 -24 -2.5t-31 -10.5l-44 64q48 26 81 26q11 0 24 -2t35 -8q23 -5 34.5 -6.5t25.5 -1.5z" />
    <glyph glyph-name="endash" unicode="&#x2013;" 
d="M33 398h434v-117h-434v117z" />
    <glyph glyph-name="emdash" unicode="&#x2014;" horiz-adv-x="767" 
d="M767 320v-127h-767v127h767z" />
    <glyph glyph-name="quoteleft" unicode="&#x2018;" horiz-adv-x="262" 
d="M53 368v190q0 49 25 79t67 30h64v-81h-31q-17 0 -28 -9t-11 -25v-30h70v-154h-156z" />
    <glyph glyph-name="quoteright" unicode="&#x2019;" horiz-adv-x="262" 
d="M209 667v-190q0 -49 -25 -79t-67 -30h-64v81h31q17 0 28 9t11 25v30h-70v154h156z" />
    <glyph glyph-name="quotesinglbase" unicode="&#x201a;" horiz-adv-x="262" 
d="M209 153v-189q0 -49 -25 -79t-67 -30h-64v80h31q17 0 28 9.5t11 24.5v31h-70v153h156z" />
    <glyph glyph-name="quotedblleft" unicode="&#x201c;" horiz-adv-x="485" 
d="M53 368v190q0 49 25 79t67 30h64v-81h-31q-17 0 -28 -9t-11 -25v-30h70v-154h-156zM276 368v190q0 49 25 79t67 30h63v-81h-31q-17 0 -27.5 -9t-10.5 -25v-30h69v-154h-155z" />
    <glyph glyph-name="quotedblright" unicode="&#x201d;" horiz-adv-x="485" 
d="M431 667v-190q0 -49 -24.5 -79t-66.5 -30h-64v81h31q17 0 28 9t11 25v30h-70v154h155zM209 667v-190q0 -49 -25 -79t-67 -30h-64v81h31q17 0 28 9t11 25v30h-70v154h156z" />
    <glyph glyph-name="quotedblbase" unicode="&#x201e;" horiz-adv-x="485" 
d="M431 153v-189q0 -49 -24.5 -79t-66.5 -30h-64v80h31q17 0 28 9.5t11 24.5v31h-70v153h155zM209 153v-189q0 -49 -25 -79t-67 -30h-64v80h31q17 0 28 9.5t11 24.5v31h-70v153h156z" />
    <glyph glyph-name="dagger" unicode="&#x2020;" horiz-adv-x="550" 
d="M349 667v-166h149v-130h-149v-538h-148v538h-149v130h149v166h148z" />
    <glyph glyph-name="daggerdbl" unicode="&#x2021;" horiz-adv-x="550" 
d="M349 667v-166h149v-130h-149v-242h149v-130h-149v-166h-148v166h-149v130h149v242h-149v130h149v166h148z" />
    <glyph glyph-name="bullet" unicode="&#x2022;" horiz-adv-x="667" 
d="M196 340q0 29 11 54.5t29.5 44.5t43.5 30t54 11q28 0 53 -11t43.5 -30t29.5 -44.5t11 -54.5t-11 -54.5t-29.5 -44.5t-43.5 -30t-53 -11q-29 0 -54 11t-43.5 30t-29.5 44.5t-11 54.5z" />
    <glyph glyph-name="ellipsis" unicode="&#x2026;" horiz-adv-x="786" 
d="M733 153v-153h-156v153h156zM471 153v-153h-156v153h156zM209 153v-153h-156v153h156z" />
    <glyph glyph-name="perthousand" unicode="&#x2030;" horiz-adv-x="1167" 
d="M974 210q-26 0 -43 -17.5t-17 -43.5q0 -27 17 -45t43 -18q25 0 42 18t17 44t-17.5 44t-41.5 18zM607 210q-25 0 -42.5 -17.5t-17.5 -43.5q0 -27 17 -45t43 -18t42.5 18t16.5 44t-17 44t-42 18zM194 580q-26 0 -43 -17.5t-17 -43.5t17 -44t43 -18q25 0 42 18t17 44
t-17.5 43.5t-41.5 17.5zM974 -13q-36 0 -66 12t-51.5 33t-34 50t-12.5 64q0 36 12 66t34 51.5t52 34t65 12.5t65 -12t52 -34t34.5 -51.5t12.5 -64.5t-12.5 -64t-34 -51t-51.5 -34t-65 -12zM487 667h106l-280 -667h-106zM607 -13q-36 0 -66 12t-51.5 33t-34 50t-12.5 64
q0 36 12.5 66t34 51.5t51.5 34t66 12.5q35 0 65 -12t51.5 -34t34 -51.5t12.5 -64.5t-12.5 -64t-34 -51t-51.5 -34t-65 -12zM194 357q-36 0 -66 12t-51.5 33.5t-34 50.5t-12.5 64t12 65t34 51.5t52 34t65 12.5t65 -12t52 -34t34.5 -51.5t12.5 -63.5q0 -35 -12.5 -64.5
t-34 -51.5t-51.5 -34t-65 -12z" />
    <glyph glyph-name="guilsinglleft" unicode="&#x2039;" horiz-adv-x="189" 
d="M149 441v-140l-46 -41l46 -42v-132l-116 115v115z" />
    <glyph glyph-name="guilsinglright" unicode="&#x203a;" horiz-adv-x="189" 
d="M40 86v133l46 41l-46 42v132l116 -118v-116z" />
    <glyph glyph-name="fraction" unicode="&#x2044;" horiz-adv-x="145" 
d="M160 667h105l-280 -667h-105z" />
    <glyph glyph-name="fraction" unicode="&#x2215;" horiz-adv-x="145" 
d="M160 667h105l-280 -667h-105z" />
    <glyph glyph-name="trademark" unicode="&#x2122;" horiz-adv-x="817" 
d="M314 287v380h143l82 -239l80 239h145v-380h-106l4 262l-86 -262h-75l-85 262l3 -262h-105zM93 287v289h-83v91h280v-91h-83v-289h-114z" />
    <glyph glyph-name="partialdiff" unicode="&#x2202;" 
d="M243 326h-10q-41 -5 -67 -35t-26 -74q0 -24 8 -44.5t22 -35.5t33 -23.5t41 -8.5q45 0 74.5 32t29.5 80t-29.5 78.5t-75.5 30.5zM221 510q-35 19 -73 29.5t-91 15.5l16 110q50 -6 91 -14.5t75.5 -21.5t63.5 -30.5t56 -40.5q62 -54 94.5 -128t32.5 -162q0 -63 -17.5 -114
t-49.5 -87.5t-77.5 -56t-100.5 -19.5q-48 0 -90.5 18t-73.5 48.5t-49 72.5t-18 90q0 45 16 83.5t43.5 67t65 45t81.5 16.5q76 0 123 -47q-20 44 -47.5 73t-70.5 52z" />
    <glyph glyph-name="product" unicode="&#x220f;" horiz-adv-x="731" 
d="M40 750h652v-114h-82v-772h82v-114h-291v114h80v772h-231v-772h79v-114h-289v114h83v772h-83v114z" />
    <glyph glyph-name="summation" unicode="&#x2211;" horiz-adv-x="667" 
d="M619 750v-246h-114l-13 132h-328l250 -369l-250 -403h337l8 135h119v-249h-607v127l244 390l-244 356v127h598z" />
    <glyph glyph-name="minus" unicode="&#x2212;" horiz-adv-x="549" 
d="M46 267h457v-62h-457v62z" />
    <glyph glyph-name="radical" unicode="&#x221a;" horiz-adv-x="667" 
d="M667 827v-114h-180l-168 -713h-167l-58 272h-94v114h198l19 -87q2 -9 4 -26t4.5 -37.5t4 -42t2.5 -39.5h10q1 22 2.5 36t4.5 37q3 27 7.5 56.5t10 58.5t11 56t10.5 49l89 380h290z" />
    <glyph glyph-name="infinity" unicode="&#x221e;" horiz-adv-x="667" 
d="M200 290q19 0 35 11.5t36 37.5q-19 26 -35.5 37.5t-36.5 11.5q-22 0 -37 -14.5t-15 -34.5t15.5 -34.5t37.5 -14.5zM467 388q-19 0 -35.5 -11.5t-35.5 -37.5q19 -26 35.5 -37t35.5 -11q23 0 37.5 14t14.5 35q0 20 -15 34t-37 14zM488 177q-84 0 -151 80q-38 -42 -75.5 -61
t-82.5 -19q-36 0 -65.5 12t-51 33.5t-33.5 51t-12 65.5t12 65.5t33.5 51.5t51 34t64.5 12q43 0 79 -19t74 -61q68 80 156 80q36 0 66 -12t51.5 -33.5t33.5 -51t12 -65.5t-12 -65.5t-33.5 -51.5t-51 -34t-65.5 -12z" />
    <glyph glyph-name="integral" unicode="&#x222b;" 
d="M141 -250q-23 0 -43.5 2.5t-48.5 7.5l23 113q22 -7 31.5 -8.5t23.5 -1.5q17 0 28.5 4t18 14t9 27.5t2.5 43.5v44v484q0 55 1 90t5 57t10.5 36t18.5 29q24 30 58.5 44t82.5 14q20 0 38.5 -2t51.5 -8l-23 -113q-22 7 -32 8.5t-24 1.5q-29 0 -43 -16.5t-14 -54.5v-61v-66
v-419q0 -55 -1 -89.5t-5 -57t-10.5 -36.5t-18.5 -28q-47 -59 -139 -59z" />
    <glyph glyph-name="approxequal" unicode="&#x2248;" 
d="M150 201q-25 0 -40 -13t-33 -49l-70 46q14 35 24.5 54t24.5 36q39 48 102 48q17 0 41.5 -6.5t62.5 -20.5q22 -8 35.5 -13t22.5 -7.5t15 -3t14 -0.5q24 0 39.5 11t32.5 41l72 -41q-13 -27 -23.5 -45.5t-21 -32t-22 -22.5t-26.5 -17q-32 -16 -65 -16q-8 0 -16.5 1.5
t-20 4.5t-27 8t-37.5 13t-35.5 12.5t-22 7t-14.5 3.5t-12 1zM150 402q-25 0 -39.5 -12.5t-33.5 -49.5l-70 46q14 35 24.5 54t24.5 36q37 48 102 48q18 0 42 -6.5t62 -20.5q22 -8 35.5 -13t22 -7.5t14.5 -3t14 -0.5q26 0 41 11t32 41l72 -41q-13 -27 -23.5 -46t-21 -32
t-22 -22.5t-26.5 -16.5q-31 -16 -65 -16q-8 0 -16.5 1.5t-20 4.5t-27 8t-37.5 13t-35.5 12.5t-22 7t-14.5 3.5t-12 1z" />
    <glyph glyph-name="notequal" unicode="&#x2260;" 
d="M263 470l54 108h100l-54 -108h104v-114h-155l-35 -68h190v-114h-241l-49 -97h-100l48 97h-91v114h142l35 68h-177v114h229z" />
    <glyph glyph-name="lessequal" unicode="&#x2264;" 
d="M467 117v-114h-434v114h434zM467 666v-119l-300 -142l299 -142l1 -118l-434 207v107z" />
    <glyph glyph-name="greaterequal" unicode="&#x2265;" 
d="M33 3v114h434v-114h-434zM33 145v118l300 143l-299 141l-1 119l434 -208v-106z" />
    <glyph glyph-name="lozenge" unicode="&#x25ca;" horiz-adv-x="667" 
d="M333 487l-111 -153l111 -154l112 154zM333 693l260 -359l-260 -360l-259 360z" />
    <glyph glyph-name="exclam" horiz-adv-x="295" 
d="M225 153v-153h-155v153h155zM225 667v-447h-155v447h155z" />
    <glyph glyph-name="apple" horiz-adv-x="667" 
d="M479 528q91 0 144 -71q-44 -34 -62 -66t-18 -74q0 -50 26 -89t73 -59q-38 -94 -82 -145t-87 -51q-10 0 -20 2.5t-20 6.5l-41 17q-10 4 -33 4q-15 0 -30.5 -1.5t-20.5 -3.5l-43 -18q-19 -8 -38 -8q-27 0 -55.5 21t-55.5 61q-40 59 -62 125.5t-22 126.5q0 49 13.5 89.5
t38.5 69.5t59.5 45t75.5 16q18 0 35.5 -4t41.5 -14q33 -12 48 -12q17 0 43 10q21 7 33.5 11.5t22 7t17.5 3t19 0.5zM332 518q2 73 40.5 118.5t107.5 54.5v-10q0 -33 -12 -62.5t-32.5 -52t-47 -35.5t-56.5 -13z" />
  </font>
</defs>
</svg>
