<?xml version="1.0" encoding="UTF-8"?>
<svg width="200pt" height="300pt" viewBox="0 0 200 300" xmlns="http://www.w3.org/2000/svg">
    <title>Khung ngoài cùng</title>
    <!-- <path d="M 0 300 L 200 300 L 200 0 L 0 0 Z" fill="red" /> -->
    <!-- <path d="M 2 298 L 198 298 L 198 2 L 2 2 Z" fill="white"/> -->
    <!-- <path d="M 80.132812 298 L 198 298 L 198 2 L 80.132812 2 Z" fill="white" /> -->

    <g transform="translate(0, -2)">
        <path
            d="M 198.109375 298.484375 L 1.6875 298.484375 L 1.6875 240.082031 L 69.3125 240.082031 C 71.027344 240.285156 79.847656 241.503906 80.132812 249.078125 C 80.132812 247.277344 80.644531 240.476562 88.152344 240.082031 L 198.082031 240.082031 Z"
            fill="red" />
    </g>
    <!-- khung vàng -->
    <!-- <path
        d="M 198.109375 298.484375 L 1.6875 298.484375 L 1.6875 240.082031 L 69.3125 240.082031 C 71.027344 240.285156 79.847656 241.503906 80.132812 249.078125 C 80.132812 247.277344 80.644531 240.476562 88.152344 240.082031 L 198.082031 240.082031 Z"
        fill="yellow" /> -->

</svg>