<svg width="200" height="300" viewBox="0 0 200 300" xmlns="http://www.w3.org/2000/svg">
  <g fill="#cf150f">
    <!-- Hàng chữ nhỏ phía dưới (các chữ H, I, O, M, v.v.) -->
    <path d="M 87.207031 265.945312 L 83.40625 265.945312 L 83.40625 254.960938 L 76.480469 254.960938 L 76.480469 284.472656 L 83.40625 284.472656 L 83.40625 271.839844 L 87.207031 271.839844 L 87.207031 284.472656 L 93.925781 284.472656 L 93.925781 254.960938 L 87.207031 254.960938 Z"/>
    <path d="M 112.578125 276.261719 L 114.175781 273.773438 L 117.230469 284.164062 L 124.453125 284.164062 L 118.679688 266.59375 L 124.453125 254.878906 L 117.109375 254.878906 L 112.617188 266.824219 L 112.617188 254.878906 L 106.125 254.878906 L 106.125 284.164062 L 112.578125 284.164062 Z"/>
    <path d="M 133.582031 271.839844 L 137.398438 271.839844 L 137.398438 284.472656 L 144.132812 284.472656 L 144.132812 254.960938 L 137.398438 254.960938 L 137.398438 265.945312 L 133.582031 265.945312 L 133.582031 254.960938 L 126.65625 254.960938 L 126.65625 284.472656 L 133.582031 284.472656 Z"/>
    <path d="M 173.480469 278.886719 L 178.433594 278.886719 L 178.960938 284.472656 L 186.398438 284.472656 L 180.664062 254.8125 L 171.65625 254.8125 L 166.246094 284.472656 L 172.75 284.472656 Z"/>
    <!-- Các path nhỏ khác tạo thành chữ còn lại -->
    <path d="M 48.726562 247.957031 L 43.328125 247.957031 L 41.761719 252.757812 L 45.359375 252.757812 Z"/>
    <path d="M 39.625 254.8125 L 34.214844 284.472656 L 40.789062 284.472656 L 41.503906 278.886719 L 46.398438 278.886719 L 46.941406 284.472656 L 54.3125 284.472656 L 48.605469 254.8125 Z"/>
    <!-- ... (các path còn lại của chữ dưới) -->
  </g>
</svg>