<?xml version="1.0" encoding="UTF-8"?>
<svg width="200pt" height="300pt" viewBox="0 0 200 300" xmlns="http://www.w3.org/2000/svg">
  <title>Nền đỏ bên phải và vùng cắt quanh ngôi sao</title>
  <path d="M 198.207031 238.433594 L 88.652344 238.433594 C 85.949219 238.570312 82.132812 238.433594 80.210938 243.289062 L 80.210938 223.527344 L 72.707031 223.527344 L 72.707031 216.210938 C 65.34375 214.46875 58.683594 210.542969 53.59375 204.945312 L 47.0625 208.707031 L 38.785156 194.355469 L 45.359375 190.570312 C 44.296875 187.023438 43.757812 183.339844 43.75 179.640625 C 43.746094 175.894531 44.304688 172.167969 45.414062 168.589844 L 38.785156 164.761719 L 47.0625 150.398438 L 53.703125 154.1875 C 58.785156 148.65625 65.402344 144.769531 72.707031 143.027344 L 72.707031 135.546875 L 80.160156 135.546875 L 80.160156 104.144531 L 37.675781 125.785156 L 80.160156 98.136719 L 80.160156 1.621094 L 198.207031 1.621094 Z" fill="#da251d"/>
</svg>