<svg width="200" height="300" viewBox="0 0 200 300" xmlns="http://www.w3.org/2000/svg">
  <g fill="#cf150f">
    <!-- V -->
    <path d="M 113.253906 24.25 C 113.253906 22.007812 111.4375 20.191406 109.195312 20.191406 L 101.554688 20.191406 L 101.554688 27.914062 L 100.488281 27.914062 L 100.488281 30.621094 L 101.554688 30.621094 L 101.554688 39.832031 L 109.222656 39.832031 C 111.464844 39.832031 113.28125 38.015625 113.28125 35.773438 L 113.28125 24.574219 Z"/>
    <path d="M 118.960938 41.886719 L 123.304688 41.886719 L 123.304688 44.496094 L 118.960938 44.496094 Z"/>
    <path d="M 119.4375 36.167969 L 122.734375 36.167969 L 123.074219 39.859375 L 128.066406 39.859375 L 124.195312 20.179688 L 118.21875 20.179688 L 114.632812 39.859375 L 118.960938 39.859375 Z"/>
    <path d="M 121.519531 23.886719 L 119.8125 33.082031 L 122.425781 33.082031 Z"/>
    
    <!-- I -->
    <path d="M 129.226562 20.179688 L 133.757812 20.179688 L 133.757812 39.859375 L 129.226562 39.859375 Z"/>
    
    <!-- E -->
    <path d="M 145.578125 31.433594 L 148.09375 31.433594 L 148.09375 39.859375 L 152.625 39.859375 L 152.625 20.179688 L 148.09375 20.179688 L 148.09375 27.511719 L 145.578125 27.511719 L 145.578125 20.179688 L 140.898438 20.179688 L 140.898438 39.859375 L 145.578125 39.859375 Z"/>
    
    <!-- T -->
    <path d="M 159.726562 40.035156 L 161.472656 40.035156 L 160.808594 40.035156 Z"/>
    <path d="M 158.578125 41.886719 L 162.90625 41.886719 L 162.90625 44.496094 L 158.578125 44.496094 Z"/>
    
    <!-- N -->
    <path d="M 166.707031 24.140625 C 166.542969 21.625 164 19.613281 160.808594 19.613281 C 157.617188 19.613281 154.910156 21.75 154.910156 24.386719 L 154.910156 35.285156 C 154.910156 37.625 156.980469 39.5625 159.726562 39.980469 L 161.472656 40.0625 C 164.40625 39.789062 166.691406 37.789062 166.71875 35.339844 L 166.71875 24.34375 Z"/>
    
    <!-- A -->
    <path d="M 174.359375 19.613281 C 171.101562 19.613281 168.449219 21.75 168.449219 24.386719 L 168.449219 35.285156 C 168.449219 37.925781 171.15625 40.074219 174.359375 40.074219 C 177.566406 40.074219 180.269531 37.925781 180.269531 35.285156 L 180.269531 31.945312 L 175.792969 31.945312 L 175.792969 35.339844 L 174.632812 36.695312 L 174.441406 36.695312 C 174.207031 36.695312 173.976562 36.628906 173.78125 36.503906 L 173.101562 24.441406 L 174.144531 23.15625 L 174.402344 23.15625 L 175.753906 24.507812 L 175.753906 27.441406 L 180.230469 27.441406 L 180.230469 24.34375 Z"/>
  </g>
</svg>