<?xml version="1.0" encoding="UTF-8"?>
<svg xmlns="http://www.w3.org/2000/svg" xmlns:xlink="http://www.w3.org/1999/xlink" width="200pt" height="300pt"
    viewBox="0 0 200 300" version="1.1">
    <!-- NHÓM 1: NỀN CỜ ĐỎ -->
    <g id="flag-background" class="layer">
        <path style="stroke:none;fill-rule:nonzero;fill:rgb(80.784314%,8.627451%,15.686275%);fill-opacity:1;"
            d="M 0.210938 300 L 199.789062 300 L 199.789062 0 L 0.210938 0 Z M 36.730469 32.203125 L 40.691406 20.03125 L 44.640625 32.203125 L 57.421875 32.203125 L 47.0625 39.710938 L 51.011719 51.882812 L 40.664062 44.347656 L 30.292969 51.9375 L 34.253906 39.765625 L 23.894531 32.257812 Z M 198.109375 298.484375 L 1.6875 298.484375 L 1.6875 240.082031 L 69.3125 240.082031 C 71.027344 240.285156 79.847656 241.503906 80.132812 249.078125 C 80.132812 247.277344 80.644531 240.476562 88.152344 240.082031 L 198.082031 240.082031 Z M 198.207031 238.433594 L 88.652344 238.433594 C 85.949219 238.570312 82.132812 238.433594 80.210938 243.289062 L 80.210938 223.527344 L 72.707031 223.527344 L 72.707031 216.210938 C 65.34375 214.46875 58.683594 210.542969 53.59375 204.945312 L 47.0625 208.707031 L 38.785156 194.355469 L 45.359375 190.570312 C 44.296875 187.023438 43.757812 183.339844 43.75 179.640625 C 43.746094 175.894531 44.304688 172.167969 45.414062 168.589844 L 38.785156 164.761719 L 47.0625 150.398438 L 53.703125 154.1875 C 58.785156 148.65625 65.402344 144.769531 72.707031 143.027344 L 72.707031 135.546875 L 80.160156 135.546875 L 80.160156 104.144531 L 37.675781 125.785156 L 80.160156 98.136719 L 80.160156 1.621094 L 198.207031 1.621094 Z M 198.207031 238.433594 " />
    </g>

    <!-- NHÓM 2: NGÔI SAO VÀNG CHÍNH (Các phần màu vàng của ngôi sao) -->
    <g id="main-star" class="layer">
        <!-- <path style=" stroke:none;fill-rule:nonzero;fill:rgb(95.294118%,75.686275%,3.137255%);fill-opacity:1;" d="M 78.496094 212.722656 L 77.277344 212.601562 L 76.101562 212.425781 C 74.964844 212.234375 73.816406 212.003906 72.707031 211.722656 C 66.75 210.101562 61.359375 206.855469 57.140625 202.347656 C 56.382812 201.5625 55.691406 200.738281 55.027344 199.902344 C 54.867188 199.671875 54.675781 199.425781 54.515625 199.183594 C 53.402344 197.675781 52.429688 196.066406 51.605469 194.382812 C 51.605469 194.273438 51.5 194.125 51.429688 194.003906 C 50.566406 192.171875 49.855469 190.273438 49.308594 188.324219 C 48.546875 185.492188 48.15625 182.574219 48.144531 179.640625 C 48.15625 176.660156 48.5625 173.695312 49.363281 170.820312 C 49.890625 168.890625 50.59375 167.011719 51.472656 165.207031 C 51.472656 165.074219 51.605469 164.925781 51.675781 164.777344 C 51.972656 164.234375 52.242188 163.679688 52.554688 163.140625 L 52.863281 162.625 C 53.378906 161.800781 53.90625 160.960938 54.5 160.164062 C 54.730469 159.839844 54.949219 159.542969 55.191406 159.246094 C 55.484375 158.84375 55.792969 158.460938 56.125 158.09375 C 56.582031 157.523438 57.074219 156.984375 57.597656 156.472656 C 61.757812 152.195312 66.996094 149.121094 72.761719 147.570312 C 73.855469 147.300781 74.964844 147.058594 76.101562 146.882812 L 77.304688 146.691406 L 78.523438 146.542969 L 80.1875 146.449219 L 80.1875 135.628906 L 72.707031 135.628906 L 72.707031 143.109375 C 65.410156 144.828125 58.792969 148.683594 53.703125 154.1875 L 47.0625 150.34375 L 38.785156 164.707031 L 45.414062 168.535156 C 44.304688 172.113281 43.746094 175.839844 43.75 179.585938 C 43.757812 183.289062 44.296875 186.96875 45.359375 190.515625 L 38.785156 194.300781 L 47.0625 208.652344 L 53.59375 204.890625 C 58.6875 210.488281 65.347656 214.417969 72.707031 216.171875 L 72.707031 223.476562 L 80.160156 223.476562 L 80.160156 212.777344 C 79.605469 212.777344 79.050781 212.777344 78.496094 212.667969 "/> -->
        <!-- <path style=" stroke:none;fill-rule:nonzero;fill:rgb(95.294118%,75.686275%,3.137255%);fill-opacity:1;" d="M 89.273438 216.402344 C 96.789062 214.761719 103.621094 210.863281 108.859375 205.230469 L 114.917969 208.71875 L 123.210938 194.367188 L 117.203125 190.921875 C 119.519531 183.542969 119.519531 175.632812 117.203125 168.253906 L 123.25 164.777344 L 114.917969 150.398438 L 108.722656 153.96875 C 106.992188 152.109375 105.074219 150.425781 103.003906 148.953125 L 100.648438 152.617188 C 102.886719 154.234375 104.914062 156.121094 106.679688 158.242188 L 107.25 158.933594 C 107.722656 159.515625 108.15625 160.097656 108.601562 160.707031 C 108.816406 161.070312 109.0625 161.433594 109.304688 161.789062 C 109.546875 162.140625 109.886719 162.734375 110.15625 163.222656 C 110.429688 163.707031 110.617188 164.03125 110.847656 164.480469 C 111.027344 164.800781 111.191406 165.136719 111.335938 165.480469 C 111.742188 166.335938 112.109375 167.210938 112.429688 168.101562 C 112.535156 168.320312 112.621094 168.546875 112.6875 168.78125 C 112.902344 169.375 113.078125 169.929688 113.253906 170.523438 C 114.128906 173.503906 114.585938 176.589844 114.605469 179.695312 C 114.605469 182.742188 114.183594 185.773438 113.347656 188.703125 C 113.1875 189.34375 112.984375 189.976562 112.742188 190.59375 C 112.742188 190.757812 112.632812 190.878906 112.578125 191.027344 C 112.214844 192.089844 111.789062 193.128906 111.308594 194.140625 C 111.183594 194.34375 111.089844 194.558594 110.980469 194.761719 C 110.738281 195.25 110.46875 195.761719 110.199219 196.234375 C 109.996094 196.597656 109.773438 196.953125 109.535156 197.289062 C 109.171875 197.886719 108.777344 198.453125 108.386719 199.046875 C 107.992188 199.644531 107.75 199.875 107.425781 200.304688 C 107.101562 200.738281 106.925781 200.929688 106.667969 201.226562 C 106.179688 201.820312 105.625 202.429688 105.070312 203 C 100.765625 207.363281 95.328125 210.445312 89.371094 211.898438 C 88.449219 212.113281 87.503906 212.304688 86.570312 212.4375 C 86.164062 212.519531 85.757812 212.601562 85.339844 212.65625 L 84.214844 212.734375 C 83.289062 212.828125 82.359375 212.875 81.429688 212.871094 L 80.253906 212.871094 L 80.253906 223.570312 L 89.371094 223.570312 Z M 89.273438 216.402344 "/> -->
        <!-- <path style=" stroke:none;fill-rule:nonzero;fill:rgb(95.294118%,75.686275%,3.137255%);fill-opacity:1;" d="M 81.363281 146.421875 C 82.324219 146.421875 83.230469 146.421875 84.148438 146.542969 L 85.269531 146.652344 L 86.625 146.867188 C 87.542969 147.03125 88.449219 147.179688 89.328125 147.410156 C 91.179688 147.867188 92.988281 148.480469 94.738281 149.234375 L 96.726562 145.339844 C 94.359375 144.269531 91.882812 143.457031 89.34375 142.90625 L 89.34375 135.601562 L 80.160156 135.601562 L 80.160156 146.421875 L 81.335938 146.421875 "/> -->
        <!-- <path style=" stroke:none;fill-rule:nonzero;fill:rgb(95.294118%,75.686275%,3.137255%);fill-opacity:1;" d="M 37.675781 125.742188 L 80.160156 104.199219 L 80.160156 98.136719 Z M 37.675781 125.742188 "/> -->
        <!-- <path style=" stroke:none;fill-rule:nonzero;fill:rgb(95.294118%,75.686275%,3.137255%);fill-opacity:1;" d="M 149.460938 67.71875 C 153.152344 67.71875 156.144531 64.726562 156.144531 61.035156 C 156.140625 57.34375 153.144531 54.351562 149.453125 54.355469 C 145.761719 54.363281 142.773438 57.359375 142.78125 61.050781 C 142.78125 62.824219 143.484375 64.519531 144.738281 65.773438 C 145.992188 67.023438 147.691406 67.722656 149.460938 67.71875 "/> -->
        <!-- <path style=" stroke:none;fill-rule:nonzero;fill:rgb(95.294118%,75.686275%,3.137255%);fill-opacity:1;" d="M 152.058594 69.058594 C 151.214844 69.339844 150.335938 69.492188 149.449219 69.503906 C 144.777344 69.503906 140.996094 65.722656 140.996094 61.050781 C 141.015625 60.128906 141.179688 59.21875 141.480469 58.347656 L 80.160156 98.136719 L 80.160156 104.144531 L 133.460938 77.09375 L 98.296875 146.070312 C 99.40625 146.640625 100.472656 147.246094 101.515625 147.910156 Z M 152.058594 69.058594 "/> -->
        <!-- <path style=" stroke:none;fill-rule:nonzero;fill:rgb(95.294118%,75.686275%,3.137255%);fill-opacity:1;" d="M 81.050781 179.882812 L 99.132812 151.617188 C 98.214844 151.035156 97.253906 150.492188 96.28125 150.007812 Z M 81.050781 179.882812 "/> -->
        <!-- <path style=" stroke:none;fill-rule:nonzero;fill:rgb(95.294118%,75.686275%,3.137255%);fill-opacity:1;" d="M 99.132812 151.617188 L 101.488281 147.949219 C 100.449219 147.269531 99.375 146.640625 98.269531 146.070312 L 96.238281 150.007812 C 97.214844 150.492188 98.175781 151.035156 99.09375 151.617188 "/> -->
        <path style=" stroke:none;fill-rule:nonzero;fill:rgb(95.294118%,75.686275%,3.137255%);fill-opacity:1;"
            d="M 30.304688 51.9375 L 40.664062 44.402344 L 51.011719 51.9375 L 47.0625 39.75 L 57.421875 32.242188 L 44.613281 32.242188 L 40.664062 20.042969 L 36.703125 32.242188 L 23.894531 32.242188 L 34.253906 39.75 Z M 30.304688 51.9375 " />
        <!-- ... (Các đường path màu vàng khác, vui lòng giữ nguyên từ file gốc) ... -->
    </g>



    <!-- NHÓM 4: CHỮ "VIỆT NAM" MÀU ĐỎ -->
    <!-- <g id="text-vietnam" class="layer"> -->

    </g>

    <!-- NHÓM 5: CÁC CHI TIẾT KHÁC (Như các họa tiết nhỏ, số, v.v.) -->
    <!-- <g id="other-details" class="layer"> -->

    </g>
</svg>