<svg width="200" height="300" viewBox="0 0 200 300" xmlns="http://www.w3.org/2000/svg">
  <g fill="#ffffff">
    <path d="M 80.160156 184.957031 L 80.160156 212.832031 L 81.335938 212.832031 C 82.265625 212.832031 83.195312 212.789062 84.121094 212.695312 L 85.242188 212.613281 C 85.664062 212.613281 86.070312 212.480469 86.476562 212.398438 C 87.40625 212.261719 88.355469 212.074219 89.273438 211.855469 C 95.234375 210.402344 100.667969 207.324219 104.976562 202.957031 C 105.53125 202.390625 106.085938 201.78125 106.574219 201.1875 C 106.832031 200.886719 107.085938 200.578125 107.332031 200.265625 L 108.304688 199.007812 C 108.683594 198.414062 109.074219 197.84375 109.441406 197.25 C 109.679688 196.910156 109.902344 196.558594 110.101562 196.195312 C 110.375 195.722656 110.644531 195.207031 110.886719 194.722656 C 110.996094 194.519531 111.089844 194.300781 111.210938 194.097656 C 111.71875 193.085938 112.167969 192.046875 112.566406 190.988281 C 112.566406 190.839844 112.660156 190.71875 112.714844 190.554688 C 112.957031 189.9375 113.160156 189.304688 113.320312 188.660156 C 114.15625 185.730469 114.578125 182.699219 114.578125 179.652344 C 114.558594 176.550781 114.101562 173.460938 113.226562 170.484375 C 113.050781 169.886719 112.875 169.335938 112.660156 168.738281 C 112.59375 168.507812 112.507812 168.28125 112.402344 168.0625 C 112.082031 167.171875 111.714844 166.292969 111.308594 165.4375 C 111.164062 165.097656 111 164.761719 110.820312 164.4375 C 110.589844 163.992188 110.386719 163.585938 110.128906 163.179688 C 109.875 162.773438 109.5625 162.21875 109.277344 161.746094 C 108.996094 161.273438 108.792969 161.03125 108.574219 160.664062 C 108.128906 160.054688 107.695312 159.472656 107.222656 158.894531 L 106.65625 158.203125 C 104.871094 156.097656 102.832031 154.226562 100.582031 152.628906 L 82.539062 180.804688 Z"/>
    <path d="M 94.671875 149.25 C 92.921875 148.484375 91.113281 147.867188 89.261719 147.410156 C 88.355469 147.179688 87.449219 147.03125 86.554688 146.867188 L 85.203125 146.652344 L 84.082031 146.558594 C 83.160156 146.558594 82.253906 146.421875 81.292969 146.421875 L 80.117188 146.421875 L 80.117188 177.613281 Z"/>
    <path d="M 89.273438 142.90625 C 91.816406 143.457031 94.289062 144.269531 96.660156 145.339844 L 129.402344 81.230469 L 80.160156 106.199219 L 80.160156 135.601562 L 89.273438 135.601562 Z"/>
  </g>
</svg>