<svg xmlns="http://www.w3.org/2000/svg" xmlns:xlink="http://www.w3.org/1999/xlink" width="1966" zoomAndPan="magnify" viewBox="0 0 1474.5 473.999983" height="632" preserveAspectRatio="xMidYMid meet" version="1.0"><defs><g/><clipPath id="e7306e2156"><path d="M 79 159 L 377 159 L 377 257 L 79 257 Z M 79 159 " clip-rule="nonzero"/></clipPath><clipPath id="795a7be07b"><path d="M 380.566406 168.308594 L 246.703125 339.644531 L 75.371094 205.78125 L 209.230469 34.449219 Z M 380.566406 168.308594 " clip-rule="nonzero"/></clipPath><clipPath id="4a5f8cb79e"><path d="M 380.566406 168.308594 L 246.703125 339.644531 L 75.371094 205.78125 L 209.230469 34.449219 Z M 380.566406 168.308594 " clip-rule="nonzero"/></clipPath><clipPath id="bc065fa8e1"><path d="M 122.382812 117.792969 L 197.359375 117.792969 L 197.359375 357.945312 L 122.382812 357.945312 Z M 122.382812 117.792969 " clip-rule="nonzero"/></clipPath><clipPath id="50ea5d7e8f"><path d="M 159.871094 117.792969 C 180.574219 117.792969 197.359375 134.578125 197.359375 155.28125 L 197.359375 320.226562 C 197.359375 340.929688 180.574219 357.710938 159.871094 357.710938 C 139.167969 357.710938 122.382812 340.929688 122.382812 320.226562 L 122.382812 155.28125 C 122.382812 134.578125 139.167969 117.792969 159.871094 117.792969 Z M 159.871094 117.792969 " clip-rule="nonzero"/></clipPath><clipPath id="3444c70245"><path d="M 152.375 132.789062 L 197.359375 132.789062 L 197.359375 177.773438 L 152.375 177.773438 Z M 152.375 132.789062 " clip-rule="nonzero"/></clipPath><clipPath id="9bcc55956f"><path d="M 174.867188 132.789062 C 162.441406 132.789062 152.375 142.859375 152.375 155.28125 C 152.375 167.703125 162.441406 177.773438 174.867188 177.773438 C 187.289062 177.773438 197.359375 167.703125 197.359375 155.28125 C 197.359375 142.859375 187.289062 132.789062 174.867188 132.789062 Z M 174.867188 132.789062 " clip-rule="nonzero"/></clipPath><clipPath id="3e67280858"><path d="M 247.339844 87.804688 L 322.316406 87.804688 L 322.316406 387.703125 L 247.339844 387.703125 Z M 247.339844 87.804688 " clip-rule="nonzero"/></clipPath><clipPath id="ba4a03c8b1"><path d="M 284.828125 87.804688 C 305.53125 87.804688 322.316406 104.585938 322.316406 125.292969 L 322.316406 350.214844 C 322.316406 370.917969 305.53125 387.703125 284.828125 387.703125 C 264.125 387.703125 247.339844 370.917969 247.339844 350.214844 L 247.339844 125.292969 C 247.339844 104.585938 264.125 87.804688 284.828125 87.804688 Z M 284.828125 87.804688 " clip-rule="nonzero"/></clipPath><clipPath id="831fc4e213"><path d="M 247.339844 102.800781 L 292.324219 102.800781 L 292.324219 147.785156 L 247.339844 147.785156 Z M 247.339844 102.800781 " clip-rule="nonzero"/></clipPath><clipPath id="828e0df785"><path d="M 269.832031 102.800781 C 257.410156 102.800781 247.339844 112.867188 247.339844 125.292969 C 247.339844 137.714844 257.410156 147.785156 269.832031 147.785156 C 282.253906 147.785156 292.324219 137.714844 292.324219 125.292969 C 292.324219 112.867188 282.253906 102.800781 269.832031 102.800781 Z M 269.832031 102.800781 " clip-rule="nonzero"/></clipPath></defs><g clip-path="url(#e7306e2156)"><g clip-path="url(#795a7be07b)"><g clip-path="url(#4a5f8cb79e)"><path fill="#26a364" d="M 82.03125 197.253906 C 85.710938 192.546875 92.519531 191.710938 97.226562 195.386719 C 177.589844 258.175781 294.058594 243.875 356.84375 163.511719 C 360.519531 158.804688 367.328125 157.96875 372.035156 161.644531 C 376.742188 165.324219 377.578125 172.128906 373.902344 176.839844 C 356.734375 198.808594 335.777344 216.773438 311.59375 230.214844 C 288.238281 243.199219 262.90625 251.429688 236.289062 254.699219 C 209.671875 257.964844 183.085938 256.09375 157.296875 249.160156 C 130.582031 241.96875 105.898438 229.609375 83.929688 212.441406 C 79.191406 208.769531 78.355469 201.960938 82.03125 197.253906 Z M 82.03125 197.253906 " fill-opacity="1" fill-rule="nonzero"/></g></g></g><g clip-path="url(#bc065fa8e1)"><g clip-path="url(#50ea5d7e8f)"><path fill="#26a364" d="M 122.382812 117.792969 L 197.359375 117.792969 L 197.359375 357.652344 L 122.382812 357.652344 Z M 122.382812 117.792969 " fill-opacity="1" fill-rule="nonzero"/></g></g><g clip-path="url(#3444c70245)"><g clip-path="url(#9bcc55956f)"><path fill="#ff8533" d="M 152.375 132.789062 L 197.359375 132.789062 L 197.359375 177.773438 L 152.375 177.773438 Z M 152.375 132.789062 " fill-opacity="1" fill-rule="nonzero"/><path stroke-linecap="butt" transform="matrix(0.749746, 0, 0, 0.749746, 152.373095, 132.788679)" fill="none" stroke-linejoin="miter" d="M 30.002293 0.000511485 C 13.428967 0.000511485 0.00254134 13.432148 0.00254134 30.000264 C 0.00254134 46.568379 13.428967 60.000016 30.002293 60.000016 C 46.570409 60.000016 60.002045 46.568379 60.002045 30.000264 C 60.002045 13.432148 46.570409 0.000511485 30.002293 0.000511485 Z M 30.002293 0.000511485 " stroke="#ffffff" stroke-width="12" stroke-opacity="1" stroke-miterlimit="4"/></g></g><g clip-path="url(#3e67280858)"><g clip-path="url(#ba4a03c8b1)"><path fill="#26a364" d="M 247.339844 87.804688 L 322.316406 87.804688 L 322.316406 387.703125 L 247.339844 387.703125 Z M 247.339844 87.804688 " fill-opacity="1" fill-rule="nonzero"/></g></g><g clip-path="url(#831fc4e213)"><g clip-path="url(#828e0df785)"><path fill="#ff8533" d="M 247.339844 102.800781 L 292.324219 102.800781 L 292.324219 147.785156 L 247.339844 147.785156 Z M 247.339844 102.800781 " fill-opacity="1" fill-rule="nonzero"/><path stroke-linecap="butt" transform="matrix(0.749746, 0, 0, 0.749746, 247.340913, 102.79885)" fill="none" stroke-linejoin="miter" d="M 29.998326 0.0025762 C 13.43021 0.0025762 -0.00142599 13.429002 -0.00142599 30.002328 C -0.00142599 46.570444 13.43021 60.00208 29.998326 60.00208 C 46.566442 60.00208 59.998078 46.570444 59.998078 30.002328 C 59.998078 13.429002 46.566442 0.0025762 29.998326 0.0025762 Z M 29.998326 0.0025762 " stroke="#ffffff" stroke-width="12" stroke-opacity="1" stroke-miterlimit="4"/></g></g><g fill="#ff8533" fill-opacity="1"><g transform="translate(436.505031, 299.858664)"><g><path d="M 145.625 -0.953125 C 143.875 -0.472656 141.117188 0.00390625 137.359375 0.484375 C 133.597656 0.960938 129.878906 1.203125 126.203125 1.203125 C 122.523438 1.203125 119.285156 0.921875 116.484375 0.359375 C 113.679688 -0.203125 111.320312 -1.203125 109.40625 -2.640625 C 107.488281 -4.078125 106.046875 -6.070312 105.078125 -8.625 C 104.117188 -11.1875 103.640625 -14.550781 103.640625 -18.71875 L 103.640625 -56.140625 L 57.578125 -56.140625 L 57.578125 -0.953125 C 55.816406 -0.472656 53.054688 0.00390625 49.296875 0.484375 C 45.546875 0.960938 41.828125 1.203125 38.140625 1.203125 C 34.460938 1.203125 31.222656 0.921875 28.421875 0.359375 C 25.628906 -0.203125 23.269531 -1.203125 21.34375 -2.640625 C 19.425781 -4.078125 17.988281 -6.070312 17.03125 -8.625 C 16.070312 -11.1875 15.59375 -14.550781 15.59375 -18.71875 L 15.59375 -145.390625 C 17.351562 -145.710938 20.148438 -146.148438 23.984375 -146.703125 C 27.828125 -147.265625 31.507812 -147.546875 35.03125 -147.546875 C 38.707031 -147.546875 41.941406 -147.265625 44.734375 -146.703125 C 47.535156 -146.148438 49.894531 -145.148438 51.8125 -143.703125 C 53.738281 -142.265625 55.179688 -140.265625 56.140625 -137.703125 C 57.097656 -135.148438 57.578125 -131.796875 57.578125 -127.640625 L 57.578125 -89.25 L 103.640625 -89.25 L 103.640625 -145.390625 C 105.398438 -145.710938 108.195312 -146.148438 112.03125 -146.703125 C 115.875 -147.265625 119.554688 -147.546875 123.078125 -147.546875 C 126.753906 -147.546875 129.992188 -147.265625 132.796875 -146.703125 C 135.597656 -146.148438 137.957031 -145.148438 139.875 -143.703125 C 141.789062 -142.265625 143.226562 -140.265625 144.1875 -137.703125 C 145.144531 -135.148438 145.625 -131.796875 145.625 -127.640625 Z M 145.625 -0.953125 "/></g></g></g><g fill="#ff8533" fill-opacity="1"><g transform="translate(597.730106, 299.858664)"><g><path d="M 46.546875 -141.078125 C 49.265625 -142.671875 53.378906 -144.1875 58.890625 -145.625 C 64.410156 -147.070312 69.972656 -147.796875 75.578125 -147.796875 C 83.578125 -147.796875 90.65625 -146.632812 96.8125 -144.3125 C 102.96875 -141.988281 106.925781 -138.347656 108.6875 -133.390625 C 111.5625 -125.078125 114.675781 -115.398438 118.03125 -104.359375 C 121.394531 -93.328125 124.753906 -81.929688 128.109375 -70.171875 C 131.472656 -58.421875 134.753906 -46.828125 137.953125 -35.390625 C 141.148438 -23.953125 143.953125 -13.832031 146.359375 -5.03125 C 144.429688 -2.789062 141.546875 -0.992188 137.703125 0.359375 C 133.867188 1.722656 129.316406 2.40625 124.046875 2.40625 C 120.203125 2.40625 116.957031 2.082031 114.3125 1.4375 C 111.675781 0.800781 109.519531 -0.15625 107.84375 -1.4375 C 106.164062 -2.71875 104.804688 -4.394531 103.765625 -6.46875 C 102.722656 -8.550781 101.800781 -10.953125 101 -13.671875 L 96.6875 -30.234375 L 53.265625 -30.234375 C 51.984375 -25.429688 50.703125 -20.46875 49.421875 -15.34375 C 48.140625 -10.226562 46.859375 -5.273438 45.578125 -0.484375 C 43.335938 0.316406 40.976562 1 38.5 1.5625 C 36.019531 2.125 33.023438 2.40625 29.515625 2.40625 C 21.359375 2.40625 15.316406 1.003906 11.390625 -1.796875 C 7.472656 -4.597656 5.515625 -8.476562 5.515625 -13.4375 C 5.515625 -15.675781 5.832031 -17.914062 6.46875 -20.15625 C 7.113281 -22.394531 7.835938 -25.035156 8.640625 -28.078125 C 9.753906 -32.390625 11.3125 -37.742188 13.3125 -44.140625 C 15.3125 -50.546875 17.507812 -57.46875 19.90625 -64.90625 C 22.3125 -72.34375 24.875 -79.976562 27.59375 -87.8125 C 30.3125 -95.644531 32.867188 -103.039062 35.265625 -110 C 37.671875 -116.957031 39.867188 -123.15625 41.859375 -128.59375 C 43.859375 -134.03125 45.421875 -138.191406 46.546875 -141.078125 Z M 75.328125 -110.125 C 73.085938 -103.40625 70.566406 -95.925781 67.765625 -87.6875 C 64.972656 -79.445312 62.457031 -71.09375 60.21875 -62.625 L 89.96875 -62.625 C 87.726562 -71.257812 85.445312 -79.691406 83.125 -87.921875 C 80.8125 -96.160156 78.695312 -103.5625 76.78125 -110.125 Z M 75.328125 -110.125 "/></g></g></g><g fill="#ff8533" fill-opacity="1"><g transform="translate(748.158827, 299.858664)"><g><path d="M 8.875 -111.796875 C 7.757812 -113.554688 6.71875 -115.957031 5.75 -119 C 4.789062 -122.039062 4.3125 -125.238281 4.3125 -128.59375 C 4.3125 -134.832031 5.710938 -139.3125 8.515625 -142.03125 C 11.316406 -144.75 14.957031 -146.109375 19.4375 -146.109375 L 124.046875 -146.109375 C 125.160156 -144.347656 126.195312 -141.945312 127.15625 -138.90625 C 128.113281 -135.875 128.59375 -132.675781 128.59375 -129.3125 C 128.59375 -123.070312 127.191406 -118.59375 124.390625 -115.875 C 121.597656 -113.15625 117.960938 -111.796875 113.484375 -111.796875 L 86.859375 -111.796875 L 86.859375 -0.953125 C 85.097656 -0.472656 82.335938 0.00390625 78.578125 0.484375 C 74.816406 0.960938 71.097656 1.203125 67.421875 1.203125 C 63.742188 1.203125 60.503906 0.921875 57.703125 0.359375 C 54.898438 -0.203125 52.539062 -1.203125 50.625 -2.640625 C 48.707031 -4.078125 47.265625 -6.070312 46.296875 -8.625 C 45.335938 -11.1875 44.859375 -14.550781 44.859375 -18.71875 L 44.859375 -111.796875 Z M 8.875 -111.796875 "/></g></g></g><g fill="#ff8533" fill-opacity="1"><g transform="translate(881.553348, 299.858664)"><g><path d="M 145.625 -0.953125 C 143.875 -0.472656 141.117188 0.00390625 137.359375 0.484375 C 133.597656 0.960938 129.878906 1.203125 126.203125 1.203125 C 122.523438 1.203125 119.285156 0.921875 116.484375 0.359375 C 113.679688 -0.203125 111.320312 -1.203125 109.40625 -2.640625 C 107.488281 -4.078125 106.046875 -6.070312 105.078125 -8.625 C 104.117188 -11.1875 103.640625 -14.550781 103.640625 -18.71875 L 103.640625 -56.140625 L 57.578125 -56.140625 L 57.578125 -0.953125 C 55.816406 -0.472656 53.054688 0.00390625 49.296875 0.484375 C 45.546875 0.960938 41.828125 1.203125 38.140625 1.203125 C 34.460938 1.203125 31.222656 0.921875 28.421875 0.359375 C 25.628906 -0.203125 23.269531 -1.203125 21.34375 -2.640625 C 19.425781 -4.078125 17.988281 -6.070312 17.03125 -8.625 C 16.070312 -11.1875 15.59375 -14.550781 15.59375 -18.71875 L 15.59375 -145.390625 C 17.351562 -145.710938 20.148438 -146.148438 23.984375 -146.703125 C 27.828125 -147.265625 31.507812 -147.546875 35.03125 -147.546875 C 38.707031 -147.546875 41.941406 -147.265625 44.734375 -146.703125 C 47.535156 -146.148438 49.894531 -145.148438 51.8125 -143.703125 C 53.738281 -142.265625 55.179688 -140.265625 56.140625 -137.703125 C 57.097656 -135.148438 57.578125 -131.796875 57.578125 -127.640625 L 57.578125 -89.25 L 103.640625 -89.25 L 103.640625 -145.390625 C 105.398438 -145.710938 108.195312 -146.148438 112.03125 -146.703125 C 115.875 -147.265625 119.554688 -147.546875 123.078125 -147.546875 C 126.753906 -147.546875 129.992188 -147.265625 132.796875 -146.703125 C 135.597656 -146.148438 137.957031 -145.148438 139.875 -143.703125 C 141.789062 -142.265625 143.226562 -140.265625 144.1875 -137.703125 C 145.144531 -135.148438 145.625 -131.796875 145.625 -127.640625 Z M 145.625 -0.953125 "/></g></g></g><g fill="#ff8533" fill-opacity="1"><g transform="translate(1042.778422, 299.858664)"><g><path d="M 91.890625 -0.953125 C 90.128906 -0.472656 87.410156 0.00390625 83.734375 0.484375 C 80.054688 0.960938 76.457031 1.203125 72.9375 1.203125 C 65.582031 1.203125 60.0625 -0.0351562 56.375 -2.515625 C 52.695312 -4.992188 50.859375 -10.234375 50.859375 -18.234375 L 50.859375 -50.625 C 46.859375 -56.539062 42.539062 -63.097656 37.90625 -70.296875 C 33.269531 -77.492188 28.710938 -84.847656 24.234375 -92.359375 C 19.753906 -99.878906 15.59375 -107.28125 11.75 -114.5625 C 7.914062 -121.84375 4.800781 -128.519531 2.40625 -134.59375 C 4.476562 -137.476562 7.3125 -140.117188 10.90625 -142.515625 C 14.507812 -144.910156 18.953125 -146.109375 24.234375 -146.109375 C 30.472656 -146.109375 35.550781 -144.828125 39.46875 -142.265625 C 43.382812 -139.710938 47.101562 -134.914062 50.625 -127.875 L 70.53125 -87.8125 L 71.96875 -87.8125 C 74.207031 -92.769531 76.164062 -97.285156 77.84375 -101.359375 C 79.53125 -105.441406 81.171875 -109.519531 82.765625 -113.59375 C 84.367188 -117.675781 86.050781 -121.914062 87.8125 -126.3125 C 89.570312 -130.71875 91.570312 -135.796875 93.8125 -141.546875 C 96.6875 -142.992188 99.882812 -144.113281 103.40625 -144.90625 C 106.925781 -145.707031 110.285156 -146.109375 113.484375 -146.109375 C 119.078125 -146.109375 123.832031 -144.628906 127.75 -141.671875 C 131.675781 -138.710938 133.640625 -134.273438 133.640625 -128.359375 C 133.640625 -126.441406 133.238281 -124.125 132.4375 -121.40625 C 131.632812 -118.6875 129.789062 -114.566406 126.90625 -109.046875 C 124.03125 -103.523438 119.832031 -96.046875 114.3125 -86.609375 C 108.800781 -77.171875 101.328125 -64.851562 91.890625 -49.65625 Z M 91.890625 -0.953125 "/></g></g></g><g fill="#ff8533" fill-opacity="1"><g transform="translate(1180.491486, 299.858664)"><g><path d="M 8.390625 -72.9375 C 8.390625 -85.414062 10.347656 -96.453125 14.265625 -106.046875 C 18.191406 -115.640625 23.550781 -123.675781 30.34375 -130.15625 C 37.144531 -136.632812 45.144531 -141.550781 54.34375 -144.90625 C 63.539062 -148.269531 73.5 -149.953125 84.21875 -149.953125 C 94.925781 -149.953125 104.878906 -148.269531 114.078125 -144.90625 C 123.273438 -141.550781 131.3125 -136.632812 138.1875 -130.15625 C 145.070312 -123.675781 150.472656 -115.640625 154.390625 -106.046875 C 158.304688 -96.453125 160.265625 -85.414062 160.265625 -72.9375 C 160.265625 -60.457031 158.34375 -49.378906 154.5 -39.703125 C 150.664062 -30.023438 145.347656 -21.945312 138.546875 -15.46875 C 131.753906 -9 123.71875 -4.082031 114.4375 -0.71875 C 105.164062 2.632812 95.09375 4.3125 84.21875 4.3125 C 73.332031 4.3125 63.25 2.59375 53.96875 -0.84375 C 44.695312 -4.28125 36.703125 -9.273438 29.984375 -15.828125 C 23.265625 -22.390625 17.984375 -30.46875 14.140625 -40.0625 C 10.304688 -49.664062 8.390625 -60.625 8.390625 -72.9375 Z M 51.578125 -72.9375 C 51.578125 -58.382812 54.535156 -47.507812 60.453125 -40.3125 C 66.378906 -33.113281 74.300781 -29.515625 84.21875 -29.515625 C 94.289062 -29.515625 102.285156 -33.113281 108.203125 -40.3125 C 114.117188 -47.507812 117.078125 -58.382812 117.078125 -72.9375 C 117.078125 -87.332031 114.15625 -98.128906 108.3125 -105.328125 C 102.476562 -112.523438 94.523438 -116.125 84.453125 -116.125 C 74.535156 -116.125 66.578125 -112.5625 60.578125 -105.4375 C 54.578125 -98.320312 51.578125 -87.488281 51.578125 -72.9375 Z M 51.578125 -72.9375 "/></g></g></g></svg>