<!DOCTYPE svg PUBLIC "-//W3C//DTD SVG 1.1//EN" "http://www.w3.org/Graphics/SVG/1.1/DTD/svg11.dtd">
<!-- Uploaded to: SVG Repo, www.svgrepo.com, Transformed by: SVG Repo Mixer Tools -->
<svg fill="#FF6300" version="1.1" id="Layer_1" xmlns="http://www.w3.org/2000/svg" xmlns:xlink="http://www.w3.org/1999/xlink" viewBox="0 0 496 496" xml:space="preserve" width="800px" height="800px">
<g id="SVGRepo_bgCarrier" stroke-width="0"/>
<g id="SVGRepo_tracerCarrier" stroke-linecap="round" stroke-linejoin="round"/>
<g id="SVGRepo_iconCarrier"> <g> <g> <g> <path d="M496,64H376V0H120v64H0v296c0,30.88,25.12,56,56,56h137.448c7.648,45.328,47.08,80,94.552,80 c20.144,0,39.792-6.44,56.056-18.144C359.832,489.224,379.12,496,400,496c52.936,0,96-43.064,96-96 c0-7.84-1.048-15.424-2.832-22.728C495.008,371.64,496,365.848,496,360V64z M136,16h224v48h-24V32H160v32h-24V16z M320,48v16H176 V48H320z M288,480c-44.112,0-80-35.888-80-80s35.888-80,80-80c15.472,0,30.576,4.568,43.456,12.912 c-7.92,8.088-14.384,17.568-19.072,28.032c-4.248-4.536-9.96-7.6-16.392-8.536V336h-16v16.408c-13.536,1.96-24,13.528-24,27.592 c0,15.44,12.56,28,28,28h8c6.616,0,12,5.384,12,12c0,6.616-5.376,12-11.992,12h-8c-6.616,0-12-5.384-12-12v-4h-16v4 c0,14.064,10.464,25.632,24,27.592V464h16v-16.408c6.432-0.936,12.144-4,16.392-8.536c4.68,10.464,11.152,19.944,19.072,28.032 C318.576,475.432,303.472,480,288,480z M305.448,384c-0.608,3.584-1,7.24-1.192,10.944C300.536,393.12,296.416,392,292,392h-8 c-6.616,0-12-5.384-12-12c0-6.616,5.384-12,12-12h8c6.616,0,12,5.384,12,12v4H305.448z M400,480c-44.112,0-80-35.888-80-80 s35.888-80,80-80s80,35.888,80,80S444.112,480,400,480z M480,195.056l-48,24V192h-64v32h-16v16h16v24c0,13.232,10.768,24,24,24 h16c13.232,0,24-10.768,24-24v-27.056l48-24v134.104C462.792,321.136,433.368,304,400,304c-20.88,0-40.168,6.776-55.944,18.144 C327.792,310.44,308.144,304,288,304c-52.936,0-96,43.064-96,96H56c-22.056,0-40-17.944-40-40V212.944l48,24V264 c0,13.232,10.768,24,24,24h16c13.232,0,24-10.768,24-24v-24h208v-16H128v-32H64v27.056l-48-24V80h464V195.056z M416,208v56 c0,4.408-3.592,8-8,8h-16c-4.408,0-8-3.592-8-8v-56H416z M80,264v-56h32v56c0,4.408-3.592,8-8,8H88C83.592,272,80,268.408,80,264 z"/> <rect x="64" y="96" width="16" height="16"/> <rect x="64" y="128" width="16" height="16"/> <rect x="64" y="160" width="16" height="16"/> <rect x="112" y="96" width="16" height="16"/> <rect x="112" y="128" width="16" height="16"/> <rect x="112" y="160" width="16" height="16"/> <rect x="368" y="96" width="16" height="16"/> <rect x="368" y="128" width="16" height="16"/> <rect x="368" y="160" width="16" height="16"/> <rect x="416" y="96" width="16" height="16"/> <rect x="416" y="128" width="16" height="16"/> <rect x="416" y="160" width="16" height="16"/> <path d="M408,352.408V336h-16v16.408c-13.536,1.96-24,13.528-24,27.592c0,15.44,12.56,28,28,28h8c6.616,0,12,5.384,12,12 c0,6.616-5.384,12-12,12h-8c-6.616,0-12-5.384-12-12v-4h-16v4c0,14.064,10.464,25.632,24,27.592V464h16v-16.408 c13.536-1.96,24-13.528,24-27.592c0-15.44-12.56-28-28-28h-8c-6.616,0-12-5.384-12-12c0-6.616,5.384-12,12-12h8 c6.616,0,12,5.384,12,12v4h16v-4C432,365.936,421.536,354.368,408,352.408z"/> </g> </g> </g> </g>
</svg>