<!DOCTYPE svg PUBLIC "-//W3C//DTD SVG 1.1//EN" "http://www.w3.org/Graphics/SVG/1.1/DTD/svg11.dtd">
<!-- Uploaded to: SVG Repo, www.svgrepo.com, Transformed by: SVG Repo Mixer Tools -->
<svg fill="#FF6300" version="1.1" id="Layer_1" xmlns="http://www.w3.org/2000/svg" xmlns:xlink="http://www.w3.org/1999/xlink" viewBox="0 0 496 496" xml:space="preserve" width="800px" height="800px">
<g id="SVGRepo_bgCarrier" stroke-width="0"/>
<g id="SVGRepo_tracerCarrier" stroke-linecap="round" stroke-linejoin="round"/>
<g id="SVGRepo_iconCarrier"> <g> <g> <g> <path d="M336,344h-37.56c22.672-15.936,37.56-42.24,37.56-72v-72c0-15.576-11.184-28.584-25.944-31.424 c-7.28-19.432-25.88-32.576-47.04-32.576h-37.128C189.552,136,160,165.552,160,201.888V272c0,29.76,14.888,56.064,37.56,72H160 c-48.52,0-88,39.48-88,88v64h352v-64C424,383.48,384.52,344,336,344z M176,201.888C176,174.376,198.384,152,225.888,152h37.128 c15.744,0,29.408,10.664,33.224,25.944l1.52,6.056H304c8.824,0,16,7.176,16,16v38.528c-9.288-3.312-16-12.112-16-22.528v-16 h-20.28l-2.376,3.56c-8.528,12.8-22.808,20.44-38.184,20.44H176V201.888z M176,272v-32h67.16 c17.264,0,33.504-7.144,45.096-19.496c1.952,17.28,14.96,31.216,31.752,34.64V272c0,39.696-32.296,72-72,72 C208.304,344,176,311.696,176,272z M160,480v-48h-16v48H88v-48c0-39.696,32.296-72,72-72h8l-19.2,25.6l33.064,24.792 l-16.168,32.344L221.576,480H160z M186.312,437.256l15.832-31.656L171.2,382.4L188,360h6.456L235.8,470.248L186.312,437.256z M211.544,360h72.912L248,457.216L211.544,360z M301.544,360H308l16.8,22.4l-30.936,23.208l15.832,31.656l-49.488,32.992 L301.544,360z M408,480h-56v-48h-16v48h-61.576l55.888-37.264l-16.168-32.344L347.2,385.6L328,360h8c39.704,0,72,32.304,72,72 V480z"/> <path d="M456,208c-19.312,0-35.472,13.768-39.192,32H408v16h8.808c3.72,18.232,19.872,32,39.192,32c22.056,0,40-17.944,40-40 C496,225.944,478.056,208,456,208z M456,272c-13.232,0-24-10.768-24-24s10.768-24,24-24s24,10.768,24,24S469.232,272,456,272z"/> <rect x="376" y="240" width="16" height="16"/> <rect x="336.158" y="143.837" transform="matrix(0.7071 0.7071 -0.7071 0.7071 208.1663 -198.8841)" width="16" height="16"/> <path d="M355.488,129.208L366.8,140.52l6.232-6.232c6.488,4.304,14.088,6.632,22.056,6.632c10.688,0,20.728-4.16,28.28-11.712 c15.592-15.6,15.592-40.976,0-56.568c-7.552-7.552-17.592-11.712-28.28-11.712s-20.728,4.16-28.28,11.712 c-13.656,13.664-15.352,34.816-5.08,50.344L355.488,129.208z M378.112,83.952c4.528-4.528,10.552-7.024,16.968-7.024 c6.416,0,12.44,2.496,16.968,7.024c9.36,9.36,9.36,24.584,0,33.944c-9.064,9.064-24.872,9.064-33.936,0 C368.752,108.536,368.752,93.312,378.112,83.952z"/> <path d="M240,79.192V88h16v-8.808c18.232-3.72,32-19.872,32-39.192c0-22.056-17.944-40-40-40c-22.056,0-40,17.944-40,40 C208,59.312,221.768,75.472,240,79.192z M248,16c13.232,0,24,10.768,24,24s-10.768,24-24,24s-24-10.768-24-24S234.768,16,248,16z "/> <rect x="240" y="104" width="16" height="16"/> <path d="M100.92,140.92c7.968,0,15.568-2.32,22.056-6.632l6.232,6.232l11.312-11.312l-6.232-6.232 c10.264-15.52,8.576-36.68-5.08-50.344c-7.552-7.552-17.592-11.712-28.28-11.712c-10.688,0-20.728,4.16-28.28,11.712 c-15.592,15.6-15.592,40.976,0,56.568C80.192,136.76,90.232,140.92,100.92,140.92z M83.952,83.952 c4.528-4.528,10.552-7.024,16.968-7.024c6.416,0,12.44,2.496,16.968,7.024c9.36,9.36,9.36,24.584,0,33.944 c-9.064,9.064-24.872,9.064-33.936,0C74.592,108.536,74.592,93.312,83.952,83.952z"/> <rect x="143.826" y="143.832" transform="matrix(-0.7071 0.7071 -0.7071 -0.7071 366.5453 151.8354)" width="16" height="16"/> <rect x="104" y="240" width="16" height="16"/> <path d="M88,256v-16h-8.808c-3.72-18.232-19.88-32-39.192-32c-22.056,0-40,17.944-40,40c0,22.056,17.944,40,40,40 c19.312,0,35.472-13.768,39.192-32H88z M40,272c-13.232,0-24-10.768-24-24s10.768-24,24-24s24,10.768,24,24S53.232,272,40,272z"/> </g> </g> </g> </g>
</svg>