<?xml version="1.0" encoding="utf-8"?>
<!-- Generator: Adobe Illustrator 22.0.1, SVG Export Plug-In . SVG Version: 6.00 Build 0)  -->
<svg version="1.1" id="Layer_1" xmlns="http://www.w3.org/2000/svg" xmlns:xlink="http://www.w3.org/1999/xlink" x="0px" y="0px"
	 viewBox="0 0 435 92" style="enable-background:new 0 0 435 92;" xml:space="preserve">
<style type="text/css">
	.st0{fill:#004F88;}
</style>
<g>
	<g>
		<path class="st0" d="M18.6,5v29.1c2.8-2.5,5.7-4.6,8.5-6c3.2-1.4,6.4-2.1,9.9-2.1c7.8,0,14.2,2.8,19.5,8.5s8.2,13.1,8.2,22.4
			c0,8.9-2.8,16-8.2,22c-5.7,6-12.1,8.9-19.5,8.9c-3.6,0-6.4-0.7-9.6-1.8c-2.8-1.1-5.7-3.2-8.5-6v6H4.3V5H18.6z M33.9,39.8
			c-4.6,0-8.5,1.4-11.7,4.6s-4.6,7.5-4.6,12.4c0,5.3,1.4,9.6,4.6,12.8c3.2,3.2,6.7,5,11.7,5c4.6,0,8.2-1.8,11.4-5
			c3.2-3.2,4.6-7.5,4.6-12.4c0-5-1.4-9.2-4.6-12.4C42.4,41.3,38.5,39.8,33.9,39.8z"/>
		<path class="st0" d="M116.7,27.8h14.6v58.6h-14.6V80c-2.8,2.8-5.7,4.6-8.5,6c-2.8,1.1-6,1.8-9.6,1.8c-7.5,0-14.2-2.8-19.5-8.9
			c-5.7-6-8.2-13.1-8.2-22c0-9.2,2.8-16.3,8.2-22.4c5.3-5.7,11.7-8.5,19.5-8.5c3.6,0,6.7,0.7,9.9,2.1c3.2,1.4,6,3.2,8.5,6v-6.4
			L116.7,27.8L116.7,27.8z M101,39.8c-4.6,0-8.2,1.8-11.4,5C86.8,48,85,52.3,85,57.2c0,5,1.4,9.2,4.6,12.4c3.2,3.2,6.7,5,11.4,5
			c4.6,0,8.5-1.8,11.4-5c3.2-3.2,4.6-7.5,4.6-12.8c0-5-1.4-9.2-4.6-12.4C109.6,41.3,105.7,39.8,101,39.8z"/>
		<path class="st0" d="M140.8,27.8h12.8v7.5c1.4-2.8,3.2-5,5.3-6.7c2.1-1.4,4.6-2.1,7.5-2.1c1.8,0,3.9,0.4,6,1.4l-4.6,12.8
			c-1.8-0.7-3.2-1.4-4.3-1.4c-2.1,0-4.3,1.4-5.7,4.3c-1.4,2.8-2.5,8.2-2.5,16.3v2.8v23.8h-14.6V27.8H140.8z"/>
		<path class="st0" d="M231.4,39.5L219,46.2c-2.1-2.5-4.6-3.9-6.7-5s-5-1.4-7.8-1.4c-5.7,0-9.9,1.8-13.5,5s-5,7.5-5,12.8
			c0,5,1.8,9.2,5,12.1c3.2,3.2,7.5,4.6,12.8,4.6c6.7,0,11.7-2.1,15.3-6.7l11.7,7.8c-6.4,8.2-15.3,12.4-26.6,12.4
			c-10.3,0-18.5-3.2-24.2-9.2s-8.9-13.1-8.9-21.3c0-5.7,1.4-11,4.3-15.6c2.8-4.6,6.7-8.5,12.1-11.4c5-2.8,10.7-4.3,17.1-4.3
			c5.7,0,11,1.1,15.6,3.6S228.6,35.2,231.4,39.5z"/>
		<path class="st0" d="M237.8,5h14.6v28.4c2.8-2.5,5.7-4.3,8.5-5.7c2.8-1.1,6-1.8,8.9-1.8c5.7,0,10.7,2.1,14.6,6
			c3.6,3.6,5,8.5,5,15.3V86h-14.2V60.4c0-6.7-0.4-11.4-1.1-13.9c-0.7-2.5-1.8-4.3-3.2-5.3c-1.4-1.1-3.6-1.8-5.7-1.8
			c-2.8,0-5.7,1.1-7.8,2.8c-2.1,2.1-3.6,4.6-4.6,8.2c-0.4,1.8-0.7,5.7-0.7,12.1V86h-14.6V5H237.8z"/>
		<path class="st0" d="M341.9,27.8h14.6v58.6h-14.6V80c-2.8,2.8-5.7,4.6-8.5,6c-2.8,1.1-6,1.8-9.2,1.8c-7.5,0-14.2-2.8-19.5-8.9
			c-5.7-6-8.2-13.1-8.2-22c0-9.2,2.8-16.3,8.2-22.4c5.3-5.7,11.7-8.5,19.5-8.5c3.6,0,6.7,0.7,9.9,2.1s6,3.2,8.5,6v-6.4L341.9,27.8
			L341.9,27.8z M326.6,39.8c-4.6,0-8.2,1.8-11.4,5c-2.8,3.2-4.6,7.5-4.6,12.4c0,5,1.4,9.2,4.6,12.4c3.2,3.2,6.7,5,11.4,5
			c4.6,0,8.5-1.8,11.4-5c3.2-3.2,4.6-7.5,4.6-12.8c0-5-1.4-9.2-4.6-12.4C335.1,41.3,331.2,39.8,326.6,39.8z"/>
		<path class="st0" d="M366,27.8h12.8v7.5c1.4-2.8,3.2-5,5.3-6.7c2.1-1.4,4.6-2.1,7.5-2.1c1.8,0,3.9,0.4,6,1.4L393,40.7
			c-1.8-0.7-3.2-1.4-4.3-1.4c-2.1,0-4.3,1.4-5.7,4.3c-1.4,2.8-2.5,8.2-2.5,16.3v2.8v23.8h-14.6L366,27.8L366,27.8z"/>
		<path class="st0" d="M411.2,6.1h14.9v21.7h8.9v12.8h-8.9v46.2h-14.9V40.6h-7.5V27.8h7.5V6.1z"/>
	</g>
</g>
</svg>
