<!DOCTYPE svg PUBLIC "-//W3C//DTD SVG 1.1//EN" "http://www.w3.org/Graphics/SVG/1.1/DTD/svg11.dtd">
<!-- Uploaded to: SVG Repo, www.svgrepo.com, Transformed by: SVG Repo Mixer Tools -->
<svg fill="#FF6300" version="1.1" id="Layer_1" xmlns="http://www.w3.org/2000/svg" xmlns:xlink="http://www.w3.org/1999/xlink" viewBox="0 0 497.92 497.92" xml:space="preserve" width="800px" height="800px">
<g id="SVGRepo_bgCarrier" stroke-width="0"/>
<g id="SVGRepo_tracerCarrier" stroke-linecap="round" stroke-linejoin="round"/>
<g id="SVGRepo_iconCarrier"> <g> <g> <g> <path d="M456.96,313.92h40.44l-88.44-64.856V105.92h48.44L312.96,0L168.52,105.92h48.44v67.408l-40-29.336l-24,17.6V134.72h40.44 L96.96,64L0.52,134.72h40.44v347.2h-40v16h496v-16h-40V313.92z M312.96,19.84l95.56,70.08h-15.56v159.144l-88.44,64.856h40.44v24 h-112v-248H217.4L312.96,19.84z M232.96,369.92v-16h16v16h16v-16h16v16h16v-16h16v16h16v-16h16v32h-136h-8v-32h16v16H232.96z M176.96,163.84l40,29.336V337.92h-32v64h16v32h-64v-235.2h-7.56L176.96,163.84z M72.96,481.92h-16v-363.2H49.4l47.56-34.88 l47.56,34.88h-7.56v54.608L80.52,214.72h40.44v219.2h-48V481.92z M232.96,481.92h-144v-32h16v16h16v-16h16v16h16v-16h16v16h16 v-16h16v16h16v-16h16V481.92z M232.96,433.92h-16v-32h16v16h16v-16h16v16h16v-16h16v16h16v-16h16v16h16v-16h16v32h-120H232.96z M392.96,481.92h-144v-32h16v16h16v-16h16v16h16v-16h16v16h16v-16h16v16h16v-16h16V481.92z M440.96,297.92v184h-32v-48h-32v-48 h-16v-40v-8v-40h-7.56l47.56-34.88l47.56,34.88H440.96z"/> <rect x="72.96" y="233.92" width="16" height="104"/> <rect x="72.96" y="353.92" width="16" height="16"/> <rect x="152.96" y="201.92" width="16" height="88"/> <rect x="152.96" y="305.92" width="16" height="16"/> <rect x="248.96" y="105.92" width="16" height="88"/> <rect x="248.96" y="209.92" width="16" height="16"/> <rect x="376.96" y="297.92" width="16" height="40"/> <rect x="376.96" y="353.92" width="16" height="16"/> </g> </g> </g> </g>
</svg>