<!DOCTYPE svg PUBLIC "-//W3C//DTD SVG 1.1//EN" "http://www.w3.org/Graphics/SVG/1.1/DTD/svg11.dtd">
<!-- Uploaded to: SVG Repo, www.svgrepo.com, Transformed by: SVG Repo Mixer Tools -->
<svg fill="#FF6300" version="1.1" id="Layer_1" xmlns="http://www.w3.org/2000/svg" xmlns:xlink="http://www.w3.org/1999/xlink" viewBox="0 0 496 496" xml:space="preserve" width="800px" height="800px">
<g id="SVGRepo_bgCarrier" stroke-width="0"/>
<g id="SVGRepo_tracerCarrier" stroke-linecap="round" stroke-linejoin="round"/>
<g id="SVGRepo_iconCarrier"> <g> <g> <g> <path d="M408,128c-48.52,0-88,39.48-88,88v29.56C304.064,222.888,277.76,208,248,208c-48.52,0-88,39.48-88,88v29.56 C144.064,302.888,117.76,288,88,288c-48.52,0-88,39.48-88,88v120h496V216C496,167.48,456.52,128,408,128z M160,480H16v-53.56 C31.936,449.112,58.24,464,88,464s56.064-14.888,72-37.56V480z M88,448c-39.696,0-72-32.304-72-72s32.304-72,72-72 s72,32.304,72,72S127.696,448,88,448z M320,480H176V346.44c15.936,22.672,42.24,37.56,72,37.56s56.064-14.888,72-37.56V480z M248,368c-39.696,0-72-32.304-72-72s32.304-72,72-72s72,32.304,72,72S287.696,368,248,368z M480,480H336V266.44 c15.936,22.672,42.24,37.56,72,37.56s56.064-14.888,72-37.56V480z M408,288c-39.696,0-72-32.304-72-72s32.304-72,72-72 s72,32.304,72,72S447.696,288,408,288z"/> <path d="M400,192h16c4.408,0,8,3.592,8,8h16c0-13.232-10.768-24-24-24v-16h-16v16c-13.232,0-24,10.768-24,24s10.768,24,24,24h16 c4.408,0,8,3.592,8,8s-3.592,8-8,8h-16c-4.408,0-8-3.592-8-8h-16c0,13.232,10.768,24,24,24v16h16v-16c13.232,0,24-10.768,24-24 s-10.768-24-24-24h-16c-4.408,0-8-3.592-8-8S395.592,192,400,192z"/> <path d="M240,272h16c4.408,0,8,3.592,8,8h16c0-13.232-10.768-24-24-24v-16h-16v16c-13.232,0-24,10.768-24,24s10.768,24,24,24h16 c4.408,0,8,3.592,8,8c0,4.408-3.592,8-8,8h-16c-4.408,0-8-3.592-8-8h-16c0,13.232,10.768,24,24,24v16h16v-16 c13.232,0,24-10.768,24-24s-10.768-24-24-24h-16c-4.408,0-8-3.592-8-8C232,275.592,235.592,272,240,272z"/> <path d="M80,352h16c4.408,0,8,3.592,8,8h16c0-13.232-10.768-24-24-24v-16H80v16c-13.232,0-24,10.768-24,24s10.768,24,24,24h16 c4.408,0,8,3.592,8,8c0,4.408-3.592,8-8,8H80c-4.408,0-8-3.592-8-8H56c0,13.232,10.768,24,24,24v16h16v-16 c13.232,0,24-10.768,24-24s-10.768-24-24-24H80c-4.408,0-8-3.592-8-8C72,355.592,75.592,352,80,352z"/> <polygon points="20.2,216.96 27.8,231.04 403.16,28.344 385.056,60.032 398.944,67.968 437.784,0 360,0 360,16 392.352,16 "/> <path d="M43.792,151.04l92.464-49.792C142.12,107.8,150.544,112,160,112c17.648,0,32-14.352,32-32s-14.352-32-32-32 s-32,14.352-32,32c0,2.44,0.328,4.792,0.848,7.072l-92.64,49.888L43.792,151.04z M160,64c8.824,0,16,7.176,16,16s-7.176,16-16,16 c-8.824,0-16-7.176-16-16S151.176,64,160,64z"/> <rect x="7.999" y="147.053" transform="matrix(0.4472 0.8944 -0.8944 0.4472 148.3713 71.9233)" width="15.999" height="17.887"/> <path d="M155.792,223.04l92.464-49.792C254.12,179.8,262.544,184,272,184c17.648,0,32-14.352,32-32s-14.352-32-32-32 s-32,14.352-32,32c0,2.44,0.328,4.792,0.848,7.072l-92.64,49.88L155.792,223.04z M272,136c8.824,0,16,7.176,16,16 c0,8.824-7.176,16-16,16c-8.824,0-16-7.176-16-16C256,143.176,263.176,136,272,136z"/> <rect x="119.05" y="219.995" transform="matrix(-0.8944 0.4472 -0.4472 -0.8944 344.4372 374.6798)" width="17.887" height="15.999"/> </g> </g> </g> </g>
</svg>