<!DOCTYPE svg PUBLIC "-//W3C//DTD SVG 1.1//EN" "http://www.w3.org/Graphics/SVG/1.1/DTD/svg11.dtd">
<!-- Uploaded to: SVG Repo, www.svgrepo.com, Transformed by: SVG Repo Mixer Tools -->
<svg version="1.1" id="Layer_1" xmlns="http://www.w3.org/2000/svg" xmlns:xlink="http://www.w3.org/1999/xlink" viewBox="0 0 488 488" xml:space="preserve" width="800px" height="800px" fill="#000000">
<g id="SVGRepo_bgCarrier" stroke-width="0"/>
<g id="SVGRepo_tracerCarrier" stroke-linecap="round" stroke-linejoin="round"/>
<g id="SVGRepo_iconCarrier"> <g> <path style="fill:#FF6300;" d="M117.6,1.6H4c-2.4,0-4,1.6-4,4V120c0,1.6,1.6,4,4,4h114.4c2.4,0,4-1.6,4-4V5.6 C121.6,3.2,120,1.6,117.6,1.6z M30.4,92.8v-60h60v60H30.4z"/> <path style="fill:#FF6300;" d="M71.2,48.8h-20c-2.4,0-4,1.6-4,4v20c0,2.4,1.6,4,4,4h20c2.4,0,4-1.6,4-4v-20 C74.4,50.4,72.8,48.8,71.2,48.8z"/> <path style="fill:#FF6300;" d="M482.4,1.6H368c-2.4,0-4,1.6-4,4V120c0,2.4,1.6,4,4,4h114.4c2.4,0,4-1.6,4-4V5.6 C485.6,3.2,484,1.6,482.4,1.6z M394.4,92.8v-60h60v60H394.4z"/> <path style="fill:#FF6300;" d="M435.2,48.8h-20c-2.4,0-4,1.6-4,4v20c0,2.4,1.6,4,4,4h20c2.4,0,4-1.6,4-4v-20 C438.4,50.4,436.8,48.8,435.2,48.8z"/> <path style="fill:#FF6300;" d="M117.6,364H4c-2.4,0-4,1.6-4,4v114.4c0,2.4,1.6,4,4,4h114.4c2.4,0,4-1.6,4-4V368 C121.6,366.4,120,364,117.6,364z M30.4,455.2v-60h60v60H30.4z"/> <path style="fill:#FF6300;" d="M71.2,411.2h-20c-2.4,0-4,1.6-4,4v20c0,2.4,1.6,4,4,4h20c2.4,0,4-1.6,4-4v-20 C74.4,412.8,72.8,411.2,71.2,411.2z"/> <path style="fill:#FF6300;" d="M482.4,364H368c-2.4,0-4,1.6-4,4v114.4c0,2.4,1.6,4,4,4h114.4c2.4,0,4-1.6,4-4V368 C485.6,366.4,484,364,482.4,364z M394.4,455.2v-60h60v60H394.4z"/> <path style="fill:#FF6300;" d="M435.2,411.2h-20c-2.4,0-4,1.6-4,4v20c0,2.4,1.6,4,4,4h20c2.4,0,4-1.6,4-4v-20 C438.4,412.8,436.8,411.2,435.2,411.2z"/> </g> <g> <rect x="2.4" y="309.6" style="fill:#0000FF;" width="155.2" height="22.4"/> <polygon style="fill:#0000FF;" points="272,487.2 240.8,487.2 240.8,332 217.6,332 217.6,487.2 185.6,487.2 185.6,332 156.8,332 156.8,487.2 332.8,487.2 332.8,487.2 301.6,487.2 301.6,332 272,332 "/> <rect x="272" y="300" style="fill:#0000FF;" width="28.8" height="10.4"/> <rect x="217.6" y="300" style="fill:#0000FF;" width="23.2" height="10.4"/> <rect x="301.6" y="284.8" style="fill:#0000FF;" width="186.4" height="14.4"/> <rect x="185.6" y="29.6" style="fill:#0000FF;" width="40" height="32.8"/> <rect x="185.6" y="284.8" style="fill:#0000FF;" width="32" height="14.4"/> <rect x="177.6" y="430.4" style="fill:#0000FF;" width="48" height="34.4"/> <rect x="2.4" y="284.8" style="fill:#0000FF;" width="20" height="14.4"/> <rect x="54.4" y="284.8" style="fill:#0000FF;" width="103.2" height="14.4"/> <rect x="240.8" y="284.8" style="fill:#0000FF;" width="32" height="14.4"/> <rect x="232.8" y="362.4" style="fill:#0000FF;" width="48" height="14.4"/> <rect x="232.8" y="439.2" style="fill:#0000FF;" width="48" height="5.6"/> <rect x="232.8" y="413.6" style="fill:#0000FF;" width="48" height="5.6"/> <rect x="232.8" y="388" style="fill:#0000FF;" width="48" height="5.6"/> <rect x="240.8" y="309.6" style="fill:#0000FF;" width="32" height="22.4"/> <rect x="173.6" y="309.6" style="fill:#0000FF;" width="32" height="22.4"/> <rect x="330.4" y="309.6" style="fill:#0000FF;" width="9.6" height="22.4"/> <rect x="311.2" y="309.6" style="fill:#0000FF;" width="9.6" height="22.4"/> <rect x="372" y="309.6" style="fill:#0000FF;" width="116" height="22.4"/> <rect x="2.4" y="154.4" style="fill:#0000FF;" width="132" height="8.8"/> <rect x="372" y="154.4" style="fill:#0000FF;" width="116" height="8.8"/> <rect x="353.6" y="154.4" style="fill:#0000FF;" width="10.4" height="8.8"/> <rect x="334.4" y="154.4" style="fill:#0000FF;" width="10.4" height="8.8"/> <rect x="315.2" y="154.4" style="fill:#0000FF;" width="10.4" height="8.8"/> <rect x="240.8" y="176" style="fill:#0000FF;" width="32" height="32.8"/> <rect x="240.8" y="109.6" style="fill:#0000FF;" width="40" height="32.8"/> <rect x="92" y="176" style="fill:#0000FF;" width="10.4" height="32.8"/> <rect x="71.2" y="176" style="fill:#0000FF;" width="10.4" height="32.8"/> <rect x="50.4" y="176" style="fill:#0000FF;" width="10.4" height="32.8"/> <rect x="388" y="176" style="fill:#0000FF;" width="100" height="32.8"/> <rect x="2.4" y="176" style="fill:#0000FF;" width="36.8" height="32.8"/> <rect x="135.2" y="176" style="fill:#0000FF;" width="22.4" height="32.8"/> <rect x="301.6" y="176" style="fill:#0000FF;" width="37.6" height="32.8"/> <rect x="360.8" y="176" style="fill:#0000FF;" width="16.8" height="32.8"/> <rect x="156.8" y="64" style="fill:#0000FF;" width="28.8" height="112"/> <rect x="156.8" y="0.8" style="fill:#0000FF;" width="28.8" height="28"/> <rect x="217.6" y="0.8" style="fill:#0000FF;" width="23.2" height="106.4"/> <rect x="217.6" y="148.8" style="fill:#0000FF;" width="23.2" height="27.2"/> <rect x="272" y="0.8" style="fill:#0000FF;" width="28.8" height="24"/> <rect x="272" y="54.4" style="fill:#0000FF;" width="28.8" height="122.4"/> <rect x="316.8" y="54.4" style="fill:#0000FF;" width="13.6" height="75.2"/> <rect x="316.8" y="4.8" style="fill:#0000FF;" width="13.6" height="35.2"/> </g> <path style="fill:#FF6300;" d="M483.2,248.8H6.4c-2.4,0-4.8-2.4-4.8-4.8c0-2.4,2.4-4.8,4.8-4.8h476.8c2.4,0,4.8,2.4,4.8,4.8 C488,246.4,485.6,248.8,483.2,248.8z"/> <path style="fill:#FF7631;" d="M483.2,239.2H6.4c-1.6,0-3.2,0.8-4,2.4c0.8,1.6,2.4,2.4,4,2.4h476.8c1.6,0,3.2-0.8,4-2.4 C487.2,240.8,485.6,239.2,483.2,239.2z"/> <g> <rect x="316.8" y="410.4" style="fill:#0000FF;" width="13.6" height="75.2"/> <rect x="316.8" y="361.6" style="fill:#0000FF;" width="13.6" height="35.2"/> </g> </g>
</svg>