<!DOCTYPE svg PUBLIC "-//W3C//DTD SVG 1.1//EN" "http://www.w3.org/Graphics/SVG/1.1/DTD/svg11.dtd">

<!-- Uploaded to: SVG Repo, www.svgrepo.com, Transformed by: SVG Repo Mixer Tools -->
<svg fill="#000000" height="800px" width="800px" version="1.1" id="Layer_1" xmlns="http://www.w3.org/2000/svg" xmlns:xlink="http://www.w3.org/1999/xlink" viewBox="0 0 512 512" xml:space="preserve">

<g id="SVGRepo_bgCarrier" stroke-width="0"/>

<g id="SVGRepo_tracerCarrier" stroke-linecap="round" stroke-linejoin="round"/>

<g id="SVGRepo_iconCarrier"> <g> <g> <path d="M50.039,0v135.23h15.655H81.35h20.655v31.311H81.35H65.695H50.039v25.487h15.655H81.35h20.655v31.31H81.35H65.695H50.039 v25.487h15.655H81.35h20.655v31.31H81.35H65.695H50.039v25.487h15.655H81.35h20.655v31.311H81.35H65.695H50.039v25.476h15.655 H81.35h20.655v31.311H81.35H65.695H50.039v26.436h15.655H81.35h20.655v31.311H81.35H65.695H50.039V512h411.921L50.039,0z M143.794,245.85l141.628,176.038H143.794V245.85z" fill="#FF6F00"/> </g> </g> </g>

</svg>