<!DOCTYPE svg PUBLIC "-//W3C//DTD SVG 1.1//EN" "http://www.w3.org/Graphics/SVG/1.1/DTD/svg11.dtd">
<!-- Uploaded to: SVG Repo, www.svgrepo.com, Transformed by: SVG Repo Mixer Tools -->
<svg fill="#FF6300" height="800px" width="800px" version="1.1" id="Layer_1" xmlns="http://www.w3.org/2000/svg" xmlns:xlink="http://www.w3.org/1999/xlink" viewBox="0 0 496 496" xml:space="preserve">
<g id="SVGRepo_bgCarrier" stroke-width="0"/>
<g id="SVGRepo_tracerCarrier" stroke-linecap="round" stroke-linejoin="round"/>
<g id="SVGRepo_iconCarrier"> <g> <g> <g> <path d="M448,248c0-107.6-85.416-195.576-192-199.8V0h-8C111.256,0,0,111.248,0,248s111.256,248,248,248h8v-48.2 C362.584,443.576,448,355.6,448,248z M222.968,17.408c-20.52,17.96-51.984,51.128-74.832,100.544 c-35.456-16.016-47.992-38-51.432-45.68C131.4,42.36,175.024,22.584,222.968,17.408z M160,184c0,13.232-10.768,24-24,24 s-24-10.768-24-24s10.768-24,24-24S160,170.768,160,184z M84.544,83.6c6.624,12.04,22.56,33.296,57.24,48.944 c-1.496,3.744-2.848,7.704-4.232,11.616c-0.52-0.024-1.016-0.16-1.552-0.16c-22.056,0-40,17.944-40,40 c0,16.832,10.488,31.208,25.24,37.096c-0.536,6.376-0.872,12.672-1.032,18.904H16.2C18.28,178.976,44.024,123.888,84.544,83.6z M16.2,256h103.984c1,41.248,9.6,77.056,21.888,107.496c-34.816,15.688-50.832,36.952-57.488,48.944 C44.04,372.144,18.28,317.04,16.2,256z M96.728,423.744c3.44-7.584,16.08-29.456,51.688-45.544 c22.896,49.024,54.512,82.368,74.928,100.432C175.264,473.52,131.512,453.728,96.728,423.744z M240,471.872 c-18.128-14.968-52.408-47.976-76.672-99.528c0.672-0.232,1.384-0.44,2.064-0.664C172.28,383.752,185.136,392,200,392 c19.24,0,35.336-13.664,39.136-31.792c0.288-0.008,0.576-0.016,0.864-0.024V471.872z M176,352c0-13.232,10.768-24,24-24 s24,10.768,24,24s-10.768,24-24,24S176,365.232,176,352z M240,240h-16v16h16v88.192c-0.264,0.008-0.528,0.008-0.784,0.016 C235.576,325.872,219.384,312,200,312c-22.056,0-40,17.944-40,40c0,1.536,0.28,2.992,0.456,4.48 c-1.168,0.384-2.384,0.744-3.52,1.144c-11.608-28.76-19.752-62.616-20.744-101.624H208v-16h-71.792 c0.144-5.304,0.424-10.688,0.856-16.104C158.616,223.312,176,205.688,176,184c0-15.88-9.376-29.512-22.824-35.968 c1.152-3.208,2.256-6.488,3.496-9.576c21.464,7.472,48.752,12.704,83.328,13.416V240z M240,135.872 c-32.096-0.68-57.288-5.392-76.928-12.048C187.28,72.216,221.792,39.088,240,24.088V135.872z M256,104h16v32h12 c33.088,0,60,26.912,60,60v12h-16v-12c0-24.256-19.736-44-44-44h-28V104z M256,272h28c15.44,0,28,12.56,28,28s-12.56,28-28,28 h-28V272z M256,344h28c24.264,0,44-19.744,44-44c0-24.256-19.736-44-44-44h-28v-16h28c33.088,0,60,26.912,60,60s-26.912,60-60,60 h-12v32h-16V344z M256,431.8V408h32v-32.104c40.056-2.096,72-35.336,72-75.896c0-41.904-34.096-76-76-76h-28v-56h28 c15.44,0,28,12.56,28,28v28h48v-28c0-40.56-31.944-73.808-72-75.896V88h-32V64.2c97.76,4.208,176,85.024,176,183.8 S353.76,427.592,256,431.8z"/> <path d="M496,248c0-108.88-69.768-203.952-173.6-236.56l-4.8,15.264C414.736,57.208,480,146.144,480,248 c0,54.912-19.256,107.52-54.424,149.304C420.52,393.968,414.496,392,408,392c-17.648,0-32,14.352-32,32s14.352,32,32,32 s32-14.352,32-32c0-5.312-1.424-10.24-3.72-14.656C474.832,364.408,496,307.48,496,248z M408,440c-8.824,0-16-7.176-16-16 c0-8.824,7.176-16,16-16c8.824,0,16,7.176,16,16C424,432.824,416.824,440,408,440z"/> <path d="M305.864,6.912c-6.032-1.448-11.448-2.56-16.544-3.424l-2.648,15.784c4.728,0.792,9.784,1.832,15.456,3.2L305.864,6.912z "/> </g> </g> </g> </g>
</svg>