<?xml version="1.0" encoding="utf-8"?>
<svg version="1.1" id="Layer_1" xmlns="http://www.w3.org/2000/svg" xmlns:xlink="http://www.w3.org/1999/xlink" x="0px" y="0px" width="60px" height="60px" viewBox="0 0 60 60" style="enable-background:new 0 0 60 60;" xml:space="preserve">
<g transform="rotate(0 50 50)">
	<rect fill="#777" x="28.5" y="5.5" width="3" height="11">
		<animate  accumulate="none" additive="replace" attributeName="opacity" begin="-0.9444444444444444s" calcMode="linear" dur="1s" fill="remove" keyTimes="0;1" repeatCount="indefinite" restart="always" values="1;0">
		</animate>
	</rect>
</g>
<g transform="rotate(20 50 50)">
	<rect fill="#777" x="18.9" y="17.6" transform="matrix(2.259292e-06 1 -1 2.259292e-06 43.4928 -5.3486)" width="11" height="3">
		<animate  accumulate="none" additive="replace" attributeName="opacity" begin="-0.8888888888888888s" calcMode="linear" dur="1s" fill="remove" keyTimes="0;1" repeatCount="indefinite" restart="always" values="1;0">
		</animate>
	</rect>
</g>
<g transform="rotate(40 50 50)">
	<rect fill="#777" x="16.4" y="27" transform="matrix(3.096005e-06 1 -1 3.096005e-06 50.4239 6.6563)" width="11" height="3">
		<animate  accumulate="none" additive="replace" attributeName="opacity" begin="-0.8333333333333334s" calcMode="linear" dur="1s" fill="remove" keyTimes="0;1" repeatCount="indefinite" restart="always" values="1;0">
		</animate>
	</rect>
</g>
<g transform="rotate(60 50 50)">
	<rect fill="#777" x="17.2" y="36.8" transform="matrix(2.341061e-06 1 -1 2.341061e-06 61.0429 15.5667)" width="11" height="3">
		<animate  accumulate="none" additive="replace" attributeName="opacity" begin="-0.7777777777777778s" calcMode="linear" dur="1s" fill="remove" keyTimes="0;1" repeatCount="indefinite" restart="always" values="1;0">
		</animate>
	</rect>
</g>
<g transform="rotate(80 50 50)">
	<rect fill="#777" x="21.4" y="45.7" transform="matrix(2.757979e-06 1 -1 2.757979e-06 74.0689 20.3077)" width="11" height="3">
		<animate  accumulate="none" additive="replace" attributeName="opacity" begin="-0.7222222222222222s" calcMode="linear" dur="1s" fill="remove" keyTimes="0;1" repeatCount="indefinite" restart="always" values="1;0">
		</animate>
	</rect>
</g>
<g transform="rotate(100 50 50)">
	<rect fill="#777" x="32.3" y="48.6" width="3" height="11">
		<animate  accumulate="none" additive="replace" attributeName="opacity" begin="-0.6666666666666666s" calcMode="linear" dur="1s" fill="remove" keyTimes="0;1" repeatCount="indefinite" restart="always" values="1;0">
		</animate>
	</rect>
</g>
<g transform="rotate(120 50 50)">
	<rect fill="#777" x="41.2" y="52.8" width="3" height="11">
		<animate  accumulate="none" additive="replace" attributeName="opacity" begin="-0.6111111111111112s" calcMode="linear" dur="1s" fill="remove" keyTimes="0;1" repeatCount="indefinite" restart="always" values="1;0">
		</animate>
	</rect>
</g>
<g transform="rotate(140 50 50)">
	<rect fill="#777" x="51" y="53.6" width="3" height="11">
		<animate  accumulate="none" additive="replace" attributeName="opacity" begin="-0.5555555555555556s" calcMode="linear" dur="1s" fill="remove" keyTimes="0;1" repeatCount="indefinite" restart="always" values="1;0">
		</animate>
	</rect>
</g>
<g transform="rotate(160 50 50)">
	<rect fill="#777" x="60.4" y="51.1" width="3" height="11">
		<animate  accumulate="none" additive="replace" attributeName="opacity" begin="-0.5s" calcMode="linear" dur="1s" fill="remove" keyTimes="0;1" repeatCount="indefinite" restart="always" values="1;0">
		</animate>
	</rect>
</g>
<g transform="rotate(180 50 50)">
	<rect fill="#777" x="68.5" y="45.5" width="3" height="11">
		<animate  accumulate="none" additive="replace" attributeName="opacity" begin="-0.4444444444444444s" calcMode="linear" dur="1s" fill="remove" keyTimes="0;1" repeatCount="indefinite" restart="always" values="1;0">
		</animate>
	</rect>
</g>
<g transform="rotate(200 50 50)">
	<rect fill="#777" x="70.1" y="41.4" transform="matrix(-2.259292e-06 -1 1 -2.259292e-06 32.6516 118.5072)" width="11" height="3">
		<animate  accumulate="none" additive="replace" attributeName="opacity" begin="-0.3888888888888889s" calcMode="linear" dur="1s" fill="remove" keyTimes="0;1" repeatCount="indefinite" restart="always" values="1;0">
		</animate>
	</rect>
</g>
<g transform="rotate(220 50 50)">
	<rect fill="#777" x="72.6" y="32" transform="matrix(-3.096005e-06 -1 1 -3.096005e-06 44.6567 111.5762)" width="11" height="3">
		<animate  accumulate="none" additive="replace" attributeName="opacity" begin="-0.3333333333333333s" calcMode="linear" dur="1s" fill="remove" keyTimes="0;1" repeatCount="indefinite" restart="always" values="1;0">
		</animate>
	</rect>
</g>
<g transform="rotate(240 50 50)">
	<rect fill="#777" x="71.8" y="22.2" transform="matrix(-2.341061e-06 -1 1 -2.341061e-06 53.5669 100.9572)" width="11" height="3">
		<animate  accumulate="none" additive="replace" attributeName="opacity" begin="-0.2777777777777778s" calcMode="linear" dur="1s" fill="remove" keyTimes="0;1" repeatCount="indefinite" restart="always" values="1;0">
		</animate>
	</rect>
</g>
<g transform="rotate(260 50 50)">
	<rect fill="#777" x="67.6" y="13.3" transform="matrix(-2.757979e-06 -1 1 -2.757979e-06 58.308 87.931)" width="11" height="3">
		<animate  accumulate="none" additive="replace" attributeName="opacity" begin="-0.2222222222222222s" calcMode="linear" dur="1s" fill="remove" keyTimes="0;1" repeatCount="indefinite" restart="always" values="1;0">
		</animate>
	</rect>
</g>
<g transform="rotate(280 50 50)">
	<rect fill="#777" x="64.7" y="2.4" transform="matrix(-1 2.312384e-06 -2.312384e-06 -1 132.3768 15.761)" width="3" height="11">
		<animate  accumulate="none" additive="replace" attributeName="opacity" begin="-0.16666666666666666s" calcMode="linear" dur="1s" fill="remove" keyTimes="0;1" repeatCount="indefinite" restart="always" values="1;0">
		</animate>
	</rect>
</g>
<g transform="rotate(300 50 50)">
	<rect fill="#777" x="55.8" y="-1.8" transform="matrix(-1 2.729302e-06 -2.729302e-06 -1 114.6097 7.476)" width="3" height="11">
		<animate  accumulate="none" additive="replace" attributeName="opacity" begin="-0.1111111111111111s" calcMode="linear" dur="1s" fill="remove" keyTimes="0;1" repeatCount="indefinite" restart="always" values="1;0">
		</animate>
	</rect>
</g>
<g transform="rotate(320 50 50)">
	<rect fill="#777" x="46" y="-2.6" transform="matrix(-1 1.974358e-06 -1.974358e-06 -1 95.0803 5.7675)" width="3" height="11">
		<animate  accumulate="none" additive="replace" attributeName="opacity" begin="-0.05555555555555555s" calcMode="linear" dur="1s" fill="remove" keyTimes="0;1" repeatCount="indefinite" restart="always" values="1;0">
		</animate>
	</rect>
</g>
<g transform="rotate(340 50 50)">
	<rect fill="#777" x="36.6" y="-0.1" transform="matrix(-1 2.811071e-06 -2.811071e-06 -1 76.1444 10.8413)" width="3" height="11">
		<animate  accumulate="none" additive="replace" attributeName="opacity" begin="0s" calcMode="linear" dur="1s" fill="remove" keyTimes="0;1" repeatCount="indefinite" restart="always" values="1;0">
		</animate>
	</rect>
</g>
</svg>
