<!DOCTYPE svg PUBLIC "-//W3C//DTD SVG 1.1//EN" "http://www.w3.org/Graphics/SVG/1.1/DTD/svg11.dtd">
<!-- Uploaded to: SVG Repo, www.svgrepo.com, Transformed by: SVG Repo Mixer Tools -->
<svg height="800px" width="800px" version="1.1" id="Layer_1" xmlns="http://www.w3.org/2000/svg" xmlns:xlink="http://www.w3.org/1999/xlink" viewBox="0 0 511.999 511.999" xml:space="preserve" fill="#000000">
<g id="SVGRepo_bgCarrier" stroke-width="0"/>
<g id="SVGRepo_tracerCarrier" stroke-linecap="round" stroke-linejoin="round"/>
<g id="SVGRepo_iconCarrier"> <circle style="fill:#000000;" cx="255.999" cy="255.997" r="255.997"/> <path style="fill:#EA2035;" d="M255.805,511.999c-70.692,0-128-57.308-128-128s57.308-128,128-128l0,0c70.692,0,128-57.308,128-128 s-57.307-128-128-128c0,0-0.31,0,0,0C397.19,0,511.806,114.616,511.806,255.999c0,141.226-114.357,255.742-255.523,255.999"/> <path style="fill:#EA2035;" d="M255.805,0c31.129,0,59.659,11.115,81.846,29.589c81.152,42.938,136.456,128.209,136.456,226.41 c0,133.955-102.89,243.863-233.949,255.046c5.129,0.625,10.35,0.954,15.648,0.954h0.476 c141.166-0.257,255.523-114.773,255.523-255.999C511.806,114.616,397.19,0,255.805,0z"/> <circle style="fill:#EA2035;" cx="255.805" cy="128.004" r="47.249"/> <circle style="fill:#000000;" cx="255.805" cy="384.001" r="47.249"/> </g>
</svg>