<svg xmlns="http://www.w3.org/2000/svg" xmlns:xlink="http://www.w3.org/1999/xlink" width="1190.75" height="724" viewBox="0 0 1190.75 724"><defs><linearGradient id="linear-gradient" x1="0.279" y1="0.313" x2="1.633" y2="1.456" gradientUnits="objectBoundingBox"><stop offset="0.11" stop-color="#054bb0"></stop><stop offset="0.84" stop-color="#012863"></stop><stop offset="1" stop-color="#002052"></stop></linearGradient><linearGradient id="linear-gradient-2" y1="0.5" x2="1" y2="0.5" gradientUnits="objectBoundingBox"><stop offset="0.11" stop-color="#0045ff"></stop><stop offset="0.63" stop-color="#0332b2"></stop><stop offset="1" stop-color="#052478"></stop></linearGradient><clipPath id="clip-path"><path id="Path_6" data-name="Path 6" d="M662.35,212.06c78.22,175.75,84.7,277.72-178.69,344.55C291.59,605.34,245.37,684.62,234.42,724h956.33V0H644.46C607.38,53.25,622.76,123.11,662.35,212.06Z" transform="translate(344.34 255.53)" fill="none"></path></clipPath><radialGradient id="radial-gradient" cx="0.577" cy="0.436" r="0.529" gradientTransform="translate(0.081) scale(0.839 1)" gradientUnits="objectBoundingBox"><stop offset="0" stop-color="#fff"></stop><stop offset="0.25" stop-color="#b9b9b9" stop-opacity="0.729"></stop><stop offset="0.62" stop-color="#575757" stop-opacity="0.341"></stop><stop offset="0.88" stop-color="#181818" stop-opacity="0.09"></stop><stop offset="1" stop-opacity="0"></stop></radialGradient><radialGradient id="radial-gradient-2" cx="0.566" cy="0.583" r="0.499" xlink:href="#radial-gradient"></radialGradient><linearGradient id="linear-gradient-3" x1="0.643" y1="0.096" x2="0.37" y2="1.114" xlink:href="#linear-gradient"></linearGradient><linearGradient id="linear-gradient-4" y1="0.5" x2="1" y2="0.5" gradientUnits="objectBoundingBox"><stop offset="0.11" stop-color="#054bb0"></stop><stop offset="0.98" stop-color="#0045fd"></stop><stop offset="1" stop-color="#0045ff"></stop></linearGradient><linearGradient id="linear-gradient-5" x1="0.962" y1="-0.705" x2="-0.42" y2="1.62" xlink:href="#linear-gradient"></linearGradient><clipPath id="clip-path-2"><path id="Path_10" data-name="Path 10" d="M279.67,0H0V204C185.36,157.62,254.21,65.57,279.67,0Z" transform="translate(344.34 255.53)" fill="none"></path></clipPath><radialGradient id="radial-gradient-3" cx="0.578" cy="0.436" r="0.528" xlink:href="#radial-gradient"></radialGradient><radialGradient id="radial-gradient-4" cx="0.506" cy="0.432" r="0.605" gradientTransform="translate(0.063) scale(0.874 1)" gradientUnits="objectBoundingBox"><stop offset="0" stop-color="#fffeff"></stop><stop offset="0.24" stop-color="#fafbfc"></stop><stop offset="0.51" stop-color="#edf2f2"></stop><stop offset="0.8" stop-color="#d6e3e3"></stop><stop offset="1" stop-color="#c2d6d5"></stop></radialGradient><radialGradient id="radial-gradient-5" cx="0.5" cy="0.5" r="0.436" gradientTransform="translate(-0.191) scale(1.383 1)" xlink:href="#radial-gradient-4"></radialGradient></defs><g id="Asset_1" data-name="Asset 1" transform="translate(-344.34 -255.53)"><g id="Layer_2" data-name="Layer 2"><g id="OBJECTS"><rect id="Rectangle_1" data-name="Rectangle 1" width="1184.72" height="723.99" transform="translate(344.34 255.53)" fill="none"></rect><path id="Path_1" data-name="Path 1" d="M626.89,202.28c86.26,193.79,93.4,306.24-197,379.93C274.7,621.57,205.86,679,175.39,724H1184.72V0H591.22C572.86,54,590.66,120.87,626.89,202.28Z" transform="translate(344.34 255.53)" fill="url(#linear-gradient)"></path><path id="Path_2" data-name="Path 2" d="M662.35,212.06c78.22,175.75,84.7,277.72-178.69,344.55C291.59,605.34,245.37,684.62,234.42,724h956.33V0H644.46C607.38,53.25,622.76,123.11,662.35,212.06Z" transform="translate(344.34 255.53)" fill="url(#linear-gradient-2)"></path><g id="Group_1" data-name="Group 1" clip-path="url(#clip-path)"><path id="Path_3" data-name="Path 3" d="M1032.58,510h20l10.17-17.61-10-17.27,10-17.27-10.17-17.61h-20l-9.77-16.92,10-17.27-10.16-17.61h-20.34l-10,17.27H972.77l-10-17.27H942.46l-10,17.27H913l-10-17.27H882.64l-10,17.27H853.13l-10-17.27h-20.3l-10,17.27H793.31l-10-17.27H763l-10,17.27H733.5l-10-17.27H703.19l-10,17.27H673.68l-10-17.27H643.37l-10,17.27H613.86l-10-17.27h-20.3l-10,17.27H554l-10-17.27H523.74l-10,17.27H494.23l-10-17.27H463.92l-10,17.27H434l-10.17,17.61L434,440.93h20l9.77,16.92-10,17.27,10,17.27L454,509.31H434l-10.17,17.61L434,544.53h20l9.77,16.93-10,17.26,10,17.27L454,612.92H434l-10.17,17.61L434,648.14h20l9.77,16.92-10,17.27,10,17.27L454,716.52H434l-10.17,17.61L434,751.74h20l9.77,16.92-10,17.27,10,17.27L454,820.12H434l-10.17,17.61L434,855.34h20l9.77,16.93-10,17.27,10.17,17.61h20l10,17.26H514.2l10-17.26h19.54l10,17.26H574l10-17.26h19.54l10,17.26h20.34l10-17.26h19.54l10,17.26h20.33l10-17.26H723.3l10,17.26h20.33l10-17.26H783l10,17.26h20.34l10-17.26H842.8l10,17.26h20.34l10-17.26h19.54l10,17.26h20.33l10-17.26h19.55l10,17.26h20.33l10-17.26h19.54l10,17.26h20.34l10.17-17.61-10-17.26,10-17.27-10.17-17.61h-20L1023,837.73l9.77-16.92h20l10.17-17.61-10-17.27,10-17.27-10.17-17.61h-20L1023,734.13l9.77-16.93h20l10.17-17.6-10-17.27,10-17.27-10.17-17.61h-20L1023,630.53l9.77-16.93h20l9.96-17.6-10-17.27,10-17.26-10.17-17.61h-20l-9.77-16.93Zm-10.36,16.58h-19.54l-9.76-16.9,9.79-16.95h19.51l9.77,16.92Zm0,35.22,9.77,16.92-9.77,16.93h-19.51l-9.77-16.93,9.77-16.92Zm0,103.6,9.77,16.93-9.77,16.92h-19.51l-9.77-16.92,9.77-16.93Zm0,103.61,9.77,16.92-9.77,16.93h-19.51l-9.77-16.93,9.77-16.92Zm0,103.6,9.77,16.93-9.77,16.92h-19.51l-9.77-16.92,9.77-16.93ZM972.8,889.19,963,872.27l9.77-16.93h19.51l9.77,16.93-9.77,16.92Zm-59.81,0-9.78-16.92L913,855.34h19.5l9.77,16.93-9.77,16.92Zm-59.82,0-9.77-16.92,9.77-16.93h19.5l9.78,16.93-9.78,16.92Zm-59.82,0-9.77-16.92,9.77-16.93h19.51l9.77,16.93-9.77,16.92Zm-59.82,0-9.77-16.92,9.77-16.93H753l9.77,16.93L753,889.19Zm-59.82,0-9.77-16.92,9.77-16.93h19.51L703,872.27l-9.77,16.92Zm-59.81,0-9.77-16.92,9.77-16.93h19.5l9.78,16.93-9.78,16.92Zm-59.82,0-9.77-16.92,9.77-16.93h19.51l9.77,16.93-9.77,16.92Zm-59.82,0-9.77-16.92,9.77-16.93h19.51l9.77,16.93-9.77,16.92Zm49.38-465.53,9.79,16.95-9.75,16.9H524.17l-9.79-17,9.76-16.89Zm59.82,0,9.79,16.95-9.75,16.9H584l-9.79-17L584,423.66Zm59.82,0,9.79,16.95-9.76,16.9h-19.5L634,440.56l9.75-16.9Zm59.81,0,9.79,16.95-9.75,16.9H703.62l-9.79-17,9.76-16.89Zm59.82,0,9.79,16.95-9.7,16.9H763.44l-9.79-17,9.76-16.89Zm59.82,0,9.79,16.95-9.75,16.9H823.26l-9.79-17,9.75-16.89Zm59.82,0,9.79,16.95-9.76,16.9h-19.5l-9.79-17L883,423.66Zm59.82,0,9.78,16.95-9.75,16.9H942.89l-9.79-17,9.76-16.89Zm59.85,34.53,9.77,16.93L1022.22,492h-19.51l-9.77-16.92,9.77-16.93ZM942.89,871.93l-9.79-17,9.76-16.89h19.51L972.15,855l-9.75,16.9Zm-59.81,0-9.79-17L883,838.08h19.51L912.34,855l-9.76,16.9Zm-59.82,0-9.79-17,9.75-16.89h19.51L852.52,855l-9.75,16.9Zm-59.82,0-9.79-17,9.76-16.89h19.5L792.7,855,783,871.93Zm-59.82,0-9.79-17,9.76-16.89h19.5L732.88,855l-9.75,16.9Zm-59.81,0L634,855l9.75-16.89h19.51L673.07,855l-9.76,16.9Zm-59.82,0-9.79-17,9.8-16.85h19.51L613.25,855l-9.75,16.9Zm-59.82,0-9.79-17,9.76-16.89h19.5L553.43,855l-9.75,16.9Zm19.51-413.74,9.77,16.93L543.68,492H524.17l-9.77-16.92,9.77-16.93Zm59.82,0,9.77,16.93L603.5,492H584l-9.77-16.92L584,458.19Zm59.81,0,9.77,16.93L663.31,492h-19.5L634,475.12l9.78-16.93Zm59.82,0,9.77,16.93L723.13,492H703.62l-9.77-16.92,9.77-16.93Zm59.82,0,9.77,16.93L783,492H763.44l-9.77-16.92,9.77-16.93Zm59.82,0,9.77,16.93L842.77,492H823.26l-9.77-16.92,9.77-16.93Zm59.81,0,9.77,16.93L902.58,492h-19.5l-9.78-16.92,9.78-16.93Zm59.82,0,9.77,16.93L962.4,492H942.89l-9.77-16.92,9.77-16.93Zm10.4,361.93L963,803.2l9.77-16.92h19.51l9.77,16.92-9.77,16.92Zm-29.94,17.27L933.1,820.5l9.79-17H962.4l9.75,16.9-9.78,16.95Zm-59.82,0-9.75-16.89,9.79-17h19.5l9.76,16.9-9.79,16.95Zm-59.82,0-9.75-16.89,9.79-17h19.51l9.75,16.9-9.79,16.95Zm-59.81,0-9.76-16.89,9.79-17H783l9.75,16.9-9.79,16.95Zm-59.82,0-9.76-16.89,9.79-17h19.51l9.75,16.9-9.79,16.95Zm-59.82,0L634,820.5l9.79-17h19.5l9.76,16.9-9.79,16.95Zm-59.82,0L574.2,820.5l9.79-17H603.5l9.75,16.9-9.79,16.95Zm-59.81,0-9.76-16.89,9.79-17h19.51l9.75,16.9-9.79,16.95Zm-29.88-17.27-9.77-16.92,9.77-16.92h19.51l9.77,16.92-9.77,16.92Zm19.51-344.66,9.77,16.93-9.77,16.92H494.26l-9.77-16.92,9.77-16.93Zm29.91,17.27,9.75,16.89-9.79,17h-19.5l-9.76-16.9,9.79-16.95Zm29.91-17.27,9.77,16.93-9.77,16.92H554.08l-9.77-16.92,9.77-16.93Zm29.91,17.27,9.75,16.89-9.79,17H584l-9.75-16.9L584,492.73Zm29.9-17.27,9.78,16.93-9.78,16.92H613.9l-9.77-16.92,9.77-16.93Zm29.91,17.27,9.76,16.89-9.79,17H643.77L634,509.68l9.79-16.95Zm29.91-17.27L703,492.39l-9.77,16.92H673.71l-9.77-16.92,9.77-16.93Zm29.91,17.27,9.75,16.89-9.79,17h-19.5l-9.76-16.9,9.79-16.95ZM753,475.46l9.77,16.93L753,509.31H733.53l-9.77-16.92,9.77-16.93Zm30,17.27,9.75,16.89-9.79,17h-19.5l-9.76-16.9,9.79-16.95Zm29.91-17.27,9.77,16.93-9.77,16.92H793.35l-9.77-16.92,9.77-16.93Zm29.91,17.27,9.75,16.89-9.79,17H823.22l-9.75-16.9,9.79-16.95Zm29.9-17.27,9.78,16.93-9.78,16.92h-19.5l-9.77-16.92,9.77-16.93Zm29.91,17.27,9.76,16.89-9.79,17H883l-9.75-16.9,9.79-16.95Zm29.91-17.27,9.77,16.93-9.77,16.92H913l-9.78-16.92L913,475.46Zm29.91,17.27,9.75,16.89-9.78,17H942.86l-9.76-16.9,9.79-16.95Zm29.91-17.27,9.77,16.93-9.77,16.92H972.8L963,492.39l9.77-16.93Zm-49.42,327.4-9.77-16.93L942.89,769H962.4l9.77,16.92-9.77,16.93ZM913,785.59l-9.78-16.93L913,751.74h19.5l9.77,16.92-9.77,16.93Zm-29.91,17.27-9.78-16.93L883.08,769h19.5l9.77,16.92-9.77,16.93Zm-29.91-17.27-9.77-16.93,9.77-16.92h19.5l9.78,16.92-9.78,16.93Zm-29.91,17.27-9.77-16.93L823.26,769h19.51l9.77,16.92-9.77,16.93Zm-29.91-17.27-9.77-16.93,9.77-16.92h19.51l9.77,16.92-9.77,16.93Zm-29.91,17.27-9.77-16.93L763.44,769H783l9.77,16.92L783,802.86Zm-29.91-17.27-9.77-16.93,9.77-16.92H753l9.77,16.92L753,785.59Zm-29.91,17.27-9.77-16.93L703.62,769h19.51l9.77,16.92-9.77,16.93Zm-29.91-17.27-9.77-16.93,9.77-16.92h19.51L703,768.66l-9.77,16.93Zm-29.9,17.27L634,785.93,643.81,769h19.5l9.77,16.92-9.77,16.93ZM613.9,785.59l-9.77-16.93,9.77-16.92h19.5l9.78,16.92-9.78,16.93ZM584,802.86l-9.77-16.93L584,769h19.5l9.77,16.92-9.77,16.93Zm-29.91-17.27-9.77-16.93,9.77-16.92H573.6l9.77,16.92-9.77,16.93Zm-29.91,17.27-9.77-16.93L524.17,769h19.51l9.77,16.92-9.77,16.93Zm19.47-275.6,9.79,17-9.75,16.89H524.17l-9.79-17,9.76-16.9Zm59.82,0,9.79,17-9.75,16.89H584l-9.79-17,9.75-16.9Zm59.82,0,9.79,17-9.76,16.89h-19.5l-9.79-17,9.75-16.9Zm59.81,0,9.79,17-9.75,16.89H703.62l-9.79-17,9.76-16.9Zm59.82,0,9.79,17L783,561.11H763.44l-9.79-17,9.76-16.9Zm59.82,0,9.79,17-9.75,16.89H823.26l-9.79-17,9.75-16.9Zm59.82,0,9.79,17-9.76,16.89h-19.5l-9.79-17,9.75-16.9Zm59.82,0,9.78,17-9.75,16.89H942.89l-9.79-17,9.76-16.9Zm0,241.06H942.89l-9.79-17,9.76-16.9h19.51l9.78,17Zm-79.32,0-9.79-17,9.75-16.9h19.51l9.79,17-9.76,16.89Zm-59.82,0-9.79-17,9.75-16.9h19.51l9.79,17-9.75,16.89Zm-59.82,0-9.79-17,9.76-16.9h19.5l9.79,17L783,768.32Zm-59.82,0-9.79-17,9.76-16.9h19.5l9.79,17-9.75,16.89Zm-59.81,0-9.79-17,9.75-16.9h19.51l9.79,17-9.76,16.89Zm-59.82,0-9.79-17,9.75-16.9h19.51l9.79,17-9.75,16.89Zm-59.82,0-9.79-17,9.76-16.9h19.5l9.79,17-9.75,16.89ZM543.68,561.8l9.77,16.92-9.77,16.93H524.17l-9.77-16.93,9.77-16.92Zm59.82,0,9.77,16.92-9.77,16.93H584l-9.77-16.93L584,561.8Zm59.81,0,9.77,16.92-9.77,16.93h-19.5L634,578.72l9.78-16.92Zm59.82,0,9.77,16.92-9.77,16.93H703.62l-9.77-16.93,9.77-16.92Zm59.82,0,9.77,16.92L783,595.65H763.44l-9.77-16.93,9.77-16.92Zm59.82,0,9.77,16.92-9.77,16.93H823.26l-9.77-16.93,9.77-16.92Zm59.81,0,9.77,16.92-9.77,16.93h-19.5l-9.78-16.93,9.78-16.92Zm59.82,0,9.77,16.92-9.77,16.93H942.89l-9.77-16.93,9.77-16.92Zm0,103.6,9.77,16.93-9.77,16.92H942.89l-9.77-16.92,9.77-16.93ZM883,733.79l-9.75-16.9,9.79-16.95h19.5l9.76,16.89-9.79,17Zm-59.82,0-9.75-16.9,9.79-16.95h19.51l9.75,16.89-9.79,17Zm-59.81,0-9.76-16.9,9.79-16.95H783l9.75,16.89-9.79,17Zm-59.82,0-9.76-16.9,9.79-16.95h19.51l9.75,16.89-9.79,17Zm-59.82,0L634,716.89l9.79-16.95h19.5l9.76,16.89-9.79,17Zm-59.82,0-9.75-16.9L584,699.94h19.5l9.75,16.89-9.79,17Zm-59.78-34.54-9.77-16.92,9.77-16.93h19.51l9.77,16.93-9.77,16.92Zm49.42-120.18L583.36,596l-9.77,16.93H554.08L544.31,596l9.77-16.92Zm29.91,17.26,9.75,16.9-9.79,16.95H584l-9.75-16.89,9.79-17Zm29.9-17.26L643.18,596l-9.78,16.93H613.9L604.13,596l9.77-16.92Zm29.91,17.26,9.76,16.9-9.79,16.95H643.77L634,613.29l9.79-17Zm29.91-17.26L703,596l-9.77,16.93H673.71L663.94,596l9.77-16.92Zm29.91,17.26,9.75,16.9-9.79,16.95h-19.5l-9.76-16.89,9.79-17ZM753,579.07,762.81,596,753,612.92H733.53L723.76,596l9.77-16.92Zm30,17.26,9.75,16.9-9.79,16.95h-19.5l-9.76-16.89,9.79-17Zm29.91-17.26L822.63,596l-9.77,16.93H793.35L783.58,596l9.77-16.92Zm29.91,17.26,9.75,16.9-9.79,16.95H823.22l-9.75-16.89,9.79-17Zm29.9-17.26L882.45,596l-9.78,16.93h-19.5L843.4,596l9.77-16.92Zm29.91,17.26,9.76,16.9-9.79,16.95H883l-9.75-16.89,9.79-17Zm29.91-17.26L942.26,596l-9.77,16.93H913L903.21,596,913,579.07ZM913,682l-9.78-16.92L913,648.14h19.5l9.77,16.92L932.49,682Zm-29.91,17.27-9.78-16.92,9.78-16.93h19.5l9.77,16.93-9.77,16.92ZM853.17,682l-9.77-16.92,9.77-16.92h19.5l9.78,16.92L872.67,682Zm-29.91,17.27-9.77-16.92,9.77-16.93h19.51l9.77,16.93-9.77,16.92ZM793.35,682l-9.77-16.92,9.77-16.92h19.51l9.77,16.92L812.86,682Zm-29.91,17.27-9.77-16.92,9.77-16.93H783l9.77,16.93L783,699.25ZM733.53,682l-9.77-16.92,9.77-16.92H753l9.77,16.92L753,682Zm-29.91,17.27-9.77-16.92,9.77-16.93h19.51l9.77,16.93-9.77,16.92ZM673.71,682l-9.77-16.92,9.77-16.92h19.51l9.78,16.9L693.22,682Zm-29.9,17.27L634,682.33l9.78-16.93h19.5l9.77,16.93-9.77,16.92ZM613.9,682l-9.77-16.92,9.77-16.92h19.5l9.78,16.92L633.4,682ZM584,699.25l-9.77-16.92L584,665.4h19.5l9.77,16.93-9.77,16.92ZM554.08,682l-9.77-16.92,9.77-16.92h19.51l9.77,16.92L573.59,682Zm49.38-51.11,9.79,17-9.75,16.9H584l-9.79-17L584,630.87Zm59.82,0,9.79,17-9.76,16.9h-19.5l-9.79-17,9.75-16.89Zm59.81,0,9.79,17-9.75,16.9H703.62l-9.79-17,9.76-16.89Zm59.82,0,9.79,17L783,664.72H763.44l-9.79-17,9.76-16.89Zm59.82,0,9.79,17-9.75,16.9H823.26l-9.79-17,9.75-16.89Zm59.82,0,9.79,17-9.76,16.9h-19.5l-9.79-17L883,630.87Zm29.91-17.27,9.77,16.93-9.77,16.92H913l-9.77-16.92L913,613.6Zm-59.82,0,9.77,16.93-9.77,16.92H853.13l-9.77-16.92,9.77-16.93Zm-59.82,0,9.77,16.93-9.77,16.92H793.31l-9.77-16.92,9.77-16.93Zm-59.82,0,9.77,16.93L753,647.45H733.5l-9.78-16.92,9.78-16.93Zm-59.81,0L703,630.53l-9.77,16.92H673.68l-9.77-16.92,9.77-16.93Zm-59.82,0,9.77,16.93-9.77,16.92H613.86l-9.77-16.92,9.77-16.93Zm-59.82,0,9.77,16.93-9.77,16.92H554l-9.77-16.92L554,613.6Zm-19.47,102.9-9.77-16.92,9.77-16.93h19.51l9.77,16.93-9.77,16.92Zm59.82,0-9.77-16.92,9.77-16.93h19.5l9.78,16.93-9.78,16.92Zm59.81,0-9.77-16.92,9.77-16.93h19.51L703,699.6l-9.77,16.92Zm59.82,0-9.77-16.92,9.77-16.93H753l9.77,16.93L753,716.52Zm59.82,0-9.77-16.92,9.77-16.93h19.51l9.77,16.93-9.77,16.92Zm59.82,0L843.4,699.6l9.77-16.93h19.5l9.78,16.93-9.78,16.92Zm59.82,0-9.78-16.92L913,682.67h19.5l9.77,16.93-9.77,16.92Zm19.5-172,9.77,16.93-9.77,16.92H913l-9.78-16.92L913,544.53Zm-59.82,0,9.78,16.93-9.78,16.92h-19.5l-9.77-16.92,9.77-16.93Zm-59.81,0,9.77,16.93-9.77,16.92H793.35l-9.77-16.92,9.77-16.93Zm-59.82,0,9.77,16.93L753,578.38H733.53l-9.77-16.92,9.77-16.93Zm-59.82,0L703,561.46l-9.77,16.92H673.71l-9.77-16.92,9.77-16.93Zm-59.82,0,9.78,16.93-9.78,16.92H613.9l-9.77-16.92,9.77-16.93Zm-59.81,0,9.77,16.93-9.77,16.92H554.08l-9.77-16.92,9.77-16.93Zm-49.42,51.8h19.51l9.75,16.9-9.79,16.95h-19.5l-9.76-16.89Zm0,34.54h19.5l9.79,17-9.75,16.9H524.17l-9.79-17Zm0,69.07h19.51l9.75,16.89-9.79,17h-19.5l-9.76-16.9ZM554,751.05l-9.77-16.92L554,717.2h19.51l9.77,16.93-9.77,16.92Zm59.82,0-9.77-16.92,9.77-16.93h19.51l9.77,16.93-9.77,16.92Zm59.82,0-9.77-16.92,9.77-16.93h19.51L703,734.13l-9.77,16.92Zm59.82,0-9.78-16.92,9.78-16.93H753l9.77,16.93L753,751.05Zm59.81,0-9.77-16.92,9.77-16.93h19.51l9.77,16.93-9.77,16.92Zm59.82,0-9.77-16.92,9.77-16.93H872.6l9.77,16.93-9.77,16.92Zm59.82,0-9.77-16.92L913,717.2h19.51l9.77,16.93-9.77,16.92Zm49.42-17.26H942.86l-9.76-16.9,9.79-16.95H962.4l9.75,16.89Zm0-69.07H942.89l-9.79-17,9.76-16.89h19.51l9.78,17Zm0-34.54H942.86l-9.76-16.89,9.79-17H962.4l9.75,16.9ZM932.46,510l9.77,16.92-9.77,16.93H913l-9.77-16.93L913,510Zm-59.82,0,9.77,16.92-9.77,16.93H853.13l-9.77-16.93L853.13,510Zm-59.82,0,9.77,16.92-9.77,16.93H793.31l-9.77-16.93L793.31,510ZM753,510l9.77,16.92L753,543.85H733.5l-9.78-16.93L733.5,510Zm-59.81,0L703,526.92l-9.77,16.93H673.68l-9.77-16.93L673.68,510Zm-59.82,0,9.77,16.92-9.77,16.93H613.86l-9.77-16.93L613.86,510Zm-59.82,0,9.77,16.92-9.77,16.93H554l-9.77-16.93L554,510Zm-59.82,0,9.77,16.92-9.77,16.93h-19.5l-9.78-16.93L494.23,510Zm0,34.53,9.77,16.93-9.77,16.92H494.26l-9.77-16.92,9.77-16.93Zm0,34.54L523.54,596l-9.77,16.93H494.26L484.49,596l9.77-16.92Zm0,34.53,9.77,16.93-9.77,16.92h-19.5l-9.78-16.92,9.78-16.93Zm0,34.54,9.77,16.92L513.77,682H494.26l-9.77-16.92,9.77-16.92Zm0,34.53,9.77,16.93-9.77,16.92H494.26l-9.77-16.92,9.77-16.93Zm0,34.53,9.77,16.93-9.77,16.92h-19.5l-9.78-16.92,9.78-16.93Zm0,34.54,9.77,16.92-9.77,16.93H494.26l-9.77-16.93,9.77-16.92Zm40.31,68.38-9.77-16.92,9.77-16.92h19.51l9.77,16.92-9.77,16.92Zm59.82,0-9.77-16.92,9.77-16.92h19.5l9.78,16.92-9.78,16.92Zm59.81,0L663.9,803.2l9.77-16.92h19.51L703,803.2l-9.77,16.92Zm59.82,0-9.77-16.92,9.77-16.92H753l9.77,16.92L753,820.12Zm59.82,0-9.77-16.92,9.77-16.92h19.51l9.77,16.92-9.77,16.92Zm59.82,0L843.4,803.2l9.77-16.92h19.5l9.78,16.92-9.78,16.92Zm59.82,0-9.78-16.92L913,786.28h19.5l9.77,16.92-9.77,16.92Zm79.32-34.53H972.8L963,768.66l9.77-16.92h19.51l9.77,16.92Zm-19.54-34.54L963,734.13l9.77-16.93h19.5l9.77,16.93-9.77,16.92Zm0-34.53L963,699.6l9.77-16.93h19.51l9.77,16.93-9.77,16.92ZM992.31,682H972.8L963,665.06l9.77-16.92h19.51l9.77,16.92Zm-19.54-34.53L963,630.53l9.77-16.93h19.5l9.77,16.93-9.77,16.92Zm0-34.53L963,596l9.77-16.92h19.51l9.77,16.92-9.77,16.93Zm19.51-34.54H972.8L963,561.46l9.77-16.93h19.51l9.77,16.93Zm-19.54-34.53L963,526.92,972.77,510h19.5l9.77,16.92-9.77,16.93Zm19.54-102.92,9.77,16.92-9.77,16.93H972.8L963,457.85l9.77-16.92Zm-59.82,0,9.77,16.92-9.77,16.93H913l-9.78-16.93L913,440.93Zm-59.82,0,9.78,16.92-9.78,16.93h-19.5l-9.77-16.93,9.77-16.92Zm-59.81,0,9.77,16.92-9.77,16.93H793.35l-9.77-16.93,9.77-16.92Zm-59.82,0,9.77,16.92L753,474.78H733.53l-9.77-16.93,9.77-16.92Zm-59.82,0,9.81,16.9-9.77,16.93H673.71l-9.77-16.93,9.77-16.92Zm-59.82,0,9.78,16.92-9.78,16.93H613.9l-9.77-16.93,9.77-16.92Zm-59.81,0,9.77,16.92-9.77,16.93H554.08l-9.77-16.93,9.77-16.92Zm-59.82,0,9.77,16.92-9.77,16.93H494.26l-9.77-16.93,9.77-16.92ZM494.23,854.66l-9.78-16.93,9.78-16.92h19.5l9.77,16.92-9.77,16.93Zm59.81,0-9.77-16.93L554,820.81h19.51l9.77,16.92-9.77,16.93Zm59.82,0-9.77-16.93,9.77-16.92h19.51l9.77,16.92-9.77,16.93Zm59.82,0-9.77-16.93,9.77-16.92h19.51L703,837.73l-9.77,16.93Zm59.82,0-9.78-16.93,9.78-16.92H753l9.77,16.92L753,854.66Zm59.81,0-9.77-16.93,9.77-16.92h19.51l9.77,16.92-9.77,16.93Zm59.82,0-9.77-16.93,9.77-16.92h19.51l9.77,16.92-9.77,16.93Zm59.82,0-9.77-16.93L913,820.81h19.51l9.77,16.92-9.77,16.93Zm59.82,0L963,837.73l9.77-16.92h19.5l9.77,16.92-9.77,16.93ZM1002,423.32l-9.77,16.92h-19.5L963,423.32l9.77-16.93h19.5Zm-59.81,0-9.77,16.92H913l-9.77-16.92L913,406.39h19.51Zm-59.82,0-9.77,16.92H853.13l-9.77-16.92,9.77-16.93h19.51Zm-59.82,0-9.77,16.92H793.31l-9.77-16.92,9.77-16.93h19.51Zm-59.82,0L753,440.24H733.5l-9.78-16.92,9.78-16.93H753Zm-59.81,0-9.77,16.92H673.68l-9.77-16.92,9.77-16.93h19.51Zm-59.82,0-9.77,16.92H613.86l-9.77-16.92,9.77-16.93h19.51Zm-59.82,0-9.77,16.92H554l-9.77-16.92L554,406.39h19.51Zm-59.82,0-9.77,16.92h-19.5l-9.78-16.92,9.78-16.93h19.5Zm-9.1,466.22,9.77-16.93h19.51l9.77,16.93-9.77,16.92H524.17Zm59.82,0L584,872.61h19.5l9.77,16.93-9.77,16.92H584Zm59.81,0,9.78-16.93h19.5l9.77,16.93-9.77,16.92h-19.5Zm59.82,0,9.77-16.93h19.51l9.77,16.93-9.77,16.92H703.62Zm59.82,0,9.77-16.93H783l9.77,16.93L783,906.46H763.44Zm59.82,0,9.77-16.93h19.51l9.77,16.93-9.77,16.92H823.26Zm59.81,0,9.78-16.93h19.5l9.77,16.93-9.77,16.92h-19.5Zm59.82,0,9.77-16.93H962.4l9.77,16.93-9.77,16.92H942.89Zm119-380.23h-19.54l-9.77-16.92,9.77-16.93h19.54l9.77,16.93Zm9.77-51.46-9.77,16.93h-19.54l-9.77-16.93,9.77-16.92h19.54Zm-39.71-.34h-19.51l-9.79-17,9.76-16.89h19.54l9.77,16.92Zm-19.54-68.39h19.54l9.77,16.93L1022.22,423h-19.54l-9.77-16.92Zm-59.82,0H962.4l9.75,16.9-9.78,17H942.86l-9.77-16.92Zm-59.82,0H902.5l9.76,16.9-9.79,17H883l-9.77-16.92Zm-59.82,0h19.55l9.75,16.9-9.79,17H823.22l-9.77-16.92Zm-59.81,0H783L792.7,406l-9.79,17h-19.5l-9.78-16.92Zm-59.82,0h19.54l9.75,16.9-9.79,17h-19.5l-9.77-16.92Zm-59.82,0h19.54l9.76,16.9-9.79,17H643.77L634,406.05Zm-59.82,0H603.5l9.75,16.9-9.79,17H584l-9.77-16.92Zm-59.81,0H543.6l9.75,16.9-9.79,17h-19.5l-9.78-16.92Zm-59.82,0h19.54l9.75,16.9-9.78,17H464.32l-9.77-16.92Zm-39.72,34.2,9.77-16.93h19.55l9.77,16.93-9.77,16.92H434.37Zm39.72.34h19.51l9.78,16.95-9.75,16.9H464.32l-9.77-16.93Zm0,34.53h19.54l9.77,16.93L483.86,492H464.32l-9.77-16.92Zm0,34.54h19.54l9.75,16.89-9.78,17H464.32l-9.77-16.93ZM424.6,526.92,434.37,510h19.55l9.77,16.92-9.77,16.93H434.37Zm39.72.34h19.51l9.78,17-9.75,16.89H464.32l-9.77-16.92Zm0,34.54h19.54l9.77,16.92-9.77,16.93H464.32l-9.77-16.93Zm0,34.53h19.54l9.75,16.9-9.78,16.95H464.32l-9.77-16.92Zm-39.72,34.2,9.77-16.93h19.55l9.77,16.93-9.77,16.92H434.37Zm39.72.34h19.51l9.78,17-9.75,16.9H464.32l-9.77-16.93Zm0,34.53h19.54l9.77,16.93-9.77,16.92H464.32l-9.77-16.92Zm0,34.54h19.54l9.75,16.89-9.78,17H464.32l-9.77-16.93ZM424.6,734.13l9.77-16.93h19.55l9.77,16.93-9.77,16.92H434.37Zm39.72.34h19.51l9.78,17-9.75,16.89H464.32l-9.77-16.92Zm0,34.54h19.54l9.77,16.92-9.77,16.93H464.32l-9.77-16.93Zm0,34.53h19.54l9.75,16.9-9.78,16.95H464.32l-9.77-16.92ZM424.6,837.73l9.77-16.92h19.55l9.77,16.92-9.77,16.93H434.37Zm39.72.35h19.51L493.61,855l-9.75,16.9H464.32L454.55,855Zm-9.77,51.46,9.77-16.93h19.54l9.77,16.93-9.77,16.92H464.32Zm59.25,34.19H494.26l-9.77-16.93,9.77-16.92h19.51l9.79,17Zm59.82,0H554.08l-9.77-16.93,9.77-16.92h19.51l9.79,17Zm59.82,0H613.9l-9.77-16.93,9.77-16.92h19.5l9.79,17Zm59.82,0H673.71l-9.77-16.93,9.77-16.92h19.51l9.79,17Zm59.81,0H733.53l-9.77-16.93,9.77-16.92H753l9.79,17Zm59.82,0H793.35l-9.77-16.93,9.77-16.92h19.51l9.79,17Zm59.82,0H853.17L843.4,906.8l9.77-16.92h19.5l9.79,17Zm59.82,0H913l-9.78-16.93L913,889.88h19.5l9.79,17Zm59.81,0H972.8L963,906.8l9.77-16.92h19.51l9.79,17Zm59.82,0h-19.54l-9.77-16.93,9.77-16.92h19.54l9.77,16.92Zm9.77-51.46-9.77,16.92h-19.54l-9.77-16.92,9.77-16.93h19.54Zm-39.71-.34h-19.51l-9.79-17,9.76-16.89h19.54L1032,855Zm0-34.54h-19.54l-9.76-16.89,9.79-17h19.51l9.77,16.93Zm29.94-17.27h-19.54l-9.77-16.92,9.77-16.92h19.54l9.77,16.92Zm9.77-51.46-9.77,16.93h-19.54l-9.77-16.93,9.77-16.92h19.54Zm-39.71-.34h-19.51l-9.79-17,9.76-16.9h19.54L1032,751.4Zm0-34.53h-19.54l-9.76-16.9,9.79-16.95h19.51l9.77,16.92Zm29.94-17.27h-19.54l-9.77-16.92,9.77-16.93h19.54l9.77,16.93Zm9.77-51.46L1052.16,682h-19.54l-9.77-16.92,9.77-16.92h19.54Zm-39.71-.34h-19.51l-9.79-17,9.76-16.89h19.54l9.77,16.92Zm0-34.54h-19.54l-9.76-16.89,9.79-17h19.51l9.77,16.93Zm29.94-17.26h-19.54L1022.85,596l9.77-16.92h19.54l9.77,16.92Zm9.77-51.46-9.77,16.92h-19.54l-9.77-16.92,9.77-16.93h19.54Zm-39.71-.35h-19.51l-9.79-17,9.76-16.9h19.54l9.77,16.93Z" transform="translate(344.34 255.53)" opacity="0.19" fill="url(#radial-gradient)"></path><path id="Path_4" data-name="Path 4" d="M1235.48,80h16.91L1261,65.1l-8.44-14.61L1261,35.82l-8.61-14.9h-16.91l-8.27-14.33L1235.65-8l-8.6-14.91h-17.21l-8.44,14.6h-16.54l-8.44-14.62h-17.21l-8.44,14.62h-16.54l-8.44-14.62h-17.21l-8.43,14.62h-16.54l-8.44-14.62H1058l-8.44,14.62H1033l-8.44-14.62h-17.21L998.89-8.31H982.35l-8.44-14.62H956.7L948.27-8.31H931.73l-8.44-14.62H906.08L897.64-8.31H881.1l-8.44-14.62H855.45L847-8.31H830.47L822-22.93H804.83L796.39-8.31H779.85l-8.44-14.62H754.2L745.76-8.31h-16.9l-8.61,14.9,8.61,14.91h16.9L754,35.82l-8.44,14.62L754,65.05l-8.27,14.32h-16.9l-8.61,14.91,8.61,14.9h16.9L754,123.51l-8.44,14.61L754,152.74l-8.27,14.32h-16.9L720.25,182l8.61,14.91h16.9L754,211.19l-8.44,14.62L754,240.42l-8.27,14.32h-16.9l-8.61,14.91,8.61,14.9h16.9L754,298.88l-8.44,14.61L754,328.11l-8.27,14.32h-16.9l-8.61,14.9,8.61,14.91h16.9L754,386.56l-8.44,14.62,8.61,14.9h16.9l8.44,14.62h17.21l8.44-14.62H821.7l8.44,14.62h17.21l8.44-14.62h16.54l8.43,14.62H898l8.44-14.62H923l8.44,14.62h17.21l8.44-14.62h16.54l8.44,14.62h17.21l8.44-14.62h16.54l8.43,14.62h17.21l8.44-14.62h16.54l8.44,14.62h17.21l8.44-14.62h16.54l8.44,14.62h17.21l8.43-14.62h16.54l8.44,14.62h17.21l8.44-14.62h16.54l8.44,14.62h17.21l8.61-14.91-8.44-14.61,8.44-14.62-8.61-14.9H1235.5l-8.27-14.33,8.27-14.32h16.91l8.61-14.9-8.44-14.62,8.44-14.61L1252.39,284h-16.91l-8.27-14.32,8.27-14.33h16.91l8.61-14.9-8.44-14.61,8.44-14.62-8.61-14.9h-16.91L1227.21,182l8.27-14.32h16.91l8.61-14.9-8.44-14.62,8.44-14.61-8.61-14.91h-16.91l-8.27-14.32Zm-8.77,14h-16.54l-8.25-14.3,8.28-14.35h16.51L1235,79.66Zm0,29.81,8.27,14.32-8.27,14.32H1210.2l-8.27-14.32,8.27-14.32Zm0,87.68,8.27,14.33-8.27,14.32H1210.2l-8.27-14.32,8.27-14.33Zm0,87.69,8.27,14.32-8.27,14.33H1210.2l-8.27-14.33,8.27-14.32Zm0,87.68,8.27,14.33-8.27,14.32H1210.2l-8.27-14.32,8.27-14.33Zm-41.82,14-8.27-14.33,8.27-14.32h16.51l8.27,14.32-8.27,14.33Zm-50.63,0-8.26-14.3,8.27-14.32h16.51l8.27,14.32-8.27,14.33Zm-50.62,0-8.27-14.33,8.27-14.32h16.51l8.27,14.32-8.27,14.33Zm-50.63,0-8.27-14.33,8.27-14.32h16.51l8.27,14.32-8.27,14.33Zm-50.63,0-8.27-14.33,8.27-14.32h16.51l8.27,14.32-8.27,14.33Zm-50.62,0-8.27-14.33,8.27-14.32h16.51l8.27,14.32-8.27,14.33Zm-50.63,0-8.27-14.33,8.27-14.32h16.51l8.27,14.32-8.27,14.33Zm-50.63,0-8.27-14.33,8.27-14.32H847l8.27,14.32L847,400.89Zm-50.62,0-8.27-14.33,8.27-14.32h16.51l8.27,14.32-8.27,14.33Zm41.79-394L830,21.23l-8.25,14.3H805.19l-8.28-14.35,8.25-14.3Zm50.63,0,8.28,14.35-8.25,14.3H855.82l-8.29-14.35,8.26-14.3Zm50.62,0,8.29,14.35L923,35.53H906.44l-8.28-14.35,8.25-14.3Zm50.63,0,8.28,14.35-8.25,14.3H957.07l-8.29-14.35L957,6.88Zm50.63,0,8.28,14.35-8.25,14.3H1007.7l-8.29-14.35,8.26-14.3Zm50.62,0,8.29,14.35-8.26,14.3h-16.51L1050,21.18l8.25-14.3Zm50.63,0,8.28,14.35-8.25,14.3H1109l-8.29-14.35,8.26-14.3Zm50.62,0,8.29,14.35-8.26,14.3h-16.51l-8.28-14.35,8.26-14.3Zm50.66,29.23L1235,50.44l-8.27,14.32H1210.2l-8.27-14.32,8.27-14.33Zm-67.14,350.16-8.28-14.35,8.26-14.3h16.5l8.29,14.35-8.26,14.3Zm-50.62,0-8.29-14.35,8.26-14.3h16.51l8.28,14.35-8.25,14.3Zm-50.63,0L1050,371.92l8.25-14.3h16.51l8.29,14.35-8.26,14.3Zm-50.62,0-8.29-14.35,8.26-14.3h16.51l8.28,14.35-8.25,14.3Zm-50.63,0-8.29-14.35,8.26-14.3h16.51l8.28,14.4-8.25,14.3Zm-50.63,0-8.28-14.35,8.25-14.3h16.51l8.29,14.4L923,386.27Zm-50.62,0-8.29-14.35,8.26-14.3H872.3l8.28,14.4-8.25,14.3Zm-50.63,0-8.28-14.35,8.25-14.3h16.51L830,372l-8.25,14.3ZM821.7,36.11,830,50.44l-8.3,14.32H805.19l-8.27-14.32,8.27-14.33Zm50.63,0,8.27,14.33-8.27,14.32H855.82l-8.27-14.32,8.27-14.33Zm50.62,0,8.27,14.33L923,64.76H906.44l-8.27-14.32,8.27-14.33Zm50.63,0,8.27,14.33-8.27,14.32H957.07L948.8,50.44l8.27-14.33Zm50.63,0,8.27,14.33-8.27,14.32H1007.7l-8.27-14.32,8.27-14.33Zm50.62,0,8.27,14.33-8.27,14.32h-16.51l-8.27-14.32,8.27-14.33Zm50.63,0,8.27,14.33-8.27,14.32H1109l-8.27-14.32L1109,36.11Zm50.62,0,8.27,14.33-8.27,14.32h-16.51l-8.26-14.32,8.26-14.33Zm8.81,306.32-8.27-14.32,8.27-14.33h16.51l8.27,14.33-8.27,14.32ZM1159.55,357l-8.26-14.3,8.28-14.34h16.51l8.26,14.29L1176.05,357Zm-50.63,0-8.26-14.3,8.34-14.3h16.51l8.25,14.29L1125.43,357Zm-50.63,0-8.25-14.3,8.28-14.34h16.51l8.26,14.29L1074.8,357Zm-50.62,0-8.26-14.3,8.29-14.34h16.51l8.25,14.29L1024.18,357ZM957,357l-8.26-14.3,8.29-14.34h16.51l8.25,14.29L973.55,357Zm-50.63,0-8.25-14.3,8.28-14.34H923l8.26,14.29L922.92,357Zm-50.62,0-8.26-14.3,8.29-14.34h16.51l8.25,14.29L872.3,357Zm-50.63,0-8.25-14.3,8.28-14.34H821.7l8.3,14.33L821.67,357Zm-25.28-14.61-8.27-14.32,8.27-14.33h16.51l8.27,14.33-8.27,14.32Zm16.51-291.7,8.27,14.32-8.27,14.32H779.88l-8.27-14.32,8.27-14.32ZM821.7,65.34l8.3,14.3L821.67,94H805.16l-8.25-14.3,8.28-14.35ZM847,50.73l8.27,14.32L847,79.37H830.5l-8.27-14.32,8.27-14.32Zm25.32,14.61,8.25,14.3L872.3,94H855.79l-8.26-14.3,8.29-14.35Zm25.31-14.61,8.27,14.32-8.27,14.32h-16.5l-8.27-14.32,8.27-14.32ZM923,65.34l8.26,14.3L922.92,94H906.41l-8.25-14.3,8.28-14.35Zm25.32-14.61,8.27,14.32-8.27,14.32H931.76l-8.27-14.32,8.27-14.32Zm25.31,14.61,8.25,14.3L973.55,94H957l-8.26-14.3,8.29-14.35Zm25.31-14.61,8.27,14.32-8.27,14.32H982.38l-8.27-14.32,8.27-14.32Zm25.32,14.61,8.25,14.3L1024.18,94h-16.51l-8.26-14.3,8.29-14.35Zm25.31-14.61,8.27,14.32-8.27,14.32H1033l-8.27-14.32L1033,50.73Zm25.31,14.61,8.26,14.3L1074.8,94h-16.51L1050,79.69l8.28-14.35Zm25.32-14.61,8.27,14.32-8.27,14.32h-16.51l-8.27-14.32,8.27-14.32Zm25.31,14.61,8.25,14.3L1125.43,94h-16.51l-8.26-14.3L1109,65.34Zm25.31-14.61L1159,65.05l-8.27,14.32h-16.51L1126,65.05l8.27-14.32Zm25.31,14.61,8.26,14.3L1176.05,94h-16.5l-8.26-14.3,8.28-14.35Zm25.32-14.61,8.27,14.32-8.27,14.32h-16.51l-8.27-14.32,8.27-14.32Zm-41.83,277.09-8.26-14.33,8.26-14.32h16.51l8.27,14.32-8.27,14.33Zm-25.31-14.62L1126,298.88l8.27-14.33h16.51l8.27,14.33-8.27,14.32ZM1109,327.82l-8.27-14.33,8.27-14.32h16.51l8.27,14.32-8.27,14.33Zm-25.31-14.62-8.27-14.32,8.27-14.33h16.51l8.27,14.33-8.27,14.32Zm-25.32,14.62-8.27-14.33,8.27-14.32h16.51l8.27,14.32-8.27,14.33ZM1033,313.2l-8.27-14.32,8.27-14.33h16.51l8.27,14.33-8.27,14.32Zm-25.31,14.62-8.27-14.33,8.27-14.32h16.51l8.27,14.32-8.27,14.33ZM982.38,313.2l-8.27-14.32,8.27-14.33h16.51l8.27,14.33-8.27,14.32Zm-25.31,14.62-8.27-14.33,8.27-14.32h16.51l8.27,14.32-8.27,14.33ZM931.76,313.2l-8.27-14.32,8.27-14.33h16.51l8.27,14.33-8.27,14.32Zm-25.32,14.62-8.27-14.33,8.27-14.32H923l8.27,14.32L923,327.82ZM881.13,313.2l-8.27-14.32,8.27-14.33h16.51l8.27,14.33-8.27,14.32Zm-25.31,14.62-8.27-14.33,8.27-14.32h16.51l8.27,14.32-8.27,14.33ZM830.5,313.2l-8.27-14.32,8.27-14.33H847l8.27,14.33L847,313.2Zm-25.31,14.62-8.27-14.33,8.27-14.32H821.7l8.3,14.32-8.27,14.33ZM821.67,94.57,830,108.92l-8.25,14.3H805.19l-8.28-14.35,8.25-14.3Zm50.63,0,8.28,14.35-8.25,14.3H855.82l-8.29-14.35,8.26-14.3Zm50.62,0,8.29,14.35L923,123.22H906.44l-8.28-14.35,8.25-14.3Zm50.63,0,8.28,14.35-8.25,14.3H957.07l-8.29-14.35L957,94.57Zm50.63,0,8.28,14.35-8.25,14.3H1007.7l-8.29-14.35,8.26-14.3Zm50.62,0,8.29,14.35-8.26,14.3h-16.51L1050,108.87l8.25-14.3Zm50.63,0,8.28,14.35-8.25,14.3H1109l-8.29-14.35,8.26-14.3Zm50.62,0,8.29,14.35-8.26,14.3h-16.51l-8.28-14.35,8.26-14.3Zm0,204h-16.51l-8.28-14.35,8.26-14.3h16.5l8.29,14.35Zm-67.13,0-8.29-14.35,8.26-14.3h16.51l8.28,14.35-8.25,14.3Zm-50.63,0L1050,284.24l8.25-14.3h16.51l8.29,14.35-8.26,14.3Zm-50.62,0-8.29-14.35,8.26-14.3h16.51l8.28,14.35-8.25,14.3Zm-50.63,0-8.29-14.35,8.26-14.3h16.51l8.28,14.35-8.25,14.3Zm-50.63,0-8.28-14.35,8.25-14.3h16.51l8.29,14.35L923,298.59Zm-50.62,0-8.29-14.35,8.26-14.3H872.3l8.28,14.35-8.25,14.3Zm-50.63,0-8.28-14.35,8.25-14.3h16.51L830,284.29l-8.25,14.3ZM821.7,123.8l8.3,14.32-8.27,14.32H805.19l-8.27-14.32,8.27-14.32Zm50.63,0,8.27,14.32-8.27,14.32H855.82l-8.27-14.32,8.27-14.32Zm50.62,0,8.27,14.32L923,152.44H906.44l-8.27-14.32,8.27-14.32Zm50.63,0,8.27,14.32-8.27,14.32H957.07l-8.27-14.32,8.27-14.32Zm50.63,0,8.27,14.32-8.27,14.32H1007.7l-8.27-14.32,8.27-14.32Zm50.62,0,8.27,14.32-8.27,14.32h-16.51l-8.27-14.32,8.27-14.32Zm50.63,0,8.27,14.32-8.27,14.32H1109l-8.27-14.32L1109,123.8Zm50.62,0,8.27,14.32-8.27,14.32h-16.51l-8.26-14.32,8.26-14.32Zm0,87.68,8.27,14.33-8.27,14.32h-16.51l-8.26-14.32,8.26-14.33Zm-67.16,57.88-8.26-14.3,8.29-14.35h16.51l8.25,14.3-8.28,14.35Zm-50.63,0-8.25-14.3,8.28-14.35h16.51l8.26,14.3-8.29,14.35Zm-50.62,0-8.26-14.3,8.29-14.35h16.51l8.25,14.3-8.28,14.35Zm-50.63,0-8.26-14.3,8.29-14.35h16.51l8.25,14.3-8.28,14.35Zm-50.63,0-8.25-14.3,8.28-14.35H923l8.26,14.3-8.29,14.35Zm-50.62,0-8.26-14.3,8.29-14.35h16.51l8.25,14.3-8.28,14.35Zm-50.6-29.23-8.27-14.32,8.27-14.33H821.7l8.3,14.33-8.27,14.32ZM847,138.41l8.27,14.33L847,167.06H830.5l-8.27-14.32,8.27-14.33ZM872.33,153l8.25,14.29-8.28,14.35H855.79l-8.26-14.3L855.82,153Zm25.31-14.62,8.27,14.33-8.27,14.32H881.13l-8.27-14.32,8.27-14.33ZM923,153l8.26,14.29-8.29,14.35H906.41l-8.25-14.3L906.44,153Zm25.32-14.62,8.27,14.33-8.27,14.32H931.76l-8.27-14.32,8.27-14.33ZM973.58,153l8.25,14.29-8.28,14.35H957l-8.26-14.3L957.07,153Zm25.31-14.62,8.27,14.33-8.27,14.32H982.38l-8.27-14.32,8.27-14.33ZM1024.21,153l8.25,14.29-8.28,14.35h-16.51l-8.26-14.3L1007.7,153Zm25.31-14.62,8.27,14.33-8.27,14.32H1033l-8.27-14.32,8.27-14.33ZM1074.83,153l8.26,14.29-8.29,14.35h-16.51l-8.25-14.3,8.28-14.34Zm25.32-14.62,8.27,14.33-8.27,14.32h-16.51l-8.27-14.32,8.27-14.33ZM1125.46,153l8.25,14.29-8.28,14.35h-16.51l-8.26-14.3L1109,153Zm25.31-14.62,8.27,14.33-8.27,14.32h-16.51L1126,152.74l8.27-14.33Zm-16.51,87.11-8.26-14.3,8.27-14.32h16.51l8.27,14.32-8.27,14.33ZM1109,240.13l-8.27-14.32,8.27-14.33h16.51l8.27,14.33-8.27,14.32Zm-25.31-14.61-8.27-14.33,8.27-14.32h16.51l8.27,14.32-8.27,14.33Zm-25.32,14.61-8.27-14.32,8.27-14.33h16.51l8.27,14.33-8.27,14.32ZM1033,225.52l-8.27-14.33,8.27-14.32h16.51l8.27,14.32-8.27,14.33Zm-25.31,14.61-8.27-14.32,8.27-14.33h16.51l8.27,14.33-8.27,14.32Zm-25.32-14.61-8.27-14.33,8.27-14.32h16.51l8.27,14.32-8.27,14.33Zm-25.31,14.61-8.27-14.32,8.27-14.33h16.51l8.27,14.33-8.27,14.32Zm-25.31-14.61-8.27-14.33,8.27-14.32h16.51l8.27,14.32-8.27,14.33Zm-25.32,14.61-8.27-14.32,8.27-14.33H923l8.27,14.33L923,240.13Zm-25.31-14.61-8.27-14.33,8.27-14.32h16.51l8.27,14.32-8.27,14.33Zm-25.31,14.61-8.27-14.32,8.27-14.33h16.51l8.27,14.33-8.27,14.32ZM830.5,225.52l-8.27-14.33,8.27-14.32H847l8.27,14.32L847,225.52Zm41.8-43.27,8.28,14.35-8.25,14.3H855.82l-8.29-14.35,8.26-14.3Zm50.62,0,8.29,14.35L923,210.9H906.44l-8.28-14.35,8.25-14.3Zm50.63,0,8.28,14.35-8.25,14.3H957.07l-8.29-14.35,8.26-14.3Zm50.63,0,8.28,14.35-8.25,14.3H1007.7l-8.29-14.35,8.26-14.3Zm50.62,0,8.29,14.35-8.26,14.3h-16.51L1050,196.55l8.25-14.3Zm50.63,0,8.28,14.35-8.25,14.3H1109l-8.29-14.35,8.26-14.3Zm25.31-14.61L1159,182l-8.27,14.33h-16.51L1126,182l8.27-14.32Zm-50.63,0,8.27,14.32-8.27,14.33h-16.5L1075.34,182l8.27-14.32Zm-50.62,0,8.27,14.32-8.27,14.33H1033L1024.71,182l8.27-14.32Zm-50.63,0,8.27,14.32-8.27,14.33H982.35L974.08,182l8.27-14.32Zm-50.62,0L956.51,182l-8.27,14.33H931.73L923.46,182l8.27-14.32Zm-50.63,0L905.88,182l-8.27,14.33H881.1L872.83,182l8.27-14.32Zm-50.63,0L855.25,182,847,196.29H830.47L822.2,182l8.27-14.32Zm-16.48,87.1-8.27-14.32,8.27-14.32H847l8.27,14.32L847,254.74Zm50.63,0-8.27-14.32,8.27-14.32h16.51l8.27,14.32-8.27,14.32Zm50.63,0-8.27-14.32,8.27-14.32h16.51l8.27,14.32-8.27,14.32Zm50.62,0-8.27-14.32,8.27-14.32h16.51l8.27,14.32-8.27,14.32Zm50.63,0-8.27-14.32L1033,226.1h16.51l8.27,14.32-8.27,14.32Zm50.63,0-8.27-14.32,8.27-14.32h16.51l8.27,14.32-8.27,14.32Zm50.62,0L1126,240.42l8.27-14.32h16.51l8.27,14.32-8.27,14.32Zm16.51-145.56,8.27,14.33-8.27,14.32h-16.51L1126,123.51l8.27-14.33Zm-50.62,0,8.27,14.33-8.27,14.32h-16.51l-8.27-14.32,8.27-14.33Zm-50.63,0,8.27,14.33-8.27,14.32H1033l-8.27-14.32,8.27-14.33Zm-50.63,0,8.27,14.33-8.27,14.32H982.38l-8.27-14.32,8.27-14.33Zm-50.62,0,8.27,14.33-8.27,14.32H931.76l-8.27-14.32,8.27-14.33Zm-50.63,0,8.27,14.33-8.27,14.32H881.13l-8.27-14.32,8.27-14.33Zm-50.63,0,8.27,14.33L847,137.83H830.5l-8.27-14.32,8.27-14.33ZM805.19,153H821.7l8.3,14.32-8.28,14.35H805.16l-8.25-14.3Zm0,29.22H821.7L830,196.6l-8.25,14.3H805.19l-8.28-14.35Zm0,58.46H821.7L830,255l-8.28,14.35H805.16l-8.25-14.3ZM830.47,284l-8.27-14.32,8.27-14.33H847l8.27,14.33L847,284Zm50.63,0-8.27-14.32,8.27-14.33h16.51l8.27,14.33L897.61,284Zm50.63,0-8.27-14.32,8.27-14.33h16.51l8.27,14.33L948.24,284Zm50.62,0-8.27-14.32,8.27-14.33h16.51l8.27,14.33L998.86,284Zm50.63,0-8.27-14.32,8.27-14.33h16.51l8.27,14.33L1049.49,284Zm50.63,0-8.27-14.32,8.27-14.33h16.5l8.27,14.33L1100.11,284Zm50.62,0L1126,269.65l8.27-14.33h16.51l8.27,14.33L1150.74,284Zm41.82-14.61h-16.5l-8.26-14.3,8.28-14.35h16.51l8.26,14.3Zm0-58.46h-16.51l-8.28-14.35,8.26-14.3h16.5l8.29,14.35Zm0-29.23h-16.5l-8.26-14.3,8.28-14.34h16.51l8.26,14.29ZM1150.74,80,1159,94.28l-8.27,14.32h-16.51L1126,94.28,1134.23,80Zm-50.63,0,8.27,14.33-8.27,14.32h-16.5l-8.27-14.32L1083.61,80Zm-50.62,0,8.27,14.33-8.27,14.32H1033l-8.27-14.32L1033,80Zm-50.63,0,8.27,14.33-8.27,14.32H982.35l-8.27-14.32L982.35,80Zm-50.62,0,8.27,14.33-8.27,14.32H931.73l-8.27-14.32L931.73,80Zm-50.63,0,8.27,14.33-8.27,14.32H881.1l-8.27-14.32L881.1,80ZM847,80l8.27,14.33L847,108.6H830.47L822.2,94.28,830.47,80Zm-50.62,0,8.27,14.33-8.27,14.32H779.85l-8.27-14.32L779.85,80Zm0,29.23,8.27,14.33-8.27,14.32h-16.5l-8.27-14.32,8.27-14.33Zm0,29.23,8.27,14.33-8.27,14.32h-16.5l-8.27-14.32,8.27-14.33Zm0,29.23L804.63,182l-8.27,14.33H779.85L771.58,182l8.27-14.32Zm0,29.23,8.27,14.32-8.27,14.33h-16.5l-8.27-14.33,8.27-14.32Zm0,29.23,8.27,14.32-8.27,14.32h-16.5l-8.27-14.32,8.27-14.32Zm0,29.22,8.27,14.33L796.36,284H779.85l-8.27-14.32,8.27-14.33Zm0,29.23,8.27,14.33-8.27,14.32h-16.5l-8.27-14.32,8.27-14.33Zm34.11,57.88-8.27-14.32,8.27-14.33H847l8.27,14.33L847,342.43Zm50.63,0-8.27-14.32,8.27-14.33h16.51l8.27,14.33-8.27,14.32Zm50.63,0-8.27-14.32,8.27-14.33h16.51l8.27,14.33-8.27,14.32Zm50.62,0-8.27-14.32,8.27-14.33h16.51l8.27,14.33-8.27,14.32Zm50.63,0-8.27-14.32,8.27-14.33h16.51l8.27,14.33-8.27,14.32Zm50.63,0-8.27-14.32,8.27-14.33h16.51l8.27,14.33-8.27,14.32Zm50.62,0L1126,328.11l8.27-14.33h16.51l8.27,14.33-8.27,14.32Zm67.14-29.23h-16.51l-8.27-14.32,8.27-14.33h16.51l8.27,14.33ZM1184.86,284l-8.27-14.32,8.27-14.33h16.51l8.27,14.33L1201.37,284Zm0-29.23-8.27-14.32,8.27-14.32h16.51l8.27,14.32-8.27,14.32Zm16.51-29.22h-16.51l-8.27-14.33,8.27-14.32h16.51l8.27,14.32Zm-16.54-29.23L1176.59,182l8.27-14.32h16.51l8.27,14.32-8.27,14.33Zm0-29.23-8.27-14.32,8.27-14.33h16.51l8.27,14.33-8.27,14.32Zm16.51-29.23h-16.51l-8.27-14.32,8.27-14.33h16.51l8.27,14.33Zm-16.54-29.23-8.27-14.32L1184.86,80h16.51l8.27,14.33-8.27,14.32Zm16.54-87.1,8.27,14.32-8.27,14.33h-16.51l-8.27-14.33,8.27-14.32Zm-50.63,0L1159,35.82l-8.27,14.33h-16.51L1126,35.82l8.27-14.32Zm-50.62,0,8.27,14.32-8.27,14.33h-16.51l-8.27-14.33,8.27-14.32Zm-50.63,0,8.27,14.32-8.27,14.33H1033l-8.27-14.33L1033,21.5Zm-50.63,0,8.27,14.32-8.27,14.33H982.38l-8.27-14.33,8.27-14.32Zm-50.62,0,8.27,14.32-8.27,14.33H931.76l-8.27-14.33,8.27-14.32Zm-50.63,0,8.27,14.32-8.27,14.33H881.13l-8.27-14.33,8.27-14.32ZM847,21.5l8.27,14.32L847,50.15H830.5l-8.27-14.33L830.5,21.5Zm-50.62,0,8.27,14.32-8.27,14.33h-16.5l-8.27-14.33,8.27-14.32ZM779.85,371.66l-8.27-14.33L779.85,343h16.51l8.27,14.32-8.27,14.33Zm50.62,0-8.27-14.33L830.47,343H847l8.27,14.32L847,371.66Zm50.63,0-8.27-14.33L881.1,343h16.51l8.27,14.32-8.27,14.33Zm50.63,0-8.27-14.33L931.73,343h16.51l8.27,14.32-8.27,14.33Zm50.62,0-8.27-14.33L982.35,343h16.51l8.27,14.32-8.27,14.33Zm50.63,0-8.27-14.33L1033,343h16.51l8.27,14.32-8.27,14.33Zm50.63,0-8.27-14.33,8.27-14.32h16.5l8.27,14.32-8.27,14.33Zm50.62,0L1126,357.33l8.27-14.32h16.51l8.27,14.32-8.27,14.33Zm50.63,0-8.27-14.33,8.27-14.32h16.51l8.27,14.32-8.27,14.33ZM1209.64,6.59l-8.27,14.33h-16.51l-8.27-14.33,8.27-14.32h16.51Zm-50.63,0-8.27,14.33h-16.51L1126,6.59l8.27-14.32h16.51Zm-50.63,0-8.27,14.33h-16.5l-8.27-14.33,8.27-14.32h16.5Zm-50.62,0-8.27,14.33H1033l-8.27-14.33L1033-7.73h16.51Zm-50.63,0-8.27,14.33H982.35L974.08,6.59l8.27-14.32h16.51Zm-50.62,0-8.27,14.33H931.73L923.46,6.59l8.27-14.32h16.51Zm-50.63,0-8.27,14.33H881.1L872.83,6.59,881.1-7.73h16.51Zm-50.63,0L847,20.92H830.47L822.2,6.59l8.27-14.32H847Zm-50.62,0-8.27,14.33H779.85L771.58,6.59l8.27-14.32h16.51Zm-7.71,394.59,8.27-14.33H821.7l8.3,14.33-8.3,14.32H805.19Zm50.63,0,8.27-14.33h16.51l8.27,14.33-8.27,14.32H855.82Zm50.62,0,8.27-14.33H923l8.27,14.33L923,415.5H906.44Zm50.63,0,8.27-14.33h16.51l8.27,14.33-8.27,14.32H957.07Zm50.63,0,8.27-14.33h16.51l8.27,14.33-8.27,14.32H1007.7Zm50.62,0,8.27-14.33h16.51l8.27,14.33-8.27,14.32h-16.51Zm50.63,0,8.27-14.33h16.51l8.27,14.33-8.27,14.32H1109Zm50.63,0,8.26-14.33h16.51l8.27,14.33-8.27,14.32h-16.51ZM1252.05,79.37h-16.54l-8.26-14.32,8.26-14.32h16.54l8.27,14.32Zm8.27-43.55-8.27,14.33h-16.54l-8.26-14.33,8.26-14.32h16.54Zm-33.61-.29H1210.2l-8.28-14.35,8.25-14.3h16.54L1235,21.21Zm-16.54-57.87h16.54L1235-8l-8.29,14.3h-16.54L1201.9-8Zm-50.62,0h16.53L1184.34-8l-8.29,14.3h-16.5L1151.28-8Zm-50.63,0h16.54L1133.71-8l-8.28,14.3h-16.51L1100.65-8Zm-50.63,0h16.54L1083.09-8,1074.8,6.3h-16.51L1050-8Zm-50.62,0h16.54L1032.46-8l-8.28,14.3h-16.51L999.4-8Zm-50.63,0h16.54L981.83-8,973.55,6.3H957L948.77-8Zm-50.63,0H923L931.21-8,922.92,6.3H906.41L898.14-8Zm-50.62,0h16.54L880.58-8,872.3,6.3H855.79L847.52-8Zm-50.63,0H821.7L830-8,821.67,6.3H805.16L796.89-8Zm-50.63,0h16.54L779.33-8,771,6.3H754.53L746.26-8ZM720.92,6.59l8.27-14.32h16.54L754,6.59l-8.27,14.33H729.19Zm33.61.29H771l8.29,14.35-8.26,14.3h-16.5l-8.27-14.32Zm0,29.23h16.54l8.27,14.33-8.27,14.32H754.53l-8.27-14.32Zm0,29.23h16.54l8.26,14.3L771,94H754.53l-8.27-14.33ZM720.92,94.28,729.19,80h16.54L754,94.28l-8.27,14.32H729.19Zm33.61.29H771l8.29,14.35-8.26,14.3h-16.5l-8.27-14.33Zm0,29.23h16.54l8.27,14.32-8.27,14.32H754.53l-8.27-14.32Zm0,29.23h16.54l8.26,14.29L771,181.67H754.53l-8.27-14.32ZM720.92,182l8.27-14.32h16.54L754,182l-8.27,14.33H729.19Zm33.61.29H771l8.29,14.35-8.26,14.3h-16.5l-8.27-14.32Zm0,29.23h16.54l8.27,14.33-8.27,14.32H754.53l-8.27-14.32Zm0,29.23h16.54l8.26,14.3L771,269.36H754.53L746.26,255Zm-33.61,28.94,8.27-14.33h16.54L754,269.65,745.73,284H729.19Zm33.61.29H771l8.29,14.35-8.26,14.3h-16.5l-8.27-14.33Zm0,29.23h16.54l8.27,14.32-8.27,14.33H754.53l-8.27-14.33Zm0,29.23h16.54l8.26,14.29L771,357H754.53l-8.27-14.32Zm-33.61,28.93L729.19,343h16.54L754,357.33l-8.27,14.33H729.19Zm33.61.29H771L779.33,372l-8.26,14.3H754.53L746.26,372Zm-8.27,43.56,8.27-14.33h16.54l8.27,14.33-8.27,14.32H754.53Zm50.16,28.93H779.88l-8.27-14.32,8.27-14.32h16.51l8.28,14.35Zm50.62,0H830.5l-8.27-14.32,8.27-14.32H847l8.29,14.35Zm50.63,0H881.13l-8.27-14.32,8.27-14.32h16.51l8.28,14.35Zm50.63,0H931.76l-8.27-14.32,8.27-14.32h16.51l8.28,14.35Zm50.62,0H982.38l-8.27-14.32,8.27-14.32h16.51l8.29,14.35Zm50.63,0H1033l-8.27-14.32,8.27-14.32h16.51l8.28,14.35Zm50.62,0h-16.53l-8.27-14.32,8.27-14.32h16.51l8.28,14.35Zm50.63,0h-16.54L1126,415.79l8.27-14.32h16.51l8.29,14.35Zm50.63,0h-16.54l-8.27-14.32,8.27-14.32h16.51l8.28,14.35Zm50.62,0h-16.54l-8.26-14.32,8.26-14.32h16.54l8.27,14.32Zm8.27-43.55-8.27,14.33h-16.54l-8.26-14.33,8.26-14.32h16.54Zm-33.61-.29H1210.2l-8.28-14.35,8.25-14.3h16.54L1235,372Zm0-29.23h-16.54l-8.25-14.3,8.28-14.34h16.51l8.27,14.32Zm25.34-14.61h-16.54l-8.26-14.32,8.26-14.33h16.54l8.27,14.33Zm8.27-43.55-8.27,14.32h-16.54l-8.26-14.32,8.26-14.33h16.54Zm-33.61-.29H1210.2l-8.28-14.35,8.25-14.3h16.54l8.27,14.32Zm0-29.23h-16.54l-8.25-14.3,8.28-14.35h16.51L1235,255Zm25.34-14.62h-16.54l-8.26-14.32,8.26-14.32h16.54l8.27,14.32Zm8.27-43.55-8.27,14.33h-16.54l-8.26-14.33,8.26-14.32h16.54Zm-33.61-.29H1210.2l-8.28-14.35,8.25-14.3h16.54l8.27,14.33Zm0-29.23h-16.54l-8.25-14.3L1210.2,153h16.51l8.27,14.32Zm25.34-14.61h-16.54l-8.26-14.32,8.26-14.33h16.54l8.27,14.33Zm8.27-43.55-8.27,14.32h-16.54l-8.26-14.32,8.26-14.33h16.54Zm-33.61-.29H1210.2l-8.28-14.35,8.25-14.3h16.54l8.27,14.32Z" transform="translate(344.34 255.53)" opacity="0.25" fill="url(#radial-gradient-2)"></path><path id="Path_5" data-name="Path 5" d="M483.66,556.61C291.59,605.34,245.37,684.62,234.42,724h201.3c18-48.33,53.8-92.34,120.53-115.79,201-70.6,148.45-276.38,148.45-276.39C726.59,437.11,680.47,506.67,483.66,556.61Z" transform="translate(344.34 255.53)" opacity="0.16" fill="url(#linear-gradient-3)"></path></g><path id="Path_7" data-name="Path 7" d="M279.67,0H0V204C185.36,157.62,254.21,65.57,279.67,0Z" transform="translate(344.34 255.53)" fill="url(#linear-gradient-4)"></path><path id="Path_8" data-name="Path 8" d="M0,175.18C193.72,148.9,253.11,53.19,271.26,0H0Z" transform="translate(344.34 255.53)" fill="url(#linear-gradient-5)"></path><g id="Group_2" data-name="Group 2" clip-path="url(#clip-path-2)"><path id="Path_9" data-name="Path 9" d="M264.44-134h20l10.17-17.62-10-17.26,10-17.27-10.17-17.61h-20l-9.77-16.93,10-17.26L254.5-255.56H234.13l-10,17.26H204.62l-10-17.26h-20.3l-10,17.26H144.8l-10-17.26H114.5l-10,17.26H85L75-255.53H54.68l-10,17.26H25.17l-10-17.26H-5.14l-10,17.26H-34.65l-10-17.26h-20.3l-10,17.26H-94.47l-10-17.26H-124.8l-10,17.26h-19.54l-10-17.26h-20.34l-10,17.26H-214.1l-10-17.26h-20.34l-10,17.26h-19.54l-10-17.26h-20.33l-10,17.26h-20l-10.17,17.61L-334.17-203h20l9.77,16.92-10,17.27,10,17.26-9.77,16.93h-20L-344.34-117l10.17,17.61h20l9.77,16.92-10,17.27,10,17.27-9.77,16.92h-20L-344.34-13.4l10.17,17.61h20l9.77,16.93-10,17.27,10,17.26-9.77,16.93h-20l-10.17,17.61,10.17,17.61h20l9.77,16.92-10,17.27,10,17.27-9.77,16.92h-20l-10.17,17.61,10.17,17.61h20l9.77,16.93-10,17.27,10.17,17.61h20l10,17.26h20.34l10-17.26h19.55l10,17.26h20.33l10-17.26h19.55l10,17.26h20.34l10-17.26h19.54l10,17.26h20.34l10-17.26H-45l10,17.26h20.33l10-17.26H14.84l10,17.26h20.3l10-17.26H74.66l10,17.26H105l10-17.26h19.54l10,17.26h20.34l10-17.26h19.54l10,17.26H224.6l10-17.26h19.55l10,17.26h20.33l10.17-17.61-10-17.26,10-17.27-10.17-17.61h-20l-9.77-16.93,9.77-16.92h20l10.17-17.61-10-17.27,10-17.27-10.17-17.61h-20l-9.77-16.92,9.77-16.93h20l10.17-17.61-10-17.26,10-17.27L284.41,3.48h-20l-9.77-16.93,9.77-16.92h20L294.58-48l-10-17.27,10-17.27-10.17-17.61h-20L254.67-117Zm-10.37,16.58H234.53l-9.75-16.9,9.78-17h19.51l9.77,16.92Zm0,35.22,9.77,16.92-9.77,16.93H234.56l-9.77-16.93,9.77-16.92Zm0,103.6,9.77,16.93-9.77,16.92H234.56l-9.77-16.92,9.77-16.93Zm0,103.61L263.84,142l-9.77,16.92H234.56L224.79,142l9.77-17Zm0,103.6,9.77,16.93-9.77,16.92H234.56l-9.77-16.92,9.77-16.93Zm-49.41,16.58-9.77-16.92,9.77-16.93h19.5l9.77,16.93-9.77,16.92Zm-59.82,0-9.77-16.92,9.77-16.93h19.51l9.77,16.93-9.77,16.92Zm-59.82,0L75.25,228.3,85,211.37h19.51l9.77,16.93-9.77,16.92Zm-59.82,0L15.43,228.3l9.77-16.93H44.71l9.77,16.93-9.77,16.92Zm-59.81,0-9.78-16.92,9.78-16.93h19.5l9.78,16.93-9.78,16.92Zm-59.82,0-9.77-16.92,9.77-16.93h19.51l9.77,16.93-9.77,16.92Zm-59.82,0L-164,228.3l9.77-16.93h19.51L-125,228.3l-9.77,16.92Zm-59.82,0-9.77-16.92,9.77-16.93h19.51l9.77,16.93-9.77,16.92Zm-59.81,0-9.77-16.92,9.77-16.93h19.5l9.78,16.93-9.78,16.92Zm49.38-465.53,9.78,16.95-9.75,16.9H-244l-9.78-17,9.75-16.89Zm59.81,0,9.79,16.95-9.75,16.9h-19.51l-9.79-17,9.76-16.89Zm59.82,0,9.79,16.95-9.75,16.9h-19.51l-9.79-17,9.75-16.89Zm59.82,0,9.79,16.95L-45-186.46H-64.5l-9.79-17,9.75-16.89Zm59.82,0,9.79,16.95-9.76,16.9H-4.7l-9.79-17,9.75-16.89Zm59.81,0,9.79,16.95-9.75,16.9H55.11l-9.79-17,9.76-16.89Zm59.82,0,9.79,16.95-9.75,16.9H114.93l-9.79-17,9.76-16.89Zm59.82,0L204-203.36l-9.76,16.9h-19.5l-9.79-17,9.75-16.89Zm59.85,34.53,9.77,16.93-9.77,16.92H234.56l-9.77-16.92,9.77-16.93ZM174.75,228,165,211l9.75-16.89h19.51L204,211.06,194.25,228Zm-59.82,0-9.79-17,9.76-16.89h19.5l9.79,16.95L134.44,228Zm-59.82,0-9.79-17,9.76-16.89h19.5l9.79,16.95L74.62,228ZM-4.7,228l-9.79-17,9.75-16.89H14.77l9.79,16.95L14.8,228Zm-59.82,0-9.79-17,9.75-16.89H-45l9.79,16.95L-45,228Zm-59.82,0-9.79-17,9.75-16.89h19.51l9.79,16.95L-104.83,228Zm-59.82,0-9.79-17,9.76-16.89h19.5l9.79,16.95L-164.65,228ZM-244,228l-9.76-17,9.75-16.89h19.51l9.78,16.95L-224.47,228Zm19.51-413.73,9.77,16.93-9.77,16.92H-244l-9.77-16.92,9.77-16.93Zm59.82,0,9.77,16.93-9.77,16.92h-19.51l-9.77-16.92,9.77-16.93Zm59.82,0,9.77,16.93-9.77,16.92h-19.51l-9.77-16.92,9.77-16.93Zm59.81,0,9.78,16.93L-45-151.93H-64.5l-9.77-16.92,9.77-16.93Zm59.82,0,9.77,16.93L14.8-151.93H-4.7l-9.78-16.92,9.78-16.93Zm59.82,0,9.77,16.93L74.6-151.88H55.11L45.34-168.8l9.77-16.93Zm59.82,0,9.77,16.93-9.77,16.92H114.93l-9.77-16.92,9.77-16.93Zm59.81,0L204-168.85l-9.77,16.92h-19.5L165-168.85l9.77-16.93ZM204.64,176.2l-9.77-16.92,9.77-16.93h19.5l9.77,16.93-9.77,16.92Zm-29.95,17.27L165,176.52l9.79-17h19.5L204,176.46l-9.79,17Zm-59.81,0-9.76-16.9,9.79-17h19.51l9.75,16.89-9.79,17Zm-59.82,0-9.76-16.9,9.79-17H74.62l9.75,16.89-9.79,17Zm-59.82,0-9.75-16.9,9.79-17H14.8l9.76,16.89-9.79,17Zm-59.82,0-9.75-16.9,9.79-17H-45l9.76,16.89-9.79,17Zm-59.82,0-9.75-16.9,9.79-17h19.51l9.75,16.89-9.79,17Zm-59.81,0-9.76-16.9,9.79-17h19.51l9.75,16.89-9.79,17Zm-59.82,0-9.75-16.9,9.78-17h19.51l9.75,16.89-9.78,17ZM-273.9,176.2l-9.77-16.92,9.77-16.93h19.5l9.78,16.93-9.78,16.92Zm19.5-344.66,9.78,16.92-9.78,16.93h-19.5l-9.77-16.93,9.77-16.92Zm29.91,17.27,9.75,16.89-9.78,17H-244l-9.75-16.9,9.78-17Zm29.91-17.27,9.77,16.92-9.77,16.93h-19.51l-9.77-16.93,9.77-16.92Zm29.91,17.27,9.75,16.89-9.79,17h-19.5l-9.76-16.9,9.79-17Zm29.91-17.27,9.77,16.92-9.77,16.93h-19.51L-164-151.59l9.77-16.92Zm29.91,17.27,9.75,16.89-9.79,17H-124.4l-9.75-16.9,9.79-17Zm29.91-17.27,9.77,16.92-9.77,16.93H-94.43l-9.77-16.93,9.77-16.92ZM-45-151.24l9.76,16.89-9.79,17H-64.56l-9.75-16.9,9.79-17Zm29.91-17.27,9.78,16.92-9.78,16.93h-19.5l-9.78-16.93,9.78-16.92ZM14.8-151.24l9.76,16.89-9.79,17H-4.74l-9.75-16.9,9.79-17Zm29.91-17.27,9.77,16.92-9.77,16.93H25.2l-9.77-16.93,9.77-16.92Zm29.91,17.27,9.75,16.89-9.79,17H55.08l-9.76-16.9,9.79-17Zm29.91-17.27,9.77,16.92-9.77,16.93H85l-9.77-16.93L85-168.51Zm29.91,17.27,9.75,16.89-9.79,17H114.9l-9.76-16.9,9.79-17Zm29.91-17.27,9.77,16.92-9.77,16.93H144.84l-9.77-16.93,9.77-16.92Zm29.9,17.27L204-134.35l-9.79,17h-19.5L165-134.29l9.79-17Zm29.91-17.27,9.77,16.92-9.77,16.93h-19.5l-9.77-16.93,9.77-16.92ZM174.75,158.88,165,142l9.75-17h19.5L204,142l-9.77,16.92Zm-29.91-17.26-9.77-16.93,9.77-16.92h19.51l9.77,16.92-9.77,16.93Zm-29.91,17.26L105.16,142l9.77-17h19.51l9.77,17-9.77,16.92ZM85,141.62l-9.77-16.93L85,107.77h19.51l9.77,16.92-9.77,16.93ZM55.11,158.88,45.34,142l9.77-17H74.62l9.77,17-9.77,16.92ZM25.2,141.62l-9.77-16.93,9.77-16.92H44.71l9.77,16.92-9.77,16.93ZM-4.7,158.88-14.48,142l9.78-17H14.8l9.77,17L14.8,158.88Zm-29.91-17.26-9.78-16.93,9.78-16.92h19.5l9.78,16.92-9.78,16.93Zm-29.91,17.26L-74.29,142l9.77-17H-45l9.76,17L-45,158.88Zm-29.91-17.26-9.77-16.93,9.77-16.92h19.51l9.77,16.92-9.77,16.93Zm-29.91,17.26L-134.11,142l9.77-16.92h19.51L-95.06,142l-9.77,16.92Zm-29.91-17.26L-164,124.69l9.77-16.92h19.51l9.77,16.92-9.77,16.93Zm-29.91,17.26L-193.93,142l9.77-16.92h19.51l9.77,16.92-9.77,16.92Zm-29.91-17.26-9.77-16.93,9.77-16.92h19.51l9.77,16.92-9.77,16.93ZM-244,158.88-253.75,142l9.75-17h19.51l9.79,17-9.77,16.92Zm19.48-275.59,9.78,17-9.75,16.89H-244l-9.78-17,9.75-16.9Zm59.81,0,9.79,17-9.75,16.89h-19.51l-9.79-17,9.76-16.9Zm59.82,0,9.79,17-9.75,16.89h-19.51l-9.79-17,9.75-16.9Zm59.82,0,9.79,17L-45-82.86H-64.5l-9.79-17,9.75-16.9Zm59.82,0,9.79,17L14.8-82.86H-4.7l-9.79-17,9.75-16.9Zm59.81,0,9.79,17L74.62-82.86H55.11l-9.79-17,9.76-16.9Zm59.82,0,9.79,17-9.75,16.89H114.93l-9.79-17,9.76-16.9Zm59.82,0,9.79,17-9.76,16.89h-19.5l-9.79-17,9.75-16.9Zm0,241.06H174.7L165,107.4l9.75-16.9h19.51l9.79,17Zm-79.32,0-9.79-16.95,9.76-16.9h19.5l9.79,17-9.75,16.89Zm-59.82,0L45.32,107.4l9.76-16.9h19.5l9.79,17-9.75,16.89Zm-59.81,0-9.79-16.95,9.75-16.9H14.77l9.79,17L14.8,124.35Zm-59.82,0-9.79-16.95,9.75-16.9H-45l9.79,17L-45,124.35Zm-59.82,0-9.79-16.95,9.75-16.9h19.51l9.79,17-9.75,16.89Zm-59.82,0L-194,107.4l9.76-16.9h19.5l9.79,17-9.75,16.89Zm-59.82,0-9.78-16.95L-244,90.5h19.51l9.78,17-9.75,16.89Zm19.51-206.52,9.77,16.92-9.77,16.93H-244l-9.77-16.93L-244-82.17Zm59.82,0,9.77,16.92-9.77,16.93h-19.51l-9.77-16.93,9.77-16.92Zm59.82,0,9.77,16.92-9.77,16.93h-19.51l-9.77-16.93,9.77-16.92Zm59.81,0,9.78,16.92L-45-48.32H-64.5l-9.77-16.93,9.77-16.92Zm59.82,0,9.77,16.92L14.8-48.32H-4.7l-9.78-16.93L-4.7-82.17Zm59.82,0,9.77,16.92L74.62-48.32H55.11L45.34-65.25l9.77-16.92Zm59.82,0,9.77,16.92-9.77,16.93H114.93l-9.77-16.93,9.77-16.92Zm59.81,0L204-65.25l-9.77,16.93h-19.5L165-65.25l9.77-16.92Zm0,103.6L204,38.36l-9.77,16.92h-19.5L165,38.36l9.77-16.93ZM114.9,89.82l-9.76-16.9,9.79-17h19.51l9.75,16.89-9.79,17Zm-59.82,0-9.76-16.9,9.79-17H74.62l9.75,16.89-9.79,17Zm-59.82,0-9.75-16.9L-4.7,56H14.8l9.76,16.89-9.79,17Zm-59.82,0-9.75-16.9,9.79-17H-45l9.76,16.89-9.79,17Zm-59.82,0-9.75-16.9,9.79-17h19.51l9.75,16.89-9.79,17Zm-59.81,0-9.76-16.9,9.79-17h19.51l9.75,16.89-9.79,17ZM-244,55.28l-9.77-16.92L-244,21.43h19.51l9.77,16.93-9.77,16.92Zm49.42-120.19L-184.79-48l-9.77,16.92h-19.51L-223.84-48l9.77-16.93Zm29.91,17.27,9.75,16.9-9.79,17h-19.5l-9.76-16.89,9.79-17Zm29.91-17.27L-125-48l-9.77,16.92h-19.51L-164-48l9.77-16.93Zm29.91,17.27,9.75,16.9-9.79,17H-124.4l-9.75-16.89,9.79-17Zm29.91-17.27L-65.15-48l-9.77,16.92H-94.43L-104.2-48l9.77-16.93ZM-45-47.64l9.76,16.9-9.79,17H-64.56l-9.75-16.89,9.79-17Zm29.91-17.27L-5.33-48l-9.78,16.92h-19.5L-44.39-48l9.78-16.93ZM14.8-47.64l9.76,16.9-9.79,17H-4.74l-9.75-16.89,9.79-17ZM44.71-64.91,54.48-48,44.71-31.06H25.2L15.43-48,25.2-64.91ZM74.62-47.64l9.75,16.9-9.79,17H55.08L45.32-30.68l9.79-17Zm29.91-17.27L114.3-48l-9.77,16.92H85L75.25-48,85-64.91Zm29.91,17.27,9.75,16.9-9.79,17H114.9l-9.76-16.89,9.79-17Zm29.91-17.27L174.12-48l-9.77,16.92H144.84L135.07-48l9.77-16.93ZM144.84,38l-9.77-16.92,9.77-16.93h19.51l9.77,16.93L164.35,38ZM114.93,55.28l-9.77-16.92,9.77-16.93h19.51l9.77,16.93-9.77,16.92ZM85,38,75.25,21.09,85,4.16h19.51l9.77,16.93L104.53,38ZM55.11,55.28,45.34,38.36l9.77-16.93H74.62l9.77,16.93L74.62,55.28ZM25.2,38,15.43,21.09,25.2,4.16H44.71l9.77,16.93L44.71,38ZM-4.7,55.28l-9.78-16.92L-4.7,21.43H14.8l9.77,16.93L14.8,55.28ZM-34.61,38l-9.78-16.92,9.78-16.93h19.5l9.78,16.93L-15.11,38ZM-64.52,55.28l-9.77-16.92,9.77-16.93H-45l9.78,16.93L-45,55.28ZM-94.43,38l-9.77-16.92,9.77-16.93h19.51l9.77,16.93L-74.92,38Zm-29.91,17.27-9.77-16.92,9.77-16.93h19.51l9.77,16.93-9.77,16.92ZM-154.25,38-164,21.09l9.77-16.93h19.51L-125,21.09-134.74,38Zm-29.91,17.27-9.77-16.92,9.77-16.93h19.51l9.77,16.93-9.77,16.92ZM-214.07,38l-9.77-16.92,9.77-16.93h19.51l9.77,16.93L-194.56,38Zm49.38-51.11,9.79,17-9.75,16.89h-19.51l-9.79-16.95,9.76-16.89Zm59.82,0,9.79,17-9.75,16.89h-19.51l-9.79-16.95,9.75-16.89Zm59.82,0,9.79,17L-45,20.74H-64.5L-74.31,3.79l9.75-16.89Zm59.82,0,9.79,17L14.8,20.74H-4.7L-14.49,3.79-4.74-13.1Zm59.81,0,9.79,17L74.62,20.74H55.11L45.32,3.79,55.08-13.1Zm59.82,0,9.79,17-9.75,16.89H114.93L105.14,3.79,114.9-13.1Zm29.91-17.27,9.77,16.92L164.31,3.48H144.8L135-13.45l9.77-16.92Zm-59.82,0,9.77,16.92L104.49,3.48H85L75.21-13.45,85-30.37Zm-59.82,0,9.78,16.92L44.67,3.48H25.17L15.4-13.45l9.77-16.92Zm-59.81,0,9.77,16.92L-15.14,3.48H-34.65l-9.77-16.93,9.77-16.92Zm-59.82,0,9.77,16.92L-75,3.48H-94.47l-9.77-16.93,9.77-16.92Zm-59.82,0L-125-13.45l-9.77,16.93h-19.5l-9.78-16.93,9.78-16.92Zm-59.81,0,9.77,16.92-9.77,16.93H-214.1l-9.77-16.93,9.77-16.92ZM-214.07,72.55l-9.77-16.93,9.77-16.92h19.51l9.77,16.92-9.77,16.93Zm59.82,0L-164,55.62l9.77-16.92h19.51L-125,55.62l-9.77,16.93Zm59.82,0-9.77-16.93,9.77-16.92h19.51l9.77,16.92-9.77,16.93Zm59.82,0-9.78-16.93,9.78-16.92h19.5l9.78,16.92-9.78,16.93Zm59.81,0L15.43,55.62,25.2,38.7H44.71l9.77,16.92L44.71,72.55Zm59.82,0L75.25,55.62,85,38.7h19.51l9.77,16.92-9.77,16.93Zm59.82,0-9.77-16.93,9.77-16.92h19.51l9.77,16.92-9.77,16.93Zm19.51-172,9.77,16.92L164.35-65.6H144.84l-9.77-16.93,9.77-16.92Zm-59.82,0,9.77,16.92L104.53-65.6H85L75.25-82.52,85-99.44Zm-59.82,0,9.77,16.92L44.71-65.59H25.2L15.43-82.52,25.2-99.44Zm-59.82,0,9.78,16.92L-15.11-65.6h-19.5l-9.78-16.93,9.78-16.92Zm-59.81,0,9.77,16.92L-74.92-65.6H-94.43l-9.77-16.93,9.77-16.92Zm-59.82,0L-125-82.52l-9.77,16.93h-19.51L-164-82.52l9.77-16.92Zm-59.82,0,9.77,16.92-9.77,16.93h-19.51l-9.77-16.93,9.77-16.92ZM-244-47.64h19.51l9.75,16.9-9.78,17H-244l-9.75-16.89Zm0,34.54h19.51l9.78,17-9.75,16.89H-244l-9.78-16.95Zm0,69.1h19.51l9.75,16.89-9.78,17H-244l-9.75-16.9Zm29.88,51.11-9.77-16.92,9.77-16.93h19.51l9.77,16.93-9.77,16.92Zm59.82,0-9.78-16.92,9.78-16.93h19.5l9.8,16.9-9.77,16.92Zm59.81,0-9.77-16.92,9.77-16.93H-75l9.77,16.93L-75,107.08Zm59.82,0-9.77-16.92,9.77-16.93h19.51l9.77,16.93-9.77,16.92Zm59.82,0L15.4,90.16l9.77-16.93h19.5l9.78,16.93-9.78,16.92Zm59.82,0L75.21,90.16,85,73.23h19.5l9.77,16.93-9.77,16.92Zm59.81,0L135,90.16l9.77-16.93h19.51l9.77,16.93-9.77,16.92ZM194.2,89.85H174.71L165,72.92l9.79-17h19.5L204,72.86Zm0-69.08H174.7L165,3.79l9.75-16.89h19.51l9.79,17Zm0-34.53H174.71L165-30.68l9.79-17h19.5L204-30.74ZM164.31-134l9.77,17-9.77,16.92H144.8L135-117l9.8-17Zm-59.82,0,9.77,17-9.77,16.92H85L75.21-117,85-134Zm-59.82,0,9.78,17-9.78,16.92H25.17L15.4-117l9.77-17Zm-59.81,0,9.77,17-9.77,16.92H-34.65L-44.42-117l9.77-17ZM-75-134l9.81,17L-75-100.13H-94.47L-104.24-117l9.77-17Zm-59.82,0,9.82,17-9.77,16.92h-19.5L-164.06-117l9.78-16.92Zm-59.81,0,9.77,16.92-9.77,16.92H-214.1L-223.87-117l9.77-17Zm-59.82,0,9.77,16.92-9.77,16.92h-19.51L-283.69-117l9.77-16.92Zm0,34.53,9.78,16.92-9.78,16.93h-19.5l-9.77-16.93,9.77-16.92Zm0,34.53L-244.6-48l-9.78,16.92h-19.5L-283.65-48l9.77-16.93Zm0,34.54,9.77,16.92-9.77,16.93h-19.51l-9.77-16.93,9.77-16.92Zm0,34.53,9.78,16.93L-254.38,38h-19.5l-9.77-16.92,9.77-16.93Zm0,34.54,9.78,16.92-9.78,16.93h-19.5l-9.77-16.93,9.77-16.92Zm0,34.53,9.77,16.93-9.77,16.92h-19.51l-9.77-16.92,9.77-16.93Zm0,34.54,9.78,16.92-9.78,16.93h-19.5l-9.77-16.93,9.77-16.92Zm40.31,68.38-9.77-16.92,9.77-16.93h19.51l9.77,16.93-9.77,16.92Zm59.82,0L-164,159.23l9.77-16.93h19.51l9.77,16.93-9.77,16.92Zm59.82,0-9.77-16.92,9.77-16.93h19.51l9.77,16.93-9.77,16.92Zm59.82,0-9.78-16.92,9.78-16.93h19.5L-5.4,159.2l-9.78,16.92Zm59.81,0L15.36,159.2l9.84-16.9H44.71l9.77,16.93-9.77,16.92Zm59.82,0L75.18,159.2,85,142.3h19.51l9.77,16.93-9.77,16.92Zm59.82,0L135,159.2l9.77-16.93h19.51l9.77,16.93-9.77,16.92Zm79.32-34.53h-19.5l-9.77-16.93,9.77-16.92h19.5l9.77,16.92Zm-19.54-34.54-9.77-16.92,9.77-16.93h19.51l9.77,16.93-9.77,16.92Zm0-34.53-9.77-16.93,9.77-16.92h19.5l9.77,16.92-9.77,16.93ZM224.16,38h-19.5l-9.77-16.92,9.77-16.93h19.5l9.77,16.93ZM204.62,3.48l-9.77-16.93,9.77-16.92h19.51l9.77,16.92L224.13,3.48Zm0-34.54L194.89-48l9.77-16.93h19.5L233.93-48l-9.77,16.92Zm19.5-34.53h-19.5l-9.77-16.93,9.77-16.92h19.5l9.77,16.92Zm-19.54-34.54L194.85-117l9.77-17h19.51l9.77,17-9.77,16.92ZM224.16-203l9.77,16.92-9.77,16.92h-19.5l-9.77-16.92L204.66-203Zm-59.81,0,9.77,16.92-9.77,16.92H144.84l-9.77-16.92L144.84-203Zm-59.82,0,9.77,16.92-9.77,16.92H85l-9.77-16.92L85-203Zm-59.82,0,9.77,16.92L44.71-169.2H25.2l-9.77-16.92L25.2-203Zm-59.82,0,9.78,16.92-9.78,16.92h-19.5l-9.78-16.92L-34.61-203Zm-59.81,0,9.77,16.92-9.77,16.92H-94.43l-9.77-16.92L-94.43-203Zm-59.82,0,9.77,16.92-9.77,16.92h-19.51L-164-186.12l9.77-16.92Zm-59.82,0,9.77,16.92-9.77,16.92h-19.51l-9.77-16.92,9.77-16.92Zm-59.82,0,9.78,16.92-9.78,16.92h-19.5l-9.77-16.92,9.77-16.92Zm-19.54,413.73-9.77-16.93,9.77-16.92h19.51l9.77,16.92-9.77,16.93Zm59.82,0-9.77-16.93,9.77-16.92h19.51l9.77,16.92-9.77,16.93Zm59.82,0-9.78-16.93,9.78-16.92h19.5l9.77,16.92-9.77,16.93Zm59.81,0-9.77-16.93,9.77-16.92H-75l9.77,16.92L-75,210.69Zm59.82,0-9.77-16.93,9.77-16.92h19.51l9.77,16.92-9.77,16.93Zm59.82,0L15.4,193.76l9.77-16.92h19.5l9.78,16.92-9.78,16.93Zm59.82,0L75.21,193.8,85,176.84h19.5l9.77,16.92-9.77,16.93Zm59.81,0L135,193.76l9.77-16.92h19.51l9.77,16.92-9.77,16.93Zm59.82,0-9.77-16.93,9.77-16.92h19.51l9.77,16.92-9.77,16.93ZM233.9-220.66l-9.77,16.93H204.62l-9.77-16.93,9.77-16.92h19.51Zm-59.82,0-9.77,16.93H144.8L135-220.66l9.77-16.92h19.51Zm-59.82,0-9.77,16.93H85l-9.78-16.93L85-237.58h19.5Zm-59.81,0-9.78,16.93H25.17L15.4-220.66l9.77-16.92h19.5Zm-59.82,0-9.77,16.93H-34.65l-9.77-16.93,9.77-16.92h19.51Zm-59.82,0L-75-203.73H-94.47l-9.77-16.93,9.77-16.92H-75Zm-59.82,0-9.77,16.93h-19.5l-9.78-16.93,9.78-16.92h19.5Zm-59.81,0-9.77,16.93H-214.1l-9.77-16.93,9.77-16.92h19.51Zm-59.82,0-9.77,16.93h-19.51l-9.77-16.93,9.77-16.92h19.51Zm-9.11,466.23,9.77-16.93h19.51l9.77,16.93-9.77,16.92H-244Zm59.82,0,9.77-16.93h19.51l9.77,16.93-9.77,16.92h-19.51Zm59.82,0,9.77-16.93h19.51l9.77,16.93-9.77,16.92h-19.51Zm59.82,0,9.77-16.93H-45l9.78,16.93L-45,262.49H-64.5Zm59.81,0,9.78-16.93H14.8l9.77,16.93L14.8,262.49H-4.7Zm59.82,0,9.77-16.93H74.62l9.77,16.93-9.77,16.92H55.11Zm59.82,0,9.77-16.93h19.51l9.77,16.93-9.77,16.92H114.93Zm59.82,0,9.77-16.93h19.5L204,245.57l-9.77,16.92h-19.5ZM284-134.66H264.47l-9.77-16.93,9.77-16.92H284l9.77,16.92Zm9.77-51.46L284-169.2H264.47l-9.77-16.92L264.47-203H284Zm-39.72-.34H234.56l-9.78-17,9.75-16.89h19.54l9.77,16.92Zm-19.54-68.39h19.54l9.77,16.93L254.07-221H234.53l-9.77-16.92Zm-59.82,0h19.54l9.76,16.9L194.22-221H174.71l-9.77-16.92Zm-59.81,0h19.54l9.75,16.9L134.4-221H114.9l-9.78-16.92Zm-59.82,0H74.62l9.75,16.9L74.58-221H55.08l-9.77-16.92Zm-59.82,0H14.8l9.76,16.9L14.77-221H-4.74l-9.77-16.92Zm-59.82,0H-45l9.76,16.9L-45-221H-64.56l-9.77-16.92Zm-59.82,0h19.55l9.75,16.9L-104.87-221h-19.51l-9.77-16.92Zm-59.81,0h19.54l9.75,16.9L-164.69-221h-19.5L-194-237.92Zm-59.82,0h19.54l9.75,16.9L-224.5-221H-244l-9.77-16.92Zm-59.82,0h19.54l9.76,16.9L-284.32-221h-19.51l-9.77-16.92Zm-39.71,34.19,9.77-16.92h19.54l9.77,16.92-9.77,16.93h-19.54Zm39.71.35h19.51l9.79,16.95-9.76,16.9h-19.54l-9.77-16.93Zm0,34.53h19.54l9.78,16.93-9.78,16.92h-19.54l-9.77-16.92Zm0,34.54h19.54l9.76,16.89-9.79,17h-19.51l-9.77-16.93ZM-343.54-117l9.77-16.92h19.54l9.77,16.92-9.77,16.92h-19.54Zm39.71.34h19.51l9.79,17-9.76,16.89h-19.54l-9.77-16.92Zm0,34.54h19.54l9.78,16.92-9.78,16.93h-19.54L-313.6-65.2Zm0,34.53h19.54l9.76,16.9-9.79,17h-19.51l-9.77-16.92ZM-343.54-13.4l9.77-16.92h19.54l9.77,16.92-9.77,16.93h-19.54Zm39.71.35h19.51l9.79,17-9.76,16.89h-19.54L-313.6,3.82Zm0,34.53h19.54l9.78,16.93-9.78,16.92h-19.54l-9.77-16.92Zm0,34.54h19.54l9.76,16.89-9.79,17h-19.51l-9.77-16.93Zm-39.71,34.19,9.77-16.93h19.54l9.77,16.93-9.77,16.92h-19.54Zm39.71.34h19.51l9.79,17-9.76,16.89h-19.54l-9.77-16.92Zm0,34.54h19.54l9.78,16.92-9.78,16.92h-19.54L-313.6,142Zm0,34.53h19.54l9.76,16.89-9.79,17h-19.51l-9.77-16.93Zm-39.71,34.19,9.77-16.92h19.54l9.77,16.92-9.77,16.93h-19.54Zm39.71.35h19.51l9.79,16.95L-284.29,228h-19.54l-9.77-17Zm-9.77,51.46,9.77-16.93h19.54l9.78,16.93-9.78,16.92h-19.54Zm59.26,34.19h-19.54l-9.77-16.93,9.77-16.92h19.5l9.79,17Zm59.82,0h-19.55l-9.77-16.93,9.77-16.92h19.51l9.79,17Zm59.81,0h-19.54L-164,262.83l9.77-16.92h19.51l9.79,17Zm59.82,0H-94.43l-9.77-16.93,9.77-16.92h19.51l9.78,17Zm59.82,0H-34.61l-9.78-16.93,9.78-16.92h19.5l9.79,17Zm59.82,0H25.2l-9.77-16.93,9.77-16.92H44.71l9.79,17Zm59.81,0H85l-9.77-16.93L85,245.91h19.51l9.79,17Zm59.82,0H144.84l-9.77-16.93,9.77-16.92h19.51l9.78,17Zm59.82,0H204.66l-9.77-16.93,9.77-16.92h19.5l9.79,17Zm59.82,0H264.47l-9.77-16.93,9.77-16.92H284l9.77,16.92Zm9.77-51.46L284,245.22H264.47L254.7,228.3l9.77-16.93H284ZM254.07,228H234.56l-9.78-17,9.75-16.89h19.54L263.84,211Zm0-34.53H234.53l-9.75-16.9,9.78-17h19.51l9.77,16.92ZM284,176.15H264.47l-9.77-16.92,9.77-16.93H284l9.77,16.93Zm9.77-51.46L284,141.62H264.47l-9.77-16.93,9.77-16.92H284Zm-39.72-.34H234.56l-9.78-16.95,9.75-16.9h19.54l9.77,16.93Zm0-34.53H234.53l-9.75-16.9,9.78-17h19.51l9.77,16.92ZM284,72.55H264.47L254.7,55.62l9.77-16.92H284l9.77,16.92Zm9.77-51.46L284,38H264.47L254.7,21.09l9.77-16.93H284Zm-39.72-.35H234.56L224.78,3.79l9.75-16.89h19.54l9.77,16.92Zm0-34.53H234.53l-9.75-16.89,9.78-17h19.51l9.77,16.93ZM284-31.06H264.47L254.7-48l9.77-16.93H284L293.79-48Zm9.77-51.46L284-65.59H264.47L254.7-82.52l9.77-16.92H284Zm-39.72-.34H234.56l-9.78-17,9.75-16.9h19.54l9.77,16.93Z" transform="translate(344.34 255.53)" opacity="0.19" fill="url(#radial-gradient-3)"></path></g><g id="Group_3" data-name="Group 3"><path id="Path_11" data-name="Path 11" d="M247.36,38.12A287.449,287.449,0,0,0,268.17,0h-2a288.142,288.142,0,0,1-20.35,37.14C212.64,88.68,143.29,162.89,0,232.35v2C144.2,164.6,214,90,247.36,38.12Z" transform="translate(344.34 255.53)" fill="url(#radial-gradient-4)"></path><path id="Path_12" data-name="Path 12" d="M449.92,561.51c115.27-10,195.07-47.33,237.2-111C712,412.81,721.94,369.59,716.64,322c-4.51-40.47-20.37-83.79-45.86-125.28-5-8.18-10.36-16.55-15.53-24.65C621.32,118.87,586.34,64,596.14,0h-1.83c-9.78,64.49,25.34,119.62,59.42,173.06,5.16,8.08,10.49,16.45,15.51,24.62,56,91.09,61.93,182.86,16.37,251.79C643.8,512.7,564.46,549.79,449.77,559.71c-126.36,10.93-207.22,49.34-240.32,114.15a149.8,149.8,0,0,0-15,50.13h1.82a147.71,147.71,0,0,1,14.77-49.3C243.86,610.46,324.22,572.38,449.92,561.51Z" transform="translate(344.34 255.53)" fill="url(#radial-gradient-5)"></path></g></g></g></g></svg>