<svg width="118" height="36" viewBox="0 0 118 36" fill="none" xmlns="http://www.w3.org/2000/svg">
<g clip-path="url(#clip0_341_2445)">
<path d="M42.0808 31.5903H0.284851V32.5703H42.0808V31.5903Z" fill="#ED7225"/>
<path d="M117.878 31.5903H76.0713V32.5703H117.878V31.5903Z" fill="#ED7225"/>
<path d="M44.3385 33.6599C44.1399 33.1752 44.0419 32.65 44.0419 32.0855C44.0419 31.5211 44.1412 30.9958 44.3385 30.5085C44.5358 30.0211 44.8076 29.6069 45.1525 29.2659C45.4961 28.9249 45.9077 28.6571 46.3859 28.4624C46.8641 28.2677 47.3763 28.171 47.9225 28.171C48.7796 28.171 49.5282 28.3892 50.1711 28.8269C50.8139 29.2646 51.2621 29.8722 51.5155 30.6509H49.7543C49.5753 30.2864 49.3283 30.0133 49.0121 29.8291C48.6959 29.6461 48.3288 29.5534 47.912 29.5534C47.2339 29.5534 46.6825 29.7833 46.2566 30.2419C45.8319 30.7005 45.619 31.3159 45.619 32.0868C45.619 32.8577 45.8319 33.4679 46.2566 33.9291C46.6812 34.389 47.2326 34.6203 47.912 34.6203C48.3301 34.6203 48.6959 34.5275 49.0121 34.342C49.3283 34.1564 49.5753 33.8794 49.7543 33.5123H51.5155C51.2621 34.2936 50.8139 34.9025 50.1711 35.3376C49.5282 35.7727 48.7783 35.9909 47.9225 35.9909C47.3763 35.9909 46.8641 35.8942 46.3859 35.7021C45.9077 35.5087 45.4961 35.2422 45.1525 34.9012C44.8076 34.5602 44.5358 34.1473 44.3385 33.6612" fill="#ED7225"/>
<path d="M59.777 30.0512C60.1246 30.6509 60.2996 31.3251 60.2996 32.075C60.2996 32.825 60.1246 33.5018 59.7744 34.1042C59.4242 34.7078 58.9526 35.1742 58.3581 35.5048C57.7636 35.8354 57.1064 36 56.3851 36C55.6639 36 55.0159 35.8354 54.4174 35.5048C53.8203 35.1742 53.3434 34.7078 52.9907 34.1042C52.6379 33.5005 52.4602 32.825 52.4602 32.075C52.4602 31.3251 52.6366 30.6548 52.9907 30.0538C53.3448 29.4528 53.8203 28.9863 54.4174 28.6557C55.0159 28.3252 55.6718 28.1606 56.3851 28.1606C57.0985 28.1606 57.7688 28.3252 58.3633 28.6557C58.9578 28.9863 59.4295 29.4514 59.777 30.0512ZM54.0385 32.075C54.0385 32.8498 54.2541 33.4692 54.6866 33.933C55.1191 34.3968 55.6848 34.6294 56.3838 34.6294C57.0829 34.6294 57.6434 34.3968 58.0732 33.933C58.5031 33.4692 58.7187 32.8498 58.7187 32.075C58.7187 31.3002 58.5031 30.6888 58.0732 30.2302C57.6434 29.7716 57.0802 29.5416 56.3838 29.5416C55.6874 29.5416 55.1139 29.7716 54.684 30.2302C54.2541 30.6888 54.0385 31.3042 54.0385 32.075Z" fill="#ED7225"/>
<path d="M61.3658 28.1606H64.3095C64.7655 28.1606 65.1771 28.2233 65.5429 28.35C65.9087 28.4754 66.2053 28.6492 66.434 28.87C66.6626 29.0921 66.8364 29.3456 66.9566 29.6357C67.0768 29.9244 67.1382 30.2354 67.1382 30.5673C67.1382 30.8991 67.0781 31.2114 66.9605 31.5028C66.8416 31.7928 66.6443 32.0594 66.3686 32.3011C66.093 32.5415 65.7533 32.7153 65.3508 32.8211L67.2258 36.0013H65.4109L63.6784 32.9478H62.9389V36.0013H61.3658V28.1619V28.1606ZM65.5207 30.5999C65.5207 30.2419 65.4162 29.9623 65.2084 29.7637C64.9994 29.5651 64.6819 29.4645 64.2546 29.4645H62.9389V31.7667H64.2546C64.6793 31.7667 64.9954 31.6635 65.2058 31.457C65.4162 31.2506 65.5207 30.9645 65.5207 30.5986" fill="#ED7225"/>
<path d="M74.1101 30.5895C74.1101 30.9005 74.0566 31.1931 73.9481 31.4688C73.8397 31.7445 73.6777 31.9993 73.4608 32.2306C73.2439 32.4631 72.9473 32.6473 72.5723 32.7845C72.1973 32.9217 71.7675 32.9897 71.2814 32.9897H69.9657V35.9987H68.3926V28.1593H71.2814C72.1882 28.1593 72.8859 28.3853 73.3758 28.84C73.8658 29.2934 74.1101 29.8761 74.1101 30.5882M69.967 31.7236H71.2109C71.642 31.7236 71.9634 31.6243 72.1751 31.4244C72.3868 31.2258 72.4926 30.9462 72.4926 30.5882C72.4926 29.8238 72.0654 29.4423 71.2095 29.4423H69.9657V31.7223L69.967 31.7236Z" fill="#ED7225"/>
<path d="M57.0593 23.2217V1.71162C57.109 1.71162 57.1482 1.70117 57.1887 1.70117H67.457C68.5585 1.70117 69.6194 1.85012 70.6124 2.33617C72.5174 3.26906 73.6985 4.76639 74.1441 6.83078C74.2826 7.48537 74.3126 8.15042 74.2329 8.81546C74.1036 9.9169 73.7168 10.919 73.0727 11.8023C73.4202 12.1498 73.7769 12.4765 74.0853 12.8436C74.8888 13.7857 75.3553 14.8871 75.4938 16.1179C75.891 19.5699 73.5391 22.507 70.3746 23.112C70.0075 23.1812 69.6207 23.2309 69.2431 23.2309C65.245 23.2413 61.2469 23.2413 57.2488 23.2413L57.0606 23.2217H57.0593ZM61.5931 18.667H68.4579C68.5977 18.667 68.7362 18.6866 68.8747 18.667C69.9461 18.4789 70.73 17.6257 70.7901 16.5138C70.8593 15.2242 69.8076 14.1332 68.4984 14.1332H64.3108V10.105H67.4858C68.9348 10.105 70.0454 8.67696 69.6782 7.27763C69.3999 6.21669 68.4971 5.54119 67.3564 5.54119H61.7604C61.7107 5.54119 61.6519 5.54119 61.5918 5.55164V18.667H61.5931Z" fill="#E3272C"/>
<path d="M10.3023 9.89205L0.284851 1.70245V23.2609H5.11133V11.7043L10.3023 15.948L15.4921 11.7043V23.2609H20.3185V1.70245L10.3023 9.89205Z" fill="#E3272C"/>
<path d="M45.6229 6.57074H40.3274V1.70245H55.4876V6.56029H50.162V23.2413H45.6229V6.57074Z" fill="#E3272C"/>
<path d="M96.689 23.2413H91.5698L85.6093 11.6546L79.65 23.2413H74.5308L85.6093 1.70245L96.689 23.2413Z" fill="#E3272C"/>
<path d="M85.6105 18.1914L88.208 23.2413H83.0118L85.6105 18.1914Z" fill="#ED7225"/>
<path d="M44.0485 23.2413H38.9293L32.9701 11.6546L27.0095 23.2413H21.8903L32.9701 1.70245L44.0485 23.2413Z" fill="#E3272C"/>
<path d="M32.9701 18.1914L35.5676 23.2413H30.3726L32.9701 18.1914Z" fill="#ED7225"/>
<path d="M107.914 0.853187C102.456 0.0391927 97.1633 3.09657 95.1904 8.20397C95.1904 8.20397 95.1459 8.34769 95.0832 8.58548C95.0323 8.72398 94.9813 8.86117 94.9382 9.01143C94.6351 10.0959 94.494 11.2195 94.5201 12.3445C94.7971 16.9149 98.7547 20.3969 103.367 20.1225C107.072 19.9017 110.187 17.2886 111.019 13.7046C110.087 16.8051 106.692 18.5703 103.563 17.6453C101.035 16.8992 99.3113 14.5827 99.34 11.9682C99.3479 11.2104 99.4825 10.4578 99.7385 9.74442C101.448 4.9506 106.754 2.43675 111.592 4.13007C115.353 5.44579 117.922 8.99444 117.863 12.9468C118.17 6.98363 113.872 1.75864 107.916 0.853187" fill="#ED7225"/>
<path d="M104.322 24.1102C109.78 24.9242 115.072 21.8668 117.045 16.7594C117.045 16.7594 117.09 16.6157 117.153 16.3779C117.204 16.2394 117.254 16.1022 117.298 15.9519C117.601 14.8675 117.742 13.7438 117.716 12.6176C117.439 8.04717 113.481 4.56515 108.869 4.83954C105.163 5.06035 102.049 7.67349 101.216 11.2574C102.149 8.15692 105.544 6.39174 108.673 7.3168C111.201 8.06285 112.924 10.3794 112.896 12.9939C112.888 13.753 112.753 14.5043 112.497 15.219C110.788 20.0128 105.482 22.5266 100.644 20.8333C96.8824 19.5176 94.3137 15.9689 94.3725 12.0165C94.0654 17.9797 98.364 23.2047 104.319 24.1102" fill="#E3272C"/>
</g>
<defs>
<clipPath id="clip0_341_2445">
<rect width="117.716" height="36" fill="white"/>
</clipPath>
</defs>
</svg>
