<?xml version="1.0" encoding="utf-8"?>
<!-- Generator: Adobe Illustrator 22.0.1, SVG Export Plug-In . SVG Version: 6.00 Build 0)  -->
<svg version="1.1" id="Layer_1" xmlns="http://www.w3.org/2000/svg" xmlns:xlink="http://www.w3.org/1999/xlink" x="0px" y="0px"
	 viewBox="0 0 364.1 410.7" style="enable-background:new 0 0 364.1 410.7;" xml:space="preserve">
<style type="text/css">
	.st0{fill-rule:evenodd;clip-rule:evenodd;fill:#D11F70;}
</style>
<g>
	<path class="st0" d="M333.6,398.2c-0.7,0.1-1.6-0.1-2.5-0.6c-0.9,6.1-4.3,13.2-9,13c-4.7-0.1-7.9-6.8-8.9-12.8
		c-1,0.4-3,0.7-3.6-0.6c-0.2-0.5,0-1.1,0.5-1.8c2.6-4.4,3.4-8.5,4.6-13.5c1.2-5.4,2.4-11.1,3.2-17.1c0.8-5.5,1.3-11.2,1.3-16.9
		c0-3.3-0.2-6.5-0.5-9.8c-0.5-5.4-1.3-10.6-2.3-15.7c-1.1-5.7-2.2-11.7-4.6-17.1c-0.9-2-2.6-4-1.9-5.2c0.5-0.9,1.3-1,3.6-0.4
		c1-6,3.6-12.8,8.3-12.8c4.7,0,7.6,6.9,8.6,13c1.8-0.9,3.3-0.6,3.7,0.4c0.2,0.4,0.2,0.8,0.3,1.2c0,0,0,0,0,0
		c-0.1,9.8,4.9,61.6,11.8,66.4c2.9,1.9,2.5-9.5,2.3-18.9c-0.1-8.9-1.2-18-2.7-26.9c-0.4-2.3-1.9-9.4-3.5-14.8
		c-1.5-4.9-3.4-5.7-3.2-7.1c0.1-1.1,2-1.3,3.7-0.4c0.9-6.1,4.3-13.2,9-13c4.7,0.1,7.9,6.8,8.9,12.8c1-0.4,3-0.7,3.6,0.6
		c0.4,0.9-1.1,2.6-1.8,4.4c-1,2.6-1.9,5.4-2.6,8.2c-1.8,7.5-3.5,15.7-4.4,24.2c-0.5,4.1-0.7,8.3-0.7,12.5c0,7.5,0.9,15.1,2.2,22.2
		c0.6,3.4,1.1,6.8,1.8,10c0.6,2.7,1.5,5.3,2.4,7.7c1.7,3.7,3.6,6.5,2.9,7.7c-0.5,0.9-1.3,1-3.6,0.4c-1,6-3.7,12.8-8.3,12.8
		c-4.6,0-7.6-6.9-8.6-13c-1.8,0.9-3.3,0.6-3.7-0.4c-0.2-0.4-0.2-0.8-0.3-1.2c0,0,0,0,0,0c0.1-5.4-1.4-23.6-3.9-39.7
		c-2-13.2-4.8-24.9-7.9-26.8c-2.9-1.9-2.5,9.5-2.3,18.9c0.1,4.1,0.3,8.3,0.7,12.4c0.5,4.8,1.2,9.7,2,14.5c0.2,1.4,0.9,4.4,1.7,7.8
		c0.6,2.6,1.4,5.2,2.4,7.8C332.5,392.2,336.6,397.9,333.6,398.2L333.6,398.2z"/>
	<path class="st0" d="M140,398.2c-0.7,0.1-1.6-0.1-2.5-0.6c-0.9,6.1-4.3,13.2-9,13c-4.7-0.1-7.9-6.8-8.9-12.8c-1,0.4-3,0.7-3.6-0.6
		c-0.2-0.5,0-1.1,0.5-1.8c2.6-4.4,3.4-8.5,4.6-13.5c1.2-5.4,2.4-11.1,3.2-17.1c0.8-5.5,1.3-11.2,1.3-16.9c0-3.3-0.2-6.5-0.5-9.8
		c-0.5-5.4-1.3-10.6-2.3-15.7c-1.1-5.7-2.2-11.7-4.6-17.1c-0.9-2-2.6-4-1.9-5.2c0.5-0.9,1.3-1,3.6-0.4c1-6,3.6-12.8,8.3-12.8
		c4.7,0,7.6,6.9,8.6,13c1.8-0.9,3.3-0.6,3.7,0.4c0.2,0.4,0.2,0.8,0.3,1.2c0,0,0,0,0,0c-0.1,9.8,4.9,61.6,11.8,66.4
		c2.9,1.9,2.5-9.5,2.3-18.9c-0.1-8.9-1.2-18-2.7-26.9c-0.4-2.3-1.9-9.4-3.5-14.8c-1.5-4.9-3.4-5.7-3.2-7.1c0.1-1.1,2-1.3,3.7-0.4
		c0.9-6.1,4.3-13.2,9-13c4.7,0.1,7.9,6.8,8.9,12.8c1-0.4,3-0.7,3.6,0.6c0.4,0.9-1.1,2.6-1.8,4.4c-1,2.6-1.9,5.4-2.6,8.2
		c-1.8,7.5-3.5,15.7-4.4,24.2c-0.4,4.1-0.7,8.3-0.7,12.5c0,7.5,0.9,15.1,2.2,22.2c0.6,3.4,1.1,6.8,1.8,10c0.6,2.7,1.5,5.3,2.4,7.7
		c1.7,3.7,3.6,6.5,2.9,7.7c-0.5,0.9-1.3,1-3.6,0.4c-1,6-3.7,12.8-8.3,12.8c-4.6,0-7.6-6.9-8.6-13c-1.8,0.9-3.3,0.6-3.7-0.4
		c-0.2-0.4-0.2-0.8-0.3-1.2c0,0,0,0,0,0c0.1-5.4-1.4-23.6-3.9-39.7c-2-13.2-4.8-24.9-7.9-26.8c-2.9-1.9-2.5,9.5-2.3,18.9
		c0.1,4.1,0.3,8.3,0.7,12.4c0.5,4.8,1.2,9.7,2,14.5c0.2,1.4,0.9,4.4,1.7,7.8c0.6,2.6,1.4,5.2,2.4,7.8
		C138.9,392.2,143,397.9,140,398.2L140,398.2z"/>
	<path class="st0" d="M86.8,282.7c1.8,1.5,10.1-2.8,16.2-8.5c2.5-2.3,8.4-7.9,3.1-10.8c-2-1.1-6.2-2.4-8-1.6c-3,1.4-4.5,6.3-6.7,9.4
		C87.7,276.3,85,281.2,86.8,282.7L86.8,282.7z"/>
	<path class="st0" d="M24,398.2c-0.7,0.1-1.6-0.1-2.5-0.6c-0.9,6.1-4.3,13.2-9,13c-4.7-0.1-7.9-6.8-8.9-12.8c-1,0.4-3,0.7-3.6-0.6
		c-0.2-0.5,0-1.1,0.5-1.8c2.6-4.4,3.4-8.5,4.6-13.5c1.2-5.4,2.4-11.1,3.2-17.1c0.8-5.5,1.3-11.2,1.3-16.9c0-3.3-0.2-6.5-0.5-9.8
		c-0.5-5.4-1.3-10.6-2.3-15.7c-1.1-5.7-2.2-11.7-4.6-17.1c-0.9-2-2.6-4-1.9-5.2c0.5-0.9,1.3-1,3.6-0.4c1-6,3.6-12.8,8.3-12.8
		c4.7,0,7.6,6.9,8.6,13c1.8-0.9,3.3-0.6,3.7,0.4c0.2,0.4,0.2,0.8,0.3,1.2c0,0,0,0,0,0c-0.1,9.8,4.9,61.6,11.8,66.4
		c2.9,1.9,2.5-9.5,2.3-18.9c-0.1-8.9-1.2-18-2.7-26.9c-0.4-2.3-1.9-9.4-3.5-14.8c-1.5-4.9-3.4-5.7-3.2-7.1c0.1-1.1,2-1.3,3.7-0.4
		c0.9-6.1,4.3-13.2,9-13c4.7,0.1,7.9,6.8,8.9,12.8c1-0.4,3-0.7,3.6,0.6c0.4,0.9-1.1,2.6-1.8,4.4c-1,2.6-1.9,5.4-2.6,8.2
		c-1.8,7.5-3.5,15.7-4.4,24.2c-0.5,4.1-0.7,8.3-0.7,12.5c0,7.5,0.9,15.1,2.2,22.2c0.6,3.4,1.1,6.8,1.8,10c0.6,2.7,1.5,5.3,2.4,7.7
		c1.7,3.7,3.6,6.5,2.9,7.7c-0.5,0.9-1.3,1-3.6,0.4c-1,6-3.7,12.8-8.3,12.8c-4.6,0-7.6-6.9-8.6-13c-1.8,0.9-3.3,0.6-3.7-0.4
		c-0.2-0.4-0.2-0.8-0.3-1.2c0,0,0,0,0,0c0.1-5.4-1.4-23.6-3.9-39.7c-2-13.2-4.8-24.9-7.9-26.8c-2.9-1.9-2.5,9.5-2.3,18.9
		c0.1,4.1,0.3,8.3,0.7,12.4c0.5,4.8,1.2,9.7,2,14.5c0.2,1.4,0.9,4.4,1.7,7.8c0.6,2.6,1.4,5.2,2.4,7.8C23,392.2,27.1,397.9,24,398.2
		L24,398.2z"/>
	<path class="st0" d="M97.1,326c-2-5.3-5.4-7.9-11.2-7.9c-5.6,0-9.2,2.7-11.3,8c-3.9,9.9-3.9,35.6,0,45.5c2.1,5.4,5.7,8,11.3,8
		c5.9,0,9.2-2.6,11.2-7.9C101.1,361.1,101.1,336.7,97.1,326L97.1,326z M65.4,340.3c-0.6-10.1-2.3-19.4-4.4-25.6
		c-3.2-8.1-0.6-7.3,4-6.2c3.1-14.2,12-21.3,20.8-21.3c9.4,0,17.6,7,20.8,21.2c5.3-1.5,7.3-2.2,4,6.2c-2.4,6.9-4.4,17.6-4.8,29
		c-0.2,5.6-0.1,11.3,0.4,17c0.8,9,2.5,17,4.4,22.6c3.3,8.4,1.3,7.7-4,6.2c-3.1,14.2-11.4,21.3-20.8,21.3c-8.8,0-17.6-7-20.8-21.2
		c-4.6,1.1-7.2,1.9-4-6.2c2.1-6,3.7-14.8,4.3-24.5C65.7,352.7,65.8,346.4,65.4,340.3L65.4,340.3z"/>
	<path class="st0" d="M289.9,325.9c-2-5.3-5.4-7.9-11.3-7.9c-5.6,0-9.2,2.7-11.4,8.1c-3.9,9.9-3.9,35.6,0,45.5c2.1,5.4,5.7,8,11.4,8
		c5.9,0,9.2-2.6,11.3-7.9C293.9,361,293.9,336.5,289.9,325.9L289.9,325.9z M258.1,340.2c-0.6-10.2-2.3-19.4-4.4-25.7
		c-3.2-8.1-0.6-7.3,4-6.3c3.1-14.2,12-21.3,20.8-21.3c6.8,0,13.1,3.7,17.2,11.2c0.2-0.4,0.4-0.9,0.5-1.4c1.1-3.8,0.2-5.7-1-7.2
		c-1.6-2-3.4-4.9-3-7.9c0.7-5.7,4-8.8,9.2-8.2c6.1,0.7,6.8,8.4,6.4,12.3c-0.8,6.5-5.9,15-9.8,17.7c0.5,1.5,1,3.1,1.3,4.7
		c5.3-1.5,7.3-2.2,4,6.2c-2.4,6.9-4.4,17.6-4.8,29c-0.2,5.7-0.1,11.4,0.4,17c0.8,9,2.5,17.1,4.4,22.7c3.3,8.5,1.3,7.8-4,6.3
		c-3.1,14.2-11.4,21.3-20.8,21.3c-8.8,0-17.6-7.1-20.8-21.2c-4.6,1.1-7.2,1.9-4-6.2c2.1-6,3.7-14.8,4.3-24.5
		C258.5,352.6,258.5,346.3,258.1,340.2L258.1,340.2z"/>
	<path class="st0" d="M203.9,335.1c-3.3-6.2-4.1-17.7-4.6-20.7c-0.5-3.3-1.8-5.2-1.1-6.1c0.7-0.9,0.8-0.8,3.5-0.4
		c2.5-15.4,12.2-20.9,20.8-20.8c9.3,0.1,17.3,6.8,20,20c0.7,3.5,1.5,7.1,2.5,10.5c0.6,1.9,2.4,3.9,1.3,4.8c-0.9,0.7-2,0.8-3.4,0.9
		c1.4,5.8-1.7,11.3-5.5,12.1c-3.7,0.8-7.7-1.9-9.9-7.9c-0.8,0.3-3.4,1.4-3.8-0.1c-0.5-2,0.6-3.2-1.5-6.2c-1.4-2-4.3-3.9-7.3-2.8
		c-3.7,1.4-4.8,4.4-4.9,8.4c-0.2,7.3,7.3,12,15.1,16.2c8.6,4.7,15.6,8.1,19,17.6c2.6,7,2,13.9,2.8,22.8c0.5,3.3,1.9,5.2,1.1,6.1
		c-0.7,0.9-0.9,0.8-3.8,0.4c-2.7,15.4-11.2,20.7-22.3,20.8c-10.4,0-19.9-6.8-22.8-20c-0.8-3.5-1.6-7.1-2.7-10.5
		c-0.6-1.9-2.6-3.9-1.4-4.8c0.9-0.7,2.1-0.8,3.6-0.9c-1.5-5.8,1.2-12.3,5.4-13.4c4.2-1.1,10.1,3.3,11.1,9.2c0.8-0.3,4-1.5,4.1,0.1
		c0.3,5.1,4,10.6,9.7,9.6c3-0.5,5.4-3.7,5.5-7.7c0.2-6-0.7-12.3-3.8-15.8C222.6,347.4,210,346.6,203.9,335.1L203.9,335.1z"/>
	<path class="st0" d="M213.2,28.4c2.7-6.8,5.7-12.9,14.5-16.6c6.2-3.1,7.5-10,7.7-11.9c3.8,1.2,7.2,7.4,6.4,10.8
		c8.7,2,15.7,5.9,17.5,16.3c1.4,0.6,12.6,3.1,13.2,5.8c-4.7,0.9-9.8,4.8-13.4,10.8c-3,5-4.6,6.8-10.4,8.6c-4.5,1.4-3.7,8.5-10.3,11
		c-6.5,1-1.5,8.1-13.6,13.6c-5.4,1.8-6.4,4.9-8.5,8.9c-9.8-6.6-24.1-7.2-32-3.8c-1.9,1.6-1.4,3.8,0,4.6c-3.9,3.7-6.7,3.8-8.6,8.7
		c-1.9,8.8,5.1,11.1,3,16.1c-0.2,2.4-0.1,3.8,1.7,6c-5.2,0.3-11.4,0.5-12.7,4.8c-2.9,8.4-4.2,11.4-14.1,13.1
		c-8.6,0-3.7,7.3-11.2,12.7c-5.7-14.1-14.3-13.2-14.9-25.6c0-4-1.6-6.4-3.1-8.4c1.3-9.4,3.9-14.1-1-17.8c2.5-2.4,4.8-3.8,4.2-11.6
		c-0.7-6.9,1.7-16.6,7.8-18c2.4-1.6,4.2-9,6.7-11.2c6.4-2.8,10.4-6.3,10-11.3c8.1,0.4,9.5-1.5,19.1-8.6c9.3-6.2,16.5-5.9,30.5-3.7
		c5.5-0.4,6.6-2.2,8.5-4.9C210.7,28.1,211.9,28.8,213.2,28.4L213.2,28.4z"/>
	<path class="st0" d="M150.9,205.5c-2.7,6.8-5.7,12.9-14.5,16.6c-6.2,3.1-7.5,10-7.7,11.9c-3.8-1.2-7.2-7.4-6.4-10.8
		c-8.7-2-15.7-5.9-17.5-16.3c-1.4-0.6-12.6-3.1-13.2-5.8c4.7-0.9,9.8-4.8,13.4-10.8c3-5,4.6-6.8,10.4-8.6c4.5-1.4,3.7-8.5,10.3-11
		c6.5-1,1.5-8.1,13.6-13.6c5.4-1.8,6.4-4.9,8.5-8.9c9.8,6.6,24.1,7.2,32,3.8c1.9-1.6,1.4-3.8,0-4.6c3.9-3.7,6.7-3.8,8.6-8.7
		c1.9-8.8-5.1-11.1-3-16.1c0.2-2.4,0.1-3.8-1.7-6c5.2-0.3,11.4-0.5,12.7-4.8c2.9-8.4,4.2-11.4,14.1-13.1c8.6,0,3.7-7.3,11.2-12.7
		c5.7,14.1,14.3,13.2,14.9,25.6c0,4,1.6,6.4,3.1,8.4c-1.3,9.4-3.9,14.1,1,17.8c-2.5,2.4-4.8,3.8-4.2,11.6c0.7,6.9-1.7,16.6-7.8,18
		c-2.4,1.6-4.2,9-6.7,11.2c-6.4,2.8-10.4,6.3-10,11.3c-8.1-0.4-9.5,1.5-19.1,8.6c-9.3,6.2-16.5,5.9-30.5,3.7
		c-5.5,0.4-6.6,2.2-8.5,4.9C153.4,205.8,152.2,205,150.9,205.5L150.9,205.5z"/>
</g>
</svg>
