<svg xmlns="http://www.w3.org/2000/svg" xmlns:xlink="http://www.w3.org/1999/xlink" width="781" zoomAndPan="magnify" viewBox="0 0 585.75 570.75" height="761" preserveAspectRatio="xMidYMid meet" version="1.0"><defs><g/><clipPath id="4c96769e4f"><path d="M 144 124 L 441 124 L 441 222 L 144 222 Z M 144 124 " clip-rule="nonzero"/></clipPath><clipPath id="de84431c40"><path d="M 445.136719 133.847656 L 311.289062 305.164062 L 139.972656 171.316406 L 273.820312 0 Z M 445.136719 133.847656 " clip-rule="nonzero"/></clipPath><clipPath id="c84f01a74c"><path d="M 445.136719 133.847656 L 311.289062 305.164062 L 139.972656 171.316406 L 273.820312 0 Z M 445.136719 133.847656 " clip-rule="nonzero"/></clipPath><clipPath id="e0ccc3cbd8"><path d="M 186.980469 83.335938 L 261.949219 83.335938 L 261.949219 323.464844 L 186.980469 323.464844 Z M 186.980469 83.335938 " clip-rule="nonzero"/></clipPath><clipPath id="673f6ada6b"><path d="M 224.464844 83.335938 C 245.167969 83.335938 261.949219 100.117188 261.949219 120.820312 L 261.949219 285.75 C 261.949219 306.449219 245.167969 323.230469 224.464844 323.230469 C 203.765625 323.230469 186.980469 306.449219 186.980469 285.75 L 186.980469 120.820312 C 186.980469 100.117188 203.765625 83.335938 224.464844 83.335938 Z M 224.464844 83.335938 " clip-rule="nonzero"/></clipPath><clipPath id="3327d8bfea"><path d="M 216.96875 98.332031 L 261.949219 98.332031 L 261.949219 143.3125 L 216.96875 143.3125 Z M 216.96875 98.332031 " clip-rule="nonzero"/></clipPath><clipPath id="eb4d622e3b"><path d="M 239.460938 98.332031 C 227.039062 98.332031 216.96875 108.398438 216.96875 120.820312 C 216.96875 133.242188 227.039062 143.3125 239.460938 143.3125 C 251.878906 143.3125 261.949219 133.242188 261.949219 120.820312 C 261.949219 108.398438 251.878906 98.332031 239.460938 98.332031 Z M 239.460938 98.332031 " clip-rule="nonzero"/></clipPath><clipPath id="16c8f4eaae"><path d="M 311.925781 53.351562 L 386.894531 53.351562 L 386.894531 353.21875 L 311.925781 353.21875 Z M 311.925781 53.351562 " clip-rule="nonzero"/></clipPath><clipPath id="dacfe77ce0"><path d="M 349.410156 53.351562 C 370.113281 53.351562 386.894531 70.132812 386.894531 90.832031 L 386.894531 315.734375 C 386.894531 336.4375 370.113281 353.21875 349.410156 353.21875 C 328.710938 353.21875 311.925781 336.4375 311.925781 315.734375 L 311.925781 90.832031 C 311.925781 70.132812 328.710938 53.351562 349.410156 53.351562 Z M 349.410156 53.351562 " clip-rule="nonzero"/></clipPath><clipPath id="165297ccc3"><path d="M 311.925781 68.34375 L 356.90625 68.34375 L 356.90625 113.324219 L 311.925781 113.324219 Z M 311.925781 68.34375 " clip-rule="nonzero"/></clipPath><clipPath id="d57a580c3c"><path d="M 334.417969 68.34375 C 321.996094 68.34375 311.925781 78.414062 311.925781 90.832031 C 311.925781 103.253906 321.996094 113.324219 334.417969 113.324219 C 346.839844 113.324219 356.90625 103.253906 356.90625 90.832031 C 356.90625 78.414062 346.839844 68.34375 334.417969 68.34375 Z M 334.417969 68.34375 " clip-rule="nonzero"/></clipPath></defs><g clip-path="url(#4c96769e4f)"><g clip-path="url(#de84431c40)"><g clip-path="url(#c84f01a74c)"><path fill="#7ed957" d="M 146.636719 162.789062 C 150.3125 158.082031 157.121094 157.246094 161.828125 160.921875 C 242.179688 223.703125 358.640625 209.402344 421.417969 129.050781 C 425.097656 124.34375 431.902344 123.507812 436.609375 127.183594 C 441.316406 130.863281 442.152344 137.667969 438.476562 142.375 C 421.3125 164.34375 400.355469 182.308594 376.175781 195.746094 C 352.820312 208.730469 327.492188 216.960938 300.875 220.226562 C 274.261719 223.496094 247.679688 221.625 221.890625 214.691406 C 195.179688 207.5 170.5 195.140625 148.53125 177.976562 C 143.792969 174.300781 142.957031 167.496094 146.636719 162.789062 Z M 146.636719 162.789062 " fill-opacity="1" fill-rule="nonzero"/></g></g></g><g clip-path="url(#e0ccc3cbd8)"><g clip-path="url(#673f6ada6b)"><path fill="#7ed957" d="M 186.980469 83.335938 L 261.949219 83.335938 L 261.949219 323.171875 L 186.980469 323.171875 Z M 186.980469 83.335938 " fill-opacity="1" fill-rule="nonzero"/></g></g><g clip-path="url(#3327d8bfea)"><g clip-path="url(#eb4d622e3b)"><path fill="#ff6300" d="M 216.96875 98.332031 L 261.949219 98.332031 L 261.949219 143.3125 L 216.96875 143.3125 Z M 216.96875 98.332031 " fill-opacity="1" fill-rule="nonzero"/><path stroke-linecap="butt" transform="matrix(0.749672, 0, 0, 0.749672, 216.968874, 98.3303)" fill="none" stroke-linejoin="miter" d="M 30.002554 0.00230875 C 13.432799 0.00230875 -0.000165097 13.430062 -0.000165097 29.999817 C -0.000165097 46.569571 13.432799 60.002536 30.002554 60.002536 C 46.567097 60.002536 60.000062 46.569571 60.000062 29.999817 C 60.000062 13.430062 46.567097 0.00230875 30.002554 0.00230875 Z M 30.002554 0.00230875 " stroke="#ffffff" stroke-width="12" stroke-opacity="1" stroke-miterlimit="4"/></g></g><g clip-path="url(#16c8f4eaae)"><g clip-path="url(#dacfe77ce0)"><path fill="#7ed957" d="M 311.925781 53.351562 L 386.894531 53.351562 L 386.894531 353.21875 L 311.925781 353.21875 Z M 311.925781 53.351562 " fill-opacity="1" fill-rule="nonzero"/></g></g><g clip-path="url(#165297ccc3)"><g clip-path="url(#d57a580c3c)"><path fill="#ff6300" d="M 311.925781 68.34375 L 356.90625 68.34375 L 356.90625 113.324219 L 311.925781 113.324219 Z M 311.925781 68.34375 " fill-opacity="1" fill-rule="nonzero"/><path stroke-linecap="butt" transform="matrix(0.749672, 0, 0, 0.749672, 311.927287, 68.343437)" fill="none" stroke-linejoin="miter" d="M 30.00071 0.000418118 C 13.430955 0.000418118 -0.00200896 13.433382 -0.00200896 29.997926 C -0.00200896 46.567681 13.430955 60.000645 30.00071 60.000645 C 46.570464 60.000645 59.998218 46.567681 59.998218 29.997926 C 59.998218 13.433382 46.570464 0.000418118 30.00071 0.000418118 Z M 30.00071 0.000418118 " stroke="#ffffff" stroke-width="12" stroke-opacity="1" stroke-miterlimit="4"/></g></g><g fill="#ff6300" fill-opacity="1"><g transform="translate(64.415067, 483.397519)"><g><path d="M 72.8125 -0.484375 C 71.925781 -0.242188 70.546875 -0.00390625 68.671875 0.234375 C 66.796875 0.472656 64.9375 0.59375 63.09375 0.59375 C 61.257812 0.59375 59.640625 0.453125 58.234375 0.171875 C 56.835938 -0.0976562 55.660156 -0.59375 54.703125 -1.3125 C 53.742188 -2.039062 53.019531 -3.039062 52.53125 -4.3125 C 52.050781 -5.59375 51.8125 -7.273438 51.8125 -9.359375 L 51.8125 -28.0625 L 28.78125 -28.0625 L 28.78125 -0.484375 C 27.90625 -0.242188 26.523438 -0.00390625 24.640625 0.234375 C 22.765625 0.472656 20.910156 0.59375 19.078125 0.59375 C 17.234375 0.59375 15.609375 0.453125 14.203125 0.171875 C 12.804688 -0.0976562 11.628906 -0.59375 10.671875 -1.3125 C 9.710938 -2.039062 8.992188 -3.039062 8.515625 -4.3125 C 8.035156 -5.59375 7.796875 -7.273438 7.796875 -9.359375 L 7.796875 -72.6875 C 8.671875 -72.851562 10.066406 -73.070312 11.984375 -73.34375 C 13.910156 -73.625 15.753906 -73.765625 17.515625 -73.765625 C 19.347656 -73.765625 20.960938 -73.625 22.359375 -73.34375 C 23.765625 -73.070312 24.945312 -72.570312 25.90625 -71.84375 C 26.863281 -71.125 27.582031 -70.125 28.0625 -68.84375 C 28.539062 -67.570312 28.78125 -65.894531 28.78125 -63.8125 L 28.78125 -44.625 L 51.8125 -44.625 L 51.8125 -72.6875 C 52.695312 -72.851562 54.097656 -73.070312 56.015625 -73.34375 C 57.929688 -73.625 59.769531 -73.765625 61.53125 -73.765625 C 63.375 -73.765625 64.992188 -73.625 66.390625 -73.34375 C 67.796875 -73.070312 68.976562 -72.570312 69.9375 -71.84375 C 70.894531 -71.125 71.613281 -70.125 72.09375 -68.84375 C 72.570312 -67.570312 72.8125 -65.894531 72.8125 -63.8125 Z M 72.8125 -0.484375 "/></g></g></g><g fill="#ff6300" fill-opacity="1"><g transform="translate(145.019806, 483.397519)"><g><path d="M 23.265625 -70.53125 C 24.628906 -71.332031 26.691406 -72.09375 29.453125 -72.8125 C 32.210938 -73.53125 34.988281 -73.890625 37.78125 -73.890625 C 41.78125 -73.890625 45.316406 -73.304688 48.390625 -72.140625 C 51.472656 -70.984375 53.457031 -69.164062 54.34375 -66.6875 C 55.78125 -62.53125 57.335938 -57.691406 59.015625 -52.171875 C 60.691406 -46.660156 62.367188 -40.960938 64.046875 -35.078125 C 65.734375 -29.203125 67.375 -23.40625 68.96875 -17.6875 C 70.570312 -11.96875 71.972656 -6.910156 73.171875 -2.515625 C 72.210938 -1.398438 70.769531 -0.503906 68.84375 0.171875 C 66.925781 0.859375 64.648438 1.203125 62.015625 1.203125 C 60.097656 1.203125 58.476562 1.039062 57.15625 0.71875 C 55.832031 0.394531 54.75 -0.0820312 53.90625 -0.71875 C 53.070312 -1.351562 52.394531 -2.191406 51.875 -3.234375 C 51.351562 -4.273438 50.894531 -5.476562 50.5 -6.84375 L 48.34375 -15.109375 L 26.625 -15.109375 C 25.988281 -12.710938 25.347656 -10.234375 24.703125 -7.671875 C 24.066406 -5.117188 23.429688 -2.640625 22.796875 -0.234375 C 21.671875 0.160156 20.488281 0.5 19.25 0.78125 C 18.007812 1.0625 16.507812 1.203125 14.75 1.203125 C 10.675781 1.203125 7.660156 0.503906 5.703125 -0.890625 C 3.742188 -2.296875 2.765625 -4.238281 2.765625 -6.71875 C 2.765625 -7.832031 2.921875 -8.945312 3.234375 -10.0625 C 3.554688 -11.1875 3.914062 -12.507812 4.3125 -14.03125 C 4.875 -16.1875 5.65625 -18.863281 6.65625 -22.0625 C 7.65625 -25.269531 8.753906 -28.734375 9.953125 -32.453125 C 11.148438 -36.171875 12.425781 -39.988281 13.78125 -43.90625 C 15.144531 -47.820312 16.425781 -51.519531 17.625 -55 C 18.832031 -58.476562 19.9375 -61.578125 20.9375 -64.296875 C 21.9375 -67.015625 22.710938 -69.09375 23.265625 -70.53125 Z M 37.671875 -55.0625 C 36.546875 -51.695312 35.28125 -47.957031 33.875 -43.84375 C 32.476562 -39.726562 31.222656 -35.550781 30.109375 -31.3125 L 44.984375 -31.3125 C 43.859375 -35.625 42.71875 -39.835938 41.5625 -43.953125 C 40.40625 -48.078125 39.347656 -51.78125 38.390625 -55.0625 Z M 37.671875 -55.0625 "/></g></g></g><g fill="#ff6300" fill-opacity="1"><g transform="translate(220.226901, 483.397519)"><g><path d="M 4.4375 -55.890625 C 3.875 -56.773438 3.351562 -57.976562 2.875 -59.5 C 2.394531 -61.019531 2.15625 -62.617188 2.15625 -64.296875 C 2.15625 -67.410156 2.851562 -69.644531 4.25 -71 C 5.65625 -72.363281 7.476562 -73.046875 9.71875 -73.046875 L 62.015625 -73.046875 C 62.578125 -72.171875 63.097656 -70.972656 63.578125 -69.453125 C 64.054688 -67.929688 64.296875 -66.332031 64.296875 -64.65625 C 64.296875 -61.539062 63.59375 -59.300781 62.1875 -57.9375 C 60.789062 -56.570312 58.972656 -55.890625 56.734375 -55.890625 L 43.421875 -55.890625 L 43.421875 -0.484375 C 42.546875 -0.242188 41.164062 -0.00390625 39.28125 0.234375 C 37.40625 0.472656 35.546875 0.59375 33.703125 0.59375 C 31.867188 0.59375 30.25 0.453125 28.84375 0.171875 C 27.445312 -0.0976562 26.269531 -0.59375 25.3125 -1.3125 C 24.351562 -2.039062 23.632812 -3.039062 23.15625 -4.3125 C 22.675781 -5.59375 22.4375 -7.273438 22.4375 -9.359375 L 22.4375 -55.890625 Z M 4.4375 -55.890625 "/></g></g></g><g fill="#ff6300" fill-opacity="1"><g transform="translate(286.917725, 483.397519)"><g><path d="M 72.8125 -0.484375 C 71.925781 -0.242188 70.546875 -0.00390625 68.671875 0.234375 C 66.796875 0.472656 64.9375 0.59375 63.09375 0.59375 C 61.257812 0.59375 59.640625 0.453125 58.234375 0.171875 C 56.835938 -0.0976562 55.660156 -0.59375 54.703125 -1.3125 C 53.742188 -2.039062 53.019531 -3.039062 52.53125 -4.3125 C 52.050781 -5.59375 51.8125 -7.273438 51.8125 -9.359375 L 51.8125 -28.0625 L 28.78125 -28.0625 L 28.78125 -0.484375 C 27.90625 -0.242188 26.523438 -0.00390625 24.640625 0.234375 C 22.765625 0.472656 20.910156 0.59375 19.078125 0.59375 C 17.234375 0.59375 15.609375 0.453125 14.203125 0.171875 C 12.804688 -0.0976562 11.628906 -0.59375 10.671875 -1.3125 C 9.710938 -2.039062 8.992188 -3.039062 8.515625 -4.3125 C 8.035156 -5.59375 7.796875 -7.273438 7.796875 -9.359375 L 7.796875 -72.6875 C 8.671875 -72.851562 10.066406 -73.070312 11.984375 -73.34375 C 13.910156 -73.625 15.753906 -73.765625 17.515625 -73.765625 C 19.347656 -73.765625 20.960938 -73.625 22.359375 -73.34375 C 23.765625 -73.070312 24.945312 -72.570312 25.90625 -71.84375 C 26.863281 -71.125 27.582031 -70.125 28.0625 -68.84375 C 28.539062 -67.570312 28.78125 -65.894531 28.78125 -63.8125 L 28.78125 -44.625 L 51.8125 -44.625 L 51.8125 -72.6875 C 52.695312 -72.851562 54.097656 -73.070312 56.015625 -73.34375 C 57.929688 -73.625 59.769531 -73.765625 61.53125 -73.765625 C 63.375 -73.765625 64.992188 -73.625 66.390625 -73.34375 C 67.796875 -73.070312 68.976562 -72.570312 69.9375 -71.84375 C 70.894531 -71.125 71.613281 -70.125 72.09375 -68.84375 C 72.570312 -67.570312 72.8125 -65.894531 72.8125 -63.8125 Z M 72.8125 -0.484375 "/></g></g></g><g fill="#ff6300" fill-opacity="1"><g transform="translate(367.522476, 483.397519)"><g><path d="M 45.9375 -0.484375 C 45.0625 -0.242188 43.703125 -0.00390625 41.859375 0.234375 C 40.023438 0.472656 38.226562 0.59375 36.46875 0.59375 C 32.789062 0.59375 30.03125 -0.0234375 28.1875 -1.265625 C 26.351562 -2.503906 25.4375 -5.117188 25.4375 -9.109375 L 25.4375 -25.3125 C 23.4375 -28.269531 21.273438 -31.546875 18.953125 -35.140625 C 16.628906 -38.742188 14.347656 -42.421875 12.109375 -46.171875 C 9.867188 -49.929688 7.789062 -53.628906 5.875 -57.265625 C 3.957031 -60.910156 2.398438 -64.253906 1.203125 -67.296875 C 2.242188 -68.734375 3.660156 -70.050781 5.453125 -71.25 C 7.253906 -72.445312 9.472656 -73.046875 12.109375 -73.046875 C 15.234375 -73.046875 17.773438 -72.40625 19.734375 -71.125 C 21.691406 -69.851562 23.550781 -67.457031 25.3125 -63.9375 L 35.265625 -43.90625 L 35.984375 -43.90625 C 37.109375 -46.382812 38.085938 -48.640625 38.921875 -50.671875 C 39.765625 -52.710938 40.582031 -54.753906 41.375 -56.796875 C 42.175781 -58.835938 43.015625 -60.957031 43.890625 -63.15625 C 44.773438 -65.351562 45.78125 -67.890625 46.90625 -70.765625 C 48.34375 -71.492188 49.941406 -72.054688 51.703125 -72.453125 C 53.460938 -72.847656 55.140625 -73.046875 56.734375 -73.046875 C 59.535156 -73.046875 61.914062 -72.304688 63.875 -70.828125 C 65.832031 -69.347656 66.8125 -67.128906 66.8125 -64.171875 C 66.8125 -63.210938 66.609375 -62.050781 66.203125 -60.6875 C 65.804688 -59.332031 64.890625 -57.273438 63.453125 -54.515625 C 62.015625 -51.753906 59.914062 -48.015625 57.15625 -43.296875 C 54.394531 -38.578125 50.65625 -32.421875 45.9375 -24.828125 Z M 45.9375 -0.484375 "/></g></g></g><g fill="#ff6300" fill-opacity="1"><g transform="translate(436.372336, 483.397519)"><g><path d="M 4.203125 -36.46875 C 4.203125 -42.707031 5.179688 -48.222656 7.140625 -53.015625 C 9.097656 -57.816406 11.773438 -61.835938 15.171875 -65.078125 C 18.566406 -68.316406 22.5625 -70.773438 27.15625 -72.453125 C 31.757812 -74.128906 36.742188 -74.96875 42.109375 -74.96875 C 47.460938 -74.96875 52.4375 -74.128906 57.03125 -72.453125 C 61.632812 -70.773438 65.65625 -68.316406 69.09375 -65.078125 C 72.53125 -61.835938 75.226562 -57.816406 77.1875 -53.015625 C 79.144531 -48.222656 80.125 -42.707031 80.125 -36.46875 C 80.125 -30.226562 79.164062 -24.6875 77.25 -19.84375 C 75.332031 -15.007812 72.671875 -10.972656 69.265625 -7.734375 C 65.867188 -4.492188 61.851562 -2.035156 57.21875 -0.359375 C 52.582031 1.316406 47.546875 2.15625 42.109375 2.15625 C 36.671875 2.15625 31.628906 1.296875 26.984375 -0.421875 C 22.347656 -2.140625 18.347656 -4.632812 14.984375 -7.90625 C 11.628906 -11.1875 8.992188 -15.226562 7.078125 -20.03125 C 5.160156 -24.832031 4.203125 -30.3125 4.203125 -36.46875 Z M 25.796875 -36.46875 C 25.796875 -29.1875 27.273438 -23.742188 30.234375 -20.140625 C 33.191406 -16.546875 37.148438 -14.75 42.109375 -14.75 C 47.140625 -14.75 51.132812 -16.546875 54.09375 -20.140625 C 57.050781 -23.742188 58.53125 -29.1875 58.53125 -36.46875 C 58.53125 -43.664062 57.070312 -49.0625 54.15625 -52.65625 C 51.238281 -56.257812 47.257812 -58.0625 42.21875 -58.0625 C 37.257812 -58.0625 33.28125 -56.28125 30.28125 -52.71875 C 27.289062 -49.15625 25.796875 -43.738281 25.796875 -36.46875 Z M 25.796875 -36.46875 "/></g></g></g></svg>