<svg xmlns="http://www.w3.org/2000/svg" xmlns:xlink="http://www.w3.org/1999/xlink" width="976" zoomAndPan="magnify" viewBox="0 0 732 675.000002" height="900" preserveAspectRatio="xMidYMid meet" version="1.0"><defs><g/><clipPath id="1a131f9be9"><path d="M 217 124 L 514 124 L 514 222 L 217 222 Z M 217 124 " clip-rule="nonzero"/></clipPath><clipPath id="a6f94a3d2d"><path d="M 518.277344 133.707031 L 384.570312 304.847656 L 213.429688 171.140625 L 347.140625 0 Z M 518.277344 133.707031 " clip-rule="nonzero"/></clipPath><clipPath id="f2162c8558"><path d="M 518.277344 133.707031 L 384.570312 304.847656 L 213.429688 171.140625 L 347.140625 0 Z M 518.277344 133.707031 " clip-rule="nonzero"/></clipPath><clipPath id="4a6a2b8b6e"><path d="M 260.390625 83.25 L 335.28125 83.25 L 335.28125 323 L 260.390625 323 Z M 260.390625 83.25 " clip-rule="nonzero"/></clipPath><clipPath id="dd73181c9d"><path d="M 297.835938 83.25 C 318.515625 83.25 335.28125 100.015625 335.28125 120.695312 L 335.28125 285.449219 C 335.28125 306.128906 318.515625 322.894531 297.835938 322.894531 C 277.15625 322.894531 260.390625 306.128906 260.390625 285.449219 L 260.390625 120.695312 C 260.390625 100.015625 277.15625 83.25 297.835938 83.25 Z M 297.835938 83.25 " clip-rule="nonzero"/></clipPath><clipPath id="d30bfe6684"><path d="M 290.347656 98.226562 L 335.28125 98.226562 L 335.28125 143.160156 L 290.347656 143.160156 Z M 290.347656 98.226562 " clip-rule="nonzero"/></clipPath><clipPath id="54f1cc9815"><path d="M 312.8125 98.226562 C 300.40625 98.226562 290.347656 108.285156 290.347656 120.695312 C 290.347656 133.101562 300.40625 143.160156 312.8125 143.160156 C 325.222656 143.160156 335.28125 133.101562 335.28125 120.695312 C 335.28125 108.285156 325.222656 98.226562 312.8125 98.226562 Z M 312.8125 98.226562 " clip-rule="nonzero"/></clipPath><clipPath id="17a03cdba4"><path d="M 385.207031 53.292969 L 460.09375 53.292969 L 460.09375 352.851562 L 385.207031 352.851562 Z M 385.207031 53.292969 " clip-rule="nonzero"/></clipPath><clipPath id="32ddf96e2d"><path d="M 422.652344 53.292969 C 443.332031 53.292969 460.09375 70.058594 460.09375 90.738281 L 460.09375 315.40625 C 460.09375 336.085938 443.332031 352.851562 422.652344 352.851562 C 401.972656 352.851562 385.207031 336.085938 385.207031 315.40625 L 385.207031 90.738281 C 385.207031 70.058594 401.972656 53.292969 422.652344 53.292969 Z M 422.652344 53.292969 " clip-rule="nonzero"/></clipPath><clipPath id="ef774f08a4"><path d="M 385.207031 68.273438 L 430.140625 68.273438 L 430.140625 113.207031 L 385.207031 113.207031 Z M 385.207031 68.273438 " clip-rule="nonzero"/></clipPath><clipPath id="a9592bd784"><path d="M 407.671875 68.273438 C 395.265625 68.273438 385.207031 78.332031 385.207031 90.738281 C 385.207031 103.148438 395.265625 113.207031 407.671875 113.207031 C 420.082031 113.207031 430.140625 103.148438 430.140625 90.738281 C 430.140625 78.332031 420.082031 68.273438 407.671875 68.273438 Z M 407.671875 68.273438 " clip-rule="nonzero"/></clipPath></defs><g clip-path="url(#1a131f9be9)"><g clip-path="url(#a6f94a3d2d)"><g clip-path="url(#f2162c8558)"><path fill="#0a703f" d="M 220.085938 162.621094 C 223.761719 157.917969 230.558594 157.082031 235.261719 160.757812 C 315.535156 223.46875 431.871094 209.1875 494.582031 128.914062 C 498.257812 124.210938 505.054688 123.378906 509.757812 127.050781 C 514.460938 130.726562 515.296875 137.523438 511.621094 142.226562 C 494.476562 164.175781 473.542969 182.117188 449.386719 195.542969 C 426.054688 208.511719 400.753906 216.734375 374.167969 220 C 347.578125 223.261719 321.023438 221.394531 295.265625 214.46875 C 268.582031 207.285156 243.925781 194.9375 221.980469 177.792969 C 217.25 174.121094 216.414062 167.320312 220.085938 162.621094 Z M 220.085938 162.621094 " fill-opacity="1" fill-rule="nonzero"/></g></g></g><g clip-path="url(#4a6a2b8b6e)"><g clip-path="url(#dd73181c9d)"><path fill="#0a703f" d="M 260.390625 83.25 L 335.28125 83.25 L 335.28125 322.835938 L 260.390625 322.835938 Z M 260.390625 83.25 " fill-opacity="1" fill-rule="nonzero"/></g></g><g clip-path="url(#d30bfe6684)"><g clip-path="url(#54f1cc9815)"><path fill="#ff6300" d="M 290.347656 98.226562 L 335.28125 98.226562 L 335.28125 143.160156 L 290.347656 143.160156 Z M 290.347656 98.226562 " fill-opacity="1" fill-rule="nonzero"/><path stroke-linecap="butt" transform="matrix(0.748891, 0, 0, 0.748891, 290.347155, 98.227849)" fill="none" stroke-linejoin="miter" d="M 29.998169 -0.00171741 C 13.431996 -0.00171741 0.000669628 13.429609 0.000669628 30.000998 C 0.000669628 46.56717 13.431996 59.998497 29.998169 59.998497 C 46.569557 59.998497 60.000884 46.56717 60.000884 30.000998 C 60.000884 13.429609 46.569557 -0.00171741 29.998169 -0.00171741 Z M 29.998169 -0.00171741 " stroke="#ffffff" stroke-width="12" stroke-opacity="1" stroke-miterlimit="4"/></g></g><g clip-path="url(#17a03cdba4)"><g clip-path="url(#32ddf96e2d)"><path fill="#0a703f" d="M 385.207031 53.292969 L 460.09375 53.292969 L 460.09375 352.851562 L 385.207031 352.851562 Z M 385.207031 53.292969 " fill-opacity="1" fill-rule="nonzero"/></g></g><g clip-path="url(#ef774f08a4)"><g clip-path="url(#a9592bd784)"><path fill="#ff6300" d="M 385.207031 68.273438 L 430.140625 68.273438 L 430.140625 113.207031 L 385.207031 113.207031 Z M 385.207031 68.273438 " fill-opacity="1" fill-rule="nonzero"/><path stroke-linecap="butt" transform="matrix(0.748891, 0, 0, 0.748891, 385.206627, 68.272229)" fill="none" stroke-linejoin="miter" d="M 29.998039 0.00161437 C 13.431866 0.00161437 0.000539341 13.432941 0.000539341 29.999114 C 0.000539341 46.570502 13.431866 60.001829 29.998039 60.001829 C 46.569427 60.001829 60.000754 46.570502 60.000754 29.999114 C 60.000754 13.432941 46.569427 0.00161437 29.998039 0.00161437 Z M 29.998039 0.00161437 " stroke="#ffffff" stroke-width="12" stroke-opacity="1" stroke-miterlimit="4"/></g></g><g fill="#ff6300" fill-opacity="1"><g transform="translate(80.972259, 533.333246)"><g><path d="M 90.921875 -0.59375 C 89.816406 -0.300781 88.09375 -0.00390625 85.75 0.296875 C 83.40625 0.597656 81.082031 0.75 78.78125 0.75 C 76.488281 0.75 74.46875 0.570312 72.71875 0.21875 C 70.96875 -0.125 69.492188 -0.742188 68.296875 -1.640625 C 67.097656 -2.546875 66.195312 -3.796875 65.59375 -5.390625 C 65 -6.984375 64.703125 -9.082031 64.703125 -11.6875 L 64.703125 -35.046875 L 35.953125 -35.046875 L 35.953125 -0.59375 C 34.847656 -0.300781 33.125 -0.00390625 30.78125 0.296875 C 28.4375 0.597656 26.113281 0.75 23.8125 0.75 C 21.519531 0.75 19.5 0.570312 17.75 0.21875 C 16 -0.125 14.523438 -0.742188 13.328125 -1.640625 C 12.128906 -2.546875 11.226562 -3.796875 10.625 -5.390625 C 10.03125 -6.984375 9.734375 -9.082031 9.734375 -11.6875 L 9.734375 -90.765625 C 10.835938 -90.960938 12.585938 -91.234375 14.984375 -91.578125 C 17.378906 -91.929688 19.675781 -92.109375 21.875 -92.109375 C 24.164062 -92.109375 26.1875 -91.929688 27.9375 -91.578125 C 29.6875 -91.234375 31.160156 -90.613281 32.359375 -89.71875 C 33.554688 -88.820312 34.453125 -87.570312 35.046875 -85.96875 C 35.648438 -84.375 35.953125 -82.28125 35.953125 -79.6875 L 35.953125 -55.71875 L 64.703125 -55.71875 L 64.703125 -90.765625 C 65.804688 -90.960938 67.554688 -91.234375 69.953125 -91.578125 C 72.347656 -91.929688 74.644531 -92.109375 76.84375 -92.109375 C 79.132812 -92.109375 81.15625 -91.929688 82.90625 -91.578125 C 84.65625 -91.234375 86.128906 -90.613281 87.328125 -89.71875 C 88.523438 -88.820312 89.421875 -87.570312 90.015625 -85.96875 C 90.617188 -84.375 90.921875 -82.28125 90.921875 -79.6875 Z M 90.921875 -0.59375 "/></g></g></g><g fill="#ff6300" fill-opacity="1"><g transform="translate(181.623173, 533.333246)"><g><path d="M 29.0625 -88.078125 C 30.757812 -89.066406 33.328125 -90.007812 36.765625 -90.90625 C 40.210938 -91.8125 43.6875 -92.265625 47.1875 -92.265625 C 52.175781 -92.265625 56.59375 -91.539062 60.4375 -90.09375 C 64.28125 -88.644531 66.75 -86.375 67.84375 -83.28125 C 69.644531 -78.082031 71.59375 -72.035156 73.6875 -65.140625 C 75.789062 -58.253906 77.890625 -51.140625 79.984375 -43.796875 C 82.078125 -36.460938 84.125 -29.226562 86.125 -22.09375 C 88.125 -14.957031 89.867188 -8.640625 91.359375 -3.140625 C 90.160156 -1.742188 88.363281 -0.625 85.96875 0.21875 C 83.570312 1.070312 80.726562 1.5 77.4375 1.5 C 75.039062 1.5 73.019531 1.296875 71.375 0.890625 C 69.726562 0.492188 68.378906 -0.0976562 67.328125 -0.890625 C 66.273438 -1.691406 65.425781 -2.738281 64.78125 -4.03125 C 64.132812 -5.332031 63.5625 -6.832031 63.0625 -8.53125 L 60.359375 -18.875 L 33.25 -18.875 C 32.445312 -15.875 31.644531 -12.773438 30.84375 -9.578125 C 30.050781 -6.390625 29.253906 -3.296875 28.453125 -0.296875 C 27.054688 0.203125 25.582031 0.625 24.03125 0.96875 C 22.488281 1.320312 20.617188 1.5 18.421875 1.5 C 13.328125 1.5 9.554688 0.625 7.109375 -1.125 C 4.660156 -2.875 3.4375 -5.296875 3.4375 -8.390625 C 3.4375 -9.785156 3.632812 -11.179688 4.03125 -12.578125 C 4.4375 -13.972656 4.890625 -15.625 5.390625 -17.53125 C 6.085938 -20.21875 7.0625 -23.554688 8.3125 -27.546875 C 9.5625 -31.546875 10.929688 -35.867188 12.421875 -40.515625 C 13.921875 -45.160156 15.519531 -49.925781 17.21875 -54.8125 C 18.914062 -59.707031 20.515625 -64.328125 22.015625 -68.671875 C 23.515625 -73.015625 24.890625 -76.882812 26.140625 -80.28125 C 27.390625 -83.675781 28.363281 -86.273438 29.0625 -88.078125 Z M 47.03125 -68.75 C 45.632812 -64.550781 44.0625 -59.878906 42.3125 -54.734375 C 40.5625 -49.597656 38.988281 -44.382812 37.59375 -39.09375 L 56.171875 -39.09375 C 54.773438 -44.488281 53.351562 -49.753906 51.90625 -54.890625 C 50.457031 -60.035156 49.132812 -64.65625 47.9375 -68.75 Z M 47.03125 -68.75 "/></g></g></g><g fill="#ff6300" fill-opacity="1"><g transform="translate(275.534049, 533.333246)"><g><path d="M 5.546875 -69.796875 C 4.847656 -70.898438 4.195312 -72.398438 3.59375 -74.296875 C 3 -76.191406 2.703125 -78.1875 2.703125 -80.28125 C 2.703125 -84.175781 3.570312 -86.972656 5.3125 -88.671875 C 7.0625 -90.367188 9.332031 -91.21875 12.125 -91.21875 L 77.4375 -91.21875 C 78.132812 -90.113281 78.78125 -88.613281 79.375 -86.71875 C 79.976562 -84.820312 80.28125 -82.828125 80.28125 -80.734375 C 80.28125 -76.835938 79.40625 -74.039062 77.65625 -72.34375 C 75.914062 -70.644531 73.644531 -69.796875 70.84375 -69.796875 L 54.21875 -69.796875 L 54.21875 -0.59375 C 53.125 -0.300781 51.398438 -0.00390625 49.046875 0.296875 C 46.703125 0.597656 44.382812 0.75 42.09375 0.75 C 39.789062 0.75 37.765625 0.570312 36.015625 0.21875 C 34.273438 -0.125 32.804688 -0.742188 31.609375 -1.640625 C 30.410156 -2.546875 29.507812 -3.796875 28.90625 -5.390625 C 28.3125 -6.984375 28.015625 -9.082031 28.015625 -11.6875 L 28.015625 -69.796875 Z M 5.546875 -69.796875 "/></g></g></g><g fill="#ff6300" fill-opacity="1"><g transform="translate(358.810682, 533.333246)"><g><path d="M 90.921875 -0.59375 C 89.816406 -0.300781 88.09375 -0.00390625 85.75 0.296875 C 83.40625 0.597656 81.082031 0.75 78.78125 0.75 C 76.488281 0.75 74.46875 0.570312 72.71875 0.21875 C 70.96875 -0.125 69.492188 -0.742188 68.296875 -1.640625 C 67.097656 -2.546875 66.195312 -3.796875 65.59375 -5.390625 C 65 -6.984375 64.703125 -9.082031 64.703125 -11.6875 L 64.703125 -35.046875 L 35.953125 -35.046875 L 35.953125 -0.59375 C 34.847656 -0.300781 33.125 -0.00390625 30.78125 0.296875 C 28.4375 0.597656 26.113281 0.75 23.8125 0.75 C 21.519531 0.75 19.5 0.570312 17.75 0.21875 C 16 -0.125 14.523438 -0.742188 13.328125 -1.640625 C 12.128906 -2.546875 11.226562 -3.796875 10.625 -5.390625 C 10.03125 -6.984375 9.734375 -9.082031 9.734375 -11.6875 L 9.734375 -90.765625 C 10.835938 -90.960938 12.585938 -91.234375 14.984375 -91.578125 C 17.378906 -91.929688 19.675781 -92.109375 21.875 -92.109375 C 24.164062 -92.109375 26.1875 -91.929688 27.9375 -91.578125 C 29.6875 -91.234375 31.160156 -90.613281 32.359375 -89.71875 C 33.554688 -88.820312 34.453125 -87.570312 35.046875 -85.96875 C 35.648438 -84.375 35.953125 -82.28125 35.953125 -79.6875 L 35.953125 -55.71875 L 64.703125 -55.71875 L 64.703125 -90.765625 C 65.804688 -90.960938 67.554688 -91.234375 69.953125 -91.578125 C 72.347656 -91.929688 74.644531 -92.109375 76.84375 -92.109375 C 79.132812 -92.109375 81.15625 -91.929688 82.90625 -91.578125 C 84.65625 -91.234375 86.128906 -90.613281 87.328125 -89.71875 C 88.523438 -88.820312 89.421875 -87.570312 90.015625 -85.96875 C 90.617188 -84.375 90.921875 -82.28125 90.921875 -79.6875 Z M 90.921875 -0.59375 "/></g></g></g><g fill="#ff6300" fill-opacity="1"><g transform="translate(459.461583, 533.333246)"><g><path d="M 57.359375 -0.59375 C 56.265625 -0.300781 54.566406 -0.00390625 52.265625 0.296875 C 49.972656 0.597656 47.726562 0.75 45.53125 0.75 C 40.9375 0.75 37.488281 -0.0195312 35.1875 -1.5625 C 32.894531 -3.113281 31.75 -6.390625 31.75 -11.390625 L 31.75 -31.609375 C 29.257812 -35.296875 26.566406 -39.382812 23.671875 -43.875 C 20.773438 -48.375 17.925781 -52.96875 15.125 -57.65625 C 12.332031 -62.351562 9.738281 -66.972656 7.34375 -71.515625 C 4.945312 -76.054688 3 -80.226562 1.5 -84.03125 C 2.789062 -85.820312 4.5625 -87.46875 6.8125 -88.96875 C 9.0625 -90.46875 11.832031 -91.21875 15.125 -91.21875 C 19.019531 -91.21875 22.191406 -90.414062 24.640625 -88.8125 C 27.085938 -87.21875 29.410156 -84.222656 31.609375 -79.828125 L 44.03125 -54.8125 L 44.9375 -54.8125 C 46.332031 -57.914062 47.550781 -60.738281 48.59375 -63.28125 C 49.644531 -65.832031 50.671875 -68.378906 51.671875 -70.921875 C 52.671875 -73.460938 53.71875 -76.109375 54.8125 -78.859375 C 55.914062 -81.609375 57.164062 -84.78125 58.5625 -88.375 C 60.363281 -89.269531 62.359375 -89.96875 64.546875 -90.46875 C 66.742188 -90.96875 68.84375 -91.21875 70.84375 -91.21875 C 74.34375 -91.21875 77.3125 -90.289062 79.75 -88.4375 C 82.195312 -86.59375 83.421875 -83.828125 83.421875 -80.140625 C 83.421875 -78.929688 83.171875 -77.476562 82.671875 -75.78125 C 82.179688 -74.09375 81.035156 -71.523438 79.234375 -68.078125 C 77.429688 -64.628906 74.804688 -59.957031 71.359375 -54.0625 C 67.921875 -48.175781 63.253906 -40.488281 57.359375 -31 Z M 57.359375 -0.59375 "/></g></g></g><g fill="#ff6300" fill-opacity="1"><g transform="translate(545.43425, 533.333246)"><g><path d="M 5.25 -45.53125 C 5.25 -53.320312 6.46875 -60.210938 8.90625 -66.203125 C 11.351562 -72.191406 14.695312 -77.207031 18.9375 -81.25 C 23.1875 -85.300781 28.179688 -88.375 33.921875 -90.46875 C 39.660156 -92.5625 45.878906 -93.609375 52.578125 -93.609375 C 59.265625 -93.609375 65.476562 -92.5625 71.21875 -90.46875 C 76.957031 -88.375 81.972656 -85.300781 86.265625 -81.25 C 90.566406 -77.207031 93.9375 -72.191406 96.375 -66.203125 C 98.820312 -60.210938 100.046875 -53.320312 100.046875 -45.53125 C 100.046875 -37.738281 98.847656 -30.820312 96.453125 -24.78125 C 94.054688 -18.75 90.738281 -13.707031 86.5 -9.65625 C 82.257812 -5.613281 77.242188 -2.539062 71.453125 -0.4375 C 65.660156 1.65625 59.367188 2.703125 52.578125 2.703125 C 45.785156 2.703125 39.492188 1.628906 33.703125 -0.515625 C 27.910156 -2.671875 22.914062 -5.796875 18.71875 -9.890625 C 14.53125 -13.984375 11.238281 -19.023438 8.84375 -25.015625 C 6.445312 -31.003906 5.25 -37.84375 5.25 -45.53125 Z M 32.203125 -45.53125 C 32.203125 -36.445312 34.046875 -29.65625 37.734375 -25.15625 C 41.429688 -20.664062 46.378906 -18.421875 52.578125 -18.421875 C 58.867188 -18.421875 63.859375 -20.664062 67.546875 -25.15625 C 71.242188 -29.65625 73.09375 -36.445312 73.09375 -45.53125 C 73.09375 -54.519531 71.269531 -61.257812 67.625 -65.75 C 63.976562 -70.25 59.007812 -72.5 52.71875 -72.5 C 46.53125 -72.5 41.5625 -70.273438 37.8125 -65.828125 C 34.070312 -61.378906 32.203125 -54.613281 32.203125 -45.53125 Z M 32.203125 -45.53125 "/></g></g></g><g fill="#0a703f" fill-opacity="1"><g transform="translate(91.673202, 617.694158)"><g><path d="M 38.265625 0 L 33.28125 0 L 33.28125 -20.15625 L 10.828125 -20.15625 L 10.828125 0 L 5.84375 0 L 5.84375 -42.765625 L 10.828125 -42.765625 L 10.828125 -24.546875 L 33.28125 -24.546875 L 33.28125 -42.765625 L 38.265625 -42.765625 Z M 38.265625 0 "/></g></g><g transform="translate(135.84604, 617.694158)"><g><path d="M 17.109375 -32.578125 C 20.929688 -32.578125 23.769531 -31.71875 25.625 -30 C 27.476562 -28.289062 28.40625 -25.554688 28.40625 -21.796875 L 28.40625 0 L 24.859375 0 L 23.921875 -4.734375 L 23.6875 -4.734375 C 22.789062 -3.566406 21.851562 -2.585938 20.875 -1.796875 C 19.90625 -1.003906 18.78125 -0.410156 17.5 -0.015625 C 16.226562 0.378906 14.664062 0.578125 12.8125 0.578125 C 10.863281 0.578125 9.132812 0.238281 7.625 -0.4375 C 6.113281 -1.125 4.921875 -2.15625 4.046875 -3.53125 C 3.179688 -4.914062 2.75 -6.671875 2.75 -8.796875 C 2.75 -12.003906 4.015625 -14.460938 6.546875 -16.171875 C 9.085938 -17.890625 12.953125 -18.828125 18.140625 -18.984375 L 23.671875 -19.21875 L 23.671875 -21.171875 C 23.671875 -23.941406 23.070312 -25.882812 21.875 -27 C 20.6875 -28.113281 19.007812 -28.671875 16.84375 -28.671875 C 15.164062 -28.671875 13.566406 -28.425781 12.046875 -27.9375 C 10.523438 -27.445312 9.082031 -26.867188 7.71875 -26.203125 L 6.234375 -29.890625 C 7.671875 -30.628906 9.328125 -31.257812 11.203125 -31.78125 C 13.078125 -32.3125 15.046875 -32.578125 17.109375 -32.578125 Z M 23.609375 -15.796875 L 18.71875 -15.59375 C 14.71875 -15.4375 11.898438 -14.78125 10.265625 -13.625 C 8.628906 -12.476562 7.8125 -10.851562 7.8125 -8.75 C 7.8125 -6.914062 8.363281 -5.554688 9.46875 -4.671875 C 10.582031 -3.796875 12.054688 -3.359375 13.890625 -3.359375 C 16.742188 -3.359375 19.078125 -4.148438 20.890625 -5.734375 C 22.703125 -7.316406 23.609375 -9.6875 23.609375 -12.84375 Z M 23.609375 -15.796875 "/></g></g><g transform="translate(169.136563, 617.694158)"><g><path d="M 20.1875 -32.640625 C 24.1875 -32.640625 27.375 -31.265625 29.75 -28.515625 C 32.125 -25.765625 33.3125 -21.632812 33.3125 -16.125 C 33.3125 -12.46875 32.765625 -9.398438 31.671875 -6.921875 C 30.585938 -4.453125 29.054688 -2.582031 27.078125 -1.3125 C 25.097656 -0.0507812 22.757812 0.578125 20.0625 0.578125 C 18.363281 0.578125 16.867188 0.351562 15.578125 -0.09375 C 14.296875 -0.539062 13.195312 -1.144531 12.28125 -1.90625 C 11.363281 -2.664062 10.601562 -3.492188 10 -4.390625 L 9.65625 -4.390625 C 9.707031 -3.628906 9.773438 -2.710938 9.859375 -1.640625 C 9.953125 -0.566406 10 0.367188 10 1.171875 L 10 14.328125 L 5.125 14.328125 L 5.125 -32.0625 L 9.125 -32.0625 L 9.765625 -27.328125 L 10 -27.328125 C 10.625 -28.296875 11.382812 -29.179688 12.28125 -29.984375 C 13.175781 -30.796875 14.269531 -31.441406 15.5625 -31.921875 C 16.863281 -32.398438 18.40625 -32.640625 20.1875 -32.640625 Z M 19.328125 -28.546875 C 17.109375 -28.546875 15.320312 -28.113281 13.96875 -27.25 C 12.613281 -26.394531 11.625 -25.113281 11 -23.40625 C 10.375 -21.707031 10.039062 -19.570312 10 -17 L 10 -16.0625 C 10 -13.351562 10.296875 -11.0625 10.890625 -9.1875 C 11.484375 -7.3125 12.46875 -5.882812 13.84375 -4.90625 C 15.21875 -3.9375 17.066406 -3.453125 19.390625 -3.453125 C 21.378906 -3.453125 23.035156 -3.988281 24.359375 -5.0625 C 25.691406 -6.132812 26.679688 -7.628906 27.328125 -9.546875 C 27.984375 -11.472656 28.3125 -13.679688 28.3125 -16.171875 C 28.3125 -19.953125 27.570312 -22.957031 26.09375 -25.1875 C 24.625 -27.425781 22.367188 -28.546875 19.328125 -28.546875 Z M 19.328125 -28.546875 "/></g></g><g transform="translate(205.791243, 617.694158)"><g><path d="M 20.1875 -32.640625 C 24.1875 -32.640625 27.375 -31.265625 29.75 -28.515625 C 32.125 -25.765625 33.3125 -21.632812 33.3125 -16.125 C 33.3125 -12.46875 32.765625 -9.398438 31.671875 -6.921875 C 30.585938 -4.453125 29.054688 -2.582031 27.078125 -1.3125 C 25.097656 -0.0507812 22.757812 0.578125 20.0625 0.578125 C 18.363281 0.578125 16.867188 0.351562 15.578125 -0.09375 C 14.296875 -0.539062 13.195312 -1.144531 12.28125 -1.90625 C 11.363281 -2.664062 10.601562 -3.492188 10 -4.390625 L 9.65625 -4.390625 C 9.707031 -3.628906 9.773438 -2.710938 9.859375 -1.640625 C 9.953125 -0.566406 10 0.367188 10 1.171875 L 10 14.328125 L 5.125 14.328125 L 5.125 -32.0625 L 9.125 -32.0625 L 9.765625 -27.328125 L 10 -27.328125 C 10.625 -28.296875 11.382812 -29.179688 12.28125 -29.984375 C 13.175781 -30.796875 14.269531 -31.441406 15.5625 -31.921875 C 16.863281 -32.398438 18.40625 -32.640625 20.1875 -32.640625 Z M 19.328125 -28.546875 C 17.109375 -28.546875 15.320312 -28.113281 13.96875 -27.25 C 12.613281 -26.394531 11.625 -25.113281 11 -23.40625 C 10.375 -21.707031 10.039062 -19.570312 10 -17 L 10 -16.0625 C 10 -13.351562 10.296875 -11.0625 10.890625 -9.1875 C 11.484375 -7.3125 12.46875 -5.882812 13.84375 -4.90625 C 15.21875 -3.9375 17.066406 -3.453125 19.390625 -3.453125 C 21.378906 -3.453125 23.035156 -3.988281 24.359375 -5.0625 C 25.691406 -6.132812 26.679688 -7.628906 27.328125 -9.546875 C 27.984375 -11.472656 28.3125 -13.679688 28.3125 -16.171875 C 28.3125 -19.953125 27.570312 -22.957031 26.09375 -25.1875 C 24.625 -27.425781 22.367188 -28.546875 19.328125 -28.546875 Z M 19.328125 -28.546875 "/></g></g><g transform="translate(242.445923, 617.694158)"><g><path d="M 0.0625 -32.0625 L 5.265625 -32.0625 L 12.34375 -13.453125 C 12.75 -12.359375 13.128906 -11.304688 13.484375 -10.296875 C 13.835938 -9.296875 14.148438 -8.335938 14.421875 -7.421875 C 14.691406 -6.515625 14.90625 -5.628906 15.0625 -4.765625 L 15.265625 -4.765625 C 15.535156 -5.742188 15.925781 -7.023438 16.4375 -8.609375 C 16.945312 -10.203125 17.492188 -11.828125 18.078125 -13.484375 L 24.78125 -32.0625 L 30.015625 -32.0625 L 16.0625 4.703125 C 15.320312 6.671875 14.457031 8.382812 13.46875 9.84375 C 12.488281 11.3125 11.296875 12.441406 9.890625 13.234375 C 8.484375 14.023438 6.785156 14.421875 4.796875 14.421875 C 3.878906 14.421875 3.066406 14.363281 2.359375 14.25 C 1.660156 14.144531 1.0625 14.023438 0.5625 13.890625 L 0.5625 10 C 0.988281 10.101562 1.507812 10.191406 2.125 10.265625 C 2.738281 10.347656 3.375 10.390625 4.03125 10.390625 C 5.238281 10.390625 6.285156 10.160156 7.171875 9.703125 C 8.066406 9.242188 8.832031 8.570312 9.46875 7.6875 C 10.113281 6.8125 10.671875 5.769531 11.140625 4.5625 L 12.90625 0.0625 Z M 0.0625 -32.0625 "/></g></g><g transform="translate(272.46005, 617.694158)"><g/></g><g transform="translate(288.022931, 617.694158)"><g><path d="M 38.265625 0 L 33.28125 0 L 33.28125 -20.15625 L 10.828125 -20.15625 L 10.828125 0 L 5.84375 0 L 5.84375 -42.765625 L 10.828125 -42.765625 L 10.828125 -24.546875 L 33.28125 -24.546875 L 33.28125 -42.765625 L 38.265625 -42.765625 Z M 38.265625 0 "/></g></g><g transform="translate(332.19577, 617.694158)"><g><path d="M 17.46875 -32.640625 C 20.195312 -32.640625 22.535156 -32.035156 24.484375 -30.828125 C 26.429688 -29.617188 27.921875 -27.925781 28.953125 -25.75 C 29.992188 -23.582031 30.515625 -21.046875 30.515625 -18.140625 L 30.515625 -15.125 L 8.359375 -15.125 C 8.421875 -11.363281 9.359375 -8.492188 11.171875 -6.515625 C 12.984375 -4.546875 15.539062 -3.5625 18.84375 -3.5625 C 20.863281 -3.5625 22.65625 -3.75 24.21875 -4.125 C 25.78125 -4.5 27.398438 -5.046875 29.078125 -5.765625 L 29.078125 -1.484375 C 27.453125 -0.765625 25.84375 -0.242188 24.25 0.078125 C 22.664062 0.410156 20.796875 0.578125 18.640625 0.578125 C 15.554688 0.578125 12.867188 -0.046875 10.578125 -1.296875 C 8.285156 -2.554688 6.503906 -4.40625 5.234375 -6.84375 C 3.960938 -9.28125 3.328125 -12.265625 3.328125 -15.796875 C 3.328125 -19.242188 3.90625 -22.226562 5.0625 -24.75 C 6.226562 -27.28125 7.867188 -29.226562 9.984375 -30.59375 C 12.097656 -31.957031 14.59375 -32.640625 17.46875 -32.640625 Z M 17.40625 -28.671875 C 14.8125 -28.671875 12.742188 -27.820312 11.203125 -26.125 C 9.660156 -24.425781 8.742188 -22.054688 8.453125 -19.015625 L 25.421875 -19.015625 C 25.398438 -20.921875 25.101562 -22.597656 24.53125 -24.046875 C 23.957031 -25.503906 23.082031 -26.640625 21.90625 -27.453125 C 20.738281 -28.265625 19.238281 -28.671875 17.40625 -28.671875 Z M 17.40625 -28.671875 "/></g></g><g transform="translate(365.837335, 617.694158)"><g><path d="M 17.109375 -32.578125 C 20.929688 -32.578125 23.769531 -31.71875 25.625 -30 C 27.476562 -28.289062 28.40625 -25.554688 28.40625 -21.796875 L 28.40625 0 L 24.859375 0 L 23.921875 -4.734375 L 23.6875 -4.734375 C 22.789062 -3.566406 21.851562 -2.585938 20.875 -1.796875 C 19.90625 -1.003906 18.78125 -0.410156 17.5 -0.015625 C 16.226562 0.378906 14.664062 0.578125 12.8125 0.578125 C 10.863281 0.578125 9.132812 0.238281 7.625 -0.4375 C 6.113281 -1.125 4.921875 -2.15625 4.046875 -3.53125 C 3.179688 -4.914062 2.75 -6.671875 2.75 -8.796875 C 2.75 -12.003906 4.015625 -14.460938 6.546875 -16.171875 C 9.085938 -17.890625 12.953125 -18.828125 18.140625 -18.984375 L 23.671875 -19.21875 L 23.671875 -21.171875 C 23.671875 -23.941406 23.070312 -25.882812 21.875 -27 C 20.6875 -28.113281 19.007812 -28.671875 16.84375 -28.671875 C 15.164062 -28.671875 13.566406 -28.425781 12.046875 -27.9375 C 10.523438 -27.445312 9.082031 -26.867188 7.71875 -26.203125 L 6.234375 -29.890625 C 7.671875 -30.628906 9.328125 -31.257812 11.203125 -31.78125 C 13.078125 -32.3125 15.046875 -32.578125 17.109375 -32.578125 Z M 23.609375 -15.796875 L 18.71875 -15.59375 C 14.71875 -15.4375 11.898438 -14.78125 10.265625 -13.625 C 8.628906 -12.476562 7.8125 -10.851562 7.8125 -8.75 C 7.8125 -6.914062 8.363281 -5.554688 9.46875 -4.671875 C 10.582031 -3.796875 12.054688 -3.359375 13.890625 -3.359375 C 16.742188 -3.359375 19.078125 -4.148438 20.890625 -5.734375 C 22.703125 -7.316406 23.609375 -9.6875 23.609375 -12.84375 Z M 23.609375 -15.796875 "/></g></g><g transform="translate(399.127858, 617.694158)"><g><path d="M 10 0 L 5.125 0 L 5.125 -45.515625 L 10 -45.515625 Z M 10 0 "/></g></g><g transform="translate(414.251936, 617.694158)"><g><path d="M 15.46875 -3.390625 C 16.269531 -3.390625 17.085938 -3.457031 17.921875 -3.59375 C 18.765625 -3.726562 19.453125 -3.894531 19.984375 -4.09375 L 19.984375 -0.328125 C 19.410156 -0.0664062 18.625 0.144531 17.625 0.3125 C 16.625 0.488281 15.644531 0.578125 14.6875 0.578125 C 12.988281 0.578125 11.445312 0.28125 10.0625 -0.3125 C 8.675781 -0.90625 7.566406 -1.910156 6.734375 -3.328125 C 5.910156 -4.753906 5.5 -6.726562 5.5 -9.25 L 5.5 -28.25 L 0.9375 -28.25 L 0.9375 -30.625 L 5.53125 -32.53125 L 7.453125 -39.484375 L 10.390625 -39.484375 L 10.390625 -32.0625 L 19.78125 -32.0625 L 19.78125 -28.25 L 10.390625 -28.25 L 10.390625 -9.390625 C 10.390625 -7.378906 10.847656 -5.875 11.765625 -4.875 C 12.691406 -3.882812 13.925781 -3.390625 15.46875 -3.390625 Z M 15.46875 -3.390625 "/></g></g><g transform="translate(435.607017, 617.694158)"><g><path d="M 9.96875 -45.515625 L 9.96875 -31.90625 C 9.96875 -31.132812 9.945312 -30.351562 9.90625 -29.5625 C 9.875 -28.769531 9.8125 -28.039062 9.71875 -27.375 L 10.03125 -27.375 C 10.695312 -28.507812 11.539062 -29.460938 12.5625 -30.234375 C 13.582031 -31.003906 14.742188 -31.585938 16.046875 -31.984375 C 17.359375 -32.378906 18.75 -32.578125 20.21875 -32.578125 C 22.789062 -32.578125 24.9375 -32.164062 26.65625 -31.34375 C 28.382812 -30.53125 29.679688 -29.265625 30.546875 -27.546875 C 31.421875 -25.835938 31.859375 -23.617188 31.859375 -20.890625 L 31.859375 0 L 27.0625 0 L 27.0625 -20.5625 C 27.0625 -23.238281 26.453125 -25.238281 25.234375 -26.5625 C 24.015625 -27.882812 22.144531 -28.546875 19.625 -28.546875 C 17.25 -28.546875 15.351562 -28.09375 13.9375 -27.1875 C 12.519531 -26.28125 11.503906 -24.945312 10.890625 -23.1875 C 10.273438 -21.4375 9.96875 -19.296875 9.96875 -16.765625 L 9.96875 0 L 5.125 0 L 5.125 -45.515625 Z M 9.96875 -45.515625 "/></g></g><g transform="translate(472.349457, 617.694158)"><g><path d="M 0.0625 -32.0625 L 5.265625 -32.0625 L 12.34375 -13.453125 C 12.75 -12.359375 13.128906 -11.304688 13.484375 -10.296875 C 13.835938 -9.296875 14.148438 -8.335938 14.421875 -7.421875 C 14.691406 -6.515625 14.90625 -5.628906 15.0625 -4.765625 L 15.265625 -4.765625 C 15.535156 -5.742188 15.925781 -7.023438 16.4375 -8.609375 C 16.945312 -10.203125 17.492188 -11.828125 18.078125 -13.484375 L 24.78125 -32.0625 L 30.015625 -32.0625 L 16.0625 4.703125 C 15.320312 6.671875 14.457031 8.382812 13.46875 9.84375 C 12.488281 11.3125 11.296875 12.441406 9.890625 13.234375 C 8.484375 14.023438 6.785156 14.421875 4.796875 14.421875 C 3.878906 14.421875 3.066406 14.363281 2.359375 14.25 C 1.660156 14.144531 1.0625 14.023438 0.5625 13.890625 L 0.5625 10 C 0.988281 10.101562 1.507812 10.191406 2.125 10.265625 C 2.738281 10.347656 3.375 10.390625 4.03125 10.390625 C 5.238281 10.390625 6.285156 10.160156 7.171875 9.703125 C 8.066406 9.242188 8.832031 8.570312 9.46875 7.6875 C 10.113281 6.8125 10.671875 5.769531 11.140625 4.5625 L 12.90625 0.0625 Z M 0.0625 -32.0625 "/></g></g><g transform="translate(502.363584, 617.694158)"><g/></g><g transform="translate(517.926465, 617.694158)"><g><path d="M 16.765625 -21.328125 L 28.140625 -42.765625 L 33.5 -42.765625 L 19.25 -16.578125 L 19.25 0 L 14.28125 0 L 14.28125 -16.34375 L 0 -42.765625 L 5.4375 -42.765625 Z M 16.765625 -21.328125 "/></g></g><g transform="translate(551.421763, 617.694158)"><g><path d="M 32.765625 -16.09375 C 32.765625 -13.457031 32.421875 -11.101562 31.734375 -9.03125 C 31.054688 -6.96875 30.070312 -5.222656 28.78125 -3.796875 C 27.5 -2.378906 25.941406 -1.296875 24.109375 -0.546875 C 22.285156 0.203125 20.226562 0.578125 17.9375 0.578125 C 15.789062 0.578125 13.820312 0.203125 12.03125 -0.546875 C 10.25 -1.296875 8.707031 -2.378906 7.40625 -3.796875 C 6.113281 -5.222656 5.109375 -6.96875 4.390625 -9.03125 C 3.679688 -11.101562 3.328125 -13.457031 3.328125 -16.09375 C 3.328125 -19.601562 3.921875 -22.585938 5.109375 -25.046875 C 6.304688 -27.515625 8.007812 -29.394531 10.21875 -30.6875 C 12.4375 -31.988281 15.078125 -32.640625 18.140625 -32.640625 C 21.054688 -32.640625 23.613281 -31.984375 25.8125 -30.671875 C 28.007812 -29.367188 29.71875 -27.484375 30.9375 -25.015625 C 32.15625 -22.554688 32.765625 -19.582031 32.765625 -16.09375 Z M 8.359375 -16.09375 C 8.359375 -13.519531 8.695312 -11.285156 9.375 -9.390625 C 10.0625 -7.492188 11.117188 -6.03125 12.546875 -5 C 13.972656 -3.96875 15.804688 -3.453125 18.046875 -3.453125 C 20.265625 -3.453125 22.09375 -3.96875 23.53125 -5 C 24.96875 -6.03125 26.023438 -7.492188 26.703125 -9.390625 C 27.390625 -11.285156 27.734375 -13.519531 27.734375 -16.09375 C 27.734375 -18.644531 27.390625 -20.847656 26.703125 -22.703125 C 26.023438 -24.566406 24.972656 -26.003906 23.546875 -27.015625 C 22.117188 -28.035156 20.273438 -28.546875 18.015625 -28.546875 C 14.679688 -28.546875 12.238281 -27.441406 10.6875 -25.234375 C 9.132812 -23.035156 8.359375 -19.988281 8.359375 -16.09375 Z M 8.359375 -16.09375 "/></g></g><g transform="translate(587.462119, 617.694158)"><g><path d="M 31.59375 -32.0625 L 31.59375 0 L 27.609375 0 L 26.90625 -4.5 L 26.640625 -4.5 C 25.984375 -3.394531 25.128906 -2.460938 24.078125 -1.703125 C 23.023438 -0.941406 21.835938 -0.375 20.515625 0 C 19.203125 0.382812 17.804688 0.578125 16.328125 0.578125 C 13.785156 0.578125 11.65625 0.171875 9.9375 -0.640625 C 8.226562 -1.460938 6.9375 -2.726562 6.0625 -4.4375 C 5.195312 -6.15625 4.765625 -8.363281 4.765625 -11.0625 L 4.765625 -32.0625 L 9.6875 -32.0625 L 9.6875 -11.40625 C 9.6875 -8.738281 10.289062 -6.742188 11.5 -5.421875 C 12.707031 -4.109375 14.550781 -3.453125 17.03125 -3.453125 C 19.40625 -3.453125 21.296875 -3.898438 22.703125 -4.796875 C 24.117188 -5.691406 25.140625 -7.007812 25.765625 -8.75 C 26.390625 -10.5 26.703125 -12.644531 26.703125 -15.1875 L 26.703125 -32.0625 Z M 31.59375 -32.0625 "/></g></g><g transform="translate(624.204559, 617.694158)"><g><path d="M 9.5 -11.875 L 6.3125 -11.875 L 4.96875 -42.765625 L 10.859375 -42.765625 Z M 4.390625 -3.046875 C 4.390625 -4.410156 4.71875 -5.378906 5.375 -5.953125 C 6.039062 -6.523438 6.875 -6.8125 7.875 -6.8125 C 8.84375 -6.8125 9.660156 -6.523438 10.328125 -5.953125 C 11.003906 -5.378906 11.34375 -4.410156 11.34375 -3.046875 C 11.34375 -1.703125 11.003906 -0.722656 10.328125 -0.109375 C 9.660156 0.503906 8.84375 0.8125 7.875 0.8125 C 6.875 0.8125 6.039062 0.503906 5.375 -0.109375 C 4.71875 -0.722656 4.390625 -1.703125 4.390625 -3.046875 Z M 4.390625 -3.046875 "/></g></g></g></svg>