<svg xmlns="http://www.w3.org/2000/svg" xmlns:xlink="http://www.w3.org/1999/xlink" width="980" zoomAndPan="magnify" viewBox="0 0 735 319.499995" height="426" preserveAspectRatio="xMidYMid meet" version="1.0"><defs><g/><clipPath id="025b86835b"><path d="M 0.574219 0 L 734.425781 0 L 734.425781 319 L 0.574219 319 Z M 0.574219 0 " clip-rule="nonzero"/></clipPath></defs><g clip-path="url(#025b86835b)"><path fill="#ffffff" d="M 0.574219 0 L 734.425781 0 L 734.425781 319 L 0.574219 319 Z M 0.574219 0 " fill-opacity="1" fill-rule="nonzero"/></g><g fill="#ff4500" fill-opacity="1"><g transform="translate(63.9204, 186.757724)"><g><path d="M 90.90625 -0.59375 C 89.8125 -0.300781 88.085938 -0.00390625 85.734375 0.296875 C 83.390625 0.597656 81.070312 0.75 78.78125 0.75 C 76.476562 0.75 74.453125 0.570312 72.703125 0.21875 C 70.960938 -0.121094 69.492188 -0.742188 68.296875 -1.640625 C 67.097656 -2.546875 66.195312 -3.796875 65.59375 -5.390625 C 65 -6.984375 64.703125 -9.082031 64.703125 -11.6875 L 64.703125 -35.046875 L 35.9375 -35.046875 L 35.9375 -0.59375 C 34.84375 -0.300781 33.117188 -0.00390625 30.765625 0.296875 C 28.421875 0.597656 26.101562 0.75 23.8125 0.75 C 21.519531 0.75 19.5 0.570312 17.75 0.21875 C 16 -0.121094 14.523438 -0.742188 13.328125 -1.640625 C 12.128906 -2.546875 11.226562 -3.796875 10.625 -5.390625 C 10.03125 -6.984375 9.734375 -9.082031 9.734375 -11.6875 L 9.734375 -90.765625 C 10.828125 -90.960938 12.570312 -91.234375 14.96875 -91.578125 C 17.375 -91.929688 19.671875 -92.109375 21.859375 -92.109375 C 24.160156 -92.109375 26.179688 -91.929688 27.921875 -91.578125 C 29.671875 -91.234375 31.144531 -90.609375 32.34375 -89.703125 C 33.539062 -88.804688 34.4375 -87.554688 35.03125 -85.953125 C 35.632812 -84.359375 35.9375 -82.265625 35.9375 -79.671875 L 35.9375 -55.71875 L 64.703125 -55.71875 L 64.703125 -90.765625 C 65.796875 -90.960938 67.539062 -91.234375 69.9375 -91.578125 C 72.332031 -91.929688 74.628906 -92.109375 76.828125 -92.109375 C 79.128906 -92.109375 81.148438 -91.929688 82.890625 -91.578125 C 84.640625 -91.234375 86.113281 -90.609375 87.3125 -89.703125 C 88.507812 -88.804688 89.40625 -87.554688 90 -85.953125 C 90.601562 -84.359375 90.90625 -82.265625 90.90625 -79.671875 Z M 90.90625 -0.59375 "/></g></g></g><g fill="#ff4500" fill-opacity="1"><g transform="translate(172.051205, 186.757724)"><g><path d="M 29.046875 -88.0625 C 30.742188 -89.0625 33.316406 -90.007812 36.765625 -90.90625 C 40.210938 -91.800781 43.679688 -92.25 47.171875 -92.25 C 52.171875 -92.25 56.59375 -91.523438 60.4375 -90.078125 C 64.28125 -88.628906 66.75 -86.359375 67.84375 -83.265625 C 69.644531 -78.078125 71.59375 -72.035156 73.6875 -65.140625 C 75.78125 -58.253906 77.875 -51.140625 79.96875 -43.796875 C 82.070312 -36.460938 84.117188 -29.222656 86.109375 -22.078125 C 88.109375 -14.941406 89.859375 -8.628906 91.359375 -3.140625 C 90.160156 -1.742188 88.363281 -0.625 85.96875 0.21875 C 83.570312 1.070312 80.722656 1.5 77.421875 1.5 C 75.023438 1.5 73.003906 1.296875 71.359375 0.890625 C 69.710938 0.492188 68.363281 -0.0976562 67.3125 -0.890625 C 66.269531 -1.691406 65.421875 -2.738281 64.765625 -4.03125 C 64.117188 -5.332031 63.546875 -6.832031 63.046875 -8.53125 L 60.359375 -18.875 L 33.25 -18.875 C 32.445312 -15.875 31.644531 -12.773438 30.84375 -9.578125 C 30.050781 -6.390625 29.253906 -3.296875 28.453125 -0.296875 C 27.054688 0.199219 25.582031 0.625 24.03125 0.96875 C 22.488281 1.320312 20.617188 1.5 18.421875 1.5 C 13.328125 1.5 9.554688 0.621094 7.109375 -1.125 C 4.660156 -2.875 3.4375 -5.296875 3.4375 -8.390625 C 3.4375 -9.785156 3.632812 -11.179688 4.03125 -12.578125 C 4.4375 -13.972656 4.890625 -15.617188 5.390625 -17.515625 C 6.085938 -20.210938 7.0625 -23.554688 8.3125 -27.546875 C 9.5625 -31.546875 10.929688 -35.863281 12.421875 -40.5 C 13.921875 -45.144531 15.519531 -49.914062 17.21875 -54.8125 C 18.914062 -59.707031 20.515625 -64.328125 22.015625 -68.671875 C 23.515625 -73.015625 24.882812 -76.878906 26.125 -80.265625 C 27.375 -83.660156 28.347656 -86.257812 29.046875 -88.0625 Z M 47.03125 -68.75 C 45.632812 -64.550781 44.0625 -59.878906 42.3125 -54.734375 C 40.5625 -49.597656 38.988281 -44.382812 37.59375 -39.09375 L 56.15625 -39.09375 C 54.757812 -44.476562 53.335938 -49.742188 51.890625 -54.890625 C 50.441406 -60.035156 49.117188 -64.65625 47.921875 -68.75 Z M 47.03125 -68.75 "/></g></g></g><g fill="#ff4500" fill-opacity="1"><g transform="translate(273.442534, 186.757724)"><g><path d="M 5.546875 -69.796875 C 4.847656 -70.890625 4.195312 -72.382812 3.59375 -74.28125 C 3 -76.175781 2.703125 -78.175781 2.703125 -80.28125 C 2.703125 -84.164062 3.570312 -86.957031 5.3125 -88.65625 C 7.0625 -90.351562 9.332031 -91.203125 12.125 -91.203125 L 77.421875 -91.203125 C 78.128906 -90.109375 78.78125 -88.613281 79.375 -86.71875 C 79.976562 -84.820312 80.28125 -82.820312 80.28125 -80.71875 C 80.28125 -76.832031 79.40625 -74.039062 77.65625 -72.34375 C 75.90625 -70.644531 73.632812 -69.796875 70.84375 -69.796875 L 54.21875 -69.796875 L 54.21875 -0.59375 C 53.113281 -0.300781 51.390625 -0.00390625 49.046875 0.296875 C 46.703125 0.597656 44.378906 0.75 42.078125 0.75 C 39.785156 0.75 37.765625 0.570312 36.015625 0.21875 C 34.265625 -0.121094 32.789062 -0.742188 31.59375 -1.640625 C 30.394531 -2.546875 29.492188 -3.796875 28.890625 -5.390625 C 28.296875 -6.984375 28 -9.082031 28 -11.6875 L 28 -69.796875 Z M 5.546875 -69.796875 "/></g></g></g><g fill="#ff4500" fill-opacity="1"><g transform="translate(364.20053, 186.757724)"><g><path d="M 90.90625 -0.59375 C 89.8125 -0.300781 88.085938 -0.00390625 85.734375 0.296875 C 83.390625 0.597656 81.070312 0.75 78.78125 0.75 C 76.476562 0.75 74.453125 0.570312 72.703125 0.21875 C 70.960938 -0.121094 69.492188 -0.742188 68.296875 -1.640625 C 67.097656 -2.546875 66.195312 -3.796875 65.59375 -5.390625 C 65 -6.984375 64.703125 -9.082031 64.703125 -11.6875 L 64.703125 -35.046875 L 35.9375 -35.046875 L 35.9375 -0.59375 C 34.84375 -0.300781 33.117188 -0.00390625 30.765625 0.296875 C 28.421875 0.597656 26.101562 0.75 23.8125 0.75 C 21.519531 0.75 19.5 0.570312 17.75 0.21875 C 16 -0.121094 14.523438 -0.742188 13.328125 -1.640625 C 12.128906 -2.546875 11.226562 -3.796875 10.625 -5.390625 C 10.03125 -6.984375 9.734375 -9.082031 9.734375 -11.6875 L 9.734375 -90.765625 C 10.828125 -90.960938 12.570312 -91.234375 14.96875 -91.578125 C 17.375 -91.929688 19.671875 -92.109375 21.859375 -92.109375 C 24.160156 -92.109375 26.179688 -91.929688 27.921875 -91.578125 C 29.671875 -91.234375 31.144531 -90.609375 32.34375 -89.703125 C 33.539062 -88.804688 34.4375 -87.554688 35.03125 -85.953125 C 35.632812 -84.359375 35.9375 -82.265625 35.9375 -79.671875 L 35.9375 -55.71875 L 64.703125 -55.71875 L 64.703125 -90.765625 C 65.796875 -90.960938 67.539062 -91.234375 69.9375 -91.578125 C 72.332031 -91.929688 74.628906 -92.109375 76.828125 -92.109375 C 79.128906 -92.109375 81.148438 -91.929688 82.890625 -91.578125 C 84.640625 -91.234375 86.113281 -90.609375 87.3125 -89.703125 C 88.507812 -88.804688 89.40625 -87.554688 90 -85.953125 C 90.601562 -84.359375 90.90625 -82.265625 90.90625 -79.671875 Z M 90.90625 -0.59375 "/></g></g></g><g fill="#ff4500" fill-opacity="1"><g transform="translate(472.331347, 186.757724)"><g><path d="M 57.359375 -0.59375 C 56.265625 -0.300781 54.566406 -0.00390625 52.265625 0.296875 C 49.972656 0.597656 47.726562 0.75 45.53125 0.75 C 40.9375 0.75 37.488281 -0.0195312 35.1875 -1.5625 C 32.894531 -3.113281 31.75 -6.382812 31.75 -11.375 L 31.75 -31.59375 C 29.25 -35.289062 26.550781 -39.382812 23.65625 -43.875 C 20.757812 -48.375 17.914062 -52.96875 15.125 -57.65625 C 12.332031 -62.351562 9.738281 -66.972656 7.34375 -71.515625 C 4.945312 -76.054688 3 -80.222656 1.5 -84.015625 C 2.789062 -85.816406 4.5625 -87.460938 6.8125 -88.953125 C 9.0625 -90.453125 11.832031 -91.203125 15.125 -91.203125 C 19.019531 -91.203125 22.191406 -90.40625 24.640625 -88.8125 C 27.085938 -87.21875 29.40625 -84.222656 31.59375 -79.828125 L 44.03125 -54.8125 L 44.9375 -54.8125 C 46.332031 -57.90625 47.550781 -60.722656 48.59375 -63.265625 C 49.644531 -65.816406 50.671875 -68.363281 51.671875 -70.90625 C 52.671875 -73.457031 53.71875 -76.101562 54.8125 -78.84375 C 55.914062 -81.59375 57.164062 -84.765625 58.5625 -88.359375 C 60.351562 -89.253906 62.347656 -89.953125 64.546875 -90.453125 C 66.742188 -90.953125 68.84375 -91.203125 70.84375 -91.203125 C 74.332031 -91.203125 77.300781 -90.28125 79.75 -88.4375 C 82.195312 -86.59375 83.421875 -83.820312 83.421875 -80.125 C 83.421875 -78.925781 83.171875 -77.476562 82.671875 -75.78125 C 82.171875 -74.082031 81.019531 -71.507812 79.21875 -68.0625 C 77.425781 -64.625 74.804688 -59.957031 71.359375 -54.0625 C 67.921875 -48.175781 63.253906 -40.488281 57.359375 -31 Z M 57.359375 -0.59375 "/></g></g></g><g fill="#ff4500" fill-opacity="1"><g transform="translate(565.785128, 186.757724)"><g><path d="M 5.234375 -45.53125 C 5.234375 -53.3125 6.457031 -60.195312 8.90625 -66.1875 C 11.351562 -72.1875 14.695312 -77.207031 18.9375 -81.25 C 23.1875 -85.289062 28.179688 -88.359375 33.921875 -90.453125 C 39.660156 -92.554688 45.875 -93.609375 52.5625 -93.609375 C 59.257812 -93.609375 65.476562 -92.554688 71.21875 -90.453125 C 76.957031 -88.359375 81.972656 -85.289062 86.265625 -81.25 C 90.554688 -77.207031 93.925781 -72.1875 96.375 -66.1875 C 98.820312 -60.195312 100.046875 -53.3125 100.046875 -45.53125 C 100.046875 -37.738281 98.847656 -30.820312 96.453125 -24.78125 C 94.054688 -18.738281 90.734375 -13.695312 86.484375 -9.65625 C 82.242188 -5.613281 77.226562 -2.539062 71.4375 -0.4375 C 65.644531 1.652344 59.351562 2.703125 52.5625 2.703125 C 45.78125 2.703125 39.492188 1.628906 33.703125 -0.515625 C 27.910156 -2.671875 22.914062 -5.796875 18.71875 -9.890625 C 14.53125 -13.984375 11.234375 -19.023438 8.828125 -25.015625 C 6.429688 -31.003906 5.234375 -37.84375 5.234375 -45.53125 Z M 32.203125 -45.53125 C 32.203125 -36.445312 34.046875 -29.65625 37.734375 -25.15625 C 41.429688 -20.664062 46.375 -18.421875 52.5625 -18.421875 C 58.851562 -18.421875 63.84375 -20.664062 67.53125 -25.15625 C 71.226562 -29.65625 73.078125 -36.445312 73.078125 -45.53125 C 73.078125 -54.507812 71.253906 -61.242188 67.609375 -65.734375 C 63.972656 -70.234375 59.007812 -72.484375 52.71875 -72.484375 C 46.53125 -72.484375 41.5625 -70.257812 37.8125 -65.8125 C 34.070312 -61.375 32.203125 -54.613281 32.203125 -45.53125 Z M 32.203125 -45.53125 "/></g></g></g><g fill="#006636" fill-opacity="1"><g transform="translate(68.840434, 256.145025)"><g><path d="M 27.375 -32.78125 L 15.609375 0 L 11.765625 0 L 0 -32.78125 L 3.984375 -32.78125 L 11.65625 -11.1875 C 11.96875 -10.320312 12.25 -9.492188 12.5 -8.703125 C 12.75 -7.910156 12.96875 -7.144531 13.15625 -6.40625 C 13.351562 -5.675781 13.523438 -4.96875 13.671875 -4.28125 C 13.828125 -4.96875 14 -5.679688 14.1875 -6.421875 C 14.382812 -7.160156 14.609375 -7.929688 14.859375 -8.734375 C 15.117188 -9.535156 15.40625 -10.375 15.71875 -11.25 L 23.34375 -32.78125 Z M 27.375 -32.78125 "/></g></g></g><g fill="#006636" fill-opacity="1"><g transform="translate(96.220066, 256.145025)"><g><path d="M 29.28125 -32.78125 L 29.28125 -11.5625 C 29.28125 -9.25 28.8125 -7.1875 27.875 -5.375 C 26.945312 -3.570312 25.539062 -2.148438 23.65625 -1.109375 C 21.769531 -0.0664062 19.410156 0.453125 16.578125 0.453125 C 12.523438 0.453125 9.4375 -0.644531 7.3125 -2.84375 C 5.195312 -5.039062 4.140625 -7.976562 4.140625 -11.65625 L 4.140625 -32.78125 L 7.984375 -32.78125 L 7.984375 -11.546875 C 7.984375 -8.765625 8.71875 -6.617188 10.1875 -5.109375 C 11.664062 -3.597656 13.867188 -2.84375 16.796875 -2.84375 C 18.796875 -2.84375 20.4375 -3.203125 21.71875 -3.921875 C 23 -4.648438 23.945312 -5.671875 24.5625 -6.984375 C 25.1875 -8.296875 25.5 -9.8125 25.5 -11.53125 L 25.5 -32.78125 Z M 29.28125 -32.78125 "/></g></g></g><g fill="#006636" fill-opacity="1"><g transform="translate(129.699009, 256.145025)"><g><path d="M 4.484375 0 L 4.484375 -32.78125 L 8.296875 -32.78125 L 8.296875 0 Z M 4.484375 0 "/></g></g></g><g fill="#006636" fill-opacity="1"><g transform="translate(142.525501, 256.145025)"><g/></g></g><g fill="#006636" fill-opacity="1"><g transform="translate(154.455036, 256.145025)"><g><path d="M 28.125 0 L 23.609375 0 L 11.796875 -15.9375 L 8.296875 -12.796875 L 8.296875 0 L 4.484375 0 L 4.484375 -32.78125 L 8.296875 -32.78125 L 8.296875 -16.4375 C 9.148438 -17.40625 10.023438 -18.367188 10.921875 -19.328125 C 11.816406 -20.296875 12.707031 -21.273438 13.59375 -22.265625 L 23.15625 -32.78125 L 27.625 -32.78125 L 14.578125 -18.5625 Z M 28.125 0 "/></g></g></g><g fill="#006636" fill-opacity="1"><g transform="translate(182.574652, 256.145025)"><g><path d="M 29.328125 0 L 25.515625 0 L 25.515625 -15.453125 L 8.296875 -15.453125 L 8.296875 0 L 4.484375 0 L 4.484375 -32.78125 L 8.296875 -32.78125 L 8.296875 -18.8125 L 25.515625 -18.8125 L 25.515625 -32.78125 L 29.328125 -32.78125 Z M 29.328125 0 "/></g></g></g><g fill="#006636" fill-opacity="1"><g transform="translate(216.434796, 256.145025)"><g><path d="M 32.921875 -16.4375 C 32.921875 -13.90625 32.597656 -11.601562 31.953125 -9.53125 C 31.304688 -7.46875 30.351562 -5.691406 29.09375 -4.203125 C 27.832031 -2.710938 26.265625 -1.5625 24.390625 -0.75 C 22.523438 0.0507812 20.359375 0.453125 17.890625 0.453125 C 15.347656 0.453125 13.128906 0.0507812 11.234375 -0.75 C 9.347656 -1.5625 7.78125 -2.710938 6.53125 -4.203125 C 5.28125 -5.703125 4.34375 -7.488281 3.71875 -9.5625 C 3.101562 -11.644531 2.796875 -13.953125 2.796875 -16.484375 C 2.796875 -19.828125 3.347656 -22.757812 4.453125 -25.28125 C 5.566406 -27.8125 7.25 -29.78125 9.5 -31.1875 C 11.75 -32.59375 14.566406 -33.296875 17.953125 -33.296875 C 21.203125 -33.296875 23.9375 -32.597656 26.15625 -31.203125 C 28.375 -29.816406 30.054688 -27.863281 31.203125 -25.34375 C 32.347656 -22.832031 32.921875 -19.863281 32.921875 -16.4375 Z M 6.8125 -16.4375 C 6.8125 -13.65625 7.207031 -11.25 8 -9.21875 C 8.789062 -7.1875 10.003906 -5.613281 11.640625 -4.5 C 13.285156 -3.394531 15.367188 -2.84375 17.890625 -2.84375 C 20.429688 -2.84375 22.515625 -3.394531 24.140625 -4.5 C 25.765625 -5.613281 26.960938 -7.1875 27.734375 -9.21875 C 28.515625 -11.25 28.90625 -13.65625 28.90625 -16.4375 C 28.90625 -20.664062 28.019531 -23.972656 26.25 -26.359375 C 24.476562 -28.742188 21.710938 -29.9375 17.953125 -29.9375 C 15.421875 -29.9375 13.332031 -29.390625 11.6875 -28.296875 C 10.039062 -27.203125 8.816406 -25.648438 8.015625 -23.640625 C 7.210938 -21.628906 6.8125 -19.226562 6.8125 -16.4375 Z M 22.859375 -41.171875 C 22.859375 -40.015625 22.503906 -39.117188 21.796875 -38.484375 C 21.097656 -37.847656 20.207031 -37.40625 19.125 -37.15625 L 18.921875 -34.671875 L 16.578125 -34.671875 L 16.296875 -38.546875 C 17.441406 -38.734375 18.335938 -39.007812 18.984375 -39.375 C 19.640625 -39.75 19.96875 -40.300781 19.96875 -41.03125 C 19.96875 -41.757812 19.679688 -42.257812 19.109375 -42.53125 C 18.535156 -42.800781 17.804688 -42.9375 16.921875 -42.9375 C 16.503906 -42.9375 16.085938 -42.914062 15.671875 -42.875 C 15.265625 -42.84375 14.925781 -42.796875 14.65625 -42.734375 L 14.65625 -44.984375 C 14.957031 -45.066406 15.316406 -45.132812 15.734375 -45.1875 C 16.148438 -45.238281 16.648438 -45.265625 17.234375 -45.265625 C 19.046875 -45.265625 20.4375 -44.925781 21.40625 -44.25 C 22.375 -43.570312 22.859375 -42.546875 22.859375 -41.171875 Z M 22.859375 -41.171875 "/></g></g></g><g fill="#006636" fill-opacity="1"><g transform="translate(252.156133, 256.145025)"><g><path d="M 22.734375 0 L 4.484375 0 L 4.484375 -32.78125 L 22.734375 -32.78125 L 22.734375 -29.421875 L 8.296875 -29.421875 L 8.296875 -18.8125 L 21.90625 -18.8125 L 21.90625 -15.5 L 8.296875 -15.5 L 8.296875 -3.359375 L 22.734375 -3.359375 Z M 22.734375 0 "/></g></g></g><g fill="#006636" fill-opacity="1"><g transform="translate(277.674573, 256.145025)"><g/></g></g><g fill="#006636" fill-opacity="1"><g transform="translate(289.604107, 256.145025)"><g><path d="M 13.96875 -33.296875 C 15.582031 -33.296875 16.972656 -33.015625 18.140625 -32.453125 C 19.316406 -31.890625 20.222656 -31.085938 20.859375 -30.046875 C 21.492188 -29.003906 21.8125 -27.738281 21.8125 -26.25 C 21.8125 -24.3125 21.179688 -22.671875 19.921875 -21.328125 C 18.660156 -19.984375 17.054688 -18.753906 15.109375 -17.640625 L 24.21875 -8.8125 C 25.039062 -9.769531 25.710938 -10.878906 26.234375 -12.140625 C 26.753906 -13.398438 27.195312 -14.769531 27.5625 -16.25 L 31.328125 -16.25 C 30.847656 -14.28125 30.226562 -12.460938 29.46875 -10.796875 C 28.71875 -9.140625 27.773438 -7.6875 26.640625 -6.4375 L 33.203125 0 L 28.15625 0 L 24.109375 -3.96875 C 23.148438 -3.082031 22.117188 -2.304688 21.015625 -1.640625 C 19.921875 -0.984375 18.703125 -0.46875 17.359375 -0.09375 C 16.023438 0.269531 14.5 0.453125 12.78125 0.453125 C 10.6875 0.453125 8.867188 0.105469 7.328125 -0.578125 C 5.785156 -1.265625 4.59375 -2.273438 3.75 -3.609375 C 2.90625 -4.941406 2.484375 -6.570312 2.484375 -8.5 C 2.484375 -10.082031 2.773438 -11.441406 3.359375 -12.578125 C 3.941406 -13.710938 4.769531 -14.71875 5.84375 -15.59375 C 6.925781 -16.476562 8.210938 -17.34375 9.703125 -18.1875 C 9.003906 -18.957031 8.335938 -19.742188 7.703125 -20.546875 C 7.078125 -21.347656 6.570312 -22.207031 6.1875 -23.125 C 5.800781 -24.050781 5.609375 -25.066406 5.609375 -26.171875 C 5.609375 -27.660156 5.945312 -28.9375 6.625 -30 C 7.300781 -31.0625 8.265625 -31.875 9.515625 -32.4375 C 10.765625 -33.007812 12.25 -33.296875 13.96875 -33.296875 Z M 11.953125 -15.828125 C 10.785156 -15.160156 9.785156 -14.492188 8.953125 -13.828125 C 8.128906 -13.171875 7.492188 -12.429688 7.046875 -11.609375 C 6.609375 -10.785156 6.390625 -9.789062 6.390625 -8.625 C 6.390625 -6.882812 6.976562 -5.484375 8.15625 -4.421875 C 9.34375 -3.367188 10.921875 -2.84375 12.890625 -2.84375 C 14.921875 -2.84375 16.648438 -3.175781 18.078125 -3.84375 C 19.503906 -4.519531 20.722656 -5.335938 21.734375 -6.296875 Z M 13.828125 -30.21875 C 12.472656 -30.21875 11.375 -29.863281 10.53125 -29.15625 C 9.6875 -28.445312 9.265625 -27.457031 9.265625 -26.1875 C 9.265625 -25.050781 9.566406 -24.003906 10.171875 -23.046875 C 10.785156 -22.085938 11.660156 -21.023438 12.796875 -19.859375 C 14.671875 -20.890625 16.03125 -21.890625 16.875 -22.859375 C 17.71875 -23.828125 18.140625 -24.957031 18.140625 -26.25 C 18.140625 -27.4375 17.742188 -28.394531 16.953125 -29.125 C 16.171875 -29.851562 15.128906 -30.21875 13.828125 -30.21875 Z M 13.828125 -30.21875 "/></g></g></g><g fill="#006636" fill-opacity="1"><g transform="translate(323.060621, 256.145025)"><g/></g></g><g fill="#006636" fill-opacity="1"><g transform="translate(334.990155, 256.145025)"><g><path d="M 14.546875 0 L 10.71875 0 L 10.71875 -29.421875 L 0.40625 -29.421875 L 0.40625 -32.78125 L 24.828125 -32.78125 L 24.828125 -29.421875 L 14.546875 -29.421875 Z M 14.546875 0 "/></g></g></g><g fill="#006636" fill-opacity="1"><g transform="translate(360.284355, 256.145025)"><g><path d="M 29.328125 0 L 25.515625 0 L 25.515625 -15.453125 L 8.296875 -15.453125 L 8.296875 0 L 4.484375 0 L 4.484375 -32.78125 L 8.296875 -32.78125 L 8.296875 -18.8125 L 25.515625 -18.8125 L 25.515625 -32.78125 L 29.328125 -32.78125 Z M 29.328125 0 "/></g></g></g><g fill="#006636" fill-opacity="1"><g transform="translate(394.144488, 256.145025)"><g><path d="M 4.484375 0 L 4.484375 -32.78125 L 8.296875 -32.78125 L 8.296875 0 Z M 6.375 7.875 C 5.738281 7.875 5.203125 7.671875 4.765625 7.265625 C 4.335938 6.859375 4.125 6.242188 4.125 5.421875 C 4.125 4.585938 4.335938 3.972656 4.765625 3.578125 C 5.203125 3.179688 5.738281 2.984375 6.375 2.984375 C 7.007812 2.984375 7.546875 3.179688 7.984375 3.578125 C 8.421875 3.972656 8.640625 4.585938 8.640625 5.421875 C 8.640625 6.242188 8.421875 6.859375 7.984375 7.265625 C 7.546875 7.671875 7.007812 7.875 6.375 7.875 Z M 6.375 7.875 "/></g></g></g><g fill="#006636" fill-opacity="1"><g transform="translate(406.971003, 256.145025)"><g><path d="M 30.109375 0 L 25.71875 0 L 7.84375 -27.53125 L 7.671875 -27.53125 C 7.710938 -26.800781 7.765625 -25.96875 7.828125 -25.03125 C 7.890625 -24.101562 7.9375 -23.109375 7.96875 -22.046875 C 8.007812 -20.992188 8.03125 -19.921875 8.03125 -18.828125 L 8.03125 0 L 4.484375 0 L 4.484375 -32.78125 L 8.859375 -32.78125 L 26.65625 -5.34375 L 26.8125 -5.34375 C 26.78125 -5.863281 26.742188 -6.601562 26.703125 -7.5625 C 26.660156 -8.53125 26.617188 -9.570312 26.578125 -10.6875 C 26.546875 -11.800781 26.53125 -12.835938 26.53125 -13.796875 L 26.53125 -32.78125 L 30.109375 -32.78125 Z M 30.109375 0 "/></g></g></g><g fill="#006636" fill-opacity="1"><g transform="translate(441.548702, 256.145025)"><g><path d="M 29.328125 0 L 25.515625 0 L 25.515625 -15.453125 L 8.296875 -15.453125 L 8.296875 0 L 4.484375 0 L 4.484375 -32.78125 L 8.296875 -32.78125 L 8.296875 -18.8125 L 25.515625 -18.8125 L 25.515625 -32.78125 L 29.328125 -32.78125 Z M 29.328125 0 "/></g></g></g><g fill="#006636" fill-opacity="1"><g transform="translate(475.408835, 256.145025)"><g/></g></g><g fill="#006636" fill-opacity="1"><g transform="translate(487.338392, 256.145025)"><g><path d="M 27.375 -32.78125 L 15.609375 0 L 11.765625 0 L 0 -32.78125 L 3.984375 -32.78125 L 11.65625 -11.1875 C 11.96875 -10.320312 12.25 -9.492188 12.5 -8.703125 C 12.75 -7.910156 12.96875 -7.144531 13.15625 -6.40625 C 13.351562 -5.675781 13.523438 -4.96875 13.671875 -4.28125 C 13.828125 -4.96875 14 -5.679688 14.1875 -6.421875 C 14.382812 -7.160156 14.609375 -7.929688 14.859375 -8.734375 C 15.117188 -9.535156 15.40625 -10.375 15.71875 -11.25 L 23.34375 -32.78125 Z M 27.375 -32.78125 "/></g></g></g><g fill="#006636" fill-opacity="1"><g transform="translate(514.718013, 256.145025)"><g><path d="M 29.28125 -32.78125 L 29.28125 -28.296875 C 30.25 -28.460938 30.988281 -28.828125 31.5 -29.390625 C 32.019531 -29.960938 32.378906 -30.710938 32.578125 -31.640625 C 32.785156 -32.566406 32.890625 -33.648438 32.890625 -34.890625 L 36.8125 -34.890625 L 37.125 -34.421875 C 36.945312 -33.328125 36.691406 -32.296875 36.359375 -31.328125 C 36.023438 -30.367188 35.5625 -29.503906 34.96875 -28.734375 C 34.375 -27.960938 33.613281 -27.316406 32.6875 -26.796875 C 31.757812 -26.273438 30.625 -25.894531 29.28125 -25.65625 L 29.28125 -11.5625 C 29.28125 -9.25 28.84375 -7.1875 27.96875 -5.375 C 27.09375 -3.570312 25.742188 -2.148438 23.921875 -1.109375 C 22.097656 -0.0664062 19.753906 0.453125 16.890625 0.453125 C 12.742188 0.453125 9.582031 -0.644531 7.40625 -2.84375 C 5.226562 -5.039062 4.140625 -7.976562 4.140625 -11.65625 L 4.140625 -32.78125 L 7.984375 -32.78125 L 7.984375 -11.5 C 7.984375 -8.75 8.734375 -6.617188 10.234375 -5.109375 C 11.734375 -3.597656 13.976562 -2.84375 16.96875 -2.84375 C 18.976562 -2.84375 20.609375 -3.203125 21.859375 -3.921875 C 23.117188 -4.648438 24.039062 -5.664062 24.625 -6.96875 C 25.207031 -8.269531 25.5 -9.773438 25.5 -11.484375 L 25.5 -32.78125 Z M 29.28125 -32.78125 "/></g></g></g><g fill="#006636" fill-opacity="1"><g transform="translate(550.192692, 256.145025)"><g><path d="M 32.875 -16.4375 C 32.875 -13.90625 32.554688 -11.601562 31.921875 -9.53125 C 31.285156 -7.46875 30.332031 -5.691406 29.0625 -4.203125 C 27.800781 -2.710938 26.238281 -1.5625 24.375 -0.75 C 22.519531 0.0507812 20.359375 0.453125 17.890625 0.453125 C 15.335938 0.453125 13.113281 0.0507812 11.21875 -0.75 C 9.332031 -1.5625 7.765625 -2.710938 6.515625 -4.203125 C 5.265625 -5.703125 4.332031 -7.488281 3.71875 -9.5625 C 3.101562 -11.644531 2.796875 -13.953125 2.796875 -16.484375 C 2.796875 -19.828125 3.347656 -22.757812 4.453125 -25.28125 C 5.566406 -27.8125 7.242188 -29.78125 9.484375 -31.1875 C 11.722656 -32.59375 14.546875 -33.296875 17.953125 -33.296875 C 20.453125 -33.296875 22.644531 -32.867188 24.53125 -32.015625 C 26.425781 -31.160156 28.007812 -29.972656 29.28125 -28.453125 C 30.125 -28.691406 30.757812 -29.101562 31.1875 -29.6875 C 31.625 -30.28125 31.921875 -31.019531 32.078125 -31.90625 C 32.242188 -32.789062 32.328125 -33.785156 32.328125 -34.890625 L 36.328125 -34.890625 L 36.640625 -34.421875 C 36.328125 -32.546875 35.734375 -30.867188 34.859375 -29.390625 C 33.992188 -27.910156 32.628906 -26.820312 30.765625 -26.125 C 31.460938 -24.8125 31.988281 -23.34375 32.34375 -21.71875 C 32.695312 -20.09375 32.875 -18.332031 32.875 -16.4375 Z M 6.8125 -16.4375 C 6.8125 -13.65625 7.203125 -11.25 7.984375 -9.21875 C 8.773438 -7.1875 9.988281 -5.613281 11.625 -4.5 C 13.257812 -3.394531 15.347656 -2.84375 17.890625 -2.84375 C 20.453125 -2.84375 22.539062 -3.394531 24.15625 -4.5 C 25.769531 -5.613281 26.957031 -7.1875 27.71875 -9.21875 C 28.476562 -11.25 28.859375 -13.65625 28.859375 -16.4375 C 28.859375 -20.65625 27.984375 -23.957031 26.234375 -26.34375 C 24.484375 -28.738281 21.722656 -29.9375 17.953125 -29.9375 C 15.398438 -29.9375 13.300781 -29.390625 11.65625 -28.296875 C 10.007812 -27.203125 8.789062 -25.644531 8 -23.625 C 7.207031 -21.613281 6.8125 -19.21875 6.8125 -16.4375 Z M 17.765625 7.875 C 17.128906 7.875 16.59375 7.671875 16.15625 7.265625 C 15.726562 6.859375 15.515625 6.242188 15.515625 5.421875 C 15.515625 4.585938 15.726562 3.972656 16.15625 3.578125 C 16.59375 3.179688 17.128906 2.984375 17.765625 2.984375 C 18.398438 2.984375 18.9375 3.179688 19.375 3.578125 C 19.8125 3.972656 20.03125 4.585938 20.03125 5.421875 C 20.03125 6.242188 19.8125 6.859375 19.375 7.265625 C 18.9375 7.671875 18.398438 7.875 17.765625 7.875 Z M 17.765625 7.875 "/></g></g></g><g fill="#006636" fill-opacity="1"><g transform="translate(586.048549, 256.145025)"><g><path d="M 30.109375 0 L 25.71875 0 L 7.84375 -27.53125 L 7.671875 -27.53125 C 7.710938 -26.800781 7.765625 -25.96875 7.828125 -25.03125 C 7.890625 -24.101562 7.9375 -23.109375 7.96875 -22.046875 C 8.007812 -20.992188 8.03125 -19.921875 8.03125 -18.828125 L 8.03125 0 L 4.484375 0 L 4.484375 -32.78125 L 8.859375 -32.78125 L 26.65625 -5.34375 L 26.8125 -5.34375 C 26.78125 -5.863281 26.742188 -6.601562 26.703125 -7.5625 C 26.660156 -8.53125 26.617188 -9.570312 26.578125 -10.6875 C 26.546875 -11.800781 26.53125 -12.835938 26.53125 -13.796875 L 26.53125 -32.78125 L 30.109375 -32.78125 Z M 30.109375 0 "/></g></g></g><g fill="#006636" fill-opacity="1"><g transform="translate(620.626271, 256.145025)"><g><path d="M 18.5 -17.171875 L 29.953125 -17.171875 L 29.953125 -1.28125 C 28.234375 -0.695312 26.460938 -0.265625 24.640625 0.015625 C 22.828125 0.304688 20.800781 0.453125 18.5625 0.453125 C 15.15625 0.453125 12.28125 -0.222656 9.9375 -1.578125 C 7.601562 -2.941406 5.828125 -4.882812 4.609375 -7.40625 C 3.398438 -9.925781 2.796875 -12.921875 2.796875 -16.390625 C 2.796875 -19.785156 3.460938 -22.742188 4.796875 -25.265625 C 6.140625 -27.796875 8.078125 -29.757812 10.609375 -31.15625 C 13.148438 -32.550781 16.195312 -33.25 19.75 -33.25 C 21.570312 -33.25 23.300781 -33.082031 24.9375 -32.75 C 26.582031 -32.414062 28.109375 -31.941406 29.515625 -31.328125 L 28.046875 -28 C 26.835938 -28.53125 25.503906 -28.976562 24.046875 -29.34375 C 22.585938 -29.71875 21.082031 -29.90625 19.53125 -29.90625 C 16.851562 -29.90625 14.5625 -29.351562 12.65625 -28.25 C 10.75 -27.144531 9.289062 -25.582031 8.28125 -23.5625 C 7.269531 -21.550781 6.765625 -19.160156 6.765625 -16.390625 C 6.765625 -13.648438 7.207031 -11.269531 8.09375 -9.25 C 8.976562 -7.226562 10.351562 -5.65625 12.21875 -4.53125 C 14.082031 -3.40625 16.488281 -2.84375 19.4375 -2.84375 C 20.914062 -2.84375 22.1875 -2.925781 23.25 -3.09375 C 24.3125 -3.269531 25.273438 -3.476562 26.140625 -3.71875 L 26.140625 -13.765625 L 18.5 -13.765625 Z M 18.5 -17.171875 "/></g></g></g><g fill="#006636" fill-opacity="1"><g transform="translate(654.015529, 256.145025)"><g><path d="M 7.28125 -9.109375 L 4.84375 -9.109375 L 3.8125 -32.78125 L 8.3125 -32.78125 Z M 3.359375 -2.328125 C 3.359375 -3.378906 3.613281 -4.125 4.125 -4.5625 C 4.632812 -5 5.269531 -5.21875 6.03125 -5.21875 C 6.78125 -5.21875 7.410156 -5 7.921875 -4.5625 C 8.441406 -4.125 8.703125 -3.378906 8.703125 -2.328125 C 8.703125 -1.296875 8.441406 -0.546875 7.921875 -0.078125 C 7.410156 0.390625 6.78125 0.625 6.03125 0.625 C 5.269531 0.625 4.632812 0.390625 4.125 -0.078125 C 3.613281 -0.546875 3.359375 -1.296875 3.359375 -2.328125 Z M 3.359375 -2.328125 "/></g></g></g></svg>