<svg xmlns="http://www.w3.org/2000/svg" xmlns:xlink="http://www.w3.org/1999/xlink" width="1446" zoomAndPan="magnify" viewBox="0 60 1084.5 386.999991" height="516" preserveAspectRatio="xMidYMid meet" version="1.2"><defs><clipPath id="c5c06408e0"><path d="M 0 0.0898438 L 1084 0.0898438 L 1084 386.910156 L 0 386.910156 Z M 0 0.0898438 "/></clipPath><clipPath id="90fd9334bc"><path d="M 4 145 L 301 145 L 301 243 L 4 243 Z M 4 145 "/></clipPath><clipPath id="54656b9f8a"><path d="M 305.15625 154.40625 L 171.3125 325.71875 L 0 191.875 L 133.84375 20.558594 Z M 305.15625 154.40625 "/></clipPath><clipPath id="8124c9f3ee"><path d="M 305.15625 154.40625 L 171.3125 325.71875 L 0 191.875 L 133.84375 20.558594 Z M 305.15625 154.40625 "/></clipPath><clipPath id="de1dd4fe2f"><path d="M 47.007812 103.894531 L 121.972656 103.894531 L 121.972656 344 L 47.007812 344 Z M 47.007812 103.894531 "/></clipPath><clipPath id="82143b24e4"><path d="M 84.492188 103.894531 C 105.191406 103.894531 121.972656 120.675781 121.972656 141.378906 L 121.972656 306.300781 C 121.972656 327.003906 105.191406 343.785156 84.492188 343.785156 C 63.789062 343.785156 47.007812 327.003906 47.007812 306.300781 L 47.007812 141.378906 C 47.007812 120.675781 63.789062 103.894531 84.492188 103.894531 Z M 84.492188 103.894531 "/></clipPath><clipPath id="0362905922"><path d="M 76.996094 118.886719 L 121.972656 118.886719 L 121.972656 163.867188 L 76.996094 163.867188 Z M 76.996094 118.886719 "/></clipPath><clipPath id="f74c17d4e5"><path d="M 99.484375 118.886719 C 87.0625 118.886719 76.996094 128.957031 76.996094 141.378906 C 76.996094 153.796875 87.0625 163.867188 99.484375 163.867188 C 111.90625 163.867188 121.972656 153.796875 121.972656 141.378906 C 121.972656 128.957031 111.90625 118.886719 99.484375 118.886719 Z M 99.484375 118.886719 "/></clipPath><clipPath id="2fc4bb66be"><path d="M 171.949219 73.910156 L 246.914062 73.910156 L 246.914062 373.769531 L 171.949219 373.769531 Z M 171.949219 73.910156 "/></clipPath><clipPath id="4ee596a567"><path d="M 209.433594 73.910156 C 230.132812 73.910156 246.914062 90.691406 246.914062 111.390625 L 246.914062 336.289062 C 246.914062 356.988281 230.132812 373.769531 209.433594 373.769531 C 188.730469 373.769531 171.949219 356.988281 171.949219 336.289062 L 171.949219 111.390625 C 171.949219 90.691406 188.730469 73.910156 209.433594 73.910156 Z M 209.433594 73.910156 "/></clipPath><clipPath id="17fb812b4b"><path d="M 171.949219 88.902344 L 216.929688 88.902344 L 216.929688 133.882812 L 171.949219 133.882812 Z M 171.949219 88.902344 "/></clipPath><clipPath id="dd28168c9a"><path d="M 194.441406 88.902344 C 182.019531 88.902344 171.949219 98.972656 171.949219 111.390625 C 171.949219 123.8125 182.019531 133.882812 194.441406 133.882812 C 206.859375 133.882812 216.929688 123.8125 216.929688 111.390625 C 216.929688 98.972656 206.859375 88.902344 194.441406 88.902344 Z M 194.441406 88.902344 "/></clipPath></defs><g id="cf14daed95"><g clip-rule="nonzero" clip-path="url(#c5c06408e0)"><path style=" stroke:none;fill-rule:nonzero;fill:#ffffff;fill-opacity:1;" d="M 0 0.0898438 L 1084 0.0898438 L 1084 386.910156 L 0 386.910156 Z M 0 0.0898438 "/></g><g clip-rule="nonzero" clip-path="url(#90fd9334bc)"><g clip-rule="nonzero" clip-path="url(#54656b9f8a)"><g clip-rule="nonzero" clip-path="url(#8124c9f3ee)"><path style=" stroke:none;fill-rule:nonzero;fill:#0a703f;fill-opacity:1;" d="M 6.664062 183.34375 C 10.339844 178.636719 17.144531 177.800781 21.855469 181.480469 C 102.207031 244.257812 218.660156 229.960938 281.4375 149.605469 C 285.117188 144.898438 291.921875 144.0625 296.628906 147.742188 C 301.335938 151.421875 302.171875 158.226562 298.496094 162.933594 C 281.332031 184.902344 260.375 202.863281 236.199219 216.304688 C 212.84375 229.285156 187.515625 237.515625 160.898438 240.785156 C 134.285156 244.050781 107.703125 242.179688 81.917969 235.246094 C 55.207031 228.054688 30.527344 215.695312 8.558594 198.53125 C 3.820312 194.859375 2.984375 188.054688 6.664062 183.34375 Z M 6.664062 183.34375 "/></g></g></g><g clip-rule="nonzero" clip-path="url(#de1dd4fe2f)"><g clip-rule="nonzero" clip-path="url(#82143b24e4)"><path style=" stroke:none;fill-rule:nonzero;fill:#0a703f;fill-opacity:1;" d="M 47.007812 103.894531 L 121.972656 103.894531 L 121.972656 343.726562 L 47.007812 343.726562 Z M 47.007812 103.894531 "/></g></g><g clip-rule="nonzero" clip-path="url(#0362905922)"><g clip-rule="nonzero" clip-path="url(#f74c17d4e5)"><path style=" stroke:none;fill-rule:nonzero;fill:#ff6300;fill-opacity:1;" d="M 76.996094 118.886719 L 121.972656 118.886719 L 121.972656 163.867188 L 76.996094 163.867188 Z M 76.996094 118.886719 "/><path style="fill:none;stroke-width:12;stroke-linecap:butt;stroke-linejoin:miter;stroke:#ffffff;stroke-opacity:1;stroke-miterlimit:4;" d="M 30.000653 -0.00218086 C 13.430517 -0.00218086 0.00245465 13.431093 0.00245465 30.001228 C 0.00245465 46.566153 13.430517 59.999427 30.000653 59.999427 C 46.570789 59.999427 59.998851 46.566153 59.998851 30.001228 C 59.998851 13.431093 46.570789 -0.00218086 30.000653 -0.00218086 Z M 30.000653 -0.00218086 " transform="matrix(0.749654,0,0,0.749654,76.994254,118.888354)"/></g></g><g clip-rule="nonzero" clip-path="url(#2fc4bb66be)"><g clip-rule="nonzero" clip-path="url(#4ee596a567)"><path style=" stroke:none;fill-rule:nonzero;fill:#0a703f;fill-opacity:1;" d="M 171.949219 73.910156 L 246.914062 73.910156 L 246.914062 373.769531 L 171.949219 373.769531 Z M 171.949219 73.910156 "/></g></g><g clip-rule="nonzero" clip-path="url(#17fb812b4b)"><g clip-rule="nonzero" clip-path="url(#dd28168c9a)"><path style=" stroke:none;fill-rule:nonzero;fill:#ff6300;fill-opacity:1;" d="M 171.949219 88.902344 L 216.929688 88.902344 L 216.929688 133.882812 L 171.949219 133.882812 Z M 171.949219 88.902344 "/><path style="fill:none;stroke-width:12;stroke-linecap:butt;stroke-linejoin:miter;stroke:#ffffff;stroke-opacity:1;stroke-miterlimit:4;" d="M 30.001737 0.000228329 C 13.431601 0.000228329 -0.00167237 13.433502 -0.00167237 29.998427 C -0.00167237 46.568562 13.431601 60.001836 30.001737 60.001836 C 46.566662 60.001836 59.999935 46.568562 59.999935 29.998427 C 59.999935 13.433502 46.566662 0.000228329 30.001737 0.000228329 Z M 30.001737 0.000228329 " transform="matrix(0.749654,0,0,0.749654,171.950472,88.902173)"/></g></g><g style="fill:#ff6300;fill-opacity:1;"><g transform="translate(400.261833, 199.665301)"><path style="stroke:none" d="M 97.078125 -0.640625 C 95.898438 -0.316406 94.054688 0 91.546875 0.3125 C 89.046875 0.632812 86.570312 0.796875 84.125 0.796875 C 81.664062 0.796875 79.503906 0.609375 77.640625 0.234375 C 75.773438 -0.128906 74.203125 -0.789062 72.921875 -1.75 C 71.640625 -2.71875 70.679688 -4.050781 70.046875 -5.75 C 69.410156 -7.457031 69.09375 -9.695312 69.09375 -12.46875 L 69.09375 -37.421875 L 38.375 -37.421875 L 38.375 -0.640625 C 37.207031 -0.316406 35.367188 0 32.859375 0.3125 C 30.359375 0.632812 27.878906 0.796875 25.421875 0.796875 C 22.972656 0.796875 20.816406 0.609375 18.953125 0.234375 C 17.085938 -0.128906 15.515625 -0.789062 14.234375 -1.75 C 12.953125 -2.71875 11.988281 -4.050781 11.34375 -5.75 C 10.707031 -7.457031 10.390625 -9.695312 10.390625 -12.46875 L 10.390625 -96.90625 C 11.566406 -97.125 13.429688 -97.421875 15.984375 -97.796875 C 18.546875 -98.171875 21 -98.359375 23.34375 -98.359375 C 25.800781 -98.359375 27.960938 -98.171875 29.828125 -97.796875 C 31.691406 -97.421875 33.265625 -96.753906 34.546875 -95.796875 C 35.828125 -94.835938 36.785156 -93.503906 37.421875 -91.796875 C 38.054688 -90.085938 38.375 -87.847656 38.375 -85.078125 L 38.375 -59.484375 L 69.09375 -59.484375 L 69.09375 -96.90625 C 70.257812 -97.125 72.117188 -97.421875 74.671875 -97.796875 C 77.234375 -98.171875 79.691406 -98.359375 82.046875 -98.359375 C 84.492188 -98.359375 86.648438 -98.171875 88.515625 -97.796875 C 90.378906 -97.421875 91.953125 -96.753906 93.234375 -95.796875 C 94.515625 -94.835938 95.472656 -93.503906 96.109375 -91.796875 C 96.753906 -90.085938 97.078125 -87.847656 97.078125 -85.078125 Z M 97.078125 -0.640625 "/></g></g><g style="fill:#ff6300;fill-opacity:1;"><g transform="translate(507.729661, 199.665301)"><path style="stroke:none" d="M 31.03125 -94.03125 C 32.84375 -95.101562 35.585938 -96.117188 39.265625 -97.078125 C 42.941406 -98.035156 46.644531 -98.515625 50.375 -98.515625 C 55.707031 -98.515625 60.425781 -97.738281 64.53125 -96.1875 C 68.632812 -94.644531 71.269531 -92.222656 72.4375 -88.921875 C 74.363281 -83.367188 76.445312 -76.914062 78.6875 -69.5625 C 80.925781 -62.207031 83.160156 -54.609375 85.390625 -46.765625 C 87.628906 -38.929688 89.816406 -31.203125 91.953125 -23.578125 C 94.085938 -15.960938 95.953125 -9.222656 97.546875 -3.359375 C 96.273438 -1.867188 94.359375 -0.671875 91.796875 0.234375 C 89.234375 1.140625 86.191406 1.59375 82.671875 1.59375 C 80.117188 1.59375 77.960938 1.378906 76.203125 0.953125 C 74.441406 0.523438 73 -0.109375 71.875 -0.953125 C 70.757812 -1.804688 69.851562 -2.925781 69.15625 -4.3125 C 68.46875 -5.695312 67.859375 -7.296875 67.328125 -9.109375 L 64.453125 -20.15625 L 35.5 -20.15625 C 34.644531 -16.957031 33.789062 -13.648438 32.9375 -10.234375 C 32.09375 -6.828125 31.242188 -3.519531 30.390625 -0.3125 C 28.890625 0.21875 27.3125 0.664062 25.65625 1.03125 C 24.007812 1.40625 22.015625 1.59375 19.671875 1.59375 C 14.234375 1.59375 10.207031 0.660156 7.59375 -1.203125 C 4.976562 -3.066406 3.671875 -5.648438 3.671875 -8.953125 C 3.671875 -10.441406 3.882812 -11.929688 4.3125 -13.421875 C 4.738281 -14.921875 5.21875 -16.679688 5.75 -18.703125 C 6.5 -21.585938 7.539062 -25.160156 8.875 -29.421875 C 10.207031 -33.691406 11.671875 -38.300781 13.265625 -43.25 C 14.867188 -48.207031 16.578125 -53.300781 18.390625 -58.53125 C 20.203125 -63.757812 21.90625 -68.691406 23.5 -73.328125 C 25.101562 -77.960938 26.570312 -82.09375 27.90625 -85.71875 C 29.238281 -89.34375 30.28125 -92.113281 31.03125 -94.03125 Z M 50.21875 -73.40625 C 48.726562 -68.925781 47.046875 -63.941406 45.171875 -58.453125 C 43.304688 -52.960938 41.628906 -47.390625 40.140625 -41.734375 L 59.96875 -41.734375 C 58.476562 -47.492188 56.957031 -53.117188 55.40625 -58.609375 C 53.863281 -64.097656 52.453125 -69.03125 51.171875 -73.40625 Z M 50.21875 -73.40625 "/></g></g><g style="fill:#ff6300;fill-opacity:1;"><g transform="translate(608.000963, 199.665301)"><path style="stroke:none" d="M 5.921875 -74.53125 C 5.171875 -75.695312 4.472656 -77.289062 3.828125 -79.3125 C 3.191406 -81.34375 2.875 -83.476562 2.875 -85.71875 C 2.875 -89.875 3.804688 -92.859375 5.671875 -94.671875 C 7.535156 -96.484375 9.960938 -97.390625 12.953125 -97.390625 L 82.671875 -97.390625 C 83.421875 -96.222656 84.113281 -94.625 84.75 -92.59375 C 85.394531 -90.570312 85.71875 -88.441406 85.71875 -86.203125 C 85.71875 -82.046875 84.785156 -79.0625 82.921875 -77.25 C 81.054688 -75.4375 78.628906 -74.53125 75.640625 -74.53125 L 57.890625 -74.53125 L 57.890625 -0.640625 C 56.710938 -0.316406 54.867188 0 52.359375 0.3125 C 49.859375 0.632812 47.382812 0.796875 44.9375 0.796875 C 42.488281 0.796875 40.328125 0.609375 38.453125 0.234375 C 36.585938 -0.128906 35.015625 -0.789062 33.734375 -1.75 C 32.460938 -2.71875 31.503906 -4.050781 30.859375 -5.75 C 30.222656 -7.457031 29.90625 -9.695312 29.90625 -12.46875 L 29.90625 -74.53125 Z M 5.921875 -74.53125 "/></g></g><g style="fill:#ff6300;fill-opacity:1;"><g transform="translate(696.917821, 199.665301)"><path style="stroke:none" d="M 97.078125 -0.640625 C 95.898438 -0.316406 94.054688 0 91.546875 0.3125 C 89.046875 0.632812 86.570312 0.796875 84.125 0.796875 C 81.664062 0.796875 79.503906 0.609375 77.640625 0.234375 C 75.773438 -0.128906 74.203125 -0.789062 72.921875 -1.75 C 71.640625 -2.71875 70.679688 -4.050781 70.046875 -5.75 C 69.410156 -7.457031 69.09375 -9.695312 69.09375 -12.46875 L 69.09375 -37.421875 L 38.375 -37.421875 L 38.375 -0.640625 C 37.207031 -0.316406 35.367188 0 32.859375 0.3125 C 30.359375 0.632812 27.878906 0.796875 25.421875 0.796875 C 22.972656 0.796875 20.816406 0.609375 18.953125 0.234375 C 17.085938 -0.128906 15.515625 -0.789062 14.234375 -1.75 C 12.953125 -2.71875 11.988281 -4.050781 11.34375 -5.75 C 10.707031 -7.457031 10.390625 -9.695312 10.390625 -12.46875 L 10.390625 -96.90625 C 11.566406 -97.125 13.429688 -97.421875 15.984375 -97.796875 C 18.546875 -98.171875 21 -98.359375 23.34375 -98.359375 C 25.800781 -98.359375 27.960938 -98.171875 29.828125 -97.796875 C 31.691406 -97.421875 33.265625 -96.753906 34.546875 -95.796875 C 35.828125 -94.835938 36.785156 -93.503906 37.421875 -91.796875 C 38.054688 -90.085938 38.375 -87.847656 38.375 -85.078125 L 38.375 -59.484375 L 69.09375 -59.484375 L 69.09375 -96.90625 C 70.257812 -97.125 72.117188 -97.421875 74.671875 -97.796875 C 77.234375 -98.171875 79.691406 -98.359375 82.046875 -98.359375 C 84.492188 -98.359375 86.648438 -98.171875 88.515625 -97.796875 C 90.378906 -97.421875 91.953125 -96.753906 93.234375 -95.796875 C 94.515625 -94.835938 95.472656 -93.503906 96.109375 -91.796875 C 96.753906 -90.085938 97.078125 -87.847656 97.078125 -85.078125 Z M 97.078125 -0.640625 "/></g></g><g style="fill:#ff6300;fill-opacity:1;"><g transform="translate(804.385648, 199.665301)"><path style="stroke:none" d="M 61.25 -0.640625 C 60.070312 -0.316406 58.257812 0 55.8125 0.3125 C 53.363281 0.632812 50.960938 0.796875 48.609375 0.796875 C 43.710938 0.796875 40.035156 -0.0234375 37.578125 -1.671875 C 35.128906 -3.328125 33.90625 -6.820312 33.90625 -12.15625 L 33.90625 -33.75 C 31.238281 -37.6875 28.359375 -42.050781 25.265625 -46.84375 C 22.171875 -51.644531 19.128906 -56.550781 16.140625 -61.5625 C 13.160156 -66.582031 10.390625 -71.515625 7.828125 -76.359375 C 5.273438 -81.210938 3.195312 -85.664062 1.59375 -89.71875 C 2.976562 -91.632812 4.867188 -93.390625 7.265625 -94.984375 C 9.671875 -96.585938 12.632812 -97.390625 16.15625 -97.390625 C 20.3125 -97.390625 23.691406 -96.535156 26.296875 -94.828125 C 28.910156 -93.128906 31.394531 -89.929688 33.75 -85.234375 L 47.015625 -58.53125 L 47.984375 -58.53125 C 49.472656 -61.832031 50.773438 -64.84375 51.890625 -67.5625 C 53.015625 -70.28125 54.109375 -73 55.171875 -75.71875 C 56.234375 -78.4375 57.351562 -81.257812 58.53125 -84.1875 C 59.707031 -87.125 61.039062 -90.515625 62.53125 -94.359375 C 64.445312 -95.316406 66.578125 -96.0625 68.921875 -96.59375 C 71.265625 -97.125 73.503906 -97.390625 75.640625 -97.390625 C 79.367188 -97.390625 82.539062 -96.398438 85.15625 -94.421875 C 87.769531 -92.453125 89.078125 -89.5 89.078125 -85.5625 C 89.078125 -84.28125 88.8125 -82.734375 88.28125 -80.921875 C 87.75 -79.109375 86.519531 -76.363281 84.59375 -72.6875 C 82.675781 -69.007812 79.878906 -64.023438 76.203125 -57.734375 C 72.523438 -51.441406 67.539062 -43.234375 61.25 -33.109375 Z M 61.25 -0.640625 "/></g></g><g style="fill:#ff6300;fill-opacity:1;"><g transform="translate(896.181061, 199.665301)"><path style="stroke:none" d="M 5.59375 -48.609375 C 5.59375 -56.929688 6.898438 -64.289062 9.515625 -70.6875 C 12.128906 -77.082031 15.703125 -82.4375 20.234375 -86.75 C 24.765625 -91.070312 30.09375 -94.351562 36.21875 -96.59375 C 42.351562 -98.832031 48.988281 -99.953125 56.125 -99.953125 C 63.269531 -99.953125 69.90625 -98.832031 76.03125 -96.59375 C 82.164062 -94.351562 87.523438 -91.070312 92.109375 -86.75 C 96.691406 -82.4375 100.289062 -77.082031 102.90625 -70.6875 C 105.519531 -64.289062 106.828125 -56.929688 106.828125 -48.609375 C 106.828125 -40.296875 105.546875 -32.914062 102.984375 -26.46875 C 100.429688 -20.019531 96.890625 -14.632812 92.359375 -10.3125 C 87.828125 -6 82.46875 -2.722656 76.28125 -0.484375 C 70.09375 1.753906 63.375 2.875 56.125 2.875 C 48.882812 2.875 42.171875 1.726562 35.984375 -0.5625 C 29.796875 -2.851562 24.460938 -6.179688 19.984375 -10.546875 C 15.515625 -14.921875 12 -20.304688 9.4375 -26.703125 C 6.875 -33.097656 5.59375 -40.398438 5.59375 -48.609375 Z M 34.390625 -48.609375 C 34.390625 -38.910156 36.359375 -31.660156 40.296875 -26.859375 C 44.242188 -22.066406 49.519531 -19.671875 56.125 -19.671875 C 62.84375 -19.671875 68.175781 -22.066406 72.125 -26.859375 C 76.070312 -31.660156 78.046875 -38.910156 78.046875 -48.609375 C 78.046875 -58.210938 76.097656 -65.410156 72.203125 -70.203125 C 68.316406 -75.003906 63.015625 -77.40625 56.296875 -77.40625 C 49.679688 -77.40625 44.375 -75.03125 40.375 -70.28125 C 36.382812 -65.539062 34.390625 -58.316406 34.390625 -48.609375 Z M 34.390625 -48.609375 "/></g></g><g style="fill:#0a703f;fill-opacity:1;"><g transform="translate(475.754369, 279.064465)"><path style="stroke:none" d="M 31.90625 0 L 27.765625 0 L 27.765625 -16.8125 L 9.03125 -16.8125 L 9.03125 0 L 4.875 0 L 4.875 -35.671875 L 9.03125 -35.671875 L 9.03125 -20.46875 L 27.765625 -20.46875 L 27.765625 -35.671875 L 31.90625 -35.671875 Z M 31.90625 0 "/></g></g><g style="fill:#0a703f;fill-opacity:1;"><g transform="translate(512.596856, 279.064465)"><path style="stroke:none" d="M 14.265625 -27.1875 C 17.460938 -27.1875 19.832031 -26.46875 21.375 -25.03125 C 22.914062 -23.601562 23.6875 -21.316406 23.6875 -18.171875 L 23.6875 0 L 20.734375 0 L 19.953125 -3.953125 L 19.765625 -3.953125 C 19.015625 -2.972656 18.234375 -2.15625 17.421875 -1.5 C 16.609375 -0.84375 15.664062 -0.347656 14.59375 -0.015625 C 13.53125 0.316406 12.226562 0.484375 10.6875 0.484375 C 9.0625 0.484375 7.617188 0.203125 6.359375 -0.359375 C 5.097656 -0.929688 4.101562 -1.796875 3.375 -2.953125 C 2.65625 -4.109375 2.296875 -5.570312 2.296875 -7.34375 C 2.296875 -10.007812 3.351562 -12.054688 5.46875 -13.484375 C 7.582031 -14.921875 10.800781 -15.703125 15.125 -15.828125 L 19.734375 -16.03125 L 19.734375 -17.671875 C 19.734375 -19.972656 19.238281 -21.585938 18.25 -22.515625 C 17.257812 -23.441406 15.859375 -23.90625 14.046875 -23.90625 C 12.648438 -23.90625 11.316406 -23.703125 10.046875 -23.296875 C 8.785156 -22.890625 7.582031 -22.410156 6.4375 -21.859375 L 5.203125 -24.9375 C 6.398438 -25.550781 7.78125 -26.078125 9.34375 -26.515625 C 10.90625 -26.960938 12.546875 -27.1875 14.265625 -27.1875 Z M 19.6875 -13.171875 L 15.609375 -13 C 12.273438 -12.875 9.925781 -12.332031 8.5625 -11.375 C 7.195312 -10.414062 6.515625 -9.054688 6.515625 -7.296875 C 6.515625 -5.765625 6.976562 -4.632812 7.90625 -3.90625 C 8.832031 -3.175781 10.0625 -2.8125 11.59375 -2.8125 C 13.96875 -2.8125 15.910156 -3.46875 17.421875 -4.78125 C 18.929688 -6.101562 19.6875 -8.082031 19.6875 -10.71875 Z M 19.6875 -13.171875 "/></g></g><g style="fill:#0a703f;fill-opacity:1;"><g transform="translate(540.362915, 279.064465)"><path style="stroke:none" d="M 16.828125 -27.234375 C 20.171875 -27.234375 22.832031 -26.082031 24.8125 -23.78125 C 26.800781 -21.488281 27.796875 -18.039062 27.796875 -13.4375 C 27.796875 -10.394531 27.335938 -7.84375 26.421875 -5.78125 C 25.515625 -3.71875 24.234375 -2.15625 22.578125 -1.09375 C 20.929688 -0.0390625 18.984375 0.484375 16.734375 0.484375 C 15.316406 0.484375 14.070312 0.296875 13 -0.078125 C 11.925781 -0.453125 11.003906 -0.953125 10.234375 -1.578125 C 9.472656 -2.210938 8.84375 -2.90625 8.34375 -3.65625 L 8.046875 -3.65625 C 8.097656 -3.019531 8.160156 -2.253906 8.234375 -1.359375 C 8.304688 -0.472656 8.34375 0.300781 8.34375 0.96875 L 8.34375 11.953125 L 4.265625 11.953125 L 4.265625 -26.734375 L 7.609375 -26.734375 L 8.15625 -22.78125 L 8.34375 -22.78125 C 8.863281 -23.601562 9.5 -24.347656 10.25 -25.015625 C 11 -25.691406 11.910156 -26.226562 12.984375 -26.625 C 14.066406 -27.03125 15.347656 -27.234375 16.828125 -27.234375 Z M 16.125 -23.8125 C 14.269531 -23.8125 12.773438 -23.453125 11.640625 -22.734375 C 10.515625 -22.023438 9.691406 -20.957031 9.171875 -19.53125 C 8.648438 -18.101562 8.375 -16.316406 8.34375 -14.171875 L 8.34375 -13.390625 C 8.34375 -11.128906 8.585938 -9.21875 9.078125 -7.65625 C 9.578125 -6.09375 10.398438 -4.90625 11.546875 -4.09375 C 12.691406 -3.28125 14.234375 -2.875 16.171875 -2.875 C 17.835938 -2.875 19.222656 -3.320312 20.328125 -4.21875 C 21.429688 -5.113281 22.253906 -6.363281 22.796875 -7.96875 C 23.347656 -9.570312 23.625 -11.414062 23.625 -13.5 C 23.625 -16.644531 23.007812 -19.148438 21.78125 -21.015625 C 20.550781 -22.878906 18.664062 -23.8125 16.125 -23.8125 Z M 16.125 -23.8125 "/></g></g><g style="fill:#0a703f;fill-opacity:1;"><g transform="translate(570.934859, 279.064465)"><path style="stroke:none" d="M 16.828125 -27.234375 C 20.171875 -27.234375 22.832031 -26.082031 24.8125 -23.78125 C 26.800781 -21.488281 27.796875 -18.039062 27.796875 -13.4375 C 27.796875 -10.394531 27.335938 -7.84375 26.421875 -5.78125 C 25.515625 -3.71875 24.234375 -2.15625 22.578125 -1.09375 C 20.929688 -0.0390625 18.984375 0.484375 16.734375 0.484375 C 15.316406 0.484375 14.070312 0.296875 13 -0.078125 C 11.925781 -0.453125 11.003906 -0.953125 10.234375 -1.578125 C 9.472656 -2.210938 8.84375 -2.90625 8.34375 -3.65625 L 8.046875 -3.65625 C 8.097656 -3.019531 8.160156 -2.253906 8.234375 -1.359375 C 8.304688 -0.472656 8.34375 0.300781 8.34375 0.96875 L 8.34375 11.953125 L 4.265625 11.953125 L 4.265625 -26.734375 L 7.609375 -26.734375 L 8.15625 -22.78125 L 8.34375 -22.78125 C 8.863281 -23.601562 9.5 -24.347656 10.25 -25.015625 C 11 -25.691406 11.910156 -26.226562 12.984375 -26.625 C 14.066406 -27.03125 15.347656 -27.234375 16.828125 -27.234375 Z M 16.125 -23.8125 C 14.269531 -23.8125 12.773438 -23.453125 11.640625 -22.734375 C 10.515625 -22.023438 9.691406 -20.957031 9.171875 -19.53125 C 8.648438 -18.101562 8.375 -16.316406 8.34375 -14.171875 L 8.34375 -13.390625 C 8.34375 -11.128906 8.585938 -9.21875 9.078125 -7.65625 C 9.578125 -6.09375 10.398438 -4.90625 11.546875 -4.09375 C 12.691406 -3.28125 14.234375 -2.875 16.171875 -2.875 C 17.835938 -2.875 19.222656 -3.320312 20.328125 -4.21875 C 21.429688 -5.113281 22.253906 -6.363281 22.796875 -7.96875 C 23.347656 -9.570312 23.625 -11.414062 23.625 -13.5 C 23.625 -16.644531 23.007812 -19.148438 21.78125 -21.015625 C 20.550781 -22.878906 18.664062 -23.8125 16.125 -23.8125 Z M 16.125 -23.8125 "/></g></g><g style="fill:#0a703f;fill-opacity:1;"><g transform="translate(601.506804, 279.064465)"><path style="stroke:none" d="M 0.046875 -26.734375 L 4.390625 -26.734375 L 10.296875 -11.21875 C 10.640625 -10.3125 10.957031 -9.4375 11.25 -8.59375 C 11.539062 -7.757812 11.800781 -6.957031 12.03125 -6.1875 C 12.257812 -5.425781 12.4375 -4.691406 12.5625 -3.984375 L 12.734375 -3.984375 C 12.960938 -4.796875 13.285156 -5.863281 13.703125 -7.1875 C 14.128906 -8.507812 14.585938 -9.863281 15.078125 -11.25 L 20.671875 -26.734375 L 25.03125 -26.734375 L 13.390625 3.921875 C 12.773438 5.566406 12.054688 7 11.234375 8.21875 C 10.410156 9.4375 9.410156 10.375 8.234375 11.03125 C 7.066406 11.695312 5.65625 12.03125 4 12.03125 C 3.238281 12.03125 2.5625 11.984375 1.96875 11.890625 C 1.382812 11.804688 0.882812 11.707031 0.46875 11.59375 L 0.46875 8.34375 C 0.820312 8.425781 1.253906 8.5 1.765625 8.5625 C 2.273438 8.625 2.804688 8.65625 3.359375 8.65625 C 4.367188 8.65625 5.242188 8.460938 5.984375 8.078125 C 6.722656 7.703125 7.359375 7.144531 7.890625 6.40625 C 8.429688 5.675781 8.898438 4.8125 9.296875 3.8125 L 10.765625 0.046875 Z M 0.046875 -26.734375 "/></g></g><g style="fill:#0a703f;fill-opacity:1;"><g transform="translate(626.540175, 279.064465)"><path style="stroke:none" d=""/></g></g><g style="fill:#0a703f;fill-opacity:1;"><g transform="translate(639.520442, 279.064465)"><path style="stroke:none" d="M 31.90625 0 L 27.765625 0 L 27.765625 -16.8125 L 9.03125 -16.8125 L 9.03125 0 L 4.875 0 L 4.875 -35.671875 L 9.03125 -35.671875 L 9.03125 -20.46875 L 27.765625 -20.46875 L 27.765625 -35.671875 L 31.90625 -35.671875 Z M 31.90625 0 "/></g></g><g style="fill:#0a703f;fill-opacity:1;"><g transform="translate(676.362929, 279.064465)"><path style="stroke:none" d="M 14.5625 -27.234375 C 16.84375 -27.234375 18.796875 -26.726562 20.421875 -25.71875 C 22.046875 -24.707031 23.289062 -23.296875 24.15625 -21.484375 C 25.019531 -19.671875 25.453125 -17.550781 25.453125 -15.125 L 25.453125 -12.609375 L 6.984375 -12.609375 C 7.023438 -9.472656 7.800781 -7.082031 9.3125 -5.4375 C 10.832031 -3.800781 12.96875 -2.984375 15.71875 -2.984375 C 17.40625 -2.984375 18.898438 -3.132812 20.203125 -3.4375 C 21.503906 -3.75 22.851562 -4.207031 24.25 -4.8125 L 24.25 -1.25 C 22.90625 -0.644531 21.566406 -0.207031 20.234375 0.0625 C 18.910156 0.34375 17.347656 0.484375 15.546875 0.484375 C 12.972656 0.484375 10.726562 -0.0351562 8.8125 -1.078125 C 6.90625 -2.128906 5.421875 -3.671875 4.359375 -5.703125 C 3.304688 -7.742188 2.78125 -10.234375 2.78125 -13.171875 C 2.78125 -16.054688 3.265625 -18.550781 4.234375 -20.65625 C 5.203125 -22.757812 6.566406 -24.378906 8.328125 -25.515625 C 10.097656 -26.660156 12.175781 -27.234375 14.5625 -27.234375 Z M 14.515625 -23.90625 C 12.347656 -23.90625 10.625 -23.195312 9.34375 -21.78125 C 8.0625 -20.375 7.296875 -18.398438 7.046875 -15.859375 L 21.203125 -15.859375 C 21.179688 -17.453125 20.929688 -18.851562 20.453125 -20.0625 C 19.972656 -21.28125 19.242188 -22.222656 18.265625 -22.890625 C 17.296875 -23.566406 16.046875 -23.90625 14.515625 -23.90625 Z M 14.515625 -23.90625 "/></g></g><g style="fill:#0a703f;fill-opacity:1;"><g transform="translate(704.421777, 279.064465)"><path style="stroke:none" d="M 14.265625 -27.1875 C 17.460938 -27.1875 19.832031 -26.46875 21.375 -25.03125 C 22.914062 -23.601562 23.6875 -21.316406 23.6875 -18.171875 L 23.6875 0 L 20.734375 0 L 19.953125 -3.953125 L 19.765625 -3.953125 C 19.015625 -2.972656 18.234375 -2.15625 17.421875 -1.5 C 16.609375 -0.84375 15.664062 -0.347656 14.59375 -0.015625 C 13.53125 0.316406 12.226562 0.484375 10.6875 0.484375 C 9.0625 0.484375 7.617188 0.203125 6.359375 -0.359375 C 5.097656 -0.929688 4.101562 -1.796875 3.375 -2.953125 C 2.65625 -4.109375 2.296875 -5.570312 2.296875 -7.34375 C 2.296875 -10.007812 3.351562 -12.054688 5.46875 -13.484375 C 7.582031 -14.921875 10.800781 -15.703125 15.125 -15.828125 L 19.734375 -16.03125 L 19.734375 -17.671875 C 19.734375 -19.972656 19.238281 -21.585938 18.25 -22.515625 C 17.257812 -23.441406 15.859375 -23.90625 14.046875 -23.90625 C 12.648438 -23.90625 11.316406 -23.703125 10.046875 -23.296875 C 8.785156 -22.890625 7.582031 -22.410156 6.4375 -21.859375 L 5.203125 -24.9375 C 6.398438 -25.550781 7.78125 -26.078125 9.34375 -26.515625 C 10.90625 -26.960938 12.546875 -27.1875 14.265625 -27.1875 Z M 19.6875 -13.171875 L 15.609375 -13 C 12.273438 -12.875 9.925781 -12.332031 8.5625 -11.375 C 7.195312 -10.414062 6.515625 -9.054688 6.515625 -7.296875 C 6.515625 -5.765625 6.976562 -4.632812 7.90625 -3.90625 C 8.832031 -3.175781 10.0625 -2.8125 11.59375 -2.8125 C 13.96875 -2.8125 15.910156 -3.46875 17.421875 -4.78125 C 18.929688 -6.101562 19.6875 -8.082031 19.6875 -10.71875 Z M 19.6875 -13.171875 "/></g></g><g style="fill:#0a703f;fill-opacity:1;"><g transform="translate(732.187836, 279.064465)"><path style="stroke:none" d="M 8.34375 0 L 4.265625 0 L 4.265625 -37.96875 L 8.34375 -37.96875 Z M 8.34375 0 "/></g></g><g style="fill:#0a703f;fill-opacity:1;"><g transform="translate(744.80213, 279.064465)"><path style="stroke:none" d="M 12.90625 -2.828125 C 13.570312 -2.828125 14.253906 -2.882812 14.953125 -3 C 15.648438 -3.113281 16.222656 -3.253906 16.671875 -3.421875 L 16.671875 -0.265625 C 16.191406 -0.0546875 15.53125 0.117188 14.6875 0.265625 C 13.851562 0.410156 13.039062 0.484375 12.25 0.484375 C 10.832031 0.484375 9.546875 0.238281 8.390625 -0.25 C 7.234375 -0.75 6.3125 -1.59375 5.625 -2.78125 C 4.9375 -3.96875 4.59375 -5.609375 4.59375 -7.703125 L 4.59375 -23.5625 L 0.78125 -23.5625 L 0.78125 -25.546875 L 4.609375 -27.125 L 6.21875 -32.9375 L 8.65625 -32.9375 L 8.65625 -26.734375 L 16.5 -26.734375 L 16.5 -23.5625 L 8.65625 -23.5625 L 8.65625 -7.828125 C 8.65625 -6.148438 9.039062 -4.894531 9.8125 -4.0625 C 10.59375 -3.238281 11.625 -2.828125 12.90625 -2.828125 Z M 12.90625 -2.828125 "/></g></g><g style="fill:#0a703f;fill-opacity:1;"><g transform="translate(762.613375, 279.064465)"><path style="stroke:none" d="M 8.3125 -37.96875 L 8.3125 -26.625 C 8.3125 -25.96875 8.296875 -25.3125 8.265625 -24.65625 C 8.234375 -24 8.175781 -23.394531 8.09375 -22.84375 L 8.375 -22.84375 C 8.925781 -23.78125 9.628906 -24.570312 10.484375 -25.21875 C 11.335938 -25.863281 12.304688 -26.351562 13.390625 -26.6875 C 14.484375 -27.019531 15.640625 -27.1875 16.859375 -27.1875 C 19.003906 -27.1875 20.796875 -26.84375 22.234375 -26.15625 C 23.679688 -25.46875 24.765625 -24.410156 25.484375 -22.984375 C 26.203125 -21.554688 26.5625 -19.703125 26.5625 -17.421875 L 26.5625 0 L 22.5625 0 L 22.5625 -17.15625 C 22.5625 -19.382812 22.050781 -21.050781 21.03125 -22.15625 C 20.019531 -23.257812 18.46875 -23.8125 16.375 -23.8125 C 14.382812 -23.8125 12.800781 -23.429688 11.625 -22.671875 C 10.445312 -21.921875 9.597656 -20.8125 9.078125 -19.34375 C 8.566406 -17.882812 8.3125 -16.097656 8.3125 -13.984375 L 8.3125 0 L 4.265625 0 L 4.265625 -37.96875 Z M 8.3125 -37.96875 "/></g></g><g style="fill:#0a703f;fill-opacity:1;"><g transform="translate(793.258516, 279.064465)"><path style="stroke:none" d="M 0.046875 -26.734375 L 4.390625 -26.734375 L 10.296875 -11.21875 C 10.640625 -10.3125 10.957031 -9.4375 11.25 -8.59375 C 11.539062 -7.757812 11.800781 -6.957031 12.03125 -6.1875 C 12.257812 -5.425781 12.4375 -4.691406 12.5625 -3.984375 L 12.734375 -3.984375 C 12.960938 -4.796875 13.285156 -5.863281 13.703125 -7.1875 C 14.128906 -8.507812 14.585938 -9.863281 15.078125 -11.25 L 20.671875 -26.734375 L 25.03125 -26.734375 L 13.390625 3.921875 C 12.773438 5.566406 12.054688 7 11.234375 8.21875 C 10.410156 9.4375 9.410156 10.375 8.234375 11.03125 C 7.066406 11.695312 5.65625 12.03125 4 12.03125 C 3.238281 12.03125 2.5625 11.984375 1.96875 11.890625 C 1.382812 11.804688 0.882812 11.707031 0.46875 11.59375 L 0.46875 8.34375 C 0.820312 8.425781 1.253906 8.5 1.765625 8.5625 C 2.273438 8.625 2.804688 8.65625 3.359375 8.65625 C 4.367188 8.65625 5.242188 8.460938 5.984375 8.078125 C 6.722656 7.703125 7.359375 7.144531 7.890625 6.40625 C 8.429688 5.675781 8.898438 4.8125 9.296875 3.8125 L 10.765625 0.046875 Z M 0.046875 -26.734375 "/></g></g><g style="fill:#0a703f;fill-opacity:1;"><g transform="translate(818.291911, 279.064465)"><path style="stroke:none" d=""/></g></g><g style="fill:#0a703f;fill-opacity:1;"><g transform="translate(831.272178, 279.064465)"><path style="stroke:none" d="M 13.984375 -17.78125 L 23.46875 -35.671875 L 27.9375 -35.671875 L 16.046875 -13.828125 L 16.046875 0 L 11.90625 0 L 11.90625 -13.640625 L 0 -35.671875 L 4.53125 -35.671875 Z M 13.984375 -17.78125 "/></g></g><g style="fill:#0a703f;fill-opacity:1;"><g transform="translate(859.209018, 279.064465)"><path style="stroke:none" d="M 27.328125 -13.421875 C 27.328125 -11.222656 27.039062 -9.257812 26.46875 -7.53125 C 25.90625 -5.8125 25.082031 -4.359375 24 -3.171875 C 22.925781 -1.984375 21.628906 -1.078125 20.109375 -0.453125 C 18.585938 0.171875 16.867188 0.484375 14.953125 0.484375 C 13.160156 0.484375 11.519531 0.171875 10.03125 -0.453125 C 8.550781 -1.078125 7.269531 -1.984375 6.1875 -3.171875 C 5.101562 -4.359375 4.265625 -5.8125 3.671875 -7.53125 C 3.078125 -9.257812 2.78125 -11.222656 2.78125 -13.421875 C 2.78125 -16.347656 3.273438 -18.835938 4.265625 -20.890625 C 5.265625 -22.953125 6.6875 -24.523438 8.53125 -25.609375 C 10.375 -26.691406 12.570312 -27.234375 15.125 -27.234375 C 17.5625 -27.234375 19.695312 -26.6875 21.53125 -25.59375 C 23.363281 -24.5 24.785156 -22.921875 25.796875 -20.859375 C 26.816406 -18.804688 27.328125 -16.328125 27.328125 -13.421875 Z M 6.984375 -13.421875 C 6.984375 -11.273438 7.265625 -9.410156 7.828125 -7.828125 C 8.398438 -6.253906 9.28125 -5.035156 10.46875 -4.171875 C 11.65625 -3.304688 13.179688 -2.875 15.046875 -2.875 C 16.898438 -2.875 18.425781 -3.304688 19.625 -4.171875 C 20.820312 -5.035156 21.703125 -6.253906 22.265625 -7.828125 C 22.835938 -9.410156 23.125 -11.273438 23.125 -13.421875 C 23.125 -15.546875 22.835938 -17.382812 22.265625 -18.9375 C 21.703125 -20.5 20.828125 -21.703125 19.640625 -22.546875 C 18.453125 -23.390625 16.914062 -23.8125 15.03125 -23.8125 C 12.25 -23.8125 10.210938 -22.890625 8.921875 -21.046875 C 7.628906 -19.210938 6.984375 -16.671875 6.984375 -13.421875 Z M 6.984375 -13.421875 "/></g></g><g style="fill:#0a703f;fill-opacity:1;"><g transform="translate(889.268584, 279.064465)"><path style="stroke:none" d="M 26.34375 -26.734375 L 26.34375 0 L 23.03125 0 L 22.453125 -3.75 L 22.234375 -3.75 C 21.671875 -2.820312 20.953125 -2.039062 20.078125 -1.40625 C 19.203125 -0.78125 18.210938 -0.3125 17.109375 0 C 16.015625 0.320312 14.847656 0.484375 13.609375 0.484375 C 11.492188 0.484375 9.722656 0.144531 8.296875 -0.53125 C 6.867188 -1.21875 5.789062 -2.273438 5.0625 -3.703125 C 4.34375 -5.140625 3.984375 -6.976562 3.984375 -9.21875 L 3.984375 -26.734375 L 8.078125 -26.734375 L 8.078125 -9.515625 C 8.078125 -7.285156 8.578125 -5.617188 9.578125 -4.515625 C 10.585938 -3.421875 12.128906 -2.875 14.203125 -2.875 C 16.179688 -2.875 17.757812 -3.25 18.9375 -4 C 20.125 -4.75 20.976562 -5.847656 21.5 -7.296875 C 22.019531 -8.753906 22.28125 -10.539062 22.28125 -12.65625 L 22.28125 -26.734375 Z M 26.34375 -26.734375 "/></g></g><g style="fill:#0a703f;fill-opacity:1;"><g transform="translate(919.913725, 279.064465)"><path style="stroke:none" d="M 7.921875 -9.90625 L 5.265625 -9.90625 L 4.140625 -35.671875 L 9.046875 -35.671875 Z M 3.65625 -2.53125 C 3.65625 -3.675781 3.929688 -4.488281 4.484375 -4.96875 C 5.035156 -5.445312 5.726562 -5.6875 6.5625 -5.6875 C 7.375 -5.6875 8.0625 -5.445312 8.625 -4.96875 C 9.1875 -4.488281 9.46875 -3.675781 9.46875 -2.53125 C 9.46875 -1.414062 9.1875 -0.597656 8.625 -0.078125 C 8.0625 0.429688 7.375 0.6875 6.5625 0.6875 C 5.726562 0.6875 5.035156 0.429688 4.484375 -0.078125 C 3.929688 -0.597656 3.65625 -1.414062 3.65625 -2.53125 Z M 3.65625 -2.53125 "/></g></g><g style="fill:#0a703f;fill-opacity:1;"><g transform="translate(342.524422, 365.024855)"><path style="stroke:none" d="M 20.4375 -7.921875 C 20.4375 -6.234375 20.023438 -4.765625 19.203125 -3.515625 C 18.390625 -2.265625 17.195312 -1.300781 15.625 -0.625 C 14.0625 0.0507812 12.160156 0.390625 9.921875 0.390625 C 8.929688 0.390625 7.960938 0.320312 7.015625 0.1875 C 6.078125 0.0625 5.171875 -0.125 4.296875 -0.375 C 3.429688 -0.632812 2.609375 -0.953125 1.828125 -1.328125 L 1.828125 -6.953125 C 3.179688 -6.347656 4.585938 -5.804688 6.046875 -5.328125 C 7.503906 -4.847656 8.953125 -4.609375 10.390625 -4.609375 C 11.378906 -4.609375 12.175781 -4.738281 12.78125 -5 C 13.382812 -5.257812 13.820312 -5.613281 14.09375 -6.0625 C 14.363281 -6.519531 14.5 -7.046875 14.5 -7.640625 C 14.5 -8.347656 14.257812 -8.957031 13.78125 -9.46875 C 13.300781 -9.976562 12.640625 -10.453125 11.796875 -10.890625 C 10.960938 -11.335938 10.019531 -11.8125 8.96875 -12.3125 C 8.300781 -12.625 7.578125 -13.003906 6.796875 -13.453125 C 6.015625 -13.910156 5.269531 -14.460938 4.5625 -15.109375 C 3.863281 -15.765625 3.289062 -16.554688 2.84375 -17.484375 C 2.394531 -18.410156 2.171875 -19.523438 2.171875 -20.828125 C 2.171875 -22.535156 2.5625 -23.992188 3.34375 -25.203125 C 4.125 -26.410156 5.238281 -27.335938 6.6875 -27.984375 C 8.132812 -28.628906 9.847656 -28.953125 11.828125 -28.953125 C 13.316406 -28.953125 14.734375 -28.78125 16.078125 -28.4375 C 17.421875 -28.09375 18.828125 -27.59375 20.296875 -26.9375 L 18.359375 -22.234375 C 17.035156 -22.765625 15.851562 -23.175781 14.8125 -23.46875 C 13.769531 -23.769531 12.710938 -23.921875 11.640625 -23.921875 C 10.878906 -23.921875 10.234375 -23.796875 9.703125 -23.546875 C 9.171875 -23.304688 8.765625 -22.96875 8.484375 -22.53125 C 8.210938 -22.101562 8.078125 -21.601562 8.078125 -21.03125 C 8.078125 -20.351562 8.273438 -19.78125 8.671875 -19.3125 C 9.078125 -18.851562 9.675781 -18.410156 10.46875 -17.984375 C 11.269531 -17.554688 12.269531 -17.054688 13.46875 -16.484375 C 14.925781 -15.785156 16.171875 -15.0625 17.203125 -14.3125 C 18.242188 -13.570312 19.039062 -12.695312 19.59375 -11.6875 C 20.15625 -10.675781 20.4375 -9.421875 20.4375 -7.921875 Z M 20.4375 -7.921875 "/></g></g><g style="fill:#0a703f;fill-opacity:1;"><g transform="translate(364.543368, 365.024855)"><path style="stroke:none" d="M 21.0625 0 L 19 -6.796875 L 8.59375 -6.796875 L 6.515625 0 L 0 0 L 10.078125 -28.65625 L 17.46875 -28.65625 L 27.59375 0 Z M 17.546875 -11.875 L 15.484375 -18.515625 C 15.347656 -18.953125 15.171875 -19.519531 14.953125 -20.21875 C 14.742188 -20.914062 14.53125 -21.625 14.3125 -22.34375 C 14.101562 -23.0625 13.929688 -23.691406 13.796875 -24.234375 C 13.671875 -23.691406 13.492188 -23.023438 13.265625 -22.234375 C 13.035156 -21.453125 12.816406 -20.707031 12.609375 -20 C 12.398438 -19.300781 12.25 -18.804688 12.15625 -18.515625 L 10.109375 -11.875 Z M 12.828125 -37.34375 C 13.210938 -36.75 13.679688 -36.085938 14.234375 -35.359375 C 14.785156 -34.628906 15.347656 -33.921875 15.921875 -33.234375 C 16.492188 -32.554688 16.988281 -31.96875 17.40625 -31.46875 L 17.40625 -30.953125 L 13.46875 -30.953125 C 12.957031 -31.296875 12.363281 -31.734375 11.6875 -32.265625 C 11.007812 -32.796875 10.316406 -33.347656 9.609375 -33.921875 C 8.898438 -34.503906 8.238281 -35.0625 7.625 -35.59375 C 7.019531 -36.125 6.523438 -36.570312 6.140625 -36.9375 L 6.140625 -37.34375 Z M 12.828125 -37.34375 "/></g></g><g style="fill:#0a703f;fill-opacity:1;"><g transform="translate(392.125617, 365.024855)"><path style="stroke:none" d="M 28.921875 0 L 21.21875 0 L 8.8125 -21.59375 L 8.625 -21.59375 C 8.675781 -20.695312 8.722656 -19.789062 8.765625 -18.875 C 8.804688 -17.96875 8.84375 -17.0625 8.875 -16.15625 C 8.914062 -15.25 8.957031 -14.34375 9 -13.4375 L 9 0 L 3.59375 0 L 3.59375 -28.546875 L 11.21875 -28.546875 L 23.625 -7.171875 L 23.765625 -7.171875 C 23.734375 -8.054688 23.695312 -8.929688 23.65625 -9.796875 C 23.625 -10.671875 23.585938 -11.539062 23.546875 -12.40625 C 23.515625 -13.28125 23.488281 -14.15625 23.46875 -15.03125 L 23.46875 -28.546875 L 28.921875 -28.546875 Z M 28.921875 0 "/></g></g><g style="fill:#0a703f;fill-opacity:1;"><g transform="translate(424.626992, 365.024855)"><path style="stroke:none" d=""/></g></g><g style="fill:#0a703f;fill-opacity:1;"><g transform="translate(435.011814, 365.024855)"><path style="stroke:none" d="M 14.609375 0 L 8.546875 0 L 8.546875 -23.5 L 0.796875 -23.5 L 0.796875 -28.546875 L 22.359375 -28.546875 L 22.359375 -23.5 L 14.609375 -23.5 Z M 14.609375 0 "/></g></g><g style="fill:#0a703f;fill-opacity:1;"><g transform="translate(458.16294, 365.024855)"><path style="stroke:none" d="M 15.671875 0 L 8.8125 -22.390625 L 8.625 -22.390625 C 8.65625 -21.859375 8.695312 -21.054688 8.75 -19.984375 C 8.8125 -18.910156 8.867188 -17.765625 8.921875 -16.546875 C 8.972656 -15.335938 9 -14.25 9 -13.28125 L 9 0 L 3.59375 0 L 3.59375 -28.546875 L 11.828125 -28.546875 L 18.59375 -6.71875 L 18.703125 -6.71875 L 25.875 -28.546875 L 34.109375 -28.546875 L 34.109375 0 L 28.46875 0 L 28.46875 -13.515625 C 28.46875 -14.410156 28.484375 -15.441406 28.515625 -16.609375 C 28.546875 -17.785156 28.585938 -18.898438 28.640625 -19.953125 C 28.691406 -21.015625 28.734375 -21.816406 28.765625 -22.359375 L 28.578125 -22.359375 L 21.21875 0 Z M 15.671875 0 "/></g></g><g style="fill:#0a703f;fill-opacity:1;"><g transform="translate(495.856726, 365.024855)"><path style="stroke:none" d="M 12.546875 -28.546875 C 15.546875 -28.546875 18.144531 -28.015625 20.34375 -26.953125 C 22.539062 -25.890625 24.242188 -24.320312 25.453125 -22.25 C 26.671875 -20.175781 27.28125 -17.609375 27.28125 -14.546875 C 27.28125 -11.328125 26.660156 -8.640625 25.421875 -6.484375 C 24.191406 -4.335938 22.410156 -2.71875 20.078125 -1.625 C 17.753906 -0.539062 14.953125 0 11.671875 0 L 3.59375 0 L 3.59375 -11.640625 L 0.921875 -11.640625 L 0.921875 -16.59375 L 3.59375 -16.59375 L 3.59375 -28.546875 Z M 12.828125 -23.578125 L 9.640625 -23.578125 L 9.640625 -16.59375 L 14.265625 -16.59375 L 14.265625 -11.640625 L 9.640625 -11.640625 L 9.640625 -5 L 12.203125 -5 C 15.117188 -5 17.3125 -5.785156 18.78125 -7.359375 C 20.25 -8.929688 20.984375 -11.273438 20.984375 -14.390625 C 20.984375 -16.492188 20.664062 -18.222656 20.03125 -19.578125 C 19.394531 -20.941406 18.46875 -21.945312 17.25 -22.59375 C 16.039062 -23.25 14.566406 -23.578125 12.828125 -23.578125 Z M 12.828125 -23.578125 "/></g></g><g style="fill:#0a703f;fill-opacity:1;"><g transform="translate(525.449565, 365.024855)"><path style="stroke:none" d="M 14.609375 0 L 8.546875 0 L 8.546875 -23.5 L 0.796875 -23.5 L 0.796875 -28.546875 L 22.359375 -28.546875 L 22.359375 -23.5 L 14.609375 -23.5 Z M 14.609375 0 "/></g></g><g style="fill:#0a703f;fill-opacity:1;"><g transform="translate(548.600691, 365.024855)"><path style="stroke:none" d=""/></g></g><g style="fill:#0a703f;fill-opacity:1;"><g transform="translate(558.985513, 365.024855)"><path style="stroke:none" d="M 20.4375 -7.921875 C 20.4375 -6.234375 20.023438 -4.765625 19.203125 -3.515625 C 18.390625 -2.265625 17.195312 -1.300781 15.625 -0.625 C 14.0625 0.0507812 12.160156 0.390625 9.921875 0.390625 C 8.929688 0.390625 7.960938 0.320312 7.015625 0.1875 C 6.078125 0.0625 5.171875 -0.125 4.296875 -0.375 C 3.429688 -0.632812 2.609375 -0.953125 1.828125 -1.328125 L 1.828125 -6.953125 C 3.179688 -6.347656 4.585938 -5.804688 6.046875 -5.328125 C 7.503906 -4.847656 8.953125 -4.609375 10.390625 -4.609375 C 11.378906 -4.609375 12.175781 -4.738281 12.78125 -5 C 13.382812 -5.257812 13.820312 -5.613281 14.09375 -6.0625 C 14.363281 -6.519531 14.5 -7.046875 14.5 -7.640625 C 14.5 -8.347656 14.257812 -8.957031 13.78125 -9.46875 C 13.300781 -9.976562 12.640625 -10.453125 11.796875 -10.890625 C 10.960938 -11.335938 10.019531 -11.8125 8.96875 -12.3125 C 8.300781 -12.625 7.578125 -13.003906 6.796875 -13.453125 C 6.015625 -13.910156 5.269531 -14.460938 4.5625 -15.109375 C 3.863281 -15.765625 3.289062 -16.554688 2.84375 -17.484375 C 2.394531 -18.410156 2.171875 -19.523438 2.171875 -20.828125 C 2.171875 -22.535156 2.5625 -23.992188 3.34375 -25.203125 C 4.125 -26.410156 5.238281 -27.335938 6.6875 -27.984375 C 8.132812 -28.628906 9.847656 -28.953125 11.828125 -28.953125 C 13.316406 -28.953125 14.734375 -28.78125 16.078125 -28.4375 C 17.421875 -28.09375 18.828125 -27.59375 20.296875 -26.9375 L 18.359375 -22.234375 C 17.035156 -22.765625 15.851562 -23.175781 14.8125 -23.46875 C 13.769531 -23.769531 12.710938 -23.921875 11.640625 -23.921875 C 10.878906 -23.921875 10.234375 -23.796875 9.703125 -23.546875 C 9.171875 -23.304688 8.765625 -22.96875 8.484375 -22.53125 C 8.210938 -22.101562 8.078125 -21.601562 8.078125 -21.03125 C 8.078125 -20.351562 8.273438 -19.78125 8.671875 -19.3125 C 9.078125 -18.851562 9.675781 -18.410156 10.46875 -17.984375 C 11.269531 -17.554688 12.269531 -17.054688 13.46875 -16.484375 C 14.925781 -15.785156 16.171875 -15.0625 17.203125 -14.3125 C 18.242188 -13.570312 19.039062 -12.695312 19.59375 -11.6875 C 20.15625 -10.675781 20.4375 -9.421875 20.4375 -7.921875 Z M 20.4375 -7.921875 "/></g></g><g style="fill:#0a703f;fill-opacity:1;"><g transform="translate(581.004458, 365.024855)"><path style="stroke:none" d="M 26.828125 -28.546875 L 26.828125 -24.875 C 27.472656 -25.101562 28 -25.472656 28.40625 -25.984375 C 28.820312 -26.503906 29.128906 -27.140625 29.328125 -27.890625 C 29.535156 -28.640625 29.640625 -29.46875 29.640625 -30.375 L 35.515625 -30.375 L 35.78125 -29.953125 C 35.5625 -28.867188 35.269531 -27.851562 34.90625 -26.90625 C 34.539062 -25.957031 34.035156 -25.097656 33.390625 -24.328125 C 32.742188 -23.566406 31.890625 -22.925781 30.828125 -22.40625 C 29.773438 -21.882812 28.441406 -21.507812 26.828125 -21.28125 L 26.828125 -10.078125 C 26.828125 -8.109375 26.394531 -6.332031 25.53125 -4.75 C 24.664062 -3.164062 23.359375 -1.910156 21.609375 -0.984375 C 19.859375 -0.0664062 17.65625 0.390625 15 0.390625 C 11.21875 0.390625 8.335938 -0.570312 6.359375 -2.5 C 4.378906 -4.425781 3.390625 -6.976562 3.390625 -10.15625 L 3.390625 -28.546875 L 9.4375 -28.546875 L 9.4375 -10.59375 C 9.4375 -8.476562 9.914062 -6.960938 10.875 -6.046875 C 11.832031 -5.140625 13.257812 -4.6875 15.15625 -4.6875 C 16.476562 -4.6875 17.550781 -4.90625 18.375 -5.34375 C 19.207031 -5.789062 19.816406 -6.457031 20.203125 -7.34375 C 20.597656 -8.226562 20.796875 -9.328125 20.796875 -10.640625 L 20.796875 -28.546875 Z M 22.78125 -37.34375 L 22.78125 -36.9375 C 22.40625 -36.570312 21.910156 -36.125 21.296875 -35.59375 C 20.691406 -35.0625 20.035156 -34.503906 19.328125 -33.921875 C 18.628906 -33.347656 17.941406 -32.796875 17.265625 -32.265625 C 16.585938 -31.734375 15.992188 -31.296875 15.484375 -30.953125 L 11.515625 -30.953125 L 11.515625 -31.46875 C 11.953125 -31.96875 12.453125 -32.554688 13.015625 -33.234375 C 13.578125 -33.921875 14.140625 -34.628906 14.703125 -35.359375 C 15.265625 -36.085938 15.734375 -36.75 16.109375 -37.34375 Z M 22.78125 -37.34375 "/></g></g><g style="fill:#0a703f;fill-opacity:1;"><g transform="translate(616.375319, 365.024855)"><path style="stroke:none" d="M 15.71875 -23.921875 C 14.5625 -23.921875 13.535156 -23.691406 12.640625 -23.234375 C 11.742188 -22.785156 10.992188 -22.140625 10.390625 -21.296875 C 9.785156 -20.453125 9.328125 -19.429688 9.015625 -18.234375 C 8.703125 -17.035156 8.546875 -15.6875 8.546875 -14.1875 C 8.546875 -12.175781 8.796875 -10.457031 9.296875 -9.03125 C 9.796875 -7.601562 10.570312 -6.515625 11.625 -5.765625 C 12.6875 -5.015625 14.050781 -4.640625 15.71875 -4.640625 C 16.875 -4.640625 18.035156 -4.769531 19.203125 -5.03125 C 20.367188 -5.289062 21.632812 -5.664062 23 -6.15625 L 23 -1.078125 C 21.738281 -0.554688 20.492188 -0.179688 19.265625 0.046875 C 18.046875 0.273438 16.675781 0.390625 15.15625 0.390625 C 12.207031 0.390625 9.785156 -0.21875 7.890625 -1.4375 C 6.003906 -2.65625 4.601562 -4.359375 3.6875 -6.546875 C 2.78125 -8.742188 2.328125 -11.304688 2.328125 -14.234375 C 2.328125 -16.390625 2.617188 -18.363281 3.203125 -20.15625 C 3.785156 -21.957031 4.644531 -23.515625 5.78125 -24.828125 C 6.914062 -26.148438 8.3125 -27.164062 9.96875 -27.875 C 11.632812 -28.59375 13.550781 -28.953125 15.71875 -28.953125 C 17.132812 -28.953125 18.554688 -28.769531 19.984375 -28.40625 C 21.410156 -28.050781 22.773438 -27.5625 24.078125 -26.9375 L 22.125 -22.015625 C 21.050781 -22.523438 19.972656 -22.96875 18.890625 -23.34375 C 17.816406 -23.726562 16.757812 -23.921875 15.71875 -23.921875 Z M 15.71875 -23.921875 "/></g></g><g style="fill:#0a703f;fill-opacity:1;"><g transform="translate(641.84936, 365.024855)"><path style="stroke:none" d=""/></g></g><g style="fill:#0a703f;fill-opacity:1;"><g transform="translate(652.234205, 365.024855)"><path style="stroke:none" d="M 26.546875 0 L 19.6875 0 L 12.203125 -12.03125 L 9.640625 -10.1875 L 9.640625 0 L 3.59375 0 L 3.59375 -28.546875 L 9.640625 -28.546875 L 9.640625 -15.484375 C 10.046875 -16.046875 10.441406 -16.601562 10.828125 -17.15625 C 11.222656 -17.71875 11.625 -18.28125 12.03125 -18.84375 L 19.765625 -28.546875 L 26.46875 -28.546875 L 16.515625 -15.90625 Z M 26.546875 0 "/></g></g><g style="fill:#0a703f;fill-opacity:1;"><g transform="translate(678.78187, 365.024855)"><path style="stroke:none" d="M 26.984375 0 L 20.953125 0 L 20.953125 -12.3125 L 9.640625 -12.3125 L 9.640625 0 L 3.59375 0 L 3.59375 -28.546875 L 9.640625 -28.546875 L 9.640625 -17.359375 L 20.953125 -17.359375 L 20.953125 -28.546875 L 26.984375 -28.546875 Z M 26.984375 0 "/></g></g><g style="fill:#0a703f;fill-opacity:1;"><g transform="translate(709.370229, 365.024855)"><path style="stroke:none" d="M 29.5 -14.3125 C 29.5 -12.113281 29.222656 -10.113281 28.671875 -8.3125 C 28.128906 -6.507812 27.300781 -4.957031 26.1875 -3.65625 C 25.070312 -2.351562 23.660156 -1.351562 21.953125 -0.65625 C 20.253906 0.0390625 18.238281 0.390625 15.90625 0.390625 C 13.582031 0.390625 11.566406 0.0390625 9.859375 -0.65625 C 8.148438 -1.351562 6.738281 -2.351562 5.625 -3.65625 C 4.519531 -4.957031 3.691406 -6.507812 3.140625 -8.3125 C 2.597656 -10.125 2.328125 -12.132812 2.328125 -14.34375 C 2.328125 -17.300781 2.8125 -19.875 3.78125 -22.0625 C 4.75 -24.257812 6.238281 -25.960938 8.25 -27.171875 C 10.269531 -28.390625 12.835938 -29 15.953125 -29 C 19.046875 -29 21.59375 -28.390625 23.59375 -27.171875 C 25.59375 -25.960938 27.078125 -24.257812 28.046875 -22.0625 C 29.015625 -19.863281 29.5 -17.28125 29.5 -14.3125 Z M 8.671875 -14.3125 C 8.671875 -12.320312 8.921875 -10.609375 9.421875 -9.171875 C 9.921875 -7.734375 10.703125 -6.625 11.765625 -5.84375 C 12.835938 -5.070312 14.21875 -4.6875 15.90625 -4.6875 C 17.625 -4.6875 19.015625 -5.070312 20.078125 -5.84375 C 21.148438 -6.625 21.929688 -7.734375 22.421875 -9.171875 C 22.910156 -10.609375 23.15625 -12.320312 23.15625 -14.3125 C 23.15625 -17.300781 22.59375 -19.65625 21.46875 -21.375 C 20.351562 -23.09375 18.515625 -23.953125 15.953125 -23.953125 C 14.242188 -23.953125 12.851562 -23.5625 11.78125 -22.78125 C 10.707031 -22.007812 9.921875 -20.90625 9.421875 -19.46875 C 8.921875 -18.03125 8.671875 -16.3125 8.671875 -14.3125 Z M 20.953125 -35.625 C 20.953125 -34.625 20.6875 -33.796875 20.15625 -33.140625 C 19.625 -32.492188 18.835938 -32.039062 17.796875 -31.78125 L 17.59375 -30.390625 L 14.203125 -30.390625 L 13.75 -33.265625 C 14.726562 -33.421875 15.390625 -33.664062 15.734375 -34 C 16.085938 -34.332031 16.265625 -34.738281 16.265625 -35.21875 C 16.265625 -35.632812 16.128906 -35.953125 15.859375 -36.171875 C 15.585938 -36.390625 15.226562 -36.5 14.78125 -36.5 C 14.257812 -36.5 13.78125 -36.457031 13.34375 -36.375 C 12.914062 -36.289062 12.492188 -36.1875 12.078125 -36.0625 L 12.078125 -39.328125 C 12.453125 -39.460938 12.957031 -39.570312 13.59375 -39.65625 C 14.226562 -39.738281 14.867188 -39.78125 15.515625 -39.78125 C 17.316406 -39.78125 18.671875 -39.414062 19.578125 -38.6875 C 20.492188 -37.957031 20.953125 -36.9375 20.953125 -35.625 Z M 20.953125 -35.625 "/></g></g><g style="fill:#0a703f;fill-opacity:1;"><g transform="translate(741.188398, 365.024855)"><path style="stroke:none" d="M 20.03125 0 L 3.59375 0 L 3.59375 -28.546875 L 20.03125 -28.546875 L 20.03125 -23.578125 L 9.640625 -23.578125 L 9.640625 -17.3125 L 19.3125 -17.3125 L 19.3125 -12.359375 L 9.640625 -12.359375 L 9.640625 -5 L 20.03125 -5 Z M 20.03125 0 "/></g></g><g style="fill:#0a703f;fill-opacity:1;"><g transform="translate(763.578236, 365.024855)"><path style="stroke:none" d=""/></g></g><g style="fill:#0a703f;fill-opacity:1;"><g transform="translate(773.963036, 365.024855)"><path style="stroke:none" d="M 12.390625 -28.953125 C 13.929688 -28.953125 15.300781 -28.710938 16.5 -28.234375 C 17.695312 -27.753906 18.640625 -27.050781 19.328125 -26.125 C 20.023438 -25.195312 20.375 -24.070312 20.375 -22.75 C 20.375 -20.914062 19.832031 -19.375 18.75 -18.125 C 17.664062 -16.875 16.3125 -15.78125 14.6875 -14.84375 L 20.21875 -9.4375 C 20.769531 -10.332031 21.238281 -11.28125 21.625 -12.28125 C 22.007812 -13.28125 22.34375 -14.289062 22.625 -15.3125 L 28.84375 -15.3125 C 28.4375 -13.8125 27.84375 -12.210938 27.0625 -10.515625 C 26.289062 -8.816406 25.304688 -7.21875 24.109375 -5.71875 L 29.984375 0 L 22.625 0 L 20.375 -2.203125 C 19.613281 -1.671875 18.789062 -1.207031 17.90625 -0.8125 C 17.03125 -0.425781 16.09375 -0.128906 15.09375 0.078125 C 14.101562 0.285156 13.054688 0.390625 11.953125 0.390625 C 9.785156 0.390625 7.925781 0.0507812 6.375 -0.625 C 4.832031 -1.300781 3.648438 -2.25 2.828125 -3.46875 C 2.003906 -4.6875 1.59375 -6.101562 1.59375 -7.71875 C 1.59375 -9.070312 1.800781 -10.234375 2.21875 -11.203125 C 2.632812 -12.171875 3.234375 -13.019531 4.015625 -13.75 C 4.796875 -14.488281 5.734375 -15.171875 6.828125 -15.796875 C 6.140625 -16.597656 5.585938 -17.347656 5.171875 -18.046875 C 4.765625 -18.753906 4.472656 -19.457031 4.296875 -20.15625 C 4.128906 -20.851562 4.046875 -21.585938 4.046875 -22.359375 C 4.046875 -23.710938 4.398438 -24.878906 5.109375 -25.859375 C 5.816406 -26.835938 6.796875 -27.597656 8.046875 -28.140625 C 9.304688 -28.679688 10.753906 -28.953125 12.390625 -28.953125 Z M 10.3125 -12.234375 C 9.8125 -11.859375 9.375 -11.46875 9 -11.0625 C 8.632812 -10.664062 8.351562 -10.238281 8.15625 -9.78125 C 7.96875 -9.320312 7.875 -8.820312 7.875 -8.28125 C 7.875 -7.132812 8.300781 -6.234375 9.15625 -5.578125 C 10.007812 -4.929688 11.078125 -4.609375 12.359375 -4.609375 C 13.210938 -4.609375 14.007812 -4.710938 14.75 -4.921875 C 15.5 -5.128906 16.179688 -5.421875 16.796875 -5.796875 Z M 12.359375 -24.34375 C 11.691406 -24.34375 11.054688 -24.171875 10.453125 -23.828125 C 9.847656 -23.492188 9.546875 -22.863281 9.546875 -21.9375 C 9.546875 -21.289062 9.710938 -20.65625 10.046875 -20.03125 C 10.390625 -19.414062 10.84375 -18.789062 11.40625 -18.15625 C 12.519531 -18.769531 13.375 -19.382812 13.96875 -20 C 14.570312 -20.613281 14.875 -21.320312 14.875 -22.125 C 14.875 -22.914062 14.601562 -23.484375 14.0625 -23.828125 C 13.519531 -24.171875 12.953125 -24.34375 12.359375 -24.34375 Z M 12.359375 -24.34375 "/></g></g><g style="fill:#0a703f;fill-opacity:1;"><g transform="translate(803.946281, 365.024855)"><path style="stroke:none" d=""/></g></g><g style="fill:#0a703f;fill-opacity:1;"><g transform="translate(814.331126, 365.024855)"><path style="stroke:none" d="M 3.59375 0 L 3.59375 -28.546875 L 9.640625 -28.546875 L 9.640625 -5 L 21.21875 -5 L 21.21875 0 Z M 3.59375 0 "/></g></g><g style="fill:#0a703f;fill-opacity:1;"><g transform="translate(836.916156, 365.024855)"><path style="stroke:none" d="M 21.0625 0 L 19 -6.796875 L 8.59375 -6.796875 L 6.515625 0 L 0 0 L 10.078125 -28.65625 L 17.46875 -28.65625 L 27.59375 0 Z M 17.546875 -11.875 L 15.484375 -18.515625 C 15.347656 -18.953125 15.171875 -19.519531 14.953125 -20.21875 C 14.742188 -20.914062 14.53125 -21.625 14.3125 -22.34375 C 14.101562 -23.0625 13.929688 -23.691406 13.796875 -24.234375 C 13.671875 -23.691406 13.492188 -23.023438 13.265625 -22.234375 C 13.035156 -21.453125 12.816406 -20.707031 12.609375 -20 C 12.398438 -19.300781 12.25 -18.804688 12.15625 -18.515625 L 10.109375 -11.875 Z M 12.828125 -37.34375 C 13.210938 -36.75 13.679688 -36.085938 14.234375 -35.359375 C 14.785156 -34.628906 15.347656 -33.921875 15.921875 -33.234375 C 16.492188 -32.554688 16.988281 -31.96875 17.40625 -31.46875 L 17.40625 -30.953125 L 13.46875 -30.953125 C 12.957031 -31.296875 12.363281 -31.734375 11.6875 -32.265625 C 11.007812 -32.796875 10.316406 -33.347656 9.609375 -33.921875 C 8.898438 -34.503906 8.238281 -35.0625 7.625 -35.59375 C 7.019531 -36.125 6.523438 -36.570312 6.140625 -36.9375 L 6.140625 -37.34375 Z M 12.828125 -37.34375 "/></g></g><g style="fill:#0a703f;fill-opacity:1;"><g transform="translate(864.49844, 365.024855)"><path style="stroke:none" d="M 28.921875 0 L 21.21875 0 L 8.8125 -21.59375 L 8.625 -21.59375 C 8.675781 -20.695312 8.722656 -19.789062 8.765625 -18.875 C 8.804688 -17.96875 8.84375 -17.0625 8.875 -16.15625 C 8.914062 -15.25 8.957031 -14.34375 9 -13.4375 L 9 0 L 3.59375 0 L 3.59375 -28.546875 L 11.21875 -28.546875 L 23.625 -7.171875 L 23.765625 -7.171875 C 23.734375 -8.054688 23.695312 -8.929688 23.65625 -9.796875 C 23.625 -10.671875 23.585938 -11.539062 23.546875 -12.40625 C 23.515625 -13.28125 23.488281 -14.15625 23.46875 -15.03125 L 23.46875 -28.546875 L 28.921875 -28.546875 Z M 28.921875 0 "/></g></g><g style="fill:#0a703f;fill-opacity:1;"><g transform="translate(896.999781, 365.024855)"><path style="stroke:none" d="M 26.984375 0 L 20.953125 0 L 20.953125 -12.3125 L 9.640625 -12.3125 L 9.640625 0 L 3.59375 0 L 3.59375 -28.546875 L 9.640625 -28.546875 L 9.640625 -17.359375 L 20.953125 -17.359375 L 20.953125 -28.546875 L 26.984375 -28.546875 Z M 26.984375 0 "/></g></g><g style="fill:#0a703f;fill-opacity:1;"><g transform="translate(927.588186, 365.024855)"><path style="stroke:none" d=""/></g></g><g style="fill:#0a703f;fill-opacity:1;"><g transform="translate(937.972985, 365.024855)"><path style="stroke:none" d="M 15.671875 0 L 8.8125 -22.390625 L 8.625 -22.390625 C 8.65625 -21.859375 8.695312 -21.054688 8.75 -19.984375 C 8.8125 -18.910156 8.867188 -17.765625 8.921875 -16.546875 C 8.972656 -15.335938 9 -14.25 9 -13.28125 L 9 0 L 3.59375 0 L 3.59375 -28.546875 L 11.828125 -28.546875 L 18.59375 -6.71875 L 18.703125 -6.71875 L 25.875 -28.546875 L 34.109375 -28.546875 L 34.109375 0 L 28.46875 0 L 28.46875 -13.515625 C 28.46875 -14.410156 28.484375 -15.441406 28.515625 -16.609375 C 28.546875 -17.785156 28.585938 -18.898438 28.640625 -19.953125 C 28.691406 -21.015625 28.734375 -21.816406 28.765625 -22.359375 L 28.578125 -22.359375 L 21.21875 0 Z M 15.671875 0 "/></g></g><g style="fill:#0a703f;fill-opacity:1;"><g transform="translate(975.666771, 365.024855)"><path style="stroke:none" d="M 21.0625 0 L 19 -6.796875 L 8.59375 -6.796875 L 6.515625 0 L 0 0 L 10.078125 -28.65625 L 17.46875 -28.65625 L 27.59375 0 Z M 17.546875 -11.875 L 15.484375 -18.515625 C 15.347656 -18.953125 15.171875 -19.519531 14.953125 -20.21875 C 14.742188 -20.914062 14.53125 -21.625 14.3125 -22.34375 C 14.101562 -23.0625 13.929688 -23.691406 13.796875 -24.234375 C 13.671875 -23.691406 13.492188 -23.023438 13.265625 -22.234375 C 13.035156 -21.453125 12.816406 -20.707031 12.609375 -20 C 12.398438 -19.300781 12.25 -18.804688 12.15625 -18.515625 L 10.109375 -11.875 Z M 13.765625 8.390625 C 12.867188 8.390625 12.101562 8.175781 11.46875 7.75 C 10.84375 7.332031 10.53125 6.578125 10.53125 5.484375 C 10.53125 4.367188 10.84375 3.601562 11.46875 3.1875 C 12.101562 2.769531 12.867188 2.5625 13.765625 2.5625 C 14.648438 2.5625 15.410156 2.769531 16.046875 3.1875 C 16.679688 3.601562 17 4.367188 17 5.484375 C 17 6.578125 16.679688 7.332031 16.046875 7.75 C 15.410156 8.175781 14.648438 8.390625 13.765625 8.390625 Z M 13.765625 8.390625 "/></g></g><g style="fill:#0a703f;fill-opacity:1;"><g transform="translate(1003.249009, 365.024855)"><path style="stroke:none" d="M 28.921875 0 L 21.21875 0 L 8.8125 -21.59375 L 8.625 -21.59375 C 8.675781 -20.695312 8.722656 -19.789062 8.765625 -18.875 C 8.804688 -17.96875 8.84375 -17.0625 8.875 -16.15625 C 8.914062 -15.25 8.957031 -14.34375 9 -13.4375 L 9 0 L 3.59375 0 L 3.59375 -28.546875 L 11.21875 -28.546875 L 23.625 -7.171875 L 23.765625 -7.171875 C 23.734375 -8.054688 23.695312 -8.929688 23.65625 -9.796875 C 23.625 -10.671875 23.585938 -11.539062 23.546875 -12.40625 C 23.515625 -13.28125 23.488281 -14.15625 23.46875 -15.03125 L 23.46875 -28.546875 L 28.921875 -28.546875 Z M 28.921875 0 "/></g></g><g style="fill:#0a703f;fill-opacity:1;"><g transform="translate(1035.750396, 365.024855)"><path style="stroke:none" d="M 26.984375 0 L 20.953125 0 L 20.953125 -12.3125 L 9.640625 -12.3125 L 9.640625 0 L 3.59375 0 L 3.59375 -28.546875 L 9.640625 -28.546875 L 9.640625 -17.359375 L 20.953125 -17.359375 L 20.953125 -28.546875 L 26.984375 -28.546875 Z M 26.984375 0 "/></g></g></g></svg>