<svg xmlns="http://www.w3.org/2000/svg" xmlns:xlink="http://www.w3.org/1999/xlink" width="1451" zoomAndPan="magnify" viewBox="0 0 1088.25 485.999983" height="648" preserveAspectRatio="xMidYMid meet" version="1.2"><defs><clipPath id="af021d757a"><path d="M 0 0.167969 L 1087.5 0.167969 L 1087.5 485.832031 L 0 485.832031 Z M 0 0.167969 "/></clipPath><clipPath id="e4f08324b9"><path d="M 60 125 L 357 125 L 357 222 L 60 222 Z M 60 125 "/></clipPath><clipPath id="ec982a66a4"><path d="M 360.945312 133.980469 L 227.128906 305.253906 L 55.855469 171.441406 L 189.671875 0.167969 Z M 360.945312 133.980469 "/></clipPath><clipPath id="9a6775745e"><path d="M 360.945312 133.980469 L 227.128906 305.253906 L 55.855469 171.441406 L 189.671875 0.167969 Z M 360.945312 133.980469 "/></clipPath><clipPath id="98f307d149"><path d="M 102.855469 83.484375 L 177.800781 83.484375 L 177.800781 323.550781 L 102.855469 323.550781 Z M 102.855469 83.484375 "/></clipPath><clipPath id="faa0961c8f"><path d="M 140.328125 83.484375 C 161.023438 83.484375 177.800781 100.261719 177.800781 120.957031 L 177.800781 285.84375 C 177.800781 306.539062 161.023438 323.316406 140.328125 323.316406 C 119.632812 323.316406 102.855469 306.539062 102.855469 285.84375 L 102.855469 120.957031 C 102.855469 100.261719 119.632812 83.484375 140.328125 83.484375 Z M 140.328125 83.484375 "/></clipPath><clipPath id="36a7cad215"><path d="M 132.832031 98.472656 L 177.800781 98.472656 L 177.800781 143.441406 L 132.832031 143.441406 Z M 132.832031 98.472656 "/></clipPath><clipPath id="8d6c1bc03e"><path d="M 155.316406 98.472656 C 142.898438 98.472656 132.832031 108.539062 132.832031 120.957031 C 132.832031 133.375 142.898438 143.441406 155.316406 143.441406 C 167.734375 143.441406 177.800781 133.375 177.800781 120.957031 C 177.800781 108.539062 167.734375 98.472656 155.316406 98.472656 Z M 155.316406 98.472656 "/></clipPath><clipPath id="e33740aa95"><path d="M 227.769531 53.503906 L 302.714844 53.503906 L 302.714844 353.296875 L 227.769531 353.296875 Z M 227.769531 53.503906 "/></clipPath><clipPath id="445bf20b72"><path d="M 265.242188 53.503906 C 285.9375 53.503906 302.714844 70.28125 302.714844 90.976562 L 302.714844 315.824219 C 302.714844 336.519531 285.9375 353.296875 265.242188 353.296875 C 244.546875 353.296875 227.769531 336.519531 227.769531 315.824219 L 227.769531 90.976562 C 227.769531 70.28125 244.546875 53.503906 265.242188 53.503906 Z M 265.242188 53.503906 "/></clipPath><clipPath id="b7a060464b"><path d="M 227.769531 68.492188 L 272.738281 68.492188 L 272.738281 113.460938 L 227.769531 113.460938 Z M 227.769531 68.492188 "/></clipPath><clipPath id="a826570fad"><path d="M 250.253906 68.492188 C 237.835938 68.492188 227.769531 78.558594 227.769531 90.976562 C 227.769531 103.394531 237.835938 113.460938 250.253906 113.460938 C 262.671875 113.460938 272.738281 103.394531 272.738281 90.976562 C 272.738281 78.558594 262.671875 68.492188 250.253906 68.492188 Z M 250.253906 68.492188 "/></clipPath></defs><g id="e81f223d1b"><g clip-rule="nonzero" clip-path="url(#af021d757a)"><path style=" stroke:none;fill-rule:nonzero;fill:#ffffff;fill-opacity:1;" d="M 0 0.167969 L 1087.5 0.167969 L 1087.5 485.832031 L 0 485.832031 Z M 0 0.167969 "/></g><g clip-rule="nonzero" clip-path="url(#e4f08324b9)"><g clip-rule="nonzero" clip-path="url(#ec982a66a4)"><g clip-rule="nonzero" clip-path="url(#9a6775745e)"><path style=" stroke:none;fill-rule:nonzero;fill:#0a703f;fill-opacity:1;" d="M 62.519531 162.914062 C 66.195312 158.207031 73 157.375 77.707031 161.050781 C 158.039062 223.8125 274.46875 209.519531 337.230469 129.183594 C 340.910156 124.476562 347.710938 123.644531 352.417969 127.320312 C 357.125 130.996094 357.960938 137.800781 354.285156 142.507812 C 337.125 164.472656 316.171875 182.429688 292 195.867188 C 268.648438 208.84375 243.328125 217.074219 216.71875 220.339844 C 190.109375 223.605469 163.535156 221.738281 137.753906 214.804688 C 111.050781 207.617188 86.375 195.257812 64.414062 178.097656 C 59.675781 174.425781 58.839844 167.621094 62.519531 162.914062 Z M 62.519531 162.914062 "/></g></g></g><g clip-rule="nonzero" clip-path="url(#98f307d149)"><g clip-rule="nonzero" clip-path="url(#faa0961c8f)"><path style=" stroke:none;fill-rule:nonzero;fill:#0a703f;fill-opacity:1;" d="M 102.855469 83.484375 L 177.800781 83.484375 L 177.800781 323.257812 L 102.855469 323.257812 Z M 102.855469 83.484375 "/></g></g><g clip-rule="nonzero" clip-path="url(#36a7cad215)"><g clip-rule="nonzero" clip-path="url(#8d6c1bc03e)"><path style=" stroke:none;fill-rule:nonzero;fill:#ff6300;fill-opacity:1;" d="M 132.832031 98.472656 L 177.800781 98.472656 L 177.800781 143.441406 L 132.832031 143.441406 Z M 132.832031 98.472656 "/><path style="fill:none;stroke-width:12;stroke-linecap:butt;stroke-linejoin:miter;stroke:#ffffff;stroke-opacity:1;stroke-miterlimit:4;" d="M 29.998242 -0.000388909 C 13.42954 -0.000388909 -0.0015846 13.430736 -0.0015846 29.999438 C -0.0015846 46.56814 13.42954 59.999265 29.998242 59.999265 C 46.566945 59.999265 59.998069 46.56814 59.998069 29.999438 C 59.998069 13.430736 46.566945 -0.000388909 29.998242 -0.000388909 Z M 29.998242 -0.000388909 " transform="matrix(0.749483,0,0,0.749483,132.833219,98.472948)"/></g></g><g clip-rule="nonzero" clip-path="url(#e33740aa95)"><g clip-rule="nonzero" clip-path="url(#445bf20b72)"><path style=" stroke:none;fill-rule:nonzero;fill:#0a703f;fill-opacity:1;" d="M 227.769531 53.503906 L 302.714844 53.503906 L 302.714844 353.296875 L 227.769531 353.296875 Z M 227.769531 53.503906 "/></g></g><g clip-rule="nonzero" clip-path="url(#b7a060464b)"><g clip-rule="nonzero" clip-path="url(#a826570fad)"><path style=" stroke:none;fill-rule:nonzero;fill:#ff6300;fill-opacity:1;" d="M 227.769531 68.492188 L 272.738281 68.492188 L 272.738281 113.460938 L 227.769531 113.460938 Z M 227.769531 68.492188 "/><path style="fill:none;stroke-width:12;stroke-linecap:butt;stroke-linejoin:miter;stroke:#ffffff;stroke-opacity:1;stroke-miterlimit:4;" d="M 30.002119 -0.00189816 C 13.433417 -0.00189816 0.0022919 13.429227 0.0022919 29.997929 C 0.0022919 46.566631 13.433417 59.997756 30.002119 59.997756 C 46.570821 59.997756 60.001946 46.566631 60.001946 29.997929 C 60.001946 13.429227 46.570821 -0.00189816 30.002119 -0.00189816 Z M 30.002119 -0.00189816 " transform="matrix(0.749483,0,0,0.749483,227.767814,68.49361)"/></g></g><g style="fill:#ff6300;fill-opacity:1;"><g transform="translate(427.021587, 197.404762)"><path style="stroke:none" d="M 90.984375 -0.59375 C 89.878906 -0.300781 88.15625 -0.00390625 85.8125 0.296875 C 83.46875 0.597656 81.144531 0.75 78.84375 0.75 C 76.539062 0.75 74.515625 0.570312 72.765625 0.21875 C 71.023438 -0.125 69.550781 -0.742188 68.34375 -1.640625 C 67.144531 -2.546875 66.242188 -3.796875 65.640625 -5.390625 C 65.046875 -6.992188 64.75 -9.09375 64.75 -11.6875 L 64.75 -35.078125 L 35.96875 -35.078125 L 35.96875 -0.59375 C 34.875 -0.300781 33.148438 -0.00390625 30.796875 0.296875 C 28.453125 0.597656 26.128906 0.75 23.828125 0.75 C 21.535156 0.75 19.515625 0.570312 17.765625 0.21875 C 16.015625 -0.125 14.539062 -0.742188 13.34375 -1.640625 C 12.144531 -2.546875 11.242188 -3.796875 10.640625 -5.390625 C 10.046875 -6.992188 9.75 -9.09375 9.75 -11.6875 L 9.75 -90.828125 C 10.84375 -91.035156 12.585938 -91.3125 14.984375 -91.65625 C 17.390625 -92.007812 19.691406 -92.1875 21.890625 -92.1875 C 24.179688 -92.1875 26.203125 -92.007812 27.953125 -91.65625 C 29.703125 -91.3125 31.175781 -90.6875 32.375 -89.78125 C 33.570312 -88.882812 34.46875 -87.632812 35.0625 -86.03125 C 35.664062 -84.4375 35.96875 -82.335938 35.96875 -79.734375 L 35.96875 -55.765625 L 64.75 -55.765625 L 64.75 -90.828125 C 65.851562 -91.035156 67.601562 -91.3125 70 -91.65625 C 72.394531 -92.007812 74.691406 -92.1875 76.890625 -92.1875 C 79.191406 -92.1875 81.21875 -92.007812 82.96875 -91.65625 C 84.71875 -91.3125 86.191406 -90.6875 87.390625 -89.78125 C 88.585938 -88.882812 89.484375 -87.632812 90.078125 -86.03125 C 90.679688 -84.4375 90.984375 -82.335938 90.984375 -79.734375 Z M 90.984375 -0.59375 "/></g></g><g style="fill:#ff6300;fill-opacity:1;"><g transform="translate(527.752191, 197.404762)"><path style="stroke:none" d="M 29.078125 -88.140625 C 30.773438 -89.140625 33.347656 -90.085938 36.796875 -90.984375 C 40.242188 -91.878906 43.71875 -92.328125 47.21875 -92.328125 C 52.207031 -92.328125 56.625 -91.601562 60.46875 -90.15625 C 64.320312 -88.707031 66.800781 -86.4375 67.90625 -83.34375 C 69.695312 -78.144531 71.640625 -72.097656 73.734375 -65.203125 C 75.835938 -58.304688 77.9375 -51.1875 80.03125 -43.84375 C 82.132812 -36.5 84.1875 -29.253906 86.1875 -22.109375 C 88.1875 -14.960938 89.9375 -8.640625 91.4375 -3.140625 C 90.238281 -1.742188 88.4375 -0.625 86.03125 0.21875 C 83.632812 1.070312 80.789062 1.5 77.5 1.5 C 75.09375 1.5 73.066406 1.296875 71.421875 0.890625 C 69.773438 0.492188 68.425781 -0.0976562 67.375 -0.890625 C 66.320312 -1.691406 65.472656 -2.742188 64.828125 -4.046875 C 64.179688 -5.347656 63.609375 -6.847656 63.109375 -8.546875 L 60.40625 -18.890625 L 33.28125 -18.890625 C 32.476562 -15.890625 31.675781 -12.789062 30.875 -9.59375 C 30.070312 -6.394531 29.273438 -3.296875 28.484375 -0.296875 C 27.078125 0.203125 25.597656 0.625 24.046875 0.96875 C 22.503906 1.320312 20.632812 1.5 18.4375 1.5 C 13.34375 1.5 9.570312 0.625 7.125 -1.125 C 4.675781 -2.875 3.453125 -5.296875 3.453125 -8.390625 C 3.453125 -9.796875 3.648438 -11.195312 4.046875 -12.59375 C 4.441406 -13.988281 4.890625 -15.632812 5.390625 -17.53125 C 6.085938 -20.226562 7.0625 -23.578125 8.3125 -27.578125 C 9.5625 -31.578125 10.9375 -35.898438 12.4375 -40.546875 C 13.9375 -45.191406 15.535156 -49.960938 17.234375 -54.859375 C 18.929688 -59.753906 20.53125 -64.375 22.03125 -68.71875 C 23.53125 -73.070312 24.90625 -76.945312 26.15625 -80.34375 C 27.40625 -83.738281 28.378906 -86.335938 29.078125 -88.140625 Z M 47.0625 -68.796875 C 45.664062 -64.597656 44.09375 -59.925781 42.34375 -54.78125 C 40.59375 -49.632812 39.019531 -44.414062 37.625 -39.125 L 56.203125 -39.125 C 54.804688 -44.519531 53.382812 -49.789062 51.9375 -54.9375 C 50.488281 -60.082031 49.164062 -64.703125 47.96875 -68.796875 Z M 47.0625 -68.796875 "/></g></g><g style="fill:#ff6300;fill-opacity:1;"><g transform="translate(621.737421, 197.404762)"><path style="stroke:none" d="M 5.546875 -69.84375 C 4.847656 -70.945312 4.195312 -72.445312 3.59375 -74.34375 C 3 -76.238281 2.703125 -78.238281 2.703125 -80.34375 C 2.703125 -84.238281 3.570312 -87.035156 5.3125 -88.734375 C 7.0625 -90.429688 9.335938 -91.28125 12.140625 -91.28125 L 77.5 -91.28125 C 78.195312 -90.1875 78.84375 -88.6875 79.4375 -86.78125 C 80.039062 -84.882812 80.34375 -82.890625 80.34375 -80.796875 C 80.34375 -76.898438 79.46875 -74.097656 77.71875 -72.390625 C 75.96875 -70.691406 73.691406 -69.84375 70.890625 -69.84375 L 54.265625 -69.84375 L 54.265625 -0.59375 C 53.160156 -0.300781 51.429688 -0.00390625 49.078125 0.296875 C 46.734375 0.597656 44.414062 0.75 42.125 0.75 C 39.820312 0.75 37.796875 0.570312 36.046875 0.21875 C 34.296875 -0.125 32.820312 -0.742188 31.625 -1.640625 C 30.425781 -2.546875 29.523438 -3.796875 28.921875 -5.390625 C 28.328125 -6.992188 28.03125 -9.09375 28.03125 -11.6875 L 28.03125 -69.84375 Z M 5.546875 -69.84375 "/></g></g><g style="fill:#ff6300;fill-opacity:1;"><g transform="translate(705.080012, 197.404762)"><path style="stroke:none" d="M 90.984375 -0.59375 C 89.878906 -0.300781 88.15625 -0.00390625 85.8125 0.296875 C 83.46875 0.597656 81.144531 0.75 78.84375 0.75 C 76.539062 0.75 74.515625 0.570312 72.765625 0.21875 C 71.023438 -0.125 69.550781 -0.742188 68.34375 -1.640625 C 67.144531 -2.546875 66.242188 -3.796875 65.640625 -5.390625 C 65.046875 -6.992188 64.75 -9.09375 64.75 -11.6875 L 64.75 -35.078125 L 35.96875 -35.078125 L 35.96875 -0.59375 C 34.875 -0.300781 33.148438 -0.00390625 30.796875 0.296875 C 28.453125 0.597656 26.128906 0.75 23.828125 0.75 C 21.535156 0.75 19.515625 0.570312 17.765625 0.21875 C 16.015625 -0.125 14.539062 -0.742188 13.34375 -1.640625 C 12.144531 -2.546875 11.242188 -3.796875 10.640625 -5.390625 C 10.046875 -6.992188 9.75 -9.09375 9.75 -11.6875 L 9.75 -90.828125 C 10.84375 -91.035156 12.585938 -91.3125 14.984375 -91.65625 C 17.390625 -92.007812 19.691406 -92.1875 21.890625 -92.1875 C 24.179688 -92.1875 26.203125 -92.007812 27.953125 -91.65625 C 29.703125 -91.3125 31.175781 -90.6875 32.375 -89.78125 C 33.570312 -88.882812 34.46875 -87.632812 35.0625 -86.03125 C 35.664062 -84.4375 35.96875 -82.335938 35.96875 -79.734375 L 35.96875 -55.765625 L 64.75 -55.765625 L 64.75 -90.828125 C 65.851562 -91.035156 67.601562 -91.3125 70 -91.65625 C 72.394531 -92.007812 74.691406 -92.1875 76.890625 -92.1875 C 79.191406 -92.1875 81.21875 -92.007812 82.96875 -91.65625 C 84.71875 -91.3125 86.191406 -90.6875 87.390625 -89.78125 C 88.585938 -88.882812 89.484375 -87.632812 90.078125 -86.03125 C 90.679688 -84.4375 90.984375 -82.335938 90.984375 -79.734375 Z M 90.984375 -0.59375 "/></g></g><g style="fill:#ff6300;fill-opacity:1;"><g transform="translate(805.810627, 197.404762)"><path style="stroke:none" d="M 57.40625 -0.59375 C 56.3125 -0.300781 54.613281 -0.00390625 52.3125 0.296875 C 50.007812 0.597656 47.757812 0.75 45.5625 0.75 C 40.96875 0.75 37.519531 -0.0195312 35.21875 -1.5625 C 32.925781 -3.113281 31.78125 -6.390625 31.78125 -11.390625 L 31.78125 -31.625 C 29.28125 -35.320312 26.578125 -39.414062 23.671875 -43.90625 C 20.773438 -48.40625 17.925781 -53.003906 15.125 -57.703125 C 12.332031 -62.398438 9.738281 -67.019531 7.34375 -71.5625 C 4.945312 -76.113281 3 -80.289062 1.5 -84.09375 C 2.800781 -85.882812 4.570312 -87.53125 6.8125 -89.03125 C 9.0625 -90.53125 11.835938 -91.28125 15.140625 -91.28125 C 19.035156 -91.28125 22.207031 -90.476562 24.65625 -88.875 C 27.101562 -87.28125 29.425781 -84.285156 31.625 -79.890625 L 44.0625 -54.859375 L 44.96875 -54.859375 C 46.363281 -57.953125 47.585938 -60.773438 48.640625 -63.328125 C 49.691406 -65.878906 50.71875 -68.425781 51.71875 -70.96875 C 52.71875 -73.519531 53.765625 -76.171875 54.859375 -78.921875 C 55.960938 -81.671875 57.210938 -84.84375 58.609375 -88.4375 C 60.410156 -89.332031 62.410156 -90.03125 64.609375 -90.53125 C 66.804688 -91.03125 68.898438 -91.28125 70.890625 -91.28125 C 74.390625 -91.28125 77.363281 -90.351562 79.8125 -88.5 C 82.257812 -86.65625 83.484375 -83.882812 83.484375 -80.1875 C 83.484375 -78.988281 83.234375 -77.539062 82.734375 -75.84375 C 82.234375 -74.144531 81.082031 -71.570312 79.28125 -68.125 C 77.488281 -64.675781 74.867188 -60.003906 71.421875 -54.109375 C 67.972656 -48.210938 63.300781 -40.519531 57.40625 -31.03125 Z M 57.40625 -0.59375 "/></g></g><g style="fill:#ff6300;fill-opacity:1;"><g transform="translate(891.851363, 197.404762)"><path style="stroke:none" d="M 5.25 -45.5625 C 5.25 -53.363281 6.472656 -60.257812 8.921875 -66.25 C 11.367188 -72.25 14.710938 -77.269531 18.953125 -81.3125 C 23.203125 -85.363281 28.195312 -88.4375 33.9375 -90.53125 C 39.6875 -92.632812 45.910156 -93.6875 52.609375 -93.6875 C 59.304688 -93.6875 65.523438 -92.632812 71.265625 -90.53125 C 77.015625 -88.4375 82.035156 -85.363281 86.328125 -81.3125 C 90.628906 -77.269531 94.003906 -72.25 96.453125 -66.25 C 98.898438 -60.257812 100.125 -53.363281 100.125 -45.5625 C 100.125 -37.769531 98.925781 -30.847656 96.53125 -24.796875 C 94.132812 -18.753906 90.8125 -13.707031 86.5625 -9.65625 C 82.3125 -5.613281 77.285156 -2.539062 71.484375 -0.4375 C 65.691406 1.65625 59.398438 2.703125 52.609375 2.703125 C 45.816406 2.703125 39.519531 1.628906 33.71875 -0.515625 C 27.925781 -2.671875 22.929688 -5.796875 18.734375 -9.890625 C 14.535156 -13.984375 11.238281 -19.03125 8.84375 -25.03125 C 6.445312 -31.03125 5.25 -37.875 5.25 -45.5625 Z M 32.21875 -45.5625 C 32.21875 -36.46875 34.066406 -29.671875 37.765625 -25.171875 C 41.460938 -20.679688 46.410156 -18.4375 52.609375 -18.4375 C 58.910156 -18.4375 63.90625 -20.679688 67.59375 -25.171875 C 71.289062 -29.671875 73.140625 -36.46875 73.140625 -45.5625 C 73.140625 -54.5625 71.316406 -61.304688 67.671875 -65.796875 C 64.023438 -70.296875 59.054688 -72.546875 52.765625 -72.546875 C 46.566406 -72.546875 41.59375 -70.320312 37.84375 -65.875 C 34.09375 -61.425781 32.21875 -54.65625 32.21875 -45.5625 Z M 32.21875 -45.5625 "/></g></g><g style="fill:#0a703f;fill-opacity:1;"><g transform="translate(437.736858, 291.765077)"><path style="stroke:none" d="M 38.296875 0 L 33.3125 0 L 33.3125 -20.171875 L 10.828125 -20.171875 L 10.828125 0 L 5.859375 0 L 5.859375 -42.796875 L 10.828125 -42.796875 L 10.828125 -24.5625 L 33.3125 -24.5625 L 33.3125 -42.796875 L 38.296875 -42.796875 Z M 38.296875 0 "/></g><g transform="translate(481.94467, 291.765077)"><path style="stroke:none" d="M 17.125 -32.609375 C 20.945312 -32.609375 23.785156 -31.75 25.640625 -30.03125 C 27.492188 -28.3125 28.421875 -25.570312 28.421875 -21.8125 L 28.421875 0 L 24.890625 0 L 23.953125 -4.75 L 23.71875 -4.75 C 22.8125 -3.570312 21.867188 -2.585938 20.890625 -1.796875 C 19.921875 -1.003906 18.796875 -0.410156 17.515625 -0.015625 C 16.242188 0.378906 14.679688 0.578125 12.828125 0.578125 C 10.867188 0.578125 9.132812 0.238281 7.625 -0.4375 C 6.113281 -1.125 4.921875 -2.160156 4.046875 -3.546875 C 3.179688 -4.929688 2.75 -6.6875 2.75 -8.8125 C 2.75 -12.007812 4.015625 -14.46875 6.546875 -16.1875 C 9.085938 -17.90625 12.957031 -18.84375 18.15625 -19 L 23.6875 -19.234375 L 23.6875 -21.1875 C 23.6875 -23.957031 23.085938 -25.898438 21.890625 -27.015625 C 20.703125 -28.128906 19.023438 -28.6875 16.859375 -28.6875 C 15.179688 -28.6875 13.582031 -28.441406 12.0625 -27.953125 C 10.539062 -27.460938 9.097656 -26.890625 7.734375 -26.234375 L 6.234375 -29.921875 C 7.679688 -30.660156 9.335938 -31.289062 11.203125 -31.8125 C 13.078125 -32.34375 15.050781 -32.609375 17.125 -32.609375 Z M 23.625 -15.8125 L 18.734375 -15.609375 C 14.734375 -15.453125 11.910156 -14.796875 10.265625 -13.640625 C 8.628906 -12.492188 7.8125 -10.863281 7.8125 -8.75 C 7.8125 -6.914062 8.367188 -5.554688 9.484375 -4.671875 C 10.597656 -3.796875 12.070312 -3.359375 13.90625 -3.359375 C 16.75 -3.359375 19.078125 -4.148438 20.890625 -5.734375 C 22.710938 -7.316406 23.625 -9.6875 23.625 -12.84375 Z M 23.625 -15.8125 "/></g><g transform="translate(515.261551, 291.765077)"><path style="stroke:none" d="M 20.203125 -32.671875 C 24.203125 -32.671875 27.390625 -31.296875 29.765625 -28.546875 C 32.148438 -25.796875 33.34375 -21.65625 33.34375 -16.125 C 33.34375 -12.476562 32.796875 -9.414062 31.703125 -6.9375 C 30.609375 -4.457031 29.070312 -2.582031 27.09375 -1.3125 C 25.113281 -0.0507812 22.773438 0.578125 20.078125 0.578125 C 18.378906 0.578125 16.882812 0.351562 15.59375 -0.09375 C 14.3125 -0.539062 13.210938 -1.144531 12.296875 -1.90625 C 11.378906 -2.664062 10.617188 -3.492188 10.015625 -4.390625 L 9.65625 -4.390625 C 9.71875 -3.628906 9.789062 -2.710938 9.875 -1.640625 C 9.96875 -0.566406 10.015625 0.367188 10.015625 1.171875 L 10.015625 14.34375 L 5.125 14.34375 L 5.125 -32.078125 L 9.140625 -32.078125 L 9.78125 -27.34375 L 10.015625 -27.34375 C 10.640625 -28.320312 11.398438 -29.210938 12.296875 -30.015625 C 13.191406 -30.828125 14.285156 -31.472656 15.578125 -31.953125 C 16.878906 -32.429688 18.421875 -32.671875 20.203125 -32.671875 Z M 19.34375 -28.578125 C 17.125 -28.578125 15.332031 -28.144531 13.96875 -27.28125 C 12.613281 -26.425781 11.625 -25.144531 11 -23.4375 C 10.375 -21.726562 10.046875 -19.585938 10.015625 -17.015625 L 10.015625 -16.078125 C 10.015625 -13.359375 10.3125 -11.0625 10.90625 -9.1875 C 11.5 -7.3125 12.484375 -5.882812 13.859375 -4.90625 C 15.234375 -3.9375 17.082031 -3.453125 19.40625 -3.453125 C 21.394531 -3.453125 23.050781 -3.988281 24.375 -5.0625 C 25.707031 -6.132812 26.703125 -7.628906 27.359375 -9.546875 C 28.015625 -11.472656 28.34375 -13.6875 28.34375 -16.1875 C 28.34375 -19.976562 27.601562 -22.988281 26.125 -25.21875 C 24.65625 -27.457031 22.394531 -28.578125 19.34375 -28.578125 Z M 19.34375 -28.578125 "/></g><g transform="translate(551.945252, 291.765077)"><path style="stroke:none" d="M 20.203125 -32.671875 C 24.203125 -32.671875 27.390625 -31.296875 29.765625 -28.546875 C 32.148438 -25.796875 33.34375 -21.65625 33.34375 -16.125 C 33.34375 -12.476562 32.796875 -9.414062 31.703125 -6.9375 C 30.609375 -4.457031 29.070312 -2.582031 27.09375 -1.3125 C 25.113281 -0.0507812 22.773438 0.578125 20.078125 0.578125 C 18.378906 0.578125 16.882812 0.351562 15.59375 -0.09375 C 14.3125 -0.539062 13.210938 -1.144531 12.296875 -1.90625 C 11.378906 -2.664062 10.617188 -3.492188 10.015625 -4.390625 L 9.65625 -4.390625 C 9.71875 -3.628906 9.789062 -2.710938 9.875 -1.640625 C 9.96875 -0.566406 10.015625 0.367188 10.015625 1.171875 L 10.015625 14.34375 L 5.125 14.34375 L 5.125 -32.078125 L 9.140625 -32.078125 L 9.78125 -27.34375 L 10.015625 -27.34375 C 10.640625 -28.320312 11.398438 -29.210938 12.296875 -30.015625 C 13.191406 -30.828125 14.285156 -31.472656 15.578125 -31.953125 C 16.878906 -32.429688 18.421875 -32.671875 20.203125 -32.671875 Z M 19.34375 -28.578125 C 17.125 -28.578125 15.332031 -28.144531 13.96875 -27.28125 C 12.613281 -26.425781 11.625 -25.144531 11 -23.4375 C 10.375 -21.726562 10.046875 -19.585938 10.015625 -17.015625 L 10.015625 -16.078125 C 10.015625 -13.359375 10.3125 -11.0625 10.90625 -9.1875 C 11.5 -7.3125 12.484375 -5.882812 13.859375 -4.90625 C 15.234375 -3.9375 17.082031 -3.453125 19.40625 -3.453125 C 21.394531 -3.453125 23.050781 -3.988281 24.375 -5.0625 C 25.707031 -6.132812 26.703125 -7.628906 27.359375 -9.546875 C 28.015625 -11.472656 28.34375 -13.6875 28.34375 -16.1875 C 28.34375 -19.976562 27.601562 -22.988281 26.125 -25.21875 C 24.65625 -27.457031 22.394531 -28.578125 19.34375 -28.578125 Z M 19.34375 -28.578125 "/></g><g transform="translate(588.628954, 291.765077)"><path style="stroke:none" d="M 0.0625 -32.078125 L 5.265625 -32.078125 L 12.359375 -13.46875 C 12.765625 -12.375 13.140625 -11.320312 13.484375 -10.3125 C 13.835938 -9.3125 14.148438 -8.351562 14.421875 -7.4375 C 14.703125 -6.519531 14.921875 -5.628906 15.078125 -4.765625 L 15.28125 -4.765625 C 15.550781 -5.742188 15.941406 -7.023438 16.453125 -8.609375 C 16.960938 -10.203125 17.507812 -11.832031 18.09375 -13.5 L 24.796875 -32.078125 L 30.03125 -32.078125 L 16.078125 4.71875 C 15.328125 6.6875 14.457031 8.398438 13.46875 9.859375 C 12.488281 11.328125 11.296875 12.457031 9.890625 13.25 C 8.484375 14.039062 6.785156 14.4375 4.796875 14.4375 C 3.878906 14.4375 3.066406 14.378906 2.359375 14.265625 C 1.660156 14.160156 1.0625 14.039062 0.5625 13.90625 L 0.5625 10.015625 C 0.988281 10.109375 1.507812 10.191406 2.125 10.265625 C 2.738281 10.347656 3.378906 10.390625 4.046875 10.390625 C 5.253906 10.390625 6.300781 10.160156 7.1875 9.703125 C 8.070312 9.242188 8.835938 8.570312 9.484375 7.6875 C 10.128906 6.8125 10.6875 5.769531 11.15625 4.5625 L 12.90625 0.0625 Z M 0.0625 -32.078125 "/></g><g transform="translate(618.666845, 291.765077)"><path style="stroke:none" d=""/></g><g transform="translate(634.242048, 291.765077)"><path style="stroke:none" d="M 38.296875 0 L 33.3125 0 L 33.3125 -20.171875 L 10.828125 -20.171875 L 10.828125 0 L 5.859375 0 L 5.859375 -42.796875 L 10.828125 -42.796875 L 10.828125 -24.5625 L 33.3125 -24.5625 L 33.3125 -42.796875 L 38.296875 -42.796875 Z M 38.296875 0 "/></g><g transform="translate(678.44986, 291.765077)"><path style="stroke:none" d="M 17.484375 -32.671875 C 20.210938 -32.671875 22.550781 -32.066406 24.5 -30.859375 C 26.457031 -29.648438 27.953125 -27.957031 28.984375 -25.78125 C 30.015625 -23.601562 30.53125 -21.0625 30.53125 -18.15625 L 30.53125 -15.140625 L 8.375 -15.140625 C 8.425781 -11.367188 9.359375 -8.5 11.171875 -6.53125 C 12.992188 -4.5625 15.554688 -3.578125 18.859375 -3.578125 C 20.878906 -3.578125 22.671875 -3.757812 24.234375 -4.125 C 25.796875 -4.5 27.414062 -5.046875 29.09375 -5.765625 L 29.09375 -1.5 C 27.476562 -0.769531 25.875 -0.242188 24.28125 0.078125 C 22.6875 0.410156 20.804688 0.578125 18.640625 0.578125 C 15.554688 0.578125 12.867188 -0.046875 10.578125 -1.296875 C 8.285156 -2.554688 6.503906 -4.40625 5.234375 -6.84375 C 3.972656 -9.289062 3.34375 -12.28125 3.34375 -15.8125 C 3.34375 -19.257812 3.921875 -22.25 5.078125 -24.78125 C 6.242188 -27.3125 7.882812 -29.257812 10 -30.625 C 12.113281 -31.988281 14.609375 -32.671875 17.484375 -32.671875 Z M 17.421875 -28.6875 C 14.828125 -28.6875 12.757812 -27.835938 11.21875 -26.140625 C 9.675781 -24.441406 8.753906 -22.070312 8.453125 -19.03125 L 25.4375 -19.03125 C 25.414062 -20.9375 25.117188 -22.617188 24.546875 -24.078125 C 23.972656 -25.535156 23.097656 -26.664062 21.921875 -27.46875 C 20.753906 -28.28125 19.253906 -28.6875 17.421875 -28.6875 Z M 17.421875 -28.6875 "/></g><g transform="translate(712.118062, 291.765077)"><path style="stroke:none" d="M 17.125 -32.609375 C 20.945312 -32.609375 23.785156 -31.75 25.640625 -30.03125 C 27.492188 -28.3125 28.421875 -25.570312 28.421875 -21.8125 L 28.421875 0 L 24.890625 0 L 23.953125 -4.75 L 23.71875 -4.75 C 22.8125 -3.570312 21.867188 -2.585938 20.890625 -1.796875 C 19.921875 -1.003906 18.796875 -0.410156 17.515625 -0.015625 C 16.242188 0.378906 14.679688 0.578125 12.828125 0.578125 C 10.867188 0.578125 9.132812 0.238281 7.625 -0.4375 C 6.113281 -1.125 4.921875 -2.160156 4.046875 -3.546875 C 3.179688 -4.929688 2.75 -6.6875 2.75 -8.8125 C 2.75 -12.007812 4.015625 -14.46875 6.546875 -16.1875 C 9.085938 -17.90625 12.957031 -18.84375 18.15625 -19 L 23.6875 -19.234375 L 23.6875 -21.1875 C 23.6875 -23.957031 23.085938 -25.898438 21.890625 -27.015625 C 20.703125 -28.128906 19.023438 -28.6875 16.859375 -28.6875 C 15.179688 -28.6875 13.582031 -28.441406 12.0625 -27.953125 C 10.539062 -27.460938 9.097656 -26.890625 7.734375 -26.234375 L 6.234375 -29.921875 C 7.679688 -30.660156 9.335938 -31.289062 11.203125 -31.8125 C 13.078125 -32.34375 15.050781 -32.609375 17.125 -32.609375 Z M 23.625 -15.8125 L 18.734375 -15.609375 C 14.734375 -15.453125 11.910156 -14.796875 10.265625 -13.640625 C 8.628906 -12.492188 7.8125 -10.863281 7.8125 -8.75 C 7.8125 -6.914062 8.367188 -5.554688 9.484375 -4.671875 C 10.597656 -3.796875 12.070312 -3.359375 13.90625 -3.359375 C 16.75 -3.359375 19.078125 -4.148438 20.890625 -5.734375 C 22.710938 -7.316406 23.625 -9.6875 23.625 -12.84375 Z M 23.625 -15.8125 "/></g><g transform="translate(745.434943, 291.765077)"><path style="stroke:none" d="M 10.015625 0 L 5.125 0 L 5.125 -45.546875 L 10.015625 -45.546875 Z M 10.015625 0 "/></g><g transform="translate(760.570995, 291.765077)"><path style="stroke:none" d="M 15.484375 -3.390625 C 16.285156 -3.390625 17.101562 -3.457031 17.9375 -3.59375 C 18.78125 -3.738281 19.46875 -3.90625 20 -4.09375 L 20 -0.328125 C 19.425781 -0.0664062 18.632812 0.144531 17.625 0.3125 C 16.625 0.488281 15.648438 0.578125 14.703125 0.578125 C 13.003906 0.578125 11.457031 0.28125 10.0625 -0.3125 C 8.675781 -0.90625 7.566406 -1.910156 6.734375 -3.328125 C 5.910156 -4.753906 5.5 -6.726562 5.5 -9.25 L 5.5 -28.28125 L 0.9375 -28.28125 L 0.9375 -30.65625 L 5.53125 -32.546875 L 7.46875 -39.515625 L 10.390625 -39.515625 L 10.390625 -32.078125 L 19.796875 -32.078125 L 19.796875 -28.28125 L 10.390625 -28.28125 L 10.390625 -9.390625 C 10.390625 -7.378906 10.851562 -5.875 11.78125 -4.875 C 12.707031 -3.882812 13.941406 -3.390625 15.484375 -3.390625 Z M 15.484375 -3.390625 "/></g><g transform="translate(781.942984, 291.765077)"><path style="stroke:none" d="M 9.984375 -45.546875 L 9.984375 -31.9375 C 9.984375 -31.15625 9.960938 -30.367188 9.921875 -29.578125 C 9.878906 -28.785156 9.8125 -28.0625 9.71875 -27.40625 L 10.046875 -27.40625 C 10.703125 -28.53125 11.539062 -29.476562 12.5625 -30.25 C 13.59375 -31.019531 14.757812 -31.601562 16.0625 -32 C 17.375 -32.40625 18.765625 -32.609375 20.234375 -32.609375 C 22.804688 -32.609375 24.957031 -32.195312 26.6875 -31.375 C 28.414062 -30.5625 29.710938 -29.296875 30.578125 -27.578125 C 31.441406 -25.859375 31.875 -23.632812 31.875 -20.90625 L 31.875 0 L 27.078125 0 L 27.078125 -20.578125 C 27.078125 -23.253906 26.46875 -25.253906 25.25 -26.578125 C 24.03125 -27.910156 22.160156 -28.578125 19.640625 -28.578125 C 17.265625 -28.578125 15.367188 -28.117188 13.953125 -27.203125 C 12.535156 -26.296875 11.519531 -24.960938 10.90625 -23.203125 C 10.289062 -21.453125 9.984375 -19.3125 9.984375 -16.78125 L 9.984375 0 L 5.125 0 L 5.125 -45.546875 Z M 9.984375 -45.546875 "/></g><g transform="translate(818.714515, 291.765077)"><path style="stroke:none" d="M 0.0625 -32.078125 L 5.265625 -32.078125 L 12.359375 -13.46875 C 12.765625 -12.375 13.140625 -11.320312 13.484375 -10.3125 C 13.835938 -9.3125 14.148438 -8.351562 14.421875 -7.4375 C 14.703125 -6.519531 14.921875 -5.628906 15.078125 -4.765625 L 15.28125 -4.765625 C 15.550781 -5.742188 15.941406 -7.023438 16.453125 -8.609375 C 16.960938 -10.203125 17.507812 -11.832031 18.09375 -13.5 L 24.796875 -32.078125 L 30.03125 -32.078125 L 16.078125 4.71875 C 15.328125 6.6875 14.457031 8.398438 13.46875 9.859375 C 12.488281 11.328125 11.296875 12.457031 9.890625 13.25 C 8.484375 14.039062 6.785156 14.4375 4.796875 14.4375 C 3.878906 14.4375 3.066406 14.378906 2.359375 14.265625 C 1.660156 14.160156 1.0625 14.039062 0.5625 13.90625 L 0.5625 10.015625 C 0.988281 10.109375 1.507812 10.191406 2.125 10.265625 C 2.738281 10.347656 3.378906 10.390625 4.046875 10.390625 C 5.253906 10.390625 6.300781 10.160156 7.1875 9.703125 C 8.070312 9.242188 8.835938 8.570312 9.484375 7.6875 C 10.128906 6.8125 10.6875 5.769531 11.15625 4.5625 L 12.90625 0.0625 Z M 0.0625 -32.078125 "/></g><g transform="translate(848.752406, 291.765077)"><path style="stroke:none" d=""/></g><g transform="translate(864.327609, 291.765077)"><path style="stroke:none" d="M 16.78125 -21.34375 L 28.15625 -42.796875 L 33.515625 -42.796875 L 19.265625 -16.59375 L 19.265625 0 L 14.28125 0 L 14.28125 -16.359375 L 0 -42.796875 L 5.4375 -42.796875 Z M 16.78125 -21.34375 "/></g><g transform="translate(897.849427, 291.765077)"><path style="stroke:none" d="M 32.78125 -16.09375 C 32.78125 -13.46875 32.4375 -11.117188 31.75 -9.046875 C 31.070312 -6.972656 30.085938 -5.222656 28.796875 -3.796875 C 27.515625 -2.378906 25.960938 -1.296875 24.140625 -0.546875 C 22.316406 0.203125 20.25 0.578125 17.9375 0.578125 C 15.789062 0.578125 13.828125 0.203125 12.046875 -0.546875 C 10.265625 -1.296875 8.722656 -2.378906 7.421875 -3.796875 C 6.117188 -5.222656 5.113281 -6.972656 4.40625 -9.046875 C 3.695312 -11.117188 3.34375 -13.46875 3.34375 -16.09375 C 3.34375 -19.613281 3.9375 -22.609375 5.125 -25.078125 C 6.3125 -27.546875 8.007812 -29.425781 10.21875 -30.71875 C 12.4375 -32.019531 15.082031 -32.671875 18.15625 -32.671875 C 21.082031 -32.671875 23.640625 -32.015625 25.828125 -30.703125 C 28.023438 -29.398438 29.734375 -27.515625 30.953125 -25.046875 C 32.171875 -22.578125 32.78125 -19.59375 32.78125 -16.09375 Z M 8.375 -16.09375 C 8.375 -13.519531 8.710938 -11.285156 9.390625 -9.390625 C 10.078125 -7.503906 11.132812 -6.039062 12.5625 -5 C 13.988281 -3.96875 15.820312 -3.453125 18.0625 -3.453125 C 20.289062 -3.453125 22.117188 -3.96875 23.546875 -5 C 24.984375 -6.039062 26.039062 -7.503906 26.71875 -9.390625 C 27.40625 -11.285156 27.75 -13.519531 27.75 -16.09375 C 27.75 -18.65625 27.40625 -20.867188 26.71875 -22.734375 C 26.039062 -24.597656 24.988281 -26.035156 23.5625 -27.046875 C 22.132812 -28.066406 20.289062 -28.578125 18.03125 -28.578125 C 14.695312 -28.578125 12.253906 -27.472656 10.703125 -25.265625 C 9.148438 -23.054688 8.375 -20 8.375 -16.09375 Z M 8.375 -16.09375 "/></g><g transform="translate(933.918317, 291.765077)"><path style="stroke:none" d="M 31.609375 -32.078125 L 31.609375 0 L 27.640625 0 L 26.9375 -4.515625 L 26.671875 -4.515625 C 26.003906 -3.398438 25.144531 -2.460938 24.09375 -1.703125 C 23.039062 -0.941406 21.851562 -0.375 20.53125 0 C 19.21875 0.382812 17.816406 0.578125 16.328125 0.578125 C 13.796875 0.578125 11.671875 0.171875 9.953125 -0.640625 C 8.234375 -1.460938 6.9375 -2.734375 6.0625 -4.453125 C 5.195312 -6.171875 4.765625 -8.375 4.765625 -11.0625 L 4.765625 -32.078125 L 9.6875 -32.078125 L 9.6875 -11.421875 C 9.6875 -8.742188 10.289062 -6.742188 11.5 -5.421875 C 12.707031 -4.109375 14.550781 -3.453125 17.03125 -3.453125 C 19.414062 -3.453125 21.316406 -3.898438 22.734375 -4.796875 C 24.148438 -5.691406 25.171875 -7.015625 25.796875 -8.765625 C 26.421875 -10.515625 26.734375 -12.65625 26.734375 -15.1875 L 26.734375 -32.078125 Z M 31.609375 -32.078125 "/></g><g transform="translate(970.689848, 291.765077)"><path style="stroke:none" d="M 9.515625 -11.890625 L 6.328125 -11.890625 L 4.984375 -42.796875 L 10.859375 -42.796875 Z M 4.390625 -3.046875 C 4.390625 -4.410156 4.71875 -5.378906 5.375 -5.953125 C 6.039062 -6.535156 6.875 -6.828125 7.875 -6.828125 C 8.851562 -6.828125 9.675781 -6.535156 10.34375 -5.953125 C 11.019531 -5.378906 11.359375 -4.410156 11.359375 -3.046875 C 11.359375 -1.703125 11.019531 -0.722656 10.34375 -0.109375 C 9.675781 0.503906 8.851562 0.8125 7.875 0.8125 C 6.875 0.8125 6.039062 0.503906 5.375 -0.109375 C 4.71875 -0.722656 4.390625 -1.703125 4.390625 -3.046875 Z M 4.390625 -3.046875 "/></g></g><g style="fill:#0a703f;fill-opacity:1;"><g transform="translate(63.222547, 457.425613)"><path style="stroke:none" d="M 27.078125 -10.5 C 27.078125 -8.257812 26.53125 -6.3125 25.4375 -4.65625 C 24.351562 -3 22.769531 -1.722656 20.6875 -0.828125 C 18.613281 0.0664062 16.097656 0.515625 13.140625 0.515625 C 11.828125 0.515625 10.546875 0.425781 9.296875 0.25 C 8.046875 0.0820312 6.847656 -0.164062 5.703125 -0.5 C 4.554688 -0.84375 3.46875 -1.265625 2.4375 -1.765625 L 2.4375 -9.203125 C 4.226562 -8.410156 6.085938 -7.695312 8.015625 -7.0625 C 9.941406 -6.425781 11.851562 -6.109375 13.75 -6.109375 C 15.0625 -6.109375 16.117188 -6.28125 16.921875 -6.625 C 17.722656 -6.96875 18.304688 -7.441406 18.671875 -8.046875 C 19.035156 -8.648438 19.21875 -9.335938 19.21875 -10.109375 C 19.21875 -11.054688 18.894531 -11.863281 18.25 -12.53125 C 17.613281 -13.207031 16.738281 -13.835938 15.625 -14.421875 C 14.519531 -15.015625 13.269531 -15.644531 11.875 -16.3125 C 10.988281 -16.726562 10.03125 -17.234375 9 -17.828125 C 7.96875 -18.421875 6.984375 -19.148438 6.046875 -20.015625 C 5.117188 -20.878906 4.359375 -21.925781 3.765625 -23.15625 C 3.171875 -24.382812 2.875 -25.863281 2.875 -27.59375 C 2.875 -29.84375 3.390625 -31.769531 4.421875 -33.375 C 5.453125 -34.976562 6.925781 -36.207031 8.84375 -37.0625 C 10.769531 -37.914062 13.046875 -38.34375 15.671875 -38.34375 C 17.628906 -38.34375 19.5 -38.113281 21.28125 -37.65625 C 23.070312 -37.195312 24.941406 -36.539062 26.890625 -35.6875 L 24.296875 -29.453125 C 22.554688 -30.160156 21 -30.707031 19.625 -31.09375 C 18.25 -31.476562 16.84375 -31.671875 15.40625 -31.671875 C 14.40625 -31.671875 13.550781 -31.507812 12.84375 -31.1875 C 12.144531 -30.875 11.613281 -30.425781 11.25 -29.84375 C 10.882812 -29.269531 10.703125 -28.601562 10.703125 -27.84375 C 10.703125 -26.945312 10.960938 -26.191406 11.484375 -25.578125 C 12.015625 -24.972656 12.8125 -24.382812 13.875 -23.8125 C 14.9375 -23.238281 16.257812 -22.578125 17.84375 -21.828125 C 19.769531 -20.910156 21.414062 -19.957031 22.78125 -18.96875 C 24.15625 -17.976562 25.210938 -16.8125 25.953125 -15.46875 C 26.703125 -14.132812 27.078125 -12.476562 27.078125 -10.5 Z M 27.078125 -10.5 "/></g></g><g style="fill:#0a703f;fill-opacity:1;"><g transform="translate(92.389548, 457.425613)"><path style="stroke:none" d="M 27.90625 0 L 25.15625 -9 L 11.375 -9 L 8.640625 0 L 0 0 L 13.34375 -37.953125 L 23.140625 -37.953125 L 36.53125 0 Z M 23.25 -15.71875 L 20.5 -24.515625 C 20.332031 -25.097656 20.101562 -25.847656 19.8125 -26.765625 C 19.53125 -27.691406 19.242188 -28.632812 18.953125 -29.59375 C 18.671875 -30.550781 18.445312 -31.382812 18.28125 -32.09375 C 18.101562 -31.382812 17.863281 -30.507812 17.5625 -29.46875 C 17.257812 -28.425781 16.972656 -27.4375 16.703125 -26.5 C 16.429688 -25.570312 16.234375 -24.910156 16.109375 -24.515625 L 13.390625 -15.71875 Z M 17 -49.453125 C 17.507812 -48.660156 18.128906 -47.78125 18.859375 -46.8125 C 19.597656 -45.851562 20.347656 -44.921875 21.109375 -44.015625 C 21.867188 -43.109375 22.523438 -42.328125 23.078125 -41.671875 L 23.078125 -40.984375 L 17.84375 -40.984375 C 17.175781 -41.441406 16.394531 -42.019531 15.5 -42.71875 C 14.601562 -43.414062 13.679688 -44.148438 12.734375 -44.921875 C 11.796875 -45.691406 10.921875 -46.425781 10.109375 -47.125 C 9.304688 -47.832031 8.65625 -48.429688 8.15625 -48.921875 L 8.15625 -49.453125 Z M 17 -49.453125 "/></g></g><g style="fill:#0a703f;fill-opacity:1;"><g transform="translate(128.925871, 457.425613)"><path style="stroke:none" d="M 38.296875 0 L 28.109375 0 L 11.65625 -28.59375 L 11.421875 -28.59375 C 11.492188 -27.40625 11.554688 -26.207031 11.609375 -25 C 11.660156 -23.789062 11.710938 -22.585938 11.765625 -21.390625 C 11.816406 -20.191406 11.867188 -18.988281 11.921875 -17.78125 L 11.921875 0 L 4.75 0 L 4.75 -37.796875 L 14.875 -37.796875 L 31.28125 -9.484375 L 31.46875 -9.484375 C 31.4375 -10.660156 31.394531 -11.828125 31.34375 -12.984375 C 31.289062 -14.140625 31.238281 -15.289062 31.1875 -16.4375 C 31.144531 -17.59375 31.109375 -18.75 31.078125 -19.90625 L 31.078125 -37.796875 L 38.296875 -37.796875 Z M 38.296875 0 "/></g></g><g style="fill:#0a703f;fill-opacity:1;"><g transform="translate(171.978225, 457.425613)"><path style="stroke:none" d=""/></g></g><g style="fill:#0a703f;fill-opacity:1;"><g transform="translate(185.734293, 457.425613)"><path style="stroke:none" d="M 19.34375 0 L 11.328125 0 L 11.328125 -31.125 L 1.0625 -31.125 L 1.0625 -37.796875 L 29.609375 -37.796875 L 29.609375 -31.125 L 19.34375 -31.125 Z M 19.34375 0 "/></g></g><g style="fill:#0a703f;fill-opacity:1;"><g transform="translate(216.401016, 457.425613)"><path style="stroke:none" d="M 20.765625 0 L 11.65625 -29.65625 L 11.421875 -29.65625 C 11.460938 -28.945312 11.519531 -27.878906 11.59375 -26.453125 C 11.675781 -25.035156 11.75 -23.523438 11.8125 -21.921875 C 11.882812 -20.316406 11.921875 -18.867188 11.921875 -17.578125 L 11.921875 0 L 4.75 0 L 4.75 -37.796875 L 15.671875 -37.796875 L 24.609375 -8.890625 L 24.765625 -8.890625 L 34.265625 -37.796875 L 45.171875 -37.796875 L 45.171875 0 L 37.703125 0 L 37.703125 -17.890625 C 37.703125 -19.078125 37.722656 -20.445312 37.765625 -22 C 37.804688 -23.550781 37.859375 -25.03125 37.921875 -26.4375 C 37.992188 -27.84375 38.046875 -28.898438 38.078125 -29.609375 L 37.859375 -29.609375 L 28.109375 0 Z M 20.765625 0 "/></g></g><g style="fill:#0a703f;fill-opacity:1;"><g transform="translate(266.331416, 457.425613)"><path style="stroke:none" d="M 16.625 -37.796875 C 20.59375 -37.796875 24.03125 -37.09375 26.9375 -35.6875 C 29.851562 -34.289062 32.113281 -32.21875 33.71875 -29.46875 C 35.320312 -26.71875 36.125 -23.316406 36.125 -19.265625 C 36.125 -15.003906 35.304688 -11.445312 33.671875 -8.59375 C 32.046875 -5.738281 29.691406 -3.59375 26.609375 -2.15625 C 23.523438 -0.71875 19.8125 0 15.46875 0 L 4.75 0 L 4.75 -15.40625 L 1.21875 -15.40625 L 1.21875 -21.984375 L 4.75 -21.984375 L 4.75 -37.796875 Z M 16.984375 -31.234375 L 12.765625 -31.234375 L 12.765625 -21.984375 L 18.90625 -21.984375 L 18.90625 -15.40625 L 12.765625 -15.40625 L 12.765625 -6.625 L 16.15625 -6.625 C 20.019531 -6.625 22.925781 -7.664062 24.875 -9.75 C 26.820312 -11.832031 27.796875 -14.9375 27.796875 -19.0625 C 27.796875 -21.851562 27.375 -24.148438 26.53125 -25.953125 C 25.6875 -27.753906 24.460938 -29.082031 22.859375 -29.9375 C 21.253906 -30.800781 19.296875 -31.234375 16.984375 -31.234375 Z M 16.984375 -31.234375 "/></g></g><g style="fill:#0a703f;fill-opacity:1;"><g transform="translate(305.531037, 457.425613)"><path style="stroke:none" d="M 19.34375 0 L 11.328125 0 L 11.328125 -31.125 L 1.0625 -31.125 L 1.0625 -37.796875 L 29.609375 -37.796875 L 29.609375 -31.125 L 19.34375 -31.125 Z M 19.34375 0 "/></g></g><g style="fill:#0a703f;fill-opacity:1;"><g transform="translate(336.197737, 457.425613)"><path style="stroke:none" d=""/></g></g><g style="fill:#0a703f;fill-opacity:1;"><g transform="translate(349.953805, 457.425613)"><path style="stroke:none" d="M 27.078125 -10.5 C 27.078125 -8.257812 26.53125 -6.3125 25.4375 -4.65625 C 24.351562 -3 22.769531 -1.722656 20.6875 -0.828125 C 18.613281 0.0664062 16.097656 0.515625 13.140625 0.515625 C 11.828125 0.515625 10.546875 0.425781 9.296875 0.25 C 8.046875 0.0820312 6.847656 -0.164062 5.703125 -0.5 C 4.554688 -0.84375 3.46875 -1.265625 2.4375 -1.765625 L 2.4375 -9.203125 C 4.226562 -8.410156 6.085938 -7.695312 8.015625 -7.0625 C 9.941406 -6.425781 11.851562 -6.109375 13.75 -6.109375 C 15.0625 -6.109375 16.117188 -6.28125 16.921875 -6.625 C 17.722656 -6.96875 18.304688 -7.441406 18.671875 -8.046875 C 19.035156 -8.648438 19.21875 -9.335938 19.21875 -10.109375 C 19.21875 -11.054688 18.894531 -11.863281 18.25 -12.53125 C 17.613281 -13.207031 16.738281 -13.835938 15.625 -14.421875 C 14.519531 -15.015625 13.269531 -15.644531 11.875 -16.3125 C 10.988281 -16.726562 10.03125 -17.234375 9 -17.828125 C 7.96875 -18.421875 6.984375 -19.148438 6.046875 -20.015625 C 5.117188 -20.878906 4.359375 -21.925781 3.765625 -23.15625 C 3.171875 -24.382812 2.875 -25.863281 2.875 -27.59375 C 2.875 -29.84375 3.390625 -31.769531 4.421875 -33.375 C 5.453125 -34.976562 6.925781 -36.207031 8.84375 -37.0625 C 10.769531 -37.914062 13.046875 -38.34375 15.671875 -38.34375 C 17.628906 -38.34375 19.5 -38.113281 21.28125 -37.65625 C 23.070312 -37.195312 24.941406 -36.539062 26.890625 -35.6875 L 24.296875 -29.453125 C 22.554688 -30.160156 21 -30.707031 19.625 -31.09375 C 18.25 -31.476562 16.84375 -31.671875 15.40625 -31.671875 C 14.40625 -31.671875 13.550781 -31.507812 12.84375 -31.1875 C 12.144531 -30.875 11.613281 -30.425781 11.25 -29.84375 C 10.882812 -29.269531 10.703125 -28.601562 10.703125 -27.84375 C 10.703125 -26.945312 10.960938 -26.191406 11.484375 -25.578125 C 12.015625 -24.972656 12.8125 -24.382812 13.875 -23.8125 C 14.9375 -23.238281 16.257812 -22.578125 17.84375 -21.828125 C 19.769531 -20.910156 21.414062 -19.957031 22.78125 -18.96875 C 24.15625 -17.976562 25.210938 -16.8125 25.953125 -15.46875 C 26.703125 -14.132812 27.078125 -12.476562 27.078125 -10.5 Z M 27.078125 -10.5 "/></g></g><g style="fill:#0a703f;fill-opacity:1;"><g transform="translate(379.120806, 457.425613)"><path style="stroke:none" d="M 35.53125 -37.796875 L 35.53125 -32.9375 C 36.382812 -33.25 37.082031 -33.742188 37.625 -34.421875 C 38.175781 -35.109375 38.582031 -35.945312 38.84375 -36.9375 C 39.113281 -37.925781 39.25 -39.023438 39.25 -40.234375 L 47.03125 -40.234375 L 47.390625 -39.65625 C 47.097656 -38.226562 46.707031 -36.882812 46.21875 -35.625 C 45.738281 -34.363281 45.070312 -33.226562 44.21875 -32.21875 C 43.375 -31.21875 42.25 -30.375 40.84375 -29.6875 C 39.4375 -29 37.664062 -28.5 35.53125 -28.1875 L 35.53125 -13.34375 C 35.53125 -10.738281 34.957031 -8.390625 33.8125 -6.296875 C 32.664062 -4.203125 30.929688 -2.539062 28.609375 -1.3125 C 26.285156 -0.09375 23.367188 0.515625 19.859375 0.515625 C 14.859375 0.515625 11.046875 -0.757812 8.421875 -3.3125 C 5.804688 -5.863281 4.5 -9.238281 4.5 -13.4375 L 4.5 -37.796875 L 12.484375 -37.796875 L 12.484375 -14.046875 C 12.484375 -11.234375 13.117188 -9.222656 14.390625 -8.015625 C 15.671875 -6.804688 17.5625 -6.203125 20.0625 -6.203125 C 21.820312 -6.203125 23.25 -6.492188 24.34375 -7.078125 C 25.4375 -7.671875 26.238281 -8.550781 26.75 -9.71875 C 27.269531 -10.894531 27.53125 -12.351562 27.53125 -14.09375 L 27.53125 -37.796875 Z M 30.1875 -49.453125 L 30.1875 -48.921875 C 29.6875 -48.429688 29.03125 -47.832031 28.21875 -47.125 C 27.40625 -46.425781 26.53125 -45.691406 25.59375 -44.921875 C 24.664062 -44.148438 23.753906 -43.414062 22.859375 -42.71875 C 21.960938 -42.019531 21.179688 -41.441406 20.515625 -40.984375 L 15.265625 -40.984375 L 15.265625 -41.671875 C 15.828125 -42.328125 16.484375 -43.109375 17.234375 -44.015625 C 17.984375 -44.921875 18.726562 -45.851562 19.46875 -46.8125 C 20.21875 -47.78125 20.84375 -48.660156 21.34375 -49.453125 Z M 30.1875 -49.453125 "/></g></g><g style="fill:#0a703f;fill-opacity:1;"><g transform="translate(425.974179, 457.425613)"><path style="stroke:none" d="M 20.8125 -31.671875 C 19.28125 -31.671875 17.921875 -31.375 16.734375 -30.78125 C 15.554688 -30.1875 14.566406 -29.328125 13.765625 -28.203125 C 12.960938 -27.085938 12.351562 -25.734375 11.9375 -24.140625 C 11.53125 -22.554688 11.328125 -20.773438 11.328125 -18.796875 C 11.328125 -16.128906 11.65625 -13.847656 12.3125 -11.953125 C 12.976562 -10.066406 14.007812 -8.628906 15.40625 -7.640625 C 16.800781 -6.648438 18.601562 -6.15625 20.8125 -6.15625 C 22.34375 -6.15625 23.878906 -6.328125 25.421875 -6.671875 C 26.972656 -7.015625 28.648438 -7.503906 30.453125 -8.140625 L 30.453125 -1.421875 C 28.785156 -0.734375 27.140625 -0.238281 25.515625 0.0625 C 23.898438 0.363281 22.082031 0.515625 20.0625 0.515625 C 16.164062 0.515625 12.960938 -0.285156 10.453125 -1.890625 C 7.953125 -3.503906 6.097656 -5.765625 4.890625 -8.671875 C 3.679688 -11.578125 3.078125 -14.96875 3.078125 -18.84375 C 3.078125 -21.707031 3.460938 -24.328125 4.234375 -26.703125 C 5.015625 -29.085938 6.15625 -31.148438 7.65625 -32.890625 C 9.15625 -34.628906 11.003906 -35.972656 13.203125 -36.921875 C 15.410156 -37.867188 17.945312 -38.34375 20.8125 -38.34375 C 22.6875 -38.34375 24.566406 -38.101562 26.453125 -37.625 C 28.347656 -37.15625 30.15625 -36.507812 31.875 -35.6875 L 29.296875 -29.171875 C 27.878906 -29.835938 26.453125 -30.421875 25.015625 -30.921875 C 23.585938 -31.421875 22.1875 -31.671875 20.8125 -31.671875 Z M 20.8125 -31.671875 "/></g></g><g style="fill:#0a703f;fill-opacity:1;"><g transform="translate(459.717951, 457.425613)"><path style="stroke:none" d=""/></g></g><g style="fill:#0a703f;fill-opacity:1;"><g transform="translate(473.473973, 457.425613)"><path style="stroke:none" d="M 35.171875 0 L 26.0625 0 L 16.15625 -15.921875 L 12.765625 -13.5 L 12.765625 0 L 4.75 0 L 4.75 -37.796875 L 12.765625 -37.796875 L 12.765625 -20.5 C 13.304688 -21.238281 13.832031 -21.976562 14.34375 -22.71875 C 14.863281 -23.46875 15.390625 -24.210938 15.921875 -24.953125 L 26.171875 -37.796875 L 35.0625 -37.796875 L 21.875 -21.078125 Z M 35.171875 0 "/></g></g><g style="fill:#0a703f;fill-opacity:1;"><g transform="translate(508.63986, 457.425613)"><path style="stroke:none" d="M 35.734375 0 L 27.75 0 L 27.75 -16.3125 L 12.765625 -16.3125 L 12.765625 0 L 4.75 0 L 4.75 -37.796875 L 12.765625 -37.796875 L 12.765625 -22.984375 L 27.75 -22.984375 L 27.75 -37.796875 L 35.734375 -37.796875 Z M 35.734375 0 "/></g></g><g style="fill:#0a703f;fill-opacity:1;"><g transform="translate(549.158214, 457.425613)"><path style="stroke:none" d="M 39.0625 -18.953125 C 39.0625 -16.035156 38.695312 -13.382812 37.96875 -11 C 37.25 -8.613281 36.148438 -6.554688 34.671875 -4.828125 C 33.203125 -3.109375 31.335938 -1.785156 29.078125 -0.859375 C 26.828125 0.0546875 24.160156 0.515625 21.078125 0.515625 C 17.984375 0.515625 15.304688 0.0546875 13.046875 -0.859375 C 10.796875 -1.785156 8.929688 -3.109375 7.453125 -4.828125 C 5.984375 -6.554688 4.882812 -8.617188 4.15625 -11.015625 C 3.4375 -13.410156 3.078125 -16.070312 3.078125 -19 C 3.078125 -22.914062 3.71875 -26.328125 5 -29.234375 C 6.28125 -32.140625 8.253906 -34.390625 10.921875 -35.984375 C 13.597656 -37.585938 17 -38.390625 21.125 -38.390625 C 25.226562 -38.390625 28.601562 -37.585938 31.25 -35.984375 C 33.894531 -34.390625 35.859375 -32.132812 37.140625 -29.21875 C 38.421875 -26.300781 39.0625 -22.878906 39.0625 -18.953125 Z M 11.484375 -18.953125 C 11.484375 -16.316406 11.8125 -14.046875 12.46875 -12.140625 C 13.132812 -10.234375 14.175781 -8.765625 15.59375 -7.734375 C 17.007812 -6.710938 18.835938 -6.203125 21.078125 -6.203125 C 23.347656 -6.203125 25.1875 -6.710938 26.59375 -7.734375 C 28.007812 -8.765625 29.039062 -10.234375 29.6875 -12.140625 C 30.34375 -14.046875 30.671875 -16.316406 30.671875 -18.953125 C 30.671875 -22.921875 29.925781 -26.039062 28.4375 -28.3125 C 26.957031 -30.582031 24.519531 -31.71875 21.125 -31.71875 C 18.863281 -31.71875 17.019531 -31.207031 15.59375 -30.1875 C 14.175781 -29.164062 13.132812 -27.703125 12.46875 -25.796875 C 11.8125 -23.890625 11.484375 -21.609375 11.484375 -18.953125 Z M 27.75 -47.1875 C 27.75 -45.851562 27.394531 -44.753906 26.6875 -43.890625 C 25.976562 -43.035156 24.929688 -42.4375 23.546875 -42.09375 L 23.296875 -40.25 L 18.796875 -40.25 L 18.203125 -44.046875 C 19.492188 -44.253906 20.367188 -44.578125 20.828125 -45.015625 C 21.296875 -45.460938 21.53125 -46.003906 21.53125 -46.640625 C 21.53125 -47.191406 21.347656 -47.613281 20.984375 -47.90625 C 20.628906 -48.195312 20.160156 -48.34375 19.578125 -48.34375 C 18.878906 -48.34375 18.242188 -48.285156 17.671875 -48.171875 C 17.097656 -48.066406 16.535156 -47.925781 15.984375 -47.75 L 15.984375 -52.09375 C 16.484375 -52.269531 17.15625 -52.410156 18 -52.515625 C 18.84375 -52.628906 19.6875 -52.6875 20.53125 -52.6875 C 22.925781 -52.6875 24.726562 -52.203125 25.9375 -51.234375 C 27.144531 -50.273438 27.75 -48.925781 27.75 -47.1875 Z M 27.75 -47.1875 "/></g></g><g style="fill:#0a703f;fill-opacity:1;"><g transform="translate(591.305587, 457.425613)"><path style="stroke:none" d="M 26.53125 0 L 4.75 0 L 4.75 -37.796875 L 26.53125 -37.796875 L 26.53125 -31.234375 L 12.765625 -31.234375 L 12.765625 -22.9375 L 25.578125 -22.9375 L 25.578125 -16.359375 L 12.765625 -16.359375 L 12.765625 -6.625 L 26.53125 -6.625 Z M 26.53125 0 "/></g></g><g style="fill:#0a703f;fill-opacity:1;"><g transform="translate(620.963842, 457.425613)"><path style="stroke:none" d=""/></g></g><g style="fill:#0a703f;fill-opacity:1;"><g transform="translate(634.719955, 457.425613)"><path style="stroke:none" d="M 16.421875 -38.34375 C 18.453125 -38.34375 20.257812 -38.023438 21.84375 -37.390625 C 23.4375 -36.753906 24.691406 -35.820312 25.609375 -34.59375 C 26.535156 -33.375 27 -31.882812 27 -30.125 C 27 -27.695312 26.273438 -25.65625 24.828125 -24 C 23.390625 -22.34375 21.59375 -20.894531 19.4375 -19.65625 L 26.78125 -12.484375 C 27.507812 -13.671875 28.125 -14.925781 28.625 -16.25 C 29.132812 -17.582031 29.582031 -18.921875 29.96875 -20.265625 L 38.1875 -20.265625 C 37.65625 -18.285156 36.875 -16.171875 35.84375 -13.921875 C 34.820312 -11.671875 33.519531 -9.554688 31.9375 -7.578125 L 39.71875 0 L 29.96875 0 L 27 -2.921875 C 25.976562 -2.210938 24.882812 -1.597656 23.71875 -1.078125 C 22.5625 -0.566406 21.320312 -0.175781 20 0.09375 C 18.675781 0.375 17.285156 0.515625 15.828125 0.515625 C 12.960938 0.515625 10.503906 0.0664062 8.453125 -0.828125 C 6.398438 -1.722656 4.832031 -2.972656 3.75 -4.578125 C 2.664062 -6.191406 2.125 -8.070312 2.125 -10.21875 C 2.125 -12.007812 2.398438 -13.546875 2.953125 -14.828125 C 3.503906 -16.109375 4.296875 -17.234375 5.328125 -18.203125 C 6.359375 -19.179688 7.597656 -20.085938 9.046875 -20.921875 C 8.128906 -21.984375 7.398438 -22.976562 6.859375 -23.90625 C 6.316406 -24.84375 5.929688 -25.769531 5.703125 -26.6875 C 5.472656 -27.613281 5.359375 -28.585938 5.359375 -29.609375 C 5.359375 -31.398438 5.828125 -32.945312 6.765625 -34.25 C 7.703125 -35.550781 9 -36.554688 10.65625 -37.265625 C 12.320312 -37.984375 14.242188 -38.34375 16.421875 -38.34375 Z M 13.65625 -16.21875 C 13 -15.71875 12.425781 -15.195312 11.9375 -14.65625 C 11.445312 -14.125 11.070312 -13.554688 10.8125 -12.953125 C 10.550781 -12.347656 10.421875 -11.6875 10.421875 -10.96875 C 10.421875 -9.445312 10.988281 -8.253906 12.125 -7.390625 C 13.257812 -6.535156 14.671875 -6.109375 16.359375 -6.109375 C 17.503906 -6.109375 18.566406 -6.242188 19.546875 -6.515625 C 20.523438 -6.785156 21.421875 -7.171875 22.234375 -7.671875 Z M 16.359375 -32.25 C 15.484375 -32.25 14.644531 -32.019531 13.84375 -31.5625 C 13.039062 -31.113281 12.640625 -30.28125 12.640625 -29.0625 C 12.640625 -28.195312 12.863281 -27.351562 13.3125 -26.53125 C 13.757812 -25.71875 14.351562 -24.890625 15.09375 -24.046875 C 16.582031 -24.859375 17.722656 -25.671875 18.515625 -26.484375 C 19.304688 -27.304688 19.703125 -28.242188 19.703125 -29.296875 C 19.703125 -30.347656 19.34375 -31.101562 18.625 -31.5625 C 17.914062 -32.019531 17.160156 -32.25 16.359375 -32.25 Z M 16.359375 -32.25 "/></g></g><g style="fill:#0a703f;fill-opacity:1;"><g transform="translate(674.436722, 457.425613)"><path style="stroke:none" d=""/></g></g><g style="fill:#0a703f;fill-opacity:1;"><g transform="translate(688.192744, 457.425613)"><path style="stroke:none" d="M 4.75 0 L 4.75 -37.796875 L 12.765625 -37.796875 L 12.765625 -6.625 L 28.109375 -6.625 L 28.109375 0 Z M 4.75 0 "/></g></g><g style="fill:#0a703f;fill-opacity:1;"><g transform="translate(718.10964, 457.425613)"><path style="stroke:none" d="M 27.90625 0 L 25.15625 -9 L 11.375 -9 L 8.640625 0 L 0 0 L 13.34375 -37.953125 L 23.140625 -37.953125 L 36.53125 0 Z M 23.25 -15.71875 L 20.5 -24.515625 C 20.332031 -25.097656 20.101562 -25.847656 19.8125 -26.765625 C 19.53125 -27.691406 19.242188 -28.632812 18.953125 -29.59375 C 18.671875 -30.550781 18.445312 -31.382812 18.28125 -32.09375 C 18.101562 -31.382812 17.863281 -30.507812 17.5625 -29.46875 C 17.257812 -28.425781 16.972656 -27.4375 16.703125 -26.5 C 16.429688 -25.570312 16.234375 -24.910156 16.109375 -24.515625 L 13.390625 -15.71875 Z M 17 -49.453125 C 17.507812 -48.660156 18.128906 -47.78125 18.859375 -46.8125 C 19.597656 -45.851562 20.347656 -44.921875 21.109375 -44.015625 C 21.867188 -43.109375 22.523438 -42.328125 23.078125 -41.671875 L 23.078125 -40.984375 L 17.84375 -40.984375 C 17.175781 -41.441406 16.394531 -42.019531 15.5 -42.71875 C 14.601562 -43.414062 13.679688 -44.148438 12.734375 -44.921875 C 11.796875 -45.691406 10.921875 -46.425781 10.109375 -47.125 C 9.304688 -47.832031 8.65625 -48.429688 8.15625 -48.921875 L 8.15625 -49.453125 Z M 17 -49.453125 "/></g></g><g style="fill:#0a703f;fill-opacity:1;"><g transform="translate(754.645951, 457.425613)"><path style="stroke:none" d="M 38.296875 0 L 28.109375 0 L 11.65625 -28.59375 L 11.421875 -28.59375 C 11.492188 -27.40625 11.554688 -26.207031 11.609375 -25 C 11.660156 -23.789062 11.710938 -22.585938 11.765625 -21.390625 C 11.816406 -20.191406 11.867188 -18.988281 11.921875 -17.78125 L 11.921875 0 L 4.75 0 L 4.75 -37.796875 L 14.875 -37.796875 L 31.28125 -9.484375 L 31.46875 -9.484375 C 31.4375 -10.660156 31.394531 -11.828125 31.34375 -12.984375 C 31.289062 -14.140625 31.238281 -15.289062 31.1875 -16.4375 C 31.144531 -17.59375 31.109375 -18.75 31.078125 -19.90625 L 31.078125 -37.796875 L 38.296875 -37.796875 Z M 38.296875 0 "/></g></g><g style="fill:#0a703f;fill-opacity:1;"><g transform="translate(797.698295, 457.425613)"><path style="stroke:none" d="M 35.734375 0 L 27.75 0 L 27.75 -16.3125 L 12.765625 -16.3125 L 12.765625 0 L 4.75 0 L 4.75 -37.796875 L 12.765625 -37.796875 L 12.765625 -22.984375 L 27.75 -22.984375 L 27.75 -37.796875 L 35.734375 -37.796875 Z M 35.734375 0 "/></g></g><g style="fill:#0a703f;fill-opacity:1;"><g transform="translate(838.216603, 457.425613)"><path style="stroke:none" d=""/></g></g><g style="fill:#0a703f;fill-opacity:1;"><g transform="translate(851.972717, 457.425613)"><path style="stroke:none" d="M 20.765625 0 L 11.65625 -29.65625 L 11.421875 -29.65625 C 11.460938 -28.945312 11.519531 -27.878906 11.59375 -26.453125 C 11.675781 -25.035156 11.75 -23.523438 11.8125 -21.921875 C 11.882812 -20.316406 11.921875 -18.867188 11.921875 -17.578125 L 11.921875 0 L 4.75 0 L 4.75 -37.796875 L 15.671875 -37.796875 L 24.609375 -8.890625 L 24.765625 -8.890625 L 34.265625 -37.796875 L 45.171875 -37.796875 L 45.171875 0 L 37.703125 0 L 37.703125 -17.890625 C 37.703125 -19.078125 37.722656 -20.445312 37.765625 -22 C 37.804688 -23.550781 37.859375 -25.03125 37.921875 -26.4375 C 37.992188 -27.84375 38.046875 -28.898438 38.078125 -29.609375 L 37.859375 -29.609375 L 28.109375 0 Z M 20.765625 0 "/></g></g><g style="fill:#0a703f;fill-opacity:1;"><g transform="translate(901.903117, 457.425613)"><path style="stroke:none" d="M 27.90625 0 L 25.15625 -9 L 11.375 -9 L 8.640625 0 L 0 0 L 13.34375 -37.953125 L 23.140625 -37.953125 L 36.53125 0 Z M 23.25 -15.71875 L 20.5 -24.515625 C 20.332031 -25.097656 20.101562 -25.847656 19.8125 -26.765625 C 19.53125 -27.691406 19.242188 -28.632812 18.953125 -29.59375 C 18.671875 -30.550781 18.445312 -31.382812 18.28125 -32.09375 C 18.101562 -31.382812 17.863281 -30.507812 17.5625 -29.46875 C 17.257812 -28.425781 16.972656 -27.4375 16.703125 -26.5 C 16.429688 -25.570312 16.234375 -24.910156 16.109375 -24.515625 L 13.390625 -15.71875 Z M 18.21875 11.125 C 17.03125 11.125 16.019531 10.84375 15.1875 10.28125 C 14.351562 9.71875 13.9375 8.710938 13.9375 7.265625 C 13.9375 5.785156 14.351562 4.769531 15.1875 4.21875 C 16.019531 3.664062 17.03125 3.390625 18.21875 3.390625 C 19.394531 3.390625 20.40625 3.664062 21.25 4.21875 C 22.09375 4.769531 22.515625 5.785156 22.515625 7.265625 C 22.515625 8.710938 22.09375 9.71875 21.25 10.28125 C 20.40625 10.84375 19.394531 11.125 18.21875 11.125 Z M 18.21875 11.125 "/></g></g><g style="fill:#0a703f;fill-opacity:1;"><g transform="translate(938.439428, 457.425613)"><path style="stroke:none" d="M 38.296875 0 L 28.109375 0 L 11.65625 -28.59375 L 11.421875 -28.59375 C 11.492188 -27.40625 11.554688 -26.207031 11.609375 -25 C 11.660156 -23.789062 11.710938 -22.585938 11.765625 -21.390625 C 11.816406 -20.191406 11.867188 -18.988281 11.921875 -17.78125 L 11.921875 0 L 4.75 0 L 4.75 -37.796875 L 14.875 -37.796875 L 31.28125 -9.484375 L 31.46875 -9.484375 C 31.4375 -10.660156 31.394531 -11.828125 31.34375 -12.984375 C 31.289062 -14.140625 31.238281 -15.289062 31.1875 -16.4375 C 31.144531 -17.59375 31.109375 -18.75 31.078125 -19.90625 L 31.078125 -37.796875 L 38.296875 -37.796875 Z M 38.296875 0 "/></g></g><g style="fill:#0a703f;fill-opacity:1;"><g transform="translate(981.491817, 457.425613)"><path style="stroke:none" d="M 35.734375 0 L 27.75 0 L 27.75 -16.3125 L 12.765625 -16.3125 L 12.765625 0 L 4.75 0 L 4.75 -37.796875 L 12.765625 -37.796875 L 12.765625 -22.984375 L 27.75 -22.984375 L 27.75 -37.796875 L 35.734375 -37.796875 Z M 35.734375 0 "/></g></g></g></svg>