<svg xmlns="http://www.w3.org/2000/svg" xmlns:xlink="http://www.w3.org/1999/xlink" id="visual" viewBox="0 0 900 600" width="900" height="600"><rect x="0" y="0" width="900" height="600" fill="#001220"></rect><defs><linearGradient id="grad1_0" x1="33.3%" y1="100%" x2="100%" y2="0%"><stop offset="20%" stop-color="#001220" stop-opacity="1"></stop><stop offset="80%" stop-color="#001220" stop-opacity="1"></stop></linearGradient></defs><defs><linearGradient id="grad2_0" x1="0%" y1="100%" x2="66.7%" y2="0%"><stop offset="20%" stop-color="#001220" stop-opacity="1"></stop><stop offset="80%" stop-color="#001220" stop-opacity="1"></stop></linearGradient></defs><g transform="translate(900, 600)"><path d="M-486.7 0C-448.6 -31.6 -410.4 -63.2 -408.6 -109.5C-406.8 -155.7 -441.3 -216.6 -421.5 -243.4C-401.7 -270.2 -327.6 -262.9 -292 -292C-256.5 -321.1 -259.5 -386.6 -232.5 -402.7C-205.5 -418.8 -148.6 -385.4 -104.8 -391.2C-61.1 -397 -30.5 -441.9 0 -486.7L0 0Z" fill="#6600FF"></path></g><g transform="translate(0, 0)"><path d="M486.7 0C492.3 48.1 497.9 96.2 466.5 125C435.2 153.8 367 163.3 342.1 197.5C317.1 231.7 335.4 290.8 317.5 317.5C299.6 344.2 245.4 338.6 210 363.7C174.6 388.8 157.9 444.6 126 470.2C94.1 495.8 47 491.3 0 486.7L0 0Z" fill="#6600FF"></path></g></svg>