<svg xmlns="http://www.w3.org/2000/svg" xmlns:xlink="http://www.w3.org/1999/xlink" width="500" zoomAndPan="magnify"
    viewBox="0 0 375 374.999991" height="500" preserveAspectRatio="xMidYMid meet" version="1.0">
    
    <g fill="#ffcb62" fill-opacity="1">
        <g transform="translate(9.028515, 344.999977)">
            <g>
                <path
                    d="M 2.296875 -16.796875 L 9.9375 -16.796875 C 11.757812 -16.796875 13.367188 -16.445312 14.765625 -15.75 C 16.171875 -15.0625 17.257812 -14.082031 18.03125 -12.8125 C 18.8125 -11.550781 19.203125 -10.082031 19.203125 -8.40625 C 19.203125 -6.71875 18.8125 -5.242188 18.03125 -3.984375 C 17.257812 -2.722656 16.171875 -1.742188 14.765625 -1.046875 C 13.367188 -0.347656 11.757812 0 9.9375 0 L 2.296875 0 Z M 9.75 -3.1875 C 11.425781 -3.1875 12.765625 -3.65625 13.765625 -4.59375 C 14.765625 -5.53125 15.265625 -6.800781 15.265625 -8.40625 C 15.265625 -10 14.765625 -11.265625 13.765625 -12.203125 C 12.765625 -13.140625 11.425781 -13.609375 9.75 -13.609375 L 6.1875 -13.609375 L 6.1875 -3.1875 Z M 0.015625 -9.84375 L 10.390625 -9.84375 L 10.390625 -7.25 L 0.015625 -7.25 Z M 0.015625 -9.84375 " />
            </g>
        </g>
    </g>
    <g fill="#ffcb62" fill-opacity="1">
        <g transform="translate(29.164554, 344.999977)">
            <g>
                <path
                    d="M 13.0625 -3.59375 L 5.25 -3.59375 L 3.765625 0 L -0.21875 0 L 7.265625 -16.796875 L 11.109375 -16.796875 L 18.625 0 L 14.546875 0 Z M 11.828125 -6.546875 L 9.171875 -12.984375 L 6.5 -6.546875 Z M 9.1875 5.046875 C 8.707031 5.046875 8.3125 4.894531 8 4.59375 C 7.6875 4.300781 7.53125 3.914062 7.53125 3.4375 C 7.53125 2.957031 7.6875 2.554688 8 2.234375 C 8.3125 1.910156 8.707031 1.75 9.1875 1.75 C 9.65625 1.75 10.046875 1.910156 10.359375 2.234375 C 10.679688 2.554688 10.84375 2.957031 10.84375 3.4375 C 10.84375 3.914062 10.6875 4.300781 10.375 4.59375 C 10.0625 4.894531 9.664062 5.046875 9.1875 5.046875 Z M 11.28125 -18.171875 L 9.1875 -19.984375 L 7.109375 -18.171875 L 4.359375 -18.171875 L 7.53125 -21.625 L 10.84375 -21.625 L 14.015625 -18.171875 Z M 11.28125 -18.171875 " />
            </g>
        </g>
    </g>
    <g fill="#ffcb62" fill-opacity="1">
        <g transform="translate(47.548593, 344.999977)">
            <g>
                <path
                    d="M 17.28125 0 L 17.25 -10.078125 L 12.3125 -1.78125 L 10.5625 -1.78125 L 5.640625 -9.859375 L 5.640625 0 L 1.984375 0 L 1.984375 -16.796875 L 5.203125 -16.796875 L 11.5 -6.359375 L 17.6875 -16.796875 L 20.875 -16.796875 L 20.921875 0 Z M 17.28125 0 " />
            </g>
        </g>
    </g>
    <g fill="#ffcb62" fill-opacity="1">
        <g transform="translate(77.260646, 344.999977)">
            <g>
                <path
                    d="M 2.296875 -16.796875 L 9.9375 -16.796875 C 11.757812 -16.796875 13.367188 -16.445312 14.765625 -15.75 C 16.171875 -15.0625 17.257812 -14.082031 18.03125 -12.8125 C 18.8125 -11.550781 19.203125 -10.082031 19.203125 -8.40625 C 19.203125 -6.71875 18.8125 -5.242188 18.03125 -3.984375 C 17.257812 -2.722656 16.171875 -1.742188 14.765625 -1.046875 C 13.367188 -0.347656 11.757812 0 9.9375 0 L 2.296875 0 Z M 9.75 -3.1875 C 11.425781 -3.1875 12.765625 -3.65625 13.765625 -4.59375 C 14.765625 -5.53125 15.265625 -6.800781 15.265625 -8.40625 C 15.265625 -10 14.765625 -11.265625 13.765625 -12.203125 C 12.765625 -13.140625 11.425781 -13.609375 9.75 -13.609375 L 6.1875 -13.609375 L 6.1875 -3.1875 Z M 0.015625 -9.84375 L 10.390625 -9.84375 L 10.390625 -7.25 L 0.015625 -7.25 Z M 0.015625 -9.84375 " />
            </g>
        </g>
    </g>
    <g fill="#ffcb62" fill-opacity="1">
        <g transform="translate(97.396685, 344.999977)">
            <g>
                <path
                    d="M 13.0625 -3.59375 L 5.25 -3.59375 L 3.765625 0 L -0.21875 0 L 7.265625 -16.796875 L 11.109375 -16.796875 L 18.625 0 L 14.546875 0 Z M 11.828125 -6.546875 L 9.171875 -12.984375 L 6.5 -6.546875 Z M 4.109375 -21.625 L 8.140625 -21.625 L 11.375 -18.171875 L 8.453125 -18.171875 Z M 4.109375 -21.625 " />
            </g>
        </g>
    </g>
    <g fill="#ffcb62" fill-opacity="1">
        <g transform="translate(122.572735, 344.999977)">
            <g>
                <path
                    d="M 17.40625 -16.796875 L 17.40625 0 L 13.515625 0 L 13.515625 -6.890625 L 5.875 -6.890625 L 5.875 0 L 1.984375 0 L 1.984375 -16.796875 L 5.875 -16.796875 L 5.875 -10.171875 L 13.515625 -10.171875 L 13.515625 -16.796875 Z M 17.40625 -16.796875 " />
            </g>
        </g>
    </g>
    <g fill="#ffcb62" fill-opacity="1">
        <g transform="translate(141.96477, 344.999977)">
            <g>
                <path
                    d="M 9.453125 0.28125 C 7.054688 0.28125 5.1875 -0.378906 3.84375 -1.703125 C 2.507812 -3.035156 1.84375 -4.929688 1.84375 -7.390625 L 1.84375 -16.796875 L 5.734375 -16.796875 L 5.734375 -7.53125 C 5.734375 -4.53125 6.984375 -3.03125 9.484375 -3.03125 C 10.691406 -3.03125 11.613281 -3.390625 12.25 -4.109375 C 12.894531 -4.835938 13.21875 -5.976562 13.21875 -7.53125 L 13.21875 -16.796875 L 17.0625 -16.796875 L 17.0625 -7.390625 C 17.0625 -4.929688 16.394531 -3.035156 15.0625 -1.703125 C 13.726562 -0.378906 11.859375 0.28125 9.453125 0.28125 Z M 15.078125 -16.796875 L 15.71875 -16.796875 C 16.15625 -16.796875 16.503906 -16.9375 16.765625 -17.21875 C 17.035156 -17.5 17.171875 -17.863281 17.171875 -18.3125 C 17.171875 -18.875 17.007812 -19.351562 16.6875 -19.75 L 18.890625 -20.578125 C 19.398438 -19.898438 19.65625 -19.097656 19.65625 -18.171875 C 19.65625 -16.972656 19.300781 -16.03125 18.59375 -15.34375 C 17.882812 -14.65625 16.894531 -14.3125 15.625 -14.3125 L 15.078125 -14.3125 Z M 15.078125 -16.796875 " />
            </g>
        </g>
    </g>
    <g fill="#ffcb62" fill-opacity="1">
        <g transform="translate(161.188807, 344.999977)">
            <g>
                <path
                    d="M 16.484375 -14.734375 C 17.367188 -13.984375 18.0625 -13.054688 18.5625 -11.953125 C 19.0625 -10.859375 19.3125 -9.675781 19.3125 -8.40625 C 19.3125 -6.75 18.910156 -5.257812 18.109375 -3.9375 C 17.316406 -2.625 16.222656 -1.59375 14.828125 -0.84375 C 13.441406 -0.09375 11.875 0.28125 10.125 0.28125 C 8.382812 0.28125 6.8125 -0.09375 5.40625 -0.84375 C 4.007812 -1.59375 2.914062 -2.625 2.125 -3.9375 C 1.332031 -5.257812 0.9375 -6.75 0.9375 -8.40625 C 0.9375 -10.050781 1.335938 -11.53125 2.140625 -12.84375 C 2.941406 -14.164062 4.050781 -15.203125 5.46875 -15.953125 C 6.894531 -16.710938 8.503906 -17.09375 10.296875 -17.09375 C 11.003906 -17.09375 11.882812 -17.023438 12.9375 -16.890625 C 13.769531 -16.796875 14.351562 -16.75 14.6875 -16.75 C 15.3125 -16.75 15.796875 -16.882812 16.140625 -17.15625 C 16.484375 -17.425781 16.65625 -17.820312 16.65625 -18.34375 C 16.65625 -18.832031 16.492188 -19.3125 16.171875 -19.78125 L 18.390625 -20.59375 C 18.898438 -19.875 19.15625 -19.070312 19.15625 -18.1875 C 19.15625 -17.3125 18.921875 -16.578125 18.453125 -15.984375 C 17.992188 -15.390625 17.335938 -14.972656 16.484375 -14.734375 Z M 10.125 -3.03125 C 11.113281 -3.03125 12.007812 -3.253906 12.8125 -3.703125 C 13.613281 -4.160156 14.242188 -4.796875 14.703125 -5.609375 C 15.160156 -6.429688 15.390625 -7.363281 15.390625 -8.40625 C 15.390625 -9.4375 15.160156 -10.359375 14.703125 -11.171875 C 14.242188 -11.992188 13.613281 -12.632812 12.8125 -13.09375 C 12.007812 -13.550781 11.113281 -13.78125 10.125 -13.78125 C 9.132812 -13.78125 8.238281 -13.550781 7.4375 -13.09375 C 6.632812 -12.632812 6.003906 -11.992188 5.546875 -11.171875 C 5.097656 -10.359375 4.875 -9.4375 4.875 -8.40625 C 4.875 -7.363281 5.097656 -6.429688 5.546875 -5.609375 C 6.003906 -4.796875 6.632812 -4.160156 7.4375 -3.703125 C 8.238281 -3.253906 9.132812 -3.03125 10.125 -3.03125 Z M 10.125 -3.03125 " />
            </g>
        </g>
    </g>
    <g fill="#ffcb62" fill-opacity="1">
        <g transform="translate(181.444848, 344.999977)">
            <g>
                <path
                    d="M 17.40625 -16.796875 L 17.40625 0 L 14.203125 0 L 5.828125 -10.203125 L 5.828125 0 L 1.984375 0 L 1.984375 -16.796875 L 5.203125 -16.796875 L 13.5625 -6.59375 L 13.5625 -16.796875 Z M 17.40625 -16.796875 " />
            </g>
        </g>
    </g>
    <g fill="#ffcb62" fill-opacity="1">
        <g transform="translate(200.836884, 344.999977)">
            <g>
                <path
                    d="M 13.34375 -8.65625 L 16.890625 -8.65625 L 16.890625 -1.84375 C 15.984375 -1.15625 14.925781 -0.628906 13.71875 -0.265625 C 12.519531 0.0976562 11.316406 0.28125 10.109375 0.28125 C 8.359375 0.28125 6.785156 -0.0859375 5.390625 -0.828125 C 4.003906 -1.566406 2.914062 -2.597656 2.125 -3.921875 C 1.332031 -5.242188 0.9375 -6.738281 0.9375 -8.40625 C 0.9375 -10.0625 1.332031 -11.550781 2.125 -12.875 C 2.914062 -14.195312 4.015625 -15.226562 5.421875 -15.96875 C 6.828125 -16.71875 8.410156 -17.09375 10.171875 -17.09375 C 11.648438 -17.09375 12.988281 -16.84375 14.1875 -16.34375 C 15.382812 -15.84375 16.390625 -15.125 17.203125 -14.1875 L 14.71875 -11.875 C 13.507812 -13.144531 12.0625 -13.78125 10.375 -13.78125 C 9.300781 -13.78125 8.347656 -13.554688 7.515625 -13.109375 C 6.679688 -12.660156 6.03125 -12.023438 5.5625 -11.203125 C 5.101562 -10.390625 4.875 -9.457031 4.875 -8.40625 C 4.875 -7.363281 5.101562 -6.429688 5.5625 -5.609375 C 6.03125 -4.796875 6.675781 -4.160156 7.5 -3.703125 C 8.320312 -3.253906 9.257812 -3.03125 10.3125 -3.03125 C 11.4375 -3.03125 12.445312 -3.269531 13.34375 -3.75 Z M 13.34375 -8.65625 " />
            </g>
        </g>
    </g>
    <g fill="#ffcb62" fill-opacity="1">
        <g transform="translate(226.132925, 344.999977)">
            <g>
                <path
                    d="M 18.140625 -16.796875 L 10.875 0 L 7.03125 0 L -0.21875 -16.796875 L 3.984375 -16.796875 L 9.09375 -4.796875 L 14.28125 -16.796875 Z M 18.140625 -16.796875 " />
            </g>
        </g>
    </g>
    <g fill="#ffcb62" fill-opacity="1">
        <g transform="translate(244.036954, 344.999977)">
            <g>
                <path
                    d="M 1.984375 -16.796875 L 5.875 -16.796875 L 5.875 0 L 1.984375 0 Z M 3.9375 5.046875 C 3.457031 5.046875 3.0625 4.894531 2.75 4.59375 C 2.4375 4.300781 2.28125 3.914062 2.28125 3.4375 C 2.28125 2.957031 2.4375 2.554688 2.75 2.234375 C 3.0625 1.910156 3.457031 1.75 3.9375 1.75 C 4.40625 1.75 4.796875 1.910156 5.109375 2.234375 C 5.429688 2.554688 5.59375 2.957031 5.59375 3.4375 C 5.59375 3.914062 5.4375 4.300781 5.125 4.59375 C 4.8125 4.894531 4.414062 5.046875 3.9375 5.046875 Z M 3.9375 5.046875 " />
            </g>
        </g>
    </g>
    <g fill="#ffcb62" fill-opacity="1">
        <g transform="translate(258.701, 344.999977)">
            <g>
                <path
                    d="M 17.28125 0 L 17.25 -10.078125 L 12.3125 -1.78125 L 10.5625 -1.78125 L 5.640625 -9.859375 L 5.640625 0 L 1.984375 0 L 1.984375 -16.796875 L 5.203125 -16.796875 L 11.5 -6.359375 L 17.6875 -16.796875 L 20.875 -16.796875 L 20.921875 0 Z M 17.28125 0 " />
            </g>
        </g>
    </g>
    <g fill="#ffcb62" fill-opacity="1">
        <g transform="translate(281.621043, 344.999977)">
            <g>
                <path
                    d="M 3.171875 -18 C 3.835938 -18 4.382812 -17.785156 4.8125 -17.359375 C 5.25 -16.941406 5.46875 -16.390625 5.46875 -15.703125 C 5.46875 -15.378906 5.425781 -15.054688 5.34375 -14.734375 C 5.269531 -14.410156 5.101562 -13.929688 4.84375 -13.296875 L 3.453125 -9.84375 L 1.078125 -9.84375 L 2.109375 -13.625 C 1.710938 -13.800781 1.398438 -14.066406 1.171875 -14.421875 C 0.953125 -14.773438 0.84375 -15.203125 0.84375 -15.703125 C 0.84375 -16.390625 1.0625 -16.941406 1.5 -17.359375 C 1.9375 -17.785156 2.492188 -18 3.171875 -18 Z M 3.171875 -18 " />
            </g>
        </g>
    </g>
    <g fill="#ffcb62" fill-opacity="1">
        <g transform="translate(287.909045, 344.999977)">
            <g>
                <path
                    d="M 17.40625 -16.796875 L 17.40625 0 L 14.203125 0 L 5.828125 -10.203125 L 5.828125 0 L 1.984375 0 L 1.984375 -16.796875 L 5.203125 -16.796875 L 13.5625 -6.59375 L 13.5625 -16.796875 Z M 17.40625 -16.796875 " />
            </g>
        </g>
    </g>
    <g fill="#ffcb62" fill-opacity="1">
        <g transform="translate(307.30108, 344.999977)">
            <g>
                <path
                    d="M 10.125 0.28125 C 8.382812 0.28125 6.8125 -0.09375 5.40625 -0.84375 C 4.007812 -1.59375 2.914062 -2.625 2.125 -3.9375 C 1.332031 -5.257812 0.9375 -6.75 0.9375 -8.40625 C 0.9375 -10.050781 1.332031 -11.53125 2.125 -12.84375 C 2.914062 -14.164062 4.007812 -15.203125 5.40625 -15.953125 C 6.8125 -16.710938 8.382812 -17.09375 10.125 -17.09375 C 11.875 -17.09375 13.441406 -16.710938 14.828125 -15.953125 C 16.222656 -15.203125 17.316406 -14.164062 18.109375 -12.84375 C 18.910156 -11.53125 19.3125 -10.050781 19.3125 -8.40625 C 19.3125 -6.75 18.910156 -5.257812 18.109375 -3.9375 C 17.316406 -2.625 16.222656 -1.59375 14.828125 -0.84375 C 13.441406 -0.09375 11.875 0.28125 10.125 0.28125 Z M 10.125 -3.03125 C 11.113281 -3.03125 12.007812 -3.253906 12.8125 -3.703125 C 13.613281 -4.160156 14.242188 -4.796875 14.703125 -5.609375 C 15.160156 -6.429688 15.390625 -7.363281 15.390625 -8.40625 C 15.390625 -9.4375 15.160156 -10.359375 14.703125 -11.171875 C 14.242188 -11.992188 13.613281 -12.632812 12.8125 -13.09375 C 12.007812 -13.550781 11.113281 -13.78125 10.125 -13.78125 C 9.132812 -13.78125 8.238281 -13.550781 7.4375 -13.09375 C 6.632812 -12.632812 6.003906 -11.992188 5.546875 -11.171875 C 5.097656 -10.359375 4.875 -9.4375 4.875 -8.40625 C 4.875 -7.363281 5.097656 -6.429688 5.546875 -5.609375 C 6.003906 -4.796875 6.632812 -4.160156 7.4375 -3.703125 C 8.238281 -3.253906 9.132812 -3.03125 10.125 -3.03125 Z M 12.21875 -18.171875 L 10.125 -19.984375 L 8.046875 -18.171875 L 5.296875 -18.171875 L 8.46875 -21.625 L 11.78125 -21.625 L 14.953125 -18.171875 Z M 12.21875 -18.171875 " />
            </g>
        </g>
    </g>
    <g fill="#ffcb62" fill-opacity="1">
        <g transform="translate(327.557122, 344.999977)">
            <g>
                <path
                    d="M 17.40625 -16.796875 L 17.40625 0 L 14.203125 0 L 5.828125 -10.203125 L 5.828125 0 L 1.984375 0 L 1.984375 -16.796875 L 5.203125 -16.796875 L 13.5625 -6.59375 L 13.5625 -16.796875 Z M 17.40625 -16.796875 " />
            </g>
        </g>
    </g>
    <g fill="#ffcb62" fill-opacity="1">
        <g transform="translate(346.949157, 344.999977)">
            <g>
                <path
                    d="M 13.34375 -8.65625 L 16.890625 -8.65625 L 16.890625 -1.84375 C 15.984375 -1.15625 14.925781 -0.628906 13.71875 -0.265625 C 12.519531 0.0976562 11.316406 0.28125 10.109375 0.28125 C 8.359375 0.28125 6.785156 -0.0859375 5.390625 -0.828125 C 4.003906 -1.566406 2.914062 -2.597656 2.125 -3.921875 C 1.332031 -5.242188 0.9375 -6.738281 0.9375 -8.40625 C 0.9375 -10.0625 1.332031 -11.550781 2.125 -12.875 C 2.914062 -14.195312 4.015625 -15.226562 5.421875 -15.96875 C 6.828125 -16.71875 8.410156 -17.09375 10.171875 -17.09375 C 11.648438 -17.09375 12.988281 -16.84375 14.1875 -16.34375 C 15.382812 -15.84375 16.390625 -15.125 17.203125 -14.1875 L 14.71875 -11.875 C 13.507812 -13.144531 12.0625 -13.78125 10.375 -13.78125 C 9.300781 -13.78125 8.347656 -13.554688 7.515625 -13.109375 C 6.679688 -12.660156 6.03125 -12.023438 5.5625 -11.203125 C 5.101562 -10.390625 4.875 -9.457031 4.875 -8.40625 C 4.875 -7.363281 5.101562 -6.429688 5.5625 -5.609375 C 6.03125 -4.796875 6.675781 -4.160156 7.5 -3.703125 C 8.320312 -3.253906 9.257812 -3.03125 10.3125 -3.03125 C 11.4375 -3.03125 12.445312 -3.269531 13.34375 -3.75 Z M 13.34375 -8.65625 " />
            </g>
        </g>
    </g>
</svg>