<!DOCTYPE svg PUBLIC "-//W3C//DTD SVG 1.1//EN" "http://www.w3.org/Graphics/SVG/1.1/DTD/svg11.dtd">
<!-- Uploaded to: SVG Repo, www.svgrepo.com, Transformed by: SVG Repo Mixer Tools -->
<svg fill="#0a703f" version="1.1" id="Layer_1" xmlns="http://www.w3.org/2000/svg" xmlns:xlink="http://www.w3.org/1999/xlink" viewBox="0 0 496 496" xml:space="preserve" width="800px" height="800px">
<g id="SVGRepo_bgCarrier" stroke-width="0"/>
<g id="SVGRepo_tracerCarrier" stroke-linecap="round" stroke-linejoin="round"/>
<g id="SVGRepo_iconCarrier"> <g> <g> <g> <path d="M424,352c-19.008,0-36.272,7.456-49.152,19.536L339.312,336H360v-16h-26.336C350.072,300.512,360,275.408,360,248 c0-23.792-7.512-45.84-20.216-64H376v-16h-28.688l36.376-36.376C395.2,139.432,409.072,144,424,144c39.704,0,72-32.296,72-72 S463.704,0,424,0c-39.704,0-72,32.296-72,72c0,19.008,7.456,36.272,19.536,49.152L336,156.688V136h-16v26.336 C300.512,145.928,275.408,136,248,136c-23.792,0-45.84,7.512-64,20.216V120h-16v28.688l-36.376-36.376 C139.432,100.8,144,86.928,144,72c0-39.704-32.296-72-72-72S0,32.296,0,72s32.296,72,72,72c19.008,0,36.272-7.456,49.152-19.536 L156.688,160H136v16h26.336C145.928,195.488,136,220.592,136,248c0,23.792,7.512,45.84,20.216,64H120v16h28.688l-36.376,36.376 C100.8,356.568,86.928,352,72,352c-39.704,0-72,32.296-72,72c0,39.704,32.296,72,72,72s72-32.296,72-72 c0-19.008-7.456-36.272-19.536-49.152L160,339.312V360h16v-26.336C195.488,350.072,220.592,360,248,360 c23.792,0,45.84-7.512,64-20.216V376h16v-28.688l36.376,36.376C356.568,395.2,352,409.072,352,424c0,39.704,32.296,72,72,72 c39.704,0,72-32.296,72-72C496,384.296,463.704,352,424,352z M448,122.52c-7.288,3.472-15.408,5.48-24,5.48 c-8.592,0-16.712-2.008-24-5.48V96c0-4.416,3.584-8,8-8h32c4.416,0,8,3.584,8,8V122.52z M408,48c0-8.824,7.176-16,16-16 c8.824,0,16,7.176,16,16s-7.176,16-16,16C415.176,64,408,56.824,408,48z M480,72c0,15.216-6.12,29.008-16,39.112V96 c0-11.728-8.464-21.48-19.592-23.552C451.432,66.568,456,57.856,456,48c0-17.096-13.469-31.099-30.355-31.958 C455.758,16.918,480,41.68,480,72z M368,72c0-30.32,24.242-55.082,54.355-55.958C405.469,16.901,392,30.904,392,48 c0,9.856,4.568,18.568,11.592,24.448C392.464,74.52,384,84.272,384,96v15.112C374.12,101.008,368,87.208,368,72z M88,48 c0,8.824-7.176,16-16,16s-16-7.176-16-16s7.176-16,16-16S88,39.176,88,48z M32,96v15.112C22.12,101.008,16,87.216,16,72 c0-30.32,24.242-55.082,54.355-55.958C53.469,16.901,40,30.904,40,48c0,9.856,4.568,18.568,11.592,24.448 C40.464,74.52,32,84.272,32,96z M96,122.52c-7.288,3.472-15.408,5.48-24,5.48s-16.712-2.008-24-5.48V96c0-4.416,3.584-8,8-8h32 c4.416,0,8,3.584,8,8V122.52z M112,111.112V96c0-11.728-8.464-21.48-19.592-23.552C99.432,66.568,104,57.856,104,48 c0-17.096-13.469-31.099-30.355-31.958C103.758,16.918,128,41.68,128,72C128,87.216,121.88,101.008,112,111.112z M88,400 c0,8.824-7.176,16-16,16s-16-7.176-16-16c0-8.824,7.176-16,16-16S88,391.176,88,400z M32,448v15.112 C22.12,453.008,16,439.216,16,424c0-30.32,24.242-55.082,54.355-55.958C53.469,368.901,40,382.904,40,400 c0,9.856,4.568,18.568,11.592,24.448C40.464,426.52,32,436.272,32,448z M96,474.52c-7.288,3.472-15.408,5.48-24,5.48 s-16.712-2.008-24-5.48V448c0-4.416,3.584-8,8-8h32c4.416,0,8,3.584,8,8V474.52z M128,424c0,15.216-6.12,29.008-16,39.112V448 c0-11.728-8.464-21.48-19.592-23.552C99.432,418.568,104,409.856,104,400c0-17.096-13.469-31.099-30.355-31.958 C103.758,368.918,128,393.68,128,424z M248,344c-52.936,0-96-43.064-96-96c0-14.288,3.224-27.808,8.84-40h17.208l21.248,70.824 C194.808,283.184,192,289.264,192,296c0,13.232,10.768,24,24,24s24-10.768,24-24c0-2.816-0.576-5.488-1.472-8h26.952 c-0.904,2.512-1.48,5.184-1.48,8c0,13.232,10.768,24,24,24s24-10.768,24-24c0-2.816-0.576-5.488-1.472-8h8.408l10.208-71.448 L194.8,208.16L189.952,192h-19.768c17.448-24.176,45.784-40,77.816-40c52.936,0,96,43.064,96,96C344,300.936,300.936,344,248,344 z M213.952,272l-14.248-47.504l111.152,6.944L305.064,272H213.952z M296,296c0,4.416-3.584,8-8,8c-4.416,0-8-3.584-8-8 c0-4.416,3.584-8,8-8C292.416,288,296,291.584,296,296z M224,296c0,4.416-3.584,8-8,8s-8-3.584-8-8c0-4.416,3.584-8,8-8 S224,291.584,224,296z M440,400c0,8.824-7.176,16-16,16c-8.824,0-16-7.176-16-16c0-8.824,7.176-16,16-16 C432.824,384,440,391.176,440,400z M384,448v15.112c-9.88-10.104-16-23.904-16-39.112c0-30.32,24.242-55.082,54.355-55.958 C405.469,368.901,392,382.904,392,400c0,9.856,4.568,18.568,11.592,24.448C392.464,426.52,384,436.272,384,448z M448,474.52 c-7.288,3.472-15.408,5.48-24,5.48c-8.592,0-16.712-2.008-24-5.48V448c0-4.416,3.584-8,8-8h32c4.416,0,8,3.584,8,8V474.52z M464,463.112V448c0-11.728-8.464-21.48-19.592-23.552C451.432,418.568,456,409.856,456,400 c0-17.096-13.469-31.099-30.355-31.958C455.758,368.918,480,393.68,480,424C480,439.216,473.88,453.008,464,463.112z"/> <rect x="144" y="32" width="16" height="16"/> <rect x="176" y="32" width="16" height="16"/> <rect x="208" y="32" width="16" height="16"/> <rect x="240" y="32" width="16" height="16"/> <rect x="272" y="32" width="16" height="16"/> <rect x="304" y="32" width="16" height="16"/> <rect x="336" y="32" width="16" height="16"/> <rect x="32" y="336" width="16" height="16"/> <rect x="32" y="304" width="16" height="16"/> <rect x="32" y="272" width="16" height="16"/> <rect x="32" y="240" width="16" height="16"/> <rect x="32" y="208" width="16" height="16"/> <rect x="32" y="176" width="16" height="16"/> <rect x="32" y="144" width="16" height="16"/> <rect x="336" y="448" width="16" height="16"/> <rect x="304" y="448" width="16" height="16"/> <rect x="272" y="448" width="16" height="16"/> <rect x="240" y="448" width="16" height="16"/> <rect x="208" y="448" width="16" height="16"/> <rect x="176" y="448" width="16" height="16"/> <rect x="144" y="448" width="16" height="16"/> <rect x="448" y="144" width="16" height="16"/> <rect x="448" y="176" width="16" height="16"/> <rect x="448" y="208" width="16" height="16"/> <rect x="448" y="240" width="16" height="16"/> <rect x="448" y="272" width="16" height="16"/> <rect x="448" y="304" width="16" height="16"/> <rect x="448" y="336" width="16" height="16"/> </g> </g> </g> </g>
</svg>