<!DOCTYPE svg PUBLIC "-//W3C//DTD SVG 1.1//EN" "http://www.w3.org/Graphics/SVG/1.1/DTD/svg11.dtd">
<!-- Uploaded to: SVG Repo, www.svgrepo.com, Transformed by: SVG Repo Mixer Tools -->
<svg fill="#ff6300" height="800px" width="800px" version="1.1" id="Layer_1" xmlns="http://www.w3.org/2000/svg" xmlns:xlink="http://www.w3.org/1999/xlink" viewBox="0 0 512 512" xml:space="preserve">
<g id="SVGRepo_bgCarrier" stroke-width="0"/>
<g id="SVGRepo_tracerCarrier" stroke-linecap="round" stroke-linejoin="round"/>
<g id="SVGRepo_iconCarrier"> <g> <g> <g> <path d="M353.908,176.236c0-4.466-3.619-8.084-8.084-8.084c-4.466,0-8.084,3.618-8.084,8.084v4.312 c0,4.466,3.618,8.084,8.084,8.084c4.466,0,8.084-3.618,8.084-8.084V176.236z"/> <path d="M345.824,204.8c-4.466,0-8.084,3.619-8.084,8.084v4.312c0,4.466,3.618,8.084,8.084,8.084 c4.466,0,8.084-3.619,8.084-8.084v-4.312C353.908,208.419,350.29,204.8,345.824,204.8z"/> <path d="M452.716,123.688v5.928c0,4.466,3.619,8.084,8.084,8.084c4.466,0,8.084-3.618,8.084-8.084v-5.928 c0-4.466-3.618-8.084-8.084-8.084C456.334,115.604,452.716,119.223,452.716,123.688z"/> <path d="M460.8,102.4c28.231,0,51.2-22.969,51.2-51.2S489.031,0,460.8,0s-51.2,22.969-51.2,51.2S432.569,102.4,460.8,102.4z M460.8,16.168c19.317,0,35.032,15.715,35.032,35.032S480.117,86.232,460.8,86.232S425.768,70.517,425.768,51.2 S441.483,16.168,460.8,16.168z"/> <path d="M230.849,210.189c28.231,0,51.2-22.969,51.2-51.2s-22.969-51.2-51.2-51.2s-51.2,22.969-51.2,51.2 S202.618,210.189,230.849,210.189z M230.849,123.958c19.317,0,35.032,15.715,35.032,35.032s-15.715,35.032-35.032,35.032 s-35.032-15.715-35.032-35.032S211.533,123.958,230.849,123.958z"/> <path d="M345.824,156.295c28.231,0,51.2-22.969,51.2-51.2s-22.969-51.2-51.2-51.2c-28.231,0-51.2,22.969-51.2,51.2 S317.593,156.295,345.824,156.295z M345.824,70.063c19.317,0,35.032,15.715,35.032,35.032s-15.715,35.032-35.032,35.032 s-35.032-15.715-35.032-35.032S326.507,70.063,345.824,70.063z"/> <path d="M115.874,380.497c-4.466,0-8.084,3.619-8.084,8.084v4.312c0,4.466,3.618,8.084,8.084,8.084 c4.466,0,8.084-3.619,8.084-8.084v-4.312C123.958,384.115,120.339,380.497,115.874,380.497z"/> <path d="M123.958,278.636c0-4.466-3.618-8.084-8.084-8.084c-4.466,0-8.084,3.618-8.084,8.084v4.312 c0,4.466,3.618,8.084,8.084,8.084c4.466,0,8.084-3.618,8.084-8.084V278.636z"/> <path d="M40.421,495.832H8.084c-4.466,0-8.084,3.619-8.084,8.084C0,508.382,3.619,512,8.084,512h32.337 c4.466,0,8.084-3.618,8.084-8.084C48.505,499.45,44.887,495.832,40.421,495.832z"/> <path d="M482.358,150.905h-42.442c-16.344,0-29.642,13.298-29.642,29.642v56.589H353.01c-16.344,0-29.642,13.298-29.642,29.642 v56.589h-78.147c-16.344,0-29.642,13.298-29.642,29.642V409.6H105.095c-16.344,0-29.642,13.298-29.642,29.642v43.116 c0,4.848,1.171,9.429,3.243,13.474h-5.938c-4.466,0-8.084,3.619-8.084,8.084c0,4.466,3.618,8.084,8.084,8.084h409.6 C498.702,512,512,498.702,512,482.358V180.547C512,164.203,498.702,150.905,482.358,150.905z M495.832,237.137h-14.013 c-4.466,0-8.084,3.618-8.084,8.084c0,4.466,3.618,8.084,8.084,8.084h14.013v70.063h-14.013c-4.466,0-8.084,3.619-8.084,8.084 s3.618,8.084,8.084,8.084h14.013V409.6h-14.013c-4.466,0-8.084,3.619-8.084,8.084s3.618,8.084,8.084,8.084h14.013v56.589 c0,7.43-6.044,13.474-13.474,13.474H105.095c-7.43,0-13.474-6.044-13.474-13.474v-43.116c0-7.43,6.044-13.474,13.474-13.474 h343.584c4.466,0,8.084-3.619,8.084-8.084s-3.619-8.084-8.084-8.084H231.747V353.01c0-7.43,6.044-13.474,13.474-13.474h203.458 c4.466,0,8.084-3.619,8.084-8.084s-3.619-8.084-8.084-8.084H339.537v-56.589c0-7.43,6.044-13.474,13.474-13.474h97.011 c4.466,0,8.084-3.618,8.084-8.084c0-4.466-3.619-8.084-8.084-8.084h-23.579v-56.589c0-7.43,6.044-13.474,13.474-13.474h42.442 c7.43,0,13.474,6.044,13.474,13.474V237.137z"/> <path d="M123.958,315.284c0-4.466-3.618-8.084-8.084-8.084c-4.466,0-8.084,3.618-8.084,8.084v4.312 c0,4.466,3.618,8.084,8.084,8.084c4.466,0,8.084-3.618,8.084-8.084V315.284z"/> <path d="M115.874,264.084c28.231,0,51.2-22.969,51.2-51.2s-22.969-51.2-51.2-51.2c-28.231,0-51.2,22.969-51.2,51.2 S87.643,264.084,115.874,264.084z M115.874,177.853c19.317,0,35.032,15.715,35.032,35.032s-15.715,35.032-35.032,35.032 c-19.317,0-35.032-15.715-35.032-35.032S96.557,177.853,115.874,177.853z"/> <path d="M123.958,351.933c0-4.466-3.618-8.084-8.084-8.084c-4.466,0-8.084,3.618-8.084,8.084v4.312 c0,4.466,3.618,8.084,8.084,8.084c4.466,0,8.084-3.618,8.084-8.084V351.933z"/> <path d="M230.849,294.265c-4.466,0-8.084,3.618-8.084,8.084v4.312c0,4.466,3.619,8.084,8.084,8.084 c4.466,0,8.084-3.618,8.084-8.084v-4.312C238.934,297.884,235.315,294.265,230.849,294.265z"/> <path d="M238.934,229.053c0-4.466-3.618-8.084-8.084-8.084c-4.466,0-8.084,3.618-8.084,8.084v4.312 c0,4.466,3.619,8.084,8.084,8.084c4.466,0,8.084-3.618,8.084-8.084V229.053z"/> <path d="M238.934,265.701c0-4.466-3.618-8.084-8.084-8.084c-4.466,0-8.084,3.619-8.084,8.084v4.312 c0,4.466,3.619,8.084,8.084,8.084c4.466,0,8.084-3.619,8.084-8.084V265.701z"/> </g> </g> </g> </g>
</svg>