<!DOCTYPE svg PUBLIC "-//W3C//DTD SVG 1.1//EN" "http://www.w3.org/Graphics/SVG/1.1/DTD/svg11.dtd">
<!-- Uploaded to: SVG Repo, www.svgrepo.com, Transformed by: SVG Repo Mixer Tools -->
<svg fill="#ffff" version="1.1" id="Layer_1" xmlns="http://www.w3.org/2000/svg" xmlns:xlink="http://www.w3.org/1999/xlink" viewBox="0 0 496 496" xml:space="preserve" width="800px" height="800px" stroke="#ffff">
<g id="SVGRepo_bgCarrier" stroke-width="0"/>
<g id="SVGRepo_tracerCarrier" stroke-linecap="round" stroke-linejoin="round"/>
<g id="SVGRepo_iconCarrier"> <g> <g> <g> <path d="M464,151.985c-17.648,0-32,14.352-32,32c0,9.144,3.904,17.352,10.072,23.184L375.88,313.081 c-2.536-0.648-5.144-1.096-7.88-1.096c-11.52,0-21.544,6.168-27.184,15.328l-26.104-4.536c-1.776-14.68-2.712-29.464-2.712-44.24 v-22.552h16v-16h-16v-16h16v-16h-16v-4.176c34.648-24.12,52.592-64.728,46.992-107.04c-6.616-49.992-47.824-90.384-97.984-96.048 c-31.928-3.568-63.848,6.504-87.6,27.72C149.632,49.673,136,80.129,136,111.985c0,36.808,17.856,70.808,48,91.824v4.176h-16v16 h16v16h-16v16h16v22.552c0,7.128-0.216,14.264-0.632,21.384l-15.496-2.696c0.016-0.416,0.128-0.816,0.128-1.24 c0-17.648-14.352-32-32-32s-32,14.352-32,32c0,6.344,1.912,12.224,5.104,17.2l-62.048,82.736 c-4.512-2.432-9.584-3.936-15.056-3.936c-17.648,0-32,14.352-32,32s14.352,32,32,32s32-14.352,32-32 c0-6.344-1.912-12.224-5.104-17.2l62.048-82.736c4.512,2.432,9.584,3.936,15.056,3.936c11.52,0,21.544-6.168,27.184-15.328 l18.784,3.264c-4.56,44.592-17.088,88.416-37.128,128.48l-1.224,2.456l9.824,49.128h189.12l9.824-49.128l-1.224-2.456 c-16.496-33-27.912-68.544-34-104.968l18.968,3.296c-0.016,0.432-0.128,0.832-0.128,1.256c0,17.648,14.352,32,32,32 s32-14.352,32-32c0-9.144-3.904-17.352-10.072-23.184l66.192-105.912c2.536,0.648,5.144,1.096,7.88,1.096 c17.648,0,32-14.352,32-32S481.648,151.985,464,151.985z M32,439.985c-8.824,0-16-7.176-16-16c0-8.824,7.176-16,16-16 s16,7.176,16,16C48,432.809,40.824,439.985,32,439.985z M136,311.985c-8.824,0-16-7.176-16-16c0-8.824,7.176-16,16-16 c8.824,0,16,7.176,16,16C152,304.809,144.824,311.985,136,311.985z M152,111.985c0-27.304,11.688-53.416,32.064-71.616 c20.656-18.456,47.336-26.96,75.144-23.744c42.96,4.84,78.248,39.44,83.92,82.232c4.976,37.576-11.672,73.568-43.448,93.936 l-3.68,2.36v12.832h-40v-65.136c13.76-3.576,24-15.992,24-30.864c0-17.648-14.352-32-32-32s-32,14.352-32,32 c0,14.872,10.24,27.288,24,30.864v65.136h-40v-12.832l-3.68-2.352C168.568,175.001,152,144.793,152,111.985z M296,223.985v16h-96 v-16H296z M248,127.985c-8.824,0-16-7.176-16-16c0-8.824,7.176-16,16-16c8.824,0,16,7.176,16,16S256.824,127.985,248,127.985z M331.472,439.985H304v16h30.24l-4.8,24H166.56l-4.8-24H288v-16H164.528c19.608-42.736,31.408-89.072,34.536-136H264v-16h-64.272 c0.08-3.152,0.272-6.296,0.272-9.448v-22.552h96v22.552c0,3.152,0.192,6.296,0.272,9.448H280v16h16.936 C300.072,350.913,311.872,397.249,331.472,439.985z M368,359.985c-8.824,0-16-7.176-16-16c0-8.824,7.176-16,16-16 c8.824,0,16,7.176,16,16C384,352.809,376.824,359.985,368,359.985z M464,199.985c-8.824,0-16-7.176-16-16c0-8.824,7.176-16,16-16 c8.824,0,16,7.176,16,16C480,192.809,472.824,199.985,464,199.985z"/> <rect x="240" y="31.985" width="16" height="32"/> <rect x="186.746" y="58.744" transform="matrix(0.707 0.7072 -0.7072 0.707 106.6049 -123.828)" width="32" height="16"/> <rect x="168" y="103.985" width="32" height="16"/> <rect x="194.737" y="141.223" transform="matrix(0.7072 0.707 -0.707 0.7072 170.5171 -97.3027)" width="16" height="32"/> <rect x="277.255" y="149.252" transform="matrix(-0.707 -0.7072 0.7072 -0.707 389.3777 475.8222)" width="32" height="16"/> <rect x="296" y="103.985" width="32" height="16"/> <rect x="285.254" y="50.73" transform="matrix(0.7071 0.7071 -0.7071 0.7071 133.0774 -187.8168)" width="16" height="32"/> </g> </g> </g> </g>
</svg>