<!DOCTYPE svg PUBLIC "-//W3C//DTD SVG 1.1//EN" "http://www.w3.org/Graphics/SVG/1.1/DTD/svg11.dtd">
<!-- Uploaded to: SVG Repo, www.svgrepo.com, Transformed by: SVG Repo Mixer Tools -->
<svg fill="#FF6300" height="800px" width="800px" version="1.1" id="Capa_1" xmlns="http://www.w3.org/2000/svg" xmlns:xlink="http://www.w3.org/1999/xlink" viewBox="0 0 183.885 183.885" xml:space="preserve">
<g id="SVGRepo_bgCarrier" stroke-width="0"/>
<g id="SVGRepo_tracerCarrier" stroke-linecap="round" stroke-linejoin="round"/>
<g id="SVGRepo_iconCarrier"> <path d="M169.991,169.109H13.894C6.233,169.109,0,162.876,0,155.215v-99.74c0-7.661,6.233-13.894,13.894-13.894h12.383v-6.299 c0-1.381,1.119-2.5,2.5-2.5h17.724c1.381,0,2.5,1.119,2.5,2.5v6.299h16.684v-9.066c0-9.781,7.958-17.739,17.738-17.739h17.038 c9.781,0,17.739,7.958,17.739,17.739v9.066h16.684v-6.299c0-1.381,1.119-2.5,2.5-2.5h17.724c1.381,0,2.5,1.119,2.5,2.5v6.299h12.383 c7.661,0,13.894,6.232,13.894,13.894v99.74C183.885,162.876,177.652,169.109,169.991,169.109z M13.894,46.581 C8.99,46.581,5,50.57,5,55.475v99.74c0,4.904,3.99,8.895,8.894,8.895h156.097c4.904,0,8.894-3.99,8.894-8.895v-99.74 c0-4.904-3.99-8.894-8.894-8.894H13.894z M139.884,41.581h12.724v-3.799h-12.724V41.581z M70.685,41.581H113.2v-9.066 c0-7.024-5.714-12.739-12.739-12.739H83.423c-7.024,0-12.738,5.715-12.738,12.739V41.581z M31.277,41.581h12.724v-3.799H31.277 V41.581z M82.301,135.701H60.839c-1.381,0-2.5-1.119-2.5-2.5V111.74c0-1.381,1.119-2.5,2.5-2.5h21.461c1.381,0,2.5,1.119,2.5,2.5 v21.461C84.801,134.582,83.682,135.701,82.301,135.701z M63.339,130.701h16.461V114.24H63.339V130.701z M93.78,104.4 c-0.64,0-1.28-0.244-1.768-0.732L80.533,92.189c-0.469-0.469-0.732-1.104-0.732-1.768s0.263-1.299,0.732-1.768l11.479-11.479 c0.938-0.938,2.598-0.938,3.535,0l11.479,11.479c0.469,0.469,0.732,1.104,0.732,1.768s-0.263,1.299-0.732,1.768l-11.479,11.479 C95.06,104.156,94.419,104.4,93.78,104.4z M85.836,90.422l7.943,7.943l7.943-7.943l-7.943-7.944L85.836,90.422z M36.739,104.323 c-2.607,0-4.85-1.854-5.331-4.41l-1.54-8.17c-0.025-0.132-0.114-0.244-0.238-0.299l-7.603-3.363 c-1.896-0.838-3.129-2.646-3.216-4.718c-0.087-2.073,0.989-3.979,2.809-4.975l7.294-3.989c0.118-0.064,0.197-0.184,0.211-0.317 l0.849-8.271c0.285-2.771,2.605-4.861,5.397-4.861c1.373,0,2.685,0.525,3.696,1.478l6.048,5.705c0.076,0.071,0.176,0.111,0.28,0.111 l8.216-1.758c2.218-0.478,4.503,0.491,5.712,2.401c0.995,1.571,1.112,3.516,0.315,5.201l-3.557,7.515 c-0.058,0.121-0.052,0.265,0.017,0.382l4.174,7.188c0.983,1.694,0.988,3.717,0.013,5.411c-1.081,1.879-3.156,2.962-5.38,2.671 l-8.246-1.06c-0.165-0.015-0.28,0.046-0.358,0.133l-5.547,6.191C39.711,103.683,38.286,104.323,36.739,104.323z M35.371,65.95 c-0.016,0-0.386,0.005-0.423,0.372l-0.849,8.27c-0.181,1.771-1.222,3.339-2.785,4.194l-7.295,3.989 c-0.055,0.03-0.223,0.122-0.212,0.377c0.011,0.254,0.185,0.331,0.243,0.355l7.604,3.364c1.628,0.721,2.798,2.195,3.128,3.944 l1.54,8.171c0.061,0.319,0.358,0.336,0.418,0.336c0.116,0,0.202-0.042,0.29-0.139l5.548-6.192c1.178-1.314,2.944-1.982,4.718-1.755 l8.247,1.06c0.237,0.001,0.364-0.127,0.409-0.206c0.116-0.201,0.029-0.35-0.003-0.405l-4.175-7.189 c-0.893-1.54-0.973-3.42-0.212-5.029l3.558-7.517c0.029-0.061,0.097-0.204-0.02-0.388c-0.035-0.055-0.178-0.245-0.437-0.188 l-8.128,1.748c-1.72,0.371-3.562-0.14-4.849-1.354l-6.048-5.704C35.551,65.986,35.47,65.95,35.371,65.95z M141.591,85.748 c-6.837,0-12.399-5.562-12.399-12.398s5.562-12.399,12.399-12.399s12.399,5.563,12.399,12.399S148.428,85.748,141.591,85.748z M141.591,65.95c-4.08,0-7.399,3.319-7.399,7.399c0,4.079,3.319,7.398,7.399,7.398c4.08,0,7.399-3.319,7.399-7.398 C148.991,69.27,145.671,65.95,141.591,65.95z"/> </g>
</svg>