<svg xmlns="http://www.w3.org/2000/svg" xmlns:xlink="http://www.w3.org/1999/xlink" width="532" zoomAndPan="magnify" viewBox="0 0 398.88 398.999991" height="532" preserveAspectRatio="xMidYMid meet" version="1.0"><defs><clipPath id="fb91f81b67"><path d="M 0 0.398438 L 398.300781 0.398438 L 398.300781 398.699219 L 0 398.699219 Z M 0 0.398438 " clip-rule="nonzero"/></clipPath><clipPath id="81ffa85fae"><path d="M 199.148438 0.398438 C 89.164062 0.398438 0 89.558594 0 199.546875 C 0 309.535156 89.164062 398.699219 199.148438 398.699219 C 309.136719 398.699219 398.300781 309.535156 398.300781 199.546875 C 398.300781 89.558594 309.136719 0.398438 199.148438 0.398438 Z M 199.148438 0.398438 " clip-rule="nonzero"/></clipPath><clipPath id="a43e8d508b"><path d="M 0 0.398438 L 398.300781 0.398438 L 398.300781 398.699219 L 0 398.699219 Z M 0 0.398438 " clip-rule="nonzero"/></clipPath><clipPath id="1e7bcbfe01"><path d="M 199.148438 0.398438 C 89.164062 0.398438 0 89.558594 0 199.546875 C 0 309.535156 89.164062 398.699219 199.148438 398.699219 C 309.136719 398.699219 398.300781 309.535156 398.300781 199.546875 C 398.300781 89.558594 309.136719 0.398438 199.148438 0.398438 Z M 199.148438 0.398438 " clip-rule="nonzero"/></clipPath><clipPath id="19434ef60b"><rect x="0" width="399" y="0" height="399"/></clipPath><clipPath id="434b80a468"><path d="M 0 0.398438 L 398.128906 0.398438 L 398.128906 398.527344 L 0 398.527344 Z M 0 0.398438 " clip-rule="nonzero"/></clipPath><clipPath id="55962b6fd5"><path d="M 199.148438 0.398438 C 89.160156 0.398438 0 89.558594 0 199.542969 C 0 309.53125 89.160156 398.691406 199.148438 398.691406 C 309.132812 398.691406 398.292969 309.53125 398.292969 199.542969 C 398.292969 89.558594 309.132812 0.398438 199.148438 0.398438 Z M 199.148438 0.398438 " clip-rule="nonzero"/></clipPath><clipPath id="706cd64345"><path d="M 50 124 L 348 124 L 348 222 L 50 222 Z M 50 124 " clip-rule="nonzero"/></clipPath><clipPath id="7644a683b5"><path d="M 351.753906 133.925781 L 217.886719 305.265625 L 46.546875 171.402344 L 180.414062 0.0585938 Z M 351.753906 133.925781 " clip-rule="nonzero"/></clipPath><clipPath id="b9a3eed05c"><path d="M 351.753906 133.925781 L 217.886719 305.265625 L 46.546875 171.402344 L 180.414062 0.0585938 Z M 351.753906 133.925781 " clip-rule="nonzero"/></clipPath><clipPath id="9218ca33a6"><path d="M 93.5625 83.410156 L 168.539062 83.410156 L 168.539062 323.570312 L 93.5625 323.570312 Z M 93.5625 83.410156 " clip-rule="nonzero"/></clipPath><clipPath id="c5cba22d46"><path d="M 131.050781 83.410156 C 151.753906 83.410156 168.539062 100.191406 168.539062 120.898438 L 168.539062 285.847656 C 168.539062 306.550781 151.753906 323.335938 131.050781 323.335938 C 110.347656 323.335938 93.5625 306.550781 93.5625 285.847656 L 93.5625 120.898438 C 93.5625 100.191406 110.347656 83.410156 131.050781 83.410156 Z M 131.050781 83.410156 " clip-rule="nonzero"/></clipPath><clipPath id="a41ef655d0"><path d="M 0.5625 0.410156 L 75.539062 0.410156 L 75.539062 240.484375 L 0.5625 240.484375 Z M 0.5625 0.410156 " clip-rule="nonzero"/></clipPath><clipPath id="767db977d4"><path d="M 38.050781 0.410156 C 58.753906 0.410156 75.539062 17.191406 75.539062 37.898438 L 75.539062 202.847656 C 75.539062 223.550781 58.753906 240.335938 38.050781 240.335938 C 17.347656 240.335938 0.5625 223.550781 0.5625 202.847656 L 0.5625 37.898438 C 0.5625 17.191406 17.347656 0.410156 38.050781 0.410156 Z M 38.050781 0.410156 " clip-rule="nonzero"/></clipPath><clipPath id="d9e4e510b9"><rect x="0" width="76" y="0" height="241"/></clipPath><clipPath id="be516e32bb"><path d="M 123.554688 98.402344 L 168.539062 98.402344 L 168.539062 143.390625 L 123.554688 143.390625 Z M 123.554688 98.402344 " clip-rule="nonzero"/></clipPath><clipPath id="a1e82cd590"><path d="M 146.046875 98.402344 C 133.625 98.402344 123.554688 108.472656 123.554688 120.898438 C 123.554688 133.320312 133.625 143.390625 146.046875 143.390625 C 158.46875 143.390625 168.539062 133.320312 168.539062 120.898438 C 168.539062 108.472656 158.46875 98.402344 146.046875 98.402344 Z M 146.046875 98.402344 " clip-rule="nonzero"/></clipPath><clipPath id="647b4a9a0e"><path d="M 0.554688 0.402344 L 45.539062 0.402344 L 45.539062 45.390625 L 0.554688 45.390625 Z M 0.554688 0.402344 " clip-rule="nonzero"/></clipPath><clipPath id="24f26c7296"><path d="M 23.046875 0.402344 C 10.625 0.402344 0.554688 10.472656 0.554688 22.898438 C 0.554688 35.320312 10.625 45.390625 23.046875 45.390625 C 35.46875 45.390625 45.539062 35.320312 45.539062 22.898438 C 45.539062 10.472656 35.46875 0.402344 23.046875 0.402344 Z M 23.046875 0.402344 " clip-rule="nonzero"/></clipPath><clipPath id="c3a0d06d8a"><rect x="0" width="46" y="0" height="46"/></clipPath><clipPath id="feed6f4bde"><path d="M 218.523438 53.417969 L 293.503906 53.417969 L 293.503906 353.328125 L 218.523438 353.328125 Z M 218.523438 53.417969 " clip-rule="nonzero"/></clipPath><clipPath id="1087206f25"><path d="M 256.011719 53.417969 C 276.71875 53.417969 293.503906 70.203125 293.503906 90.90625 L 293.503906 315.839844 C 293.503906 336.542969 276.71875 353.328125 256.011719 353.328125 C 235.308594 353.328125 218.523438 336.542969 218.523438 315.839844 L 218.523438 90.90625 C 218.523438 70.203125 235.308594 53.417969 256.011719 53.417969 Z M 256.011719 53.417969 " clip-rule="nonzero"/></clipPath><clipPath id="5679c226c5"><path d="M 0.523438 0.417969 L 75.503906 0.417969 L 75.503906 300.328125 L 0.523438 300.328125 Z M 0.523438 0.417969 " clip-rule="nonzero"/></clipPath><clipPath id="2a9a6c4fd8"><path d="M 38.011719 0.417969 C 58.71875 0.417969 75.503906 17.203125 75.503906 37.90625 L 75.503906 262.839844 C 75.503906 283.542969 58.71875 300.328125 38.011719 300.328125 C 17.308594 300.328125 0.523438 283.542969 0.523438 262.839844 L 0.523438 37.90625 C 0.523438 17.203125 17.308594 0.417969 38.011719 0.417969 Z M 38.011719 0.417969 " clip-rule="nonzero"/></clipPath><clipPath id="037ecfed25"><rect x="0" width="76" y="0" height="301"/></clipPath><clipPath id="3f18a06f8b"><path d="M 218.523438 68.414062 L 263.511719 68.414062 L 263.511719 113.398438 L 218.523438 113.398438 Z M 218.523438 68.414062 " clip-rule="nonzero"/></clipPath><clipPath id="95c2a5e64f"><path d="M 241.019531 68.414062 C 228.59375 68.414062 218.523438 78.484375 218.523438 90.90625 C 218.523438 103.328125 228.59375 113.398438 241.019531 113.398438 C 253.441406 113.398438 263.511719 103.328125 263.511719 90.90625 C 263.511719 78.484375 253.441406 68.414062 241.019531 68.414062 Z M 241.019531 68.414062 " clip-rule="nonzero"/></clipPath><clipPath id="570ed9fe6c"><path d="M 0.523438 0.414062 L 45.511719 0.414062 L 45.511719 45.398438 L 0.523438 45.398438 Z M 0.523438 0.414062 " clip-rule="nonzero"/></clipPath><clipPath id="c9883f7391"><path d="M 23.019531 0.414062 C 10.59375 0.414062 0.523438 10.484375 0.523438 22.90625 C 0.523438 35.328125 10.59375 45.398438 23.019531 45.398438 C 35.441406 45.398438 45.511719 35.328125 45.511719 22.90625 C 45.511719 10.484375 35.441406 0.414062 23.019531 0.414062 Z M 23.019531 0.414062 " clip-rule="nonzero"/></clipPath><clipPath id="3539082b0f"><rect x="0" width="46" y="0" height="46"/></clipPath></defs><g clip-path="url(#fb91f81b67)"><g clip-path="url(#81ffa85fae)"><g transform="matrix(1, 0, 0, 1, 0, -0.000000000000023759)"><g clip-path="url(#19434ef60b)"><g clip-path="url(#a43e8d508b)"><g clip-path="url(#1e7bcbfe01)"><path fill="#c2f6ff" d="M 0 0.398438 L 398.300781 0.398438 L 398.300781 398.699219 L 0 398.699219 Z M 0 0.398438 " fill-opacity="1" fill-rule="nonzero"/></g></g></g></g></g></g><g clip-path="url(#434b80a468)"><g clip-path="url(#55962b6fd5)"><path stroke-linecap="butt" transform="matrix(0.749774, 0, 0, 0.749774, -0.000000000000170479, 0.397759)" fill="none" stroke-linejoin="miter" d="M 265.611144 0.000904678 C 118.915977 0.000904678 0.000000000000227374 118.916882 0.000000000000227374 265.606839 C 0.000000000000227374 412.302006 118.915977 531.217983 265.611144 531.217983 C 412.301101 531.217983 531.217078 412.302006 531.217078 265.606839 C 531.217078 118.916882 412.301101 0.000904678 265.611144 0.000904678 Z M 265.611144 0.000904678 " stroke="#006636" stroke-width="12" stroke-opacity="1" stroke-miterlimit="4"/></g></g><g clip-path="url(#706cd64345)"><g clip-path="url(#7644a683b5)"><g clip-path="url(#b9a3eed05c)"><path fill="#006636" d="M 53.210938 162.871094 C 56.890625 158.164062 63.695312 157.328125 68.402344 161.003906 C 148.769531 223.792969 265.242188 209.492188 328.03125 129.128906 C 331.707031 124.417969 338.515625 123.582031 343.222656 127.261719 C 347.933594 130.941406 348.769531 137.746094 345.089844 142.457031 C 327.921875 164.425781 306.964844 182.394531 282.78125 195.832031 C 259.421875 208.820312 234.089844 217.050781 207.472656 220.316406 C 180.851562 223.585938 154.265625 221.714844 128.476562 214.78125 C 101.761719 207.589844 77.078125 195.226562 55.105469 178.0625 C 50.367188 174.386719 49.53125 167.578125 53.210938 162.871094 Z M 53.210938 162.871094 " fill-opacity="1" fill-rule="nonzero"/></g></g></g><g clip-path="url(#9218ca33a6)"><g clip-path="url(#c5cba22d46)"><g transform="matrix(1, 0, 0, 1, 93, 83)"><g clip-path="url(#d9e4e510b9)"><g clip-path="url(#a41ef655d0)"><g clip-path="url(#767db977d4)"><path fill="#006636" d="M 0.5625 0.410156 L 75.539062 0.410156 L 75.539062 240.277344 L 0.5625 240.277344 Z M 0.5625 0.410156 " fill-opacity="1" fill-rule="nonzero"/></g></g></g></g></g></g><g clip-path="url(#be516e32bb)"><g clip-path="url(#a1e82cd590)"><g transform="matrix(1, 0, 0, 1, 123, 98)"><g clip-path="url(#c3a0d06d8a)"><g clip-path="url(#647b4a9a0e)"><g clip-path="url(#24f26c7296)"><path fill="#ff4500" d="M 0.554688 0.402344 L 45.539062 0.402344 L 45.539062 45.390625 L 0.554688 45.390625 Z M 0.554688 0.402344 " fill-opacity="1" fill-rule="nonzero"/></g></g></g></g><path stroke-linecap="butt" transform="matrix(0.749774, 0, 0, 0.749774, 123.553126, 98.403761)" fill="none" stroke-linejoin="miter" d="M 30.000687 -0.00188974 C 13.433205 -0.00188974 0.00208204 13.429233 0.00208204 30.001925 C 0.00208204 46.569407 13.433205 60.00053 30.000687 60.00053 C 46.568169 60.00053 59.999292 46.569407 59.999292 30.001925 C 59.999292 13.429233 46.568169 -0.00188974 30.000687 -0.00188974 Z M 30.000687 -0.00188974 " stroke="#ffffff" stroke-width="16" stroke-opacity="1" stroke-miterlimit="4"/></g></g><g clip-path="url(#feed6f4bde)"><g clip-path="url(#1087206f25)"><g transform="matrix(1, 0, 0, 1, 218, 53)"><g clip-path="url(#037ecfed25)"><g clip-path="url(#5679c226c5)"><g clip-path="url(#2a9a6c4fd8)"><path fill="#006636" d="M 0.523438 0.417969 L 75.503906 0.417969 L 75.503906 300.328125 L 0.523438 300.328125 Z M 0.523438 0.417969 " fill-opacity="1" fill-rule="nonzero"/></g></g></g></g></g></g><g clip-path="url(#3f18a06f8b)"><g clip-path="url(#95c2a5e64f)"><g transform="matrix(1, 0, 0, 1, 218, 68)"><g clip-path="url(#3539082b0f)"><g clip-path="url(#570ed9fe6c)"><g clip-path="url(#c9883f7391)"><path fill="#ff4500" d="M 0.523438 0.414062 L 45.511719 0.414062 L 45.511719 45.398438 L 0.523438 45.398438 Z M 0.523438 0.414062 " fill-opacity="1" fill-rule="nonzero"/></g></g></g></g><path stroke-linecap="butt" transform="matrix(0.749774, 0, 0, 0.749774, 218.524548, 68.412784)" fill="none" stroke-linejoin="miter" d="M 30.002334 0.0017046 C 13.429642 0.0017046 -0.00148091 13.432827 -0.00148091 30.000309 C -0.00148091 46.567792 13.429642 59.998914 30.002334 59.998914 C 46.569816 59.998914 60.000939 46.567792 60.000939 30.000309 C 60.000939 13.432827 46.569816 0.0017046 30.002334 0.0017046 Z M 30.002334 0.0017046 " stroke="#ffffff" stroke-width="16" stroke-opacity="1" stroke-miterlimit="4"/></g></g></svg>