<svg xmlns="http://www.w3.org/2000/svg" xmlns:xlink="http://www.w3.org/1999/xlink" width="976" zoomAndPan="magnify" viewBox="0 0 732 724.499978" height="966" preserveAspectRatio="xMidYMid meet" version="1.0"><defs><g/><clipPath id="197ab43430"><path d="M 0.253906 0 L 731.746094 0 L 731.746094 724 L 0.253906 724 Z M 0.253906 0 " clip-rule="nonzero"/></clipPath><clipPath id="df1c527e02"><path d="M 217 127 L 515 127 L 515 224 L 217 224 Z M 217 127 " clip-rule="nonzero"/></clipPath><clipPath id="034b874fe0"><path d="M 518.398438 136.0625 L 384.585938 307.335938 L 213.3125 173.523438 L 347.125 2.25 Z M 518.398438 136.0625 " clip-rule="nonzero"/></clipPath><clipPath id="0c2c4c03cc"><path d="M 518.398438 136.0625 L 384.585938 307.335938 L 213.3125 173.523438 L 347.125 2.25 Z M 518.398438 136.0625 " clip-rule="nonzero"/></clipPath><clipPath id="2882972d4e"><path d="M 260.308594 85.5625 L 335.257812 85.5625 L 335.257812 325.632812 L 260.308594 325.632812 Z M 260.308594 85.5625 " clip-rule="nonzero"/></clipPath><clipPath id="da7b1b18fd"><path d="M 297.78125 85.5625 C 318.480469 85.5625 335.257812 102.34375 335.257812 123.039062 L 335.257812 287.925781 C 335.257812 308.621094 318.480469 325.398438 297.78125 325.398438 C 277.085938 325.398438 260.308594 308.621094 260.308594 287.925781 L 260.308594 123.039062 C 260.308594 102.34375 277.085938 85.5625 297.78125 85.5625 Z M 297.78125 85.5625 " clip-rule="nonzero"/></clipPath><clipPath id="6c48487fde"><path d="M 0.308594 0.5625 L 75.257812 0.5625 L 75.257812 240.457031 L 0.308594 240.457031 Z M 0.308594 0.5625 " clip-rule="nonzero"/></clipPath><clipPath id="716187b02b"><path d="M 37.78125 0.5625 C 58.480469 0.5625 75.257812 17.34375 75.257812 38.039062 L 75.257812 202.925781 C 75.257812 223.621094 58.480469 240.398438 37.78125 240.398438 C 17.085938 240.398438 0.308594 223.621094 0.308594 202.925781 L 0.308594 38.039062 C 0.308594 17.34375 17.085938 0.5625 37.78125 0.5625 Z M 37.78125 0.5625 " clip-rule="nonzero"/></clipPath><clipPath id="7c01331765"><rect x="0" width="76" y="0" height="241"/></clipPath><clipPath id="de9f70507f"><path d="M 290.289062 100.554688 L 335.257812 100.554688 L 335.257812 145.523438 L 290.289062 145.523438 Z M 290.289062 100.554688 " clip-rule="nonzero"/></clipPath><clipPath id="40cfdab05a"><path d="M 312.773438 100.554688 C 300.355469 100.554688 290.289062 110.621094 290.289062 123.039062 C 290.289062 135.457031 300.355469 145.523438 312.773438 145.523438 C 325.191406 145.523438 335.257812 135.457031 335.257812 123.039062 C 335.257812 110.621094 325.191406 100.554688 312.773438 100.554688 Z M 312.773438 100.554688 " clip-rule="nonzero"/></clipPath><clipPath id="aadb02919e"><path d="M 0.289062 0.554688 L 45.257812 0.554688 L 45.257812 45.523438 L 0.289062 45.523438 Z M 0.289062 0.554688 " clip-rule="nonzero"/></clipPath><clipPath id="060a51b573"><path d="M 22.773438 0.554688 C 10.355469 0.554688 0.289062 10.621094 0.289062 23.039062 C 0.289062 35.457031 10.355469 45.523438 22.773438 45.523438 C 35.191406 45.523438 45.257812 35.457031 45.257812 23.039062 C 45.257812 10.621094 35.191406 0.554688 22.773438 0.554688 Z M 22.773438 0.554688 " clip-rule="nonzero"/></clipPath><clipPath id="d3a02796ef"><rect x="0" width="46" y="0" height="46"/></clipPath><clipPath id="bd1b4e519c"><path d="M 385.222656 55.585938 L 460.171875 55.585938 L 460.171875 355.378906 L 385.222656 355.378906 Z M 385.222656 55.585938 " clip-rule="nonzero"/></clipPath><clipPath id="ba00104dd0"><path d="M 422.695312 55.585938 C 443.390625 55.585938 460.171875 72.363281 460.171875 93.058594 L 460.171875 317.902344 C 460.171875 338.601562 443.390625 355.378906 422.695312 355.378906 C 402 355.378906 385.222656 338.601562 385.222656 317.902344 L 385.222656 93.058594 C 385.222656 72.363281 402 55.585938 422.695312 55.585938 Z M 422.695312 55.585938 " clip-rule="nonzero"/></clipPath><clipPath id="540c2dad46"><path d="M 0.222656 0.585938 L 75.171875 0.585938 L 75.171875 300.378906 L 0.222656 300.378906 Z M 0.222656 0.585938 " clip-rule="nonzero"/></clipPath><clipPath id="17ec07ccb3"><path d="M 37.695312 0.585938 C 58.390625 0.585938 75.171875 17.363281 75.171875 38.058594 L 75.171875 262.902344 C 75.171875 283.601562 58.390625 300.378906 37.695312 300.378906 C 17 300.378906 0.222656 283.601562 0.222656 262.902344 L 0.222656 38.058594 C 0.222656 17.363281 17 0.585938 37.695312 0.585938 Z M 37.695312 0.585938 " clip-rule="nonzero"/></clipPath><clipPath id="ecd35b1ffb"><rect x="0" width="76" y="0" height="301"/></clipPath><clipPath id="35bdb39cf1"><path d="M 385.222656 70.574219 L 430.191406 70.574219 L 430.191406 115.542969 L 385.222656 115.542969 Z M 385.222656 70.574219 " clip-rule="nonzero"/></clipPath><clipPath id="f8bc9185bf"><path d="M 407.707031 70.574219 C 395.289062 70.574219 385.222656 80.640625 385.222656 93.058594 C 385.222656 105.476562 395.289062 115.542969 407.707031 115.542969 C 420.125 115.542969 430.191406 105.476562 430.191406 93.058594 C 430.191406 80.640625 420.125 70.574219 407.707031 70.574219 Z M 407.707031 70.574219 " clip-rule="nonzero"/></clipPath><clipPath id="94a2bd1d76"><path d="M 0.222656 0.574219 L 45.191406 0.574219 L 45.191406 45.542969 L 0.222656 45.542969 Z M 0.222656 0.574219 " clip-rule="nonzero"/></clipPath><clipPath id="9b01e13f1d"><path d="M 22.707031 0.574219 C 10.289062 0.574219 0.222656 10.640625 0.222656 23.058594 C 0.222656 35.476562 10.289062 45.542969 22.707031 45.542969 C 35.125 45.542969 45.191406 35.476562 45.191406 23.058594 C 45.191406 10.640625 35.125 0.574219 22.707031 0.574219 Z M 22.707031 0.574219 " clip-rule="nonzero"/></clipPath><clipPath id="79a0fb8444"><rect x="0" width="46" y="0" height="46"/></clipPath></defs><g clip-path="url(#197ab43430)"><path fill="#ffffff" d="M 0.253906 0 L 731.746094 0 L 731.746094 724 L 0.253906 724 Z M 0.253906 0 " fill-opacity="1" fill-rule="nonzero"/></g><g clip-path="url(#df1c527e02)"><g clip-path="url(#034b874fe0)"><g clip-path="url(#0c2c4c03cc)"><path fill="#006636" d="M 219.972656 164.996094 C 223.648438 160.289062 230.453125 159.453125 235.160156 163.132812 C 315.492188 225.894531 431.921875 211.601562 494.683594 131.265625 C 498.363281 126.558594 505.167969 125.722656 509.871094 129.402344 C 514.578125 133.078125 515.414062 139.882812 511.738281 144.589844 C 494.578125 166.550781 473.628906 184.511719 449.453125 197.945312 C 426.105469 210.925781 400.78125 219.152344 374.175781 222.421875 C 347.566406 225.6875 320.988281 223.816406 295.207031 216.886719 C 268.503906 209.695312 243.832031 197.339844 221.867188 180.179688 C 217.128906 176.507812 216.296875 169.703125 219.972656 164.996094 Z M 219.972656 164.996094 " fill-opacity="1" fill-rule="nonzero"/></g></g></g><g clip-path="url(#2882972d4e)"><g clip-path="url(#da7b1b18fd)"><g transform="matrix(1, 0, 0, 1, 260, 85)"><g clip-path="url(#7c01331765)"><g clip-path="url(#6c48487fde)"><g clip-path="url(#716187b02b)"><path fill="#006636" d="M 0.308594 0.5625 L 75.257812 0.5625 L 75.257812 240.339844 L 0.308594 240.339844 Z M 0.308594 0.5625 " fill-opacity="1" fill-rule="nonzero"/></g></g></g></g></g></g><g clip-path="url(#de9f70507f)"><g clip-path="url(#40cfdab05a)"><g transform="matrix(1, 0, 0, 1, 290, 100)"><g clip-path="url(#d3a02796ef)"><g clip-path="url(#aadb02919e)"><g clip-path="url(#060a51b573)"><path fill="#ff4500" d="M 0.289062 0.554688 L 45.257812 0.554688 L 45.257812 45.523438 L 0.289062 45.523438 Z M 0.289062 0.554688 " fill-opacity="1" fill-rule="nonzero"/></g></g></g></g><path stroke-linecap="butt" transform="matrix(0.749483, 0, 0, 0.749483, 290.287331, 100.553989)" fill="none" stroke-linejoin="miter" d="M 30.002167 0.000932531 C 13.433449 0.000932531 0.00231076 13.43207 0.00231076 30.000789 C 0.00231076 46.569507 13.433449 60.000645 30.002167 60.000645 C 46.570886 60.000645 60.002024 46.569507 60.002024 30.000789 C 60.002024 13.43207 46.570886 0.000932531 30.002167 0.000932531 Z M 30.002167 0.000932531 " stroke="#ffffff" stroke-width="16" stroke-opacity="1" stroke-miterlimit="4"/></g></g><g clip-path="url(#bd1b4e519c)"><g clip-path="url(#ba00104dd0)"><g transform="matrix(1, 0, 0, 1, 385, 55)"><g clip-path="url(#ecd35b1ffb)"><g clip-path="url(#540c2dad46)"><g clip-path="url(#17ec07ccb3)"><path fill="#006636" d="M 0.222656 0.585938 L 75.171875 0.585938 L 75.171875 300.378906 L 0.222656 300.378906 Z M 0.222656 0.585938 " fill-opacity="1" fill-rule="nonzero"/></g></g></g></g></g></g><g clip-path="url(#35bdb39cf1)"><g clip-path="url(#f8bc9185bf)"><g transform="matrix(1, 0, 0, 1, 385, 70)"><g clip-path="url(#79a0fb8444)"><g clip-path="url(#94a2bd1d76)"><g clip-path="url(#9b01e13f1d)"><path fill="#ff4500" d="M 0.222656 0.574219 L 45.191406 0.574219 L 45.191406 45.542969 L 0.222656 45.542969 Z M 0.222656 0.574219 " fill-opacity="1" fill-rule="nonzero"/></g></g></g></g><path stroke-linecap="butt" transform="matrix(0.749483, 0, 0, 0.749483, 385.221815, 70.57468)" fill="none" stroke-linejoin="miter" d="M 30.000978 -0.000615929 C 13.43226 -0.000615929 0.0011219 13.430522 0.0011219 29.999241 C 0.0011219 46.567959 13.43226 59.999097 30.000978 59.999097 C 46.569697 59.999097 60.000835 46.567959 60.000835 29.999241 C 60.000835 13.430522 46.569697 -0.000615929 30.000978 -0.000615929 Z M 30.000978 -0.000615929 " stroke="#ffffff" stroke-width="16" stroke-opacity="1" stroke-miterlimit="4"/></g></g><g fill="#006636" fill-opacity="1"><g transform="translate(92.884973, 559.073398)"><g><path d="M 42.515625 -31.390625 L 34.515625 0 L 26.9375 0 L 22.6875 -16.484375 C 22.601562 -16.796875 22.488281 -17.273438 22.34375 -17.921875 C 22.207031 -18.566406 22.054688 -19.269531 21.890625 -20.03125 C 21.734375 -20.800781 21.59375 -21.523438 21.46875 -22.203125 C 21.351562 -22.890625 21.273438 -23.429688 21.234375 -23.828125 C 21.191406 -23.429688 21.109375 -22.894531 20.984375 -22.21875 C 20.859375 -21.550781 20.722656 -20.835938 20.578125 -20.078125 C 20.429688 -19.316406 20.285156 -18.601562 20.140625 -17.9375 C 19.992188 -17.28125 19.878906 -16.785156 19.796875 -16.453125 L 15.5625 0 L 8.015625 0 L 0 -31.390625 L 6.546875 -31.390625 L 10.5625 -14.25 C 10.675781 -13.738281 10.804688 -13.125 10.953125 -12.40625 C 11.109375 -11.6875 11.257812 -10.9375 11.40625 -10.15625 C 11.5625 -9.382812 11.695312 -8.632812 11.8125 -7.90625 C 11.9375 -7.1875 12.03125 -6.5625 12.09375 -6.03125 C 12.15625 -6.570312 12.242188 -7.203125 12.359375 -7.921875 C 12.472656 -8.648438 12.597656 -9.390625 12.734375 -10.140625 C 12.878906 -10.890625 13.019531 -11.585938 13.15625 -12.234375 C 13.300781 -12.878906 13.429688 -13.398438 13.546875 -13.796875 L 18.125 -31.390625 L 24.40625 -31.390625 L 28.984375 -13.796875 C 29.085938 -13.410156 29.207031 -12.890625 29.34375 -12.234375 C 29.476562 -11.585938 29.613281 -10.882812 29.75 -10.125 C 29.894531 -9.375 30.023438 -8.632812 30.140625 -7.90625 C 30.265625 -7.1875 30.359375 -6.5625 30.421875 -6.03125 C 30.523438 -6.75 30.664062 -7.617188 30.84375 -8.640625 C 31.019531 -9.660156 31.210938 -10.675781 31.421875 -11.6875 C 31.628906 -12.707031 31.8125 -13.5625 31.96875 -14.25 L 35.953125 -31.390625 Z M 42.515625 -31.390625 "/></g></g></g><g fill="#006636" fill-opacity="1"><g transform="translate(135.387147, 559.073398)"><g><path d="M 22.03125 0 L 3.953125 0 L 3.953125 -31.390625 L 22.03125 -31.390625 L 22.03125 -25.9375 L 10.609375 -25.9375 L 10.609375 -19.046875 L 21.234375 -19.046875 L 21.234375 -13.59375 L 10.609375 -13.59375 L 10.609375 -5.5 L 22.03125 -5.5 Z M 22.03125 0 "/></g></g></g><g fill="#006636" fill-opacity="1"><g transform="translate(160.008356, 559.073398)"><g><path d="M 3.953125 0 L 3.953125 -31.390625 L 10.609375 -31.390625 L 10.609375 -5.5 L 23.34375 -5.5 L 23.34375 0 Z M 3.953125 0 "/></g></g></g><g fill="#006636" fill-opacity="1"><g transform="translate(184.844223, 559.073398)"><g><path d="M 3.953125 0 L 3.953125 -31.390625 L 10.609375 -31.390625 L 10.609375 -5.5 L 23.34375 -5.5 L 23.34375 0 Z M 3.953125 0 "/></g></g></g><g fill="#006636" fill-opacity="1"><g transform="translate(209.680089, 559.073398)"><g><path d="M 31.796875 0 L 23.34375 0 L 9.6875 -23.75 L 9.484375 -23.75 C 9.546875 -22.757812 9.597656 -21.757812 9.640625 -20.75 C 9.679688 -19.75 9.722656 -18.753906 9.765625 -17.765625 C 9.804688 -16.773438 9.847656 -15.773438 9.890625 -14.765625 L 9.890625 0 L 3.953125 0 L 3.953125 -31.390625 L 12.34375 -31.390625 L 25.984375 -7.875 L 26.125 -7.875 C 26.09375 -8.851562 26.054688 -9.820312 26.015625 -10.78125 C 25.972656 -11.738281 25.929688 -12.695312 25.890625 -13.65625 C 25.859375 -14.613281 25.832031 -15.570312 25.8125 -16.53125 L 25.8125 -31.390625 L 31.796875 -31.390625 Z M 31.796875 0 "/></g></g></g><g fill="#006636" fill-opacity="1"><g transform="translate(245.420554, 559.073398)"><g><path d="M 22.03125 0 L 3.953125 0 L 3.953125 -31.390625 L 22.03125 -31.390625 L 22.03125 -25.9375 L 10.609375 -25.9375 L 10.609375 -19.046875 L 21.234375 -19.046875 L 21.234375 -13.59375 L 10.609375 -13.59375 L 10.609375 -5.5 L 22.03125 -5.5 Z M 22.03125 0 "/></g></g></g><g fill="#006636" fill-opacity="1"><g transform="translate(270.041763, 559.073398)"><g><path d="M 22.484375 -8.71875 C 22.484375 -6.851562 22.03125 -5.234375 21.125 -3.859375 C 20.21875 -2.484375 18.898438 -1.425781 17.171875 -0.6875 C 15.453125 0.0507812 13.363281 0.421875 10.90625 0.421875 C 9.820312 0.421875 8.757812 0.347656 7.71875 0.203125 C 6.675781 0.0664062 5.679688 -0.140625 4.734375 -0.421875 C 3.785156 -0.703125 2.878906 -1.046875 2.015625 -1.453125 L 2.015625 -7.640625 C 3.503906 -6.984375 5.050781 -6.390625 6.65625 -5.859375 C 8.257812 -5.328125 9.847656 -5.0625 11.421875 -5.0625 C 12.503906 -5.0625 13.378906 -5.203125 14.046875 -5.484375 C 14.710938 -5.773438 15.195312 -6.171875 15.5 -6.671875 C 15.800781 -7.171875 15.953125 -7.742188 15.953125 -8.390625 C 15.953125 -9.179688 15.6875 -9.851562 15.15625 -10.40625 C 14.625 -10.96875 13.894531 -11.488281 12.96875 -11.96875 C 12.050781 -12.457031 11.015625 -12.984375 9.859375 -13.546875 C 9.128906 -13.890625 8.332031 -14.304688 7.46875 -14.796875 C 6.613281 -15.296875 5.796875 -15.898438 5.015625 -16.609375 C 4.242188 -17.328125 3.613281 -18.195312 3.125 -19.21875 C 2.632812 -20.25 2.390625 -21.476562 2.390625 -22.90625 C 2.390625 -24.78125 2.816406 -26.382812 3.671875 -27.71875 C 4.523438 -29.050781 5.75 -30.070312 7.34375 -30.78125 C 8.945312 -31.488281 10.835938 -31.84375 13.015625 -31.84375 C 14.640625 -31.84375 16.191406 -31.648438 17.671875 -31.265625 C 19.160156 -30.890625 20.710938 -30.34375 22.328125 -29.625 L 20.1875 -24.453125 C 18.738281 -25.035156 17.441406 -25.488281 16.296875 -25.8125 C 15.148438 -26.132812 13.984375 -26.296875 12.796875 -26.296875 C 11.960938 -26.296875 11.253906 -26.160156 10.671875 -25.890625 C 10.085938 -25.628906 9.644531 -25.257812 9.34375 -24.78125 C 9.039062 -24.300781 8.890625 -23.75 8.890625 -23.125 C 8.890625 -22.375 9.109375 -21.742188 9.546875 -21.234375 C 9.984375 -20.734375 10.640625 -20.242188 11.515625 -19.765625 C 12.398438 -19.296875 13.5 -18.75 14.8125 -18.125 C 16.414062 -17.363281 17.785156 -16.570312 18.921875 -15.75 C 20.054688 -14.925781 20.929688 -13.957031 21.546875 -12.84375 C 22.171875 -11.738281 22.484375 -10.363281 22.484375 -8.71875 Z M 22.484375 -8.71875 "/></g></g></g><g fill="#006636" fill-opacity="1"><g transform="translate(294.255111, 559.073398)"><g><path d="M 22.484375 -8.71875 C 22.484375 -6.851562 22.03125 -5.234375 21.125 -3.859375 C 20.21875 -2.484375 18.898438 -1.425781 17.171875 -0.6875 C 15.453125 0.0507812 13.363281 0.421875 10.90625 0.421875 C 9.820312 0.421875 8.757812 0.347656 7.71875 0.203125 C 6.675781 0.0664062 5.679688 -0.140625 4.734375 -0.421875 C 3.785156 -0.703125 2.878906 -1.046875 2.015625 -1.453125 L 2.015625 -7.640625 C 3.503906 -6.984375 5.050781 -6.390625 6.65625 -5.859375 C 8.257812 -5.328125 9.847656 -5.0625 11.421875 -5.0625 C 12.503906 -5.0625 13.378906 -5.203125 14.046875 -5.484375 C 14.710938 -5.773438 15.195312 -6.171875 15.5 -6.671875 C 15.800781 -7.171875 15.953125 -7.742188 15.953125 -8.390625 C 15.953125 -9.179688 15.6875 -9.851562 15.15625 -10.40625 C 14.625 -10.96875 13.894531 -11.488281 12.96875 -11.96875 C 12.050781 -12.457031 11.015625 -12.984375 9.859375 -13.546875 C 9.128906 -13.890625 8.332031 -14.304688 7.46875 -14.796875 C 6.613281 -15.296875 5.796875 -15.898438 5.015625 -16.609375 C 4.242188 -17.328125 3.613281 -18.195312 3.125 -19.21875 C 2.632812 -20.25 2.390625 -21.476562 2.390625 -22.90625 C 2.390625 -24.78125 2.816406 -26.382812 3.671875 -27.71875 C 4.523438 -29.050781 5.75 -30.070312 7.34375 -30.78125 C 8.945312 -31.488281 10.835938 -31.84375 13.015625 -31.84375 C 14.640625 -31.84375 16.191406 -31.648438 17.671875 -31.265625 C 19.160156 -30.890625 20.710938 -30.34375 22.328125 -29.625 L 20.1875 -24.453125 C 18.738281 -25.035156 17.441406 -25.488281 16.296875 -25.8125 C 15.148438 -26.132812 13.984375 -26.296875 12.796875 -26.296875 C 11.960938 -26.296875 11.253906 -26.160156 10.671875 -25.890625 C 10.085938 -25.628906 9.644531 -25.257812 9.34375 -24.78125 C 9.039062 -24.300781 8.890625 -23.75 8.890625 -23.125 C 8.890625 -22.375 9.109375 -21.742188 9.546875 -21.234375 C 9.984375 -20.734375 10.640625 -20.242188 11.515625 -19.765625 C 12.398438 -19.296875 13.5 -18.75 14.8125 -18.125 C 16.414062 -17.363281 17.785156 -16.570312 18.921875 -15.75 C 20.054688 -14.925781 20.929688 -13.957031 21.546875 -12.84375 C 22.171875 -11.738281 22.484375 -10.363281 22.484375 -8.71875 Z M 22.484375 -8.71875 "/></g></g></g><g fill="#006636" fill-opacity="1"><g transform="translate(318.468471, 559.073398)"><g/></g></g><g fill="#006636" fill-opacity="1"><g transform="translate(329.888247, 559.073398)"><g><path d="M 13.640625 -31.84375 C 15.328125 -31.84375 16.828125 -31.578125 18.140625 -31.046875 C 19.453125 -30.515625 20.488281 -29.738281 21.25 -28.71875 C 22.019531 -27.707031 22.40625 -26.472656 22.40625 -25.015625 C 22.40625 -22.992188 21.804688 -21.296875 20.609375 -19.921875 C 19.421875 -18.546875 17.929688 -17.34375 16.140625 -16.3125 L 22.234375 -10.375 C 22.835938 -11.351562 23.347656 -12.394531 23.765625 -13.5 C 24.191406 -14.601562 24.5625 -15.710938 24.875 -16.828125 L 31.703125 -16.828125 C 31.265625 -15.179688 30.617188 -13.425781 29.765625 -11.5625 C 28.910156 -9.695312 27.828125 -7.941406 26.515625 -6.296875 L 32.984375 0 L 24.875 0 L 22.40625 -2.421875 C 21.5625 -1.835938 20.65625 -1.328125 19.6875 -0.890625 C 18.726562 -0.460938 17.703125 -0.140625 16.609375 0.078125 C 15.515625 0.304688 14.359375 0.421875 13.140625 0.421875 C 10.765625 0.421875 8.722656 0.0507812 7.015625 -0.6875 C 5.316406 -1.425781 4.015625 -2.460938 3.109375 -3.796875 C 2.210938 -5.140625 1.765625 -6.703125 1.765625 -8.484375 C 1.765625 -9.972656 1.992188 -11.25 2.453125 -12.3125 C 2.910156 -13.375 3.566406 -14.3125 4.421875 -15.125 C 5.273438 -15.9375 6.304688 -16.6875 7.515625 -17.375 C 6.753906 -18.257812 6.148438 -19.085938 5.703125 -19.859375 C 5.253906 -20.628906 4.929688 -21.394531 4.734375 -22.15625 C 4.535156 -22.925781 4.4375 -23.734375 4.4375 -24.578125 C 4.4375 -26.066406 4.828125 -27.351562 5.609375 -28.4375 C 6.390625 -29.519531 7.46875 -30.359375 8.84375 -30.953125 C 10.226562 -31.546875 11.828125 -31.84375 13.640625 -31.84375 Z M 11.328125 -13.46875 C 10.785156 -13.050781 10.3125 -12.617188 9.90625 -12.171875 C 9.5 -11.722656 9.1875 -11.25 8.96875 -10.75 C 8.757812 -10.25 8.65625 -9.703125 8.65625 -9.109375 C 8.65625 -7.847656 9.125 -6.859375 10.0625 -6.140625 C 11.007812 -5.421875 12.1875 -5.0625 13.59375 -5.0625 C 14.53125 -5.0625 15.40625 -5.175781 16.21875 -5.40625 C 17.039062 -5.632812 17.789062 -5.957031 18.46875 -6.375 Z M 13.59375 -26.765625 C 12.863281 -26.765625 12.164062 -26.578125 11.5 -26.203125 C 10.832031 -25.835938 10.5 -25.144531 10.5 -24.125 C 10.5 -23.414062 10.679688 -22.71875 11.046875 -22.03125 C 11.421875 -21.351562 11.914062 -20.664062 12.53125 -19.96875 C 13.769531 -20.632812 14.71875 -21.304688 15.375 -21.984375 C 16.03125 -22.671875 16.359375 -23.453125 16.359375 -24.328125 C 16.359375 -25.203125 16.0625 -25.828125 15.46875 -26.203125 C 14.875 -26.578125 14.25 -26.765625 13.59375 -26.765625 Z M 13.59375 -26.765625 "/></g></g></g><g fill="#006636" fill-opacity="1"><g transform="translate(362.859631, 559.073398)"><g/></g></g><g fill="#006636" fill-opacity="1"><g transform="translate(374.279407, 559.073398)"><g><path d="M 13.96875 -31.390625 C 18.019531 -31.390625 20.976562 -30.519531 22.84375 -28.78125 C 24.707031 -27.039062 25.640625 -24.644531 25.640625 -21.59375 C 25.640625 -20.21875 25.429688 -18.90625 25.015625 -17.65625 C 24.597656 -16.40625 23.921875 -15.289062 22.984375 -14.3125 C 22.046875 -13.34375 20.796875 -12.570312 19.234375 -12 C 17.671875 -11.4375 15.75 -11.15625 13.46875 -11.15625 L 10.609375 -11.15625 L 10.609375 0 L 3.953125 0 L 3.953125 -31.390625 Z M 13.640625 -25.9375 L 10.609375 -25.9375 L 10.609375 -16.609375 L 12.796875 -16.609375 C 14.035156 -16.609375 15.113281 -16.773438 16.03125 -17.109375 C 16.945312 -17.441406 17.65625 -17.957031 18.15625 -18.65625 C 18.664062 -19.351562 18.921875 -20.253906 18.921875 -21.359375 C 18.921875 -22.910156 18.488281 -24.0625 17.625 -24.8125 C 16.769531 -25.5625 15.441406 -25.9375 13.640625 -25.9375 Z M 13.640625 -25.9375 "/></g></g></g><g fill="#006636" fill-opacity="1"><g transform="translate(401.884378, 559.073398)"><g><path d="M 13.09375 -31.390625 C 15.945312 -31.390625 18.296875 -31.046875 20.140625 -30.359375 C 21.992188 -29.671875 23.375 -28.628906 24.28125 -27.234375 C 25.1875 -25.847656 25.640625 -24.097656 25.640625 -21.984375 C 25.640625 -20.554688 25.363281 -19.300781 24.8125 -18.21875 C 24.269531 -17.144531 23.554688 -16.238281 22.671875 -15.5 C 21.785156 -14.757812 20.828125 -14.148438 19.796875 -13.671875 L 29.03125 0 L 21.640625 0 L 14.140625 -12.046875 L 10.609375 -12.046875 L 10.609375 0 L 3.953125 0 L 3.953125 -31.390625 Z M 12.625 -25.9375 L 10.609375 -25.9375 L 10.609375 -17.453125 L 12.75 -17.453125 C 14.957031 -17.453125 16.535156 -17.820312 17.484375 -18.5625 C 18.441406 -19.300781 18.921875 -20.382812 18.921875 -21.8125 C 18.921875 -23.300781 18.40625 -24.359375 17.375 -24.984375 C 16.351562 -25.617188 14.769531 -25.9375 12.625 -25.9375 Z M 12.625 -25.9375 "/></g></g></g><g fill="#006636" fill-opacity="1"><g transform="translate(430.906064, 559.073398)"><g><path d="M 32.4375 -15.734375 C 32.4375 -13.316406 32.132812 -11.113281 31.53125 -9.125 C 30.9375 -7.144531 30.023438 -5.441406 28.796875 -4.015625 C 27.578125 -2.585938 26.03125 -1.488281 24.15625 -0.71875 C 22.28125 0.0390625 20.0625 0.421875 17.5 0.421875 C 14.9375 0.421875 12.71875 0.0390625 10.84375 -0.71875 C 8.96875 -1.488281 7.414062 -2.585938 6.1875 -4.015625 C 4.96875 -5.441406 4.054688 -7.148438 3.453125 -9.140625 C 2.859375 -11.128906 2.5625 -13.34375 2.5625 -15.78125 C 2.5625 -19.03125 3.09375 -21.859375 4.15625 -24.265625 C 5.21875 -26.679688 6.859375 -28.550781 9.078125 -29.875 C 11.296875 -31.207031 14.117188 -31.875 17.546875 -31.875 C 20.953125 -31.875 23.75 -31.207031 25.9375 -29.875 C 28.132812 -28.550781 29.765625 -26.675781 30.828125 -24.25 C 31.898438 -21.832031 32.4375 -18.992188 32.4375 -15.734375 Z M 9.53125 -15.734375 C 9.53125 -13.546875 9.804688 -11.660156 10.359375 -10.078125 C 10.910156 -8.492188 11.769531 -7.273438 12.9375 -6.421875 C 14.113281 -5.578125 15.632812 -5.15625 17.5 -5.15625 C 19.382812 -5.15625 20.914062 -5.578125 22.09375 -6.421875 C 23.269531 -7.273438 24.125 -8.492188 24.65625 -10.078125 C 25.195312 -11.660156 25.46875 -13.546875 25.46875 -15.734375 C 25.46875 -19.023438 24.847656 -21.613281 23.609375 -23.5 C 22.378906 -25.394531 20.359375 -26.34375 17.546875 -26.34375 C 15.671875 -26.34375 14.140625 -25.914062 12.953125 -25.0625 C 11.773438 -24.207031 10.910156 -22.988281 10.359375 -21.40625 C 9.804688 -19.832031 9.53125 -17.941406 9.53125 -15.734375 Z M 9.53125 -15.734375 "/></g></g></g><g fill="#006636" fill-opacity="1"><g transform="translate(465.895205, 559.073398)"><g><path d="M 22.484375 -8.71875 C 22.484375 -6.851562 22.03125 -5.234375 21.125 -3.859375 C 20.21875 -2.484375 18.898438 -1.425781 17.171875 -0.6875 C 15.453125 0.0507812 13.363281 0.421875 10.90625 0.421875 C 9.820312 0.421875 8.757812 0.347656 7.71875 0.203125 C 6.675781 0.0664062 5.679688 -0.140625 4.734375 -0.421875 C 3.785156 -0.703125 2.878906 -1.046875 2.015625 -1.453125 L 2.015625 -7.640625 C 3.503906 -6.984375 5.050781 -6.390625 6.65625 -5.859375 C 8.257812 -5.328125 9.847656 -5.0625 11.421875 -5.0625 C 12.503906 -5.0625 13.378906 -5.203125 14.046875 -5.484375 C 14.710938 -5.773438 15.195312 -6.171875 15.5 -6.671875 C 15.800781 -7.171875 15.953125 -7.742188 15.953125 -8.390625 C 15.953125 -9.179688 15.6875 -9.851562 15.15625 -10.40625 C 14.625 -10.96875 13.894531 -11.488281 12.96875 -11.96875 C 12.050781 -12.457031 11.015625 -12.984375 9.859375 -13.546875 C 9.128906 -13.890625 8.332031 -14.304688 7.46875 -14.796875 C 6.613281 -15.296875 5.796875 -15.898438 5.015625 -16.609375 C 4.242188 -17.328125 3.613281 -18.195312 3.125 -19.21875 C 2.632812 -20.25 2.390625 -21.476562 2.390625 -22.90625 C 2.390625 -24.78125 2.816406 -26.382812 3.671875 -27.71875 C 4.523438 -29.050781 5.75 -30.070312 7.34375 -30.78125 C 8.945312 -31.488281 10.835938 -31.84375 13.015625 -31.84375 C 14.640625 -31.84375 16.191406 -31.648438 17.671875 -31.265625 C 19.160156 -30.890625 20.710938 -30.34375 22.328125 -29.625 L 20.1875 -24.453125 C 18.738281 -25.035156 17.441406 -25.488281 16.296875 -25.8125 C 15.148438 -26.132812 13.984375 -26.296875 12.796875 -26.296875 C 11.960938 -26.296875 11.253906 -26.160156 10.671875 -25.890625 C 10.085938 -25.628906 9.644531 -25.257812 9.34375 -24.78125 C 9.039062 -24.300781 8.890625 -23.75 8.890625 -23.125 C 8.890625 -22.375 9.109375 -21.742188 9.546875 -21.234375 C 9.984375 -20.734375 10.640625 -20.242188 11.515625 -19.765625 C 12.398438 -19.296875 13.5 -18.75 14.8125 -18.125 C 16.414062 -17.363281 17.785156 -16.570312 18.921875 -15.75 C 20.054688 -14.925781 20.929688 -13.957031 21.546875 -12.84375 C 22.171875 -11.738281 22.484375 -10.363281 22.484375 -8.71875 Z M 22.484375 -8.71875 "/></g></g></g><g fill="#006636" fill-opacity="1"><g transform="translate(490.108565, 559.073398)"><g><path d="M 13.96875 -31.390625 C 18.019531 -31.390625 20.976562 -30.519531 22.84375 -28.78125 C 24.707031 -27.039062 25.640625 -24.644531 25.640625 -21.59375 C 25.640625 -20.21875 25.429688 -18.90625 25.015625 -17.65625 C 24.597656 -16.40625 23.921875 -15.289062 22.984375 -14.3125 C 22.046875 -13.34375 20.796875 -12.570312 19.234375 -12 C 17.671875 -11.4375 15.75 -11.15625 13.46875 -11.15625 L 10.609375 -11.15625 L 10.609375 0 L 3.953125 0 L 3.953125 -31.390625 Z M 13.640625 -25.9375 L 10.609375 -25.9375 L 10.609375 -16.609375 L 12.796875 -16.609375 C 14.035156 -16.609375 15.113281 -16.773438 16.03125 -17.109375 C 16.945312 -17.441406 17.65625 -17.957031 18.15625 -18.65625 C 18.664062 -19.351562 18.921875 -20.253906 18.921875 -21.359375 C 18.921875 -22.910156 18.488281 -24.0625 17.625 -24.8125 C 16.769531 -25.5625 15.441406 -25.9375 13.640625 -25.9375 Z M 13.640625 -25.9375 "/></g></g></g><g fill="#006636" fill-opacity="1"><g transform="translate(517.713535, 559.073398)"><g><path d="M 22.03125 0 L 3.953125 0 L 3.953125 -31.390625 L 22.03125 -31.390625 L 22.03125 -25.9375 L 10.609375 -25.9375 L 10.609375 -19.046875 L 21.234375 -19.046875 L 21.234375 -13.59375 L 10.609375 -13.59375 L 10.609375 -5.5 L 22.03125 -5.5 Z M 22.03125 0 "/></g></g></g><g fill="#006636" fill-opacity="1"><g transform="translate(542.33471, 559.073398)"><g><path d="M 13.09375 -31.390625 C 15.945312 -31.390625 18.296875 -31.046875 20.140625 -30.359375 C 21.992188 -29.671875 23.375 -28.628906 24.28125 -27.234375 C 25.1875 -25.847656 25.640625 -24.097656 25.640625 -21.984375 C 25.640625 -20.554688 25.363281 -19.300781 24.8125 -18.21875 C 24.269531 -17.144531 23.554688 -16.238281 22.671875 -15.5 C 21.785156 -14.757812 20.828125 -14.148438 19.796875 -13.671875 L 29.03125 0 L 21.640625 0 L 14.140625 -12.046875 L 10.609375 -12.046875 L 10.609375 0 L 3.953125 0 L 3.953125 -31.390625 Z M 12.625 -25.9375 L 10.609375 -25.9375 L 10.609375 -17.453125 L 12.75 -17.453125 C 14.957031 -17.453125 16.535156 -17.820312 17.484375 -18.5625 C 18.441406 -19.300781 18.921875 -20.382812 18.921875 -21.8125 C 18.921875 -23.300781 18.40625 -24.359375 17.375 -24.984375 C 16.351562 -25.617188 14.769531 -25.9375 12.625 -25.9375 Z M 12.625 -25.9375 "/></g></g></g><g fill="#006636" fill-opacity="1"><g transform="translate(571.356397, 559.073398)"><g><path d="M 3.953125 0 L 3.953125 -31.390625 L 10.609375 -31.390625 L 10.609375 0 Z M 3.953125 0 "/></g></g></g><g fill="#006636" fill-opacity="1"><g transform="translate(585.910194, 559.073398)"><g><path d="M 16.0625 0 L 9.40625 0 L 9.40625 -25.84375 L 0.875 -25.84375 L 0.875 -31.390625 L 24.578125 -31.390625 L 24.578125 -25.84375 L 16.0625 -25.84375 Z M 16.0625 0 "/></g></g></g><g fill="#006636" fill-opacity="1"><g transform="translate(611.368545, 559.073398)"><g><path d="M 13.71875 -18.46875 L 20.265625 -31.390625 L 27.4375 -31.390625 L 17.03125 -12.21875 L 17.03125 0 L 10.40625 0 L 10.40625 -12 L 0 -31.390625 L 7.21875 -31.390625 Z M 13.71875 -18.46875 "/></g></g></g><g fill="#006636" fill-opacity="1"><g transform="translate(200.529427, 627.276324)"><g><path d="M 25.03125 0 L 4.484375 0 L 4.484375 -35.65625 L 25.03125 -35.65625 L 25.03125 -29.46875 L 12.046875 -29.46875 L 12.046875 -21.640625 L 24.125 -21.640625 L 24.125 -15.4375 L 12.046875 -15.4375 L 12.046875 -6.25 L 25.03125 -6.25 Z M 25.03125 0 "/></g></g></g><g fill="#006636" fill-opacity="1"><g transform="translate(228.50867, 627.276324)"><g><path d="M 1.484375 -10.34375 L 1.484375 -16.4375 L 14.578125 -16.4375 L 14.578125 -10.34375 Z M 1.484375 -10.34375 "/></g></g></g><g fill="#006636" fill-opacity="1"><g transform="translate(244.583928, 627.276324)"><g><path d="M 19.640625 -29.875 C 18.191406 -29.875 16.910156 -29.59375 15.796875 -29.03125 C 14.679688 -28.476562 13.742188 -27.671875 12.984375 -26.609375 C 12.234375 -25.554688 11.660156 -24.28125 11.265625 -22.78125 C 10.878906 -21.28125 10.6875 -19.597656 10.6875 -17.734375 C 10.6875 -15.210938 11 -13.0625 11.625 -11.28125 C 12.25 -9.5 13.21875 -8.140625 14.53125 -7.203125 C 15.851562 -6.273438 17.554688 -5.8125 19.640625 -5.8125 C 21.085938 -5.8125 22.535156 -5.972656 23.984375 -6.296875 C 25.441406 -6.617188 27.023438 -7.082031 28.734375 -7.6875 L 28.734375 -1.34375 C 27.148438 -0.6875 25.59375 -0.21875 24.0625 0.0625 C 22.539062 0.34375 20.828125 0.484375 18.921875 0.484375 C 15.253906 0.484375 12.234375 -0.273438 9.859375 -1.796875 C 7.492188 -3.316406 5.742188 -5.445312 4.609375 -8.1875 C 3.472656 -10.925781 2.90625 -14.125 2.90625 -17.78125 C 2.90625 -20.476562 3.269531 -22.945312 4 -25.1875 C 4.726562 -27.4375 5.800781 -29.378906 7.21875 -31.015625 C 8.632812 -32.660156 10.382812 -33.929688 12.46875 -34.828125 C 14.550781 -35.722656 16.941406 -36.171875 19.640625 -36.171875 C 21.410156 -36.171875 23.1875 -35.945312 24.96875 -35.5 C 26.75 -35.050781 28.453125 -34.4375 30.078125 -33.65625 L 27.640625 -27.515625 C 26.304688 -28.148438 24.960938 -28.703125 23.609375 -29.171875 C 22.265625 -29.640625 20.941406 -29.875 19.640625 -29.875 Z M 19.640625 -29.875 "/></g></g></g><g fill="#006636" fill-opacity="1"><g transform="translate(276.41733, 627.276324)"><g><path d="M 36.859375 -17.875 C 36.859375 -15.125 36.515625 -12.625 35.828125 -10.375 C 35.148438 -8.125 34.113281 -6.1875 32.71875 -4.5625 C 31.332031 -2.9375 29.570312 -1.6875 27.4375 -0.8125 C 25.3125 0.0507812 22.789062 0.484375 19.875 0.484375 C 16.96875 0.484375 14.445312 0.0507812 12.3125 -0.8125 C 10.1875 -1.6875 8.425781 -2.9375 7.03125 -4.5625 C 5.644531 -6.1875 4.609375 -8.128906 3.921875 -10.390625 C 3.242188 -12.648438 2.90625 -15.160156 2.90625 -17.921875 C 2.90625 -21.617188 3.507812 -24.835938 4.71875 -27.578125 C 5.925781 -30.316406 7.789062 -32.441406 10.3125 -33.953125 C 12.832031 -35.460938 16.035156 -36.21875 19.921875 -36.21875 C 23.796875 -36.21875 26.976562 -35.460938 29.46875 -33.953125 C 31.96875 -32.441406 33.820312 -30.3125 35.03125 -27.5625 C 36.25 -24.8125 36.859375 -21.582031 36.859375 -17.875 Z M 10.828125 -17.875 C 10.828125 -15.382812 11.140625 -13.238281 11.765625 -11.4375 C 12.390625 -9.644531 13.367188 -8.265625 14.703125 -7.296875 C 16.035156 -6.335938 17.757812 -5.859375 19.875 -5.859375 C 22.019531 -5.859375 23.757812 -6.335938 25.09375 -7.296875 C 26.425781 -8.265625 27.394531 -9.644531 28 -11.4375 C 28.613281 -13.238281 28.921875 -15.382812 28.921875 -17.875 C 28.921875 -21.613281 28.222656 -24.554688 26.828125 -26.703125 C 25.429688 -28.847656 23.128906 -29.921875 19.921875 -29.921875 C 17.796875 -29.921875 16.0625 -29.4375 14.71875 -28.46875 C 13.375 -27.507812 12.390625 -26.128906 11.765625 -24.328125 C 11.140625 -22.535156 10.828125 -20.382812 10.828125 -17.875 Z M 10.828125 -17.875 "/></g></g></g><g fill="#006636" fill-opacity="1"><g transform="translate(316.17859, 627.276324)"><g><path d="M 19.59375 0 L 11 -27.984375 L 10.78125 -27.984375 C 10.8125 -27.316406 10.863281 -26.3125 10.9375 -24.96875 C 11.007812 -23.625 11.078125 -22.195312 11.140625 -20.6875 C 11.210938 -19.175781 11.25 -17.8125 11.25 -16.59375 L 11.25 0 L 4.484375 0 L 4.484375 -35.65625 L 14.78125 -35.65625 L 23.21875 -8.390625 L 23.359375 -8.390625 L 32.3125 -35.65625 L 42.609375 -35.65625 L 42.609375 0 L 35.5625 0 L 35.5625 -16.875 C 35.5625 -18 35.582031 -19.289062 35.625 -20.75 C 35.664062 -22.21875 35.71875 -23.613281 35.78125 -24.9375 C 35.84375 -26.257812 35.890625 -27.253906 35.921875 -27.921875 L 35.703125 -27.921875 L 26.515625 0 Z M 19.59375 0 "/></g></g></g><g fill="#006636" fill-opacity="1"><g transform="translate(363.282267, 627.276324)"><g><path d="M 19.59375 0 L 11 -27.984375 L 10.78125 -27.984375 C 10.8125 -27.316406 10.863281 -26.3125 10.9375 -24.96875 C 11.007812 -23.625 11.078125 -22.195312 11.140625 -20.6875 C 11.210938 -19.175781 11.25 -17.8125 11.25 -16.59375 L 11.25 0 L 4.484375 0 L 4.484375 -35.65625 L 14.78125 -35.65625 L 23.21875 -8.390625 L 23.359375 -8.390625 L 32.3125 -35.65625 L 42.609375 -35.65625 L 42.609375 0 L 35.5625 0 L 35.5625 -16.875 C 35.5625 -18 35.582031 -19.289062 35.625 -20.75 C 35.664062 -22.21875 35.71875 -23.613281 35.78125 -24.9375 C 35.84375 -26.257812 35.890625 -27.253906 35.921875 -27.921875 L 35.703125 -27.921875 L 26.515625 0 Z M 19.59375 0 "/></g></g></g><g fill="#006636" fill-opacity="1"><g transform="translate(410.385956, 627.276324)"><g><path d="M 25.03125 0 L 4.484375 0 L 4.484375 -35.65625 L 25.03125 -35.65625 L 25.03125 -29.46875 L 12.046875 -29.46875 L 12.046875 -21.640625 L 24.125 -21.640625 L 24.125 -15.4375 L 12.046875 -15.4375 L 12.046875 -6.25 L 25.03125 -6.25 Z M 25.03125 0 "/></g></g></g><g fill="#006636" fill-opacity="1"><g transform="translate(438.365188, 627.276324)"><g><path d="M 14.875 -35.65625 C 18.113281 -35.65625 20.785156 -35.265625 22.890625 -34.484375 C 24.992188 -33.703125 26.554688 -32.523438 27.578125 -30.953125 C 28.609375 -29.378906 29.125 -27.390625 29.125 -24.984375 C 29.125 -23.347656 28.8125 -21.921875 28.1875 -20.703125 C 27.570312 -19.484375 26.757812 -18.453125 25.75 -17.609375 C 24.75 -16.765625 23.660156 -16.070312 22.484375 -15.53125 L 32.984375 0 L 24.59375 0 L 16.078125 -13.6875 L 12.046875 -13.6875 L 12.046875 0 L 4.484375 0 L 4.484375 -35.65625 Z M 14.34375 -29.46875 L 12.046875 -29.46875 L 12.046875 -19.828125 L 14.484375 -19.828125 C 16.992188 -19.828125 18.785156 -20.242188 19.859375 -21.078125 C 20.941406 -21.921875 21.484375 -23.15625 21.484375 -24.78125 C 21.484375 -26.46875 20.898438 -27.671875 19.734375 -28.390625 C 18.578125 -29.109375 16.78125 -29.46875 14.34375 -29.46875 Z M 14.34375 -29.46875 "/></g></g></g><g fill="#006636" fill-opacity="1"><g transform="translate(471.34508, 627.276324)"><g><path d="M 19.640625 -29.875 C 18.191406 -29.875 16.910156 -29.59375 15.796875 -29.03125 C 14.679688 -28.476562 13.742188 -27.671875 12.984375 -26.609375 C 12.234375 -25.554688 11.660156 -24.28125 11.265625 -22.78125 C 10.878906 -21.28125 10.6875 -19.597656 10.6875 -17.734375 C 10.6875 -15.210938 11 -13.0625 11.625 -11.28125 C 12.25 -9.5 13.21875 -8.140625 14.53125 -7.203125 C 15.851562 -6.273438 17.554688 -5.8125 19.640625 -5.8125 C 21.085938 -5.8125 22.535156 -5.972656 23.984375 -6.296875 C 25.441406 -6.617188 27.023438 -7.082031 28.734375 -7.6875 L 28.734375 -1.34375 C 27.148438 -0.6875 25.59375 -0.21875 24.0625 0.0625 C 22.539062 0.34375 20.828125 0.484375 18.921875 0.484375 C 15.253906 0.484375 12.234375 -0.273438 9.859375 -1.796875 C 7.492188 -3.316406 5.742188 -5.445312 4.609375 -8.1875 C 3.472656 -10.925781 2.90625 -14.125 2.90625 -17.78125 C 2.90625 -20.476562 3.269531 -22.945312 4 -25.1875 C 4.726562 -27.4375 5.800781 -29.378906 7.21875 -31.015625 C 8.632812 -32.660156 10.382812 -33.929688 12.46875 -34.828125 C 14.550781 -35.722656 16.941406 -36.171875 19.640625 -36.171875 C 21.410156 -36.171875 23.1875 -35.945312 24.96875 -35.5 C 26.75 -35.050781 28.453125 -34.4375 30.078125 -33.65625 L 27.640625 -27.515625 C 26.304688 -28.148438 24.960938 -28.703125 23.609375 -29.171875 C 22.265625 -29.640625 20.941406 -29.875 19.640625 -29.875 Z M 19.640625 -29.875 "/></g></g></g><g fill="#006636" fill-opacity="1"><g transform="translate(503.178493, 627.276324)"><g><path d="M 25.03125 0 L 4.484375 0 L 4.484375 -35.65625 L 25.03125 -35.65625 L 25.03125 -29.46875 L 12.046875 -29.46875 L 12.046875 -21.640625 L 24.125 -21.640625 L 24.125 -15.4375 L 12.046875 -15.4375 L 12.046875 -6.25 L 25.03125 -6.25 Z M 25.03125 0 "/></g></g></g><g fill="#ff4500" fill-opacity="1"><g transform="translate(80.746867, 493.159678)"><g><path d="M 90.984375 -0.59375 C 89.878906 -0.300781 88.15625 -0.00390625 85.8125 0.296875 C 83.46875 0.597656 81.144531 0.75 78.84375 0.75 C 76.539062 0.75 74.515625 0.570312 72.765625 0.21875 C 71.023438 -0.125 69.550781 -0.742188 68.34375 -1.640625 C 67.144531 -2.546875 66.242188 -3.796875 65.640625 -5.390625 C 65.046875 -6.992188 64.75 -9.09375 64.75 -11.6875 L 64.75 -35.078125 L 35.96875 -35.078125 L 35.96875 -0.59375 C 34.875 -0.300781 33.148438 -0.00390625 30.796875 0.296875 C 28.453125 0.597656 26.128906 0.75 23.828125 0.75 C 21.535156 0.75 19.515625 0.570312 17.765625 0.21875 C 16.015625 -0.125 14.539062 -0.742188 13.34375 -1.640625 C 12.144531 -2.546875 11.242188 -3.796875 10.640625 -5.390625 C 10.046875 -6.992188 9.75 -9.09375 9.75 -11.6875 L 9.75 -90.828125 C 10.84375 -91.035156 12.585938 -91.3125 14.984375 -91.65625 C 17.390625 -92.007812 19.691406 -92.1875 21.890625 -92.1875 C 24.179688 -92.1875 26.203125 -92.007812 27.953125 -91.65625 C 29.703125 -91.3125 31.175781 -90.6875 32.375 -89.78125 C 33.570312 -88.882812 34.46875 -87.632812 35.0625 -86.03125 C 35.664062 -84.4375 35.96875 -82.335938 35.96875 -79.734375 L 35.96875 -55.765625 L 64.75 -55.765625 L 64.75 -90.828125 C 65.851562 -91.035156 67.601562 -91.3125 70 -91.65625 C 72.394531 -92.007812 74.691406 -92.1875 76.890625 -92.1875 C 79.191406 -92.1875 81.21875 -92.007812 82.96875 -91.65625 C 84.71875 -91.3125 86.191406 -90.6875 87.390625 -89.78125 C 88.585938 -88.882812 89.484375 -87.632812 90.078125 -86.03125 C 90.679688 -84.4375 90.984375 -82.335938 90.984375 -79.734375 Z M 90.984375 -0.59375 "/></g></g></g><g fill="#ff4500" fill-opacity="1"><g transform="translate(181.477373, 493.159678)"><g><path d="M 29.078125 -88.140625 C 30.773438 -89.140625 33.347656 -90.085938 36.796875 -90.984375 C 40.242188 -91.878906 43.71875 -92.328125 47.21875 -92.328125 C 52.207031 -92.328125 56.625 -91.601562 60.46875 -90.15625 C 64.320312 -88.707031 66.800781 -86.4375 67.90625 -83.34375 C 69.695312 -78.144531 71.640625 -72.097656 73.734375 -65.203125 C 75.835938 -58.304688 77.9375 -51.1875 80.03125 -43.84375 C 82.132812 -36.5 84.1875 -29.253906 86.1875 -22.109375 C 88.1875 -14.960938 89.9375 -8.640625 91.4375 -3.140625 C 90.238281 -1.742188 88.4375 -0.625 86.03125 0.21875 C 83.632812 1.070312 80.789062 1.5 77.5 1.5 C 75.09375 1.5 73.066406 1.296875 71.421875 0.890625 C 69.773438 0.492188 68.425781 -0.0976562 67.375 -0.890625 C 66.320312 -1.691406 65.472656 -2.742188 64.828125 -4.046875 C 64.179688 -5.347656 63.609375 -6.847656 63.109375 -8.546875 L 60.40625 -18.890625 L 33.28125 -18.890625 C 32.476562 -15.890625 31.675781 -12.789062 30.875 -9.59375 C 30.070312 -6.394531 29.273438 -3.296875 28.484375 -0.296875 C 27.078125 0.203125 25.597656 0.625 24.046875 0.96875 C 22.503906 1.320312 20.632812 1.5 18.4375 1.5 C 13.34375 1.5 9.570312 0.625 7.125 -1.125 C 4.675781 -2.875 3.453125 -5.296875 3.453125 -8.390625 C 3.453125 -9.796875 3.648438 -11.195312 4.046875 -12.59375 C 4.441406 -13.988281 4.890625 -15.632812 5.390625 -17.53125 C 6.085938 -20.226562 7.0625 -23.578125 8.3125 -27.578125 C 9.5625 -31.578125 10.9375 -35.898438 12.4375 -40.546875 C 13.9375 -45.191406 15.535156 -49.960938 17.234375 -54.859375 C 18.929688 -59.753906 20.53125 -64.375 22.03125 -68.71875 C 23.53125 -73.070312 24.90625 -76.945312 26.15625 -80.34375 C 27.40625 -83.738281 28.378906 -86.335938 29.078125 -88.140625 Z M 47.0625 -68.796875 C 45.664062 -64.597656 44.09375 -59.925781 42.34375 -54.78125 C 40.59375 -49.632812 39.019531 -44.414062 37.625 -39.125 L 56.203125 -39.125 C 54.804688 -44.519531 53.382812 -49.789062 51.9375 -54.9375 C 50.488281 -60.082031 49.164062 -64.703125 47.96875 -68.796875 Z M 47.0625 -68.796875 "/></g></g></g><g fill="#ff4500" fill-opacity="1"><g transform="translate(275.462511, 493.159678)"><g><path d="M 5.546875 -69.84375 C 4.847656 -70.945312 4.195312 -72.445312 3.59375 -74.34375 C 3 -76.238281 2.703125 -78.238281 2.703125 -80.34375 C 2.703125 -84.238281 3.570312 -87.035156 5.3125 -88.734375 C 7.0625 -90.429688 9.335938 -91.28125 12.140625 -91.28125 L 77.5 -91.28125 C 78.195312 -90.1875 78.84375 -88.6875 79.4375 -86.78125 C 80.039062 -84.882812 80.34375 -82.890625 80.34375 -80.796875 C 80.34375 -76.898438 79.46875 -74.097656 77.71875 -72.390625 C 75.96875 -70.691406 73.691406 -69.84375 70.890625 -69.84375 L 54.265625 -69.84375 L 54.265625 -0.59375 C 53.160156 -0.300781 51.429688 -0.00390625 49.078125 0.296875 C 46.734375 0.597656 44.414062 0.75 42.125 0.75 C 39.820312 0.75 37.796875 0.570312 36.046875 0.21875 C 34.296875 -0.125 32.820312 -0.742188 31.625 -1.640625 C 30.425781 -2.546875 29.523438 -3.796875 28.921875 -5.390625 C 28.328125 -6.992188 28.03125 -9.09375 28.03125 -11.6875 L 28.03125 -69.84375 Z M 5.546875 -69.84375 "/></g></g></g><g fill="#ff4500" fill-opacity="1"><g transform="translate(358.80502, 493.159678)"><g><path d="M 90.984375 -0.59375 C 89.878906 -0.300781 88.15625 -0.00390625 85.8125 0.296875 C 83.46875 0.597656 81.144531 0.75 78.84375 0.75 C 76.539062 0.75 74.515625 0.570312 72.765625 0.21875 C 71.023438 -0.125 69.550781 -0.742188 68.34375 -1.640625 C 67.144531 -2.546875 66.242188 -3.796875 65.640625 -5.390625 C 65.046875 -6.992188 64.75 -9.09375 64.75 -11.6875 L 64.75 -35.078125 L 35.96875 -35.078125 L 35.96875 -0.59375 C 34.875 -0.300781 33.148438 -0.00390625 30.796875 0.296875 C 28.453125 0.597656 26.128906 0.75 23.828125 0.75 C 21.535156 0.75 19.515625 0.570312 17.765625 0.21875 C 16.015625 -0.125 14.539062 -0.742188 13.34375 -1.640625 C 12.144531 -2.546875 11.242188 -3.796875 10.640625 -5.390625 C 10.046875 -6.992188 9.75 -9.09375 9.75 -11.6875 L 9.75 -90.828125 C 10.84375 -91.035156 12.585938 -91.3125 14.984375 -91.65625 C 17.390625 -92.007812 19.691406 -92.1875 21.890625 -92.1875 C 24.179688 -92.1875 26.203125 -92.007812 27.953125 -91.65625 C 29.703125 -91.3125 31.175781 -90.6875 32.375 -89.78125 C 33.570312 -88.882812 34.46875 -87.632812 35.0625 -86.03125 C 35.664062 -84.4375 35.96875 -82.335938 35.96875 -79.734375 L 35.96875 -55.765625 L 64.75 -55.765625 L 64.75 -90.828125 C 65.851562 -91.035156 67.601562 -91.3125 70 -91.65625 C 72.394531 -92.007812 74.691406 -92.1875 76.890625 -92.1875 C 79.191406 -92.1875 81.21875 -92.007812 82.96875 -91.65625 C 84.71875 -91.3125 86.191406 -90.6875 87.390625 -89.78125 C 88.585938 -88.882812 89.484375 -87.632812 90.078125 -86.03125 C 90.679688 -84.4375 90.984375 -82.335938 90.984375 -79.734375 Z M 90.984375 -0.59375 "/></g></g></g><g fill="#ff4500" fill-opacity="1"><g transform="translate(459.535537, 493.159678)"><g><path d="M 57.40625 -0.59375 C 56.3125 -0.300781 54.613281 -0.00390625 52.3125 0.296875 C 50.007812 0.597656 47.757812 0.75 45.5625 0.75 C 40.96875 0.75 37.519531 -0.0195312 35.21875 -1.5625 C 32.925781 -3.113281 31.78125 -6.390625 31.78125 -11.390625 L 31.78125 -31.625 C 29.28125 -35.320312 26.578125 -39.414062 23.671875 -43.90625 C 20.773438 -48.40625 17.925781 -53.003906 15.125 -57.703125 C 12.332031 -62.398438 9.738281 -67.019531 7.34375 -71.5625 C 4.945312 -76.113281 3 -80.289062 1.5 -84.09375 C 2.800781 -85.882812 4.570312 -87.53125 6.8125 -89.03125 C 9.0625 -90.53125 11.835938 -91.28125 15.140625 -91.28125 C 19.035156 -91.28125 22.207031 -90.476562 24.65625 -88.875 C 27.101562 -87.28125 29.425781 -84.285156 31.625 -79.890625 L 44.0625 -54.859375 L 44.96875 -54.859375 C 46.363281 -57.953125 47.585938 -60.773438 48.640625 -63.328125 C 49.691406 -65.878906 50.71875 -68.425781 51.71875 -70.96875 C 52.71875 -73.519531 53.765625 -76.171875 54.859375 -78.921875 C 55.960938 -81.671875 57.210938 -84.84375 58.609375 -88.4375 C 60.410156 -89.332031 62.410156 -90.03125 64.609375 -90.53125 C 66.804688 -91.03125 68.898438 -91.28125 70.890625 -91.28125 C 74.390625 -91.28125 77.363281 -90.351562 79.8125 -88.5 C 82.257812 -86.65625 83.484375 -83.882812 83.484375 -80.1875 C 83.484375 -78.988281 83.234375 -77.539062 82.734375 -75.84375 C 82.234375 -74.144531 81.082031 -71.570312 79.28125 -68.125 C 77.488281 -64.675781 74.867188 -60.003906 71.421875 -54.109375 C 67.972656 -48.210938 63.300781 -40.519531 57.40625 -31.03125 Z M 57.40625 -0.59375 "/></g></g></g><g fill="#ff4500" fill-opacity="1"><g transform="translate(545.576188, 493.159678)"><g><path d="M 5.25 -45.5625 C 5.25 -53.363281 6.472656 -60.257812 8.921875 -66.25 C 11.367188 -72.25 14.710938 -77.269531 18.953125 -81.3125 C 23.203125 -85.363281 28.195312 -88.4375 33.9375 -90.53125 C 39.6875 -92.632812 45.910156 -93.6875 52.609375 -93.6875 C 59.304688 -93.6875 65.523438 -92.632812 71.265625 -90.53125 C 77.015625 -88.4375 82.035156 -85.363281 86.328125 -81.3125 C 90.628906 -77.269531 94.003906 -72.25 96.453125 -66.25 C 98.898438 -60.257812 100.125 -53.363281 100.125 -45.5625 C 100.125 -37.769531 98.925781 -30.847656 96.53125 -24.796875 C 94.132812 -18.753906 90.8125 -13.707031 86.5625 -9.65625 C 82.3125 -5.613281 77.285156 -2.539062 71.484375 -0.4375 C 65.691406 1.65625 59.398438 2.703125 52.609375 2.703125 C 45.816406 2.703125 39.519531 1.628906 33.71875 -0.515625 C 27.925781 -2.671875 22.929688 -5.796875 18.734375 -9.890625 C 14.535156 -13.984375 11.238281 -19.03125 8.84375 -25.03125 C 6.445312 -31.03125 5.25 -37.875 5.25 -45.5625 Z M 32.21875 -45.5625 C 32.21875 -36.46875 34.066406 -29.671875 37.765625 -25.171875 C 41.460938 -20.679688 46.410156 -18.4375 52.609375 -18.4375 C 58.910156 -18.4375 63.90625 -20.679688 67.59375 -25.171875 C 71.289062 -29.671875 73.140625 -36.46875 73.140625 -45.5625 C 73.140625 -54.5625 71.316406 -61.304688 67.671875 -65.796875 C 64.023438 -70.296875 59.054688 -72.546875 52.765625 -72.546875 C 46.566406 -72.546875 41.59375 -70.320312 37.84375 -65.875 C 34.09375 -61.425781 32.21875 -54.65625 32.21875 -45.5625 Z M 32.21875 -45.5625 "/></g></g></g></svg>