<svg xmlns="http://www.w3.org/2000/svg" xmlns:xlink="http://www.w3.org/1999/xlink" width="976" zoomAndPan="magnify" viewBox="0 0 732 724.499978" height="966" preserveAspectRatio="xMidYMid meet" version="1.0"><defs><g/><clipPath id="f7bc411678"><path d="M 217 127 L 515 127 L 515 224 L 217 224 Z M 217 127 " clip-rule="nonzero"/></clipPath><clipPath id="a6d272621a"><path d="M 518.398438 136.0625 L 384.585938 307.335938 L 213.3125 173.523438 L 347.125 2.25 Z M 518.398438 136.0625 " clip-rule="nonzero"/></clipPath><clipPath id="1e7eb4698d"><path d="M 518.398438 136.0625 L 384.585938 307.335938 L 213.3125 173.523438 L 347.125 2.25 Z M 518.398438 136.0625 " clip-rule="nonzero"/></clipPath><clipPath id="09af087056"><path d="M 260.308594 85.5625 L 335.257812 85.5625 L 335.257812 325.632812 L 260.308594 325.632812 Z M 260.308594 85.5625 " clip-rule="nonzero"/></clipPath><clipPath id="cadc1cc64f"><path d="M 297.78125 85.5625 C 318.480469 85.5625 335.257812 102.34375 335.257812 123.039062 L 335.257812 287.925781 C 335.257812 308.621094 318.480469 325.398438 297.78125 325.398438 C 277.085938 325.398438 260.308594 308.621094 260.308594 287.925781 L 260.308594 123.039062 C 260.308594 102.34375 277.085938 85.5625 297.78125 85.5625 Z M 297.78125 85.5625 " clip-rule="nonzero"/></clipPath><clipPath id="0e470851ee"><path d="M 0.308594 0.5625 L 75.257812 0.5625 L 75.257812 240.457031 L 0.308594 240.457031 Z M 0.308594 0.5625 " clip-rule="nonzero"/></clipPath><clipPath id="e71ad2cc6d"><path d="M 37.78125 0.5625 C 58.480469 0.5625 75.257812 17.34375 75.257812 38.039062 L 75.257812 202.925781 C 75.257812 223.621094 58.480469 240.398438 37.78125 240.398438 C 17.085938 240.398438 0.308594 223.621094 0.308594 202.925781 L 0.308594 38.039062 C 0.308594 17.34375 17.085938 0.5625 37.78125 0.5625 Z M 37.78125 0.5625 " clip-rule="nonzero"/></clipPath><clipPath id="816cb941cc"><rect x="0" width="76" y="0" height="241"/></clipPath><clipPath id="a8ee3430ef"><path d="M 290.289062 100.554688 L 335.257812 100.554688 L 335.257812 145.523438 L 290.289062 145.523438 Z M 290.289062 100.554688 " clip-rule="nonzero"/></clipPath><clipPath id="27dd0db50d"><path d="M 312.773438 100.554688 C 300.355469 100.554688 290.289062 110.621094 290.289062 123.039062 C 290.289062 135.457031 300.355469 145.523438 312.773438 145.523438 C 325.191406 145.523438 335.257812 135.457031 335.257812 123.039062 C 335.257812 110.621094 325.191406 100.554688 312.773438 100.554688 Z M 312.773438 100.554688 " clip-rule="nonzero"/></clipPath><clipPath id="b8e059725a"><path d="M 0.289062 0.554688 L 45.257812 0.554688 L 45.257812 45.523438 L 0.289062 45.523438 Z M 0.289062 0.554688 " clip-rule="nonzero"/></clipPath><clipPath id="647f964b74"><path d="M 22.773438 0.554688 C 10.355469 0.554688 0.289062 10.621094 0.289062 23.039062 C 0.289062 35.457031 10.355469 45.523438 22.773438 45.523438 C 35.191406 45.523438 45.257812 35.457031 45.257812 23.039062 C 45.257812 10.621094 35.191406 0.554688 22.773438 0.554688 Z M 22.773438 0.554688 " clip-rule="nonzero"/></clipPath><clipPath id="05bf824776"><rect x="0" width="46" y="0" height="46"/></clipPath><clipPath id="e1d4563a1c"><path d="M 385.222656 55.585938 L 460.171875 55.585938 L 460.171875 355.378906 L 385.222656 355.378906 Z M 385.222656 55.585938 " clip-rule="nonzero"/></clipPath><clipPath id="f76be098c1"><path d="M 422.695312 55.585938 C 443.390625 55.585938 460.171875 72.363281 460.171875 93.058594 L 460.171875 317.902344 C 460.171875 338.601562 443.390625 355.378906 422.695312 355.378906 C 402 355.378906 385.222656 338.601562 385.222656 317.902344 L 385.222656 93.058594 C 385.222656 72.363281 402 55.585938 422.695312 55.585938 Z M 422.695312 55.585938 " clip-rule="nonzero"/></clipPath><clipPath id="e5334db4e9"><path d="M 0.222656 0.585938 L 75.171875 0.585938 L 75.171875 300.378906 L 0.222656 300.378906 Z M 0.222656 0.585938 " clip-rule="nonzero"/></clipPath><clipPath id="11fb38d32f"><path d="M 37.695312 0.585938 C 58.390625 0.585938 75.171875 17.363281 75.171875 38.058594 L 75.171875 262.902344 C 75.171875 283.601562 58.390625 300.378906 37.695312 300.378906 C 17 300.378906 0.222656 283.601562 0.222656 262.902344 L 0.222656 38.058594 C 0.222656 17.363281 17 0.585938 37.695312 0.585938 Z M 37.695312 0.585938 " clip-rule="nonzero"/></clipPath><clipPath id="c52567ab52"><rect x="0" width="76" y="0" height="301"/></clipPath><clipPath id="ee95b48fdd"><path d="M 385.222656 70.574219 L 430.191406 70.574219 L 430.191406 115.542969 L 385.222656 115.542969 Z M 385.222656 70.574219 " clip-rule="nonzero"/></clipPath><clipPath id="fd9fd2db7d"><path d="M 407.707031 70.574219 C 395.289062 70.574219 385.222656 80.640625 385.222656 93.058594 C 385.222656 105.476562 395.289062 115.542969 407.707031 115.542969 C 420.125 115.542969 430.191406 105.476562 430.191406 93.058594 C 430.191406 80.640625 420.125 70.574219 407.707031 70.574219 Z M 407.707031 70.574219 " clip-rule="nonzero"/></clipPath><clipPath id="2f91c546b5"><path d="M 0.222656 0.574219 L 45.191406 0.574219 L 45.191406 45.542969 L 0.222656 45.542969 Z M 0.222656 0.574219 " clip-rule="nonzero"/></clipPath><clipPath id="4d078ea58c"><path d="M 22.707031 0.574219 C 10.289062 0.574219 0.222656 10.640625 0.222656 23.058594 C 0.222656 35.476562 10.289062 45.542969 22.707031 45.542969 C 35.125 45.542969 45.191406 35.476562 45.191406 23.058594 C 45.191406 10.640625 35.125 0.574219 22.707031 0.574219 Z M 22.707031 0.574219 " clip-rule="nonzero"/></clipPath><clipPath id="10cd6f8b59"><rect x="0" width="46" y="0" height="46"/></clipPath></defs><g clip-path="url(#f7bc411678)"><g clip-path="url(#a6d272621a)"><g clip-path="url(#1e7eb4698d)"><path fill="#006636" d="M 219.972656 164.996094 C 223.648438 160.289062 230.453125 159.453125 235.160156 163.132812 C 315.492188 225.894531 431.921875 211.601562 494.683594 131.265625 C 498.363281 126.558594 505.167969 125.722656 509.871094 129.402344 C 514.578125 133.078125 515.414062 139.882812 511.738281 144.589844 C 494.578125 166.550781 473.628906 184.511719 449.453125 197.945312 C 426.105469 210.925781 400.78125 219.152344 374.175781 222.421875 C 347.566406 225.6875 320.988281 223.816406 295.207031 216.886719 C 268.503906 209.695312 243.832031 197.339844 221.867188 180.179688 C 217.128906 176.507812 216.296875 169.703125 219.972656 164.996094 Z M 219.972656 164.996094 " fill-opacity="1" fill-rule="nonzero"/></g></g></g><g clip-path="url(#09af087056)"><g clip-path="url(#cadc1cc64f)"><g transform="matrix(1, 0, 0, 1, 260, 85)"><g clip-path="url(#816cb941cc)"><g clip-path="url(#0e470851ee)"><g clip-path="url(#e71ad2cc6d)"><path fill="#006636" d="M 0.308594 0.5625 L 75.257812 0.5625 L 75.257812 240.339844 L 0.308594 240.339844 Z M 0.308594 0.5625 " fill-opacity="1" fill-rule="nonzero"/></g></g></g></g></g></g><g clip-path="url(#a8ee3430ef)"><g clip-path="url(#27dd0db50d)"><g transform="matrix(1, 0, 0, 1, 290, 100)"><g clip-path="url(#05bf824776)"><g clip-path="url(#b8e059725a)"><g clip-path="url(#647f964b74)"><path fill="#ff4500" d="M 0.289062 0.554688 L 45.257812 0.554688 L 45.257812 45.523438 L 0.289062 45.523438 Z M 0.289062 0.554688 " fill-opacity="1" fill-rule="nonzero"/></g></g></g></g><path stroke-linecap="butt" transform="matrix(0.749483, 0, 0, 0.749483, 290.287331, 100.553989)" fill="none" stroke-linejoin="miter" d="M 30.002167 0.000932531 C 13.433449 0.000932531 0.00231076 13.43207 0.00231076 30.000789 C 0.00231076 46.569507 13.433449 60.000645 30.002167 60.000645 C 46.570886 60.000645 60.002024 46.569507 60.002024 30.000789 C 60.002024 13.43207 46.570886 0.000932531 30.002167 0.000932531 Z M 30.002167 0.000932531 " stroke="#ffffff" stroke-width="16" stroke-opacity="1" stroke-miterlimit="4"/></g></g><g clip-path="url(#e1d4563a1c)"><g clip-path="url(#f76be098c1)"><g transform="matrix(1, 0, 0, 1, 385, 55)"><g clip-path="url(#c52567ab52)"><g clip-path="url(#e5334db4e9)"><g clip-path="url(#11fb38d32f)"><path fill="#006636" d="M 0.222656 0.585938 L 75.171875 0.585938 L 75.171875 300.378906 L 0.222656 300.378906 Z M 0.222656 0.585938 " fill-opacity="1" fill-rule="nonzero"/></g></g></g></g></g></g><g clip-path="url(#ee95b48fdd)"><g clip-path="url(#fd9fd2db7d)"><g transform="matrix(1, 0, 0, 1, 385, 70)"><g clip-path="url(#10cd6f8b59)"><g clip-path="url(#2f91c546b5)"><g clip-path="url(#4d078ea58c)"><path fill="#ff4500" d="M 0.222656 0.574219 L 45.191406 0.574219 L 45.191406 45.542969 L 0.222656 45.542969 Z M 0.222656 0.574219 " fill-opacity="1" fill-rule="nonzero"/></g></g></g></g><path stroke-linecap="butt" transform="matrix(0.749483, 0, 0, 0.749483, 385.221815, 70.57468)" fill="none" stroke-linejoin="miter" d="M 30.000978 -0.000615929 C 13.43226 -0.000615929 0.0011219 13.430522 0.0011219 29.999241 C 0.0011219 46.567959 13.43226 59.999097 30.000978 59.999097 C 46.569697 59.999097 60.000835 46.567959 60.000835 29.999241 C 60.000835 13.430522 46.569697 -0.000615929 30.000978 -0.000615929 Z M 30.000978 -0.000615929 " stroke="#ffffff" stroke-width="16" stroke-opacity="1" stroke-miterlimit="4"/></g></g><g fill="#006636" fill-opacity="1"><g transform="translate(127.946711, 571.264975)"><g><path d="M 41.1875 0 L 30.234375 0 L 12.546875 -30.75 L 12.296875 -30.75 C 12.367188 -29.476562 12.429688 -28.191406 12.484375 -26.890625 C 12.535156 -25.585938 12.585938 -24.289062 12.640625 -23 C 12.703125 -21.71875 12.757812 -20.425781 12.8125 -19.125 L 12.8125 0 L 5.109375 0 L 5.109375 -40.65625 L 15.984375 -40.65625 L 33.65625 -10.203125 L 33.84375 -10.203125 C 33.800781 -11.460938 33.753906 -12.710938 33.703125 -13.953125 C 33.648438 -15.203125 33.597656 -16.445312 33.546875 -17.6875 C 33.503906 -18.925781 33.460938 -20.164062 33.421875 -21.40625 L 33.421875 -40.65625 L 41.1875 -40.65625 Z M 41.1875 0 "/></g></g><g transform="translate(174.255081, 571.264975)"><g><path d="M 28.53125 0 L 5.109375 0 L 5.109375 -40.65625 L 28.53125 -40.65625 L 28.53125 -33.59375 L 13.734375 -33.59375 L 13.734375 -24.671875 L 27.5 -24.671875 L 27.5 -17.609375 L 13.734375 -17.609375 L 13.734375 -7.125 L 28.53125 -7.125 Z M 6.640625 -43.921875 L 6.640625 -44.671875 C 7.273438 -45.390625 7.941406 -46.1875 8.640625 -47.0625 C 9.347656 -47.945312 10.046875 -48.851562 10.734375 -49.78125 C 11.421875 -50.707031 12.050781 -51.597656 12.625 -52.453125 L 21.40625 -52.453125 C 22 -51.597656 22.632812 -50.707031 23.3125 -49.78125 C 23.988281 -48.851562 24.675781 -47.945312 25.375 -47.0625 C 26.082031 -46.1875 26.753906 -45.390625 27.390625 -44.671875 L 27.390625 -43.921875 L 22.890625 -43.921875 C 21.941406 -44.546875 20.972656 -45.25 19.984375 -46.03125 C 19.003906 -46.8125 18.015625 -47.644531 17.015625 -48.53125 C 16.046875 -47.644531 15.054688 -46.8125 14.046875 -46.03125 C 13.035156 -45.25 12.066406 -44.546875 11.140625 -43.921875 Z M 4.890625 -49.34375 C 3.816406 -50.132812 2.695312 -51.007812 1.53125 -51.96875 C 0.375 -52.9375 -0.617188 -53.96875 -1.453125 -55.0625 L -1.453125 -55.65625 L 5.28125 -55.65625 C 5.875 -54.425781 6.472656 -53.390625 7.078125 -52.546875 C 7.679688 -51.703125 8.351562 -50.875 9.09375 -50.0625 L 9.09375 -49.34375 Z M 4.890625 -49.34375 "/></g></g><g transform="translate(206.156402, 571.264975)"><g><path d="M 41.1875 0 L 30.234375 0 L 12.546875 -30.75 L 12.296875 -30.75 C 12.367188 -29.476562 12.429688 -28.191406 12.484375 -26.890625 C 12.535156 -25.585938 12.585938 -24.289062 12.640625 -23 C 12.703125 -21.71875 12.757812 -20.425781 12.8125 -19.125 L 12.8125 0 L 5.109375 0 L 5.109375 -40.65625 L 15.984375 -40.65625 L 33.65625 -10.203125 L 33.84375 -10.203125 C 33.800781 -11.460938 33.753906 -12.710938 33.703125 -13.953125 C 33.648438 -15.203125 33.597656 -16.445312 33.546875 -17.6875 C 33.503906 -18.925781 33.460938 -20.164062 33.421875 -21.40625 L 33.421875 -40.65625 L 41.1875 -40.65625 Z M 41.1875 0 "/></g></g><g transform="translate(252.464772, 571.264975)"><g/></g><g transform="translate(267.2612, 571.264975)"><g><path d="M 20.796875 0 L 12.1875 0 L 12.1875 -33.484375 L 1.140625 -33.484375 L 1.140625 -40.65625 L 31.84375 -40.65625 L 31.84375 -33.484375 L 20.796875 -33.484375 Z M 20.796875 0 "/></g></g><g transform="translate(300.247222, 571.264975)"><g><path d="M 30 0 L 27.0625 -9.671875 L 12.234375 -9.671875 L 9.28125 0 L 0 0 L 14.34375 -40.828125 L 24.890625 -40.828125 L 39.296875 0 Z M 25 -16.90625 L 22.046875 -26.359375 C 21.867188 -26.992188 21.625 -27.804688 21.3125 -28.796875 C 21.007812 -29.785156 20.703125 -30.796875 20.390625 -31.828125 C 20.085938 -32.859375 19.84375 -33.753906 19.65625 -34.515625 C 19.476562 -33.753906 19.222656 -32.8125 18.890625 -31.6875 C 18.566406 -30.5625 18.253906 -29.5 17.953125 -28.5 C 17.660156 -27.5 17.453125 -26.785156 17.328125 -26.359375 L 14.40625 -16.90625 Z M 26.78125 -50.765625 C 26.78125 -49.328125 26.398438 -48.144531 25.640625 -47.21875 C 24.878906 -46.300781 23.753906 -45.65625 22.265625 -45.28125 L 21.984375 -43.3125 L 17.15625 -43.3125 L 16.515625 -47.390625 C 17.898438 -47.617188 18.84375 -47.96875 19.34375 -48.4375 C 19.84375 -48.90625 20.09375 -49.484375 20.09375 -50.171875 C 20.09375 -50.765625 19.898438 -51.21875 19.515625 -51.53125 C 19.128906 -51.851562 18.617188 -52.015625 17.984375 -52.015625 C 17.242188 -52.015625 16.5625 -51.953125 15.9375 -51.828125 C 15.320312 -51.703125 14.71875 -51.550781 14.125 -51.375 L 14.125 -56.046875 C 14.65625 -56.222656 15.375 -56.375 16.28125 -56.5 C 17.195312 -56.625 18.109375 -56.6875 19.015625 -56.6875 C 21.585938 -56.6875 23.523438 -56.164062 24.828125 -55.125 C 26.128906 -54.082031 26.78125 -52.628906 26.78125 -50.765625 Z M 26.78125 -50.765625 "/></g></g><g transform="translate(339.546758, 571.264975)"><g><path d="M 41.1875 0 L 30.234375 0 L 12.546875 -30.75 L 12.296875 -30.75 C 12.367188 -29.476562 12.429688 -28.191406 12.484375 -26.890625 C 12.535156 -25.585938 12.585938 -24.289062 12.640625 -23 C 12.703125 -21.71875 12.757812 -20.425781 12.8125 -19.125 L 12.8125 0 L 5.109375 0 L 5.109375 -40.65625 L 15.984375 -40.65625 L 33.65625 -10.203125 L 33.84375 -10.203125 C 33.800781 -11.460938 33.753906 -12.710938 33.703125 -13.953125 C 33.648438 -15.203125 33.597656 -16.445312 33.546875 -17.6875 C 33.503906 -18.925781 33.460938 -20.164062 33.421875 -21.40625 L 33.421875 -40.65625 L 41.1875 -40.65625 Z M 41.1875 0 "/></g></g><g transform="translate(385.855128, 571.264975)"><g><path d="M 20.546875 -22.828125 L 36.6875 -22.828125 L 36.6875 -1.75 C 34.550781 -1.039062 32.332031 -0.476562 30.03125 -0.0625 C 27.726562 0.351562 25.125 0.5625 22.21875 0.5625 C 18.175781 0.5625 14.742188 -0.234375 11.921875 -1.828125 C 9.109375 -3.429688 6.96875 -5.789062 5.5 -8.90625 C 4.039062 -12.019531 3.3125 -15.847656 3.3125 -20.390625 C 3.3125 -24.648438 4.128906 -28.335938 5.765625 -31.453125 C 7.410156 -34.566406 9.8125 -36.972656 12.96875 -38.671875 C 16.132812 -40.378906 20 -41.234375 24.5625 -41.234375 C 26.707031 -41.234375 28.828125 -41 30.921875 -40.53125 C 33.015625 -40.070312 34.914062 -39.472656 36.625 -38.734375 L 33.765625 -31.84375 C 32.515625 -32.46875 31.09375 -32.992188 29.5 -33.421875 C 27.90625 -33.847656 26.238281 -34.0625 24.5 -34.0625 C 22 -34.0625 19.828125 -33.488281 17.984375 -32.34375 C 16.140625 -31.195312 14.710938 -29.585938 13.703125 -27.515625 C 12.691406 -25.453125 12.1875 -23.019531 12.1875 -20.21875 C 12.1875 -17.5625 12.546875 -15.207031 13.265625 -13.15625 C 13.984375 -11.113281 15.117188 -9.515625 16.671875 -8.359375 C 18.234375 -7.203125 20.269531 -6.625 22.78125 -6.625 C 24 -6.625 25.03125 -6.679688 25.875 -6.796875 C 26.71875 -6.921875 27.507812 -7.046875 28.25 -7.171875 L 28.25 -15.65625 L 20.546875 -15.65625 Z M 20.546875 -22.828125 "/></g></g><g transform="translate(427.101561, 571.264975)"><g/></g><g transform="translate(441.89799, 571.264975)"><g><path d="M 20.796875 0 L 12.1875 0 L 12.1875 -33.484375 L 1.140625 -33.484375 L 1.140625 -40.65625 L 31.84375 -40.65625 L 31.84375 -33.484375 L 20.796875 -33.484375 Z M 20.796875 0 "/></g></g><g transform="translate(474.884012, 571.264975)"><g><path d="M 22.328125 0 L 12.546875 -31.890625 L 12.296875 -31.890625 C 12.328125 -31.128906 12.382812 -29.984375 12.46875 -28.453125 C 12.550781 -26.929688 12.628906 -25.304688 12.703125 -23.578125 C 12.773438 -21.859375 12.8125 -20.300781 12.8125 -18.90625 L 12.8125 0 L 5.109375 0 L 5.109375 -40.65625 L 16.859375 -40.65625 L 26.46875 -9.5625 L 26.640625 -9.5625 L 36.84375 -40.65625 L 48.578125 -40.65625 L 48.578125 0 L 40.546875 0 L 40.546875 -19.25 C 40.546875 -20.519531 40.566406 -21.988281 40.609375 -23.65625 C 40.660156 -25.332031 40.722656 -26.925781 40.796875 -28.4375 C 40.867188 -29.945312 40.925781 -31.082031 40.96875 -31.84375 L 40.71875 -31.84375 L 30.234375 0 Z M 22.328125 0 "/></g></g><g transform="translate(528.590595, 571.264975)"><g><path d="M 17.875 -40.65625 C 22.144531 -40.65625 25.84375 -39.898438 28.96875 -38.390625 C 32.101562 -36.878906 34.53125 -34.644531 36.25 -31.6875 C 37.976562 -28.726562 38.84375 -25.070312 38.84375 -20.71875 C 38.84375 -16.132812 37.96875 -12.304688 36.21875 -9.234375 C 34.46875 -6.171875 31.929688 -3.863281 28.609375 -2.3125 C 25.296875 -0.769531 21.300781 0 16.625 0 L 5.109375 0 L 5.109375 -16.578125 L 1.3125 -16.578125 L 1.3125 -23.640625 L 5.109375 -23.640625 L 5.109375 -40.65625 Z M 18.265625 -33.59375 L 13.734375 -33.59375 L 13.734375 -23.640625 L 20.328125 -23.640625 L 20.328125 -16.578125 L 13.734375 -16.578125 L 13.734375 -7.125 L 17.375 -7.125 C 21.53125 -7.125 24.65625 -8.242188 26.75 -10.484375 C 28.84375 -12.722656 29.890625 -16.0625 29.890625 -20.5 C 29.890625 -23.5 29.4375 -25.96875 28.53125 -27.90625 C 27.625 -29.84375 26.304688 -31.273438 24.578125 -32.203125 C 22.859375 -33.128906 20.753906 -33.59375 18.265625 -33.59375 Z M 18.265625 -33.59375 "/></g></g><g transform="translate(570.754853, 571.264975)"><g><path d="M 20.796875 0 L 12.1875 0 L 12.1875 -33.484375 L 1.140625 -33.484375 L 1.140625 -40.65625 L 31.84375 -40.65625 L 31.84375 -33.484375 L 20.796875 -33.484375 Z M 20.796875 0 "/></g></g></g><g fill="#006636" fill-opacity="1"><g transform="translate(150.665405, 623.728765)"><g><path d="M 20.78125 -22.828125 L 13.015625 0 L 7.75 0 L 0 -22.828125 L 4.890625 -22.828125 L 9.171875 -9.234375 C 9.242188 -9.003906 9.363281 -8.578125 9.53125 -7.953125 C 9.695312 -7.328125 9.863281 -6.660156 10.03125 -5.953125 C 10.207031 -5.253906 10.328125 -4.675781 10.390625 -4.21875 C 10.453125 -4.675781 10.5625 -5.253906 10.71875 -5.953125 C 10.882812 -6.648438 11.046875 -7.3125 11.203125 -7.9375 C 11.367188 -8.5625 11.488281 -8.992188 11.5625 -9.234375 L 15.890625 -22.828125 Z M 20.78125 -22.828125 "/></g></g></g><g fill="#006636" fill-opacity="1"><g transform="translate(171.442863, 623.728765)"><g><path d="M 21.453125 -22.828125 L 21.453125 -8.046875 C 21.453125 -6.484375 21.101562 -5.066406 20.40625 -3.796875 C 19.71875 -2.535156 18.671875 -1.535156 17.265625 -0.796875 C 15.867188 -0.0546875 14.109375 0.3125 11.984375 0.3125 C 8.972656 0.3125 6.675781 -0.457031 5.09375 -2 C 3.507812 -3.539062 2.71875 -5.578125 2.71875 -8.109375 L 2.71875 -22.828125 L 7.546875 -22.828125 L 7.546875 -8.84375 C 7.546875 -6.96875 7.925781 -5.648438 8.6875 -4.890625 C 9.457031 -4.128906 10.597656 -3.75 12.109375 -3.75 C 13.171875 -3.75 14.03125 -3.929688 14.6875 -4.296875 C 15.351562 -4.660156 15.84375 -5.222656 16.15625 -5.984375 C 16.46875 -6.742188 16.625 -7.707031 16.625 -8.875 L 16.625 -22.828125 Z M 21.453125 -22.828125 "/></g></g></g><g fill="#006636" fill-opacity="1"><g transform="translate(195.607778, 623.728765)"><g><path d="M 2.875 0 L 2.875 -22.828125 L 7.71875 -22.828125 L 7.71875 0 Z M 2.875 0 "/></g></g></g><g fill="#006636" fill-opacity="1"><g transform="translate(206.191637, 623.728765)"><g/></g></g><g fill="#006636" fill-opacity="1"><g transform="translate(214.496376, 623.728765)"><g><path d="M 21.234375 0 L 15.734375 0 L 9.75 -9.609375 L 7.71875 -8.140625 L 7.71875 0 L 2.875 0 L 2.875 -22.828125 L 7.71875 -22.828125 L 7.71875 -12.375 C 8.03125 -12.820312 8.34375 -13.269531 8.65625 -13.71875 C 8.96875 -14.164062 9.285156 -14.613281 9.609375 -15.0625 L 15.796875 -22.828125 L 21.171875 -22.828125 L 13.203125 -12.71875 Z M 21.234375 0 "/></g></g></g><g fill="#006636" fill-opacity="1"><g transform="translate(235.726534, 623.728765)"><g><path d="M 21.578125 0 L 16.75 0 L 16.75 -9.84375 L 7.71875 -9.84375 L 7.71875 0 L 2.875 0 L 2.875 -22.828125 L 7.71875 -22.828125 L 7.71875 -13.875 L 16.75 -13.875 L 16.75 -22.828125 L 21.578125 -22.828125 Z M 21.578125 0 "/></g></g></g><g fill="#006636" fill-opacity="1"><g transform="translate(260.188048, 623.728765)"><g><path d="M 23.59375 -11.4375 C 23.59375 -9.675781 23.375 -8.078125 22.9375 -6.640625 C 22.5 -5.203125 21.832031 -3.960938 20.9375 -2.921875 C 20.050781 -1.878906 18.925781 -1.078125 17.5625 -0.515625 C 16.195312 0.0351562 14.582031 0.3125 12.71875 0.3125 C 10.851562 0.3125 9.238281 0.0351562 7.875 -0.515625 C 6.519531 -1.078125 5.394531 -1.878906 4.5 -2.921875 C 3.613281 -3.960938 2.953125 -5.203125 2.515625 -6.640625 C 2.078125 -8.085938 1.859375 -9.695312 1.859375 -11.46875 C 1.859375 -13.832031 2.242188 -15.890625 3.015625 -17.640625 C 3.796875 -19.398438 4.988281 -20.765625 6.59375 -21.734375 C 8.207031 -22.703125 10.257812 -23.1875 12.75 -23.1875 C 15.226562 -23.1875 17.265625 -22.703125 18.859375 -21.734375 C 20.460938 -20.765625 21.648438 -19.398438 22.421875 -17.640625 C 23.203125 -15.878906 23.59375 -13.8125 23.59375 -11.4375 Z M 6.9375 -11.4375 C 6.9375 -9.84375 7.132812 -8.472656 7.53125 -7.328125 C 7.925781 -6.179688 8.550781 -5.296875 9.40625 -4.671875 C 10.257812 -4.054688 11.363281 -3.75 12.71875 -3.75 C 14.09375 -3.75 15.207031 -4.054688 16.0625 -4.671875 C 16.914062 -5.296875 17.535156 -6.179688 17.921875 -7.328125 C 18.316406 -8.472656 18.515625 -9.84375 18.515625 -11.4375 C 18.515625 -13.832031 18.066406 -15.71875 17.171875 -17.09375 C 16.273438 -18.46875 14.800781 -19.15625 12.75 -19.15625 C 11.382812 -19.15625 10.269531 -18.84375 9.40625 -18.21875 C 8.550781 -17.601562 7.925781 -16.71875 7.53125 -15.5625 C 7.132812 -14.414062 6.9375 -13.039062 6.9375 -11.4375 Z M 16.75 -28.5 C 16.75 -27.695312 16.535156 -27.035156 16.109375 -26.515625 C 15.679688 -25.992188 15.054688 -25.628906 14.234375 -25.421875 L 14.078125 -24.3125 L 11.359375 -24.3125 L 11 -26.609375 C 11.78125 -26.734375 12.3125 -26.925781 12.59375 -27.1875 C 12.875 -27.457031 13.015625 -27.785156 13.015625 -28.171875 C 13.015625 -28.503906 12.90625 -28.757812 12.6875 -28.9375 C 12.46875 -29.113281 12.179688 -29.203125 11.828125 -29.203125 C 11.410156 -29.203125 11.023438 -29.164062 10.671875 -29.09375 C 10.328125 -29.03125 9.988281 -28.945312 9.65625 -28.84375 L 9.65625 -31.453125 C 9.957031 -31.554688 10.363281 -31.640625 10.875 -31.703125 C 11.382812 -31.773438 11.894531 -31.8125 12.40625 -31.8125 C 13.84375 -31.8125 14.925781 -31.519531 15.65625 -30.9375 C 16.382812 -30.351562 16.75 -29.539062 16.75 -28.5 Z M 16.75 -28.5 "/></g></g></g><g fill="#006636" fill-opacity="1"><g transform="translate(285.633018, 623.728765)"><g><path d="M 16.015625 0 L 2.875 0 L 2.875 -22.828125 L 16.015625 -22.828125 L 16.015625 -18.859375 L 7.71875 -18.859375 L 7.71875 -13.84375 L 15.4375 -13.84375 L 15.4375 -9.875 L 7.71875 -9.875 L 7.71875 -4 L 16.015625 -4 Z M 16.015625 0 "/></g></g></g><g fill="#006636" fill-opacity="1"><g transform="translate(303.538159, 623.728765)"><g/></g></g><g fill="#006636" fill-opacity="1"><g transform="translate(311.842898, 623.728765)"><g><path d="M 9.90625 -23.15625 C 11.132812 -23.15625 12.226562 -22.960938 13.1875 -22.578125 C 14.144531 -22.191406 14.898438 -21.628906 15.453125 -20.890625 C 16.015625 -20.148438 16.296875 -19.25 16.296875 -18.1875 C 16.296875 -16.71875 15.859375 -15.484375 14.984375 -14.484375 C 14.117188 -13.484375 13.035156 -12.609375 11.734375 -11.859375 L 16.171875 -7.546875 C 16.609375 -8.253906 16.976562 -9.007812 17.28125 -9.8125 C 17.59375 -10.613281 17.863281 -11.421875 18.09375 -12.234375 L 23.0625 -12.234375 C 22.738281 -11.035156 22.265625 -9.757812 21.640625 -8.40625 C 21.023438 -7.050781 20.238281 -5.773438 19.28125 -4.578125 L 23.984375 0 L 18.09375 0 L 16.296875 -1.765625 C 15.679688 -1.335938 15.019531 -0.96875 14.3125 -0.65625 C 13.613281 -0.34375 12.863281 -0.101562 12.0625 0.0625 C 11.269531 0.226562 10.429688 0.3125 9.546875 0.3125 C 7.828125 0.3125 6.347656 0.0390625 5.109375 -0.5 C 3.867188 -1.039062 2.921875 -1.796875 2.265625 -2.765625 C 1.609375 -3.742188 1.28125 -4.878906 1.28125 -6.171875 C 1.28125 -7.253906 1.445312 -8.179688 1.78125 -8.953125 C 2.113281 -9.722656 2.59375 -10.398438 3.21875 -10.984375 C 3.84375 -11.578125 4.59375 -12.125 5.46875 -12.625 C 4.914062 -13.269531 4.472656 -13.875 4.140625 -14.4375 C 3.816406 -15 3.582031 -15.554688 3.4375 -16.109375 C 3.300781 -16.671875 3.234375 -17.257812 3.234375 -17.875 C 3.234375 -18.957031 3.515625 -19.890625 4.078125 -20.671875 C 4.648438 -21.460938 5.4375 -22.070312 6.4375 -22.5 C 7.445312 -22.9375 8.601562 -23.15625 9.90625 -23.15625 Z M 8.234375 -9.78125 C 7.847656 -9.476562 7.503906 -9.164062 7.203125 -8.84375 C 6.910156 -8.519531 6.6875 -8.175781 6.53125 -7.8125 C 6.375 -7.457031 6.296875 -7.0625 6.296875 -6.625 C 6.296875 -5.707031 6.632812 -4.988281 7.3125 -4.46875 C 8 -3.945312 8.851562 -3.6875 9.875 -3.6875 C 10.5625 -3.6875 11.203125 -3.769531 11.796875 -3.9375 C 12.390625 -4.101562 12.929688 -4.335938 13.421875 -4.640625 Z M 9.875 -19.46875 C 9.34375 -19.46875 8.835938 -19.332031 8.359375 -19.0625 C 7.878906 -18.789062 7.640625 -18.285156 7.640625 -17.546875 C 7.640625 -17.023438 7.769531 -16.515625 8.03125 -16.015625 C 8.300781 -15.523438 8.660156 -15.023438 9.109375 -14.515625 C 10.003906 -15.003906 10.691406 -15.492188 11.171875 -15.984375 C 11.648438 -16.484375 11.890625 -17.050781 11.890625 -17.6875 C 11.890625 -18.320312 11.671875 -18.773438 11.234375 -19.046875 C 10.804688 -19.328125 10.351562 -19.46875 9.875 -19.46875 Z M 9.875 -19.46875 "/></g></g></g><g fill="#006636" fill-opacity="1"><g transform="translate(335.82049, 623.728765)"><g/></g></g><g fill="#006636" fill-opacity="1"><g transform="translate(344.125217, 623.728765)"><g><path d="M 11.671875 0 L 6.84375 0 L 6.84375 -18.796875 L 0.640625 -18.796875 L 0.640625 -22.828125 L 17.875 -22.828125 L 17.875 -18.796875 L 11.671875 -18.796875 Z M 11.671875 0 "/></g></g></g><g fill="#006636" fill-opacity="1"><g transform="translate(362.639187, 623.728765)"><g><path d="M 21.578125 0 L 16.75 0 L 16.75 -9.84375 L 7.71875 -9.84375 L 7.71875 0 L 2.875 0 L 2.875 -22.828125 L 7.71875 -22.828125 L 7.71875 -13.875 L 16.75 -13.875 L 16.75 -22.828125 L 21.578125 -22.828125 Z M 21.578125 0 "/></g></g></g><g fill="#006636" fill-opacity="1"><g transform="translate(387.10069, 623.728765)"><g><path d="M 2.875 0 L 2.875 -22.828125 L 7.71875 -22.828125 L 7.71875 0 Z M 5.28125 6.71875 C 4.5625 6.71875 3.945312 6.546875 3.4375 6.203125 C 2.9375 5.867188 2.6875 5.265625 2.6875 4.390625 C 2.6875 3.492188 2.9375 2.878906 3.4375 2.546875 C 3.945312 2.210938 4.5625 2.046875 5.28125 2.046875 C 5.988281 2.046875 6.59375 2.210938 7.09375 2.546875 C 7.601562 2.878906 7.859375 3.492188 7.859375 4.390625 C 7.859375 5.265625 7.601562 5.867188 7.09375 6.203125 C 6.59375 6.546875 5.988281 6.71875 5.28125 6.71875 Z M 5.28125 6.71875 "/></g></g></g><g fill="#006636" fill-opacity="1"><g transform="translate(397.684549, 623.728765)"><g><path d="M 23.125 0 L 16.96875 0 L 7.046875 -17.265625 L 6.90625 -17.265625 C 6.945312 -16.546875 6.984375 -15.820312 7.015625 -15.09375 C 7.046875 -14.363281 7.078125 -13.632812 7.109375 -12.90625 C 7.140625 -12.1875 7.171875 -11.460938 7.203125 -10.734375 L 7.203125 0 L 2.875 0 L 2.875 -22.828125 L 8.96875 -22.828125 L 18.890625 -5.734375 L 19 -5.734375 C 18.976562 -6.441406 18.953125 -7.140625 18.921875 -7.828125 C 18.890625 -8.523438 18.859375 -9.222656 18.828125 -9.921875 C 18.804688 -10.617188 18.785156 -11.316406 18.765625 -12.015625 L 18.765625 -22.828125 L 23.125 -22.828125 Z M 23.125 0 "/></g></g></g><g fill="#006636" fill-opacity="1"><g transform="translate(423.675871, 623.728765)"><g><path d="M 21.578125 0 L 16.75 0 L 16.75 -9.84375 L 7.71875 -9.84375 L 7.71875 0 L 2.875 0 L 2.875 -22.828125 L 7.71875 -22.828125 L 7.71875 -13.875 L 16.75 -13.875 L 16.75 -22.828125 L 21.578125 -22.828125 Z M 21.578125 0 "/></g></g></g><g fill="#006636" fill-opacity="1"><g transform="translate(448.137397, 623.728765)"><g/></g></g><g fill="#006636" fill-opacity="1"><g transform="translate(456.442135, 623.728765)"><g><path d="M 20.78125 -22.828125 L 13.015625 0 L 7.75 0 L 0 -22.828125 L 4.890625 -22.828125 L 9.171875 -9.234375 C 9.242188 -9.003906 9.363281 -8.578125 9.53125 -7.953125 C 9.695312 -7.328125 9.863281 -6.660156 10.03125 -5.953125 C 10.207031 -5.253906 10.328125 -4.675781 10.390625 -4.21875 C 10.453125 -4.675781 10.5625 -5.253906 10.71875 -5.953125 C 10.882812 -6.648438 11.046875 -7.3125 11.203125 -7.9375 C 11.367188 -8.5625 11.488281 -8.992188 11.5625 -9.234375 L 15.890625 -22.828125 Z M 20.78125 -22.828125 "/></g></g></g><g fill="#006636" fill-opacity="1"><g transform="translate(477.219603, 623.728765)"><g><path d="M 21.453125 -22.828125 L 21.453125 -19.890625 C 21.972656 -20.078125 22.394531 -20.375 22.71875 -20.78125 C 23.050781 -21.195312 23.296875 -21.703125 23.453125 -22.296875 C 23.617188 -22.898438 23.703125 -23.5625 23.703125 -24.28125 L 28.390625 -24.28125 L 28.609375 -23.953125 C 28.429688 -23.085938 28.195312 -22.273438 27.90625 -21.515625 C 27.613281 -20.753906 27.207031 -20.066406 26.6875 -19.453125 C 26.175781 -18.847656 25.5 -18.335938 24.65625 -17.921875 C 23.8125 -17.503906 22.742188 -17.203125 21.453125 -17.015625 L 21.453125 -8.046875 C 21.453125 -6.484375 21.101562 -5.066406 20.40625 -3.796875 C 19.71875 -2.535156 18.671875 -1.535156 17.265625 -0.796875 C 15.867188 -0.0546875 14.109375 0.3125 11.984375 0.3125 C 8.972656 0.3125 6.675781 -0.457031 5.09375 -2 C 3.507812 -3.539062 2.71875 -5.578125 2.71875 -8.109375 L 2.71875 -22.828125 L 7.546875 -22.828125 L 7.546875 -8.46875 C 7.546875 -6.78125 7.925781 -5.570312 8.6875 -4.84375 C 9.457031 -4.113281 10.597656 -3.75 12.109375 -3.75 C 13.171875 -3.75 14.03125 -3.925781 14.6875 -4.28125 C 15.351562 -4.632812 15.84375 -5.164062 16.15625 -5.875 C 16.46875 -6.582031 16.625 -7.457031 16.625 -8.5 L 16.625 -22.828125 Z M 21.453125 -22.828125 "/></g></g></g><g fill="#006636" fill-opacity="1"><g transform="translate(505.505668, 623.728765)"><g><path d="M 23.59375 -11.4375 C 23.59375 -9.675781 23.375 -8.078125 22.9375 -6.640625 C 22.5 -5.203125 21.832031 -3.960938 20.9375 -2.921875 C 20.050781 -1.878906 18.925781 -1.078125 17.5625 -0.515625 C 16.195312 0.0351562 14.582031 0.3125 12.71875 0.3125 C 10.851562 0.3125 9.238281 0.0351562 7.875 -0.515625 C 6.519531 -1.078125 5.394531 -1.878906 4.5 -2.921875 C 3.613281 -3.960938 2.953125 -5.203125 2.515625 -6.640625 C 2.078125 -8.085938 1.859375 -9.695312 1.859375 -11.46875 C 1.859375 -13.832031 2.25 -15.890625 3.03125 -17.640625 C 3.8125 -19.398438 5.007812 -20.765625 6.625 -21.734375 C 8.238281 -22.703125 10.289062 -23.1875 12.78125 -23.1875 C 14.625 -23.1875 16.226562 -22.910156 17.59375 -22.359375 C 18.96875 -21.804688 20.09375 -21.023438 20.96875 -20.015625 C 21.289062 -20.234375 21.554688 -20.546875 21.765625 -20.953125 C 21.984375 -21.367188 22.144531 -21.859375 22.25 -22.421875 C 22.363281 -22.992188 22.421875 -23.613281 22.421875 -24.28125 L 27.109375 -24.28125 L 27.328125 -23.953125 C 26.972656 -22.210938 26.4375 -20.800781 25.71875 -19.71875 C 25 -18.632812 23.972656 -17.816406 22.640625 -17.265625 C 22.960938 -16.429688 23.203125 -15.523438 23.359375 -14.546875 C 23.515625 -13.578125 23.59375 -12.539062 23.59375 -11.4375 Z M 6.9375 -11.4375 C 6.9375 -9.84375 7.132812 -8.472656 7.53125 -7.328125 C 7.925781 -6.179688 8.550781 -5.296875 9.40625 -4.671875 C 10.257812 -4.054688 11.363281 -3.75 12.71875 -3.75 C 14.09375 -3.75 15.207031 -4.054688 16.0625 -4.671875 C 16.914062 -5.296875 17.535156 -6.179688 17.921875 -7.328125 C 18.316406 -8.472656 18.515625 -9.84375 18.515625 -11.4375 C 18.515625 -13.832031 18.066406 -15.71875 17.171875 -17.09375 C 16.273438 -18.46875 14.800781 -19.15625 12.75 -19.15625 C 11.382812 -19.15625 10.269531 -18.84375 9.40625 -18.21875 C 8.550781 -17.601562 7.925781 -16.71875 7.53125 -15.5625 C 7.132812 -14.414062 6.9375 -13.039062 6.9375 -11.4375 Z M 12.765625 6.71875 C 12.046875 6.71875 11.429688 6.546875 10.921875 6.203125 C 10.421875 5.867188 10.171875 5.265625 10.171875 4.390625 C 10.171875 3.492188 10.421875 2.878906 10.921875 2.546875 C 11.429688 2.210938 12.046875 2.046875 12.765625 2.046875 C 13.472656 2.046875 14.078125 2.210938 14.578125 2.546875 C 15.085938 2.878906 15.34375 3.492188 15.34375 4.390625 C 15.34375 5.265625 15.085938 5.867188 14.578125 6.203125 C 14.078125 6.546875 13.472656 6.71875 12.765625 6.71875 Z M 12.765625 6.71875 "/></g></g></g><g fill="#006636" fill-opacity="1"><g transform="translate(531.88724, 623.728765)"><g><path d="M 23.125 0 L 16.96875 0 L 7.046875 -17.265625 L 6.90625 -17.265625 C 6.945312 -16.546875 6.984375 -15.820312 7.015625 -15.09375 C 7.046875 -14.363281 7.078125 -13.632812 7.109375 -12.90625 C 7.140625 -12.1875 7.171875 -11.460938 7.203125 -10.734375 L 7.203125 0 L 2.875 0 L 2.875 -22.828125 L 8.96875 -22.828125 L 18.890625 -5.734375 L 19 -5.734375 C 18.976562 -6.441406 18.953125 -7.140625 18.921875 -7.828125 C 18.890625 -8.523438 18.859375 -9.222656 18.828125 -9.921875 C 18.804688 -10.617188 18.785156 -11.316406 18.765625 -12.015625 L 18.765625 -22.828125 L 23.125 -22.828125 Z M 23.125 0 "/></g></g></g><g fill="#006636" fill-opacity="1"><g transform="translate(557.878608, 623.728765)"><g><path d="M 11.53125 -12.8125 L 20.59375 -12.8125 L 20.59375 -0.984375 C 19.394531 -0.585938 18.148438 -0.269531 16.859375 -0.03125 C 15.566406 0.195312 14.101562 0.3125 12.46875 0.3125 C 10.195312 0.3125 8.269531 -0.132812 6.6875 -1.03125 C 5.113281 -1.925781 3.914062 -3.25 3.09375 -5 C 2.269531 -6.75 1.859375 -8.894531 1.859375 -11.4375 C 1.859375 -13.832031 2.316406 -15.90625 3.234375 -17.65625 C 4.160156 -19.40625 5.507812 -20.757812 7.28125 -21.71875 C 9.050781 -22.675781 11.21875 -23.15625 13.78125 -23.15625 C 14.988281 -23.15625 16.179688 -23.023438 17.359375 -22.765625 C 18.535156 -22.503906 19.601562 -22.164062 20.5625 -21.75 L 18.953125 -17.875 C 18.253906 -18.226562 17.457031 -18.523438 16.5625 -18.765625 C 15.664062 -19.003906 14.726562 -19.125 13.75 -19.125 C 12.34375 -19.125 11.117188 -18.800781 10.078125 -18.15625 C 9.046875 -17.507812 8.25 -16.601562 7.6875 -15.4375 C 7.125 -14.28125 6.84375 -12.914062 6.84375 -11.34375 C 6.84375 -9.851562 7.039062 -8.535156 7.4375 -7.390625 C 7.84375 -6.242188 8.484375 -5.34375 9.359375 -4.6875 C 10.234375 -4.039062 11.375 -3.71875 12.78125 -3.71875 C 13.46875 -3.71875 14.046875 -3.75 14.515625 -3.8125 C 14.992188 -3.882812 15.441406 -3.957031 15.859375 -4.03125 L 15.859375 -8.78125 L 11.53125 -8.78125 Z M 11.53125 -12.8125 "/></g></g></g><g fill="#ff4500" fill-opacity="1"><g transform="translate(80.746867, 493.159678)"><g><path d="M 90.984375 -0.59375 C 89.878906 -0.300781 88.15625 -0.00390625 85.8125 0.296875 C 83.46875 0.597656 81.144531 0.75 78.84375 0.75 C 76.539062 0.75 74.515625 0.570312 72.765625 0.21875 C 71.023438 -0.125 69.550781 -0.742188 68.34375 -1.640625 C 67.144531 -2.546875 66.242188 -3.796875 65.640625 -5.390625 C 65.046875 -6.992188 64.75 -9.09375 64.75 -11.6875 L 64.75 -35.078125 L 35.96875 -35.078125 L 35.96875 -0.59375 C 34.875 -0.300781 33.148438 -0.00390625 30.796875 0.296875 C 28.453125 0.597656 26.128906 0.75 23.828125 0.75 C 21.535156 0.75 19.515625 0.570312 17.765625 0.21875 C 16.015625 -0.125 14.539062 -0.742188 13.34375 -1.640625 C 12.144531 -2.546875 11.242188 -3.796875 10.640625 -5.390625 C 10.046875 -6.992188 9.75 -9.09375 9.75 -11.6875 L 9.75 -90.828125 C 10.84375 -91.035156 12.585938 -91.3125 14.984375 -91.65625 C 17.390625 -92.007812 19.691406 -92.1875 21.890625 -92.1875 C 24.179688 -92.1875 26.203125 -92.007812 27.953125 -91.65625 C 29.703125 -91.3125 31.175781 -90.6875 32.375 -89.78125 C 33.570312 -88.882812 34.46875 -87.632812 35.0625 -86.03125 C 35.664062 -84.4375 35.96875 -82.335938 35.96875 -79.734375 L 35.96875 -55.765625 L 64.75 -55.765625 L 64.75 -90.828125 C 65.851562 -91.035156 67.601562 -91.3125 70 -91.65625 C 72.394531 -92.007812 74.691406 -92.1875 76.890625 -92.1875 C 79.191406 -92.1875 81.21875 -92.007812 82.96875 -91.65625 C 84.71875 -91.3125 86.191406 -90.6875 87.390625 -89.78125 C 88.585938 -88.882812 89.484375 -87.632812 90.078125 -86.03125 C 90.679688 -84.4375 90.984375 -82.335938 90.984375 -79.734375 Z M 90.984375 -0.59375 "/></g></g></g><g fill="#ff4500" fill-opacity="1"><g transform="translate(181.477373, 493.159678)"><g><path d="M 29.078125 -88.140625 C 30.773438 -89.140625 33.347656 -90.085938 36.796875 -90.984375 C 40.242188 -91.878906 43.71875 -92.328125 47.21875 -92.328125 C 52.207031 -92.328125 56.625 -91.601562 60.46875 -90.15625 C 64.320312 -88.707031 66.800781 -86.4375 67.90625 -83.34375 C 69.695312 -78.144531 71.640625 -72.097656 73.734375 -65.203125 C 75.835938 -58.304688 77.9375 -51.1875 80.03125 -43.84375 C 82.132812 -36.5 84.1875 -29.253906 86.1875 -22.109375 C 88.1875 -14.960938 89.9375 -8.640625 91.4375 -3.140625 C 90.238281 -1.742188 88.4375 -0.625 86.03125 0.21875 C 83.632812 1.070312 80.789062 1.5 77.5 1.5 C 75.09375 1.5 73.066406 1.296875 71.421875 0.890625 C 69.773438 0.492188 68.425781 -0.0976562 67.375 -0.890625 C 66.320312 -1.691406 65.472656 -2.742188 64.828125 -4.046875 C 64.179688 -5.347656 63.609375 -6.847656 63.109375 -8.546875 L 60.40625 -18.890625 L 33.28125 -18.890625 C 32.476562 -15.890625 31.675781 -12.789062 30.875 -9.59375 C 30.070312 -6.394531 29.273438 -3.296875 28.484375 -0.296875 C 27.078125 0.203125 25.597656 0.625 24.046875 0.96875 C 22.503906 1.320312 20.632812 1.5 18.4375 1.5 C 13.34375 1.5 9.570312 0.625 7.125 -1.125 C 4.675781 -2.875 3.453125 -5.296875 3.453125 -8.390625 C 3.453125 -9.796875 3.648438 -11.195312 4.046875 -12.59375 C 4.441406 -13.988281 4.890625 -15.632812 5.390625 -17.53125 C 6.085938 -20.226562 7.0625 -23.578125 8.3125 -27.578125 C 9.5625 -31.578125 10.9375 -35.898438 12.4375 -40.546875 C 13.9375 -45.191406 15.535156 -49.960938 17.234375 -54.859375 C 18.929688 -59.753906 20.53125 -64.375 22.03125 -68.71875 C 23.53125 -73.070312 24.90625 -76.945312 26.15625 -80.34375 C 27.40625 -83.738281 28.378906 -86.335938 29.078125 -88.140625 Z M 47.0625 -68.796875 C 45.664062 -64.597656 44.09375 -59.925781 42.34375 -54.78125 C 40.59375 -49.632812 39.019531 -44.414062 37.625 -39.125 L 56.203125 -39.125 C 54.804688 -44.519531 53.382812 -49.789062 51.9375 -54.9375 C 50.488281 -60.082031 49.164062 -64.703125 47.96875 -68.796875 Z M 47.0625 -68.796875 "/></g></g></g><g fill="#ff4500" fill-opacity="1"><g transform="translate(275.462511, 493.159678)"><g><path d="M 5.546875 -69.84375 C 4.847656 -70.945312 4.195312 -72.445312 3.59375 -74.34375 C 3 -76.238281 2.703125 -78.238281 2.703125 -80.34375 C 2.703125 -84.238281 3.570312 -87.035156 5.3125 -88.734375 C 7.0625 -90.429688 9.335938 -91.28125 12.140625 -91.28125 L 77.5 -91.28125 C 78.195312 -90.1875 78.84375 -88.6875 79.4375 -86.78125 C 80.039062 -84.882812 80.34375 -82.890625 80.34375 -80.796875 C 80.34375 -76.898438 79.46875 -74.097656 77.71875 -72.390625 C 75.96875 -70.691406 73.691406 -69.84375 70.890625 -69.84375 L 54.265625 -69.84375 L 54.265625 -0.59375 C 53.160156 -0.300781 51.429688 -0.00390625 49.078125 0.296875 C 46.734375 0.597656 44.414062 0.75 42.125 0.75 C 39.820312 0.75 37.796875 0.570312 36.046875 0.21875 C 34.296875 -0.125 32.820312 -0.742188 31.625 -1.640625 C 30.425781 -2.546875 29.523438 -3.796875 28.921875 -5.390625 C 28.328125 -6.992188 28.03125 -9.09375 28.03125 -11.6875 L 28.03125 -69.84375 Z M 5.546875 -69.84375 "/></g></g></g><g fill="#ff4500" fill-opacity="1"><g transform="translate(358.80502, 493.159678)"><g><path d="M 90.984375 -0.59375 C 89.878906 -0.300781 88.15625 -0.00390625 85.8125 0.296875 C 83.46875 0.597656 81.144531 0.75 78.84375 0.75 C 76.539062 0.75 74.515625 0.570312 72.765625 0.21875 C 71.023438 -0.125 69.550781 -0.742188 68.34375 -1.640625 C 67.144531 -2.546875 66.242188 -3.796875 65.640625 -5.390625 C 65.046875 -6.992188 64.75 -9.09375 64.75 -11.6875 L 64.75 -35.078125 L 35.96875 -35.078125 L 35.96875 -0.59375 C 34.875 -0.300781 33.148438 -0.00390625 30.796875 0.296875 C 28.453125 0.597656 26.128906 0.75 23.828125 0.75 C 21.535156 0.75 19.515625 0.570312 17.765625 0.21875 C 16.015625 -0.125 14.539062 -0.742188 13.34375 -1.640625 C 12.144531 -2.546875 11.242188 -3.796875 10.640625 -5.390625 C 10.046875 -6.992188 9.75 -9.09375 9.75 -11.6875 L 9.75 -90.828125 C 10.84375 -91.035156 12.585938 -91.3125 14.984375 -91.65625 C 17.390625 -92.007812 19.691406 -92.1875 21.890625 -92.1875 C 24.179688 -92.1875 26.203125 -92.007812 27.953125 -91.65625 C 29.703125 -91.3125 31.175781 -90.6875 32.375 -89.78125 C 33.570312 -88.882812 34.46875 -87.632812 35.0625 -86.03125 C 35.664062 -84.4375 35.96875 -82.335938 35.96875 -79.734375 L 35.96875 -55.765625 L 64.75 -55.765625 L 64.75 -90.828125 C 65.851562 -91.035156 67.601562 -91.3125 70 -91.65625 C 72.394531 -92.007812 74.691406 -92.1875 76.890625 -92.1875 C 79.191406 -92.1875 81.21875 -92.007812 82.96875 -91.65625 C 84.71875 -91.3125 86.191406 -90.6875 87.390625 -89.78125 C 88.585938 -88.882812 89.484375 -87.632812 90.078125 -86.03125 C 90.679688 -84.4375 90.984375 -82.335938 90.984375 -79.734375 Z M 90.984375 -0.59375 "/></g></g></g><g fill="#ff4500" fill-opacity="1"><g transform="translate(459.535537, 493.159678)"><g><path d="M 57.40625 -0.59375 C 56.3125 -0.300781 54.613281 -0.00390625 52.3125 0.296875 C 50.007812 0.597656 47.757812 0.75 45.5625 0.75 C 40.96875 0.75 37.519531 -0.0195312 35.21875 -1.5625 C 32.925781 -3.113281 31.78125 -6.390625 31.78125 -11.390625 L 31.78125 -31.625 C 29.28125 -35.320312 26.578125 -39.414062 23.671875 -43.90625 C 20.773438 -48.40625 17.925781 -53.003906 15.125 -57.703125 C 12.332031 -62.398438 9.738281 -67.019531 7.34375 -71.5625 C 4.945312 -76.113281 3 -80.289062 1.5 -84.09375 C 2.800781 -85.882812 4.570312 -87.53125 6.8125 -89.03125 C 9.0625 -90.53125 11.835938 -91.28125 15.140625 -91.28125 C 19.035156 -91.28125 22.207031 -90.476562 24.65625 -88.875 C 27.101562 -87.28125 29.425781 -84.285156 31.625 -79.890625 L 44.0625 -54.859375 L 44.96875 -54.859375 C 46.363281 -57.953125 47.585938 -60.773438 48.640625 -63.328125 C 49.691406 -65.878906 50.71875 -68.425781 51.71875 -70.96875 C 52.71875 -73.519531 53.765625 -76.171875 54.859375 -78.921875 C 55.960938 -81.671875 57.210938 -84.84375 58.609375 -88.4375 C 60.410156 -89.332031 62.410156 -90.03125 64.609375 -90.53125 C 66.804688 -91.03125 68.898438 -91.28125 70.890625 -91.28125 C 74.390625 -91.28125 77.363281 -90.351562 79.8125 -88.5 C 82.257812 -86.65625 83.484375 -83.882812 83.484375 -80.1875 C 83.484375 -78.988281 83.234375 -77.539062 82.734375 -75.84375 C 82.234375 -74.144531 81.082031 -71.570312 79.28125 -68.125 C 77.488281 -64.675781 74.867188 -60.003906 71.421875 -54.109375 C 67.972656 -48.210938 63.300781 -40.519531 57.40625 -31.03125 Z M 57.40625 -0.59375 "/></g></g></g><g fill="#ff4500" fill-opacity="1"><g transform="translate(545.576188, 493.159678)"><g><path d="M 5.25 -45.5625 C 5.25 -53.363281 6.472656 -60.257812 8.921875 -66.25 C 11.367188 -72.25 14.710938 -77.269531 18.953125 -81.3125 C 23.203125 -85.363281 28.195312 -88.4375 33.9375 -90.53125 C 39.6875 -92.632812 45.910156 -93.6875 52.609375 -93.6875 C 59.304688 -93.6875 65.523438 -92.632812 71.265625 -90.53125 C 77.015625 -88.4375 82.035156 -85.363281 86.328125 -81.3125 C 90.628906 -77.269531 94.003906 -72.25 96.453125 -66.25 C 98.898438 -60.257812 100.125 -53.363281 100.125 -45.5625 C 100.125 -37.769531 98.925781 -30.847656 96.53125 -24.796875 C 94.132812 -18.753906 90.8125 -13.707031 86.5625 -9.65625 C 82.3125 -5.613281 77.285156 -2.539062 71.484375 -0.4375 C 65.691406 1.65625 59.398438 2.703125 52.609375 2.703125 C 45.816406 2.703125 39.519531 1.628906 33.71875 -0.515625 C 27.925781 -2.671875 22.929688 -5.796875 18.734375 -9.890625 C 14.535156 -13.984375 11.238281 -19.03125 8.84375 -25.03125 C 6.445312 -31.03125 5.25 -37.875 5.25 -45.5625 Z M 32.21875 -45.5625 C 32.21875 -36.46875 34.066406 -29.671875 37.765625 -25.171875 C 41.460938 -20.679688 46.410156 -18.4375 52.609375 -18.4375 C 58.910156 -18.4375 63.90625 -20.679688 67.59375 -25.171875 C 71.289062 -29.671875 73.140625 -36.46875 73.140625 -45.5625 C 73.140625 -54.5625 71.316406 -61.304688 67.671875 -65.796875 C 64.023438 -70.296875 59.054688 -72.546875 52.765625 -72.546875 C 46.566406 -72.546875 41.59375 -70.320312 37.84375 -65.875 C 34.09375 -61.425781 32.21875 -54.65625 32.21875 -45.5625 Z M 32.21875 -45.5625 "/></g></g></g></svg>