<svg xmlns="http://www.w3.org/2000/svg" xmlns:xlink="http://www.w3.org/1999/xlink" width="860" zoomAndPan="magnify" viewBox="0 0 645 645.000003" height="860" preserveAspectRatio="xMidYMid meet" version="1.0"><defs><g/><clipPath id="b05191dc51"><path d="M 0.5 0 L 644.5 0 L 644.5 644 L 0.5 644 Z M 0.5 0 " clip-rule="nonzero"/></clipPath><clipPath id="65faa5a346"><path d="M 174 132 L 471 132 L 471 230 L 174 230 Z M 174 132 " clip-rule="nonzero"/></clipPath><clipPath id="5b6d3c8062"><path d="M 474.609375 141.714844 L 340.910156 312.84375 L 169.78125 179.144531 L 303.480469 8.015625 Z M 474.609375 141.714844 " clip-rule="nonzero"/></clipPath><clipPath id="eae6656e3f"><path d="M 474.609375 141.714844 L 340.910156 312.84375 L 169.78125 179.144531 L 303.480469 8.015625 Z M 474.609375 141.714844 " clip-rule="nonzero"/></clipPath><clipPath id="f082503663"><path d="M 216.738281 91.261719 L 291.625 91.261719 L 291.625 331 L 216.738281 331 Z M 216.738281 91.261719 " clip-rule="nonzero"/></clipPath><clipPath id="706c294ceb"><path d="M 254.179688 91.261719 C 274.859375 91.261719 291.625 108.023438 291.625 128.703125 L 291.625 293.449219 C 291.625 314.125 274.859375 330.890625 254.179688 330.890625 C 233.503906 330.890625 216.738281 314.125 216.738281 293.449219 L 216.738281 128.703125 C 216.738281 108.023438 233.503906 91.261719 254.179688 91.261719 Z M 254.179688 91.261719 " clip-rule="nonzero"/></clipPath><clipPath id="3b37771a5f"><path d="M 0.738281 0.261719 L 75.625 0.261719 L 75.625 239.925781 L 0.738281 239.925781 Z M 0.738281 0.261719 " clip-rule="nonzero"/></clipPath><clipPath id="e502798524"><path d="M 38.179688 0.261719 C 58.859375 0.261719 75.625 17.023438 75.625 37.703125 L 75.625 202.449219 C 75.625 223.125 58.859375 239.890625 38.179688 239.890625 C 17.503906 239.890625 0.738281 223.125 0.738281 202.449219 L 0.738281 37.703125 C 0.738281 17.023438 17.503906 0.261719 38.179688 0.261719 Z M 38.179688 0.261719 " clip-rule="nonzero"/></clipPath><clipPath id="b07e838965"><rect x="0" width="76" y="0" height="240"/></clipPath><clipPath id="385f165923"><path d="M 246.691406 106.238281 L 291.625 106.238281 L 291.625 151.167969 L 246.691406 151.167969 Z M 246.691406 106.238281 " clip-rule="nonzero"/></clipPath><clipPath id="57ebeeb91e"><path d="M 269.160156 106.238281 C 256.75 106.238281 246.691406 116.296875 246.691406 128.703125 C 246.691406 141.109375 256.75 151.167969 269.160156 151.167969 C 281.566406 151.167969 291.625 141.109375 291.625 128.703125 C 291.625 116.296875 281.566406 106.238281 269.160156 106.238281 Z M 269.160156 106.238281 " clip-rule="nonzero"/></clipPath><clipPath id="09f8d53e26"><path d="M 0.691406 0.238281 L 45.625 0.238281 L 45.625 45.167969 L 0.691406 45.167969 Z M 0.691406 0.238281 " clip-rule="nonzero"/></clipPath><clipPath id="f2d362f407"><path d="M 23.160156 0.238281 C 10.75 0.238281 0.691406 10.296875 0.691406 22.703125 C 0.691406 35.109375 10.75 45.167969 23.160156 45.167969 C 35.566406 45.167969 45.625 35.109375 45.625 22.703125 C 45.625 10.296875 35.566406 0.238281 23.160156 0.238281 Z M 23.160156 0.238281 " clip-rule="nonzero"/></clipPath><clipPath id="74d0f590c1"><rect x="0" width="46" y="0" height="46"/></clipPath><clipPath id="7ef7e51cdb"><path d="M 341.546875 61.308594 L 416.429688 61.308594 L 416.429688 360.84375 L 341.546875 360.84375 Z M 341.546875 61.308594 " clip-rule="nonzero"/></clipPath><clipPath id="bd010a5ac8"><path d="M 378.988281 61.308594 C 399.667969 61.308594 416.429688 78.070312 416.429688 98.75 L 416.429688 323.402344 C 416.429688 344.078125 399.667969 360.84375 378.988281 360.84375 C 358.308594 360.84375 341.546875 344.078125 341.546875 323.402344 L 341.546875 98.75 C 341.546875 78.070312 358.308594 61.308594 378.988281 61.308594 Z M 378.988281 61.308594 " clip-rule="nonzero"/></clipPath><clipPath id="7f5757302c"><path d="M 0.546875 0.308594 L 75.429688 0.308594 L 75.429688 299.84375 L 0.546875 299.84375 Z M 0.546875 0.308594 " clip-rule="nonzero"/></clipPath><clipPath id="740d2ae5a7"><path d="M 37.988281 0.308594 C 58.667969 0.308594 75.429688 17.070312 75.429688 37.75 L 75.429688 262.402344 C 75.429688 283.078125 58.667969 299.84375 37.988281 299.84375 C 17.308594 299.84375 0.546875 283.078125 0.546875 262.402344 L 0.546875 37.75 C 0.546875 17.070312 17.308594 0.308594 37.988281 0.308594 Z M 37.988281 0.308594 " clip-rule="nonzero"/></clipPath><clipPath id="8246b1358c"><rect x="0" width="76" y="0" height="300"/></clipPath><clipPath id="ed1d7d0d86"><path d="M 341.546875 76.285156 L 386.476562 76.285156 L 386.476562 121.214844 L 341.546875 121.214844 Z M 341.546875 76.285156 " clip-rule="nonzero"/></clipPath><clipPath id="9cfea43140"><path d="M 364.011719 76.285156 C 351.605469 76.285156 341.546875 86.34375 341.546875 98.75 C 341.546875 111.15625 351.605469 121.214844 364.011719 121.214844 C 376.417969 121.214844 386.476562 111.15625 386.476562 98.75 C 386.476562 86.34375 376.417969 76.285156 364.011719 76.285156 Z M 364.011719 76.285156 " clip-rule="nonzero"/></clipPath><clipPath id="5109485a4d"><path d="M 0.546875 0.285156 L 45.476562 0.285156 L 45.476562 45.214844 L 0.546875 45.214844 Z M 0.546875 0.285156 " clip-rule="nonzero"/></clipPath><clipPath id="e9407ea4a8"><path d="M 23.011719 0.285156 C 10.605469 0.285156 0.546875 10.34375 0.546875 22.75 C 0.546875 35.15625 10.605469 45.214844 23.011719 45.214844 C 35.417969 45.214844 45.476562 35.15625 45.476562 22.75 C 45.476562 10.34375 35.417969 0.285156 23.011719 0.285156 Z M 23.011719 0.285156 " clip-rule="nonzero"/></clipPath><clipPath id="e7f0c8962b"><rect x="0" width="46" y="0" height="46"/></clipPath></defs><g clip-path="url(#b05191dc51)"><path fill="#ffffff" d="M 0.5 0 L 644.5 0 L 644.5 644 L 0.5 644 Z M 0.5 0 " fill-opacity="1" fill-rule="nonzero"/></g><g clip-path="url(#65faa5a346)"><g clip-path="url(#5b6d3c8062)"><g clip-path="url(#eae6656e3f)"><path fill="#006636" d="M 176.4375 170.625 C 180.113281 165.921875 186.910156 165.085938 191.613281 168.761719 C 271.878906 231.472656 388.207031 217.1875 450.914062 136.921875 C 454.589844 132.222656 461.386719 131.386719 466.089844 135.058594 C 470.792969 138.734375 471.625 145.53125 467.953125 150.234375 C 450.808594 172.179688 429.875 190.121094 405.722656 203.546875 C 382.394531 216.515625 357.09375 224.734375 330.507812 228 C 303.921875 231.265625 277.367188 229.394531 251.609375 222.46875 C 224.929688 215.285156 200.277344 202.941406 178.332031 185.796875 C 173.597656 182.125 172.765625 175.328125 176.4375 170.625 Z M 176.4375 170.625 " fill-opacity="1" fill-rule="nonzero"/></g></g></g><g clip-path="url(#f082503663)"><g clip-path="url(#706c294ceb)"><g transform="matrix(1, 0, 0, 1, 216, 91)"><g clip-path="url(#b07e838965)"><g clip-path="url(#3b37771a5f)"><g clip-path="url(#e502798524)"><path fill="#006636" d="M 0.738281 0.261719 L 75.625 0.261719 L 75.625 239.832031 L 0.738281 239.832031 Z M 0.738281 0.261719 " fill-opacity="1" fill-rule="nonzero"/></g></g></g></g></g></g><g clip-path="url(#385f165923)"><g clip-path="url(#57ebeeb91e)"><g transform="matrix(1, 0, 0, 1, 246, 106)"><g clip-path="url(#74d0f590c1)"><g clip-path="url(#09f8d53e26)"><g clip-path="url(#f2d362f407)"><path fill="#ff4500" d="M 0.691406 0.238281 L 45.625 0.238281 L 45.625 45.167969 L 0.691406 45.167969 Z M 0.691406 0.238281 " fill-opacity="1" fill-rule="nonzero"/></g></g></g></g><path stroke-linecap="butt" transform="matrix(0.748839, 0, 0, 0.748839, 246.693056, 106.237617)" fill="none" stroke-linejoin="miter" d="M 30.002576 0.000887069 C 13.430047 0.000887069 -0.0022035 13.433138 -0.0022035 30.00045 C -0.0022035 46.567762 13.430047 60.000013 30.002576 60.000013 C 46.569888 60.000013 60.002139 46.567762 60.002139 30.00045 C 60.002139 13.433138 46.569888 0.000887069 30.002576 0.000887069 Z M 30.002576 0.000887069 " stroke="#ffffff" stroke-width="16" stroke-opacity="1" stroke-miterlimit="4"/></g></g><g clip-path="url(#7ef7e51cdb)"><g clip-path="url(#bd010a5ac8)"><g transform="matrix(1, 0, 0, 1, 341, 61)"><g clip-path="url(#8246b1358c)"><g clip-path="url(#7f5757302c)"><g clip-path="url(#740d2ae5a7)"><path fill="#006636" d="M 0.546875 0.308594 L 75.429688 0.308594 L 75.429688 299.84375 L 0.546875 299.84375 Z M 0.546875 0.308594 " fill-opacity="1" fill-rule="nonzero"/></g></g></g></g></g></g><g clip-path="url(#ed1d7d0d86)"><g clip-path="url(#9cfea43140)"><g transform="matrix(1, 0, 0, 1, 341, 76)"><g clip-path="url(#e7f0c8962b)"><g clip-path="url(#5109485a4d)"><g clip-path="url(#e9407ea4a8)"><path fill="#ff4500" d="M 0.546875 0.285156 L 45.476562 0.285156 L 45.476562 45.214844 L 0.546875 45.214844 Z M 0.546875 0.285156 " fill-opacity="1" fill-rule="nonzero"/></g></g></g></g><path stroke-linecap="butt" transform="matrix(0.748839, 0, 0, 0.748839, 341.546005, 76.284058)" fill="none" stroke-linejoin="miter" d="M 30.000725 0.00146698 C 13.433413 0.00146698 0.00116158 13.433718 0.00116158 30.00103 C 0.00116158 46.568342 13.433413 60.000593 30.000725 60.000593 C 46.568037 60.000593 60.000288 46.568342 60.000288 30.00103 C 60.000288 13.433718 46.568037 0.00146698 30.000725 0.00146698 Z M 30.000725 0.00146698 " stroke="#ffffff" stroke-width="16" stroke-opacity="1" stroke-miterlimit="4"/></g></g><g fill="#ff4500" fill-opacity="1"><g transform="translate(94.308682, 490.877195)"><g><path d="M 72.71875 -0.484375 C 71.84375 -0.242188 70.46875 -0.00390625 68.59375 0.234375 C 66.71875 0.472656 64.859375 0.59375 63.015625 0.59375 C 61.179688 0.59375 59.566406 0.453125 58.171875 0.171875 C 56.773438 -0.0976562 55.597656 -0.59375 54.640625 -1.3125 C 53.679688 -2.03125 52.960938 -3.03125 52.484375 -4.3125 C 52.003906 -5.59375 51.765625 -7.269531 51.765625 -9.34375 L 51.765625 -28.03125 L 28.75 -28.03125 L 28.75 -0.484375 C 27.875 -0.242188 26.5 -0.00390625 24.625 0.234375 C 22.75 0.472656 20.890625 0.59375 19.046875 0.59375 C 17.210938 0.59375 15.59375 0.453125 14.1875 0.171875 C 12.789062 -0.0976562 11.613281 -0.59375 10.65625 -1.3125 C 9.695312 -2.03125 8.976562 -3.03125 8.5 -4.3125 C 8.019531 -5.59375 7.78125 -7.269531 7.78125 -9.34375 L 7.78125 -72.609375 C 8.664062 -72.765625 10.066406 -72.984375 11.984375 -73.265625 C 13.898438 -73.546875 15.738281 -73.6875 17.5 -73.6875 C 19.332031 -73.6875 20.945312 -73.546875 22.34375 -73.265625 C 23.738281 -72.984375 24.914062 -72.484375 25.875 -71.765625 C 26.832031 -71.046875 27.550781 -70.046875 28.03125 -68.765625 C 28.507812 -67.492188 28.75 -65.816406 28.75 -63.734375 L 28.75 -44.5625 L 51.765625 -44.5625 L 51.765625 -72.609375 C 52.640625 -72.765625 54.035156 -72.984375 55.953125 -73.265625 C 57.867188 -73.546875 59.707031 -73.6875 61.46875 -73.6875 C 63.300781 -73.6875 64.914062 -73.546875 66.3125 -73.265625 C 67.707031 -72.984375 68.882812 -72.484375 69.84375 -71.765625 C 70.800781 -71.046875 71.519531 -70.046875 72 -68.765625 C 72.476562 -67.492188 72.71875 -65.816406 72.71875 -63.734375 Z M 72.71875 -0.484375 "/></g></g></g><g fill="#ff4500" fill-opacity="1"><g transform="translate(174.823898, 490.877195)"><g><path d="M 23.25 -70.453125 C 24.601562 -71.242188 26.65625 -72 29.40625 -72.71875 C 32.164062 -73.4375 34.941406 -73.796875 37.734375 -73.796875 C 41.734375 -73.796875 45.269531 -73.21875 48.34375 -72.0625 C 51.414062 -70.90625 53.394531 -69.085938 54.28125 -66.609375 C 55.71875 -62.460938 57.273438 -57.628906 58.953125 -52.109375 C 60.628906 -46.597656 62.304688 -40.90625 63.984375 -35.03125 C 65.660156 -29.164062 67.296875 -23.378906 68.890625 -17.671875 C 70.484375 -11.960938 71.878906 -6.910156 73.078125 -2.515625 C 72.117188 -1.398438 70.679688 -0.503906 68.765625 0.171875 C 66.847656 0.859375 64.570312 1.203125 61.9375 1.203125 C 60.019531 1.203125 58.398438 1.039062 57.078125 0.71875 C 55.765625 0.394531 54.6875 -0.0820312 53.84375 -0.71875 C 53.007812 -1.351562 52.332031 -2.191406 51.8125 -3.234375 C 51.300781 -4.273438 50.84375 -5.472656 50.4375 -6.828125 L 48.28125 -15.09375 L 26.59375 -15.09375 C 25.957031 -12.695312 25.316406 -10.21875 24.671875 -7.65625 C 24.035156 -5.101562 23.398438 -2.628906 22.765625 -0.234375 C 21.648438 0.160156 20.472656 0.5 19.234375 0.78125 C 17.992188 1.0625 16.492188 1.203125 14.734375 1.203125 C 10.660156 1.203125 7.644531 0.503906 5.6875 -0.890625 C 3.726562 -2.296875 2.75 -4.234375 2.75 -6.703125 C 2.75 -7.828125 2.910156 -8.945312 3.234375 -10.0625 C 3.554688 -11.175781 3.914062 -12.492188 4.3125 -14.015625 C 4.875 -16.171875 5.648438 -18.847656 6.640625 -22.046875 C 7.640625 -25.242188 8.738281 -28.695312 9.9375 -32.40625 C 11.132812 -36.125 12.410156 -39.9375 13.765625 -43.84375 C 15.128906 -47.757812 16.410156 -51.453125 17.609375 -54.921875 C 18.804688 -58.398438 19.90625 -61.5 20.90625 -64.21875 C 21.90625 -66.9375 22.6875 -69.015625 23.25 -70.453125 Z M 37.625 -55 C 36.5 -51.644531 35.238281 -47.910156 33.84375 -43.796875 C 32.445312 -39.679688 31.191406 -35.503906 30.078125 -31.265625 L 44.921875 -31.265625 C 43.804688 -35.578125 42.671875 -39.789062 41.515625 -43.90625 C 40.359375 -48.019531 39.300781 -51.71875 38.34375 -55 Z M 37.625 -55 "/></g></g></g><g fill="#ff4500" fill-opacity="1"><g transform="translate(249.947465, 490.877195)"><g><path d="M 4.4375 -55.828125 C 3.875 -56.710938 3.351562 -57.910156 2.875 -59.421875 C 2.394531 -60.941406 2.15625 -62.539062 2.15625 -64.21875 C 2.15625 -67.332031 2.851562 -69.566406 4.25 -70.921875 C 5.644531 -72.285156 7.460938 -72.96875 9.703125 -72.96875 L 61.9375 -72.96875 C 62.5 -72.082031 63.019531 -70.878906 63.5 -69.359375 C 63.976562 -67.847656 64.21875 -66.253906 64.21875 -64.578125 C 64.21875 -61.460938 63.519531 -59.222656 62.125 -57.859375 C 60.726562 -56.503906 58.910156 -55.828125 56.671875 -55.828125 L 43.375 -55.828125 L 43.375 -0.484375 C 42.488281 -0.242188 41.109375 -0.00390625 39.234375 0.234375 C 37.359375 0.472656 35.503906 0.59375 33.671875 0.59375 C 31.828125 0.59375 30.207031 0.453125 28.8125 0.171875 C 27.414062 -0.0976562 26.238281 -0.59375 25.28125 -1.3125 C 24.320312 -2.03125 23.601562 -3.03125 23.125 -4.3125 C 22.644531 -5.59375 22.40625 -7.269531 22.40625 -9.34375 L 22.40625 -55.828125 Z M 4.4375 -55.828125 "/></g></g></g><g fill="#ff4500" fill-opacity="1"><g transform="translate(316.564219, 490.877195)"><g><path d="M 72.71875 -0.484375 C 71.84375 -0.242188 70.46875 -0.00390625 68.59375 0.234375 C 66.71875 0.472656 64.859375 0.59375 63.015625 0.59375 C 61.179688 0.59375 59.566406 0.453125 58.171875 0.171875 C 56.773438 -0.0976562 55.597656 -0.59375 54.640625 -1.3125 C 53.679688 -2.03125 52.960938 -3.03125 52.484375 -4.3125 C 52.003906 -5.59375 51.765625 -7.269531 51.765625 -9.34375 L 51.765625 -28.03125 L 28.75 -28.03125 L 28.75 -0.484375 C 27.875 -0.242188 26.5 -0.00390625 24.625 0.234375 C 22.75 0.472656 20.890625 0.59375 19.046875 0.59375 C 17.210938 0.59375 15.59375 0.453125 14.1875 0.171875 C 12.789062 -0.0976562 11.613281 -0.59375 10.65625 -1.3125 C 9.695312 -2.03125 8.976562 -3.03125 8.5 -4.3125 C 8.019531 -5.59375 7.78125 -7.269531 7.78125 -9.34375 L 7.78125 -72.609375 C 8.664062 -72.765625 10.066406 -72.984375 11.984375 -73.265625 C 13.898438 -73.546875 15.738281 -73.6875 17.5 -73.6875 C 19.332031 -73.6875 20.945312 -73.546875 22.34375 -73.265625 C 23.738281 -72.984375 24.914062 -72.484375 25.875 -71.765625 C 26.832031 -71.046875 27.550781 -70.046875 28.03125 -68.765625 C 28.507812 -67.492188 28.75 -65.816406 28.75 -63.734375 L 28.75 -44.5625 L 51.765625 -44.5625 L 51.765625 -72.609375 C 52.640625 -72.765625 54.035156 -72.984375 55.953125 -73.265625 C 57.867188 -73.546875 59.707031 -73.6875 61.46875 -73.6875 C 63.300781 -73.6875 64.914062 -73.546875 66.3125 -73.265625 C 67.707031 -72.984375 68.882812 -72.484375 69.84375 -71.765625 C 70.800781 -71.046875 71.519531 -70.046875 72 -68.765625 C 72.476562 -67.492188 72.71875 -65.816406 72.71875 -63.734375 Z M 72.71875 -0.484375 "/></g></g></g><g fill="#ff4500" fill-opacity="1"><g transform="translate(397.079447, 490.877195)"><g><path d="M 45.890625 -0.484375 C 45.003906 -0.242188 43.644531 -0.00390625 41.8125 0.234375 C 39.976562 0.472656 38.179688 0.59375 36.421875 0.59375 C 32.742188 0.59375 29.988281 -0.0195312 28.15625 -1.25 C 26.320312 -2.488281 25.40625 -5.109375 25.40625 -9.109375 L 25.40625 -25.28125 C 23.40625 -28.238281 21.242188 -31.515625 18.921875 -35.109375 C 16.609375 -38.703125 14.332031 -42.375 12.09375 -46.125 C 9.863281 -49.882812 7.789062 -53.578125 5.875 -57.203125 C 3.957031 -60.835938 2.398438 -64.175781 1.203125 -67.21875 C 2.234375 -68.65625 3.644531 -69.972656 5.4375 -71.171875 C 7.238281 -72.367188 9.457031 -72.96875 12.09375 -72.96875 C 15.21875 -72.96875 17.753906 -72.328125 19.703125 -71.046875 C 21.660156 -69.765625 23.519531 -67.367188 25.28125 -63.859375 L 35.21875 -43.84375 L 35.9375 -43.84375 C 37.0625 -46.320312 38.039062 -48.578125 38.875 -50.609375 C 39.71875 -52.648438 40.535156 -54.6875 41.328125 -56.71875 C 42.128906 -58.757812 42.96875 -60.878906 43.84375 -63.078125 C 44.726562 -65.273438 45.726562 -67.8125 46.84375 -70.6875 C 48.28125 -71.40625 49.878906 -71.960938 51.640625 -72.359375 C 53.398438 -72.765625 55.078125 -72.96875 56.671875 -72.96875 C 59.460938 -72.96875 61.835938 -72.226562 63.796875 -70.75 C 65.753906 -69.269531 66.734375 -67.050781 66.734375 -64.09375 C 66.734375 -63.132812 66.53125 -61.976562 66.125 -60.625 C 65.726562 -59.269531 64.8125 -57.210938 63.375 -54.453125 C 61.9375 -51.703125 59.835938 -47.96875 57.078125 -43.25 C 54.328125 -38.539062 50.597656 -32.390625 45.890625 -24.796875 Z M 45.890625 -0.484375 "/></g></g></g><g fill="#ff4500" fill-opacity="1"><g transform="translate(465.85284, 490.877195)"><g><path d="M 4.1875 -36.421875 C 4.1875 -42.648438 5.164062 -48.160156 7.125 -52.953125 C 9.082031 -57.742188 11.757812 -61.753906 15.15625 -64.984375 C 18.550781 -68.222656 22.546875 -70.679688 27.140625 -72.359375 C 31.734375 -74.035156 36.703125 -74.875 42.046875 -74.875 C 47.398438 -74.875 52.375 -74.035156 56.96875 -72.359375 C 61.5625 -70.679688 65.570312 -68.222656 69 -64.984375 C 72.4375 -61.753906 75.132812 -57.742188 77.09375 -52.953125 C 79.050781 -48.160156 80.03125 -42.648438 80.03125 -36.421875 C 80.03125 -30.191406 79.070312 -24.660156 77.15625 -19.828125 C 75.238281 -14.992188 72.582031 -10.957031 69.1875 -7.71875 C 65.789062 -4.488281 61.773438 -2.035156 57.140625 -0.359375 C 52.515625 1.316406 47.484375 2.15625 42.046875 2.15625 C 36.617188 2.15625 31.585938 1.296875 26.953125 -0.421875 C 22.328125 -2.140625 18.332031 -4.632812 14.96875 -7.90625 C 11.613281 -11.175781 8.976562 -15.207031 7.0625 -20 C 5.144531 -24.800781 4.1875 -30.273438 4.1875 -36.421875 Z M 25.765625 -36.421875 C 25.765625 -29.148438 27.238281 -23.71875 30.1875 -20.125 C 33.144531 -16.53125 37.097656 -14.734375 42.046875 -14.734375 C 47.085938 -14.734375 51.082031 -16.53125 54.03125 -20.125 C 56.988281 -23.71875 58.46875 -29.148438 58.46875 -36.421875 C 58.46875 -43.609375 57.007812 -49 54.09375 -52.59375 C 51.175781 -56.1875 47.203125 -57.984375 42.171875 -57.984375 C 37.222656 -57.984375 33.25 -56.207031 30.25 -52.65625 C 27.257812 -49.101562 25.765625 -43.691406 25.765625 -36.421875 Z M 25.765625 -36.421875 "/></g></g></g></svg>