<svg xmlns="http://www.w3.org/2000/svg" xmlns:xlink="http://www.w3.org/1999/xlink" width="820" zoomAndPan="magnify" viewBox="0 0 615 615.000004" height="820" preserveAspectRatio="xMidYMid meet" version="1.0"><defs><g/><clipPath id="c3d784386a"><path d="M 159 124 L 456 124 L 456 222 L 159 222 Z M 159 124 " clip-rule="nonzero"/></clipPath><clipPath id="3d722f6771"><path d="M 459.902344 133.6875 L 326.210938 304.804688 L 155.097656 171.113281 L 288.789062 0 Z M 459.902344 133.6875 " clip-rule="nonzero"/></clipPath><clipPath id="3ad7bf7deb"><path d="M 459.902344 133.6875 L 326.210938 304.804688 L 155.097656 171.113281 L 288.789062 0 Z M 459.902344 133.6875 " clip-rule="nonzero"/></clipPath><clipPath id="e80608bad8"><path d="M 202.050781 83.238281 L 276.929688 83.238281 L 276.929688 323 L 202.050781 323 Z M 202.050781 83.238281 " clip-rule="nonzero"/></clipPath><clipPath id="3bba21e011"><path d="M 239.492188 83.238281 C 260.167969 83.238281 276.929688 100 276.929688 120.675781 L 276.929688 285.410156 C 276.929688 306.085938 260.167969 322.847656 239.492188 322.847656 C 218.8125 322.847656 202.050781 306.085938 202.050781 285.410156 L 202.050781 120.675781 C 202.050781 100 218.8125 83.238281 239.492188 83.238281 Z M 239.492188 83.238281 " clip-rule="nonzero"/></clipPath><clipPath id="4f6f0c6042"><path d="M 0.0507812 0.238281 L 74.929688 0.238281 L 74.929688 239.996094 L 0.0507812 239.996094 Z M 0.0507812 0.238281 " clip-rule="nonzero"/></clipPath><clipPath id="8b354c834e"><path d="M 37.492188 0.238281 C 58.167969 0.238281 74.929688 17 74.929688 37.675781 L 74.929688 202.410156 C 74.929688 223.085938 58.167969 239.847656 37.492188 239.847656 C 16.8125 239.847656 0.0507812 223.085938 0.0507812 202.410156 L 0.0507812 37.675781 C 0.0507812 17 16.8125 0.238281 37.492188 0.238281 Z M 37.492188 0.238281 " clip-rule="nonzero"/></clipPath><clipPath id="5c4d842558"><rect x="0" width="75" y="0" height="240"/></clipPath><clipPath id="311065de62"><path d="M 232.003906 98.214844 L 276.929688 98.214844 L 276.929688 143.140625 L 232.003906 143.140625 Z M 232.003906 98.214844 " clip-rule="nonzero"/></clipPath><clipPath id="599ec94e9e"><path d="M 254.464844 98.214844 C 242.058594 98.214844 232.003906 108.269531 232.003906 120.675781 C 232.003906 133.082031 242.058594 143.140625 254.464844 143.140625 C 266.871094 143.140625 276.929688 133.082031 276.929688 120.675781 C 276.929688 108.269531 266.871094 98.214844 254.464844 98.214844 Z M 254.464844 98.214844 " clip-rule="nonzero"/></clipPath><clipPath id="41097b0160"><path d="M 0.00390625 0.214844 L 44.929688 0.214844 L 44.929688 45.140625 L 0.00390625 45.140625 Z M 0.00390625 0.214844 " clip-rule="nonzero"/></clipPath><clipPath id="06521d7fa2"><path d="M 22.464844 0.214844 C 10.058594 0.214844 0.00390625 10.269531 0.00390625 22.675781 C 0.00390625 35.082031 10.058594 45.140625 22.464844 45.140625 C 34.871094 45.140625 44.929688 35.082031 44.929688 22.675781 C 44.929688 10.269531 34.871094 0.214844 22.464844 0.214844 Z M 22.464844 0.214844 " clip-rule="nonzero"/></clipPath><clipPath id="4f79ec965d"><rect x="0" width="45" y="0" height="46"/></clipPath><clipPath id="ea23c69c5a"><path d="M 326.847656 53.285156 L 401.726562 53.285156 L 401.726562 352.800781 L 326.847656 352.800781 Z M 326.847656 53.285156 " clip-rule="nonzero"/></clipPath><clipPath id="9ded518f9a"><path d="M 364.289062 53.285156 C 384.964844 53.285156 401.726562 70.046875 401.726562 90.726562 L 401.726562 315.359375 C 401.726562 336.039062 384.964844 352.800781 364.289062 352.800781 C 343.609375 352.800781 326.847656 336.039062 326.847656 315.359375 L 326.847656 90.726562 C 326.847656 70.046875 343.609375 53.285156 364.289062 53.285156 Z M 364.289062 53.285156 " clip-rule="nonzero"/></clipPath><clipPath id="b04b1e0739"><path d="M 0.847656 0.285156 L 75.726562 0.285156 L 75.726562 299.800781 L 0.847656 299.800781 Z M 0.847656 0.285156 " clip-rule="nonzero"/></clipPath><clipPath id="ee5638a02d"><path d="M 38.289062 0.285156 C 58.964844 0.285156 75.726562 17.046875 75.726562 37.726562 L 75.726562 262.359375 C 75.726562 283.039062 58.964844 299.800781 38.289062 299.800781 C 17.609375 299.800781 0.847656 283.039062 0.847656 262.359375 L 0.847656 37.726562 C 0.847656 17.046875 17.609375 0.285156 38.289062 0.285156 Z M 38.289062 0.285156 " clip-rule="nonzero"/></clipPath><clipPath id="a1b00c1bf4"><rect x="0" width="76" y="0" height="300"/></clipPath><clipPath id="7549c442a0"><path d="M 326.847656 68.261719 L 371.777344 68.261719 L 371.777344 113.1875 L 326.847656 113.1875 Z M 326.847656 68.261719 " clip-rule="nonzero"/></clipPath><clipPath id="d2c475939d"><path d="M 349.3125 68.261719 C 336.90625 68.261719 326.847656 78.320312 326.847656 90.726562 C 326.847656 103.132812 336.90625 113.1875 349.3125 113.1875 C 361.71875 113.1875 371.777344 103.132812 371.777344 90.726562 C 371.777344 78.320312 361.71875 68.261719 349.3125 68.261719 Z M 349.3125 68.261719 " clip-rule="nonzero"/></clipPath><clipPath id="ee2d943016"><path d="M 0.847656 0.261719 L 45.777344 0.261719 L 45.777344 45.1875 L 0.847656 45.1875 Z M 0.847656 0.261719 " clip-rule="nonzero"/></clipPath><clipPath id="17553702eb"><path d="M 23.3125 0.261719 C 10.90625 0.261719 0.847656 10.320312 0.847656 22.726562 C 0.847656 35.132812 10.90625 45.1875 23.3125 45.1875 C 35.71875 45.1875 45.777344 35.132812 45.777344 22.726562 C 45.777344 10.320312 35.71875 0.261719 23.3125 0.261719 Z M 23.3125 0.261719 " clip-rule="nonzero"/></clipPath><clipPath id="1a7f728adc"><rect x="0" width="46" y="0" height="46"/></clipPath></defs><g clip-path="url(#c3d784386a)"><g clip-path="url(#3d722f6771)"><g clip-path="url(#3ad7bf7deb)"><path fill="#006636" d="M 161.753906 162.597656 C 165.425781 157.894531 172.226562 157.058594 176.925781 160.734375 C 257.1875 223.4375 373.503906 209.15625 436.210938 128.898438 C 439.882812 124.195312 446.679688 123.359375 451.382812 127.035156 C 456.085938 130.707031 456.921875 137.503906 453.246094 142.207031 C 436.101562 164.148438 415.171875 182.089844 391.019531 195.515625 C 367.691406 208.484375 342.394531 216.703125 315.8125 219.96875 C 289.226562 223.230469 262.675781 221.363281 236.921875 214.4375 C 210.238281 207.253906 185.589844 194.910156 163.648438 177.765625 C 158.914062 174.09375 158.078125 167.296875 161.753906 162.597656 Z M 161.753906 162.597656 " fill-opacity="1" fill-rule="nonzero"/></g></g></g><g clip-path="url(#e80608bad8)"><g clip-path="url(#3bba21e011)"><g transform="matrix(1, 0, 0, 1, 202, 83)"><g clip-path="url(#5c4d842558)"><g clip-path="url(#4f6f0c6042)"><g clip-path="url(#8b354c834e)"><path fill="#006636" d="M 0.0507812 0.238281 L 74.929688 0.238281 L 74.929688 239.789062 L 0.0507812 239.789062 Z M 0.0507812 0.238281 " fill-opacity="1" fill-rule="nonzero"/></g></g></g></g></g></g><g clip-path="url(#311065de62)"><g clip-path="url(#599ec94e9e)"><g transform="matrix(1, 0, 0, 1, 232, 98)"><g clip-path="url(#4f79ec965d)"><g clip-path="url(#41097b0160)"><g clip-path="url(#06521d7fa2)"><path fill="#ff4500" d="M 0.00390625 0.214844 L 44.929688 0.214844 L 44.929688 45.140625 L 0.00390625 45.140625 Z M 0.00390625 0.214844 " fill-opacity="1" fill-rule="nonzero"/></g></g></g></g><path stroke-linecap="butt" transform="matrix(0.748782, 0, 0, 0.748782, 232.003148, 98.213675)" fill="none" stroke-linejoin="miter" d="M 29.997624 0.00156126 C 13.429061 0.00156126 0.00101244 13.42961 0.00101244 29.998173 C 0.00101244 46.566736 13.429061 60.000001 29.997624 60.000001 C 46.566187 60.000001 59.999452 46.566736 59.999452 29.998173 C 59.999452 13.42961 46.566187 0.00156126 29.997624 0.00156126 Z M 29.997624 0.00156126 " stroke="#ffffff" stroke-width="16" stroke-opacity="1" stroke-miterlimit="4"/></g></g><g clip-path="url(#ea23c69c5a)"><g clip-path="url(#9ded518f9a)"><g transform="matrix(1, 0, 0, 1, 326, 53)"><g clip-path="url(#a1b00c1bf4)"><g clip-path="url(#b04b1e0739)"><g clip-path="url(#ee5638a02d)"><path fill="#006636" d="M 0.847656 0.285156 L 75.726562 0.285156 L 75.726562 299.800781 L 0.847656 299.800781 Z M 0.847656 0.285156 " fill-opacity="1" fill-rule="nonzero"/></g></g></g></g></g></g><g clip-path="url(#7549c442a0)"><g clip-path="url(#d2c475939d)"><g transform="matrix(1, 0, 0, 1, 326, 68)"><g clip-path="url(#1a7f728adc)"><g clip-path="url(#ee2d943016)"><g clip-path="url(#17553702eb)"><path fill="#ff4500" d="M 0.847656 0.261719 L 45.777344 0.261719 L 45.777344 45.1875 L 0.847656 45.1875 Z M 0.847656 0.261719 " fill-opacity="1" fill-rule="nonzero"/></g></g></g></g><path stroke-linecap="butt" transform="matrix(0.748782, 0, 0, 0.748782, 326.848906, 68.262377)" fill="none" stroke-linejoin="miter" d="M 30.000159 -0.000879175 C 13.431596 -0.000879175 -0.00166967 13.432386 -0.00166967 30.000949 C -0.00166967 46.569512 13.431596 59.997561 30.000159 59.997561 C 46.568722 59.997561 60.001987 46.569512 60.001987 30.000949 C 60.001987 13.432386 46.568722 -0.000879175 30.000159 -0.000879175 Z M 30.000159 -0.000879175 " stroke="#ffffff" stroke-width="16" stroke-opacity="1" stroke-miterlimit="4"/></g></g><g fill="#006636" fill-opacity="1"><g transform="translate(158.831106, 528.688585)"><g><path d="M 22.5 0 L 4.03125 0 L 4.03125 -32.0625 L 22.5 -32.0625 L 22.5 -26.5 L 10.828125 -26.5 L 10.828125 -19.453125 L 21.6875 -19.453125 L 21.6875 -13.890625 L 10.828125 -13.890625 L 10.828125 -5.609375 L 22.5 -5.609375 Z M 22.5 0 "/></g></g><g transform="translate(183.992828, 528.688585)"><g><path d="M 1.34375 -9.296875 L 1.34375 -14.78125 L 13.109375 -14.78125 L 13.109375 -9.296875 Z M 1.34375 -9.296875 "/></g></g><g transform="translate(198.449302, 528.688585)"><g><path d="M 17.65625 -26.875 C 16.351562 -26.875 15.203125 -26.617188 14.203125 -26.109375 C 13.203125 -25.609375 12.359375 -24.878906 11.671875 -23.921875 C 10.992188 -22.972656 10.476562 -21.828125 10.125 -20.484375 C 9.78125 -19.140625 9.609375 -17.628906 9.609375 -15.953125 C 9.609375 -13.679688 9.890625 -11.742188 10.453125 -10.140625 C 11.015625 -8.546875 11.882812 -7.328125 13.0625 -6.484375 C 14.25 -5.640625 15.78125 -5.21875 17.65625 -5.21875 C 18.957031 -5.21875 20.257812 -5.363281 21.5625 -5.65625 C 22.875 -5.945312 24.300781 -6.363281 25.84375 -6.90625 L 25.84375 -1.203125 C 24.425781 -0.617188 23.03125 -0.203125 21.65625 0.046875 C 20.28125 0.304688 18.734375 0.4375 17.015625 0.4375 C 13.710938 0.4375 11 -0.242188 8.875 -1.609375 C 6.75 -2.972656 5.171875 -4.890625 4.140625 -7.359375 C 3.117188 -9.828125 2.609375 -12.703125 2.609375 -15.984375 C 2.609375 -18.410156 2.9375 -20.632812 3.59375 -22.65625 C 4.25 -24.675781 5.210938 -26.421875 6.484375 -27.890625 C 7.765625 -29.367188 9.335938 -30.507812 11.203125 -31.3125 C 13.078125 -32.125 15.226562 -32.53125 17.65625 -32.53125 C 19.25 -32.53125 20.847656 -32.328125 22.453125 -31.921875 C 24.054688 -31.523438 25.585938 -30.972656 27.046875 -30.265625 L 24.859375 -24.734375 C 23.648438 -25.304688 22.4375 -25.804688 21.21875 -26.234375 C 20.007812 -26.660156 18.820312 -26.875 17.65625 -26.875 Z M 17.65625 -26.875 "/></g></g><g transform="translate(227.077068, 528.688585)"><g><path d="M 33.140625 -16.078125 C 33.140625 -13.609375 32.832031 -11.359375 32.21875 -9.328125 C 31.601562 -7.304688 30.671875 -5.5625 29.421875 -4.09375 C 28.171875 -2.632812 26.585938 -1.515625 24.671875 -0.734375 C 22.753906 0.046875 20.488281 0.4375 17.875 0.4375 C 15.257812 0.4375 12.992188 0.046875 11.078125 -0.734375 C 9.160156 -1.515625 7.578125 -2.632812 6.328125 -4.09375 C 5.078125 -5.5625 4.144531 -7.3125 3.53125 -9.34375 C 2.914062 -11.375 2.609375 -13.632812 2.609375 -16.125 C 2.609375 -19.4375 3.148438 -22.328125 4.234375 -24.796875 C 5.328125 -27.265625 7.003906 -29.175781 9.265625 -30.53125 C 11.535156 -31.894531 14.421875 -32.578125 17.921875 -32.578125 C 21.398438 -32.578125 24.257812 -31.894531 26.5 -30.53125 C 28.75 -29.175781 30.414062 -27.257812 31.5 -24.78125 C 32.59375 -22.3125 33.140625 -19.410156 33.140625 -16.078125 Z M 9.734375 -16.078125 C 9.734375 -13.835938 10.015625 -11.910156 10.578125 -10.296875 C 11.140625 -8.679688 12.019531 -7.4375 13.21875 -6.5625 C 14.425781 -5.695312 15.976562 -5.265625 17.875 -5.265625 C 19.800781 -5.265625 21.363281 -5.695312 22.5625 -6.5625 C 23.769531 -7.4375 24.644531 -8.679688 25.1875 -10.296875 C 25.738281 -11.910156 26.015625 -13.835938 26.015625 -16.078125 C 26.015625 -19.441406 25.382812 -22.085938 24.125 -24.015625 C 22.863281 -25.941406 20.796875 -26.90625 17.921875 -26.90625 C 16.003906 -26.90625 14.441406 -26.46875 13.234375 -25.59375 C 12.023438 -24.726562 11.140625 -23.488281 10.578125 -21.875 C 10.015625 -20.257812 9.734375 -18.328125 9.734375 -16.078125 Z M 9.734375 -16.078125 "/></g></g><g transform="translate(262.834354, 528.688585)"><g><path d="M 17.609375 0 L 9.890625 -25.15625 L 9.6875 -25.15625 C 9.71875 -24.5625 9.765625 -23.660156 9.828125 -22.453125 C 9.898438 -21.242188 9.960938 -19.957031 10.015625 -18.59375 C 10.078125 -17.238281 10.109375 -16.015625 10.109375 -14.921875 L 10.109375 0 L 4.03125 0 L 4.03125 -32.0625 L 13.296875 -32.0625 L 20.875 -7.546875 L 21.015625 -7.546875 L 29.0625 -32.0625 L 38.3125 -32.0625 L 38.3125 0 L 31.984375 0 L 31.984375 -15.171875 C 31.984375 -16.179688 32 -17.34375 32.03125 -18.65625 C 32.070312 -19.976562 32.117188 -21.234375 32.171875 -22.421875 C 32.234375 -23.617188 32.28125 -24.515625 32.3125 -25.109375 L 32.109375 -25.109375 L 23.84375 0 Z M 17.609375 0 "/></g></g><g transform="translate(305.194673, 528.688585)"><g><path d="M 17.609375 0 L 9.890625 -25.15625 L 9.6875 -25.15625 C 9.71875 -24.5625 9.765625 -23.660156 9.828125 -22.453125 C 9.898438 -21.242188 9.960938 -19.957031 10.015625 -18.59375 C 10.078125 -17.238281 10.109375 -16.015625 10.109375 -14.921875 L 10.109375 0 L 4.03125 0 L 4.03125 -32.0625 L 13.296875 -32.0625 L 20.875 -7.546875 L 21.015625 -7.546875 L 29.0625 -32.0625 L 38.3125 -32.0625 L 38.3125 0 L 31.984375 0 L 31.984375 -15.171875 C 31.984375 -16.179688 32 -17.34375 32.03125 -18.65625 C 32.070312 -19.976562 32.117188 -21.234375 32.171875 -22.421875 C 32.234375 -23.617188 32.28125 -24.515625 32.3125 -25.109375 L 32.109375 -25.109375 L 23.84375 0 Z M 17.609375 0 "/></g></g><g transform="translate(347.554992, 528.688585)"><g><path d="M 22.5 0 L 4.03125 0 L 4.03125 -32.0625 L 22.5 -32.0625 L 22.5 -26.5 L 10.828125 -26.5 L 10.828125 -19.453125 L 21.6875 -19.453125 L 21.6875 -13.890625 L 10.828125 -13.890625 L 10.828125 -5.609375 L 22.5 -5.609375 Z M 22.5 0 "/></g></g><g transform="translate(372.716715, 528.688585)"><g><path d="M 13.375 -32.0625 C 16.289062 -32.0625 18.691406 -31.710938 20.578125 -31.015625 C 22.472656 -30.316406 23.878906 -29.253906 24.796875 -27.828125 C 25.722656 -26.410156 26.1875 -24.625 26.1875 -22.46875 C 26.1875 -21 25.90625 -19.71875 25.34375 -18.625 C 24.789062 -17.53125 24.0625 -16.601562 23.15625 -15.84375 C 22.25 -15.082031 21.269531 -14.457031 20.21875 -13.96875 L 29.65625 0 L 22.109375 0 L 14.453125 -12.3125 L 10.828125 -12.3125 L 10.828125 0 L 4.03125 0 L 4.03125 -32.0625 Z M 12.890625 -26.5 L 10.828125 -26.5 L 10.828125 -17.828125 L 13.03125 -17.828125 C 15.28125 -17.828125 16.890625 -18.203125 17.859375 -18.953125 C 18.835938 -19.710938 19.328125 -20.820312 19.328125 -22.28125 C 19.328125 -23.800781 18.800781 -24.882812 17.75 -25.53125 C 16.707031 -26.175781 15.085938 -26.5 12.890625 -26.5 Z M 12.890625 -26.5 "/></g></g><g transform="translate(402.375519, 528.688585)"><g><path d="M 17.65625 -26.875 C 16.351562 -26.875 15.203125 -26.617188 14.203125 -26.109375 C 13.203125 -25.609375 12.359375 -24.878906 11.671875 -23.921875 C 10.992188 -22.972656 10.476562 -21.828125 10.125 -20.484375 C 9.78125 -19.140625 9.609375 -17.628906 9.609375 -15.953125 C 9.609375 -13.679688 9.890625 -11.742188 10.453125 -10.140625 C 11.015625 -8.546875 11.882812 -7.328125 13.0625 -6.484375 C 14.25 -5.640625 15.78125 -5.21875 17.65625 -5.21875 C 18.957031 -5.21875 20.257812 -5.363281 21.5625 -5.65625 C 22.875 -5.945312 24.300781 -6.363281 25.84375 -6.90625 L 25.84375 -1.203125 C 24.425781 -0.617188 23.03125 -0.203125 21.65625 0.046875 C 20.28125 0.304688 18.734375 0.4375 17.015625 0.4375 C 13.710938 0.4375 11 -0.242188 8.875 -1.609375 C 6.75 -2.972656 5.171875 -4.890625 4.140625 -7.359375 C 3.117188 -9.828125 2.609375 -12.703125 2.609375 -15.984375 C 2.609375 -18.410156 2.9375 -20.632812 3.59375 -22.65625 C 4.25 -24.675781 5.210938 -26.421875 6.484375 -27.890625 C 7.765625 -29.367188 9.335938 -30.507812 11.203125 -31.3125 C 13.078125 -32.125 15.226562 -32.53125 17.65625 -32.53125 C 19.25 -32.53125 20.847656 -32.328125 22.453125 -31.921875 C 24.054688 -31.523438 25.585938 -30.972656 27.046875 -30.265625 L 24.859375 -24.734375 C 23.648438 -25.304688 22.4375 -25.804688 21.21875 -26.234375 C 20.007812 -26.660156 18.820312 -26.875 17.65625 -26.875 Z M 17.65625 -26.875 "/></g></g><g transform="translate(431.003285, 528.688585)"><g><path d="M 22.5 0 L 4.03125 0 L 4.03125 -32.0625 L 22.5 -32.0625 L 22.5 -26.5 L 10.828125 -26.5 L 10.828125 -19.453125 L 21.6875 -19.453125 L 21.6875 -13.890625 L 10.828125 -13.890625 L 10.828125 -5.609375 L 22.5 -5.609375 Z M 22.5 0 "/></g></g></g><g fill="#ff4500" fill-opacity="1"><g transform="translate(87.234861, 464.643627)"><g><path d="M 70.296875 -0.46875 C 69.453125 -0.226562 68.117188 0.00390625 66.296875 0.234375 C 64.484375 0.460938 62.691406 0.578125 60.921875 0.578125 C 59.140625 0.578125 57.570312 0.441406 56.21875 0.171875 C 54.875 -0.0976562 53.738281 -0.578125 52.8125 -1.265625 C 51.882812 -1.960938 51.1875 -2.925781 50.71875 -4.15625 C 50.257812 -5.394531 50.03125 -7.019531 50.03125 -9.03125 L 50.03125 -27.09375 L 27.796875 -27.09375 L 27.796875 -0.46875 C 26.941406 -0.226562 25.609375 0.00390625 23.796875 0.234375 C 21.984375 0.460938 20.191406 0.578125 18.421875 0.578125 C 16.640625 0.578125 15.070312 0.441406 13.71875 0.171875 C 12.375 -0.0976562 11.238281 -0.578125 10.3125 -1.265625 C 9.382812 -1.960938 8.6875 -2.925781 8.21875 -4.15625 C 7.757812 -5.394531 7.53125 -7.019531 7.53125 -9.03125 L 7.53125 -70.1875 C 8.375 -70.332031 9.722656 -70.539062 11.578125 -70.8125 C 13.429688 -71.082031 15.207031 -71.21875 16.90625 -71.21875 C 18.6875 -71.21875 20.25 -71.082031 21.59375 -70.8125 C 22.945312 -70.539062 24.085938 -70.054688 25.015625 -69.359375 C 25.941406 -68.671875 26.632812 -67.707031 27.09375 -66.46875 C 27.5625 -65.238281 27.796875 -63.617188 27.796875 -61.609375 L 27.796875 -43.078125 L 50.03125 -43.078125 L 50.03125 -70.1875 C 50.882812 -70.332031 52.234375 -70.539062 54.078125 -70.8125 C 55.929688 -71.082031 57.707031 -71.21875 59.40625 -71.21875 C 61.1875 -71.21875 62.75 -71.082031 64.09375 -70.8125 C 65.445312 -70.539062 66.585938 -70.054688 67.515625 -69.359375 C 68.441406 -68.671875 69.132812 -67.707031 69.59375 -66.46875 C 70.0625 -65.238281 70.296875 -63.617188 70.296875 -61.609375 Z M 70.296875 -0.46875 "/></g></g></g><g fill="#ff4500" fill-opacity="1"><g transform="translate(165.055037, 464.643627)"><g><path d="M 22.46875 -68.09375 C 23.78125 -68.863281 25.765625 -69.597656 28.421875 -70.296875 C 31.085938 -70.992188 33.773438 -71.34375 36.484375 -71.34375 C 40.335938 -71.34375 43.75 -70.78125 46.71875 -69.65625 C 49.695312 -68.539062 51.613281 -66.785156 52.46875 -64.390625 C 53.851562 -60.378906 55.351562 -55.707031 56.96875 -50.375 C 58.59375 -45.050781 60.21875 -39.550781 61.84375 -33.875 C 63.46875 -28.195312 65.050781 -22.597656 66.59375 -17.078125 C 68.132812 -11.554688 69.484375 -6.675781 70.640625 -2.4375 C 69.710938 -1.351562 68.320312 -0.484375 66.46875 0.171875 C 64.625 0.828125 62.425781 1.15625 59.875 1.15625 C 58.019531 1.15625 56.457031 1 55.1875 0.6875 C 53.914062 0.382812 52.875 -0.0703125 52.0625 -0.6875 C 51.25 -1.3125 50.59375 -2.125 50.09375 -3.125 C 49.59375 -4.125 49.144531 -5.28125 48.75 -6.59375 L 46.671875 -14.59375 L 25.703125 -14.59375 C 25.085938 -12.28125 24.472656 -9.882812 23.859375 -7.40625 C 23.242188 -4.9375 22.625 -2.546875 22 -0.234375 C 20.925781 0.148438 19.789062 0.476562 18.59375 0.75 C 17.394531 1.019531 15.945312 1.15625 14.25 1.15625 C 10.3125 1.15625 7.394531 0.484375 5.5 -0.859375 C 3.601562 -2.210938 2.65625 -4.085938 2.65625 -6.484375 C 2.65625 -7.566406 2.8125 -8.644531 3.125 -9.71875 C 3.4375 -10.800781 3.785156 -12.078125 4.171875 -13.546875 C 4.710938 -15.628906 5.460938 -18.210938 6.421875 -21.296875 C 7.390625 -24.390625 8.453125 -27.734375 9.609375 -31.328125 C 10.765625 -34.921875 12 -38.609375 13.3125 -42.390625 C 14.625 -46.171875 15.859375 -49.738281 17.015625 -53.09375 C 18.179688 -56.457031 19.242188 -59.453125 20.203125 -62.078125 C 21.171875 -64.703125 21.925781 -66.707031 22.46875 -68.09375 Z M 36.359375 -53.15625 C 35.285156 -49.914062 34.070312 -46.304688 32.71875 -42.328125 C 31.363281 -38.347656 30.144531 -34.316406 29.0625 -30.234375 L 43.4375 -30.234375 C 42.351562 -34.398438 41.25 -38.46875 40.125 -42.4375 C 39.007812 -46.414062 37.988281 -49.988281 37.0625 -53.15625 Z M 36.359375 -53.15625 "/></g></g></g><g fill="#ff4500" fill-opacity="1"><g transform="translate(237.664037, 464.643627)"><g><path d="M 4.28125 -53.96875 C 3.738281 -54.820312 3.234375 -55.976562 2.765625 -57.4375 C 2.304688 -58.90625 2.078125 -60.453125 2.078125 -62.078125 C 2.078125 -65.085938 2.753906 -67.25 4.109375 -68.5625 C 5.460938 -69.875 7.21875 -70.53125 9.375 -70.53125 L 59.875 -70.53125 C 60.414062 -69.675781 60.914062 -68.515625 61.375 -67.046875 C 61.84375 -65.585938 62.078125 -64.046875 62.078125 -62.421875 C 62.078125 -59.410156 61.398438 -57.25 60.046875 -55.9375 C 58.691406 -54.625 56.9375 -53.96875 54.78125 -53.96875 L 41.921875 -53.96875 L 41.921875 -0.46875 C 41.078125 -0.226562 39.742188 0.00390625 37.921875 0.234375 C 36.109375 0.460938 34.316406 0.578125 32.546875 0.578125 C 30.765625 0.578125 29.195312 0.441406 27.84375 0.171875 C 26.5 -0.0976562 25.363281 -0.578125 24.4375 -1.265625 C 23.507812 -1.960938 22.8125 -2.925781 22.34375 -4.15625 C 21.882812 -5.394531 21.65625 -7.019531 21.65625 -9.03125 L 21.65625 -53.96875 Z M 4.28125 -53.96875 "/></g></g></g><g fill="#ff4500" fill-opacity="1"><g transform="translate(302.050964, 464.643627)"><g><path d="M 70.296875 -0.46875 C 69.453125 -0.226562 68.117188 0.00390625 66.296875 0.234375 C 64.484375 0.460938 62.691406 0.578125 60.921875 0.578125 C 59.140625 0.578125 57.570312 0.441406 56.21875 0.171875 C 54.875 -0.0976562 53.738281 -0.578125 52.8125 -1.265625 C 51.882812 -1.960938 51.1875 -2.925781 50.71875 -4.15625 C 50.257812 -5.394531 50.03125 -7.019531 50.03125 -9.03125 L 50.03125 -27.09375 L 27.796875 -27.09375 L 27.796875 -0.46875 C 26.941406 -0.226562 25.609375 0.00390625 23.796875 0.234375 C 21.984375 0.460938 20.191406 0.578125 18.421875 0.578125 C 16.640625 0.578125 15.070312 0.441406 13.71875 0.171875 C 12.375 -0.0976562 11.238281 -0.578125 10.3125 -1.265625 C 9.382812 -1.960938 8.6875 -2.925781 8.21875 -4.15625 C 7.757812 -5.394531 7.53125 -7.019531 7.53125 -9.03125 L 7.53125 -70.1875 C 8.375 -70.332031 9.722656 -70.539062 11.578125 -70.8125 C 13.429688 -71.082031 15.207031 -71.21875 16.90625 -71.21875 C 18.6875 -71.21875 20.25 -71.082031 21.59375 -70.8125 C 22.945312 -70.539062 24.085938 -70.054688 25.015625 -69.359375 C 25.941406 -68.671875 26.632812 -67.707031 27.09375 -66.46875 C 27.5625 -65.238281 27.796875 -63.617188 27.796875 -61.609375 L 27.796875 -43.078125 L 50.03125 -43.078125 L 50.03125 -70.1875 C 50.882812 -70.332031 52.234375 -70.539062 54.078125 -70.8125 C 55.929688 -71.082031 57.707031 -71.21875 59.40625 -71.21875 C 61.1875 -71.21875 62.75 -71.082031 64.09375 -70.8125 C 65.445312 -70.539062 66.585938 -70.054688 67.515625 -69.359375 C 68.441406 -68.671875 69.132812 -67.707031 69.59375 -66.46875 C 70.0625 -65.238281 70.296875 -63.617188 70.296875 -61.609375 Z M 70.296875 -0.46875 "/></g></g></g><g fill="#ff4500" fill-opacity="1"><g transform="translate(379.871141, 464.643627)"><g><path d="M 44.359375 -0.46875 C 43.503906 -0.226562 42.1875 0.00390625 40.40625 0.234375 C 38.632812 0.460938 36.898438 0.578125 35.203125 0.578125 C 31.648438 0.578125 28.984375 -0.0195312 27.203125 -1.21875 C 25.429688 -2.414062 24.546875 -4.941406 24.546875 -8.796875 L 24.546875 -24.4375 C 22.617188 -27.289062 20.535156 -30.453125 18.296875 -33.921875 C 16.054688 -37.398438 13.851562 -40.953125 11.6875 -44.578125 C 9.53125 -48.210938 7.523438 -51.785156 5.671875 -55.296875 C 3.816406 -58.804688 2.3125 -62.03125 1.15625 -64.96875 C 2.15625 -66.363281 3.523438 -67.640625 5.265625 -68.796875 C 7.003906 -69.953125 9.148438 -70.53125 11.703125 -70.53125 C 14.710938 -70.53125 17.160156 -69.910156 19.046875 -68.671875 C 20.941406 -67.441406 22.738281 -65.128906 24.4375 -61.734375 L 34.046875 -42.390625 L 34.75 -42.390625 C 35.820312 -44.785156 36.765625 -46.96875 37.578125 -48.9375 C 38.390625 -50.90625 39.179688 -52.875 39.953125 -54.84375 C 40.722656 -56.8125 41.53125 -58.851562 42.375 -60.96875 C 43.226562 -63.09375 44.195312 -65.546875 45.28125 -68.328125 C 46.675781 -69.023438 48.222656 -69.566406 49.921875 -69.953125 C 51.617188 -70.335938 53.238281 -70.53125 54.78125 -70.53125 C 57.476562 -70.53125 59.769531 -69.816406 61.65625 -68.390625 C 63.550781 -66.960938 64.5 -64.816406 64.5 -61.953125 C 64.5 -61.023438 64.304688 -59.90625 63.921875 -58.59375 C 63.535156 -57.28125 62.648438 -55.289062 61.265625 -52.625 C 59.878906 -49.96875 57.851562 -46.359375 55.1875 -41.796875 C 52.519531 -37.242188 48.910156 -31.300781 44.359375 -23.96875 Z M 44.359375 -0.46875 "/></g></g></g><g fill="#ff4500" fill-opacity="1"><g transform="translate(446.342538, 464.643627)"><g><path d="M 4.046875 -35.203125 C 4.046875 -41.222656 4.992188 -46.550781 6.890625 -51.1875 C 8.785156 -55.820312 11.375 -59.703125 14.65625 -62.828125 C 17.9375 -65.953125 21.796875 -68.328125 26.234375 -69.953125 C 30.671875 -71.578125 35.476562 -72.390625 40.65625 -72.390625 C 45.820312 -72.390625 50.625 -71.578125 55.0625 -69.953125 C 59.507812 -68.328125 63.390625 -65.953125 66.703125 -62.828125 C 70.023438 -59.703125 72.628906 -55.820312 74.515625 -51.1875 C 76.410156 -46.550781 77.359375 -41.222656 77.359375 -35.203125 C 77.359375 -29.179688 76.429688 -23.832031 74.578125 -19.15625 C 72.722656 -14.488281 70.15625 -10.59375 66.875 -7.46875 C 63.59375 -4.34375 59.710938 -1.96875 55.234375 -0.34375 C 50.765625 1.269531 45.90625 2.078125 40.65625 2.078125 C 35.40625 2.078125 30.539062 1.25 26.0625 -0.40625 C 21.582031 -2.0625 17.71875 -4.472656 14.46875 -7.640625 C 11.226562 -10.804688 8.679688 -14.707031 6.828125 -19.34375 C 4.972656 -23.976562 4.046875 -29.265625 4.046875 -35.203125 Z M 24.90625 -35.203125 C 24.90625 -28.179688 26.332031 -22.929688 29.1875 -19.453125 C 32.039062 -15.984375 35.863281 -14.25 40.65625 -14.25 C 45.519531 -14.25 49.378906 -15.984375 52.234375 -19.453125 C 55.085938 -22.929688 56.515625 -28.179688 56.515625 -35.203125 C 56.515625 -42.148438 55.101562 -47.359375 52.28125 -50.828125 C 49.46875 -54.304688 45.628906 -56.046875 40.765625 -56.046875 C 35.972656 -56.046875 32.128906 -54.328125 29.234375 -50.890625 C 26.347656 -47.460938 24.90625 -42.234375 24.90625 -35.203125 Z M 24.90625 -35.203125 "/></g></g></g></svg>