<svg xmlns="http://www.w3.org/2000/svg" xmlns:xlink="http://www.w3.org/1999/xlink" width="1451" zoomAndPan="magnify" viewBox="0 0 1088.25 406.499988" height="542" preserveAspectRatio="xMidYMid meet" version="1.2"><defs><clipPath id="47a68d5188"><path d="M 0.292969 0 L 1087.207031 0 L 1087.207031 406 L 0.292969 406 Z M 0.292969 0 "/></clipPath><clipPath id="5fe706021e"><path d="M 60 124 L 357 124 L 357 222 L 60 222 Z M 60 124 "/></clipPath><clipPath id="72ff8c0659"><path d="M 361.042969 133.742188 L 227.300781 304.921875 L 56.121094 171.183594 L 189.863281 0 Z M 361.042969 133.742188 "/></clipPath><clipPath id="ec2b5731f8"><path d="M 361.042969 133.742188 L 227.300781 304.921875 L 56.121094 171.183594 L 189.863281 0 Z M 361.042969 133.742188 "/></clipPath><clipPath id="32cdc8d76b"><path d="M 103.09375 83.269531 L 178 83.269531 L 178 323 L 103.09375 323 Z M 103.09375 83.269531 "/></clipPath><clipPath id="c7ab22020c"><path d="M 140.546875 83.269531 C 161.230469 83.269531 178 100.039062 178 120.726562 L 178 285.523438 C 178 306.207031 161.230469 322.976562 140.546875 322.976562 C 119.859375 322.976562 103.09375 306.207031 103.09375 285.523438 L 103.09375 120.726562 C 103.09375 100.039062 119.859375 83.269531 140.546875 83.269531 Z M 140.546875 83.269531 "/></clipPath><clipPath id="07e379da74"><path d="M 133.054688 98.253906 L 178 98.253906 L 178 143.195312 L 133.054688 143.195312 Z M 133.054688 98.253906 "/></clipPath><clipPath id="2294657bb8"><path d="M 155.527344 98.253906 C 143.117188 98.253906 133.054688 108.3125 133.054688 120.726562 C 133.054688 133.136719 143.117188 143.195312 155.527344 143.195312 C 167.9375 143.195312 178 133.136719 178 120.726562 C 178 108.3125 167.9375 98.253906 155.527344 98.253906 Z M 155.527344 98.253906 "/></clipPath><clipPath id="bed24ca3fd"><path d="M 227.9375 53.308594 L 302.847656 53.308594 L 302.847656 352.9375 L 227.9375 352.9375 Z M 227.9375 53.308594 "/></clipPath><clipPath id="d50daccac7"><path d="M 265.394531 53.308594 C 286.078125 53.308594 302.847656 70.078125 302.847656 90.761719 L 302.847656 315.484375 C 302.847656 336.171875 286.078125 352.9375 265.394531 352.9375 C 244.707031 352.9375 227.9375 336.171875 227.9375 315.484375 L 227.9375 90.761719 C 227.9375 70.078125 244.707031 53.308594 265.394531 53.308594 Z M 265.394531 53.308594 "/></clipPath><clipPath id="f2d5f3a3fb"><path d="M 227.9375 68.289062 L 272.882812 68.289062 L 272.882812 113.234375 L 227.9375 113.234375 Z M 227.9375 68.289062 "/></clipPath><clipPath id="9663925e96"><path d="M 250.410156 68.289062 C 238 68.289062 227.9375 78.351562 227.9375 90.761719 C 227.9375 103.171875 238 113.234375 250.410156 113.234375 C 262.820312 113.234375 272.882812 103.171875 272.882812 90.761719 C 272.882812 78.351562 262.820312 68.289062 250.410156 68.289062 Z M 250.410156 68.289062 "/></clipPath></defs><g id="c81c721c49"><g clip-rule="nonzero" clip-path="url(#47a68d5188)"><path style=" stroke:none;fill-rule:nonzero;fill:#ffffff;fill-opacity:1;" d="M 0.292969 0 L 1087.207031 0 L 1087.207031 406 L 0.292969 406 Z M 0.292969 0 "/></g><g clip-rule="nonzero" clip-path="url(#5fe706021e)"><g clip-rule="nonzero" clip-path="url(#72ff8c0659)"><g clip-rule="nonzero" clip-path="url(#ec2b5731f8)"><path style=" stroke:none;fill-rule:nonzero;fill:#0a703f;fill-opacity:1;" d="M 62.777344 162.660156 C 66.453125 157.957031 73.253906 157.121094 77.957031 160.796875 C 158.246094 223.527344 274.613281 209.238281 337.34375 128.949219 C 341.019531 124.242188 347.820312 123.410156 352.523438 127.085938 C 357.226562 130.757812 358.0625 137.558594 354.386719 142.261719 C 337.234375 164.214844 316.296875 182.164062 292.136719 195.59375 C 268.796875 208.566406 243.492188 216.789062 216.898438 220.054688 C 190.300781 223.320312 163.742188 221.449219 137.972656 214.519531 C 111.285156 207.335938 86.625 194.984375 64.671875 177.835938 C 59.9375 174.164062 59.101562 167.363281 62.777344 162.660156 Z M 62.777344 162.660156 "/></g></g></g><g clip-rule="nonzero" clip-path="url(#32cdc8d76b)"><g clip-rule="nonzero" clip-path="url(#c7ab22020c)"><path style=" stroke:none;fill-rule:nonzero;fill:#0a703f;fill-opacity:1;" d="M 103.09375 83.269531 L 178 83.269531 L 178 322.917969 L 103.09375 322.917969 Z M 103.09375 83.269531 "/></g></g><g clip-rule="nonzero" clip-path="url(#07e379da74)"><g clip-rule="nonzero" clip-path="url(#2294657bb8)"><path style=" stroke:none;fill-rule:nonzero;fill:#ff6300;fill-opacity:1;" d="M 133.054688 98.253906 L 178 98.253906 L 178 143.195312 L 133.054688 143.195312 Z M 133.054688 98.253906 "/><path style="fill:none;stroke-width:12;stroke-linecap:butt;stroke-linejoin:miter;stroke:#ffffff;stroke-opacity:1;stroke-miterlimit:4;" d="M 29.999449 0.00188209 C 13.432221 0.00188209 -0.000948069 13.429837 -0.000948069 30.002279 C -0.000948069 46.569507 13.432221 59.997462 29.999449 59.997462 C 46.566677 59.997462 59.999847 46.569507 59.999847 30.002279 C 59.999847 13.429837 46.566677 0.00188209 29.999449 0.00188209 Z M 29.999449 0.00188209 " transform="matrix(0.749079,0,0,0.749079,133.055398,98.252496)"/></g></g><g clip-rule="nonzero" clip-path="url(#bed24ca3fd)"><g clip-rule="nonzero" clip-path="url(#d50daccac7)"><path style=" stroke:none;fill-rule:nonzero;fill:#0a703f;fill-opacity:1;" d="M 227.9375 53.308594 L 302.847656 53.308594 L 302.847656 352.9375 L 227.9375 352.9375 Z M 227.9375 53.308594 "/></g></g><g clip-rule="nonzero" clip-path="url(#f2d5f3a3fb)"><g clip-rule="nonzero" clip-path="url(#9663925e96)"><path style=" stroke:none;fill-rule:nonzero;fill:#ff6300;fill-opacity:1;" d="M 227.9375 68.289062 L 272.882812 68.289062 L 272.882812 113.234375 L 227.9375 113.234375 Z M 227.9375 68.289062 "/><path style="fill:none;stroke-width:12;stroke-linecap:butt;stroke-linejoin:miter;stroke:#ffffff;stroke-opacity:1;stroke-miterlimit:4;" d="M 29.998784 -0.000388594 C 13.431556 -0.000388594 -0.00161382 13.432781 -0.00161382 30.000009 C -0.00161382 46.567237 13.431556 60.000406 29.998784 60.000406 C 46.566012 60.000406 59.999181 46.567237 59.999181 30.000009 C 59.999181 13.432781 46.566012 -0.000388594 29.998784 -0.000388594 Z M 29.998784 -0.000388594 " transform="matrix(0.749079,0,0,0.749079,227.938709,68.289354)"/></g></g><g style="fill:#ff6300;fill-opacity:1;"><g transform="translate(427.084846, 197.130868)"><path style="stroke:none" d="M 90.9375 -0.59375 C 89.832031 -0.300781 88.109375 -0.00390625 85.765625 0.296875 C 83.421875 0.597656 81.097656 0.75 78.796875 0.75 C 76.503906 0.75 74.484375 0.570312 72.734375 0.21875 C 70.984375 -0.125 69.507812 -0.742188 68.3125 -1.640625 C 67.113281 -2.546875 66.210938 -3.796875 65.609375 -5.390625 C 65.015625 -6.992188 64.71875 -9.09375 64.71875 -11.6875 L 64.71875 -35.0625 L 35.953125 -35.0625 L 35.953125 -0.59375 C 34.859375 -0.300781 33.132812 -0.00390625 30.78125 0.296875 C 28.4375 0.597656 26.113281 0.75 23.8125 0.75 C 21.519531 0.75 19.5 0.570312 17.75 0.21875 C 16 -0.125 14.523438 -0.742188 13.328125 -1.640625 C 12.128906 -2.546875 11.226562 -3.796875 10.625 -5.390625 C 10.03125 -6.992188 9.734375 -9.09375 9.734375 -11.6875 L 9.734375 -90.78125 C 10.835938 -90.988281 12.585938 -91.265625 14.984375 -91.609375 C 17.378906 -91.960938 19.675781 -92.140625 21.875 -92.140625 C 24.164062 -92.140625 26.1875 -91.960938 27.9375 -91.609375 C 29.6875 -91.265625 31.160156 -90.640625 32.359375 -89.734375 C 33.554688 -88.835938 34.453125 -87.585938 35.046875 -85.984375 C 35.648438 -84.390625 35.953125 -82.296875 35.953125 -79.703125 L 35.953125 -55.734375 L 64.71875 -55.734375 L 64.71875 -90.78125 C 65.8125 -90.988281 67.554688 -91.265625 69.953125 -91.609375 C 72.359375 -91.960938 74.660156 -92.140625 76.859375 -92.140625 C 79.148438 -92.140625 81.171875 -91.960938 82.921875 -91.609375 C 84.671875 -91.265625 86.144531 -90.640625 87.34375 -89.734375 C 88.539062 -88.835938 89.4375 -87.585938 90.03125 -85.984375 C 90.632812 -84.390625 90.9375 -82.296875 90.9375 -79.703125 Z M 90.9375 -0.59375 "/></g></g><g style="fill:#ff6300;fill-opacity:1;"><g transform="translate(527.761036, 197.130868)"><path style="stroke:none" d="M 29.0625 -88.09375 C 30.757812 -89.09375 33.332031 -90.039062 36.78125 -90.9375 C 40.226562 -91.832031 43.695312 -92.28125 47.1875 -92.28125 C 52.1875 -92.28125 56.609375 -91.554688 60.453125 -90.109375 C 64.296875 -88.660156 66.765625 -86.390625 67.859375 -83.296875 C 69.660156 -78.097656 71.609375 -72.050781 73.703125 -65.15625 C 75.804688 -58.269531 77.90625 -51.15625 80 -43.8125 C 82.09375 -36.476562 84.140625 -29.238281 86.140625 -22.09375 C 88.140625 -14.957031 89.890625 -8.640625 91.390625 -3.140625 C 90.191406 -1.742188 88.390625 -0.625 85.984375 0.21875 C 83.585938 1.070312 80.742188 1.5 77.453125 1.5 C 75.054688 1.5 73.03125 1.296875 71.375 0.890625 C 69.726562 0.492188 68.378906 -0.0976562 67.328125 -0.890625 C 66.285156 -1.691406 65.4375 -2.742188 64.78125 -4.046875 C 64.132812 -5.347656 63.566406 -6.847656 63.078125 -8.546875 L 60.375 -18.875 L 33.265625 -18.875 C 32.460938 -15.875 31.660156 -12.773438 30.859375 -9.578125 C 30.054688 -6.390625 29.257812 -3.296875 28.46875 -0.296875 C 27.0625 0.203125 25.582031 0.625 24.03125 0.96875 C 22.488281 1.320312 20.617188 1.5 18.421875 1.5 C 13.328125 1.5 9.554688 0.625 7.109375 -1.125 C 4.671875 -2.875 3.453125 -5.296875 3.453125 -8.390625 C 3.453125 -9.785156 3.648438 -11.179688 4.046875 -12.578125 C 4.441406 -13.984375 4.890625 -15.632812 5.390625 -17.53125 C 6.085938 -20.226562 7.0625 -23.570312 8.3125 -27.5625 C 9.5625 -31.5625 10.9375 -35.878906 12.4375 -40.515625 C 13.9375 -45.160156 15.535156 -49.929688 17.234375 -54.828125 C 18.929688 -59.722656 20.523438 -64.34375 22.015625 -68.6875 C 23.515625 -73.03125 24.890625 -76.898438 26.140625 -80.296875 C 27.390625 -83.691406 28.363281 -86.289062 29.0625 -88.09375 Z M 47.046875 -68.765625 C 45.640625 -64.566406 44.0625 -59.894531 42.3125 -54.75 C 40.570312 -49.613281 39.003906 -44.394531 37.609375 -39.09375 L 56.171875 -39.09375 C 54.773438 -44.488281 53.351562 -49.757812 51.90625 -54.90625 C 50.457031 -60.050781 49.132812 -64.671875 47.9375 -68.765625 Z M 47.046875 -68.765625 "/></g></g><g style="fill:#ff6300;fill-opacity:1;"><g transform="translate(621.695495, 197.130868)"><path style="stroke:none" d="M 5.546875 -69.8125 C 4.847656 -70.90625 4.195312 -72.398438 3.59375 -74.296875 C 3 -76.203125 2.703125 -78.203125 2.703125 -80.296875 C 2.703125 -84.191406 3.570312 -86.988281 5.3125 -88.6875 C 7.0625 -90.382812 9.335938 -91.234375 12.140625 -91.234375 L 77.453125 -91.234375 C 78.148438 -90.140625 78.796875 -88.640625 79.390625 -86.734375 C 79.992188 -84.835938 80.296875 -82.84375 80.296875 -80.75 C 80.296875 -76.851562 79.421875 -74.054688 77.671875 -72.359375 C 75.929688 -70.660156 73.660156 -69.8125 70.859375 -69.8125 L 54.234375 -69.8125 L 54.234375 -0.59375 C 53.128906 -0.300781 51.40625 -0.00390625 49.0625 0.296875 C 46.71875 0.597656 44.394531 0.75 42.09375 0.75 C 39.800781 0.75 37.78125 0.570312 36.03125 0.21875 C 34.28125 -0.125 32.804688 -0.742188 31.609375 -1.640625 C 30.410156 -2.546875 29.507812 -3.796875 28.90625 -5.390625 C 28.3125 -6.992188 28.015625 -9.09375 28.015625 -11.6875 L 28.015625 -69.8125 Z M 5.546875 -69.8125 "/></g></g><g style="fill:#ff6300;fill-opacity:1;"><g transform="translate(704.993064, 197.130868)"><path style="stroke:none" d="M 90.9375 -0.59375 C 89.832031 -0.300781 88.109375 -0.00390625 85.765625 0.296875 C 83.421875 0.597656 81.097656 0.75 78.796875 0.75 C 76.503906 0.75 74.484375 0.570312 72.734375 0.21875 C 70.984375 -0.125 69.507812 -0.742188 68.3125 -1.640625 C 67.113281 -2.546875 66.210938 -3.796875 65.609375 -5.390625 C 65.015625 -6.992188 64.71875 -9.09375 64.71875 -11.6875 L 64.71875 -35.0625 L 35.953125 -35.0625 L 35.953125 -0.59375 C 34.859375 -0.300781 33.132812 -0.00390625 30.78125 0.296875 C 28.4375 0.597656 26.113281 0.75 23.8125 0.75 C 21.519531 0.75 19.5 0.570312 17.75 0.21875 C 16 -0.125 14.523438 -0.742188 13.328125 -1.640625 C 12.128906 -2.546875 11.226562 -3.796875 10.625 -5.390625 C 10.03125 -6.992188 9.734375 -9.09375 9.734375 -11.6875 L 9.734375 -90.78125 C 10.835938 -90.988281 12.585938 -91.265625 14.984375 -91.609375 C 17.378906 -91.960938 19.675781 -92.140625 21.875 -92.140625 C 24.164062 -92.140625 26.1875 -91.960938 27.9375 -91.609375 C 29.6875 -91.265625 31.160156 -90.640625 32.359375 -89.734375 C 33.554688 -88.835938 34.453125 -87.585938 35.046875 -85.984375 C 35.648438 -84.390625 35.953125 -82.296875 35.953125 -79.703125 L 35.953125 -55.734375 L 64.71875 -55.734375 L 64.71875 -90.78125 C 65.8125 -90.988281 67.554688 -91.265625 69.953125 -91.609375 C 72.359375 -91.960938 74.660156 -92.140625 76.859375 -92.140625 C 79.148438 -92.140625 81.171875 -91.960938 82.921875 -91.609375 C 84.671875 -91.265625 86.144531 -90.640625 87.34375 -89.734375 C 88.539062 -88.835938 89.4375 -87.585938 90.03125 -85.984375 C 90.632812 -84.390625 90.9375 -82.296875 90.9375 -79.703125 Z M 90.9375 -0.59375 "/></g></g><g style="fill:#ff6300;fill-opacity:1;"><g transform="translate(805.669265, 197.130868)"><path style="stroke:none" d="M 57.375 -0.59375 C 56.28125 -0.300781 54.582031 -0.00390625 52.28125 0.296875 C 49.988281 0.597656 47.742188 0.75 45.546875 0.75 C 40.953125 0.75 37.503906 -0.0195312 35.203125 -1.5625 C 32.910156 -3.113281 31.765625 -6.390625 31.765625 -11.390625 L 31.765625 -31.609375 C 29.265625 -35.304688 26.566406 -39.398438 23.671875 -43.890625 C 20.773438 -48.390625 17.925781 -52.984375 15.125 -57.671875 C 12.332031 -62.367188 9.738281 -66.988281 7.34375 -71.53125 C 4.945312 -76.082031 3 -80.253906 1.5 -84.046875 C 2.800781 -85.835938 4.570312 -87.484375 6.8125 -88.984375 C 9.0625 -90.484375 11.832031 -91.234375 15.125 -91.234375 C 19.019531 -91.234375 22.191406 -90.429688 24.640625 -88.828125 C 27.085938 -87.234375 29.410156 -84.238281 31.609375 -79.84375 L 44.046875 -54.828125 L 44.9375 -54.828125 C 46.34375 -57.921875 47.566406 -60.738281 48.609375 -63.28125 C 49.660156 -65.832031 50.6875 -68.378906 51.6875 -70.921875 C 52.6875 -73.472656 53.734375 -76.125 54.828125 -78.875 C 55.929688 -81.625 57.179688 -84.796875 58.578125 -88.390625 C 60.367188 -89.285156 62.363281 -89.984375 64.5625 -90.484375 C 66.757812 -90.984375 68.859375 -91.234375 70.859375 -91.234375 C 74.359375 -91.234375 77.332031 -90.304688 79.78125 -88.453125 C 82.226562 -86.609375 83.453125 -83.84375 83.453125 -80.15625 C 83.453125 -78.957031 83.203125 -77.507812 82.703125 -75.8125 C 82.203125 -74.113281 81.050781 -71.539062 79.25 -68.09375 C 77.445312 -64.644531 74.820312 -59.972656 71.375 -54.078125 C 67.9375 -48.191406 63.269531 -40.503906 57.375 -31.015625 Z M 57.375 -0.59375 "/></g></g><g style="fill:#ff6300;fill-opacity:1;"><g transform="translate(891.663522, 197.130868)"><path style="stroke:none" d="M 5.25 -45.546875 C 5.25 -53.335938 6.46875 -60.226562 8.90625 -66.21875 C 11.351562 -72.207031 14.695312 -77.222656 18.9375 -81.265625 C 23.1875 -85.316406 28.179688 -88.390625 33.921875 -90.484375 C 39.671875 -92.578125 45.890625 -93.625 52.578125 -93.625 C 59.273438 -93.625 65.492188 -92.578125 71.234375 -90.484375 C 76.972656 -88.390625 81.988281 -85.316406 86.28125 -81.265625 C 90.582031 -77.222656 93.957031 -72.207031 96.40625 -66.21875 C 98.851562 -60.226562 100.078125 -53.335938 100.078125 -45.546875 C 100.078125 -37.753906 98.878906 -30.835938 96.484375 -24.796875 C 94.085938 -18.753906 90.765625 -13.707031 86.515625 -9.65625 C 82.273438 -5.613281 77.253906 -2.539062 71.453125 -0.4375 C 65.660156 1.65625 59.367188 2.703125 52.578125 2.703125 C 45.785156 2.703125 39.492188 1.628906 33.703125 -0.515625 C 27.910156 -2.671875 22.914062 -5.796875 18.71875 -9.890625 C 14.53125 -13.984375 11.238281 -19.023438 8.84375 -25.015625 C 6.445312 -31.003906 5.25 -37.847656 5.25 -45.546875 Z M 32.203125 -45.546875 C 32.203125 -36.453125 34.050781 -29.65625 37.75 -25.15625 C 41.445312 -20.664062 46.390625 -18.421875 52.578125 -18.421875 C 58.867188 -18.421875 63.863281 -20.664062 67.5625 -25.15625 C 71.257812 -29.65625 73.109375 -36.453125 73.109375 -45.546875 C 73.109375 -54.535156 71.285156 -61.273438 67.640625 -65.765625 C 63.992188 -70.265625 59.023438 -72.515625 52.734375 -72.515625 C 46.546875 -72.515625 41.578125 -70.289062 37.828125 -65.84375 C 34.078125 -61.394531 32.203125 -54.628906 32.203125 -45.546875 Z M 32.203125 -45.546875 "/></g></g><g style="fill:#0a703f;fill-opacity:1;"><g transform="translate(432.328396, 275.809383)"><path style="stroke:none" d="M 17.703125 -28.59375 C 15.972656 -28.59375 14.414062 -28.296875 13.03125 -27.703125 C 11.65625 -27.109375 10.484375 -26.25 9.515625 -25.125 C 8.546875 -24.007812 7.800781 -22.65625 7.28125 -21.0625 C 6.769531 -19.476562 6.515625 -17.691406 6.515625 -15.703125 C 6.515625 -13.066406 6.925781 -10.78125 7.75 -8.84375 C 8.570312 -6.90625 9.800781 -5.40625 11.4375 -4.34375 C 13.082031 -3.289062 15.132812 -2.765625 17.59375 -2.765625 C 18.988281 -2.765625 20.304688 -2.878906 21.546875 -3.109375 C 22.785156 -3.347656 23.992188 -3.648438 25.171875 -4.015625 L 25.171875 -0.84375 C 24.023438 -0.40625 22.820312 -0.0859375 21.5625 0.109375 C 20.300781 0.316406 18.804688 0.421875 17.078125 0.421875 C 13.890625 0.421875 11.222656 -0.238281 9.078125 -1.5625 C 6.941406 -2.882812 5.34375 -4.753906 4.28125 -7.171875 C 3.21875 -9.585938 2.6875 -12.4375 2.6875 -15.71875 C 2.6875 -18.09375 3.015625 -20.265625 3.671875 -22.234375 C 4.335938 -24.203125 5.3125 -25.898438 6.59375 -27.328125 C 7.875 -28.765625 9.445312 -29.867188 11.3125 -30.640625 C 13.175781 -31.421875 15.320312 -31.8125 17.75 -31.8125 C 19.332031 -31.8125 20.859375 -31.65625 22.328125 -31.34375 C 23.804688 -31.03125 25.140625 -30.582031 26.328125 -30 L 24.859375 -26.90625 C 23.859375 -27.363281 22.757812 -27.757812 21.5625 -28.09375 C 20.375 -28.425781 19.085938 -28.59375 17.703125 -28.59375 Z M 17.703125 -28.59375 "/></g></g><g style="fill:#0a703f;fill-opacity:1;"><g transform="translate(460.004275, 275.809383)"><path style="stroke:none" d="M 28.015625 -31.359375 L 28.015625 -11.0625 C 28.015625 -8.851562 27.566406 -6.878906 26.671875 -5.140625 C 25.785156 -3.410156 24.441406 -2.050781 22.640625 -1.0625 C 20.835938 -0.0703125 18.578125 0.421875 15.859375 0.421875 C 11.984375 0.421875 9.03125 -0.625 7 -2.71875 C 4.976562 -4.820312 3.96875 -7.632812 3.96875 -11.15625 L 3.96875 -31.359375 L 7.640625 -31.359375 L 7.640625 -11.046875 C 7.640625 -8.390625 8.34375 -6.335938 9.75 -4.890625 C 11.15625 -3.441406 13.257812 -2.71875 16.0625 -2.71875 C 17.976562 -2.71875 19.546875 -3.066406 20.765625 -3.765625 C 21.992188 -4.460938 22.90625 -5.4375 23.5 -6.6875 C 24.09375 -7.9375 24.390625 -9.382812 24.390625 -11.03125 L 24.390625 -31.359375 Z M 14.5625 -41.53125 C 14.90625 -40.875 15.332031 -40.140625 15.84375 -39.328125 C 16.351562 -38.523438 16.890625 -37.738281 17.453125 -36.96875 C 18.015625 -36.207031 18.535156 -35.554688 19.015625 -35.015625 L 19.015625 -34.5 L 16.59375 -34.5 C 16.070312 -34.914062 15.503906 -35.410156 14.890625 -35.984375 C 14.285156 -36.554688 13.679688 -37.160156 13.078125 -37.796875 C 12.484375 -38.429688 11.941406 -39.035156 11.453125 -39.609375 C 10.972656 -40.191406 10.597656 -40.691406 10.328125 -41.109375 L 10.328125 -41.53125 Z M 14.5625 -41.53125 "/></g></g><g style="fill:#0a703f;fill-opacity:1;"><g transform="translate(492.03535, 275.809383)"><path style="stroke:none" d="M 28.8125 0 L 24.609375 0 L 7.515625 -26.34375 L 7.34375 -26.34375 C 7.382812 -25.644531 7.429688 -24.847656 7.484375 -23.953125 C 7.546875 -23.054688 7.59375 -22.101562 7.625 -21.09375 C 7.664062 -20.09375 7.6875 -19.066406 7.6875 -18.015625 L 7.6875 0 L 4.296875 0 L 4.296875 -31.359375 L 8.46875 -31.359375 L 25.515625 -5.109375 L 25.65625 -5.109375 C 25.625 -5.609375 25.585938 -6.316406 25.546875 -7.234375 C 25.503906 -8.160156 25.460938 -9.15625 25.421875 -10.21875 C 25.390625 -11.289062 25.375 -12.28125 25.375 -13.1875 L 25.375 -31.359375 L 28.8125 -31.359375 Z M 28.8125 0 "/></g></g><g style="fill:#0a703f;fill-opacity:1;"><g transform="translate(525.11768, 275.809383)"><path style="stroke:none" d="M 17.703125 -16.4375 L 28.65625 -16.4375 L 28.65625 -1.21875 C 27.007812 -0.664062 25.316406 -0.253906 23.578125 0.015625 C 21.847656 0.285156 19.910156 0.421875 17.765625 0.421875 C 14.503906 0.421875 11.753906 -0.222656 9.515625 -1.515625 C 7.273438 -2.816406 5.578125 -4.671875 4.421875 -7.078125 C 3.265625 -9.492188 2.6875 -12.363281 2.6875 -15.6875 C 2.6875 -18.925781 3.320312 -21.753906 4.59375 -24.171875 C 5.875 -26.585938 7.726562 -28.460938 10.15625 -29.796875 C 12.582031 -31.140625 15.5 -31.8125 18.90625 -31.8125 C 20.644531 -31.8125 22.296875 -31.648438 23.859375 -31.328125 C 25.429688 -31.003906 26.890625 -30.550781 28.234375 -29.96875 L 26.84375 -26.796875 C 25.675781 -27.296875 24.394531 -27.722656 23 -28.078125 C 21.613281 -28.441406 20.175781 -28.625 18.6875 -28.625 C 16.125 -28.625 13.929688 -28.09375 12.109375 -27.03125 C 10.285156 -25.96875 8.890625 -24.472656 7.921875 -22.546875 C 6.960938 -20.617188 6.484375 -18.332031 6.484375 -15.6875 C 6.484375 -13.0625 6.90625 -10.78125 7.75 -8.84375 C 8.59375 -6.90625 9.90625 -5.398438 11.6875 -4.328125 C 13.476562 -3.253906 15.78125 -2.71875 18.59375 -2.71875 C 20.007812 -2.71875 21.222656 -2.800781 22.234375 -2.96875 C 23.253906 -3.132812 24.179688 -3.332031 25.015625 -3.5625 L 25.015625 -13.171875 L 17.703125 -13.171875 Z M 17.703125 -16.4375 "/></g></g><g style="fill:#0a703f;fill-opacity:1;"><g transform="translate(557.062939, 275.809383)"><path style="stroke:none" d=""/></g></g><g style="fill:#0a703f;fill-opacity:1;"><g transform="translate(568.476557, 275.809383)"><path style="stroke:none" d="M 4.296875 -31.359375 L 13.171875 -31.359375 C 17.085938 -31.359375 20.03125 -30.769531 22 -29.59375 C 23.976562 -28.425781 24.96875 -26.4375 24.96875 -23.625 C 24.96875 -22.40625 24.734375 -21.3125 24.265625 -20.34375 C 23.804688 -19.382812 23.132812 -18.585938 22.25 -17.953125 C 21.363281 -17.328125 20.269531 -16.890625 18.96875 -16.640625 L 18.96875 -16.4375 C 20.34375 -16.21875 21.554688 -15.820312 22.609375 -15.25 C 23.671875 -14.675781 24.5 -13.875 25.09375 -12.84375 C 25.695312 -11.820312 26 -10.515625 26 -8.921875 C 26 -6.992188 25.550781 -5.363281 24.65625 -4.03125 C 23.769531 -2.695312 22.507812 -1.691406 20.875 -1.015625 C 19.238281 -0.335938 17.304688 0 15.078125 0 L 4.296875 0 Z M 7.9375 -17.90625 L 13.9375 -17.90625 C 16.675781 -17.90625 18.570312 -18.351562 19.625 -19.25 C 20.675781 -20.15625 21.203125 -21.476562 21.203125 -23.21875 C 21.203125 -25 20.570312 -26.28125 19.3125 -27.0625 C 18.0625 -27.851562 16.070312 -28.25 13.34375 -28.25 L 7.9375 -28.25 Z M 7.9375 -14.84375 L 7.9375 -3.109375 L 14.453125 -3.109375 C 17.242188 -3.109375 19.21875 -3.65625 20.375 -4.75 C 21.539062 -5.84375 22.125 -7.320312 22.125 -9.1875 C 22.125 -10.375 21.859375 -11.390625 21.328125 -12.234375 C 20.804688 -13.078125 19.960938 -13.722656 18.796875 -14.171875 C 17.640625 -14.617188 16.085938 -14.84375 14.140625 -14.84375 Z M 7.9375 -14.84375 "/></g></g><g style="fill:#0a703f;fill-opacity:1;"><g transform="translate(596.860424, 275.809383)"><path style="stroke:none" d="M 23.96875 0 L 20.109375 -9.953125 L 7.53125 -9.953125 L 3.6875 0 L 0 0 L 12.265625 -31.5 L 15.546875 -31.5 L 27.734375 0 Z M 19.015625 -13.1875 L 15.34375 -23.078125 C 15.25 -23.335938 15.101562 -23.757812 14.90625 -24.34375 C 14.71875 -24.9375 14.523438 -25.546875 14.328125 -26.171875 C 14.128906 -26.804688 13.96875 -27.316406 13.84375 -27.703125 C 13.695312 -27.109375 13.539062 -26.519531 13.375 -25.9375 C 13.207031 -25.363281 13.046875 -24.828125 12.890625 -24.328125 C 12.734375 -23.835938 12.597656 -23.421875 12.484375 -23.078125 L 8.75 -13.1875 Z M 14 7.53125 C 13.40625 7.53125 12.898438 7.335938 12.484375 6.953125 C 12.066406 6.566406 11.859375 5.976562 11.859375 5.1875 C 11.859375 4.382812 12.066406 3.796875 12.484375 3.421875 C 12.898438 3.046875 13.40625 2.859375 14 2.859375 C 14.613281 2.859375 15.128906 3.046875 15.546875 3.421875 C 15.960938 3.796875 16.171875 4.382812 16.171875 5.1875 C 16.171875 5.976562 15.960938 6.566406 15.546875 6.953125 C 15.128906 7.335938 14.613281 7.53125 14 7.53125 Z M 14 7.53125 "/></g></g><g style="fill:#0a703f;fill-opacity:1;"><g transform="translate(624.643573, 275.809383)"><path style="stroke:none" d="M 28.8125 0 L 24.609375 0 L 7.515625 -26.34375 L 7.34375 -26.34375 C 7.382812 -25.644531 7.429688 -24.847656 7.484375 -23.953125 C 7.546875 -23.054688 7.59375 -22.101562 7.625 -21.09375 C 7.664062 -20.09375 7.6875 -19.066406 7.6875 -18.015625 L 7.6875 0 L 4.296875 0 L 4.296875 -31.359375 L 8.46875 -31.359375 L 25.515625 -5.109375 L 25.65625 -5.109375 C 25.625 -5.609375 25.585938 -6.316406 25.546875 -7.234375 C 25.503906 -8.160156 25.460938 -9.15625 25.421875 -10.21875 C 25.390625 -11.289062 25.375 -12.28125 25.375 -13.1875 L 25.375 -31.359375 L 28.8125 -31.359375 Z M 28.8125 0 "/></g></g><g style="fill:#0a703f;fill-opacity:1;"><g transform="translate(657.725903, 275.809383)"><path style="stroke:none" d=""/></g></g><g style="fill:#0a703f;fill-opacity:1;"><g transform="translate(669.139522, 275.809383)"><path style="stroke:none" d="M 26.1875 -31.359375 L 14.9375 0 L 11.265625 0 L 0 -31.359375 L 3.8125 -31.359375 L 11.15625 -10.703125 C 11.457031 -9.878906 11.722656 -9.085938 11.953125 -8.328125 C 12.191406 -7.566406 12.40625 -6.832031 12.59375 -6.125 C 12.78125 -5.425781 12.945312 -4.75 13.09375 -4.09375 C 13.226562 -4.75 13.390625 -5.429688 13.578125 -6.140625 C 13.765625 -6.847656 13.976562 -7.582031 14.21875 -8.34375 C 14.46875 -9.113281 14.742188 -9.921875 15.046875 -10.765625 L 22.328125 -31.359375 Z M 26.1875 -31.359375 "/></g></g><g style="fill:#0a703f;fill-opacity:1;"><g transform="translate(695.335074, 275.809383)"><path style="stroke:none" d="M 28.015625 -31.359375 L 28.015625 -11.0625 C 28.015625 -8.851562 27.566406 -6.878906 26.671875 -5.140625 C 25.785156 -3.410156 24.441406 -2.050781 22.640625 -1.0625 C 20.835938 -0.0703125 18.578125 0.421875 15.859375 0.421875 C 11.984375 0.421875 9.03125 -0.625 7 -2.71875 C 4.976562 -4.820312 3.96875 -7.632812 3.96875 -11.15625 L 3.96875 -31.359375 L 7.640625 -31.359375 L 7.640625 -11.046875 C 7.640625 -8.390625 8.34375 -6.335938 9.75 -4.890625 C 11.15625 -3.441406 13.257812 -2.71875 16.0625 -2.71875 C 17.976562 -2.71875 19.546875 -3.066406 20.765625 -3.765625 C 21.992188 -4.460938 22.90625 -5.4375 23.5 -6.6875 C 24.09375 -7.9375 24.390625 -9.382812 24.390625 -11.03125 L 24.390625 -31.359375 Z M 28.015625 -31.359375 "/></g></g><g style="fill:#0a703f;fill-opacity:1;"><g transform="translate(727.366138, 275.809383)"><path style="stroke:none" d="M 4.296875 0 L 4.296875 -31.359375 L 7.9375 -31.359375 L 7.9375 0 Z M 4.296875 0 "/></g></g><g style="fill:#0a703f;fill-opacity:1;"><g transform="translate(739.637924, 275.809383)"><path style="stroke:none" d=""/></g></g><g style="fill:#0a703f;fill-opacity:1;"><g transform="translate(751.051542, 275.809383)"><path style="stroke:none" d="M 26.90625 0 L 22.59375 0 L 11.28125 -15.25 L 7.9375 -12.25 L 7.9375 0 L 4.296875 0 L 4.296875 -31.359375 L 7.9375 -31.359375 L 7.9375 -15.71875 C 8.75 -16.65625 9.582031 -17.582031 10.4375 -18.5 C 11.300781 -19.425781 12.15625 -20.359375 13 -21.296875 L 22.15625 -31.359375 L 26.4375 -31.359375 L 13.9375 -17.765625 Z M 26.90625 0 "/></g></g><g style="fill:#0a703f;fill-opacity:1;"><g transform="translate(777.955071, 275.809383)"><path style="stroke:none" d="M 28.0625 0 L 24.421875 0 L 24.421875 -14.78125 L 7.9375 -14.78125 L 7.9375 0 L 4.296875 0 L 4.296875 -31.359375 L 7.9375 -31.359375 L 7.9375 -18 L 24.421875 -18 L 24.421875 -31.359375 L 28.0625 -31.359375 Z M 28.0625 0 "/></g></g><g style="fill:#0a703f;fill-opacity:1;"><g transform="translate(810.350868, 275.809383)"><path style="stroke:none" d="M 31.5 -15.71875 C 31.5 -13.300781 31.191406 -11.101562 30.578125 -9.125 C 29.960938 -7.144531 29.050781 -5.441406 27.84375 -4.015625 C 26.632812 -2.597656 25.132812 -1.503906 23.34375 -0.734375 C 21.550781 0.0351562 19.476562 0.421875 17.125 0.421875 C 14.6875 0.421875 12.5625 0.0351562 10.75 -0.734375 C 8.945312 -1.503906 7.445312 -2.601562 6.25 -4.03125 C 5.0625 -5.457031 4.171875 -7.164062 3.578125 -9.15625 C 2.984375 -11.144531 2.6875 -13.347656 2.6875 -15.765625 C 2.6875 -18.972656 3.210938 -21.785156 4.265625 -24.203125 C 5.328125 -26.617188 6.929688 -28.5 9.078125 -29.84375 C 11.234375 -31.1875 13.9375 -31.859375 17.1875 -31.859375 C 20.289062 -31.859375 22.90625 -31.191406 25.03125 -29.859375 C 27.15625 -28.535156 28.765625 -26.664062 29.859375 -24.25 C 30.953125 -21.84375 31.5 -19 31.5 -15.71875 Z M 6.515625 -15.71875 C 6.515625 -13.0625 6.894531 -10.757812 7.65625 -8.8125 C 8.414062 -6.875 9.578125 -5.375 11.140625 -4.3125 C 12.710938 -3.25 14.707031 -2.71875 17.125 -2.71875 C 19.550781 -2.71875 21.539062 -3.25 23.09375 -4.3125 C 24.644531 -5.375 25.789062 -6.875 26.53125 -8.8125 C 27.28125 -10.757812 27.65625 -13.0625 27.65625 -15.71875 C 27.65625 -19.769531 26.804688 -22.9375 25.109375 -25.21875 C 23.410156 -27.5 20.769531 -28.640625 17.1875 -28.640625 C 14.75 -28.640625 12.742188 -28.117188 11.171875 -27.078125 C 9.597656 -26.035156 8.425781 -24.550781 7.65625 -22.625 C 6.894531 -20.695312 6.515625 -18.394531 6.515625 -15.71875 Z M 21.890625 -39.390625 C 21.890625 -38.285156 21.550781 -37.425781 20.875 -36.8125 C 20.207031 -36.207031 19.351562 -35.785156 18.3125 -35.546875 L 18.109375 -33.171875 L 15.875 -33.171875 L 15.609375 -36.875 C 16.703125 -37.0625 17.5625 -37.328125 18.1875 -37.671875 C 18.8125 -38.023438 19.125 -38.554688 19.125 -39.265625 C 19.125 -39.960938 18.847656 -40.4375 18.296875 -40.6875 C 17.742188 -40.945312 17.046875 -41.078125 16.203125 -41.078125 C 15.804688 -41.078125 15.410156 -41.054688 15.015625 -41.015625 C 14.617188 -40.984375 14.289062 -40.941406 14.03125 -40.890625 L 14.03125 -43.03125 C 14.320312 -43.113281 14.664062 -43.179688 15.0625 -43.234375 C 15.46875 -43.285156 15.945312 -43.3125 16.5 -43.3125 C 18.226562 -43.3125 19.554688 -42.984375 20.484375 -42.328125 C 21.421875 -41.679688 21.890625 -40.703125 21.890625 -39.390625 Z M 21.890625 -39.390625 "/></g></g><g style="fill:#0a703f;fill-opacity:1;"><g transform="translate(844.527349, 275.809383)"><path style="stroke:none" d="M 21.75 0 L 4.296875 0 L 4.296875 -31.359375 L 21.75 -31.359375 L 21.75 -28.140625 L 7.9375 -28.140625 L 7.9375 -18 L 20.953125 -18 L 20.953125 -14.828125 L 7.9375 -14.828125 L 7.9375 -3.21875 L 21.75 -3.21875 Z M 21.75 0 "/></g></g><g style="fill:#0a703f;fill-opacity:1;"><g transform="translate(868.942217, 275.809383)"><path style="stroke:none" d=""/></g></g><g style="fill:#0a703f;fill-opacity:1;"><g transform="translate(880.355836, 275.809383)"><path style="stroke:none" d="M 28.0625 0 L 24.421875 0 L 24.421875 -14.78125 L 7.9375 -14.78125 L 7.9375 0 L 4.296875 0 L 4.296875 -31.359375 L 7.9375 -31.359375 L 7.9375 -18 L 24.421875 -18 L 24.421875 -31.359375 L 28.0625 -31.359375 Z M 28.0625 0 "/></g></g><g style="fill:#0a703f;fill-opacity:1;"><g transform="translate(912.75161, 275.809383)"><path style="stroke:none" d="M 31.453125 -15.71875 C 31.453125 -13.300781 31.144531 -11.101562 30.53125 -9.125 C 29.925781 -7.144531 29.019531 -5.441406 27.8125 -4.015625 C 26.601562 -2.597656 25.109375 -1.503906 23.328125 -0.734375 C 21.546875 0.0351562 19.476562 0.421875 17.125 0.421875 C 14.675781 0.421875 12.546875 0.0351562 10.734375 -0.734375 C 8.929688 -1.503906 7.429688 -2.601562 6.234375 -4.03125 C 5.035156 -5.457031 4.144531 -7.164062 3.5625 -9.15625 C 2.976562 -11.144531 2.6875 -13.347656 2.6875 -15.765625 C 2.6875 -18.972656 3.210938 -21.785156 4.265625 -24.203125 C 5.328125 -26.617188 6.929688 -28.5 9.078125 -29.84375 C 11.222656 -31.1875 13.925781 -31.859375 17.1875 -31.859375 C 19.570312 -31.859375 21.664062 -31.445312 23.46875 -30.625 C 25.28125 -29.8125 26.796875 -28.675781 28.015625 -27.21875 C 28.816406 -27.445312 29.425781 -27.84375 29.84375 -28.40625 C 30.257812 -28.976562 30.546875 -29.6875 30.703125 -30.53125 C 30.859375 -31.375 30.9375 -32.320312 30.9375 -33.375 L 34.75 -33.375 L 35.0625 -32.9375 C 34.757812 -31.144531 34.191406 -29.539062 33.359375 -28.125 C 32.523438 -26.707031 31.21875 -25.664062 29.4375 -25 C 30.101562 -23.738281 30.601562 -22.332031 30.9375 -20.78125 C 31.28125 -19.226562 31.453125 -17.539062 31.453125 -15.71875 Z M 6.515625 -15.71875 C 6.515625 -13.0625 6.890625 -10.757812 7.640625 -8.8125 C 8.398438 -6.875 9.5625 -5.375 11.125 -4.3125 C 12.6875 -3.25 14.6875 -2.71875 17.125 -2.71875 C 19.5625 -2.71875 21.550781 -3.25 23.09375 -4.3125 C 24.644531 -5.375 25.785156 -6.875 26.515625 -8.8125 C 27.242188 -10.757812 27.609375 -13.0625 27.609375 -15.71875 C 27.609375 -19.757812 26.769531 -22.921875 25.09375 -25.203125 C 23.425781 -27.492188 20.789062 -28.640625 17.1875 -28.640625 C 14.738281 -28.640625 12.726562 -28.117188 11.15625 -27.078125 C 9.582031 -26.035156 8.414062 -24.546875 7.65625 -22.609375 C 6.894531 -20.679688 6.515625 -18.382812 6.515625 -15.71875 Z M 6.515625 -15.71875 "/></g></g><g style="fill:#0a703f;fill-opacity:1;"><g transform="translate(947.056839, 275.809383)"><path style="stroke:none" d="M 28.8125 0 L 24.609375 0 L 7.515625 -26.34375 L 7.34375 -26.34375 C 7.382812 -25.644531 7.429688 -24.847656 7.484375 -23.953125 C 7.546875 -23.054688 7.59375 -22.101562 7.625 -21.09375 C 7.664062 -20.09375 7.6875 -19.066406 7.6875 -18.015625 L 7.6875 0 L 4.296875 0 L 4.296875 -31.359375 L 8.46875 -31.359375 L 25.515625 -5.109375 L 25.65625 -5.109375 C 25.625 -5.609375 25.585938 -6.316406 25.546875 -7.234375 C 25.503906 -8.160156 25.460938 -9.15625 25.421875 -10.21875 C 25.390625 -11.289062 25.375 -12.28125 25.375 -13.1875 L 25.375 -31.359375 L 28.8125 -31.359375 Z M 28.8125 0 "/></g></g><g style="fill:#0a703f;fill-opacity:1;"><g transform="translate(980.139192, 275.809383)"><path style="stroke:none" d="M 6.96875 -8.703125 L 4.640625 -8.703125 L 3.640625 -31.359375 L 7.953125 -31.359375 Z M 3.21875 -2.234375 C 3.21875 -3.234375 3.457031 -3.941406 3.9375 -4.359375 C 4.425781 -4.785156 5.035156 -5 5.765625 -5 C 6.484375 -5 7.085938 -4.785156 7.578125 -4.359375 C 8.078125 -3.941406 8.328125 -3.234375 8.328125 -2.234375 C 8.328125 -1.242188 8.078125 -0.523438 7.578125 -0.078125 C 7.085938 0.367188 6.484375 0.59375 5.765625 0.59375 C 5.035156 0.59375 4.425781 0.367188 3.9375 -0.078125 C 3.457031 -0.523438 3.21875 -1.242188 3.21875 -2.234375 Z M 3.21875 -2.234375 "/></g></g></g></svg>