<svg xmlns="http://www.w3.org/2000/svg" xmlns:xlink="http://www.w3.org/1999/xlink" width="1451" zoomAndPan="magnify" viewBox="0 0 1088.25 406.499988" height="542" preserveAspectRatio="xMidYMid meet" version="1.0"><defs><g/><clipPath id="0d53376dda"><path d="M 0.292969 0 L 1087.207031 0 L 1087.207031 406 L 0.292969 406 Z M 0.292969 0 " clip-rule="nonzero"/></clipPath><clipPath id="5f0e075df3"><path d="M 60 124 L 357 124 L 357 222 L 60 222 Z M 60 124 " clip-rule="nonzero"/></clipPath><clipPath id="205bc74b38"><path d="M 361.042969 133.742188 L 227.300781 304.921875 L 56.121094 171.183594 L 189.863281 0 Z M 361.042969 133.742188 " clip-rule="nonzero"/></clipPath><clipPath id="abb2010c46"><path d="M 361.042969 133.742188 L 227.300781 304.921875 L 56.121094 171.183594 L 189.863281 0 Z M 361.042969 133.742188 " clip-rule="nonzero"/></clipPath><clipPath id="02d7697985"><path d="M 103.09375 83.269531 L 178 83.269531 L 178 323 L 103.09375 323 Z M 103.09375 83.269531 " clip-rule="nonzero"/></clipPath><clipPath id="6ebad6503b"><path d="M 140.546875 83.269531 C 161.230469 83.269531 178 100.039062 178 120.726562 L 178 285.523438 C 178 306.207031 161.230469 322.976562 140.546875 322.976562 C 119.859375 322.976562 103.09375 306.207031 103.09375 285.523438 L 103.09375 120.726562 C 103.09375 100.039062 119.859375 83.269531 140.546875 83.269531 Z M 140.546875 83.269531 " clip-rule="nonzero"/></clipPath><clipPath id="9ce8bdb345"><path d="M 0.09375 0.269531 L 75 0.269531 L 75 240 L 0.09375 240 Z M 0.09375 0.269531 " clip-rule="nonzero"/></clipPath><clipPath id="cecc320079"><path d="M 37.546875 0.269531 C 58.230469 0.269531 75 17.039062 75 37.726562 L 75 202.523438 C 75 223.207031 58.230469 239.976562 37.546875 239.976562 C 16.859375 239.976562 0.09375 223.207031 0.09375 202.523438 L 0.09375 37.726562 C 0.09375 17.039062 16.859375 0.269531 37.546875 0.269531 Z M 37.546875 0.269531 " clip-rule="nonzero"/></clipPath><clipPath id="355e4b8671"><rect x="0" width="75" y="0" height="240"/></clipPath><clipPath id="1797c1476a"><path d="M 133.054688 98.253906 L 178 98.253906 L 178 143.195312 L 133.054688 143.195312 Z M 133.054688 98.253906 " clip-rule="nonzero"/></clipPath><clipPath id="13b14af0ae"><path d="M 155.527344 98.253906 C 143.117188 98.253906 133.054688 108.3125 133.054688 120.726562 C 133.054688 133.136719 143.117188 143.195312 155.527344 143.195312 C 167.9375 143.195312 178 133.136719 178 120.726562 C 178 108.3125 167.9375 98.253906 155.527344 98.253906 Z M 155.527344 98.253906 " clip-rule="nonzero"/></clipPath><clipPath id="a5481a9798"><path d="M 0.0546875 0.253906 L 45 0.253906 L 45 45.195312 L 0.0546875 45.195312 Z M 0.0546875 0.253906 " clip-rule="nonzero"/></clipPath><clipPath id="30ed541c84"><path d="M 22.527344 0.253906 C 10.117188 0.253906 0.0546875 10.3125 0.0546875 22.726562 C 0.0546875 35.136719 10.117188 45.195312 22.527344 45.195312 C 34.9375 45.195312 45 35.136719 45 22.726562 C 45 10.3125 34.9375 0.253906 22.527344 0.253906 Z M 22.527344 0.253906 " clip-rule="nonzero"/></clipPath><clipPath id="31224df59e"><rect x="0" width="45" y="0" height="46"/></clipPath><clipPath id="c3a7097eda"><path d="M 227.9375 53.308594 L 302.847656 53.308594 L 302.847656 352.9375 L 227.9375 352.9375 Z M 227.9375 53.308594 " clip-rule="nonzero"/></clipPath><clipPath id="6e3dc7f76c"><path d="M 265.394531 53.308594 C 286.078125 53.308594 302.847656 70.078125 302.847656 90.761719 L 302.847656 315.484375 C 302.847656 336.171875 286.078125 352.9375 265.394531 352.9375 C 244.707031 352.9375 227.9375 336.171875 227.9375 315.484375 L 227.9375 90.761719 C 227.9375 70.078125 244.707031 53.308594 265.394531 53.308594 Z M 265.394531 53.308594 " clip-rule="nonzero"/></clipPath><clipPath id="427732f7ce"><path d="M 0.9375 0.308594 L 75.847656 0.308594 L 75.847656 299.9375 L 0.9375 299.9375 Z M 0.9375 0.308594 " clip-rule="nonzero"/></clipPath><clipPath id="d7422fd72b"><path d="M 38.394531 0.308594 C 59.078125 0.308594 75.847656 17.078125 75.847656 37.761719 L 75.847656 262.484375 C 75.847656 283.171875 59.078125 299.9375 38.394531 299.9375 C 17.707031 299.9375 0.9375 283.171875 0.9375 262.484375 L 0.9375 37.761719 C 0.9375 17.078125 17.707031 0.308594 38.394531 0.308594 Z M 38.394531 0.308594 " clip-rule="nonzero"/></clipPath><clipPath id="019eeafbde"><rect x="0" width="76" y="0" height="300"/></clipPath><clipPath id="b7b64422a9"><path d="M 227.9375 68.289062 L 272.882812 68.289062 L 272.882812 113.234375 L 227.9375 113.234375 Z M 227.9375 68.289062 " clip-rule="nonzero"/></clipPath><clipPath id="2a745db642"><path d="M 250.410156 68.289062 C 238 68.289062 227.9375 78.351562 227.9375 90.761719 C 227.9375 103.171875 238 113.234375 250.410156 113.234375 C 262.820312 113.234375 272.882812 103.171875 272.882812 90.761719 C 272.882812 78.351562 262.820312 68.289062 250.410156 68.289062 Z M 250.410156 68.289062 " clip-rule="nonzero"/></clipPath><clipPath id="703149428c"><path d="M 0.9375 0.289062 L 45.882812 0.289062 L 45.882812 45.234375 L 0.9375 45.234375 Z M 0.9375 0.289062 " clip-rule="nonzero"/></clipPath><clipPath id="a82e0b4195"><path d="M 23.410156 0.289062 C 11 0.289062 0.9375 10.351562 0.9375 22.761719 C 0.9375 35.171875 11 45.234375 23.410156 45.234375 C 35.820312 45.234375 45.882812 35.171875 45.882812 22.761719 C 45.882812 10.351562 35.820312 0.289062 23.410156 0.289062 Z M 23.410156 0.289062 " clip-rule="nonzero"/></clipPath><clipPath id="4da4d8d248"><rect x="0" width="46" y="0" height="46"/></clipPath></defs><g clip-path="url(#0d53376dda)"><path fill="#ffffff" d="M 0.292969 0 L 1087.207031 0 L 1087.207031 406 L 0.292969 406 Z M 0.292969 0 " fill-opacity="1" fill-rule="nonzero"/></g><g clip-path="url(#5f0e075df3)"><g clip-path="url(#205bc74b38)"><g clip-path="url(#abb2010c46)"><path fill="#006636" d="M 62.777344 162.660156 C 66.453125 157.957031 73.253906 157.121094 77.957031 160.796875 C 158.246094 223.527344 274.613281 209.238281 337.34375 128.949219 C 341.019531 124.242188 347.820312 123.410156 352.523438 127.085938 C 357.226562 130.757812 358.0625 137.558594 354.386719 142.261719 C 337.234375 164.214844 316.296875 182.164062 292.136719 195.59375 C 268.796875 208.566406 243.492188 216.789062 216.898438 220.054688 C 190.300781 223.320312 163.742188 221.449219 137.972656 214.519531 C 111.285156 207.335938 86.625 194.984375 64.671875 177.835938 C 59.9375 174.164062 59.101562 167.363281 62.777344 162.660156 Z M 62.777344 162.660156 " fill-opacity="1" fill-rule="nonzero"/></g></g></g><g clip-path="url(#02d7697985)"><g clip-path="url(#6ebad6503b)"><g transform="matrix(1, 0, 0, 1, 103, 83)"><g clip-path="url(#355e4b8671)"><g clip-path="url(#9ce8bdb345)"><g clip-path="url(#cecc320079)"><path fill="#006636" d="M 0.09375 0.269531 L 75 0.269531 L 75 239.917969 L 0.09375 239.917969 Z M 0.09375 0.269531 " fill-opacity="1" fill-rule="nonzero"/></g></g></g></g></g></g><g clip-path="url(#1797c1476a)"><g clip-path="url(#13b14af0ae)"><g transform="matrix(1, 0, 0, 1, 133, 98)"><g clip-path="url(#31224df59e)"><g clip-path="url(#a5481a9798)"><g clip-path="url(#30ed541c84)"><path fill="#ff4500" d="M 0.0546875 0.253906 L 45 0.253906 L 45 45.195312 L 0.0546875 45.195312 Z M 0.0546875 0.253906 " fill-opacity="1" fill-rule="nonzero"/></g></g></g></g><path stroke-linecap="butt" transform="matrix(0.749079, 0, 0, 0.749079, 133.055398, 98.252496)" fill="none" stroke-linejoin="miter" d="M 29.999449 0.00188209 C 13.432221 0.00188209 -0.000948069 13.429837 -0.000948069 30.002279 C -0.000948069 46.569507 13.432221 59.997462 29.999449 59.997462 C 46.566677 59.997462 59.999847 46.569507 59.999847 30.002279 C 59.999847 13.429837 46.566677 0.00188209 29.999449 0.00188209 Z M 29.999449 0.00188209 " stroke="#ffffff" stroke-width="16" stroke-opacity="1" stroke-miterlimit="4"/></g></g><g clip-path="url(#c3a7097eda)"><g clip-path="url(#6e3dc7f76c)"><g transform="matrix(1, 0, 0, 1, 227, 53)"><g clip-path="url(#019eeafbde)"><g clip-path="url(#427732f7ce)"><g clip-path="url(#d7422fd72b)"><path fill="#006636" d="M 0.9375 0.308594 L 75.847656 0.308594 L 75.847656 299.9375 L 0.9375 299.9375 Z M 0.9375 0.308594 " fill-opacity="1" fill-rule="nonzero"/></g></g></g></g></g></g><g clip-path="url(#b7b64422a9)"><g clip-path="url(#2a745db642)"><g transform="matrix(1, 0, 0, 1, 227, 68)"><g clip-path="url(#4da4d8d248)"><g clip-path="url(#703149428c)"><g clip-path="url(#a82e0b4195)"><path fill="#ff4500" d="M 0.9375 0.289062 L 45.882812 0.289062 L 45.882812 45.234375 L 0.9375 45.234375 Z M 0.9375 0.289062 " fill-opacity="1" fill-rule="nonzero"/></g></g></g></g><path stroke-linecap="butt" transform="matrix(0.749079, 0, 0, 0.749079, 227.938709, 68.289354)" fill="none" stroke-linejoin="miter" d="M 29.998784 -0.000388594 C 13.431556 -0.000388594 -0.00161382 13.432781 -0.00161382 30.000009 C -0.00161382 46.567237 13.431556 60.000406 29.998784 60.000406 C 46.566012 60.000406 59.999181 46.567237 59.999181 30.000009 C 59.999181 13.432781 46.566012 -0.000388594 29.998784 -0.000388594 Z M 29.998784 -0.000388594 " stroke="#ffffff" stroke-width="16" stroke-opacity="1" stroke-miterlimit="4"/></g></g><g fill="#ff4500" fill-opacity="1"><g transform="translate(427.084846, 197.130868)"><g><path d="M 90.9375 -0.59375 C 89.832031 -0.300781 88.109375 -0.00390625 85.765625 0.296875 C 83.421875 0.597656 81.097656 0.75 78.796875 0.75 C 76.503906 0.75 74.484375 0.570312 72.734375 0.21875 C 70.984375 -0.121094 69.507812 -0.742188 68.3125 -1.640625 C 67.113281 -2.546875 66.210938 -3.796875 65.609375 -5.390625 C 65.015625 -6.992188 64.71875 -9.09375 64.71875 -11.6875 L 64.71875 -35.0625 L 35.953125 -35.0625 L 35.953125 -0.59375 C 34.859375 -0.300781 33.132812 -0.00390625 30.78125 0.296875 C 28.4375 0.597656 26.113281 0.75 23.8125 0.75 C 21.519531 0.75 19.5 0.570312 17.75 0.21875 C 16 -0.121094 14.523438 -0.742188 13.328125 -1.640625 C 12.128906 -2.546875 11.226562 -3.796875 10.625 -5.390625 C 10.03125 -6.992188 9.734375 -9.09375 9.734375 -11.6875 L 9.734375 -90.78125 C 10.835938 -90.988281 12.585938 -91.265625 14.984375 -91.609375 C 17.378906 -91.960938 19.675781 -92.140625 21.875 -92.140625 C 24.164062 -92.140625 26.1875 -91.960938 27.9375 -91.609375 C 29.6875 -91.265625 31.160156 -90.640625 32.359375 -89.734375 C 33.554688 -88.835938 34.453125 -87.585938 35.046875 -85.984375 C 35.648438 -84.390625 35.953125 -82.296875 35.953125 -79.703125 L 35.953125 -55.734375 L 64.71875 -55.734375 L 64.71875 -90.78125 C 65.8125 -90.988281 67.554688 -91.265625 69.953125 -91.609375 C 72.359375 -91.960938 74.660156 -92.140625 76.859375 -92.140625 C 79.148438 -92.140625 81.171875 -91.960938 82.921875 -91.609375 C 84.671875 -91.265625 86.144531 -90.640625 87.34375 -89.734375 C 88.539062 -88.835938 89.4375 -87.585938 90.03125 -85.984375 C 90.632812 -84.390625 90.9375 -82.296875 90.9375 -79.703125 Z M 90.9375 -0.59375 "/></g></g></g><g fill="#ff4500" fill-opacity="1"><g transform="translate(527.761036, 197.130868)"><g><path d="M 29.0625 -88.09375 C 30.757812 -89.09375 33.332031 -90.039062 36.78125 -90.9375 C 40.226562 -91.832031 43.695312 -92.28125 47.1875 -92.28125 C 52.1875 -92.28125 56.609375 -91.554688 60.453125 -90.109375 C 64.296875 -88.660156 66.765625 -86.390625 67.859375 -83.296875 C 69.660156 -78.097656 71.609375 -72.050781 73.703125 -65.15625 C 75.804688 -58.269531 77.90625 -51.15625 80 -43.8125 C 82.09375 -36.476562 84.140625 -29.238281 86.140625 -22.09375 C 88.140625 -14.957031 89.890625 -8.640625 91.390625 -3.140625 C 90.191406 -1.742188 88.390625 -0.625 85.984375 0.21875 C 83.585938 1.070312 80.742188 1.5 77.453125 1.5 C 75.054688 1.5 73.03125 1.296875 71.375 0.890625 C 69.726562 0.492188 68.378906 -0.0976562 67.328125 -0.890625 C 66.285156 -1.691406 65.4375 -2.742188 64.78125 -4.046875 C 64.132812 -5.347656 63.566406 -6.847656 63.078125 -8.546875 L 60.375 -18.875 L 33.265625 -18.875 C 32.460938 -15.875 31.660156 -12.773438 30.859375 -9.578125 C 30.054688 -6.390625 29.257812 -3.296875 28.46875 -0.296875 C 27.0625 0.199219 25.582031 0.625 24.03125 0.96875 C 22.488281 1.320312 20.617188 1.5 18.421875 1.5 C 13.328125 1.5 9.554688 0.621094 7.109375 -1.125 C 4.671875 -2.875 3.453125 -5.296875 3.453125 -8.390625 C 3.453125 -9.785156 3.648438 -11.179688 4.046875 -12.578125 C 4.441406 -13.984375 4.890625 -15.632812 5.390625 -17.53125 C 6.085938 -20.226562 7.0625 -23.570312 8.3125 -27.5625 C 9.5625 -31.5625 10.9375 -35.878906 12.4375 -40.515625 C 13.9375 -45.160156 15.535156 -49.929688 17.234375 -54.828125 C 18.929688 -59.722656 20.523438 -64.34375 22.015625 -68.6875 C 23.515625 -73.03125 24.890625 -76.898438 26.140625 -80.296875 C 27.390625 -83.691406 28.363281 -86.289062 29.0625 -88.09375 Z M 47.046875 -68.765625 C 45.640625 -64.566406 44.0625 -59.894531 42.3125 -54.75 C 40.570312 -49.613281 39.003906 -44.394531 37.609375 -39.09375 L 56.171875 -39.09375 C 54.773438 -44.488281 53.351562 -49.757812 51.90625 -54.90625 C 50.457031 -60.050781 49.132812 -64.671875 47.9375 -68.765625 Z M 47.046875 -68.765625 "/></g></g></g><g fill="#ff4500" fill-opacity="1"><g transform="translate(621.695495, 197.130868)"><g><path d="M 5.546875 -69.8125 C 4.847656 -70.90625 4.195312 -72.398438 3.59375 -74.296875 C 3 -76.203125 2.703125 -78.203125 2.703125 -80.296875 C 2.703125 -84.191406 3.570312 -86.988281 5.3125 -88.6875 C 7.0625 -90.382812 9.335938 -91.234375 12.140625 -91.234375 L 77.453125 -91.234375 C 78.148438 -90.140625 78.796875 -88.640625 79.390625 -86.734375 C 79.992188 -84.835938 80.296875 -82.84375 80.296875 -80.75 C 80.296875 -76.851562 79.421875 -74.054688 77.671875 -72.359375 C 75.929688 -70.660156 73.660156 -69.8125 70.859375 -69.8125 L 54.234375 -69.8125 L 54.234375 -0.59375 C 53.128906 -0.300781 51.40625 -0.00390625 49.0625 0.296875 C 46.71875 0.597656 44.394531 0.75 42.09375 0.75 C 39.800781 0.75 37.78125 0.570312 36.03125 0.21875 C 34.28125 -0.121094 32.804688 -0.742188 31.609375 -1.640625 C 30.410156 -2.546875 29.507812 -3.796875 28.90625 -5.390625 C 28.3125 -6.992188 28.015625 -9.09375 28.015625 -11.6875 L 28.015625 -69.8125 Z M 5.546875 -69.8125 "/></g></g></g><g fill="#ff4500" fill-opacity="1"><g transform="translate(704.993064, 197.130868)"><g><path d="M 90.9375 -0.59375 C 89.832031 -0.300781 88.109375 -0.00390625 85.765625 0.296875 C 83.421875 0.597656 81.097656 0.75 78.796875 0.75 C 76.503906 0.75 74.484375 0.570312 72.734375 0.21875 C 70.984375 -0.121094 69.507812 -0.742188 68.3125 -1.640625 C 67.113281 -2.546875 66.210938 -3.796875 65.609375 -5.390625 C 65.015625 -6.992188 64.71875 -9.09375 64.71875 -11.6875 L 64.71875 -35.0625 L 35.953125 -35.0625 L 35.953125 -0.59375 C 34.859375 -0.300781 33.132812 -0.00390625 30.78125 0.296875 C 28.4375 0.597656 26.113281 0.75 23.8125 0.75 C 21.519531 0.75 19.5 0.570312 17.75 0.21875 C 16 -0.121094 14.523438 -0.742188 13.328125 -1.640625 C 12.128906 -2.546875 11.226562 -3.796875 10.625 -5.390625 C 10.03125 -6.992188 9.734375 -9.09375 9.734375 -11.6875 L 9.734375 -90.78125 C 10.835938 -90.988281 12.585938 -91.265625 14.984375 -91.609375 C 17.378906 -91.960938 19.675781 -92.140625 21.875 -92.140625 C 24.164062 -92.140625 26.1875 -91.960938 27.9375 -91.609375 C 29.6875 -91.265625 31.160156 -90.640625 32.359375 -89.734375 C 33.554688 -88.835938 34.453125 -87.585938 35.046875 -85.984375 C 35.648438 -84.390625 35.953125 -82.296875 35.953125 -79.703125 L 35.953125 -55.734375 L 64.71875 -55.734375 L 64.71875 -90.78125 C 65.8125 -90.988281 67.554688 -91.265625 69.953125 -91.609375 C 72.359375 -91.960938 74.660156 -92.140625 76.859375 -92.140625 C 79.148438 -92.140625 81.171875 -91.960938 82.921875 -91.609375 C 84.671875 -91.265625 86.144531 -90.640625 87.34375 -89.734375 C 88.539062 -88.835938 89.4375 -87.585938 90.03125 -85.984375 C 90.632812 -84.390625 90.9375 -82.296875 90.9375 -79.703125 Z M 90.9375 -0.59375 "/></g></g></g><g fill="#ff4500" fill-opacity="1"><g transform="translate(805.669265, 197.130868)"><g><path d="M 57.375 -0.59375 C 56.28125 -0.300781 54.582031 -0.00390625 52.28125 0.296875 C 49.988281 0.597656 47.742188 0.75 45.546875 0.75 C 40.953125 0.75 37.503906 -0.0195312 35.203125 -1.5625 C 32.910156 -3.113281 31.765625 -6.390625 31.765625 -11.390625 L 31.765625 -31.609375 C 29.265625 -35.304688 26.566406 -39.398438 23.671875 -43.890625 C 20.773438 -48.390625 17.925781 -52.984375 15.125 -57.671875 C 12.332031 -62.367188 9.738281 -66.988281 7.34375 -71.53125 C 4.945312 -76.082031 3 -80.253906 1.5 -84.046875 C 2.800781 -85.835938 4.570312 -87.484375 6.8125 -88.984375 C 9.0625 -90.484375 11.832031 -91.234375 15.125 -91.234375 C 19.019531 -91.234375 22.191406 -90.429688 24.640625 -88.828125 C 27.085938 -87.234375 29.410156 -84.238281 31.609375 -79.84375 L 44.046875 -54.828125 L 44.9375 -54.828125 C 46.34375 -57.921875 47.566406 -60.738281 48.609375 -63.28125 C 49.660156 -65.832031 50.6875 -68.378906 51.6875 -70.921875 C 52.6875 -73.472656 53.734375 -76.125 54.828125 -78.875 C 55.929688 -81.625 57.179688 -84.796875 58.578125 -88.390625 C 60.367188 -89.285156 62.363281 -89.984375 64.5625 -90.484375 C 66.757812 -90.984375 68.859375 -91.234375 70.859375 -91.234375 C 74.359375 -91.234375 77.332031 -90.304688 79.78125 -88.453125 C 82.226562 -86.609375 83.453125 -83.84375 83.453125 -80.15625 C 83.453125 -78.957031 83.203125 -77.507812 82.703125 -75.8125 C 82.203125 -74.113281 81.050781 -71.539062 79.25 -68.09375 C 77.445312 -64.644531 74.820312 -59.972656 71.375 -54.078125 C 67.9375 -48.191406 63.269531 -40.503906 57.375 -31.015625 Z M 57.375 -0.59375 "/></g></g></g><g fill="#ff4500" fill-opacity="1"><g transform="translate(891.663522, 197.130868)"><g><path d="M 5.25 -45.546875 C 5.25 -53.335938 6.46875 -60.226562 8.90625 -66.21875 C 11.351562 -72.207031 14.695312 -77.222656 18.9375 -81.265625 C 23.1875 -85.316406 28.179688 -88.390625 33.921875 -90.484375 C 39.671875 -92.578125 45.890625 -93.625 52.578125 -93.625 C 59.273438 -93.625 65.492188 -92.578125 71.234375 -90.484375 C 76.972656 -88.390625 81.988281 -85.316406 86.28125 -81.265625 C 90.582031 -77.222656 93.957031 -72.207031 96.40625 -66.21875 C 98.851562 -60.226562 100.078125 -53.335938 100.078125 -45.546875 C 100.078125 -37.753906 98.878906 -30.835938 96.484375 -24.796875 C 94.085938 -18.753906 90.765625 -13.707031 86.515625 -9.65625 C 82.273438 -5.613281 77.253906 -2.539062 71.453125 -0.4375 C 65.660156 1.652344 59.367188 2.703125 52.578125 2.703125 C 45.785156 2.703125 39.492188 1.628906 33.703125 -0.515625 C 27.910156 -2.671875 22.914062 -5.796875 18.71875 -9.890625 C 14.53125 -13.984375 11.238281 -19.023438 8.84375 -25.015625 C 6.445312 -31.003906 5.25 -37.847656 5.25 -45.546875 Z M 32.203125 -45.546875 C 32.203125 -36.453125 34.050781 -29.65625 37.75 -25.15625 C 41.445312 -20.664062 46.390625 -18.421875 52.578125 -18.421875 C 58.867188 -18.421875 63.863281 -20.664062 67.5625 -25.15625 C 71.257812 -29.65625 73.109375 -36.453125 73.109375 -45.546875 C 73.109375 -54.535156 71.285156 -61.273438 67.640625 -65.765625 C 63.992188 -70.265625 59.023438 -72.515625 52.734375 -72.515625 C 46.546875 -72.515625 41.578125 -70.289062 37.828125 -65.84375 C 34.078125 -61.394531 32.203125 -54.628906 32.203125 -45.546875 Z M 32.203125 -45.546875 "/></g></g></g><g fill="#006636" fill-opacity="1"><g transform="translate(432.773161, 275.160187)"><g><path d="M 25.59375 -30.65625 L 14.59375 0 L 11 0 L 0 -30.65625 L 3.734375 -30.65625 L 10.90625 -10.46875 C 11.195312 -9.65625 11.457031 -8.878906 11.6875 -8.140625 C 11.914062 -7.398438 12.117188 -6.6875 12.296875 -6 C 12.484375 -5.3125 12.644531 -4.644531 12.78125 -4 C 12.925781 -4.644531 13.085938 -5.3125 13.265625 -6 C 13.453125 -6.695312 13.660156 -7.414062 13.890625 -8.15625 C 14.128906 -8.90625 14.398438 -9.695312 14.703125 -10.53125 L 21.828125 -30.65625 Z M 25.59375 -30.65625 "/></g></g></g><g fill="#006636" fill-opacity="1"><g transform="translate(458.375575, 275.160187)"><g><path d="M 27.375 -30.65625 L 27.375 -10.8125 C 27.375 -8.644531 26.9375 -6.71875 26.0625 -5.03125 C 25.195312 -3.34375 23.882812 -2.007812 22.125 -1.03125 C 20.363281 -0.0625 18.15625 0.421875 15.5 0.421875 C 11.707031 0.421875 8.820312 -0.601562 6.84375 -2.65625 C 4.863281 -4.71875 3.875 -7.46875 3.875 -10.90625 L 3.875 -30.65625 L 7.46875 -30.65625 L 7.46875 -10.796875 C 7.46875 -8.191406 8.15625 -6.179688 9.53125 -4.765625 C 10.90625 -3.359375 12.960938 -2.65625 15.703125 -2.65625 C 17.578125 -2.65625 19.109375 -2.992188 20.296875 -3.671875 C 21.492188 -4.359375 22.382812 -5.3125 22.96875 -6.53125 C 23.550781 -7.75 23.84375 -9.164062 23.84375 -10.78125 L 23.84375 -30.65625 Z M 27.375 -30.65625 "/></g></g></g><g fill="#006636" fill-opacity="1"><g transform="translate(489.681393, 275.160187)"><g><path d="M 4.1875 0 L 4.1875 -30.65625 L 7.75 -30.65625 L 7.75 0 Z M 4.1875 0 "/></g></g></g><g fill="#006636" fill-opacity="1"><g transform="translate(501.675314, 275.160187)"><g/></g></g><g fill="#006636" fill-opacity="1"><g transform="translate(512.830499, 275.160187)"><g><path d="M 26.296875 0 L 22.078125 0 L 11.03125 -14.90625 L 7.75 -11.96875 L 7.75 0 L 4.1875 0 L 4.1875 -30.65625 L 7.75 -30.65625 L 7.75 -15.375 C 8.550781 -16.28125 9.367188 -17.179688 10.203125 -18.078125 C 11.046875 -18.984375 11.878906 -19.894531 12.703125 -20.8125 L 21.65625 -30.65625 L 25.828125 -30.65625 L 13.625 -17.359375 Z M 26.296875 0 "/></g></g></g><g fill="#006636" fill-opacity="1"><g transform="translate(539.124865, 275.160187)"><g><path d="M 27.421875 0 L 23.859375 0 L 23.859375 -14.4375 L 7.75 -14.4375 L 7.75 0 L 4.1875 0 L 4.1875 -30.65625 L 7.75 -30.65625 L 7.75 -17.59375 L 23.859375 -17.59375 L 23.859375 -30.65625 L 27.421875 -30.65625 Z M 27.421875 0 "/></g></g></g><g fill="#006636" fill-opacity="1"><g transform="translate(570.787139, 275.160187)"><g><path d="M 30.78125 -15.375 C 30.78125 -13.007812 30.476562 -10.859375 29.875 -8.921875 C 29.269531 -6.984375 28.378906 -5.316406 27.203125 -3.921875 C 26.023438 -2.535156 24.5625 -1.460938 22.8125 -0.703125 C 21.0625 0.0429688 19.035156 0.421875 16.734375 0.421875 C 14.359375 0.421875 12.285156 0.0429688 10.515625 -0.703125 C 8.742188 -1.460938 7.273438 -2.539062 6.109375 -3.9375 C 4.941406 -5.332031 4.066406 -7 3.484375 -8.9375 C 2.910156 -10.882812 2.625 -13.039062 2.625 -15.40625 C 2.625 -18.539062 3.140625 -21.285156 4.171875 -23.640625 C 5.203125 -26.003906 6.769531 -27.84375 8.875 -29.15625 C 10.976562 -30.476562 13.617188 -31.140625 16.796875 -31.140625 C 19.828125 -31.140625 22.378906 -30.488281 24.453125 -29.1875 C 26.523438 -27.882812 28.097656 -26.054688 29.171875 -23.703125 C 30.242188 -21.347656 30.78125 -18.570312 30.78125 -15.375 Z M 6.375 -15.375 C 6.375 -12.769531 6.742188 -10.515625 7.484375 -8.609375 C 8.222656 -6.710938 9.359375 -5.242188 10.890625 -4.203125 C 12.421875 -3.171875 14.367188 -2.65625 16.734375 -2.65625 C 19.109375 -2.65625 21.050781 -3.171875 22.5625 -4.203125 C 24.082031 -5.242188 25.207031 -6.710938 25.9375 -8.609375 C 26.664062 -10.515625 27.03125 -12.769531 27.03125 -15.375 C 27.03125 -19.320312 26.203125 -22.410156 24.546875 -24.640625 C 22.890625 -26.867188 20.304688 -27.984375 16.796875 -27.984375 C 14.421875 -27.984375 12.460938 -27.472656 10.921875 -26.453125 C 9.378906 -25.429688 8.234375 -23.976562 7.484375 -22.09375 C 6.742188 -20.21875 6.375 -17.976562 6.375 -15.375 Z M 21.375 -38.5 C 21.375 -37.425781 21.046875 -36.59375 20.390625 -36 C 19.734375 -35.40625 18.894531 -34.988281 17.875 -34.75 L 17.6875 -32.421875 L 15.515625 -32.421875 L 15.234375 -36.046875 C 16.304688 -36.222656 17.144531 -36.484375 17.75 -36.828125 C 18.363281 -37.171875 18.671875 -37.6875 18.671875 -38.375 C 18.671875 -39.0625 18.398438 -39.53125 17.859375 -39.78125 C 17.328125 -40.03125 16.648438 -40.15625 15.828125 -40.15625 C 15.429688 -40.15625 15.039062 -40.132812 14.65625 -40.09375 C 14.269531 -40.0625 13.953125 -40.019531 13.703125 -39.96875 L 13.703125 -42.0625 C 13.984375 -42.144531 14.316406 -42.210938 14.703125 -42.265625 C 15.097656 -42.316406 15.570312 -42.34375 16.125 -42.34375 C 17.8125 -42.34375 19.109375 -42.019531 20.015625 -41.375 C 20.921875 -40.738281 21.375 -39.78125 21.375 -38.5 Z M 21.375 -38.5 "/></g></g></g><g fill="#006636" fill-opacity="1"><g transform="translate(604.189796, 275.160187)"><g><path d="M 21.265625 0 L 4.1875 0 L 4.1875 -30.65625 L 21.265625 -30.65625 L 21.265625 -27.5 L 7.75 -27.5 L 7.75 -17.59375 L 20.484375 -17.59375 L 20.484375 -14.484375 L 7.75 -14.484375 L 7.75 -3.140625 L 21.265625 -3.140625 Z M 21.265625 0 "/></g></g></g><g fill="#006636" fill-opacity="1"><g transform="translate(628.051828, 275.160187)"><g/></g></g><g fill="#006636" fill-opacity="1"><g transform="translate(639.207013, 275.160187)"><g><path d="M 13.0625 -31.140625 C 14.570312 -31.140625 15.875 -30.875 16.96875 -30.34375 C 18.070312 -29.820312 18.921875 -29.070312 19.515625 -28.09375 C 20.109375 -27.113281 20.40625 -25.929688 20.40625 -24.546875 C 20.40625 -22.734375 19.8125 -21.195312 18.625 -19.9375 C 17.445312 -18.675781 15.945312 -17.53125 14.125 -16.5 L 22.640625 -8.234375 C 23.410156 -9.128906 24.039062 -10.164062 24.53125 -11.34375 C 25.019531 -12.53125 25.429688 -13.816406 25.765625 -15.203125 L 29.28125 -15.203125 C 28.84375 -13.359375 28.269531 -11.660156 27.5625 -10.109375 C 26.851562 -8.554688 25.96875 -7.191406 24.90625 -6.015625 L 31.046875 0 L 26.328125 0 L 22.53125 -3.703125 C 21.644531 -2.878906 20.6875 -2.15625 19.65625 -1.53125 C 18.625 -0.914062 17.484375 -0.4375 16.234375 -0.09375 C 14.984375 0.246094 13.554688 0.421875 11.953125 0.421875 C 9.992188 0.421875 8.296875 0.0976562 6.859375 -0.546875 C 5.421875 -1.191406 4.304688 -2.132812 3.515625 -3.375 C 2.722656 -4.613281 2.328125 -6.140625 2.328125 -7.953125 C 2.328125 -9.429688 2.597656 -10.703125 3.140625 -11.765625 C 3.691406 -12.828125 4.46875 -13.769531 5.46875 -14.59375 C 6.476562 -15.414062 7.679688 -16.21875 9.078125 -17 C 8.421875 -17.726562 7.796875 -18.46875 7.203125 -19.21875 C 6.617188 -19.96875 6.144531 -20.769531 5.78125 -21.625 C 5.414062 -22.488281 5.234375 -23.4375 5.234375 -24.46875 C 5.234375 -25.863281 5.550781 -27.054688 6.1875 -28.046875 C 6.832031 -29.046875 7.738281 -29.8125 8.90625 -30.34375 C 10.070312 -30.875 11.457031 -31.140625 13.0625 -31.140625 Z M 11.171875 -14.796875 C 10.085938 -14.171875 9.15625 -13.550781 8.375 -12.9375 C 7.601562 -12.320312 7.007812 -11.628906 6.59375 -10.859375 C 6.175781 -10.085938 5.96875 -9.160156 5.96875 -8.078125 C 5.96875 -6.441406 6.519531 -5.128906 7.625 -4.140625 C 8.726562 -3.148438 10.207031 -2.65625 12.0625 -2.65625 C 13.957031 -2.65625 15.570312 -2.96875 16.90625 -3.59375 C 18.238281 -4.226562 19.375 -4.992188 20.3125 -5.890625 Z M 12.9375 -28.265625 C 11.664062 -28.265625 10.632812 -27.929688 9.84375 -27.265625 C 9.050781 -26.597656 8.65625 -25.671875 8.65625 -24.484375 C 8.65625 -23.421875 8.941406 -22.441406 9.515625 -21.546875 C 10.085938 -20.648438 10.90625 -19.660156 11.96875 -18.578125 C 13.71875 -19.535156 14.988281 -20.46875 15.78125 -21.375 C 16.570312 -22.28125 16.96875 -23.335938 16.96875 -24.546875 C 16.96875 -25.648438 16.597656 -26.546875 15.859375 -27.234375 C 15.128906 -27.921875 14.15625 -28.265625 12.9375 -28.265625 Z M 12.9375 -28.265625 "/></g></g></g><g fill="#006636" fill-opacity="1"><g transform="translate(670.491856, 275.160187)"><g/></g></g><g fill="#006636" fill-opacity="1"><g transform="translate(681.647042, 275.160187)"><g><path d="M 13.609375 0 L 10.015625 0 L 10.015625 -27.5 L 0.375 -27.5 L 0.375 -30.65625 L 23.203125 -30.65625 L 23.203125 -27.5 L 13.609375 -27.5 Z M 13.609375 0 "/></g></g></g><g fill="#006636" fill-opacity="1"><g transform="translate(705.299389, 275.160187)"><g><path d="M 27.421875 0 L 23.859375 0 L 23.859375 -14.4375 L 7.75 -14.4375 L 7.75 0 L 4.1875 0 L 4.1875 -30.65625 L 7.75 -30.65625 L 7.75 -17.59375 L 23.859375 -17.59375 L 23.859375 -30.65625 L 27.421875 -30.65625 Z M 27.421875 0 "/></g></g></g><g fill="#006636" fill-opacity="1"><g transform="translate(736.961652, 275.160187)"><g><path d="M 4.1875 0 L 4.1875 -30.65625 L 7.75 -30.65625 L 7.75 0 Z M 5.96875 7.359375 C 5.375 7.359375 4.875 7.171875 4.46875 6.796875 C 4.0625 6.421875 3.859375 5.847656 3.859375 5.078125 C 3.859375 4.296875 4.0625 3.71875 4.46875 3.34375 C 4.875 2.96875 5.375 2.78125 5.96875 2.78125 C 6.5625 2.78125 7.0625 2.96875 7.46875 3.34375 C 7.875 3.71875 8.078125 4.296875 8.078125 5.078125 C 8.078125 5.847656 7.875 6.421875 7.46875 6.796875 C 7.0625 7.171875 6.5625 7.359375 5.96875 7.359375 Z M 5.96875 7.359375 "/></g></g></g><g fill="#006636" fill-opacity="1"><g transform="translate(748.955596, 275.160187)"><g><path d="M 28.15625 0 L 24.046875 0 L 7.34375 -25.75 L 7.171875 -25.75 C 7.210938 -25.0625 7.257812 -24.28125 7.3125 -23.40625 C 7.375 -22.53125 7.421875 -21.597656 7.453125 -20.609375 C 7.484375 -19.628906 7.5 -18.628906 7.5 -17.609375 L 7.5 0 L 4.1875 0 L 4.1875 -30.65625 L 8.28125 -30.65625 L 24.921875 -4.984375 L 25.078125 -4.984375 C 25.046875 -5.472656 25.007812 -6.164062 24.96875 -7.0625 C 24.925781 -7.96875 24.882812 -8.941406 24.84375 -9.984375 C 24.8125 -11.023438 24.796875 -11.992188 24.796875 -12.890625 L 24.796875 -30.65625 L 28.15625 -30.65625 Z M 28.15625 0 "/></g></g></g><g fill="#006636" fill-opacity="1"><g transform="translate(781.288847, 275.160187)"><g><path d="M 27.421875 0 L 23.859375 0 L 23.859375 -14.4375 L 7.75 -14.4375 L 7.75 0 L 4.1875 0 L 4.1875 -30.65625 L 7.75 -30.65625 L 7.75 -17.59375 L 23.859375 -17.59375 L 23.859375 -30.65625 L 27.421875 -30.65625 Z M 27.421875 0 "/></g></g></g><g fill="#006636" fill-opacity="1"><g transform="translate(812.95111, 275.160187)"><g/></g></g><g fill="#006636" fill-opacity="1"><g transform="translate(824.106318, 275.160187)"><g><path d="M 25.59375 -30.65625 L 14.59375 0 L 11 0 L 0 -30.65625 L 3.734375 -30.65625 L 10.90625 -10.46875 C 11.195312 -9.65625 11.457031 -8.878906 11.6875 -8.140625 C 11.914062 -7.398438 12.117188 -6.6875 12.296875 -6 C 12.484375 -5.3125 12.644531 -4.644531 12.78125 -4 C 12.925781 -4.644531 13.085938 -5.3125 13.265625 -6 C 13.453125 -6.695312 13.660156 -7.414062 13.890625 -8.15625 C 14.128906 -8.90625 14.398438 -9.695312 14.703125 -10.53125 L 21.828125 -30.65625 Z M 25.59375 -30.65625 "/></g></g></g><g fill="#006636" fill-opacity="1"><g transform="translate(849.708721, 275.160187)"><g><path d="M 27.375 -30.65625 L 27.375 -26.453125 C 28.289062 -26.609375 28.988281 -26.953125 29.46875 -27.484375 C 29.945312 -28.015625 30.28125 -28.710938 30.46875 -29.578125 C 30.65625 -30.441406 30.75 -31.457031 30.75 -32.625 L 34.421875 -32.625 L 34.71875 -32.1875 C 34.550781 -31.164062 34.3125 -30.203125 34 -29.296875 C 33.6875 -28.398438 33.253906 -27.585938 32.703125 -26.859375 C 32.148438 -26.140625 31.4375 -25.535156 30.5625 -25.046875 C 29.695312 -24.554688 28.632812 -24.203125 27.375 -23.984375 L 27.375 -10.8125 C 27.375 -8.644531 26.960938 -6.71875 26.140625 -5.03125 C 25.328125 -3.34375 24.066406 -2.007812 22.359375 -1.03125 C 20.660156 -0.0625 18.46875 0.421875 15.78125 0.421875 C 11.914062 0.421875 8.960938 -0.601562 6.921875 -2.65625 C 4.890625 -4.71875 3.875 -7.46875 3.875 -10.90625 L 3.875 -30.65625 L 7.46875 -30.65625 L 7.46875 -10.75 C 7.46875 -8.175781 8.164062 -6.179688 9.5625 -4.765625 C 10.96875 -3.359375 13.070312 -2.65625 15.875 -2.65625 C 17.75 -2.65625 19.269531 -2.992188 20.4375 -3.671875 C 21.613281 -4.359375 22.472656 -5.304688 23.015625 -6.515625 C 23.566406 -7.734375 23.84375 -9.140625 23.84375 -10.734375 L 23.84375 -30.65625 Z M 27.375 -30.65625 "/></g></g></g><g fill="#006636" fill-opacity="1"><g transform="translate(882.880731, 275.160187)"><g><path d="M 30.734375 -15.375 C 30.734375 -13.007812 30.4375 -10.859375 29.84375 -8.921875 C 29.25 -6.984375 28.359375 -5.316406 27.171875 -3.921875 C 25.992188 -2.535156 24.535156 -1.460938 22.796875 -0.703125 C 21.054688 0.0429688 19.035156 0.421875 16.734375 0.421875 C 14.335938 0.421875 12.253906 0.0429688 10.484375 -0.703125 C 8.722656 -1.460938 7.257812 -2.539062 6.09375 -3.9375 C 4.925781 -5.332031 4.054688 -7 3.484375 -8.9375 C 2.910156 -10.882812 2.625 -13.039062 2.625 -15.40625 C 2.625 -18.539062 3.140625 -21.285156 4.171875 -23.640625 C 5.203125 -26.003906 6.765625 -27.84375 8.859375 -29.15625 C 10.960938 -30.476562 13.609375 -31.140625 16.796875 -31.140625 C 19.128906 -31.140625 21.175781 -30.738281 22.9375 -29.9375 C 24.707031 -29.144531 26.1875 -28.035156 27.375 -26.609375 C 28.164062 -26.828125 28.757812 -27.210938 29.15625 -27.765625 C 29.5625 -28.316406 29.84375 -29.003906 30 -29.828125 C 30.15625 -30.660156 30.234375 -31.59375 30.234375 -32.625 L 33.96875 -32.625 L 34.25 -32.1875 C 33.957031 -30.4375 33.40625 -28.867188 32.59375 -27.484375 C 31.789062 -26.097656 30.515625 -25.078125 28.765625 -24.421875 C 29.421875 -23.191406 29.910156 -21.816406 30.234375 -20.296875 C 30.566406 -18.785156 30.734375 -17.144531 30.734375 -15.375 Z M 6.375 -15.375 C 6.375 -12.769531 6.738281 -10.515625 7.46875 -8.609375 C 8.207031 -6.710938 9.34375 -5.242188 10.875 -4.203125 C 12.40625 -3.171875 14.359375 -2.65625 16.734375 -2.65625 C 19.117188 -2.65625 21.066406 -3.171875 22.578125 -4.203125 C 24.085938 -5.242188 25.195312 -6.710938 25.90625 -8.609375 C 26.625 -10.515625 26.984375 -12.769531 26.984375 -15.375 C 26.984375 -19.3125 26.164062 -22.394531 24.53125 -24.625 C 22.894531 -26.863281 20.316406 -27.984375 16.796875 -27.984375 C 14.398438 -27.984375 12.429688 -27.472656 10.890625 -26.453125 C 9.359375 -25.429688 8.222656 -23.976562 7.484375 -22.09375 C 6.742188 -20.207031 6.375 -17.96875 6.375 -15.375 Z M 16.609375 7.359375 C 16.015625 7.359375 15.515625 7.171875 15.109375 6.796875 C 14.703125 6.421875 14.5 5.847656 14.5 5.078125 C 14.5 4.296875 14.703125 3.71875 15.109375 3.34375 C 15.515625 2.96875 16.015625 2.78125 16.609375 2.78125 C 17.203125 2.78125 17.703125 2.96875 18.109375 3.34375 C 18.515625 3.71875 18.71875 4.296875 18.71875 5.078125 C 18.71875 5.847656 18.515625 6.421875 18.109375 6.796875 C 17.703125 7.171875 17.203125 7.359375 16.609375 7.359375 Z M 16.609375 7.359375 "/></g></g></g><g fill="#006636" fill-opacity="1"><g transform="translate(916.409175, 275.160187)"><g><path d="M 28.15625 0 L 24.046875 0 L 7.34375 -25.75 L 7.171875 -25.75 C 7.210938 -25.0625 7.257812 -24.28125 7.3125 -23.40625 C 7.375 -22.53125 7.421875 -21.597656 7.453125 -20.609375 C 7.484375 -19.628906 7.5 -18.628906 7.5 -17.609375 L 7.5 0 L 4.1875 0 L 4.1875 -30.65625 L 8.28125 -30.65625 L 24.921875 -4.984375 L 25.078125 -4.984375 C 25.046875 -5.472656 25.007812 -6.164062 24.96875 -7.0625 C 24.925781 -7.96875 24.882812 -8.941406 24.84375 -9.984375 C 24.8125 -11.023438 24.796875 -11.992188 24.796875 -12.890625 L 24.796875 -30.65625 L 28.15625 -30.65625 Z M 28.15625 0 "/></g></g></g><g fill="#006636" fill-opacity="1"><g transform="translate(948.74245, 275.160187)"><g><path d="M 17.296875 -16.0625 L 28.015625 -16.0625 L 28.015625 -1.1875 C 26.398438 -0.644531 24.742188 -0.242188 23.046875 0.015625 C 21.347656 0.285156 19.453125 0.421875 17.359375 0.421875 C 14.171875 0.421875 11.484375 -0.210938 9.296875 -1.484375 C 7.109375 -2.753906 5.445312 -4.566406 4.3125 -6.921875 C 3.1875 -9.285156 2.625 -12.085938 2.625 -15.328125 C 2.625 -18.492188 3.25 -21.257812 4.5 -23.625 C 5.75 -25.988281 7.554688 -27.820312 9.921875 -29.125 C 12.296875 -30.4375 15.144531 -31.09375 18.46875 -31.09375 C 20.175781 -31.09375 21.796875 -30.9375 23.328125 -30.625 C 24.859375 -30.3125 26.28125 -29.863281 27.59375 -29.28125 L 26.234375 -26.1875 C 25.097656 -26.675781 23.847656 -27.09375 22.484375 -27.4375 C 21.117188 -27.789062 19.710938 -27.96875 18.265625 -27.96875 C 15.765625 -27.96875 13.617188 -27.445312 11.828125 -26.40625 C 10.046875 -25.375 8.679688 -23.914062 7.734375 -22.03125 C 6.796875 -20.144531 6.328125 -17.910156 6.328125 -15.328125 C 6.328125 -12.765625 6.738281 -10.535156 7.5625 -8.640625 C 8.394531 -6.753906 9.679688 -5.285156 11.421875 -4.234375 C 13.171875 -3.179688 15.421875 -2.65625 18.171875 -2.65625 C 19.554688 -2.65625 20.742188 -2.734375 21.734375 -2.890625 C 22.734375 -3.054688 23.640625 -3.253906 24.453125 -3.484375 L 24.453125 -12.875 L 17.296875 -12.875 Z M 17.296875 -16.0625 "/></g></g></g><g fill="#006636" fill-opacity="1"><g transform="translate(979.964405, 275.160187)"><g><path d="M 6.8125 -8.515625 L 4.53125 -8.515625 L 3.5625 -30.65625 L 7.78125 -30.65625 Z M 3.140625 -2.1875 C 3.140625 -3.15625 3.378906 -3.847656 3.859375 -4.265625 C 4.335938 -4.679688 4.929688 -4.890625 5.640625 -4.890625 C 6.335938 -4.890625 6.925781 -4.679688 7.40625 -4.265625 C 7.894531 -3.847656 8.140625 -3.15625 8.140625 -2.1875 C 8.140625 -1.21875 7.894531 -0.507812 7.40625 -0.0625 C 6.925781 0.375 6.335938 0.59375 5.640625 0.59375 C 4.929688 0.59375 4.335938 0.375 3.859375 -0.0625 C 3.378906 -0.507812 3.140625 -1.21875 3.140625 -2.1875 Z M 3.140625 -2.1875 "/></g></g></g></svg>