<svg xmlns="http://www.w3.org/2000/svg" xmlns:xlink="http://www.w3.org/1999/xlink" width="1451" zoomAndPan="magnify" viewBox="0 0 1088.25 406.499988" height="542" preserveAspectRatio="xMidYMid meet" version="1.0"><defs><g/><clipPath id="126dd6c5c7"><path d="M 60 124 L 357 124 L 357 222 L 60 222 Z M 60 124 " clip-rule="nonzero"/></clipPath><clipPath id="501169bdc2"><path d="M 361.042969 133.742188 L 227.300781 304.921875 L 56.121094 171.183594 L 189.863281 0 Z M 361.042969 133.742188 " clip-rule="nonzero"/></clipPath><clipPath id="120f4749ec"><path d="M 361.042969 133.742188 L 227.300781 304.921875 L 56.121094 171.183594 L 189.863281 0 Z M 361.042969 133.742188 " clip-rule="nonzero"/></clipPath><clipPath id="7e675125d9"><path d="M 103.09375 83.269531 L 178 83.269531 L 178 323 L 103.09375 323 Z M 103.09375 83.269531 " clip-rule="nonzero"/></clipPath><clipPath id="c3d9b830e7"><path d="M 140.546875 83.269531 C 161.230469 83.269531 178 100.039062 178 120.726562 L 178 285.523438 C 178 306.207031 161.230469 322.976562 140.546875 322.976562 C 119.859375 322.976562 103.09375 306.207031 103.09375 285.523438 L 103.09375 120.726562 C 103.09375 100.039062 119.859375 83.269531 140.546875 83.269531 Z M 140.546875 83.269531 " clip-rule="nonzero"/></clipPath><clipPath id="e8504a5f94"><path d="M 0.09375 0.269531 L 75 0.269531 L 75 240 L 0.09375 240 Z M 0.09375 0.269531 " clip-rule="nonzero"/></clipPath><clipPath id="2f4b91d450"><path d="M 37.546875 0.269531 C 58.230469 0.269531 75 17.039062 75 37.726562 L 75 202.523438 C 75 223.207031 58.230469 239.976562 37.546875 239.976562 C 16.859375 239.976562 0.09375 223.207031 0.09375 202.523438 L 0.09375 37.726562 C 0.09375 17.039062 16.859375 0.269531 37.546875 0.269531 Z M 37.546875 0.269531 " clip-rule="nonzero"/></clipPath><clipPath id="ca919003ce"><rect x="0" width="75" y="0" height="240"/></clipPath><clipPath id="adb98e97f4"><path d="M 133.054688 98.253906 L 178 98.253906 L 178 143.195312 L 133.054688 143.195312 Z M 133.054688 98.253906 " clip-rule="nonzero"/></clipPath><clipPath id="0cee129381"><path d="M 155.527344 98.253906 C 143.117188 98.253906 133.054688 108.3125 133.054688 120.726562 C 133.054688 133.136719 143.117188 143.195312 155.527344 143.195312 C 167.9375 143.195312 178 133.136719 178 120.726562 C 178 108.3125 167.9375 98.253906 155.527344 98.253906 Z M 155.527344 98.253906 " clip-rule="nonzero"/></clipPath><clipPath id="b1ae49c183"><path d="M 0.0546875 0.253906 L 45 0.253906 L 45 45.195312 L 0.0546875 45.195312 Z M 0.0546875 0.253906 " clip-rule="nonzero"/></clipPath><clipPath id="8cab8c235a"><path d="M 22.527344 0.253906 C 10.117188 0.253906 0.0546875 10.3125 0.0546875 22.726562 C 0.0546875 35.136719 10.117188 45.195312 22.527344 45.195312 C 34.9375 45.195312 45 35.136719 45 22.726562 C 45 10.3125 34.9375 0.253906 22.527344 0.253906 Z M 22.527344 0.253906 " clip-rule="nonzero"/></clipPath><clipPath id="e68ec10672"><rect x="0" width="45" y="0" height="46"/></clipPath><clipPath id="cb092ac0ac"><path d="M 227.9375 53.308594 L 302.847656 53.308594 L 302.847656 352.9375 L 227.9375 352.9375 Z M 227.9375 53.308594 " clip-rule="nonzero"/></clipPath><clipPath id="b967ac138b"><path d="M 265.394531 53.308594 C 286.078125 53.308594 302.847656 70.078125 302.847656 90.761719 L 302.847656 315.484375 C 302.847656 336.171875 286.078125 352.9375 265.394531 352.9375 C 244.707031 352.9375 227.9375 336.171875 227.9375 315.484375 L 227.9375 90.761719 C 227.9375 70.078125 244.707031 53.308594 265.394531 53.308594 Z M 265.394531 53.308594 " clip-rule="nonzero"/></clipPath><clipPath id="becd45c188"><path d="M 0.9375 0.308594 L 75.847656 0.308594 L 75.847656 299.9375 L 0.9375 299.9375 Z M 0.9375 0.308594 " clip-rule="nonzero"/></clipPath><clipPath id="e621591696"><path d="M 38.394531 0.308594 C 59.078125 0.308594 75.847656 17.078125 75.847656 37.761719 L 75.847656 262.484375 C 75.847656 283.171875 59.078125 299.9375 38.394531 299.9375 C 17.707031 299.9375 0.9375 283.171875 0.9375 262.484375 L 0.9375 37.761719 C 0.9375 17.078125 17.707031 0.308594 38.394531 0.308594 Z M 38.394531 0.308594 " clip-rule="nonzero"/></clipPath><clipPath id="875728be83"><rect x="0" width="76" y="0" height="300"/></clipPath><clipPath id="eca63ef640"><path d="M 227.9375 68.289062 L 272.882812 68.289062 L 272.882812 113.234375 L 227.9375 113.234375 Z M 227.9375 68.289062 " clip-rule="nonzero"/></clipPath><clipPath id="0576aab21f"><path d="M 250.410156 68.289062 C 238 68.289062 227.9375 78.351562 227.9375 90.761719 C 227.9375 103.171875 238 113.234375 250.410156 113.234375 C 262.820312 113.234375 272.882812 103.171875 272.882812 90.761719 C 272.882812 78.351562 262.820312 68.289062 250.410156 68.289062 Z M 250.410156 68.289062 " clip-rule="nonzero"/></clipPath><clipPath id="bd399a029f"><path d="M 0.9375 0.289062 L 45.882812 0.289062 L 45.882812 45.234375 L 0.9375 45.234375 Z M 0.9375 0.289062 " clip-rule="nonzero"/></clipPath><clipPath id="ae3526d167"><path d="M 23.410156 0.289062 C 11 0.289062 0.9375 10.351562 0.9375 22.761719 C 0.9375 35.171875 11 45.234375 23.410156 45.234375 C 35.820312 45.234375 45.882812 35.171875 45.882812 22.761719 C 45.882812 10.351562 35.820312 0.289062 23.410156 0.289062 Z M 23.410156 0.289062 " clip-rule="nonzero"/></clipPath><clipPath id="86d942dcb1"><rect x="0" width="46" y="0" height="46"/></clipPath></defs><g clip-path="url(#126dd6c5c7)"><g clip-path="url(#501169bdc2)"><g clip-path="url(#120f4749ec)"><path fill="#006636" d="M 62.777344 162.660156 C 66.453125 157.957031 73.253906 157.121094 77.957031 160.796875 C 158.246094 223.527344 274.613281 209.238281 337.34375 128.949219 C 341.019531 124.242188 347.820312 123.410156 352.523438 127.085938 C 357.226562 130.757812 358.0625 137.558594 354.386719 142.261719 C 337.234375 164.214844 316.296875 182.164062 292.136719 195.59375 C 268.796875 208.566406 243.492188 216.789062 216.898438 220.054688 C 190.300781 223.320312 163.742188 221.449219 137.972656 214.519531 C 111.285156 207.335938 86.625 194.984375 64.671875 177.835938 C 59.9375 174.164062 59.101562 167.363281 62.777344 162.660156 Z M 62.777344 162.660156 " fill-opacity="1" fill-rule="nonzero"/></g></g></g><g clip-path="url(#7e675125d9)"><g clip-path="url(#c3d9b830e7)"><g transform="matrix(1, 0, 0, 1, 103, 83)"><g clip-path="url(#ca919003ce)"><g clip-path="url(#e8504a5f94)"><g clip-path="url(#2f4b91d450)"><path fill="#006636" d="M 0.09375 0.269531 L 75 0.269531 L 75 239.917969 L 0.09375 239.917969 Z M 0.09375 0.269531 " fill-opacity="1" fill-rule="nonzero"/></g></g></g></g></g></g><g clip-path="url(#adb98e97f4)"><g clip-path="url(#0cee129381)"><g transform="matrix(1, 0, 0, 1, 133, 98)"><g clip-path="url(#e68ec10672)"><g clip-path="url(#b1ae49c183)"><g clip-path="url(#8cab8c235a)"><path fill="#ff4500" d="M 0.0546875 0.253906 L 45 0.253906 L 45 45.195312 L 0.0546875 45.195312 Z M 0.0546875 0.253906 " fill-opacity="1" fill-rule="nonzero"/></g></g></g></g><path stroke-linecap="butt" transform="matrix(0.749079, 0, 0, 0.749079, 133.055398, 98.252496)" fill="none" stroke-linejoin="miter" d="M 29.999449 0.00188209 C 13.432221 0.00188209 -0.000948069 13.429837 -0.000948069 30.002279 C -0.000948069 46.569507 13.432221 59.997462 29.999449 59.997462 C 46.566677 59.997462 59.999847 46.569507 59.999847 30.002279 C 59.999847 13.429837 46.566677 0.00188209 29.999449 0.00188209 Z M 29.999449 0.00188209 " stroke="#ffffff" stroke-width="16" stroke-opacity="1" stroke-miterlimit="4"/></g></g><g clip-path="url(#cb092ac0ac)"><g clip-path="url(#b967ac138b)"><g transform="matrix(1, 0, 0, 1, 227, 53)"><g clip-path="url(#875728be83)"><g clip-path="url(#becd45c188)"><g clip-path="url(#e621591696)"><path fill="#006636" d="M 0.9375 0.308594 L 75.847656 0.308594 L 75.847656 299.9375 L 0.9375 299.9375 Z M 0.9375 0.308594 " fill-opacity="1" fill-rule="nonzero"/></g></g></g></g></g></g><g clip-path="url(#eca63ef640)"><g clip-path="url(#0576aab21f)"><g transform="matrix(1, 0, 0, 1, 227, 68)"><g clip-path="url(#86d942dcb1)"><g clip-path="url(#bd399a029f)"><g clip-path="url(#ae3526d167)"><path fill="#ff4500" d="M 0.9375 0.289062 L 45.882812 0.289062 L 45.882812 45.234375 L 0.9375 45.234375 Z M 0.9375 0.289062 " fill-opacity="1" fill-rule="nonzero"/></g></g></g></g><path stroke-linecap="butt" transform="matrix(0.749079, 0, 0, 0.749079, 227.938709, 68.289354)" fill="none" stroke-linejoin="miter" d="M 29.998784 -0.000388594 C 13.431556 -0.000388594 -0.00161382 13.432781 -0.00161382 30.000009 C -0.00161382 46.567237 13.431556 60.000406 29.998784 60.000406 C 46.566012 60.000406 59.999181 46.567237 59.999181 30.000009 C 59.999181 13.432781 46.566012 -0.000388594 29.998784 -0.000388594 Z M 29.998784 -0.000388594 " stroke="#ffffff" stroke-width="16" stroke-opacity="1" stroke-miterlimit="4"/></g></g><g fill="#ff4500" fill-opacity="1"><g transform="translate(427.084846, 197.130868)"><g><path d="M 90.9375 -0.59375 C 89.832031 -0.300781 88.109375 -0.00390625 85.765625 0.296875 C 83.421875 0.597656 81.097656 0.75 78.796875 0.75 C 76.503906 0.75 74.484375 0.570312 72.734375 0.21875 C 70.984375 -0.125 69.507812 -0.742188 68.3125 -1.640625 C 67.113281 -2.546875 66.210938 -3.796875 65.609375 -5.390625 C 65.015625 -6.992188 64.71875 -9.09375 64.71875 -11.6875 L 64.71875 -35.0625 L 35.953125 -35.0625 L 35.953125 -0.59375 C 34.859375 -0.300781 33.132812 -0.00390625 30.78125 0.296875 C 28.4375 0.597656 26.113281 0.75 23.8125 0.75 C 21.519531 0.75 19.5 0.570312 17.75 0.21875 C 16 -0.125 14.523438 -0.742188 13.328125 -1.640625 C 12.128906 -2.546875 11.226562 -3.796875 10.625 -5.390625 C 10.03125 -6.992188 9.734375 -9.09375 9.734375 -11.6875 L 9.734375 -90.78125 C 10.835938 -90.988281 12.585938 -91.265625 14.984375 -91.609375 C 17.378906 -91.960938 19.675781 -92.140625 21.875 -92.140625 C 24.164062 -92.140625 26.1875 -91.960938 27.9375 -91.609375 C 29.6875 -91.265625 31.160156 -90.640625 32.359375 -89.734375 C 33.554688 -88.835938 34.453125 -87.585938 35.046875 -85.984375 C 35.648438 -84.390625 35.953125 -82.296875 35.953125 -79.703125 L 35.953125 -55.734375 L 64.71875 -55.734375 L 64.71875 -90.78125 C 65.8125 -90.988281 67.554688 -91.265625 69.953125 -91.609375 C 72.359375 -91.960938 74.660156 -92.140625 76.859375 -92.140625 C 79.148438 -92.140625 81.171875 -91.960938 82.921875 -91.609375 C 84.671875 -91.265625 86.144531 -90.640625 87.34375 -89.734375 C 88.539062 -88.835938 89.4375 -87.585938 90.03125 -85.984375 C 90.632812 -84.390625 90.9375 -82.296875 90.9375 -79.703125 Z M 90.9375 -0.59375 "/></g></g></g><g fill="#ff4500" fill-opacity="1"><g transform="translate(527.761036, 197.130868)"><g><path d="M 29.0625 -88.09375 C 30.757812 -89.09375 33.332031 -90.039062 36.78125 -90.9375 C 40.226562 -91.832031 43.695312 -92.28125 47.1875 -92.28125 C 52.1875 -92.28125 56.609375 -91.554688 60.453125 -90.109375 C 64.296875 -88.660156 66.765625 -86.390625 67.859375 -83.296875 C 69.660156 -78.097656 71.609375 -72.050781 73.703125 -65.15625 C 75.804688 -58.269531 77.90625 -51.15625 80 -43.8125 C 82.09375 -36.476562 84.140625 -29.238281 86.140625 -22.09375 C 88.140625 -14.957031 89.890625 -8.640625 91.390625 -3.140625 C 90.191406 -1.742188 88.390625 -0.625 85.984375 0.21875 C 83.585938 1.070312 80.742188 1.5 77.453125 1.5 C 75.054688 1.5 73.03125 1.296875 71.375 0.890625 C 69.726562 0.492188 68.378906 -0.0976562 67.328125 -0.890625 C 66.285156 -1.691406 65.4375 -2.742188 64.78125 -4.046875 C 64.132812 -5.347656 63.566406 -6.847656 63.078125 -8.546875 L 60.375 -18.875 L 33.265625 -18.875 C 32.460938 -15.875 31.660156 -12.773438 30.859375 -9.578125 C 30.054688 -6.390625 29.257812 -3.296875 28.46875 -0.296875 C 27.0625 0.203125 25.582031 0.625 24.03125 0.96875 C 22.488281 1.320312 20.617188 1.5 18.421875 1.5 C 13.328125 1.5 9.554688 0.625 7.109375 -1.125 C 4.671875 -2.875 3.453125 -5.296875 3.453125 -8.390625 C 3.453125 -9.785156 3.648438 -11.179688 4.046875 -12.578125 C 4.441406 -13.984375 4.890625 -15.632812 5.390625 -17.53125 C 6.085938 -20.226562 7.0625 -23.570312 8.3125 -27.5625 C 9.5625 -31.5625 10.9375 -35.878906 12.4375 -40.515625 C 13.9375 -45.160156 15.535156 -49.929688 17.234375 -54.828125 C 18.929688 -59.722656 20.523438 -64.34375 22.015625 -68.6875 C 23.515625 -73.03125 24.890625 -76.898438 26.140625 -80.296875 C 27.390625 -83.691406 28.363281 -86.289062 29.0625 -88.09375 Z M 47.046875 -68.765625 C 45.640625 -64.566406 44.0625 -59.894531 42.3125 -54.75 C 40.570312 -49.613281 39.003906 -44.394531 37.609375 -39.09375 L 56.171875 -39.09375 C 54.773438 -44.488281 53.351562 -49.757812 51.90625 -54.90625 C 50.457031 -60.050781 49.132812 -64.671875 47.9375 -68.765625 Z M 47.046875 -68.765625 "/></g></g></g><g fill="#ff4500" fill-opacity="1"><g transform="translate(621.695495, 197.130868)"><g><path d="M 5.546875 -69.8125 C 4.847656 -70.90625 4.195312 -72.398438 3.59375 -74.296875 C 3 -76.203125 2.703125 -78.203125 2.703125 -80.296875 C 2.703125 -84.191406 3.570312 -86.988281 5.3125 -88.6875 C 7.0625 -90.382812 9.335938 -91.234375 12.140625 -91.234375 L 77.453125 -91.234375 C 78.148438 -90.140625 78.796875 -88.640625 79.390625 -86.734375 C 79.992188 -84.835938 80.296875 -82.84375 80.296875 -80.75 C 80.296875 -76.851562 79.421875 -74.054688 77.671875 -72.359375 C 75.929688 -70.660156 73.660156 -69.8125 70.859375 -69.8125 L 54.234375 -69.8125 L 54.234375 -0.59375 C 53.128906 -0.300781 51.40625 -0.00390625 49.0625 0.296875 C 46.71875 0.597656 44.394531 0.75 42.09375 0.75 C 39.800781 0.75 37.78125 0.570312 36.03125 0.21875 C 34.28125 -0.125 32.804688 -0.742188 31.609375 -1.640625 C 30.410156 -2.546875 29.507812 -3.796875 28.90625 -5.390625 C 28.3125 -6.992188 28.015625 -9.09375 28.015625 -11.6875 L 28.015625 -69.8125 Z M 5.546875 -69.8125 "/></g></g></g><g fill="#ff4500" fill-opacity="1"><g transform="translate(704.993064, 197.130868)"><g><path d="M 90.9375 -0.59375 C 89.832031 -0.300781 88.109375 -0.00390625 85.765625 0.296875 C 83.421875 0.597656 81.097656 0.75 78.796875 0.75 C 76.503906 0.75 74.484375 0.570312 72.734375 0.21875 C 70.984375 -0.125 69.507812 -0.742188 68.3125 -1.640625 C 67.113281 -2.546875 66.210938 -3.796875 65.609375 -5.390625 C 65.015625 -6.992188 64.71875 -9.09375 64.71875 -11.6875 L 64.71875 -35.0625 L 35.953125 -35.0625 L 35.953125 -0.59375 C 34.859375 -0.300781 33.132812 -0.00390625 30.78125 0.296875 C 28.4375 0.597656 26.113281 0.75 23.8125 0.75 C 21.519531 0.75 19.5 0.570312 17.75 0.21875 C 16 -0.125 14.523438 -0.742188 13.328125 -1.640625 C 12.128906 -2.546875 11.226562 -3.796875 10.625 -5.390625 C 10.03125 -6.992188 9.734375 -9.09375 9.734375 -11.6875 L 9.734375 -90.78125 C 10.835938 -90.988281 12.585938 -91.265625 14.984375 -91.609375 C 17.378906 -91.960938 19.675781 -92.140625 21.875 -92.140625 C 24.164062 -92.140625 26.1875 -91.960938 27.9375 -91.609375 C 29.6875 -91.265625 31.160156 -90.640625 32.359375 -89.734375 C 33.554688 -88.835938 34.453125 -87.585938 35.046875 -85.984375 C 35.648438 -84.390625 35.953125 -82.296875 35.953125 -79.703125 L 35.953125 -55.734375 L 64.71875 -55.734375 L 64.71875 -90.78125 C 65.8125 -90.988281 67.554688 -91.265625 69.953125 -91.609375 C 72.359375 -91.960938 74.660156 -92.140625 76.859375 -92.140625 C 79.148438 -92.140625 81.171875 -91.960938 82.921875 -91.609375 C 84.671875 -91.265625 86.144531 -90.640625 87.34375 -89.734375 C 88.539062 -88.835938 89.4375 -87.585938 90.03125 -85.984375 C 90.632812 -84.390625 90.9375 -82.296875 90.9375 -79.703125 Z M 90.9375 -0.59375 "/></g></g></g><g fill="#ff4500" fill-opacity="1"><g transform="translate(805.669265, 197.130868)"><g><path d="M 57.375 -0.59375 C 56.28125 -0.300781 54.582031 -0.00390625 52.28125 0.296875 C 49.988281 0.597656 47.742188 0.75 45.546875 0.75 C 40.953125 0.75 37.503906 -0.0195312 35.203125 -1.5625 C 32.910156 -3.113281 31.765625 -6.390625 31.765625 -11.390625 L 31.765625 -31.609375 C 29.265625 -35.304688 26.566406 -39.398438 23.671875 -43.890625 C 20.773438 -48.390625 17.925781 -52.984375 15.125 -57.671875 C 12.332031 -62.367188 9.738281 -66.988281 7.34375 -71.53125 C 4.945312 -76.082031 3 -80.253906 1.5 -84.046875 C 2.800781 -85.835938 4.570312 -87.484375 6.8125 -88.984375 C 9.0625 -90.484375 11.832031 -91.234375 15.125 -91.234375 C 19.019531 -91.234375 22.191406 -90.429688 24.640625 -88.828125 C 27.085938 -87.234375 29.410156 -84.238281 31.609375 -79.84375 L 44.046875 -54.828125 L 44.9375 -54.828125 C 46.34375 -57.921875 47.566406 -60.738281 48.609375 -63.28125 C 49.660156 -65.832031 50.6875 -68.378906 51.6875 -70.921875 C 52.6875 -73.472656 53.734375 -76.125 54.828125 -78.875 C 55.929688 -81.625 57.179688 -84.796875 58.578125 -88.390625 C 60.367188 -89.285156 62.363281 -89.984375 64.5625 -90.484375 C 66.757812 -90.984375 68.859375 -91.234375 70.859375 -91.234375 C 74.359375 -91.234375 77.332031 -90.304688 79.78125 -88.453125 C 82.226562 -86.609375 83.453125 -83.84375 83.453125 -80.15625 C 83.453125 -78.957031 83.203125 -77.507812 82.703125 -75.8125 C 82.203125 -74.113281 81.050781 -71.539062 79.25 -68.09375 C 77.445312 -64.644531 74.820312 -59.972656 71.375 -54.078125 C 67.9375 -48.191406 63.269531 -40.503906 57.375 -31.015625 Z M 57.375 -0.59375 "/></g></g></g><g fill="#ff4500" fill-opacity="1"><g transform="translate(891.663522, 197.130868)"><g><path d="M 5.25 -45.546875 C 5.25 -53.335938 6.46875 -60.226562 8.90625 -66.21875 C 11.351562 -72.207031 14.695312 -77.222656 18.9375 -81.265625 C 23.1875 -85.316406 28.179688 -88.390625 33.921875 -90.484375 C 39.671875 -92.578125 45.890625 -93.625 52.578125 -93.625 C 59.273438 -93.625 65.492188 -92.578125 71.234375 -90.484375 C 76.972656 -88.390625 81.988281 -85.316406 86.28125 -81.265625 C 90.582031 -77.222656 93.957031 -72.207031 96.40625 -66.21875 C 98.851562 -60.226562 100.078125 -53.335938 100.078125 -45.546875 C 100.078125 -37.753906 98.878906 -30.835938 96.484375 -24.796875 C 94.085938 -18.753906 90.765625 -13.707031 86.515625 -9.65625 C 82.273438 -5.613281 77.253906 -2.539062 71.453125 -0.4375 C 65.660156 1.65625 59.367188 2.703125 52.578125 2.703125 C 45.785156 2.703125 39.492188 1.628906 33.703125 -0.515625 C 27.910156 -2.671875 22.914062 -5.796875 18.71875 -9.890625 C 14.53125 -13.984375 11.238281 -19.023438 8.84375 -25.015625 C 6.445312 -31.003906 5.25 -37.847656 5.25 -45.546875 Z M 32.203125 -45.546875 C 32.203125 -36.453125 34.050781 -29.65625 37.75 -25.15625 C 41.445312 -20.664062 46.390625 -18.421875 52.578125 -18.421875 C 58.867188 -18.421875 63.863281 -20.664062 67.5625 -25.15625 C 71.257812 -29.65625 73.109375 -36.453125 73.109375 -45.546875 C 73.109375 -54.535156 71.285156 -61.273438 67.640625 -65.765625 C 63.992188 -70.265625 59.023438 -72.515625 52.734375 -72.515625 C 46.546875 -72.515625 41.578125 -70.289062 37.828125 -65.84375 C 34.078125 -61.394531 32.203125 -54.628906 32.203125 -45.546875 Z M 32.203125 -45.546875 "/></g></g></g><g fill="#006636" fill-opacity="1"><g transform="translate(433.241335, 292.838484)"><g><path d="M 38.90625 0 L 33.859375 0 L 33.859375 -20.5 L 11 -20.5 L 11 0 L 5.953125 0 L 5.953125 -43.484375 L 11 -43.484375 L 11 -24.953125 L 33.859375 -24.953125 L 33.859375 -43.484375 L 38.90625 -43.484375 Z M 38.90625 0 "/></g></g></g><g fill="#006636" fill-opacity="1"><g transform="translate(478.158789, 292.838484)"><g><path d="M 17.40625 -33.140625 C 21.289062 -33.140625 24.175781 -32.265625 26.0625 -30.515625 C 27.945312 -28.773438 28.890625 -25.988281 28.890625 -22.15625 L 28.890625 0 L 25.28125 0 L 24.328125 -4.8125 L 24.09375 -4.8125 C 23.1875 -3.625 22.234375 -2.628906 21.234375 -1.828125 C 20.242188 -1.023438 19.097656 -0.421875 17.796875 -0.015625 C 16.503906 0.390625 14.914062 0.59375 13.03125 0.59375 C 11.039062 0.59375 9.273438 0.25 7.734375 -0.4375 C 6.203125 -1.132812 4.992188 -2.1875 4.109375 -3.59375 C 3.234375 -5.007812 2.796875 -6.796875 2.796875 -8.953125 C 2.796875 -12.203125 4.082031 -14.695312 6.65625 -16.4375 C 9.238281 -18.1875 13.164062 -19.144531 18.4375 -19.3125 L 24.0625 -19.546875 L 24.0625 -21.53125 C 24.0625 -24.351562 23.457031 -26.328125 22.25 -27.453125 C 21.039062 -28.585938 19.335938 -29.15625 17.140625 -29.15625 C 15.429688 -29.15625 13.800781 -28.90625 12.25 -28.40625 C 10.707031 -27.914062 9.242188 -27.332031 7.859375 -26.65625 L 6.34375 -30.40625 C 7.800781 -31.15625 9.484375 -31.796875 11.390625 -32.328125 C 13.296875 -32.867188 15.300781 -33.140625 17.40625 -33.140625 Z M 24 -16.0625 L 19.03125 -15.859375 C 14.96875 -15.691406 12.101562 -15.023438 10.4375 -13.859375 C 8.769531 -12.691406 7.9375 -11.035156 7.9375 -8.890625 C 7.9375 -7.023438 8.5 -5.644531 9.625 -4.75 C 10.757812 -3.863281 12.257812 -3.421875 14.125 -3.421875 C 17.019531 -3.421875 19.390625 -4.222656 21.234375 -5.828125 C 23.078125 -7.429688 24 -9.84375 24 -13.0625 Z M 24 -16.0625 "/></g></g></g><g fill="#006636" fill-opacity="1"><g transform="translate(512.010485, 292.838484)"><g><path d="M 20.53125 -33.203125 C 24.59375 -33.203125 27.832031 -31.800781 30.25 -29 C 32.664062 -26.207031 33.875 -22.003906 33.875 -16.390625 C 33.875 -12.679688 33.316406 -9.566406 32.203125 -7.046875 C 31.097656 -4.523438 29.539062 -2.617188 27.53125 -1.328125 C 25.519531 -0.046875 23.144531 0.59375 20.40625 0.59375 C 18.675781 0.59375 17.15625 0.367188 15.84375 -0.078125 C 14.539062 -0.535156 13.421875 -1.148438 12.484375 -1.921875 C 11.554688 -2.703125 10.785156 -3.550781 10.171875 -4.46875 L 9.8125 -4.46875 C 9.875 -3.6875 9.945312 -2.75 10.03125 -1.65625 C 10.125 -0.570312 10.171875 0.375 10.171875 1.1875 L 10.171875 14.578125 L 5.203125 14.578125 L 5.203125 -32.609375 L 9.28125 -32.609375 L 9.9375 -27.78125 L 10.171875 -27.78125 C 10.804688 -28.769531 11.578125 -29.675781 12.484375 -30.5 C 13.398438 -31.320312 14.515625 -31.976562 15.828125 -32.46875 C 17.148438 -32.957031 18.71875 -33.203125 20.53125 -33.203125 Z M 19.65625 -29.03125 C 17.394531 -29.03125 15.578125 -28.59375 14.203125 -27.71875 C 12.828125 -26.851562 11.820312 -25.550781 11.1875 -23.8125 C 10.550781 -22.070312 10.210938 -19.894531 10.171875 -17.28125 L 10.171875 -16.328125 C 10.171875 -13.578125 10.472656 -11.25 11.078125 -9.34375 C 11.679688 -7.4375 12.679688 -5.988281 14.078125 -5 C 15.484375 -4.007812 17.363281 -3.515625 19.71875 -3.515625 C 21.738281 -3.515625 23.421875 -4.054688 24.765625 -5.140625 C 26.117188 -6.234375 27.128906 -7.753906 27.796875 -9.703125 C 28.460938 -11.660156 28.796875 -13.910156 28.796875 -16.453125 C 28.796875 -20.296875 28.046875 -23.351562 26.546875 -25.625 C 25.046875 -27.894531 22.75 -29.03125 19.65625 -29.03125 Z M 19.65625 -29.03125 "/></g></g></g><g fill="#006636" fill-opacity="1"><g transform="translate(549.283054, 292.838484)"><g><path d="M 20.53125 -33.203125 C 24.59375 -33.203125 27.832031 -31.800781 30.25 -29 C 32.664062 -26.207031 33.875 -22.003906 33.875 -16.390625 C 33.875 -12.679688 33.316406 -9.566406 32.203125 -7.046875 C 31.097656 -4.523438 29.539062 -2.617188 27.53125 -1.328125 C 25.519531 -0.046875 23.144531 0.59375 20.40625 0.59375 C 18.675781 0.59375 17.15625 0.367188 15.84375 -0.078125 C 14.539062 -0.535156 13.421875 -1.148438 12.484375 -1.921875 C 11.554688 -2.703125 10.785156 -3.550781 10.171875 -4.46875 L 9.8125 -4.46875 C 9.875 -3.6875 9.945312 -2.75 10.03125 -1.65625 C 10.125 -0.570312 10.171875 0.375 10.171875 1.1875 L 10.171875 14.578125 L 5.203125 14.578125 L 5.203125 -32.609375 L 9.28125 -32.609375 L 9.9375 -27.78125 L 10.171875 -27.78125 C 10.804688 -28.769531 11.578125 -29.675781 12.484375 -30.5 C 13.398438 -31.320312 14.515625 -31.976562 15.828125 -32.46875 C 17.148438 -32.957031 18.71875 -33.203125 20.53125 -33.203125 Z M 19.65625 -29.03125 C 17.394531 -29.03125 15.578125 -28.59375 14.203125 -27.71875 C 12.828125 -26.851562 11.820312 -25.550781 11.1875 -23.8125 C 10.550781 -22.070312 10.210938 -19.894531 10.171875 -17.28125 L 10.171875 -16.328125 C 10.171875 -13.578125 10.472656 -11.25 11.078125 -9.34375 C 11.679688 -7.4375 12.679688 -5.988281 14.078125 -5 C 15.484375 -4.007812 17.363281 -3.515625 19.71875 -3.515625 C 21.738281 -3.515625 23.421875 -4.054688 24.765625 -5.140625 C 26.117188 -6.234375 27.128906 -7.753906 27.796875 -9.703125 C 28.460938 -11.660156 28.796875 -13.910156 28.796875 -16.453125 C 28.796875 -20.296875 28.046875 -23.351562 26.546875 -25.625 C 25.046875 -27.894531 22.75 -29.03125 19.65625 -29.03125 Z M 19.65625 -29.03125 "/></g></g></g><g fill="#006636" fill-opacity="1"><g transform="translate(586.555622, 292.838484)"><g><path d="M 0.0625 -32.609375 L 5.359375 -32.609375 L 12.546875 -13.6875 C 12.960938 -12.570312 13.347656 -11.503906 13.703125 -10.484375 C 14.066406 -9.460938 14.382812 -8.484375 14.65625 -7.546875 C 14.9375 -6.617188 15.15625 -5.71875 15.3125 -4.84375 L 15.53125 -4.84375 C 15.800781 -5.84375 16.191406 -7.148438 16.703125 -8.765625 C 17.222656 -10.378906 17.785156 -12.03125 18.390625 -13.71875 L 25.203125 -32.609375 L 30.515625 -32.609375 L 16.328125 4.796875 C 15.578125 6.796875 14.703125 8.535156 13.703125 10.015625 C 12.703125 11.503906 11.484375 12.648438 10.046875 13.453125 C 8.617188 14.265625 6.894531 14.671875 4.875 14.671875 C 3.945312 14.671875 3.125 14.613281 2.40625 14.5 C 1.695312 14.394531 1.082031 14.269531 0.5625 14.125 L 0.5625 10.171875 C 1 10.273438 1.53125 10.363281 2.15625 10.4375 C 2.78125 10.519531 3.429688 10.5625 4.109375 10.5625 C 5.335938 10.5625 6.398438 10.328125 7.296875 9.859375 C 8.203125 9.390625 8.984375 8.707031 9.640625 7.8125 C 10.296875 6.925781 10.859375 5.867188 11.328125 4.640625 L 13.125 0.0625 Z M 0.0625 -32.609375 "/></g></g></g><g fill="#006636" fill-opacity="1"><g transform="translate(617.075693, 292.838484)"><g/></g></g><g fill="#006636" fill-opacity="1"><g transform="translate(632.900904, 292.838484)"><g><path d="M 38.90625 0 L 33.859375 0 L 33.859375 -20.5 L 11 -20.5 L 11 0 L 5.953125 0 L 5.953125 -43.484375 L 11 -43.484375 L 11 -24.953125 L 33.859375 -24.953125 L 33.859375 -43.484375 L 38.90625 -43.484375 Z M 38.90625 0 "/></g></g></g><g fill="#006636" fill-opacity="1"><g transform="translate(677.818369, 292.838484)"><g><path d="M 17.765625 -33.203125 C 20.535156 -33.203125 22.910156 -32.585938 24.890625 -31.359375 C 26.878906 -30.128906 28.398438 -28.40625 29.453125 -26.1875 C 30.503906 -23.976562 31.03125 -21.394531 31.03125 -18.4375 L 31.03125 -15.375 L 8.5 -15.375 C 8.5625 -11.550781 9.515625 -8.632812 11.359375 -6.625 C 13.203125 -4.625 15.800781 -3.625 19.15625 -3.625 C 21.21875 -3.625 23.039062 -3.8125 24.625 -4.1875 C 26.21875 -4.570312 27.863281 -5.128906 29.5625 -5.859375 L 29.5625 -1.515625 C 27.914062 -0.785156 26.285156 -0.253906 24.671875 0.078125 C 23.054688 0.421875 21.148438 0.59375 18.953125 0.59375 C 15.816406 0.59375 13.082031 -0.046875 10.75 -1.328125 C 8.425781 -2.609375 6.617188 -4.484375 5.328125 -6.953125 C 4.035156 -9.429688 3.390625 -12.46875 3.390625 -16.0625 C 3.390625 -19.570312 3.976562 -22.609375 5.15625 -25.171875 C 6.34375 -27.742188 8.007812 -29.722656 10.15625 -31.109375 C 12.3125 -32.503906 14.847656 -33.203125 17.765625 -33.203125 Z M 17.703125 -29.15625 C 15.066406 -29.15625 12.960938 -28.289062 11.390625 -26.5625 C 9.828125 -24.832031 8.894531 -22.421875 8.59375 -19.328125 L 25.84375 -19.328125 C 25.832031 -21.273438 25.53125 -22.988281 24.9375 -24.46875 C 24.351562 -25.945312 23.46875 -27.097656 22.28125 -27.921875 C 21.09375 -28.742188 19.566406 -29.15625 17.703125 -29.15625 Z M 17.703125 -29.15625 "/></g></g></g><g fill="#006636" fill-opacity="1"><g transform="translate(712.027037, 292.838484)"><g><path d="M 17.40625 -33.140625 C 21.289062 -33.140625 24.175781 -32.265625 26.0625 -30.515625 C 27.945312 -28.773438 28.890625 -25.988281 28.890625 -22.15625 L 28.890625 0 L 25.28125 0 L 24.328125 -4.8125 L 24.09375 -4.8125 C 23.1875 -3.625 22.234375 -2.628906 21.234375 -1.828125 C 20.242188 -1.023438 19.097656 -0.421875 17.796875 -0.015625 C 16.503906 0.390625 14.914062 0.59375 13.03125 0.59375 C 11.039062 0.59375 9.273438 0.25 7.734375 -0.4375 C 6.203125 -1.132812 4.992188 -2.1875 4.109375 -3.59375 C 3.234375 -5.007812 2.796875 -6.796875 2.796875 -8.953125 C 2.796875 -12.203125 4.082031 -14.695312 6.65625 -16.4375 C 9.238281 -18.1875 13.164062 -19.144531 18.4375 -19.3125 L 24.0625 -19.546875 L 24.0625 -21.53125 C 24.0625 -24.351562 23.457031 -26.328125 22.25 -27.453125 C 21.039062 -28.585938 19.335938 -29.15625 17.140625 -29.15625 C 15.429688 -29.15625 13.800781 -28.90625 12.25 -28.40625 C 10.707031 -27.914062 9.242188 -27.332031 7.859375 -26.65625 L 6.34375 -30.40625 C 7.800781 -31.15625 9.484375 -31.796875 11.390625 -32.328125 C 13.296875 -32.867188 15.300781 -33.140625 17.40625 -33.140625 Z M 24 -16.0625 L 19.03125 -15.859375 C 14.96875 -15.691406 12.101562 -15.023438 10.4375 -13.859375 C 8.769531 -12.691406 7.9375 -11.035156 7.9375 -8.890625 C 7.9375 -7.023438 8.5 -5.644531 9.625 -4.75 C 10.757812 -3.863281 12.257812 -3.421875 14.125 -3.421875 C 17.019531 -3.421875 19.390625 -4.222656 21.234375 -5.828125 C 23.078125 -7.429688 24 -9.84375 24 -13.0625 Z M 24 -16.0625 "/></g></g></g><g fill="#006636" fill-opacity="1"><g transform="translate(745.878723, 292.838484)"><g><path d="M 10.171875 0 L 5.203125 0 L 5.203125 -46.28125 L 10.171875 -46.28125 Z M 10.171875 0 "/></g></g></g><g fill="#006636" fill-opacity="1"><g transform="translate(761.257739, 292.838484)"><g><path d="M 15.734375 -3.453125 C 16.546875 -3.453125 17.378906 -3.519531 18.234375 -3.65625 C 19.085938 -3.789062 19.78125 -3.960938 20.3125 -4.171875 L 20.3125 -0.328125 C 19.738281 -0.0664062 18.941406 0.148438 17.921875 0.328125 C 16.898438 0.503906 15.90625 0.59375 14.9375 0.59375 C 13.207031 0.59375 11.640625 0.289062 10.234375 -0.3125 C 8.828125 -0.914062 7.703125 -1.941406 6.859375 -3.390625 C 6.015625 -4.835938 5.59375 -6.84375 5.59375 -9.40625 L 5.59375 -28.734375 L 0.953125 -28.734375 L 0.953125 -31.140625 L 5.625 -33.078125 L 7.578125 -40.15625 L 10.5625 -40.15625 L 10.5625 -32.609375 L 20.109375 -32.609375 L 20.109375 -28.734375 L 10.5625 -28.734375 L 10.5625 -9.546875 C 10.5625 -7.503906 11.03125 -5.976562 11.96875 -4.96875 C 12.914062 -3.957031 14.171875 -3.453125 15.734375 -3.453125 Z M 15.734375 -3.453125 "/></g></g></g><g fill="#006636" fill-opacity="1"><g transform="translate(782.972811, 292.838484)"><g><path d="M 10.140625 -46.28125 L 10.140625 -32.453125 C 10.140625 -31.660156 10.117188 -30.863281 10.078125 -30.0625 C 10.046875 -29.257812 9.976562 -28.519531 9.875 -27.84375 L 10.203125 -27.84375 C 10.878906 -28.988281 11.738281 -29.953125 12.78125 -30.734375 C 13.820312 -31.523438 15.003906 -32.125 16.328125 -32.53125 C 17.660156 -32.9375 19.070312 -33.140625 20.5625 -33.140625 C 23.175781 -33.140625 25.359375 -32.722656 27.109375 -31.890625 C 28.867188 -31.054688 30.1875 -29.765625 31.0625 -28.015625 C 31.945312 -26.273438 32.390625 -24.015625 32.390625 -21.234375 L 32.390625 0 L 27.515625 0 L 27.515625 -20.90625 C 27.515625 -23.625 26.894531 -25.65625 25.65625 -27 C 24.414062 -28.351562 22.515625 -29.03125 19.953125 -29.03125 C 17.535156 -29.03125 15.609375 -28.566406 14.171875 -27.640625 C 12.734375 -26.722656 11.703125 -25.367188 11.078125 -23.578125 C 10.453125 -21.796875 10.140625 -19.617188 10.140625 -17.046875 L 10.140625 0 L 5.203125 0 L 5.203125 -46.28125 Z M 10.140625 -46.28125 "/></g></g></g><g fill="#006636" fill-opacity="1"><g transform="translate(820.334637, 292.838484)"><g><path d="M 0.0625 -32.609375 L 5.359375 -32.609375 L 12.546875 -13.6875 C 12.960938 -12.570312 13.347656 -11.503906 13.703125 -10.484375 C 14.066406 -9.460938 14.382812 -8.484375 14.65625 -7.546875 C 14.9375 -6.617188 15.15625 -5.71875 15.3125 -4.84375 L 15.53125 -4.84375 C 15.800781 -5.84375 16.191406 -7.148438 16.703125 -8.765625 C 17.222656 -10.378906 17.785156 -12.03125 18.390625 -13.71875 L 25.203125 -32.609375 L 30.515625 -32.609375 L 16.328125 4.796875 C 15.578125 6.796875 14.703125 8.535156 13.703125 10.015625 C 12.703125 11.503906 11.484375 12.648438 10.046875 13.453125 C 8.617188 14.265625 6.894531 14.671875 4.875 14.671875 C 3.945312 14.671875 3.125 14.613281 2.40625 14.5 C 1.695312 14.394531 1.082031 14.269531 0.5625 14.125 L 0.5625 10.171875 C 1 10.273438 1.53125 10.363281 2.15625 10.4375 C 2.78125 10.519531 3.429688 10.5625 4.109375 10.5625 C 5.335938 10.5625 6.398438 10.328125 7.296875 9.859375 C 8.203125 9.390625 8.984375 8.707031 9.640625 7.8125 C 10.296875 6.925781 10.859375 5.867188 11.328125 4.640625 L 13.125 0.0625 Z M 0.0625 -32.609375 "/></g></g></g><g fill="#006636" fill-opacity="1"><g transform="translate(850.854696, 292.838484)"><g/></g></g><g fill="#006636" fill-opacity="1"><g transform="translate(866.679895, 292.838484)"><g><path d="M 17.046875 -21.6875 L 28.609375 -43.484375 L 34.0625 -43.484375 L 19.578125 -16.859375 L 19.578125 0 L 14.515625 0 L 14.515625 -16.625 L 0 -43.484375 L 5.53125 -43.484375 Z M 17.046875 -21.6875 "/></g></g></g><g fill="#006636" fill-opacity="1"><g transform="translate(900.739836, 292.838484)"><g><path d="M 33.3125 -16.359375 C 33.3125 -13.679688 32.960938 -11.289062 32.265625 -9.1875 C 31.578125 -7.082031 30.578125 -5.304688 29.265625 -3.859375 C 27.960938 -2.421875 26.382812 -1.316406 24.53125 -0.546875 C 22.675781 0.210938 20.578125 0.59375 18.234375 0.59375 C 16.054688 0.59375 14.054688 0.210938 12.234375 -0.546875 C 10.421875 -1.316406 8.851562 -2.421875 7.53125 -3.859375 C 6.21875 -5.304688 5.195312 -7.082031 4.46875 -9.1875 C 3.75 -11.289062 3.390625 -13.679688 3.390625 -16.359375 C 3.390625 -19.929688 3.992188 -22.96875 5.203125 -25.46875 C 6.410156 -27.976562 8.140625 -29.894531 10.390625 -31.21875 C 12.640625 -32.539062 15.320312 -33.203125 18.4375 -33.203125 C 21.414062 -33.203125 24.019531 -32.535156 26.25 -31.203125 C 28.476562 -29.878906 30.210938 -27.960938 31.453125 -25.453125 C 32.691406 -22.941406 33.3125 -19.910156 33.3125 -16.359375 Z M 8.5 -16.359375 C 8.5 -13.742188 8.847656 -11.472656 9.546875 -9.546875 C 10.242188 -7.617188 11.316406 -6.128906 12.765625 -5.078125 C 14.210938 -4.035156 16.078125 -3.515625 18.359375 -3.515625 C 20.617188 -3.515625 22.476562 -4.035156 23.9375 -5.078125 C 25.394531 -6.128906 26.46875 -7.617188 27.15625 -9.546875 C 27.851562 -11.472656 28.203125 -13.742188 28.203125 -16.359375 C 28.203125 -18.953125 27.851562 -21.195312 27.15625 -23.09375 C 26.46875 -24.988281 25.398438 -26.453125 23.953125 -27.484375 C 22.503906 -28.515625 20.628906 -29.03125 18.328125 -29.03125 C 14.929688 -29.03125 12.441406 -27.910156 10.859375 -25.671875 C 9.285156 -23.429688 8.5 -20.328125 8.5 -16.359375 Z M 8.5 -16.359375 "/></g></g></g><g fill="#006636" fill-opacity="1"><g transform="translate(937.387718, 292.838484)"><g><path d="M 32.125 -32.609375 L 32.125 0 L 28.078125 0 L 27.375 -4.578125 L 27.09375 -4.578125 C 26.425781 -3.453125 25.554688 -2.5 24.484375 -1.71875 C 23.410156 -0.945312 22.203125 -0.367188 20.859375 0.015625 C 19.523438 0.398438 18.101562 0.59375 16.59375 0.59375 C 14.019531 0.59375 11.859375 0.175781 10.109375 -0.65625 C 8.367188 -1.488281 7.054688 -2.773438 6.171875 -4.515625 C 5.285156 -6.265625 4.84375 -8.507812 4.84375 -11.25 L 4.84375 -32.609375 L 9.84375 -32.609375 L 9.84375 -11.59375 C 9.84375 -8.882812 10.457031 -6.859375 11.6875 -5.515625 C 12.914062 -4.179688 14.789062 -3.515625 17.3125 -3.515625 C 19.726562 -3.515625 21.65625 -3.96875 23.09375 -4.875 C 24.53125 -5.789062 25.566406 -7.132812 26.203125 -8.90625 C 26.835938 -10.6875 27.15625 -12.863281 27.15625 -15.4375 L 27.15625 -32.609375 Z M 32.125 -32.609375 "/></g></g></g><g fill="#006636" fill-opacity="1"><g transform="translate(974.749521, 292.838484)"><g><path d="M 9.671875 -12.078125 L 6.421875 -12.078125 L 5.0625 -43.484375 L 11.03125 -43.484375 Z M 4.46875 -3.09375 C 4.46875 -4.476562 4.800781 -5.460938 5.46875 -6.046875 C 6.144531 -6.640625 6.988281 -6.9375 8 -6.9375 C 8.988281 -6.9375 9.828125 -6.640625 10.515625 -6.046875 C 11.203125 -5.460938 11.546875 -4.476562 11.546875 -3.09375 C 11.546875 -1.726562 11.203125 -0.734375 10.515625 -0.109375 C 9.828125 0.515625 8.988281 0.828125 8 0.828125 C 6.988281 0.828125 6.144531 0.515625 5.46875 -0.109375 C 4.800781 -0.734375 4.46875 -1.726562 4.46875 -3.09375 Z M 4.46875 -3.09375 "/></g></g></g></svg>