<svg xmlns="http://www.w3.org/2000/svg" xmlns:xlink="http://www.w3.org/1999/xlink" width="1451" zoomAndPan="magnify" viewBox="0 0 1088.25 503.249994" height="671" preserveAspectRatio="xMidYMid meet" version="1.0"><defs><g/><clipPath id="f9e7d13e99"><path d="M 60 124 L 357 124 L 357 222 L 60 222 Z M 60 124 " clip-rule="nonzero"/></clipPath><clipPath id="510af35296"><path d="M 361.089844 133.707031 L 227.382812 304.84375 L 56.246094 171.136719 L 189.953125 0 Z M 361.089844 133.707031 " clip-rule="nonzero"/></clipPath><clipPath id="7cbff759ad"><path d="M 361.089844 133.707031 L 227.382812 304.84375 L 56.246094 171.136719 L 189.953125 0 Z M 361.089844 133.707031 " clip-rule="nonzero"/></clipPath><clipPath id="4f2e056b53"><path d="M 103.207031 83.25 L 178.09375 83.25 L 178.09375 323 L 103.207031 323 Z M 103.207031 83.25 " clip-rule="nonzero"/></clipPath><clipPath id="c878fa7cac"><path d="M 140.652344 83.25 C 161.332031 83.25 178.09375 100.011719 178.09375 120.695312 L 178.09375 285.449219 C 178.09375 306.128906 161.332031 322.890625 140.652344 322.890625 C 119.972656 322.890625 103.207031 306.128906 103.207031 285.449219 L 103.207031 120.695312 C 103.207031 100.011719 119.972656 83.25 140.652344 83.25 Z M 140.652344 83.25 " clip-rule="nonzero"/></clipPath><clipPath id="847dbe955c"><path d="M 0.207031 0.25 L 75.09375 0.25 L 75.09375 240 L 0.207031 240 Z M 0.207031 0.25 " clip-rule="nonzero"/></clipPath><clipPath id="80afaf19b0"><path d="M 37.652344 0.25 C 58.332031 0.25 75.09375 17.011719 75.09375 37.695312 L 75.09375 202.449219 C 75.09375 223.128906 58.332031 239.890625 37.652344 239.890625 C 16.972656 239.890625 0.207031 223.128906 0.207031 202.449219 L 0.207031 37.695312 C 0.207031 17.011719 16.972656 0.25 37.652344 0.25 Z M 37.652344 0.25 " clip-rule="nonzero"/></clipPath><clipPath id="770a7bc706"><rect x="0" width="76" y="0" height="240"/></clipPath><clipPath id="704ea2aceb"><path d="M 133.164062 98.226562 L 178.09375 98.226562 L 178.09375 143.160156 L 133.164062 143.160156 Z M 133.164062 98.226562 " clip-rule="nonzero"/></clipPath><clipPath id="826b08061c"><path d="M 155.628906 98.226562 C 143.222656 98.226562 133.164062 108.285156 133.164062 120.695312 C 133.164062 133.101562 143.222656 143.160156 155.628906 143.160156 C 168.035156 143.160156 178.09375 133.101562 178.09375 120.695312 C 178.09375 108.285156 168.035156 98.226562 155.628906 98.226562 Z M 155.628906 98.226562 " clip-rule="nonzero"/></clipPath><clipPath id="4e2c63a866"><path d="M 0.164062 0.226562 L 45.09375 0.226562 L 45.09375 45.160156 L 0.164062 45.160156 Z M 0.164062 0.226562 " clip-rule="nonzero"/></clipPath><clipPath id="953f7d9af3"><path d="M 22.628906 0.226562 C 10.222656 0.226562 0.164062 10.285156 0.164062 22.695312 C 0.164062 35.101562 10.222656 45.160156 22.628906 45.160156 C 35.035156 45.160156 45.09375 35.101562 45.09375 22.695312 C 45.09375 10.285156 35.035156 0.226562 22.628906 0.226562 Z M 22.628906 0.226562 " clip-rule="nonzero"/></clipPath><clipPath id="175d712cad"><rect x="0" width="46" y="0" height="46"/></clipPath><clipPath id="288488d8c1"><path d="M 228.019531 53.292969 L 302.910156 53.292969 L 302.910156 352.847656 L 228.019531 352.847656 Z M 228.019531 53.292969 " clip-rule="nonzero"/></clipPath><clipPath id="002d90e770"><path d="M 265.464844 53.292969 C 286.144531 53.292969 302.910156 70.058594 302.910156 90.738281 L 302.910156 315.402344 C 302.910156 336.082031 286.144531 352.847656 265.464844 352.847656 C 244.785156 352.847656 228.019531 336.082031 228.019531 315.402344 L 228.019531 90.738281 C 228.019531 70.058594 244.785156 53.292969 265.464844 53.292969 Z M 265.464844 53.292969 " clip-rule="nonzero"/></clipPath><clipPath id="d687732813"><path d="M 0.0195312 0.292969 L 74.910156 0.292969 L 74.910156 299.847656 L 0.0195312 299.847656 Z M 0.0195312 0.292969 " clip-rule="nonzero"/></clipPath><clipPath id="42e18a90e6"><path d="M 37.464844 0.292969 C 58.144531 0.292969 74.910156 17.058594 74.910156 37.738281 L 74.910156 262.402344 C 74.910156 283.082031 58.144531 299.847656 37.464844 299.847656 C 16.785156 299.847656 0.0195312 283.082031 0.0195312 262.402344 L 0.0195312 37.738281 C 0.0195312 17.058594 16.785156 0.292969 37.464844 0.292969 Z M 37.464844 0.292969 " clip-rule="nonzero"/></clipPath><clipPath id="e16e564d30"><rect x="0" width="75" y="0" height="300"/></clipPath><clipPath id="4e94702a38"><path d="M 228.019531 68.273438 L 272.953125 68.273438 L 272.953125 113.203125 L 228.019531 113.203125 Z M 228.019531 68.273438 " clip-rule="nonzero"/></clipPath><clipPath id="d68b2ee44f"><path d="M 250.488281 68.273438 C 238.078125 68.273438 228.019531 78.332031 228.019531 90.738281 C 228.019531 103.144531 238.078125 113.203125 250.488281 113.203125 C 262.894531 113.203125 272.953125 103.144531 272.953125 90.738281 C 272.953125 78.332031 262.894531 68.273438 250.488281 68.273438 Z M 250.488281 68.273438 " clip-rule="nonzero"/></clipPath><clipPath id="906d4f2dd7"><path d="M 0.0195312 0.273438 L 44.953125 0.273438 L 44.953125 45.203125 L 0.0195312 45.203125 Z M 0.0195312 0.273438 " clip-rule="nonzero"/></clipPath><clipPath id="37b87ee4c3"><path d="M 22.488281 0.273438 C 10.078125 0.273438 0.0195312 10.332031 0.0195312 22.738281 C 0.0195312 35.144531 10.078125 45.203125 22.488281 45.203125 C 34.894531 45.203125 44.953125 35.144531 44.953125 22.738281 C 44.953125 10.332031 34.894531 0.273438 22.488281 0.273438 Z M 22.488281 0.273438 " clip-rule="nonzero"/></clipPath><clipPath id="56df244962"><rect x="0" width="45" y="0" height="46"/></clipPath></defs><g clip-path="url(#f9e7d13e99)"><g clip-path="url(#510af35296)"><g clip-path="url(#7cbff759ad)"><path fill="#006636" d="M 62.902344 162.617188 C 66.578125 157.914062 73.375 157.082031 78.078125 160.753906 C 158.347656 223.46875 274.683594 209.183594 337.398438 128.914062 C 341.070312 124.210938 347.871094 123.375 352.570312 127.050781 C 357.273438 130.726562 358.109375 137.523438 354.433594 142.226562 C 337.289062 164.171875 316.355469 182.117188 292.203125 195.542969 C 268.871094 208.511719 243.570312 216.730469 216.980469 219.996094 C 190.394531 223.261719 163.839844 221.390625 138.078125 214.464844 C 111.394531 207.28125 86.742188 194.9375 64.796875 177.789062 C 60.0625 174.121094 59.230469 167.320312 62.902344 162.617188 Z M 62.902344 162.617188 " fill-opacity="1" fill-rule="nonzero"/></g></g></g><g clip-path="url(#4f2e056b53)"><g clip-path="url(#c878fa7cac)"><g transform="matrix(1, 0, 0, 1, 103, 83)"><g clip-path="url(#770a7bc706)"><g clip-path="url(#847dbe955c)"><g clip-path="url(#80afaf19b0)"><path fill="#006636" d="M 0.207031 0.25 L 75.09375 0.25 L 75.09375 239.832031 L 0.207031 239.832031 Z M 0.207031 0.25 " fill-opacity="1" fill-rule="nonzero"/></g></g></g></g></g></g><g clip-path="url(#704ea2aceb)"><g clip-path="url(#826b08061c)"><g transform="matrix(1, 0, 0, 1, 133, 98)"><g clip-path="url(#175d712cad)"><g clip-path="url(#4e2c63a866)"><g clip-path="url(#953f7d9af3)"><path fill="#ff4500" d="M 0.164062 0.226562 L 45.09375 0.226562 L 45.09375 45.160156 L 0.164062 45.160156 Z M 0.164062 0.226562 " fill-opacity="1" fill-rule="nonzero"/></g></g></g></g><path stroke-linecap="butt" transform="matrix(0.748884, 0, 0, 0.748884, 133.162233, 98.226971)" fill="none" stroke-linejoin="miter" d="M 30.000207 -0.000545478 C 13.433889 -0.000545478 0.00244309 13.4309 0.00244309 30.002435 C 0.00244309 46.568754 13.433889 60.000199 30.000207 60.000199 C 46.566526 60.000199 59.997972 46.568754 59.997972 30.002435 C 59.997972 13.4309 46.566526 -0.000545478 30.000207 -0.000545478 Z M 30.000207 -0.000545478 " stroke="#ffffff" stroke-width="16" stroke-opacity="1" stroke-miterlimit="4"/></g></g><g clip-path="url(#288488d8c1)"><g clip-path="url(#002d90e770)"><g transform="matrix(1, 0, 0, 1, 228, 53)"><g clip-path="url(#e16e564d30)"><g clip-path="url(#d687732813)"><g clip-path="url(#42e18a90e6)"><path fill="#006636" d="M 0.0195312 0.292969 L 74.910156 0.292969 L 74.910156 299.847656 L 0.0195312 299.847656 Z M 0.0195312 0.292969 " fill-opacity="1" fill-rule="nonzero"/></g></g></g></g></g></g><g clip-path="url(#4e94702a38)"><g clip-path="url(#d68b2ee44f)"><g transform="matrix(1, 0, 0, 1, 228, 68)"><g clip-path="url(#56df244962)"><g clip-path="url(#906d4f2dd7)"><g clip-path="url(#37b87ee4c3)"><path fill="#ff4500" d="M 0.0195312 0.273438 L 44.953125 0.273438 L 44.953125 45.203125 L 0.0195312 45.203125 Z M 0.0195312 0.273438 " fill-opacity="1" fill-rule="nonzero"/></g></g></g></g><path stroke-linecap="butt" transform="matrix(0.748884, 0, 0, 0.748884, 228.020884, 68.271615)" fill="none" stroke-linejoin="miter" d="M 30.001174 0.002433 C 13.429639 0.002433 -0.00180681 13.433878 -0.00180681 30.000197 C -0.00180681 46.566516 13.429639 59.997961 30.001174 59.997961 C 46.567492 59.997961 59.998938 46.566516 59.998938 30.000197 C 59.998938 13.433878 46.567492 0.002433 30.001174 0.002433 Z M 30.001174 0.002433 " stroke="#ffffff" stroke-width="16" stroke-opacity="1" stroke-miterlimit="4"/></g></g><g fill="#ff4500" fill-opacity="1"><g transform="translate(427.115264, 197.079644)"><g><path d="M 90.921875 -0.59375 C 89.816406 -0.300781 88.09375 -0.00390625 85.75 0.296875 C 83.40625 0.597656 81.082031 0.75 78.78125 0.75 C 76.488281 0.75 74.46875 0.570312 72.71875 0.21875 C 70.96875 -0.125 69.492188 -0.742188 68.296875 -1.640625 C 67.097656 -2.546875 66.195312 -3.796875 65.59375 -5.390625 C 65 -6.984375 64.703125 -9.082031 64.703125 -11.6875 L 64.703125 -35.046875 L 35.953125 -35.046875 L 35.953125 -0.59375 C 34.847656 -0.300781 33.125 -0.00390625 30.78125 0.296875 C 28.4375 0.597656 26.113281 0.75 23.8125 0.75 C 21.519531 0.75 19.5 0.570312 17.75 0.21875 C 16 -0.125 14.523438 -0.742188 13.328125 -1.640625 C 12.128906 -2.546875 11.226562 -3.796875 10.625 -5.390625 C 10.03125 -6.984375 9.734375 -9.082031 9.734375 -11.6875 L 9.734375 -90.765625 C 10.835938 -90.960938 12.585938 -91.234375 14.984375 -91.578125 C 17.378906 -91.929688 19.675781 -92.109375 21.875 -92.109375 C 24.164062 -92.109375 26.1875 -91.929688 27.9375 -91.578125 C 29.6875 -91.234375 31.160156 -90.613281 32.359375 -89.71875 C 33.554688 -88.820312 34.453125 -87.570312 35.046875 -85.96875 C 35.648438 -84.375 35.953125 -82.28125 35.953125 -79.6875 L 35.953125 -55.71875 L 64.703125 -55.71875 L 64.703125 -90.765625 C 65.804688 -90.960938 67.554688 -91.234375 69.953125 -91.578125 C 72.347656 -91.929688 74.644531 -92.109375 76.84375 -92.109375 C 79.132812 -92.109375 81.15625 -91.929688 82.90625 -91.578125 C 84.65625 -91.234375 86.128906 -90.613281 87.328125 -89.71875 C 88.523438 -88.820312 89.421875 -87.570312 90.015625 -85.96875 C 90.617188 -84.375 90.921875 -82.28125 90.921875 -79.6875 Z M 90.921875 -0.59375 "/></g></g></g><g fill="#ff4500" fill-opacity="1"><g transform="translate(527.765288, 197.079644)"><g><path d="M 29.0625 -88.078125 C 30.757812 -89.066406 33.328125 -90.007812 36.765625 -90.90625 C 40.210938 -91.8125 43.6875 -92.265625 47.1875 -92.265625 C 52.175781 -92.265625 56.59375 -91.539062 60.4375 -90.09375 C 64.28125 -88.644531 66.75 -86.375 67.84375 -83.28125 C 69.644531 -78.082031 71.59375 -72.035156 73.6875 -65.140625 C 75.789062 -58.253906 77.890625 -51.140625 79.984375 -43.796875 C 82.078125 -36.460938 84.125 -29.226562 86.125 -22.09375 C 88.125 -14.957031 89.867188 -8.640625 91.359375 -3.140625 C 90.160156 -1.742188 88.363281 -0.625 85.96875 0.21875 C 83.570312 1.070312 80.726562 1.5 77.4375 1.5 C 75.039062 1.5 73.019531 1.296875 71.375 0.890625 C 69.726562 0.492188 68.378906 -0.0976562 67.328125 -0.890625 C 66.273438 -1.691406 65.425781 -2.738281 64.78125 -4.03125 C 64.132812 -5.332031 63.5625 -6.832031 63.0625 -8.53125 L 60.359375 -18.875 L 33.25 -18.875 C 32.445312 -15.875 31.644531 -12.773438 30.84375 -9.578125 C 30.050781 -6.390625 29.253906 -3.296875 28.453125 -0.296875 C 27.054688 0.203125 25.582031 0.625 24.03125 0.96875 C 22.488281 1.320312 20.617188 1.5 18.421875 1.5 C 13.328125 1.5 9.554688 0.625 7.109375 -1.125 C 4.660156 -2.875 3.4375 -5.296875 3.4375 -8.390625 C 3.4375 -9.785156 3.632812 -11.179688 4.03125 -12.578125 C 4.4375 -13.972656 4.890625 -15.625 5.390625 -17.53125 C 6.085938 -20.21875 7.0625 -23.554688 8.3125 -27.546875 C 9.5625 -31.546875 10.929688 -35.867188 12.421875 -40.515625 C 13.921875 -45.160156 15.519531 -49.925781 17.21875 -54.8125 C 18.914062 -59.707031 20.515625 -64.328125 22.015625 -68.671875 C 23.515625 -73.015625 24.890625 -76.882812 26.140625 -80.28125 C 27.390625 -83.675781 28.363281 -86.273438 29.0625 -88.078125 Z M 47.03125 -68.75 C 45.632812 -64.550781 44.0625 -59.878906 42.3125 -54.734375 C 40.5625 -49.597656 38.988281 -44.382812 37.59375 -39.09375 L 56.171875 -39.09375 C 54.773438 -44.488281 53.351562 -49.753906 51.90625 -54.890625 C 50.457031 -60.035156 49.132812 -64.65625 47.9375 -68.75 Z M 47.03125 -68.75 "/></g></g></g><g fill="#ff4500" fill-opacity="1"><g transform="translate(621.675335, 197.079644)"><g><path d="M 5.546875 -69.796875 C 4.847656 -70.898438 4.195312 -72.398438 3.59375 -74.296875 C 3 -76.191406 2.703125 -78.1875 2.703125 -80.28125 C 2.703125 -84.175781 3.570312 -86.972656 5.3125 -88.671875 C 7.0625 -90.367188 9.332031 -91.21875 12.125 -91.21875 L 77.4375 -91.21875 C 78.132812 -90.113281 78.78125 -88.613281 79.375 -86.71875 C 79.976562 -84.820312 80.28125 -82.828125 80.28125 -80.734375 C 80.28125 -76.835938 79.40625 -74.039062 77.65625 -72.34375 C 75.914062 -70.644531 73.644531 -69.796875 70.84375 -69.796875 L 54.21875 -69.796875 L 54.21875 -0.59375 C 53.125 -0.300781 51.398438 -0.00390625 49.046875 0.296875 C 46.703125 0.597656 44.382812 0.75 42.09375 0.75 C 39.789062 0.75 37.765625 0.570312 36.015625 0.21875 C 34.273438 -0.125 32.804688 -0.742188 31.609375 -1.640625 C 30.410156 -2.546875 29.507812 -3.796875 28.90625 -5.390625 C 28.3125 -6.984375 28.015625 -9.082031 28.015625 -11.6875 L 28.015625 -69.796875 Z M 5.546875 -69.796875 "/></g></g></g><g fill="#ff4500" fill-opacity="1"><g transform="translate(704.951255, 197.079644)"><g><path d="M 90.921875 -0.59375 C 89.816406 -0.300781 88.09375 -0.00390625 85.75 0.296875 C 83.40625 0.597656 81.082031 0.75 78.78125 0.75 C 76.488281 0.75 74.46875 0.570312 72.71875 0.21875 C 70.96875 -0.125 69.492188 -0.742188 68.296875 -1.640625 C 67.097656 -2.546875 66.195312 -3.796875 65.59375 -5.390625 C 65 -6.984375 64.703125 -9.082031 64.703125 -11.6875 L 64.703125 -35.046875 L 35.953125 -35.046875 L 35.953125 -0.59375 C 34.847656 -0.300781 33.125 -0.00390625 30.78125 0.296875 C 28.4375 0.597656 26.113281 0.75 23.8125 0.75 C 21.519531 0.75 19.5 0.570312 17.75 0.21875 C 16 -0.125 14.523438 -0.742188 13.328125 -1.640625 C 12.128906 -2.546875 11.226562 -3.796875 10.625 -5.390625 C 10.03125 -6.984375 9.734375 -9.082031 9.734375 -11.6875 L 9.734375 -90.765625 C 10.835938 -90.960938 12.585938 -91.234375 14.984375 -91.578125 C 17.378906 -91.929688 19.675781 -92.109375 21.875 -92.109375 C 24.164062 -92.109375 26.1875 -91.929688 27.9375 -91.578125 C 29.6875 -91.234375 31.160156 -90.613281 32.359375 -89.71875 C 33.554688 -88.820312 34.453125 -87.570312 35.046875 -85.96875 C 35.648438 -84.375 35.953125 -82.28125 35.953125 -79.6875 L 35.953125 -55.71875 L 64.703125 -55.71875 L 64.703125 -90.765625 C 65.804688 -90.960938 67.554688 -91.234375 69.953125 -91.578125 C 72.347656 -91.929688 74.644531 -92.109375 76.84375 -92.109375 C 79.132812 -92.109375 81.15625 -91.929688 82.90625 -91.578125 C 84.65625 -91.234375 86.128906 -90.613281 87.328125 -89.71875 C 88.523438 -88.820312 89.421875 -87.570312 90.015625 -85.96875 C 90.617188 -84.375 90.921875 -82.28125 90.921875 -79.6875 Z M 90.921875 -0.59375 "/></g></g></g><g fill="#ff4500" fill-opacity="1"><g transform="translate(805.601291, 197.079644)"><g><path d="M 57.359375 -0.59375 C 56.265625 -0.300781 54.566406 -0.00390625 52.265625 0.296875 C 49.972656 0.597656 47.726562 0.75 45.53125 0.75 C 40.9375 0.75 37.488281 -0.0195312 35.1875 -1.5625 C 32.894531 -3.113281 31.75 -6.390625 31.75 -11.390625 L 31.75 -31.609375 C 29.257812 -35.296875 26.566406 -39.382812 23.671875 -43.875 C 20.773438 -48.375 17.925781 -52.96875 15.125 -57.65625 C 12.332031 -62.351562 9.738281 -66.972656 7.34375 -71.515625 C 4.945312 -76.054688 3 -80.226562 1.5 -84.03125 C 2.789062 -85.820312 4.5625 -87.46875 6.8125 -88.96875 C 9.0625 -90.46875 11.832031 -91.21875 15.125 -91.21875 C 19.019531 -91.21875 22.191406 -90.414062 24.640625 -88.8125 C 27.085938 -87.21875 29.410156 -84.222656 31.609375 -79.828125 L 44.03125 -54.8125 L 44.9375 -54.8125 C 46.332031 -57.914062 47.550781 -60.738281 48.59375 -63.28125 C 49.644531 -65.832031 50.671875 -68.378906 51.671875 -70.921875 C 52.671875 -73.460938 53.71875 -76.109375 54.8125 -78.859375 C 55.914062 -81.609375 57.164062 -84.78125 58.5625 -88.375 C 60.363281 -89.269531 62.359375 -89.96875 64.546875 -90.46875 C 66.742188 -90.96875 68.84375 -91.21875 70.84375 -91.21875 C 74.34375 -91.21875 77.3125 -90.289062 79.75 -88.4375 C 82.195312 -86.59375 83.421875 -83.828125 83.421875 -80.140625 C 83.421875 -78.929688 83.171875 -77.476562 82.671875 -75.78125 C 82.179688 -74.09375 81.035156 -71.523438 79.234375 -68.078125 C 77.429688 -64.628906 74.804688 -59.957031 71.359375 -54.0625 C 67.921875 -48.175781 63.253906 -40.488281 57.359375 -31 Z M 57.359375 -0.59375 "/></g></g></g><g fill="#ff4500" fill-opacity="1"><g transform="translate(891.573198, 197.079644)"><g><path d="M 5.25 -45.53125 C 5.25 -53.320312 6.46875 -60.210938 8.90625 -66.203125 C 11.351562 -72.191406 14.695312 -77.207031 18.9375 -81.25 C 23.1875 -85.300781 28.179688 -88.375 33.921875 -90.46875 C 39.660156 -92.5625 45.878906 -93.609375 52.578125 -93.609375 C 59.265625 -93.609375 65.476562 -92.5625 71.21875 -90.46875 C 76.957031 -88.375 81.972656 -85.300781 86.265625 -81.25 C 90.566406 -77.207031 93.9375 -72.191406 96.375 -66.203125 C 98.820312 -60.210938 100.046875 -53.320312 100.046875 -45.53125 C 100.046875 -37.738281 98.847656 -30.820312 96.453125 -24.78125 C 94.054688 -18.75 90.738281 -13.707031 86.5 -9.65625 C 82.257812 -5.613281 77.242188 -2.539062 71.453125 -0.4375 C 65.660156 1.65625 59.367188 2.703125 52.578125 2.703125 C 45.785156 2.703125 39.492188 1.628906 33.703125 -0.515625 C 27.910156 -2.671875 22.914062 -5.796875 18.71875 -9.890625 C 14.53125 -13.984375 11.238281 -19.023438 8.84375 -25.015625 C 6.445312 -31.003906 5.25 -37.84375 5.25 -45.53125 Z M 32.203125 -45.53125 C 32.203125 -36.445312 34.046875 -29.65625 37.734375 -25.15625 C 41.429688 -20.664062 46.378906 -18.421875 52.578125 -18.421875 C 58.867188 -18.421875 63.859375 -20.664062 67.546875 -25.15625 C 71.242188 -29.65625 73.09375 -36.445312 73.09375 -45.53125 C 73.09375 -54.519531 71.269531 -61.257812 67.625 -65.75 C 63.976562 -70.25 59.007812 -72.5 52.71875 -72.5 C 46.53125 -72.5 41.5625 -70.273438 37.8125 -65.828125 C 34.070312 -61.378906 32.203125 -54.613281 32.203125 -45.53125 Z M 32.203125 -45.53125 "/></g></g></g><g fill="#006636" fill-opacity="1"><g transform="translate(433.270153, 292.762387)"><g><path d="M 38.90625 0 L 33.84375 0 L 33.84375 -20.484375 L 11 -20.484375 L 11 0 L 5.953125 0 L 5.953125 -43.484375 L 11 -43.484375 L 11 -24.953125 L 33.84375 -24.953125 L 33.84375 -43.484375 L 38.90625 -43.484375 Z M 38.90625 0 "/></g></g></g><g fill="#006636" fill-opacity="1"><g transform="translate(478.175933, 292.762387)"><g><path d="M 17.390625 -33.125 C 21.273438 -33.125 24.160156 -32.25 26.046875 -30.5 C 27.929688 -28.757812 28.875 -25.976562 28.875 -22.15625 L 28.875 0 L 25.28125 0 L 24.328125 -4.8125 L 24.09375 -4.8125 C 23.175781 -3.625 22.222656 -2.628906 21.234375 -1.828125 C 20.242188 -1.023438 19.097656 -0.421875 17.796875 -0.015625 C 16.492188 0.390625 14.90625 0.59375 13.03125 0.59375 C 11.039062 0.59375 9.273438 0.25 7.734375 -0.4375 C 6.203125 -1.132812 4.992188 -2.1875 4.109375 -3.59375 C 3.234375 -5 2.796875 -6.785156 2.796875 -8.953125 C 2.796875 -12.203125 4.082031 -14.695312 6.65625 -16.4375 C 9.238281 -18.1875 13.164062 -19.140625 18.4375 -19.296875 L 24.0625 -19.53125 L 24.0625 -21.53125 C 24.0625 -24.34375 23.457031 -26.3125 22.25 -27.4375 C 21.039062 -28.570312 19.332031 -29.140625 17.125 -29.140625 C 15.425781 -29.140625 13.800781 -28.890625 12.25 -28.390625 C 10.707031 -27.898438 9.238281 -27.316406 7.84375 -26.640625 L 6.328125 -30.390625 C 7.796875 -31.148438 9.484375 -31.796875 11.390625 -32.328125 C 13.296875 -32.859375 15.296875 -33.125 17.390625 -33.125 Z M 24 -16.0625 L 19.03125 -15.84375 C 14.96875 -15.6875 12.101562 -15.023438 10.4375 -13.859375 C 8.769531 -12.691406 7.9375 -11.035156 7.9375 -8.890625 C 7.9375 -7.023438 8.5 -5.644531 9.625 -4.75 C 10.757812 -3.863281 12.257812 -3.421875 14.125 -3.421875 C 17.019531 -3.421875 19.390625 -4.222656 21.234375 -5.828125 C 23.078125 -7.429688 24 -9.84375 24 -13.0625 Z M 24 -16.0625 "/></g></g></g><g fill="#006636" fill-opacity="1"><g transform="translate(512.018832, 292.762387)"><g><path d="M 20.515625 -33.1875 C 24.578125 -33.1875 27.816406 -31.785156 30.234375 -28.984375 C 32.660156 -26.191406 33.875 -21.992188 33.875 -16.390625 C 33.875 -12.679688 33.316406 -9.566406 32.203125 -7.046875 C 31.097656 -4.523438 29.535156 -2.617188 27.515625 -1.328125 C 25.503906 -0.046875 23.132812 0.59375 20.40625 0.59375 C 18.675781 0.59375 17.15625 0.367188 15.84375 -0.078125 C 14.539062 -0.535156 13.421875 -1.148438 12.484375 -1.921875 C 11.554688 -2.703125 10.785156 -3.546875 10.171875 -4.453125 L 9.8125 -4.453125 C 9.875 -3.679688 9.945312 -2.75 10.03125 -1.65625 C 10.125 -0.570312 10.171875 0.375 10.171875 1.1875 L 10.171875 14.578125 L 5.203125 14.578125 L 5.203125 -32.59375 L 9.28125 -32.59375 L 9.9375 -27.78125 L 10.171875 -27.78125 C 10.804688 -28.769531 11.578125 -29.675781 12.484375 -30.5 C 13.398438 -31.320312 14.515625 -31.972656 15.828125 -32.453125 C 17.148438 -32.941406 18.710938 -33.1875 20.515625 -33.1875 Z M 19.65625 -29.03125 C 17.394531 -29.03125 15.578125 -28.59375 14.203125 -27.71875 C 12.828125 -26.84375 11.820312 -25.535156 11.1875 -23.796875 C 10.550781 -22.066406 10.210938 -19.894531 10.171875 -17.28125 L 10.171875 -16.328125 C 10.171875 -13.566406 10.472656 -11.234375 11.078125 -9.328125 C 11.679688 -7.429688 12.679688 -5.988281 14.078125 -5 C 15.472656 -4.007812 17.351562 -3.515625 19.71875 -3.515625 C 21.738281 -3.515625 23.421875 -4.054688 24.765625 -5.140625 C 26.117188 -6.234375 27.125 -7.753906 27.78125 -9.703125 C 28.445312 -11.660156 28.78125 -13.910156 28.78125 -16.453125 C 28.78125 -20.296875 28.03125 -23.351562 26.53125 -25.625 C 25.039062 -27.894531 22.75 -29.03125 19.65625 -29.03125 Z M 19.65625 -29.03125 "/></g></g></g><g fill="#006636" fill-opacity="1"><g transform="translate(549.281713, 292.762387)"><g><path d="M 20.515625 -33.1875 C 24.578125 -33.1875 27.816406 -31.785156 30.234375 -28.984375 C 32.660156 -26.191406 33.875 -21.992188 33.875 -16.390625 C 33.875 -12.679688 33.316406 -9.566406 32.203125 -7.046875 C 31.097656 -4.523438 29.535156 -2.617188 27.515625 -1.328125 C 25.503906 -0.046875 23.132812 0.59375 20.40625 0.59375 C 18.675781 0.59375 17.15625 0.367188 15.84375 -0.078125 C 14.539062 -0.535156 13.421875 -1.148438 12.484375 -1.921875 C 11.554688 -2.703125 10.785156 -3.546875 10.171875 -4.453125 L 9.8125 -4.453125 C 9.875 -3.679688 9.945312 -2.75 10.03125 -1.65625 C 10.125 -0.570312 10.171875 0.375 10.171875 1.1875 L 10.171875 14.578125 L 5.203125 14.578125 L 5.203125 -32.59375 L 9.28125 -32.59375 L 9.9375 -27.78125 L 10.171875 -27.78125 C 10.804688 -28.769531 11.578125 -29.675781 12.484375 -30.5 C 13.398438 -31.320312 14.515625 -31.972656 15.828125 -32.453125 C 17.148438 -32.941406 18.710938 -33.1875 20.515625 -33.1875 Z M 19.65625 -29.03125 C 17.394531 -29.03125 15.578125 -28.59375 14.203125 -27.71875 C 12.828125 -26.84375 11.820312 -25.535156 11.1875 -23.796875 C 10.550781 -22.066406 10.210938 -19.894531 10.171875 -17.28125 L 10.171875 -16.328125 C 10.171875 -13.566406 10.472656 -11.234375 11.078125 -9.328125 C 11.679688 -7.429688 12.679688 -5.988281 14.078125 -5 C 15.472656 -4.007812 17.351562 -3.515625 19.71875 -3.515625 C 21.738281 -3.515625 23.421875 -4.054688 24.765625 -5.140625 C 26.117188 -6.234375 27.125 -7.753906 27.78125 -9.703125 C 28.445312 -11.660156 28.78125 -13.910156 28.78125 -16.453125 C 28.78125 -20.296875 28.03125 -23.351562 26.53125 -25.625 C 25.039062 -27.894531 22.75 -29.03125 19.65625 -29.03125 Z M 19.65625 -29.03125 "/></g></g></g><g fill="#006636" fill-opacity="1"><g transform="translate(586.544595, 292.762387)"><g><path d="M 0.0625 -32.59375 L 5.359375 -32.59375 L 12.546875 -13.6875 C 12.960938 -12.570312 13.347656 -11.503906 13.703125 -10.484375 C 14.066406 -9.460938 14.382812 -8.484375 14.65625 -7.546875 C 14.9375 -6.617188 15.15625 -5.71875 15.3125 -4.84375 L 15.53125 -4.84375 C 15.800781 -5.832031 16.191406 -7.132812 16.703125 -8.75 C 17.222656 -10.375 17.78125 -12.023438 18.375 -13.703125 L 25.1875 -32.59375 L 30.515625 -32.59375 L 16.328125 4.78125 C 15.578125 6.789062 14.695312 8.535156 13.6875 10.015625 C 12.6875 11.503906 11.472656 12.648438 10.046875 13.453125 C 8.617188 14.253906 6.894531 14.65625 4.875 14.65625 C 3.945312 14.65625 3.125 14.597656 2.40625 14.484375 C 1.695312 14.378906 1.082031 14.257812 0.5625 14.125 L 0.5625 10.171875 C 1 10.265625 1.53125 10.351562 2.15625 10.4375 C 2.78125 10.519531 3.429688 10.5625 4.109375 10.5625 C 5.335938 10.5625 6.398438 10.328125 7.296875 9.859375 C 8.203125 9.390625 8.976562 8.707031 9.625 7.8125 C 10.28125 6.925781 10.847656 5.867188 11.328125 4.640625 L 13.109375 0.0625 Z M 0.0625 -32.59375 "/></g></g></g><g fill="#006636" fill-opacity="1"><g transform="translate(617.056733, 292.762387)"><g/></g></g><g fill="#006636" fill-opacity="1"><g transform="translate(632.877831, 292.762387)"><g><path d="M 38.90625 0 L 33.84375 0 L 33.84375 -20.484375 L 11 -20.484375 L 11 0 L 5.953125 0 L 5.953125 -43.484375 L 11 -43.484375 L 11 -24.953125 L 33.84375 -24.953125 L 33.84375 -43.484375 L 38.90625 -43.484375 Z M 38.90625 0 "/></g></g></g><g fill="#006636" fill-opacity="1"><g transform="translate(677.783622, 292.762387)"><g><path d="M 17.75 -33.1875 C 20.53125 -33.1875 22.910156 -32.570312 24.890625 -31.34375 C 26.867188 -30.113281 28.382812 -28.394531 29.4375 -26.1875 C 30.488281 -23.976562 31.015625 -21.394531 31.015625 -18.4375 L 31.015625 -15.375 L 8.5 -15.375 C 8.5625 -11.550781 9.515625 -8.632812 11.359375 -6.625 C 13.203125 -4.625 15.800781 -3.625 19.15625 -3.625 C 21.21875 -3.625 23.039062 -3.8125 24.625 -4.1875 C 26.207031 -4.570312 27.851562 -5.128906 29.5625 -5.859375 L 29.5625 -1.515625 C 27.914062 -0.785156 26.285156 -0.253906 24.671875 0.078125 C 23.054688 0.421875 21.144531 0.59375 18.9375 0.59375 C 15.8125 0.59375 13.082031 -0.0390625 10.75 -1.3125 C 8.414062 -2.59375 6.601562 -4.472656 5.3125 -6.953125 C 4.03125 -9.429688 3.390625 -12.46875 3.390625 -16.0625 C 3.390625 -19.570312 3.976562 -22.609375 5.15625 -25.171875 C 6.332031 -27.742188 7.992188 -29.722656 10.140625 -31.109375 C 12.296875 -32.492188 14.832031 -33.1875 17.75 -33.1875 Z M 17.6875 -29.140625 C 15.050781 -29.140625 12.953125 -28.273438 11.390625 -26.546875 C 9.828125 -24.828125 8.894531 -22.421875 8.59375 -19.328125 L 25.84375 -19.328125 C 25.820312 -21.273438 25.519531 -22.984375 24.9375 -24.453125 C 24.351562 -25.929688 23.460938 -27.082031 22.265625 -27.90625 C 21.078125 -28.726562 19.550781 -29.140625 17.6875 -29.140625 Z M 17.6875 -29.140625 "/></g></g></g><g fill="#006636" fill-opacity="1"><g transform="translate(711.9834, 292.762387)"><g><path d="M 17.390625 -33.125 C 21.273438 -33.125 24.160156 -32.25 26.046875 -30.5 C 27.929688 -28.757812 28.875 -25.976562 28.875 -22.15625 L 28.875 0 L 25.28125 0 L 24.328125 -4.8125 L 24.09375 -4.8125 C 23.175781 -3.625 22.222656 -2.628906 21.234375 -1.828125 C 20.242188 -1.023438 19.097656 -0.421875 17.796875 -0.015625 C 16.492188 0.390625 14.90625 0.59375 13.03125 0.59375 C 11.039062 0.59375 9.273438 0.25 7.734375 -0.4375 C 6.203125 -1.132812 4.992188 -2.1875 4.109375 -3.59375 C 3.234375 -5 2.796875 -6.785156 2.796875 -8.953125 C 2.796875 -12.203125 4.082031 -14.695312 6.65625 -16.4375 C 9.238281 -18.1875 13.164062 -19.140625 18.4375 -19.296875 L 24.0625 -19.53125 L 24.0625 -21.53125 C 24.0625 -24.34375 23.457031 -26.3125 22.25 -27.4375 C 21.039062 -28.570312 19.332031 -29.140625 17.125 -29.140625 C 15.425781 -29.140625 13.800781 -28.890625 12.25 -28.390625 C 10.707031 -27.898438 9.238281 -27.316406 7.84375 -26.640625 L 6.328125 -30.390625 C 7.796875 -31.148438 9.484375 -31.796875 11.390625 -32.328125 C 13.296875 -32.859375 15.296875 -33.125 17.390625 -33.125 Z M 24 -16.0625 L 19.03125 -15.84375 C 14.96875 -15.6875 12.101562 -15.023438 10.4375 -13.859375 C 8.769531 -12.691406 7.9375 -11.035156 7.9375 -8.890625 C 7.9375 -7.023438 8.5 -5.644531 9.625 -4.75 C 10.757812 -3.863281 12.257812 -3.421875 14.125 -3.421875 C 17.019531 -3.421875 19.390625 -4.222656 21.234375 -5.828125 C 23.078125 -7.429688 24 -9.84375 24 -13.0625 Z M 24 -16.0625 "/></g></g></g><g fill="#006636" fill-opacity="1"><g transform="translate(745.826288, 292.762387)"><g><path d="M 10.171875 0 L 5.203125 0 L 5.203125 -46.28125 L 10.171875 -46.28125 Z M 10.171875 0 "/></g></g></g><g fill="#006636" fill-opacity="1"><g transform="translate(761.201307, 292.762387)"><g><path d="M 15.734375 -3.453125 C 16.546875 -3.453125 17.378906 -3.519531 18.234375 -3.65625 C 19.085938 -3.789062 19.78125 -3.957031 20.3125 -4.15625 L 20.3125 -0.328125 C 19.738281 -0.0664062 18.941406 0.148438 17.921875 0.328125 C 16.898438 0.503906 15.898438 0.59375 14.921875 0.59375 C 13.203125 0.59375 11.640625 0.289062 10.234375 -0.3125 C 8.828125 -0.914062 7.703125 -1.941406 6.859375 -3.390625 C 6.015625 -4.835938 5.59375 -6.835938 5.59375 -9.390625 L 5.59375 -28.734375 L 0.953125 -28.734375 L 0.953125 -31.140625 L 5.625 -33.0625 L 7.578125 -40.140625 L 10.5625 -40.140625 L 10.5625 -32.59375 L 20.109375 -32.59375 L 20.109375 -28.734375 L 10.5625 -28.734375 L 10.5625 -9.546875 C 10.5625 -7.503906 11.03125 -5.976562 11.96875 -4.96875 C 12.90625 -3.957031 14.160156 -3.453125 15.734375 -3.453125 Z M 15.734375 -3.453125 "/></g></g></g><g fill="#006636" fill-opacity="1"><g transform="translate(782.910735, 292.762387)"><g><path d="M 10.140625 -46.28125 L 10.140625 -32.453125 C 10.140625 -31.648438 10.117188 -30.847656 10.078125 -30.046875 C 10.035156 -29.242188 9.96875 -28.507812 9.875 -27.84375 L 10.203125 -27.84375 C 10.878906 -28.988281 11.734375 -29.953125 12.765625 -30.734375 C 13.804688 -31.515625 14.988281 -32.109375 16.3125 -32.515625 C 17.644531 -32.921875 19.054688 -33.125 20.546875 -33.125 C 23.160156 -33.125 25.34375 -32.707031 27.09375 -31.875 C 28.851562 -31.039062 30.175781 -29.75 31.0625 -28 C 31.945312 -26.257812 32.390625 -24.003906 32.390625 -21.234375 L 32.390625 0 L 27.515625 0 L 27.515625 -20.90625 C 27.515625 -23.625 26.894531 -25.65625 25.65625 -27 C 24.414062 -28.351562 22.515625 -29.03125 19.953125 -29.03125 C 17.535156 -29.03125 15.609375 -28.566406 14.171875 -27.640625 C 12.734375 -26.722656 11.703125 -25.367188 11.078125 -23.578125 C 10.453125 -21.796875 10.140625 -19.617188 10.140625 -17.046875 L 10.140625 0 L 5.203125 0 L 5.203125 -46.28125 Z M 10.140625 -46.28125 "/></g></g></g><g fill="#006636" fill-opacity="1"><g transform="translate(820.262851, 292.762387)"><g><path d="M 0.0625 -32.59375 L 5.359375 -32.59375 L 12.546875 -13.6875 C 12.960938 -12.570312 13.347656 -11.503906 13.703125 -10.484375 C 14.066406 -9.460938 14.382812 -8.484375 14.65625 -7.546875 C 14.9375 -6.617188 15.15625 -5.71875 15.3125 -4.84375 L 15.53125 -4.84375 C 15.800781 -5.832031 16.191406 -7.132812 16.703125 -8.75 C 17.222656 -10.375 17.78125 -12.023438 18.375 -13.703125 L 25.1875 -32.59375 L 30.515625 -32.59375 L 16.328125 4.78125 C 15.578125 6.789062 14.695312 8.535156 13.6875 10.015625 C 12.6875 11.503906 11.472656 12.648438 10.046875 13.453125 C 8.617188 14.253906 6.894531 14.65625 4.875 14.65625 C 3.945312 14.65625 3.125 14.597656 2.40625 14.484375 C 1.695312 14.378906 1.082031 14.257812 0.5625 14.125 L 0.5625 10.171875 C 1 10.265625 1.53125 10.351562 2.15625 10.4375 C 2.78125 10.519531 3.429688 10.5625 4.109375 10.5625 C 5.335938 10.5625 6.398438 10.328125 7.296875 9.859375 C 8.203125 9.390625 8.976562 8.707031 9.625 7.8125 C 10.28125 6.925781 10.847656 5.867188 11.328125 4.640625 L 13.109375 0.0625 Z M 0.0625 -32.59375 "/></g></g></g><g fill="#006636" fill-opacity="1"><g transform="translate(850.774978, 292.762387)"><g/></g></g><g fill="#006636" fill-opacity="1"><g transform="translate(866.596065, 292.762387)"><g><path d="M 17.046875 -21.6875 L 28.609375 -43.484375 L 34.046875 -43.484375 L 19.5625 -16.859375 L 19.5625 0 L 14.515625 0 L 14.515625 -16.625 L 0 -43.484375 L 5.53125 -43.484375 Z M 17.046875 -21.6875 "/></g></g></g><g fill="#006636" fill-opacity="1"><g transform="translate(900.647153, 292.762387)"><g><path d="M 33.3125 -16.359375 C 33.3125 -13.679688 32.960938 -11.289062 32.265625 -9.1875 C 31.566406 -7.082031 30.5625 -5.304688 29.25 -3.859375 C 27.945312 -2.410156 26.367188 -1.304688 24.515625 -0.546875 C 22.660156 0.210938 20.566406 0.59375 18.234375 0.59375 C 16.046875 0.59375 14.046875 0.210938 12.234375 -0.546875 C 10.421875 -1.304688 8.851562 -2.410156 7.53125 -3.859375 C 6.21875 -5.304688 5.195312 -7.082031 4.46875 -9.1875 C 3.75 -11.289062 3.390625 -13.679688 3.390625 -16.359375 C 3.390625 -19.921875 3.992188 -22.957031 5.203125 -25.46875 C 6.410156 -27.976562 8.140625 -29.890625 10.390625 -31.203125 C 12.640625 -32.523438 15.320312 -33.1875 18.4375 -33.1875 C 21.414062 -33.1875 24.019531 -32.519531 26.25 -31.1875 C 28.476562 -29.863281 30.210938 -27.945312 31.453125 -25.4375 C 32.691406 -22.9375 33.3125 -19.910156 33.3125 -16.359375 Z M 8.5 -16.359375 C 8.5 -13.742188 8.847656 -11.472656 9.546875 -9.546875 C 10.242188 -7.617188 11.3125 -6.128906 12.75 -5.078125 C 14.195312 -4.035156 16.0625 -3.515625 18.34375 -3.515625 C 20.601562 -3.515625 22.460938 -4.035156 23.921875 -5.078125 C 25.378906 -6.128906 26.453125 -7.617188 27.140625 -9.546875 C 27.835938 -11.472656 28.1875 -13.742188 28.1875 -16.359375 C 28.1875 -18.953125 27.835938 -21.195312 27.140625 -23.09375 C 26.453125 -24.988281 25.382812 -26.453125 23.9375 -27.484375 C 22.488281 -28.515625 20.613281 -29.03125 18.3125 -29.03125 C 14.925781 -29.03125 12.441406 -27.90625 10.859375 -25.65625 C 9.285156 -23.414062 8.5 -20.316406 8.5 -16.359375 Z M 8.5 -16.359375 "/></g></g></g><g fill="#006636" fill-opacity="1"><g transform="translate(937.285511, 292.762387)"><g><path d="M 32.125 -32.59375 L 32.125 0 L 28.078125 0 L 27.359375 -4.578125 L 27.09375 -4.578125 C 26.414062 -3.453125 25.539062 -2.5 24.46875 -1.71875 C 23.40625 -0.945312 22.203125 -0.367188 20.859375 0.015625 C 19.523438 0.398438 18.101562 0.59375 16.59375 0.59375 C 14.019531 0.59375 11.859375 0.175781 10.109375 -0.65625 C 8.367188 -1.488281 7.054688 -2.773438 6.171875 -4.515625 C 5.285156 -6.265625 4.84375 -8.503906 4.84375 -11.234375 L 4.84375 -32.59375 L 9.84375 -32.59375 L 9.84375 -11.59375 C 9.84375 -8.882812 10.457031 -6.859375 11.6875 -5.515625 C 12.914062 -4.179688 14.789062 -3.515625 17.3125 -3.515625 C 19.726562 -3.515625 21.65625 -3.96875 23.09375 -4.875 C 24.53125 -5.789062 25.566406 -7.132812 26.203125 -8.90625 C 26.835938 -10.675781 27.15625 -12.851562 27.15625 -15.4375 L 27.15625 -32.59375 Z M 32.125 -32.59375 "/></g></g></g><g fill="#006636" fill-opacity="1"><g transform="translate(974.637603, 292.762387)"><g><path d="M 9.671875 -12.078125 L 6.421875 -12.078125 L 5.0625 -43.484375 L 11.03125 -43.484375 Z M 4.453125 -3.09375 C 4.453125 -4.476562 4.789062 -5.460938 5.46875 -6.046875 C 6.144531 -6.628906 6.988281 -6.921875 8 -6.921875 C 8.988281 -6.921875 9.820312 -6.628906 10.5 -6.046875 C 11.1875 -5.460938 11.53125 -4.476562 11.53125 -3.09375 C 11.53125 -1.726562 11.1875 -0.734375 10.5 -0.109375 C 9.820312 0.515625 8.988281 0.828125 8 0.828125 C 6.988281 0.828125 6.144531 0.515625 5.46875 -0.109375 C 4.789062 -0.734375 4.453125 -1.726562 4.453125 -3.09375 Z M 4.453125 -3.09375 "/></g></g></g><g fill="#006636" fill-opacity="1"><g transform="translate(43.036342, 454.19648)"><g><path d="M 48.265625 -35.640625 L 39.203125 0 L 30.59375 0 L 25.765625 -18.71875 C 25.671875 -19.070312 25.539062 -19.613281 25.375 -20.34375 C 25.207031 -21.082031 25.035156 -21.882812 24.859375 -22.75 C 24.679688 -23.625 24.523438 -24.445312 24.390625 -25.21875 C 24.253906 -25.988281 24.160156 -26.601562 24.109375 -27.0625 C 24.054688 -26.601562 23.960938 -25.988281 23.828125 -25.21875 C 23.691406 -24.457031 23.535156 -23.644531 23.359375 -22.78125 C 23.191406 -21.925781 23.023438 -21.125 22.859375 -20.375 C 22.703125 -19.625 22.570312 -19.054688 22.46875 -18.671875 L 17.671875 0 L 9.09375 0 L 0 -35.640625 L 7.4375 -35.640625 L 12 -16.1875 C 12.125 -15.601562 12.269531 -14.90625 12.4375 -14.09375 C 12.613281 -13.28125 12.785156 -12.429688 12.953125 -11.546875 C 13.128906 -10.660156 13.285156 -9.804688 13.421875 -8.984375 C 13.554688 -8.160156 13.65625 -7.445312 13.71875 -6.84375 C 13.800781 -7.46875 13.90625 -8.1875 14.03125 -9 C 14.164062 -9.820312 14.3125 -10.660156 14.46875 -11.515625 C 14.625 -12.367188 14.78125 -13.160156 14.9375 -13.890625 C 15.101562 -14.617188 15.25 -15.210938 15.375 -15.671875 L 20.578125 -35.640625 L 27.71875 -35.640625 L 32.90625 -15.671875 C 33.019531 -15.234375 33.15625 -14.644531 33.3125 -13.90625 C 33.46875 -13.164062 33.625 -12.363281 33.78125 -11.5 C 33.945312 -10.644531 34.097656 -9.804688 34.234375 -8.984375 C 34.367188 -8.160156 34.472656 -7.445312 34.546875 -6.84375 C 34.660156 -7.65625 34.816406 -8.640625 35.015625 -9.796875 C 35.222656 -10.960938 35.441406 -12.125 35.671875 -13.28125 C 35.910156 -14.4375 36.117188 -15.40625 36.296875 -16.1875 L 40.828125 -35.640625 Z M 48.265625 -35.640625 "/></g></g></g><g fill="#006636" fill-opacity="1"><g transform="translate(91.296707, 454.19648)"><g><path d="M 25.015625 0 L 4.484375 0 L 4.484375 -35.640625 L 25.015625 -35.640625 L 25.015625 -29.453125 L 12.046875 -29.453125 L 12.046875 -21.625 L 24.109375 -21.625 L 24.109375 -15.4375 L 12.046875 -15.4375 L 12.046875 -6.234375 L 25.015625 -6.234375 Z M 25.015625 0 "/></g></g></g><g fill="#006636" fill-opacity="1"><g transform="translate(119.253596, 454.19648)"><g><path d="M 4.484375 0 L 4.484375 -35.640625 L 12.046875 -35.640625 L 12.046875 -6.234375 L 26.5 -6.234375 L 26.5 0 Z M 4.484375 0 "/></g></g></g><g fill="#006636" fill-opacity="1"><g transform="translate(147.454223, 454.19648)"><g><path d="M 4.484375 0 L 4.484375 -35.640625 L 12.046875 -35.640625 L 12.046875 -6.234375 L 26.5 -6.234375 L 26.5 0 Z M 4.484375 0 "/></g></g></g><g fill="#006636" fill-opacity="1"><g transform="translate(175.654851, 454.19648)"><g><path d="M 36.09375 0 L 26.5 0 L 11 -26.953125 L 10.78125 -26.953125 C 10.84375 -25.835938 10.894531 -24.707031 10.9375 -23.5625 C 10.988281 -22.425781 11.039062 -21.296875 11.09375 -20.171875 C 11.144531 -19.046875 11.191406 -17.910156 11.234375 -16.765625 L 11.234375 0 L 4.484375 0 L 4.484375 -35.640625 L 14.015625 -35.640625 L 29.5 -8.953125 L 29.671875 -8.953125 C 29.628906 -10.054688 29.582031 -11.148438 29.53125 -12.234375 C 29.488281 -13.328125 29.445312 -14.414062 29.40625 -15.5 C 29.363281 -16.59375 29.328125 -17.679688 29.296875 -18.765625 L 29.296875 -35.640625 L 36.09375 -35.640625 Z M 36.09375 0 "/></g></g></g><g fill="#006636" fill-opacity="1"><g transform="translate(216.237431, 454.19648)"><g><path d="M 25.015625 0 L 4.484375 0 L 4.484375 -35.640625 L 25.015625 -35.640625 L 25.015625 -29.453125 L 12.046875 -29.453125 L 12.046875 -21.625 L 24.109375 -21.625 L 24.109375 -15.4375 L 12.046875 -15.4375 L 12.046875 -6.234375 L 25.015625 -6.234375 Z M 25.015625 0 "/></g></g></g><g fill="#006636" fill-opacity="1"><g transform="translate(244.194307, 454.19648)"><g><path d="M 25.515625 -9.890625 C 25.515625 -7.785156 25.003906 -5.953125 23.984375 -4.390625 C 22.960938 -2.828125 21.472656 -1.625 19.515625 -0.78125 C 17.554688 0.0625 15.179688 0.484375 12.390625 0.484375 C 11.148438 0.484375 9.941406 0.398438 8.765625 0.234375 C 7.585938 0.078125 6.457031 -0.15625 5.375 -0.46875 C 4.289062 -0.789062 3.265625 -1.1875 2.296875 -1.65625 L 2.296875 -8.671875 C 3.984375 -7.929688 5.734375 -7.257812 7.546875 -6.65625 C 9.367188 -6.050781 11.175781 -5.75 12.96875 -5.75 C 14.207031 -5.75 15.203125 -5.910156 15.953125 -6.234375 C 16.710938 -6.566406 17.257812 -7.015625 17.59375 -7.578125 C 17.9375 -8.148438 18.109375 -8.800781 18.109375 -9.53125 C 18.109375 -10.425781 17.804688 -11.1875 17.203125 -11.8125 C 16.609375 -12.445312 15.785156 -13.039062 14.734375 -13.59375 C 13.679688 -14.15625 12.5 -14.75 11.1875 -15.375 C 10.363281 -15.769531 9.460938 -16.242188 8.484375 -16.796875 C 7.503906 -17.359375 6.578125 -18.046875 5.703125 -18.859375 C 4.828125 -19.671875 4.109375 -20.660156 3.546875 -21.828125 C 2.984375 -22.992188 2.703125 -24.390625 2.703125 -26.015625 C 2.703125 -28.140625 3.1875 -29.957031 4.15625 -31.46875 C 5.132812 -32.976562 6.53125 -34.132812 8.34375 -34.9375 C 10.15625 -35.75 12.296875 -36.15625 14.765625 -36.15625 C 16.617188 -36.15625 18.382812 -35.9375 20.0625 -35.5 C 21.75 -35.070312 23.507812 -34.453125 25.34375 -33.640625 L 22.90625 -27.765625 C 21.269531 -28.429688 19.800781 -28.945312 18.5 -29.3125 C 17.195312 -29.675781 15.875 -29.859375 14.53125 -29.859375 C 13.582031 -29.859375 12.773438 -29.707031 12.109375 -29.40625 C 11.441406 -29.101562 10.9375 -28.679688 10.59375 -28.140625 C 10.257812 -27.597656 10.09375 -26.96875 10.09375 -26.25 C 10.09375 -25.40625 10.335938 -24.691406 10.828125 -24.109375 C 11.328125 -23.535156 12.078125 -22.976562 13.078125 -22.4375 C 14.078125 -21.90625 15.320312 -21.285156 16.8125 -20.578125 C 18.632812 -19.710938 20.191406 -18.8125 21.484375 -17.875 C 22.773438 -16.945312 23.769531 -15.851562 24.46875 -14.59375 C 25.164062 -13.332031 25.515625 -11.765625 25.515625 -9.890625 Z M 25.515625 -9.890625 "/></g></g></g><g fill="#006636" fill-opacity="1"><g transform="translate(271.688091, 454.19648)"><g><path d="M 25.515625 -9.890625 C 25.515625 -7.785156 25.003906 -5.953125 23.984375 -4.390625 C 22.960938 -2.828125 21.472656 -1.625 19.515625 -0.78125 C 17.554688 0.0625 15.179688 0.484375 12.390625 0.484375 C 11.148438 0.484375 9.941406 0.398438 8.765625 0.234375 C 7.585938 0.078125 6.457031 -0.15625 5.375 -0.46875 C 4.289062 -0.789062 3.265625 -1.1875 2.296875 -1.65625 L 2.296875 -8.671875 C 3.984375 -7.929688 5.734375 -7.257812 7.546875 -6.65625 C 9.367188 -6.050781 11.175781 -5.75 12.96875 -5.75 C 14.207031 -5.75 15.203125 -5.910156 15.953125 -6.234375 C 16.710938 -6.566406 17.257812 -7.015625 17.59375 -7.578125 C 17.9375 -8.148438 18.109375 -8.800781 18.109375 -9.53125 C 18.109375 -10.425781 17.804688 -11.1875 17.203125 -11.8125 C 16.609375 -12.445312 15.785156 -13.039062 14.734375 -13.59375 C 13.679688 -14.15625 12.5 -14.75 11.1875 -15.375 C 10.363281 -15.769531 9.460938 -16.242188 8.484375 -16.796875 C 7.503906 -17.359375 6.578125 -18.046875 5.703125 -18.859375 C 4.828125 -19.671875 4.109375 -20.660156 3.546875 -21.828125 C 2.984375 -22.992188 2.703125 -24.390625 2.703125 -26.015625 C 2.703125 -28.140625 3.1875 -29.957031 4.15625 -31.46875 C 5.132812 -32.976562 6.53125 -34.132812 8.34375 -34.9375 C 10.15625 -35.75 12.296875 -36.15625 14.765625 -36.15625 C 16.617188 -36.15625 18.382812 -35.9375 20.0625 -35.5 C 21.75 -35.070312 23.507812 -34.453125 25.34375 -33.640625 L 22.90625 -27.765625 C 21.269531 -28.429688 19.800781 -28.945312 18.5 -29.3125 C 17.195312 -29.675781 15.875 -29.859375 14.53125 -29.859375 C 13.582031 -29.859375 12.773438 -29.707031 12.109375 -29.40625 C 11.441406 -29.101562 10.9375 -28.679688 10.59375 -28.140625 C 10.257812 -27.597656 10.09375 -26.96875 10.09375 -26.25 C 10.09375 -25.40625 10.335938 -24.691406 10.828125 -24.109375 C 11.328125 -23.535156 12.078125 -22.976562 13.078125 -22.4375 C 14.078125 -21.90625 15.320312 -21.285156 16.8125 -20.578125 C 18.632812 -19.710938 20.191406 -18.8125 21.484375 -17.875 C 22.773438 -16.945312 23.769531 -15.851562 24.46875 -14.59375 C 25.164062 -13.332031 25.515625 -11.765625 25.515625 -9.890625 Z M 25.515625 -9.890625 "/></g></g></g><g fill="#006636" fill-opacity="1"><g transform="translate(299.181875, 454.19648)"><g/></g></g><g fill="#006636" fill-opacity="1"><g transform="translate(312.148801, 454.19648)"><g><path d="M 15.484375 -36.15625 C 17.398438 -36.15625 19.101562 -35.851562 20.59375 -35.25 C 22.09375 -34.644531 23.273438 -33.765625 24.140625 -32.609375 C 25.015625 -31.460938 25.453125 -30.054688 25.453125 -28.390625 C 25.453125 -26.109375 24.769531 -24.1875 23.40625 -22.625 C 22.050781 -21.0625 20.359375 -19.695312 18.328125 -18.53125 L 25.25 -11.78125 C 25.9375 -12.894531 26.519531 -14.078125 27 -15.328125 C 27.476562 -16.578125 27.894531 -17.835938 28.25 -19.109375 L 36 -19.109375 C 35.5 -17.242188 34.765625 -15.25 33.796875 -13.125 C 32.828125 -11.007812 31.597656 -9.015625 30.109375 -7.140625 L 37.4375 0 L 28.25 0 L 25.453125 -2.75 C 24.492188 -2.082031 23.460938 -1.503906 22.359375 -1.015625 C 21.265625 -0.535156 20.09375 -0.164062 18.84375 0.09375 C 17.601562 0.351562 16.296875 0.484375 14.921875 0.484375 C 12.222656 0.484375 9.90625 0.0625 7.96875 -0.78125 C 6.03125 -1.625 4.550781 -2.804688 3.53125 -4.328125 C 2.507812 -5.847656 2 -7.613281 2 -9.625 C 2 -11.3125 2.257812 -12.757812 2.78125 -13.96875 C 3.300781 -15.1875 4.046875 -16.253906 5.015625 -17.171875 C 5.992188 -18.085938 7.164062 -18.9375 8.53125 -19.71875 C 7.664062 -20.726562 6.976562 -21.671875 6.46875 -22.546875 C 5.957031 -23.421875 5.59375 -24.289062 5.375 -25.15625 C 5.15625 -26.03125 5.046875 -26.945312 5.046875 -27.90625 C 5.046875 -29.601562 5.488281 -31.0625 6.375 -32.28125 C 7.257812 -33.507812 8.484375 -34.460938 10.046875 -35.140625 C 11.617188 -35.816406 13.429688 -36.15625 15.484375 -36.15625 Z M 12.875 -15.28125 C 12.25 -14.8125 11.707031 -14.320312 11.25 -13.8125 C 10.789062 -13.3125 10.4375 -12.773438 10.1875 -12.203125 C 9.945312 -11.640625 9.828125 -11.015625 9.828125 -10.328125 C 9.828125 -8.898438 10.363281 -7.78125 11.4375 -6.96875 C 12.507812 -6.15625 13.84375 -5.75 15.4375 -5.75 C 16.5 -5.75 17.492188 -5.878906 18.421875 -6.140625 C 19.347656 -6.398438 20.195312 -6.765625 20.96875 -7.234375 Z M 15.4375 -30.390625 C 14.601562 -30.390625 13.804688 -30.175781 13.046875 -29.75 C 12.296875 -29.332031 11.921875 -28.550781 11.921875 -27.40625 C 11.921875 -26.59375 12.128906 -25.796875 12.546875 -25.015625 C 12.972656 -24.242188 13.535156 -23.460938 14.234375 -22.671875 C 15.628906 -23.429688 16.703125 -24.195312 17.453125 -24.96875 C 18.203125 -25.738281 18.578125 -26.625 18.578125 -27.625 C 18.578125 -28.613281 18.238281 -29.320312 17.5625 -29.75 C 16.882812 -30.175781 16.175781 -30.390625 15.4375 -30.390625 Z M 15.4375 -30.390625 "/></g></g></g><g fill="#006636" fill-opacity="1"><g transform="translate(349.587145, 454.19648)"><g/></g></g><g fill="#006636" fill-opacity="1"><g transform="translate(362.554071, 454.19648)"><g><path d="M 15.875 -35.640625 C 20.46875 -35.640625 23.820312 -34.648438 25.9375 -32.671875 C 28.050781 -30.703125 29.109375 -27.984375 29.109375 -24.515625 C 29.109375 -22.960938 28.867188 -21.472656 28.390625 -20.046875 C 27.921875 -18.628906 27.15625 -17.363281 26.09375 -16.25 C 25.03125 -15.144531 23.613281 -14.269531 21.84375 -13.625 C 20.070312 -12.988281 17.882812 -12.671875 15.28125 -12.671875 L 12.046875 -12.671875 L 12.046875 0 L 4.484375 0 L 4.484375 -35.640625 Z M 15.484375 -29.453125 L 12.046875 -29.453125 L 12.046875 -18.859375 L 14.53125 -18.859375 C 15.945312 -18.859375 17.171875 -19.046875 18.203125 -19.421875 C 19.242188 -19.796875 20.046875 -20.378906 20.609375 -21.171875 C 21.179688 -21.972656 21.46875 -23 21.46875 -24.25 C 21.46875 -26.007812 20.976562 -27.316406 20 -28.171875 C 19.03125 -29.023438 17.523438 -29.453125 15.484375 -29.453125 Z M 15.484375 -29.453125 "/></g></g></g><g fill="#006636" fill-opacity="1"><g transform="translate(393.898958, 454.19648)"><g><path d="M 14.875 -35.640625 C 18.101562 -35.640625 20.769531 -35.25 22.875 -34.46875 C 24.976562 -33.6875 26.539062 -32.503906 27.5625 -30.921875 C 28.59375 -29.347656 29.109375 -27.363281 29.109375 -24.96875 C 29.109375 -23.332031 28.796875 -21.90625 28.171875 -20.6875 C 27.554688 -19.46875 26.742188 -18.4375 25.734375 -17.59375 C 24.734375 -16.75 23.644531 -16.0625 22.46875 -15.53125 L 32.953125 0 L 24.578125 0 L 16.0625 -13.671875 L 12.046875 -13.671875 L 12.046875 0 L 4.484375 0 L 4.484375 -35.640625 Z M 14.328125 -29.453125 L 12.046875 -29.453125 L 12.046875 -19.8125 L 14.484375 -19.8125 C 16.984375 -19.8125 18.769531 -20.226562 19.84375 -21.0625 C 20.925781 -21.90625 21.46875 -23.140625 21.46875 -24.765625 C 21.46875 -26.453125 20.882812 -27.65625 19.71875 -28.375 C 18.5625 -29.09375 16.765625 -29.453125 14.328125 -29.453125 Z M 14.328125 -29.453125 "/></g></g></g><g fill="#006636" fill-opacity="1"><g transform="translate(426.8525, 454.19648)"><g><path d="M 36.828125 -17.875 C 36.828125 -15.125 36.484375 -12.625 35.796875 -10.375 C 35.117188 -8.125 34.082031 -6.1875 32.6875 -4.5625 C 31.300781 -2.9375 29.546875 -1.6875 27.421875 -0.8125 C 25.296875 0.0507812 22.773438 0.484375 19.859375 0.484375 C 16.953125 0.484375 14.429688 0.0507812 12.296875 -0.8125 C 10.171875 -1.6875 8.414062 -2.9375 7.03125 -4.5625 C 5.644531 -6.1875 4.609375 -8.125 3.921875 -10.375 C 3.242188 -12.632812 2.90625 -15.148438 2.90625 -17.921875 C 2.90625 -21.609375 3.507812 -24.820312 4.71875 -27.5625 C 5.925781 -30.300781 7.789062 -32.425781 10.3125 -33.9375 C 12.832031 -35.445312 16.035156 -36.203125 19.921875 -36.203125 C 23.785156 -36.203125 26.960938 -35.445312 29.453125 -33.9375 C 31.953125 -32.425781 33.804688 -30.296875 35.015625 -27.546875 C 36.222656 -24.796875 36.828125 -21.570312 36.828125 -17.875 Z M 10.828125 -17.875 C 10.828125 -15.382812 11.140625 -13.238281 11.765625 -11.4375 C 12.390625 -9.644531 13.367188 -8.265625 14.703125 -7.296875 C 16.035156 -6.328125 17.753906 -5.84375 19.859375 -5.84375 C 22.003906 -5.84375 23.742188 -6.328125 25.078125 -7.296875 C 26.410156 -8.265625 27.378906 -9.644531 27.984375 -11.4375 C 28.597656 -13.238281 28.90625 -15.382812 28.90625 -17.875 C 28.90625 -21.601562 28.207031 -24.539062 26.8125 -26.6875 C 25.414062 -28.832031 23.117188 -29.90625 19.921875 -29.90625 C 17.785156 -29.90625 16.046875 -29.421875 14.703125 -28.453125 C 13.367188 -27.492188 12.390625 -26.113281 11.765625 -24.3125 C 11.140625 -22.519531 10.828125 -20.375 10.828125 -17.875 Z M 10.828125 -17.875 "/></g></g></g><g fill="#006636" fill-opacity="1"><g transform="translate(466.58197, 454.19648)"><g><path d="M 25.515625 -9.890625 C 25.515625 -7.785156 25.003906 -5.953125 23.984375 -4.390625 C 22.960938 -2.828125 21.472656 -1.625 19.515625 -0.78125 C 17.554688 0.0625 15.179688 0.484375 12.390625 0.484375 C 11.148438 0.484375 9.941406 0.398438 8.765625 0.234375 C 7.585938 0.078125 6.457031 -0.15625 5.375 -0.46875 C 4.289062 -0.789062 3.265625 -1.1875 2.296875 -1.65625 L 2.296875 -8.671875 C 3.984375 -7.929688 5.734375 -7.257812 7.546875 -6.65625 C 9.367188 -6.050781 11.175781 -5.75 12.96875 -5.75 C 14.207031 -5.75 15.203125 -5.910156 15.953125 -6.234375 C 16.710938 -6.566406 17.257812 -7.015625 17.59375 -7.578125 C 17.9375 -8.148438 18.109375 -8.800781 18.109375 -9.53125 C 18.109375 -10.425781 17.804688 -11.1875 17.203125 -11.8125 C 16.609375 -12.445312 15.785156 -13.039062 14.734375 -13.59375 C 13.679688 -14.15625 12.5 -14.75 11.1875 -15.375 C 10.363281 -15.769531 9.460938 -16.242188 8.484375 -16.796875 C 7.503906 -17.359375 6.578125 -18.046875 5.703125 -18.859375 C 4.828125 -19.671875 4.109375 -20.660156 3.546875 -21.828125 C 2.984375 -22.992188 2.703125 -24.390625 2.703125 -26.015625 C 2.703125 -28.140625 3.1875 -29.957031 4.15625 -31.46875 C 5.132812 -32.976562 6.53125 -34.132812 8.34375 -34.9375 C 10.15625 -35.75 12.296875 -36.15625 14.765625 -36.15625 C 16.617188 -36.15625 18.382812 -35.9375 20.0625 -35.5 C 21.75 -35.070312 23.507812 -34.453125 25.34375 -33.640625 L 22.90625 -27.765625 C 21.269531 -28.429688 19.800781 -28.945312 18.5 -29.3125 C 17.195312 -29.675781 15.875 -29.859375 14.53125 -29.859375 C 13.582031 -29.859375 12.773438 -29.707031 12.109375 -29.40625 C 11.441406 -29.101562 10.9375 -28.679688 10.59375 -28.140625 C 10.257812 -27.597656 10.09375 -26.96875 10.09375 -26.25 C 10.09375 -25.40625 10.335938 -24.691406 10.828125 -24.109375 C 11.328125 -23.535156 12.078125 -22.976562 13.078125 -22.4375 C 14.078125 -21.90625 15.320312 -21.285156 16.8125 -20.578125 C 18.632812 -19.710938 20.191406 -18.8125 21.484375 -17.875 C 22.773438 -16.945312 23.769531 -15.851562 24.46875 -14.59375 C 25.164062 -13.332031 25.515625 -11.765625 25.515625 -9.890625 Z M 25.515625 -9.890625 "/></g></g></g><g fill="#006636" fill-opacity="1"><g transform="translate(494.075754, 454.19648)"><g><path d="M 15.875 -35.640625 C 20.46875 -35.640625 23.820312 -34.648438 25.9375 -32.671875 C 28.050781 -30.703125 29.109375 -27.984375 29.109375 -24.515625 C 29.109375 -22.960938 28.867188 -21.472656 28.390625 -20.046875 C 27.921875 -18.628906 27.15625 -17.363281 26.09375 -16.25 C 25.03125 -15.144531 23.613281 -14.269531 21.84375 -13.625 C 20.070312 -12.988281 17.882812 -12.671875 15.28125 -12.671875 L 12.046875 -12.671875 L 12.046875 0 L 4.484375 0 L 4.484375 -35.640625 Z M 15.484375 -29.453125 L 12.046875 -29.453125 L 12.046875 -18.859375 L 14.53125 -18.859375 C 15.945312 -18.859375 17.171875 -19.046875 18.203125 -19.421875 C 19.242188 -19.796875 20.046875 -20.378906 20.609375 -21.171875 C 21.179688 -21.972656 21.46875 -23 21.46875 -24.25 C 21.46875 -26.007812 20.976562 -27.316406 20 -28.171875 C 19.03125 -29.023438 17.523438 -29.453125 15.484375 -29.453125 Z M 15.484375 -29.453125 "/></g></g></g><g fill="#006636" fill-opacity="1"><g transform="translate(525.42064, 454.19648)"><g><path d="M 25.015625 0 L 4.484375 0 L 4.484375 -35.640625 L 25.015625 -35.640625 L 25.015625 -29.453125 L 12.046875 -29.453125 L 12.046875 -21.625 L 24.109375 -21.625 L 24.109375 -15.4375 L 12.046875 -15.4375 L 12.046875 -6.234375 L 25.015625 -6.234375 Z M 25.015625 0 "/></g></g></g><g fill="#006636" fill-opacity="1"><g transform="translate(553.377494, 454.19648)"><g><path d="M 14.875 -35.640625 C 18.101562 -35.640625 20.769531 -35.25 22.875 -34.46875 C 24.976562 -33.6875 26.539062 -32.503906 27.5625 -30.921875 C 28.59375 -29.347656 29.109375 -27.363281 29.109375 -24.96875 C 29.109375 -23.332031 28.796875 -21.90625 28.171875 -20.6875 C 27.554688 -19.46875 26.742188 -18.4375 25.734375 -17.59375 C 24.734375 -16.75 23.644531 -16.0625 22.46875 -15.53125 L 32.953125 0 L 24.578125 0 L 16.0625 -13.671875 L 12.046875 -13.671875 L 12.046875 0 L 4.484375 0 L 4.484375 -35.640625 Z M 14.328125 -29.453125 L 12.046875 -29.453125 L 12.046875 -19.8125 L 14.484375 -19.8125 C 16.984375 -19.8125 18.769531 -20.226562 19.84375 -21.0625 C 20.925781 -21.90625 21.46875 -23.140625 21.46875 -24.765625 C 21.46875 -26.453125 20.882812 -27.65625 19.71875 -28.375 C 18.5625 -29.09375 16.765625 -29.453125 14.328125 -29.453125 Z M 14.328125 -29.453125 "/></g></g></g><g fill="#006636" fill-opacity="1"><g transform="translate(586.331036, 454.19648)"><g><path d="M 4.484375 0 L 4.484375 -35.640625 L 12.046875 -35.640625 L 12.046875 0 Z M 4.484375 0 "/></g></g></g><g fill="#006636" fill-opacity="1"><g transform="translate(602.856578, 454.19648)"><g><path d="M 18.234375 0 L 10.671875 0 L 10.671875 -29.34375 L 1 -29.34375 L 1 -35.640625 L 27.90625 -35.640625 L 27.90625 -29.34375 L 18.234375 -29.34375 Z M 18.234375 0 "/></g></g></g><g fill="#006636" fill-opacity="1"><g transform="translate(631.764027, 454.19648)"><g><path d="M 15.578125 -20.96875 L 23.015625 -35.640625 L 31.15625 -35.640625 L 19.328125 -13.875 L 19.328125 0 L 11.828125 0 L 11.828125 -13.625 L 0 -35.640625 L 8.1875 -35.640625 Z M 15.578125 -20.96875 "/></g></g></g><g fill="#006636" fill-opacity="1"><g transform="translate(662.913922, 454.19648)"><g/></g></g><g fill="#006636" fill-opacity="1"><g transform="translate(675.880848, 454.19648)"><g><path d="M 25.015625 0 L 4.484375 0 L 4.484375 -35.640625 L 25.015625 -35.640625 L 25.015625 -29.453125 L 12.046875 -29.453125 L 12.046875 -21.625 L 24.109375 -21.625 L 24.109375 -15.4375 L 12.046875 -15.4375 L 12.046875 -6.234375 L 25.015625 -6.234375 Z M 25.015625 0 "/></g></g></g><g fill="#006636" fill-opacity="1"><g transform="translate(703.837747, 454.19648)"><g><path d="M 1.484375 -10.328125 L 1.484375 -16.421875 L 14.578125 -16.421875 L 14.578125 -10.328125 Z M 1.484375 -10.328125 "/></g></g></g><g fill="#006636" fill-opacity="1"><g transform="translate(719.900127, 454.19648)"><g><path d="M 19.625 -29.859375 C 18.175781 -29.859375 16.894531 -29.578125 15.78125 -29.015625 C 14.664062 -28.453125 13.726562 -27.644531 12.96875 -26.59375 C 12.21875 -25.539062 11.644531 -24.265625 11.25 -22.765625 C 10.863281 -21.273438 10.671875 -19.59375 10.671875 -17.71875 C 10.671875 -15.195312 10.984375 -13.046875 11.609375 -11.265625 C 12.234375 -9.492188 13.203125 -8.140625 14.515625 -7.203125 C 15.835938 -6.265625 17.539062 -5.796875 19.625 -5.796875 C 21.070312 -5.796875 22.519531 -5.957031 23.96875 -6.28125 C 25.425781 -6.613281 27.007812 -7.078125 28.71875 -7.671875 L 28.71875 -1.34375 C 27.132812 -0.6875 25.578125 -0.21875 24.046875 0.0625 C 22.523438 0.34375 20.816406 0.484375 18.921875 0.484375 C 15.242188 0.484375 12.222656 -0.273438 9.859375 -1.796875 C 7.492188 -3.316406 5.742188 -5.441406 4.609375 -8.171875 C 3.472656 -10.910156 2.90625 -14.109375 2.90625 -17.765625 C 2.90625 -20.460938 3.269531 -22.929688 4 -25.171875 C 4.726562 -27.421875 5.800781 -29.363281 7.21875 -31 C 8.632812 -32.644531 10.378906 -33.914062 12.453125 -34.8125 C 14.535156 -35.707031 16.925781 -36.15625 19.625 -36.15625 C 21.394531 -36.15625 23.171875 -35.929688 24.953125 -35.484375 C 26.734375 -35.035156 28.4375 -34.421875 30.0625 -33.640625 L 27.625 -27.5 C 26.289062 -28.132812 24.945312 -28.6875 23.59375 -29.15625 C 22.25 -29.625 20.925781 -29.859375 19.625 -29.859375 Z M 19.625 -29.859375 "/></g></g></g><g fill="#006636" fill-opacity="1"><g transform="translate(751.708129, 454.19648)"><g><path d="M 36.828125 -17.875 C 36.828125 -15.125 36.484375 -12.625 35.796875 -10.375 C 35.117188 -8.125 34.082031 -6.1875 32.6875 -4.5625 C 31.300781 -2.9375 29.546875 -1.6875 27.421875 -0.8125 C 25.296875 0.0507812 22.773438 0.484375 19.859375 0.484375 C 16.953125 0.484375 14.429688 0.0507812 12.296875 -0.8125 C 10.171875 -1.6875 8.414062 -2.9375 7.03125 -4.5625 C 5.644531 -6.1875 4.609375 -8.125 3.921875 -10.375 C 3.242188 -12.632812 2.90625 -15.148438 2.90625 -17.921875 C 2.90625 -21.609375 3.507812 -24.820312 4.71875 -27.5625 C 5.925781 -30.300781 7.789062 -32.425781 10.3125 -33.9375 C 12.832031 -35.445312 16.035156 -36.203125 19.921875 -36.203125 C 23.785156 -36.203125 26.960938 -35.445312 29.453125 -33.9375 C 31.953125 -32.425781 33.804688 -30.296875 35.015625 -27.546875 C 36.222656 -24.796875 36.828125 -21.570312 36.828125 -17.875 Z M 10.828125 -17.875 C 10.828125 -15.382812 11.140625 -13.238281 11.765625 -11.4375 C 12.390625 -9.644531 13.367188 -8.265625 14.703125 -7.296875 C 16.035156 -6.328125 17.753906 -5.84375 19.859375 -5.84375 C 22.003906 -5.84375 23.742188 -6.328125 25.078125 -7.296875 C 26.410156 -8.265625 27.378906 -9.644531 27.984375 -11.4375 C 28.597656 -13.238281 28.90625 -15.382812 28.90625 -17.875 C 28.90625 -21.601562 28.207031 -24.539062 26.8125 -26.6875 C 25.414062 -28.832031 23.117188 -29.90625 19.921875 -29.90625 C 17.785156 -29.90625 16.046875 -29.421875 14.703125 -28.453125 C 13.367188 -27.492188 12.390625 -26.113281 11.765625 -24.3125 C 11.140625 -22.519531 10.828125 -20.375 10.828125 -17.875 Z M 10.828125 -17.875 "/></g></g></g><g fill="#006636" fill-opacity="1"><g transform="translate(791.437599, 454.19648)"><g><path d="M 19.578125 0 L 11 -27.953125 L 10.78125 -27.953125 C 10.8125 -27.285156 10.863281 -26.28125 10.9375 -24.9375 C 11.007812 -23.601562 11.078125 -22.179688 11.140625 -20.671875 C 11.203125 -19.160156 11.234375 -17.796875 11.234375 -16.578125 L 11.234375 0 L 4.484375 0 L 4.484375 -35.640625 L 14.765625 -35.640625 L 23.203125 -8.390625 L 23.359375 -8.390625 L 32.296875 -35.640625 L 42.578125 -35.640625 L 42.578125 0 L 35.546875 0 L 35.546875 -16.875 C 35.546875 -17.988281 35.5625 -19.273438 35.59375 -20.734375 C 35.632812 -22.203125 35.6875 -23.597656 35.75 -24.921875 C 35.820312 -26.242188 35.875 -27.238281 35.90625 -27.90625 L 35.6875 -27.90625 L 26.5 0 Z M 19.578125 0 "/></g></g></g><g fill="#006636" fill-opacity="1"><g transform="translate(838.503699, 454.19648)"><g><path d="M 19.578125 0 L 11 -27.953125 L 10.78125 -27.953125 C 10.8125 -27.285156 10.863281 -26.28125 10.9375 -24.9375 C 11.007812 -23.601562 11.078125 -22.179688 11.140625 -20.671875 C 11.203125 -19.160156 11.234375 -17.796875 11.234375 -16.578125 L 11.234375 0 L 4.484375 0 L 4.484375 -35.640625 L 14.765625 -35.640625 L 23.203125 -8.390625 L 23.359375 -8.390625 L 32.296875 -35.640625 L 42.578125 -35.640625 L 42.578125 0 L 35.546875 0 L 35.546875 -16.875 C 35.546875 -17.988281 35.5625 -19.273438 35.59375 -20.734375 C 35.632812 -22.203125 35.6875 -23.597656 35.75 -24.921875 C 35.820312 -26.242188 35.875 -27.238281 35.90625 -27.90625 L 35.6875 -27.90625 L 26.5 0 Z M 19.578125 0 "/></g></g></g><g fill="#006636" fill-opacity="1"><g transform="translate(885.569663, 454.19648)"><g><path d="M 25.015625 0 L 4.484375 0 L 4.484375 -35.640625 L 25.015625 -35.640625 L 25.015625 -29.453125 L 12.046875 -29.453125 L 12.046875 -21.625 L 24.109375 -21.625 L 24.109375 -15.4375 L 12.046875 -15.4375 L 12.046875 -6.234375 L 25.015625 -6.234375 Z M 25.015625 0 "/></g></g></g><g fill="#006636" fill-opacity="1"><g transform="translate(913.526562, 454.19648)"><g><path d="M 14.875 -35.640625 C 18.101562 -35.640625 20.769531 -35.25 22.875 -34.46875 C 24.976562 -33.6875 26.539062 -32.503906 27.5625 -30.921875 C 28.59375 -29.347656 29.109375 -27.363281 29.109375 -24.96875 C 29.109375 -23.332031 28.796875 -21.90625 28.171875 -20.6875 C 27.554688 -19.46875 26.742188 -18.4375 25.734375 -17.59375 C 24.734375 -16.75 23.644531 -16.0625 22.46875 -15.53125 L 32.953125 0 L 24.578125 0 L 16.0625 -13.671875 L 12.046875 -13.671875 L 12.046875 0 L 4.484375 0 L 4.484375 -35.640625 Z M 14.328125 -29.453125 L 12.046875 -29.453125 L 12.046875 -19.8125 L 14.484375 -19.8125 C 16.984375 -19.8125 18.769531 -20.226562 19.84375 -21.0625 C 20.925781 -21.90625 21.46875 -23.140625 21.46875 -24.765625 C 21.46875 -26.453125 20.882812 -27.65625 19.71875 -28.375 C 18.5625 -29.09375 16.765625 -29.453125 14.328125 -29.453125 Z M 14.328125 -29.453125 "/></g></g></g><g fill="#006636" fill-opacity="1"><g transform="translate(946.480104, 454.19648)"><g><path d="M 19.625 -29.859375 C 18.175781 -29.859375 16.894531 -29.578125 15.78125 -29.015625 C 14.664062 -28.453125 13.726562 -27.644531 12.96875 -26.59375 C 12.21875 -25.539062 11.644531 -24.265625 11.25 -22.765625 C 10.863281 -21.273438 10.671875 -19.59375 10.671875 -17.71875 C 10.671875 -15.195312 10.984375 -13.046875 11.609375 -11.265625 C 12.234375 -9.492188 13.203125 -8.140625 14.515625 -7.203125 C 15.835938 -6.265625 17.539062 -5.796875 19.625 -5.796875 C 21.070312 -5.796875 22.519531 -5.957031 23.96875 -6.28125 C 25.425781 -6.613281 27.007812 -7.078125 28.71875 -7.671875 L 28.71875 -1.34375 C 27.132812 -0.6875 25.578125 -0.21875 24.046875 0.0625 C 22.523438 0.34375 20.816406 0.484375 18.921875 0.484375 C 15.242188 0.484375 12.222656 -0.273438 9.859375 -1.796875 C 7.492188 -3.316406 5.742188 -5.441406 4.609375 -8.171875 C 3.472656 -10.910156 2.90625 -14.109375 2.90625 -17.765625 C 2.90625 -20.460938 3.269531 -22.929688 4 -25.171875 C 4.726562 -27.421875 5.800781 -29.363281 7.21875 -31 C 8.632812 -32.644531 10.378906 -33.914062 12.453125 -34.8125 C 14.535156 -35.707031 16.925781 -36.15625 19.625 -36.15625 C 21.394531 -36.15625 23.171875 -35.929688 24.953125 -35.484375 C 26.734375 -35.035156 28.4375 -34.421875 30.0625 -33.640625 L 27.625 -27.5 C 26.289062 -28.132812 24.945312 -28.6875 23.59375 -29.15625 C 22.25 -29.625 20.925781 -29.859375 19.625 -29.859375 Z M 19.625 -29.859375 "/></g></g></g><g fill="#006636" fill-opacity="1"><g transform="translate(978.288107, 454.19648)"><g><path d="M 25.015625 0 L 4.484375 0 L 4.484375 -35.640625 L 25.015625 -35.640625 L 25.015625 -29.453125 L 12.046875 -29.453125 L 12.046875 -21.625 L 24.109375 -21.625 L 24.109375 -15.4375 L 12.046875 -15.4375 L 12.046875 -6.234375 L 25.015625 -6.234375 Z M 25.015625 0 "/></g></g></g></svg>