<svg xmlns="http://www.w3.org/2000/svg" xmlns:xlink="http://www.w3.org/1999/xlink" width="1451" zoomAndPan="magnify" viewBox="0 0 1088.25 597.749982" height="797" preserveAspectRatio="xMidYMid meet" version="1.0"><defs><g/><clipPath id="a4032b7768"><path d="M 0 0.0820312 L 1087.5 0.0820312 L 1087.5 597.417969 L 0 597.417969 Z M 0 0.0820312 " clip-rule="nonzero"/></clipPath><clipPath id="3399cf7050"><path d="M 52.074219 497.40625 L 104.535156 497.40625 L 104.535156 549.867188 L 52.074219 549.867188 Z M 52.074219 497.40625 " clip-rule="nonzero"/></clipPath><clipPath id="318c2192f2"><path d="M 633.957031 497.40625 L 686.421875 497.40625 L 686.421875 549.867188 L 633.957031 549.867188 Z M 633.957031 497.40625 " clip-rule="nonzero"/></clipPath><clipPath id="99a93f853d"><path d="M 60 124 L 357 124 L 357 222 L 60 222 Z M 60 124 " clip-rule="nonzero"/></clipPath><clipPath id="beb05f900d"><path d="M 360.945312 133.894531 L 227.128906 305.167969 L 55.855469 171.355469 L 189.671875 0.0820312 Z M 360.945312 133.894531 " clip-rule="nonzero"/></clipPath><clipPath id="ef12856244"><path d="M 360.945312 133.894531 L 227.128906 305.167969 L 55.855469 171.355469 L 189.671875 0.0820312 Z M 360.945312 133.894531 " clip-rule="nonzero"/></clipPath><clipPath id="e6b2852115"><path d="M 227.769531 53.417969 L 302.714844 53.417969 L 302.714844 353.210938 L 227.769531 353.210938 Z M 227.769531 53.417969 " clip-rule="nonzero"/></clipPath><clipPath id="d3ff532a88"><path d="M 265.242188 53.417969 C 285.9375 53.417969 302.714844 70.195312 302.714844 90.890625 L 302.714844 315.738281 C 302.714844 336.433594 285.9375 353.210938 265.242188 353.210938 C 244.546875 353.210938 227.769531 336.433594 227.769531 315.738281 L 227.769531 90.890625 C 227.769531 70.195312 244.546875 53.417969 265.242188 53.417969 Z M 265.242188 53.417969 " clip-rule="nonzero"/></clipPath><clipPath id="60fe579051"><path d="M 0.769531 0.417969 L 75.714844 0.417969 L 75.714844 300.210938 L 0.769531 300.210938 Z M 0.769531 0.417969 " clip-rule="nonzero"/></clipPath><clipPath id="6cb094b4de"><path d="M 38.242188 0.417969 C 58.9375 0.417969 75.714844 17.195312 75.714844 37.890625 L 75.714844 262.738281 C 75.714844 283.433594 58.9375 300.210938 38.242188 300.210938 C 17.546875 300.210938 0.769531 283.433594 0.769531 262.738281 L 0.769531 37.890625 C 0.769531 17.195312 17.546875 0.417969 38.242188 0.417969 Z M 38.242188 0.417969 " clip-rule="nonzero"/></clipPath><clipPath id="6685d9cd62"><rect x="0" width="76" y="0" height="301"/></clipPath><clipPath id="3c3b825a0d"><path d="M 227.769531 68.40625 L 272.738281 68.40625 L 272.738281 113.375 L 227.769531 113.375 Z M 227.769531 68.40625 " clip-rule="nonzero"/></clipPath><clipPath id="cebe86ce3f"><path d="M 250.253906 68.40625 C 237.835938 68.40625 227.769531 78.472656 227.769531 90.890625 C 227.769531 103.308594 237.835938 113.375 250.253906 113.375 C 262.671875 113.375 272.738281 103.308594 272.738281 90.890625 C 272.738281 78.472656 262.671875 68.40625 250.253906 68.40625 Z M 250.253906 68.40625 " clip-rule="nonzero"/></clipPath><clipPath id="c765224e41"><path d="M 0.769531 0.40625 L 45.738281 0.40625 L 45.738281 45.375 L 0.769531 45.375 Z M 0.769531 0.40625 " clip-rule="nonzero"/></clipPath><clipPath id="602b61b5ec"><path d="M 23.253906 0.40625 C 10.835938 0.40625 0.769531 10.472656 0.769531 22.890625 C 0.769531 35.308594 10.835938 45.375 23.253906 45.375 C 35.671875 45.375 45.738281 35.308594 45.738281 22.890625 C 45.738281 10.472656 35.671875 0.40625 23.253906 0.40625 Z M 23.253906 0.40625 " clip-rule="nonzero"/></clipPath><clipPath id="08cedac58c"><rect x="0" width="46" y="0" height="46"/></clipPath><clipPath id="1408aedfa4"><path d="M 102.855469 83.398438 L 177.800781 83.398438 L 177.800781 323.464844 L 102.855469 323.464844 Z M 102.855469 83.398438 " clip-rule="nonzero"/></clipPath><clipPath id="14ab153d4b"><path d="M 140.328125 83.398438 C 161.023438 83.398438 177.800781 100.175781 177.800781 120.871094 L 177.800781 285.757812 C 177.800781 306.453125 161.023438 323.230469 140.328125 323.230469 C 119.632812 323.230469 102.855469 306.453125 102.855469 285.757812 L 102.855469 120.871094 C 102.855469 100.175781 119.632812 83.398438 140.328125 83.398438 Z M 140.328125 83.398438 " clip-rule="nonzero"/></clipPath><clipPath id="68d50a8176"><path d="M 0.855469 0.398438 L 75.800781 0.398438 L 75.800781 240.378906 L 0.855469 240.378906 Z M 0.855469 0.398438 " clip-rule="nonzero"/></clipPath><clipPath id="f55006f6f9"><path d="M 38.328125 0.398438 C 59.023438 0.398438 75.800781 17.175781 75.800781 37.871094 L 75.800781 202.757812 C 75.800781 223.453125 59.023438 240.230469 38.328125 240.230469 C 17.632812 240.230469 0.855469 223.453125 0.855469 202.757812 L 0.855469 37.871094 C 0.855469 17.175781 17.632812 0.398438 38.328125 0.398438 Z M 38.328125 0.398438 " clip-rule="nonzero"/></clipPath><clipPath id="058e4e529a"><rect x="0" width="76" y="0" height="241"/></clipPath><clipPath id="18a525b71e"><path d="M 132.832031 98.386719 L 177.800781 98.386719 L 177.800781 143.355469 L 132.832031 143.355469 Z M 132.832031 98.386719 " clip-rule="nonzero"/></clipPath><clipPath id="47ed7100b4"><path d="M 155.316406 98.386719 C 142.898438 98.386719 132.832031 108.453125 132.832031 120.871094 C 132.832031 133.289062 142.898438 143.355469 155.316406 143.355469 C 167.734375 143.355469 177.800781 133.289062 177.800781 120.871094 C 177.800781 108.453125 167.734375 98.386719 155.316406 98.386719 Z M 155.316406 98.386719 " clip-rule="nonzero"/></clipPath><clipPath id="447fc477fe"><path d="M 0.832031 0.386719 L 45.800781 0.386719 L 45.800781 45.355469 L 0.832031 45.355469 Z M 0.832031 0.386719 " clip-rule="nonzero"/></clipPath><clipPath id="597a0a928d"><path d="M 23.316406 0.386719 C 10.898438 0.386719 0.832031 10.453125 0.832031 22.871094 C 0.832031 35.289062 10.898438 45.355469 23.316406 45.355469 C 35.734375 45.355469 45.800781 35.289062 45.800781 22.871094 C 45.800781 10.453125 35.734375 0.386719 23.316406 0.386719 Z M 23.316406 0.386719 " clip-rule="nonzero"/></clipPath><clipPath id="9739ad6f21"><rect x="0" width="46" y="0" height="46"/></clipPath></defs><g clip-path="url(#a4032b7768)"><path fill="#ffffff" d="M 0 0.0820312 L 1087.5 0.0820312 L 1087.5 597.417969 L 0 597.417969 Z M 0 0.0820312 " fill-opacity="1" fill-rule="nonzero"/></g><g fill="#ff4500" fill-opacity="1"><g transform="translate(427.021587, 197.318329)"><g><path d="M 90.984375 -0.59375 C 89.878906 -0.300781 88.15625 -0.00390625 85.8125 0.296875 C 83.46875 0.597656 81.144531 0.75 78.84375 0.75 C 76.539062 0.75 74.515625 0.570312 72.765625 0.21875 C 71.023438 -0.125 69.550781 -0.742188 68.34375 -1.640625 C 67.144531 -2.546875 66.242188 -3.796875 65.640625 -5.390625 C 65.046875 -6.992188 64.75 -9.09375 64.75 -11.6875 L 64.75 -35.078125 L 35.96875 -35.078125 L 35.96875 -0.59375 C 34.875 -0.300781 33.148438 -0.00390625 30.796875 0.296875 C 28.453125 0.597656 26.128906 0.75 23.828125 0.75 C 21.535156 0.75 19.515625 0.570312 17.765625 0.21875 C 16.015625 -0.125 14.539062 -0.742188 13.34375 -1.640625 C 12.144531 -2.546875 11.242188 -3.796875 10.640625 -5.390625 C 10.046875 -6.992188 9.75 -9.09375 9.75 -11.6875 L 9.75 -90.828125 C 10.84375 -91.035156 12.585938 -91.3125 14.984375 -91.65625 C 17.390625 -92.007812 19.691406 -92.1875 21.890625 -92.1875 C 24.179688 -92.1875 26.203125 -92.007812 27.953125 -91.65625 C 29.703125 -91.3125 31.175781 -90.6875 32.375 -89.78125 C 33.570312 -88.882812 34.46875 -87.632812 35.0625 -86.03125 C 35.664062 -84.4375 35.96875 -82.335938 35.96875 -79.734375 L 35.96875 -55.765625 L 64.75 -55.765625 L 64.75 -90.828125 C 65.851562 -91.035156 67.601562 -91.3125 70 -91.65625 C 72.394531 -92.007812 74.691406 -92.1875 76.890625 -92.1875 C 79.191406 -92.1875 81.21875 -92.007812 82.96875 -91.65625 C 84.71875 -91.3125 86.191406 -90.6875 87.390625 -89.78125 C 88.585938 -88.882812 89.484375 -87.632812 90.078125 -86.03125 C 90.679688 -84.4375 90.984375 -82.335938 90.984375 -79.734375 Z M 90.984375 -0.59375 "/></g></g></g><g fill="#ff4500" fill-opacity="1"><g transform="translate(527.752191, 197.318329)"><g><path d="M 29.078125 -88.140625 C 30.773438 -89.140625 33.347656 -90.085938 36.796875 -90.984375 C 40.242188 -91.878906 43.71875 -92.328125 47.21875 -92.328125 C 52.207031 -92.328125 56.625 -91.601562 60.46875 -90.15625 C 64.320312 -88.707031 66.800781 -86.4375 67.90625 -83.34375 C 69.695312 -78.144531 71.640625 -72.097656 73.734375 -65.203125 C 75.835938 -58.304688 77.9375 -51.1875 80.03125 -43.84375 C 82.132812 -36.5 84.1875 -29.253906 86.1875 -22.109375 C 88.1875 -14.960938 89.9375 -8.640625 91.4375 -3.140625 C 90.238281 -1.742188 88.4375 -0.625 86.03125 0.21875 C 83.632812 1.070312 80.789062 1.5 77.5 1.5 C 75.09375 1.5 73.066406 1.296875 71.421875 0.890625 C 69.773438 0.492188 68.425781 -0.0976562 67.375 -0.890625 C 66.320312 -1.691406 65.472656 -2.742188 64.828125 -4.046875 C 64.179688 -5.347656 63.609375 -6.847656 63.109375 -8.546875 L 60.40625 -18.890625 L 33.28125 -18.890625 C 32.476562 -15.890625 31.675781 -12.789062 30.875 -9.59375 C 30.070312 -6.394531 29.273438 -3.296875 28.484375 -0.296875 C 27.078125 0.203125 25.597656 0.625 24.046875 0.96875 C 22.503906 1.320312 20.632812 1.5 18.4375 1.5 C 13.34375 1.5 9.570312 0.625 7.125 -1.125 C 4.675781 -2.875 3.453125 -5.296875 3.453125 -8.390625 C 3.453125 -9.796875 3.648438 -11.195312 4.046875 -12.59375 C 4.441406 -13.988281 4.890625 -15.632812 5.390625 -17.53125 C 6.085938 -20.226562 7.0625 -23.578125 8.3125 -27.578125 C 9.5625 -31.578125 10.9375 -35.898438 12.4375 -40.546875 C 13.9375 -45.191406 15.535156 -49.960938 17.234375 -54.859375 C 18.929688 -59.753906 20.53125 -64.375 22.03125 -68.71875 C 23.53125 -73.070312 24.90625 -76.945312 26.15625 -80.34375 C 27.40625 -83.738281 28.378906 -86.335938 29.078125 -88.140625 Z M 47.0625 -68.796875 C 45.664062 -64.597656 44.09375 -59.925781 42.34375 -54.78125 C 40.59375 -49.632812 39.019531 -44.414062 37.625 -39.125 L 56.203125 -39.125 C 54.804688 -44.519531 53.382812 -49.789062 51.9375 -54.9375 C 50.488281 -60.082031 49.164062 -64.703125 47.96875 -68.796875 Z M 47.0625 -68.796875 "/></g></g></g><g fill="#ff4500" fill-opacity="1"><g transform="translate(621.737421, 197.318329)"><g><path d="M 5.546875 -69.84375 C 4.847656 -70.945312 4.195312 -72.445312 3.59375 -74.34375 C 3 -76.238281 2.703125 -78.238281 2.703125 -80.34375 C 2.703125 -84.238281 3.570312 -87.035156 5.3125 -88.734375 C 7.0625 -90.429688 9.335938 -91.28125 12.140625 -91.28125 L 77.5 -91.28125 C 78.195312 -90.1875 78.84375 -88.6875 79.4375 -86.78125 C 80.039062 -84.882812 80.34375 -82.890625 80.34375 -80.796875 C 80.34375 -76.898438 79.46875 -74.097656 77.71875 -72.390625 C 75.96875 -70.691406 73.691406 -69.84375 70.890625 -69.84375 L 54.265625 -69.84375 L 54.265625 -0.59375 C 53.160156 -0.300781 51.429688 -0.00390625 49.078125 0.296875 C 46.734375 0.597656 44.414062 0.75 42.125 0.75 C 39.820312 0.75 37.796875 0.570312 36.046875 0.21875 C 34.296875 -0.125 32.820312 -0.742188 31.625 -1.640625 C 30.425781 -2.546875 29.523438 -3.796875 28.921875 -5.390625 C 28.328125 -6.992188 28.03125 -9.09375 28.03125 -11.6875 L 28.03125 -69.84375 Z M 5.546875 -69.84375 "/></g></g></g><g fill="#ff4500" fill-opacity="1"><g transform="translate(705.080012, 197.318329)"><g><path d="M 90.984375 -0.59375 C 89.878906 -0.300781 88.15625 -0.00390625 85.8125 0.296875 C 83.46875 0.597656 81.144531 0.75 78.84375 0.75 C 76.539062 0.75 74.515625 0.570312 72.765625 0.21875 C 71.023438 -0.125 69.550781 -0.742188 68.34375 -1.640625 C 67.144531 -2.546875 66.242188 -3.796875 65.640625 -5.390625 C 65.046875 -6.992188 64.75 -9.09375 64.75 -11.6875 L 64.75 -35.078125 L 35.96875 -35.078125 L 35.96875 -0.59375 C 34.875 -0.300781 33.148438 -0.00390625 30.796875 0.296875 C 28.453125 0.597656 26.128906 0.75 23.828125 0.75 C 21.535156 0.75 19.515625 0.570312 17.765625 0.21875 C 16.015625 -0.125 14.539062 -0.742188 13.34375 -1.640625 C 12.144531 -2.546875 11.242188 -3.796875 10.640625 -5.390625 C 10.046875 -6.992188 9.75 -9.09375 9.75 -11.6875 L 9.75 -90.828125 C 10.84375 -91.035156 12.585938 -91.3125 14.984375 -91.65625 C 17.390625 -92.007812 19.691406 -92.1875 21.890625 -92.1875 C 24.179688 -92.1875 26.203125 -92.007812 27.953125 -91.65625 C 29.703125 -91.3125 31.175781 -90.6875 32.375 -89.78125 C 33.570312 -88.882812 34.46875 -87.632812 35.0625 -86.03125 C 35.664062 -84.4375 35.96875 -82.335938 35.96875 -79.734375 L 35.96875 -55.765625 L 64.75 -55.765625 L 64.75 -90.828125 C 65.851562 -91.035156 67.601562 -91.3125 70 -91.65625 C 72.394531 -92.007812 74.691406 -92.1875 76.890625 -92.1875 C 79.191406 -92.1875 81.21875 -92.007812 82.96875 -91.65625 C 84.71875 -91.3125 86.191406 -90.6875 87.390625 -89.78125 C 88.585938 -88.882812 89.484375 -87.632812 90.078125 -86.03125 C 90.679688 -84.4375 90.984375 -82.335938 90.984375 -79.734375 Z M 90.984375 -0.59375 "/></g></g></g><g fill="#ff4500" fill-opacity="1"><g transform="translate(805.810627, 197.318329)"><g><path d="M 57.40625 -0.59375 C 56.3125 -0.300781 54.613281 -0.00390625 52.3125 0.296875 C 50.007812 0.597656 47.757812 0.75 45.5625 0.75 C 40.96875 0.75 37.519531 -0.0195312 35.21875 -1.5625 C 32.925781 -3.113281 31.78125 -6.390625 31.78125 -11.390625 L 31.78125 -31.625 C 29.28125 -35.320312 26.578125 -39.414062 23.671875 -43.90625 C 20.773438 -48.40625 17.925781 -53.003906 15.125 -57.703125 C 12.332031 -62.398438 9.738281 -67.019531 7.34375 -71.5625 C 4.945312 -76.113281 3 -80.289062 1.5 -84.09375 C 2.800781 -85.882812 4.570312 -87.53125 6.8125 -89.03125 C 9.0625 -90.53125 11.835938 -91.28125 15.140625 -91.28125 C 19.035156 -91.28125 22.207031 -90.476562 24.65625 -88.875 C 27.101562 -87.28125 29.425781 -84.285156 31.625 -79.890625 L 44.0625 -54.859375 L 44.96875 -54.859375 C 46.363281 -57.953125 47.585938 -60.773438 48.640625 -63.328125 C 49.691406 -65.878906 50.71875 -68.425781 51.71875 -70.96875 C 52.71875 -73.519531 53.765625 -76.171875 54.859375 -78.921875 C 55.960938 -81.671875 57.210938 -84.84375 58.609375 -88.4375 C 60.410156 -89.332031 62.410156 -90.03125 64.609375 -90.53125 C 66.804688 -91.03125 68.898438 -91.28125 70.890625 -91.28125 C 74.390625 -91.28125 77.363281 -90.351562 79.8125 -88.5 C 82.257812 -86.65625 83.484375 -83.882812 83.484375 -80.1875 C 83.484375 -78.988281 83.234375 -77.539062 82.734375 -75.84375 C 82.234375 -74.144531 81.082031 -71.570312 79.28125 -68.125 C 77.488281 -64.675781 74.867188 -60.003906 71.421875 -54.109375 C 67.972656 -48.210938 63.300781 -40.519531 57.40625 -31.03125 Z M 57.40625 -0.59375 "/></g></g></g><g fill="#ff4500" fill-opacity="1"><g transform="translate(891.851363, 197.318329)"><g><path d="M 5.25 -45.5625 C 5.25 -53.363281 6.472656 -60.257812 8.921875 -66.25 C 11.367188 -72.25 14.710938 -77.269531 18.953125 -81.3125 C 23.203125 -85.363281 28.195312 -88.4375 33.9375 -90.53125 C 39.6875 -92.632812 45.910156 -93.6875 52.609375 -93.6875 C 59.304688 -93.6875 65.523438 -92.632812 71.265625 -90.53125 C 77.015625 -88.4375 82.035156 -85.363281 86.328125 -81.3125 C 90.628906 -77.269531 94.003906 -72.25 96.453125 -66.25 C 98.898438 -60.257812 100.125 -53.363281 100.125 -45.5625 C 100.125 -37.769531 98.925781 -30.847656 96.53125 -24.796875 C 94.132812 -18.753906 90.8125 -13.707031 86.5625 -9.65625 C 82.3125 -5.613281 77.285156 -2.539062 71.484375 -0.4375 C 65.691406 1.65625 59.398438 2.703125 52.609375 2.703125 C 45.816406 2.703125 39.519531 1.628906 33.71875 -0.515625 C 27.925781 -2.671875 22.929688 -5.796875 18.734375 -9.890625 C 14.535156 -13.984375 11.238281 -19.03125 8.84375 -25.03125 C 6.445312 -31.03125 5.25 -37.875 5.25 -45.5625 Z M 32.21875 -45.5625 C 32.21875 -36.46875 34.066406 -29.671875 37.765625 -25.171875 C 41.460938 -20.679688 46.410156 -18.4375 52.609375 -18.4375 C 58.910156 -18.4375 63.90625 -20.679688 67.59375 -25.171875 C 71.289062 -29.671875 73.140625 -36.46875 73.140625 -45.5625 C 73.140625 -54.5625 71.316406 -61.304688 67.671875 -65.796875 C 64.023438 -70.296875 59.054688 -72.546875 52.765625 -72.546875 C 46.566406 -72.546875 41.59375 -70.320312 37.84375 -65.875 C 34.09375 -61.425781 32.21875 -54.65625 32.21875 -45.5625 Z M 32.21875 -45.5625 "/></g></g></g><g fill="#006636" fill-opacity="1"><g transform="translate(433.181404, 293.077674)"><g><path d="M 38.921875 0 L 33.875 0 L 33.875 -20.5 L 11.015625 -20.5 L 11.015625 0 L 5.953125 0 L 5.953125 -43.515625 L 11.015625 -43.515625 L 11.015625 -24.96875 L 33.875 -24.96875 L 33.875 -43.515625 L 38.921875 -43.515625 Z M 38.921875 0 "/></g></g></g><g fill="#006636" fill-opacity="1"><g transform="translate(478.123135, 293.077674)"><g><path d="M 17.40625 -33.15625 C 21.300781 -33.15625 24.191406 -32.28125 26.078125 -30.53125 C 27.960938 -28.789062 28.90625 -26.003906 28.90625 -22.171875 L 28.90625 0 L 25.296875 0 L 24.34375 -4.828125 L 24.109375 -4.828125 C 23.191406 -3.628906 22.238281 -2.628906 21.25 -1.828125 C 20.257812 -1.023438 19.113281 -0.421875 17.8125 -0.015625 C 16.507812 0.390625 14.914062 0.59375 13.03125 0.59375 C 11.050781 0.59375 9.289062 0.25 7.75 -0.4375 C 6.21875 -1.132812 5.007812 -2.1875 4.125 -3.59375 C 3.238281 -5.007812 2.796875 -6.796875 2.796875 -8.953125 C 2.796875 -12.210938 4.082031 -14.710938 6.65625 -16.453125 C 9.238281 -18.203125 13.171875 -19.15625 18.453125 -19.3125 L 24.078125 -19.546875 L 24.078125 -21.546875 C 24.078125 -24.367188 23.472656 -26.34375 22.265625 -27.46875 C 21.054688 -28.601562 19.347656 -29.171875 17.140625 -29.171875 C 15.429688 -29.171875 13.800781 -28.921875 12.25 -28.421875 C 10.707031 -27.921875 9.242188 -27.335938 7.859375 -26.671875 L 6.34375 -30.421875 C 7.8125 -31.171875 9.492188 -31.8125 11.390625 -32.34375 C 13.296875 -32.882812 15.300781 -33.15625 17.40625 -33.15625 Z M 24.015625 -16.078125 L 19.046875 -15.859375 C 14.984375 -15.703125 12.117188 -15.035156 10.453125 -13.859375 C 8.785156 -12.691406 7.953125 -11.039062 7.953125 -8.90625 C 7.953125 -7.03125 8.515625 -5.644531 9.640625 -4.75 C 10.773438 -3.863281 12.273438 -3.421875 14.140625 -3.421875 C 17.035156 -3.421875 19.40625 -4.222656 21.25 -5.828125 C 23.09375 -7.441406 24.015625 -9.851562 24.015625 -13.0625 Z M 24.015625 -16.078125 "/></g></g></g><g fill="#006636" fill-opacity="1"><g transform="translate(511.993128, 293.077674)"><g><path d="M 20.53125 -33.21875 C 24.601562 -33.21875 27.847656 -31.816406 30.265625 -29.015625 C 32.691406 -26.222656 33.90625 -22.019531 33.90625 -16.40625 C 33.90625 -12.6875 33.347656 -9.566406 32.234375 -7.046875 C 31.117188 -4.535156 29.554688 -2.632812 27.546875 -1.34375 C 25.535156 -0.0507812 23.160156 0.59375 20.421875 0.59375 C 18.691406 0.59375 17.171875 0.363281 15.859375 -0.09375 C 14.554688 -0.550781 13.4375 -1.164062 12.5 -1.9375 C 11.5625 -2.707031 10.785156 -3.550781 10.171875 -4.46875 L 9.828125 -4.46875 C 9.878906 -3.6875 9.945312 -2.75 10.03125 -1.65625 C 10.125 -0.570312 10.171875 0.375 10.171875 1.1875 L 10.171875 14.578125 L 5.203125 14.578125 L 5.203125 -32.625 L 9.28125 -32.625 L 9.9375 -27.796875 L 10.171875 -27.796875 C 10.804688 -28.785156 11.582031 -29.691406 12.5 -30.515625 C 13.414062 -31.335938 14.53125 -31.992188 15.84375 -32.484375 C 17.164062 -32.972656 18.726562 -33.21875 20.53125 -33.21875 Z M 19.671875 -29.046875 C 17.410156 -29.046875 15.585938 -28.609375 14.203125 -27.734375 C 12.828125 -26.859375 11.820312 -25.550781 11.1875 -23.8125 C 10.550781 -22.082031 10.210938 -19.910156 10.171875 -17.296875 L 10.171875 -16.34375 C 10.171875 -13.582031 10.472656 -11.25 11.078125 -9.34375 C 11.691406 -7.4375 12.695312 -5.988281 14.09375 -5 C 15.488281 -4.007812 17.367188 -3.515625 19.734375 -3.515625 C 21.753906 -3.515625 23.4375 -4.054688 24.78125 -5.140625 C 26.132812 -6.234375 27.144531 -7.757812 27.8125 -9.71875 C 28.476562 -11.675781 28.8125 -13.921875 28.8125 -16.453125 C 28.8125 -20.304688 28.0625 -23.367188 26.5625 -25.640625 C 25.0625 -27.910156 22.765625 -29.046875 19.671875 -29.046875 Z M 19.671875 -29.046875 "/></g></g></g><g fill="#006636" fill-opacity="1"><g transform="translate(549.285842, 293.077674)"><g><path d="M 20.53125 -33.21875 C 24.601562 -33.21875 27.847656 -31.816406 30.265625 -29.015625 C 32.691406 -26.222656 33.90625 -22.019531 33.90625 -16.40625 C 33.90625 -12.6875 33.347656 -9.566406 32.234375 -7.046875 C 31.117188 -4.535156 29.554688 -2.632812 27.546875 -1.34375 C 25.535156 -0.0507812 23.160156 0.59375 20.421875 0.59375 C 18.691406 0.59375 17.171875 0.363281 15.859375 -0.09375 C 14.554688 -0.550781 13.4375 -1.164062 12.5 -1.9375 C 11.5625 -2.707031 10.785156 -3.550781 10.171875 -4.46875 L 9.828125 -4.46875 C 9.878906 -3.6875 9.945312 -2.75 10.03125 -1.65625 C 10.125 -0.570312 10.171875 0.375 10.171875 1.1875 L 10.171875 14.578125 L 5.203125 14.578125 L 5.203125 -32.625 L 9.28125 -32.625 L 9.9375 -27.796875 L 10.171875 -27.796875 C 10.804688 -28.785156 11.582031 -29.691406 12.5 -30.515625 C 13.414062 -31.335938 14.53125 -31.992188 15.84375 -32.484375 C 17.164062 -32.972656 18.726562 -33.21875 20.53125 -33.21875 Z M 19.671875 -29.046875 C 17.410156 -29.046875 15.585938 -28.609375 14.203125 -27.734375 C 12.828125 -26.859375 11.820312 -25.550781 11.1875 -23.8125 C 10.550781 -22.082031 10.210938 -19.910156 10.171875 -17.296875 L 10.171875 -16.34375 C 10.171875 -13.582031 10.472656 -11.25 11.078125 -9.34375 C 11.691406 -7.4375 12.695312 -5.988281 14.09375 -5 C 15.488281 -4.007812 17.367188 -3.515625 19.734375 -3.515625 C 21.753906 -3.515625 23.4375 -4.054688 24.78125 -5.140625 C 26.132812 -6.234375 27.144531 -7.757812 27.8125 -9.71875 C 28.476562 -11.675781 28.8125 -13.921875 28.8125 -16.453125 C 28.8125 -20.304688 28.0625 -23.367188 26.5625 -25.640625 C 25.0625 -27.910156 22.765625 -29.046875 19.671875 -29.046875 Z M 19.671875 -29.046875 "/></g></g></g><g fill="#006636" fill-opacity="1"><g transform="translate(586.578556, 293.077674)"><g><path d="M 0.0625 -32.625 L 5.359375 -32.625 L 12.5625 -13.6875 C 12.976562 -12.582031 13.363281 -11.515625 13.71875 -10.484375 C 14.070312 -9.460938 14.390625 -8.484375 14.671875 -7.546875 C 14.953125 -6.617188 15.171875 -5.71875 15.328125 -4.84375 L 15.53125 -4.84375 C 15.8125 -5.84375 16.207031 -7.148438 16.71875 -8.765625 C 17.238281 -10.378906 17.796875 -12.03125 18.390625 -13.71875 L 25.203125 -32.625 L 30.53125 -32.625 L 16.34375 4.796875 C 15.582031 6.796875 14.703125 8.539062 13.703125 10.03125 C 12.703125 11.519531 11.488281 12.664062 10.0625 13.46875 C 8.632812 14.269531 6.90625 14.671875 4.875 14.671875 C 3.945312 14.671875 3.125 14.613281 2.40625 14.5 C 1.695312 14.394531 1.082031 14.273438 0.5625 14.140625 L 0.5625 10.171875 C 1 10.273438 1.53125 10.363281 2.15625 10.4375 C 2.78125 10.519531 3.429688 10.5625 4.109375 10.5625 C 5.335938 10.5625 6.398438 10.328125 7.296875 9.859375 C 8.203125 9.398438 8.984375 8.722656 9.640625 7.828125 C 10.296875 6.929688 10.863281 5.867188 11.34375 4.640625 L 13.125 0.0625 Z M 0.0625 -32.625 "/></g></g></g><g fill="#006636" fill-opacity="1"><g transform="translate(617.115122, 293.077674)"><g/></g></g><g fill="#006636" fill-opacity="1"><g transform="translate(632.948886, 293.077674)"><g><path d="M 38.921875 0 L 33.875 0 L 33.875 -20.5 L 11.015625 -20.5 L 11.015625 0 L 5.953125 0 L 5.953125 -43.515625 L 11.015625 -43.515625 L 11.015625 -24.96875 L 33.875 -24.96875 L 33.875 -43.515625 L 38.921875 -43.515625 Z M 38.921875 0 "/></g></g></g><g fill="#006636" fill-opacity="1"><g transform="translate(677.890629, 293.077674)"><g><path d="M 17.765625 -33.21875 C 20.546875 -33.21875 22.925781 -32.601562 24.90625 -31.375 C 26.894531 -30.144531 28.414062 -28.421875 29.46875 -26.203125 C 30.519531 -23.992188 31.046875 -21.410156 31.046875 -18.453125 L 31.046875 -15.390625 L 8.515625 -15.390625 C 8.566406 -11.554688 9.515625 -8.632812 11.359375 -6.625 C 13.210938 -4.625 15.816406 -3.625 19.171875 -3.625 C 21.234375 -3.625 23.054688 -3.8125 24.640625 -4.1875 C 26.234375 -4.570312 27.878906 -5.128906 29.578125 -5.859375 L 29.578125 -1.515625 C 27.929688 -0.785156 26.300781 -0.253906 24.6875 0.078125 C 23.070312 0.421875 21.160156 0.59375 18.953125 0.59375 C 15.816406 0.59375 13.082031 -0.046875 10.75 -1.328125 C 8.425781 -2.609375 6.617188 -4.488281 5.328125 -6.96875 C 4.035156 -9.445312 3.390625 -12.484375 3.390625 -16.078125 C 3.390625 -19.585938 3.976562 -22.625 5.15625 -25.1875 C 6.34375 -27.757812 8.007812 -29.738281 10.15625 -31.125 C 12.3125 -32.519531 14.847656 -33.21875 17.765625 -33.21875 Z M 17.703125 -29.171875 C 15.066406 -29.171875 12.960938 -28.304688 11.390625 -26.578125 C 9.828125 -24.847656 8.894531 -22.4375 8.59375 -19.34375 L 25.859375 -19.34375 C 25.835938 -21.289062 25.535156 -23.003906 24.953125 -24.484375 C 24.367188 -25.960938 23.476562 -27.113281 22.28125 -27.9375 C 21.09375 -28.757812 19.566406 -29.171875 17.703125 -29.171875 Z M 17.703125 -29.171875 "/></g></g></g><g fill="#006636" fill-opacity="1"><g transform="translate(712.117786, 293.077674)"><g><path d="M 17.40625 -33.15625 C 21.300781 -33.15625 24.191406 -32.28125 26.078125 -30.53125 C 27.960938 -28.789062 28.90625 -26.003906 28.90625 -22.171875 L 28.90625 0 L 25.296875 0 L 24.34375 -4.828125 L 24.109375 -4.828125 C 23.191406 -3.628906 22.238281 -2.628906 21.25 -1.828125 C 20.257812 -1.023438 19.113281 -0.421875 17.8125 -0.015625 C 16.507812 0.390625 14.914062 0.59375 13.03125 0.59375 C 11.050781 0.59375 9.289062 0.25 7.75 -0.4375 C 6.21875 -1.132812 5.007812 -2.1875 4.125 -3.59375 C 3.238281 -5.007812 2.796875 -6.796875 2.796875 -8.953125 C 2.796875 -12.210938 4.082031 -14.710938 6.65625 -16.453125 C 9.238281 -18.203125 13.171875 -19.15625 18.453125 -19.3125 L 24.078125 -19.546875 L 24.078125 -21.546875 C 24.078125 -24.367188 23.472656 -26.34375 22.265625 -27.46875 C 21.054688 -28.601562 19.347656 -29.171875 17.140625 -29.171875 C 15.429688 -29.171875 13.800781 -28.921875 12.25 -28.421875 C 10.707031 -27.921875 9.242188 -27.335938 7.859375 -26.671875 L 6.34375 -30.421875 C 7.8125 -31.171875 9.492188 -31.8125 11.390625 -32.34375 C 13.296875 -32.882812 15.300781 -33.15625 17.40625 -33.15625 Z M 24.015625 -16.078125 L 19.046875 -15.859375 C 14.984375 -15.703125 12.117188 -15.035156 10.453125 -13.859375 C 8.785156 -12.691406 7.953125 -11.039062 7.953125 -8.90625 C 7.953125 -7.03125 8.515625 -5.644531 9.640625 -4.75 C 10.773438 -3.863281 12.273438 -3.421875 14.140625 -3.421875 C 17.035156 -3.421875 19.40625 -4.222656 21.25 -5.828125 C 23.09375 -7.441406 24.015625 -9.851562 24.015625 -13.0625 Z M 24.015625 -16.078125 "/></g></g></g><g fill="#006636" fill-opacity="1"><g transform="translate(745.987768, 293.077674)"><g><path d="M 10.171875 0 L 5.203125 0 L 5.203125 -46.3125 L 10.171875 -46.3125 Z M 10.171875 0 "/></g></g></g><g fill="#006636" fill-opacity="1"><g transform="translate(761.375097, 293.077674)"><g><path d="M 15.75 -3.453125 C 16.5625 -3.453125 17.394531 -3.519531 18.25 -3.65625 C 19.101562 -3.800781 19.796875 -3.972656 20.328125 -4.171875 L 20.328125 -0.328125 C 19.753906 -0.0664062 18.957031 0.148438 17.9375 0.328125 C 16.914062 0.503906 15.914062 0.59375 14.9375 0.59375 C 13.207031 0.59375 11.640625 0.289062 10.234375 -0.3125 C 8.828125 -0.914062 7.703125 -1.941406 6.859375 -3.390625 C 6.015625 -4.835938 5.59375 -6.84375 5.59375 -9.40625 L 5.59375 -28.75 L 0.953125 -28.75 L 0.953125 -31.15625 L 5.625 -33.09375 L 7.59375 -40.171875 L 10.5625 -40.171875 L 10.5625 -32.625 L 20.125 -32.625 L 20.125 -28.75 L 10.5625 -28.75 L 10.5625 -9.546875 C 10.5625 -7.503906 11.03125 -5.976562 11.96875 -4.96875 C 12.914062 -3.957031 14.175781 -3.453125 15.75 -3.453125 Z M 15.75 -3.453125 "/></g></g></g><g fill="#006636" fill-opacity="1"><g transform="translate(783.101906, 293.077674)"><g><path d="M 10.15625 -46.3125 L 10.15625 -32.46875 C 10.15625 -31.675781 10.132812 -30.878906 10.09375 -30.078125 C 10.050781 -29.273438 9.976562 -28.535156 9.875 -27.859375 L 10.203125 -27.859375 C 10.878906 -29.003906 11.738281 -29.96875 12.78125 -30.75 C 13.820312 -31.539062 15.003906 -32.140625 16.328125 -32.546875 C 17.660156 -32.953125 19.070312 -33.15625 20.5625 -33.15625 C 23.1875 -33.15625 25.375 -32.738281 27.125 -31.90625 C 28.882812 -31.070312 30.203125 -29.78125 31.078125 -28.03125 C 31.960938 -26.289062 32.40625 -24.03125 32.40625 -21.25 L 32.40625 0 L 27.53125 0 L 27.53125 -20.921875 C 27.53125 -23.640625 26.910156 -25.671875 25.671875 -27.015625 C 24.429688 -28.367188 22.53125 -29.046875 19.96875 -29.046875 C 17.550781 -29.046875 15.625 -28.582031 14.1875 -27.65625 C 12.75 -26.738281 11.71875 -25.382812 11.09375 -23.59375 C 10.46875 -21.8125 10.15625 -19.628906 10.15625 -17.046875 L 10.15625 0 L 5.203125 0 L 5.203125 -46.3125 Z M 10.15625 -46.3125 "/></g></g></g><g fill="#006636" fill-opacity="1"><g transform="translate(820.483925, 293.077674)"><g><path d="M 0.0625 -32.625 L 5.359375 -32.625 L 12.5625 -13.6875 C 12.976562 -12.582031 13.363281 -11.515625 13.71875 -10.484375 C 14.070312 -9.460938 14.390625 -8.484375 14.671875 -7.546875 C 14.953125 -6.617188 15.171875 -5.71875 15.328125 -4.84375 L 15.53125 -4.84375 C 15.8125 -5.84375 16.207031 -7.148438 16.71875 -8.765625 C 17.238281 -10.378906 17.796875 -12.03125 18.390625 -13.71875 L 25.203125 -32.625 L 30.53125 -32.625 L 16.34375 4.796875 C 15.582031 6.796875 14.703125 8.539062 13.703125 10.03125 C 12.703125 11.519531 11.488281 12.664062 10.0625 13.46875 C 8.632812 14.269531 6.90625 14.671875 4.875 14.671875 C 3.945312 14.671875 3.125 14.613281 2.40625 14.5 C 1.695312 14.394531 1.082031 14.273438 0.5625 14.140625 L 0.5625 10.171875 C 1 10.273438 1.53125 10.363281 2.15625 10.4375 C 2.78125 10.519531 3.429688 10.5625 4.109375 10.5625 C 5.335938 10.5625 6.398438 10.328125 7.296875 9.859375 C 8.203125 9.398438 8.984375 8.722656 9.640625 7.828125 C 10.296875 6.929688 10.863281 5.867188 11.34375 4.640625 L 13.125 0.0625 Z M 0.0625 -32.625 "/></g></g></g><g fill="#006636" fill-opacity="1"><g transform="translate(851.02048, 293.077674)"><g/></g></g><g fill="#006636" fill-opacity="1"><g transform="translate(866.854233, 293.077674)"><g><path d="M 17.046875 -21.703125 L 28.625 -43.515625 L 34.078125 -43.515625 L 19.578125 -16.875 L 19.578125 0 L 14.53125 0 L 14.53125 -16.640625 L 0 -43.515625 L 5.53125 -43.515625 Z M 17.046875 -21.703125 "/></g></g></g><g fill="#006636" fill-opacity="1"><g transform="translate(900.932582, 293.077674)"><g><path d="M 33.328125 -16.375 C 33.328125 -13.6875 32.976562 -11.289062 32.28125 -9.1875 C 31.59375 -7.09375 30.59375 -5.320312 29.28125 -3.875 C 27.976562 -2.425781 26.394531 -1.316406 24.53125 -0.546875 C 22.675781 0.210938 20.582031 0.59375 18.25 0.59375 C 16.0625 0.59375 14.0625 0.210938 12.25 -0.546875 C 10.4375 -1.316406 8.867188 -2.425781 7.546875 -3.875 C 6.222656 -5.320312 5.195312 -7.09375 4.46875 -9.1875 C 3.75 -11.289062 3.390625 -13.6875 3.390625 -16.375 C 3.390625 -19.9375 3.992188 -22.972656 5.203125 -25.484375 C 6.421875 -27.992188 8.15625 -29.910156 10.40625 -31.234375 C 12.65625 -32.554688 15.335938 -33.21875 18.453125 -33.21875 C 21.429688 -33.21875 24.035156 -32.550781 26.265625 -31.21875 C 28.492188 -29.882812 30.226562 -27.960938 31.46875 -25.453125 C 32.707031 -22.953125 33.328125 -19.925781 33.328125 -16.375 Z M 8.515625 -16.375 C 8.515625 -13.75 8.859375 -11.472656 9.546875 -9.546875 C 10.242188 -7.628906 11.316406 -6.144531 12.765625 -5.09375 C 14.210938 -4.039062 16.078125 -3.515625 18.359375 -3.515625 C 20.617188 -3.515625 22.476562 -4.039062 23.9375 -5.09375 C 25.394531 -6.144531 26.472656 -7.628906 27.171875 -9.546875 C 27.867188 -11.472656 28.21875 -13.75 28.21875 -16.375 C 28.21875 -18.96875 27.867188 -21.210938 27.171875 -23.109375 C 26.472656 -25.003906 25.398438 -26.46875 23.953125 -27.5 C 22.503906 -28.53125 20.628906 -29.046875 18.328125 -29.046875 C 14.941406 -29.046875 12.457031 -27.925781 10.875 -25.6875 C 9.300781 -23.445312 8.515625 -20.34375 8.515625 -16.375 Z M 8.515625 -16.375 "/></g></g></g><g fill="#006636" fill-opacity="1"><g transform="translate(937.600273, 293.077674)"><g><path d="M 32.140625 -32.625 L 32.140625 0 L 28.09375 0 L 27.375 -4.578125 L 27.109375 -4.578125 C 26.429688 -3.453125 25.554688 -2.5 24.484375 -1.71875 C 23.421875 -0.945312 22.21875 -0.367188 20.875 0.015625 C 19.539062 0.398438 18.117188 0.59375 16.609375 0.59375 C 14.023438 0.59375 11.859375 0.175781 10.109375 -0.65625 C 8.367188 -1.488281 7.054688 -2.773438 6.171875 -4.515625 C 5.285156 -6.265625 4.84375 -8.507812 4.84375 -11.25 L 4.84375 -32.625 L 9.84375 -32.625 L 9.84375 -11.609375 C 9.84375 -8.890625 10.457031 -6.859375 11.6875 -5.515625 C 12.925781 -4.179688 14.804688 -3.515625 17.328125 -3.515625 C 19.742188 -3.515625 21.671875 -3.96875 23.109375 -4.875 C 24.546875 -5.789062 25.582031 -7.132812 26.21875 -8.90625 C 26.851562 -10.6875 27.171875 -12.867188 27.171875 -15.453125 L 27.171875 -32.625 Z M 32.140625 -32.625 "/></g></g></g><g fill="#006636" fill-opacity="1"><g transform="translate(974.982269, 293.077674)"><g><path d="M 9.671875 -12.078125 L 6.421875 -12.078125 L 5.0625 -43.515625 L 11.046875 -43.515625 Z M 4.46875 -3.09375 C 4.46875 -4.476562 4.800781 -5.460938 5.46875 -6.046875 C 6.144531 -6.640625 6.988281 -6.9375 8 -6.9375 C 9 -6.9375 9.835938 -6.640625 10.515625 -6.046875 C 11.203125 -5.460938 11.546875 -4.476562 11.546875 -3.09375 C 11.546875 -1.726562 11.203125 -0.734375 10.515625 -0.109375 C 9.835938 0.515625 9 0.828125 8 0.828125 C 6.988281 0.828125 6.144531 0.515625 5.46875 -0.109375 C 4.800781 -0.734375 4.46875 -1.726562 4.46875 -3.09375 Z M 4.46875 -3.09375 "/></g></g></g><g clip-path="url(#3399cf7050)"><path fill="#ff4500" d="M 78.304688 497.40625 C 77.445312 497.40625 76.589844 497.445312 75.734375 497.53125 C 74.878906 497.617188 74.03125 497.742188 73.1875 497.910156 C 72.34375 498.078125 71.511719 498.285156 70.691406 498.535156 C 69.867188 498.785156 69.058594 499.074219 68.265625 499.402344 C 67.472656 499.730469 66.695312 500.097656 65.9375 500.503906 C 65.179688 500.90625 64.445312 501.347656 63.730469 501.824219 C 63.015625 502.304688 62.328125 502.8125 61.664062 503.359375 C 61 503.90625 60.363281 504.480469 59.757812 505.089844 C 59.148438 505.695312 58.570312 506.332031 58.027344 506.996094 C 57.480469 507.660156 56.972656 508.347656 56.492188 509.0625 C 56.015625 509.777344 55.574219 510.515625 55.171875 511.269531 C 54.765625 512.027344 54.398438 512.804688 54.070312 513.597656 C 53.742188 514.390625 53.453125 515.199219 53.203125 516.023438 C 52.953125 516.84375 52.746094 517.675781 52.578125 518.519531 C 52.410156 519.363281 52.285156 520.210938 52.199219 521.066406 C 52.113281 521.921875 52.074219 522.777344 52.074219 523.636719 C 52.074219 524.496094 52.113281 525.351562 52.199219 526.207031 C 52.285156 527.0625 52.410156 527.910156 52.578125 528.753906 C 52.746094 529.597656 52.953125 530.429688 53.203125 531.25 C 53.453125 532.074219 53.742188 532.882812 54.070312 533.675781 C 54.398438 534.46875 54.765625 535.246094 55.171875 536.003906 C 55.574219 536.761719 56.015625 537.496094 56.492188 538.210938 C 56.972656 538.925781 57.480469 539.613281 58.027344 540.277344 C 58.570312 540.941406 59.148438 541.578125 59.757812 542.1875 C 60.363281 542.792969 61 543.371094 61.664062 543.914062 C 62.328125 544.460938 63.015625 544.972656 63.730469 545.449219 C 64.445312 545.925781 65.179688 546.367188 65.9375 546.773438 C 66.695312 547.175781 67.472656 547.542969 68.265625 547.871094 C 69.058594 548.199219 69.867188 548.488281 70.691406 548.738281 C 71.511719 548.988281 72.34375 549.199219 73.1875 549.363281 C 74.03125 549.53125 74.878906 549.660156 75.734375 549.742188 C 76.589844 549.828125 77.445312 549.867188 78.304688 549.867188 C 79.164062 549.867188 80.019531 549.828125 80.875 549.742188 C 81.730469 549.660156 82.578125 549.53125 83.421875 549.363281 C 84.265625 549.199219 85.097656 548.988281 85.917969 548.738281 C 86.742188 548.488281 87.550781 548.199219 88.34375 547.871094 C 89.136719 547.542969 89.914062 547.175781 90.671875 546.773438 C 91.429688 546.367188 92.164062 545.925781 92.878906 545.449219 C 93.59375 544.972656 94.28125 544.460938 94.945312 543.914062 C 95.609375 543.371094 96.246094 542.792969 96.851562 542.1875 C 97.460938 541.578125 98.039062 540.941406 98.582031 540.277344 C 99.128906 539.613281 99.636719 538.925781 100.117188 538.210938 C 100.59375 537.496094 101.035156 536.761719 101.4375 536.003906 C 101.84375 535.246094 102.210938 534.46875 102.539062 533.675781 C 102.867188 532.882812 103.15625 532.074219 103.40625 531.25 C 103.65625 530.429688 103.863281 529.597656 104.03125 528.753906 C 104.199219 527.910156 104.324219 527.0625 104.410156 526.207031 C 104.496094 525.351562 104.535156 524.496094 104.535156 523.636719 C 104.535156 522.777344 104.492188 521.921875 104.40625 521.066406 C 104.324219 520.210938 104.195312 519.363281 104.027344 518.519531 C 103.859375 517.679688 103.648438 516.847656 103.398438 516.027344 C 103.152344 515.203125 102.859375 514.394531 102.53125 513.601562 C 102.203125 512.808594 101.835938 512.035156 101.429688 511.277344 C 101.023438 510.519531 100.582031 509.785156 100.105469 509.070312 C 99.628906 508.355469 99.117188 507.667969 98.574219 507.003906 C 98.027344 506.339844 97.453125 505.703125 96.84375 505.097656 C 96.238281 504.488281 95.601562 503.914062 94.9375 503.367188 C 94.273438 502.824219 93.585938 502.3125 92.871094 501.835938 C 92.15625 501.359375 91.421875 500.917969 90.664062 500.511719 C 89.90625 500.105469 89.132812 499.738281 88.339844 499.410156 C 87.546875 499.082031 86.738281 498.792969 85.917969 498.542969 C 85.09375 498.292969 84.261719 498.082031 83.421875 497.914062 C 82.578125 497.746094 81.730469 497.617188 80.875 497.535156 C 80.019531 497.449219 79.164062 497.40625 78.304688 497.40625 Z M 78.304688 546.371094 C 74.695312 546.371094 70.914062 541.714844 69.035156 534.128906 L 87.574219 534.128906 C 85.695312 541.714844 81.914062 546.371094 78.304688 546.371094 Z M 68.324219 530.632812 C 67.636719 525.96875 67.636719 521.304688 68.324219 516.640625 L 88.285156 516.640625 C 88.628906 518.960938 88.800781 521.292969 88.796875 523.636719 C 88.800781 525.980469 88.628906 528.3125 88.285156 530.632812 Z M 55.570312 523.636719 C 55.570312 521.246094 55.941406 518.914062 56.683594 516.640625 L 64.816406 516.640625 C 64.144531 521.304688 64.144531 525.96875 64.816406 530.632812 L 56.683594 530.632812 C 55.941406 528.359375 55.570312 526.027344 55.570312 523.636719 Z M 78.304688 500.902344 C 81.914062 500.902344 85.695312 505.558594 87.574219 513.144531 L 69.035156 513.144531 C 70.914062 505.558594 74.695312 500.902344 78.304688 500.902344 Z M 91.792969 516.640625 L 99.925781 516.640625 C 100.667969 518.914062 101.039062 521.246094 101.039062 523.636719 C 101.039062 526.027344 100.667969 528.359375 99.925781 530.632812 L 91.792969 530.632812 C 92.125 528.3125 92.292969 525.980469 92.296875 523.636719 C 92.292969 521.292969 92.125 518.960938 91.792969 516.640625 Z M 98.453125 513.144531 L 91.164062 513.144531 C 90.378906 509.304688 88.882812 505.761719 86.675781 502.519531 C 89.210938 503.53125 91.488281 504.949219 93.515625 506.777344 C 95.542969 508.605469 97.1875 510.726562 98.453125 513.144531 Z M 69.933594 502.519531 C 67.726562 505.761719 66.230469 509.304688 65.445312 513.144531 L 58.15625 513.144531 C 59.421875 510.726562 61.066406 508.605469 63.09375 506.777344 C 65.117188 504.949219 67.398438 503.53125 69.933594 502.519531 Z M 58.15625 534.128906 L 65.445312 534.128906 C 66.230469 537.972656 67.726562 541.511719 69.933594 544.753906 C 67.398438 543.742188 65.117188 542.324219 63.09375 540.496094 C 61.066406 538.667969 59.421875 536.546875 58.15625 534.128906 Z M 86.675781 544.753906 C 88.882812 541.511719 90.378906 537.972656 91.164062 534.128906 L 98.453125 534.128906 C 97.1875 536.546875 95.542969 538.667969 93.515625 540.496094 C 91.488281 542.324219 89.210938 543.742188 86.675781 544.753906 Z M 86.675781 544.753906 " fill-opacity="1" fill-rule="nonzero"/></g><g clip-path="url(#318c2192f2)"><path fill="#ff4500" d="M 683.613281 523.636719 C 683.613281 510.722656 673.105469 500.214844 660.191406 500.214844 C 647.273438 500.214844 636.765625 510.722656 636.765625 523.636719 C 636.765625 536.554688 647.273438 547.058594 660.191406 547.058594 C 673.105469 547.058594 683.613281 536.554688 683.613281 523.636719 Z M 686.417969 523.636719 C 686.417969 538.101562 674.652344 549.867188 660.191406 549.867188 C 645.726562 549.867188 633.960938 538.101562 633.960938 523.636719 C 633.960938 509.175781 645.726562 497.410156 660.191406 497.410156 C 674.652344 497.410156 686.417969 509.175781 686.417969 523.636719 Z M 662.089844 509.394531 C 661.5 509.257812 660.816406 509.683594 660.691406 510.273438 C 660.6875 510.292969 660.683594 510.3125 660.679688 510.332031 C 660.589844 510.75 660.824219 511.113281 661.242188 511.210938 C 669.632812 513.144531 673.167969 518.867188 671.164062 527.230469 C 671.066406 527.648438 671.289062 528.015625 671.703125 528.125 C 671.722656 528.128906 671.742188 528.136719 671.761719 528.140625 C 672.34375 528.292969 673.027344 527.867188 673.167969 527.28125 C 675.335938 518.113281 671.261719 511.539062 662.089844 509.394531 Z M 660.765625 512.765625 C 660.203125 512.613281 659.523438 512.996094 659.359375 513.566406 C 659.355469 513.578125 659.351562 513.589844 659.347656 513.597656 C 659.222656 514.03125 659.445312 514.425781 659.871094 514.539062 C 666.390625 516.285156 668.910156 520.335938 667.582031 526.945312 C 667.492188 527.394531 667.761719 527.773438 668.226562 527.839844 C 668.234375 527.839844 668.246094 527.84375 668.257812 527.84375 C 668.839844 527.929688 669.460938 527.492188 669.574219 526.929688 C 671.027344 519.613281 668 514.710938 660.765625 512.765625 Z M 658.308594 517.785156 C 663.0625 519.296875 664.746094 521.9375 663.976562 526.929688 C 663.90625 527.378906 664.195312 527.746094 664.667969 527.796875 C 665.257812 527.859375 665.867188 527.40625 665.960938 526.847656 C 666.917969 521.183594 664.765625 517.707031 659.269531 516.042969 C 658.730469 515.878906 658.0625 516.21875 657.855469 516.769531 L 657.847656 516.785156 C 657.683594 517.226562 657.882812 517.648438 658.308594 517.785156 Z M 669.195312 538.28125 C 665.3125 543.238281 660.148438 539.054688 657.066406 535.453125 C 653.179688 530.683594 650.140625 525.777344 647.597656 520.175781 C 645.746094 515.8125 644.304688 509.324219 650.46875 508.054688 C 652 507.738281 653.519531 508.753906 653.945312 510.308594 C 654.414062 512.007812 654.683594 512.847656 655.296875 514.492188 C 655.855469 515.996094 655.222656 517.695312 653.78125 518.328125 C 653.664062 518.378906 653.605469 518.40625 653.488281 518.457031 C 652.714844 518.800781 652.394531 519.773438 652.800781 520.621094 C 654.597656 524.160156 656.609375 527.410156 658.980469 530.597656 C 659.558594 531.339844 660.574219 531.484375 661.222656 530.945312 C 661.324219 530.863281 661.371094 530.820312 661.472656 530.738281 C 662.679688 529.730469 664.484375 529.921875 665.578125 531.089844 C 666.78125 532.371094 667.410156 532.988281 668.726562 534.164062 C 669.929688 535.242188 670.15625 537.050781 669.195312 538.28125 " fill-opacity="1" fill-rule="nonzero"/></g><g fill="#006636" fill-opacity="1"><g transform="translate(53.127942, 454.641011)"><g><path d="M 25.53125 -9.90625 C 25.53125 -7.789062 25.019531 -5.953125 24 -4.390625 C 22.976562 -2.828125 21.488281 -1.625 19.53125 -0.78125 C 17.570312 0.0625 15.191406 0.484375 12.390625 0.484375 C 11.148438 0.484375 9.941406 0.398438 8.765625 0.234375 C 7.585938 0.078125 6.457031 -0.15625 5.375 -0.46875 C 4.289062 -0.789062 3.265625 -1.1875 2.296875 -1.65625 L 2.296875 -8.6875 C 3.984375 -7.9375 5.738281 -7.257812 7.5625 -6.65625 C 9.382812 -6.050781 11.1875 -5.75 12.96875 -5.75 C 14.207031 -5.75 15.203125 -5.910156 15.953125 -6.234375 C 16.710938 -6.566406 17.265625 -7.015625 17.609375 -7.578125 C 17.953125 -8.148438 18.125 -8.800781 18.125 -9.53125 C 18.125 -10.425781 17.820312 -11.191406 17.21875 -11.828125 C 16.613281 -12.460938 15.785156 -13.054688 14.734375 -13.609375 C 13.691406 -14.160156 12.515625 -14.753906 11.203125 -15.390625 C 10.367188 -15.773438 9.460938 -16.25 8.484375 -16.8125 C 7.515625 -17.375 6.585938 -18.0625 5.703125 -18.875 C 4.828125 -19.6875 4.109375 -20.675781 3.546875 -21.84375 C 2.984375 -23.007812 2.703125 -24.40625 2.703125 -26.03125 C 2.703125 -28.15625 3.191406 -29.972656 4.171875 -31.484375 C 5.148438 -32.992188 6.546875 -34.148438 8.359375 -34.953125 C 10.171875 -35.765625 12.3125 -36.171875 14.78125 -36.171875 C 16.632812 -36.171875 18.398438 -35.953125 20.078125 -35.515625 C 21.765625 -35.085938 23.523438 -34.46875 25.359375 -33.65625 L 22.921875 -27.78125 C 21.285156 -28.445312 19.816406 -28.960938 18.515625 -29.328125 C 17.210938 -29.691406 15.882812 -29.875 14.53125 -29.875 C 13.59375 -29.875 12.789062 -29.722656 12.125 -29.421875 C 11.457031 -29.128906 10.953125 -28.707031 10.609375 -28.15625 C 10.265625 -27.613281 10.09375 -26.984375 10.09375 -26.265625 C 10.09375 -25.421875 10.335938 -24.707031 10.828125 -24.125 C 11.328125 -23.550781 12.078125 -22.992188 13.078125 -22.453125 C 14.078125 -21.921875 15.328125 -21.300781 16.828125 -20.59375 C 18.648438 -19.726562 20.207031 -18.828125 21.5 -17.890625 C 22.789062 -16.953125 23.785156 -15.851562 24.484375 -14.59375 C 25.179688 -13.332031 25.53125 -11.769531 25.53125 -9.90625 Z M 25.53125 -9.90625 "/></g></g></g><g fill="#006636" fill-opacity="1"><g transform="translate(80.643738, 454.641011)"><g><path d="M 26.3125 0 L 23.734375 -8.484375 L 10.734375 -8.484375 L 8.140625 0 L 0 0 L 12.578125 -35.8125 L 21.828125 -35.8125 L 34.46875 0 Z M 21.921875 -14.828125 L 19.34375 -23.125 C 19.175781 -23.675781 18.957031 -24.382812 18.6875 -25.25 C 18.425781 -26.125 18.160156 -27.007812 17.890625 -27.90625 C 17.617188 -28.8125 17.40625 -29.597656 17.25 -30.265625 C 17.082031 -29.597656 16.851562 -28.769531 16.5625 -27.78125 C 16.28125 -26.800781 16.007812 -25.875 15.75 -25 C 15.488281 -24.125 15.304688 -23.5 15.203125 -23.125 L 12.640625 -14.828125 Z M 16.03125 -46.65625 C 16.519531 -45.90625 17.109375 -45.078125 17.796875 -44.171875 C 18.484375 -43.265625 19.1875 -42.382812 19.90625 -41.53125 C 20.625 -40.675781 21.242188 -39.9375 21.765625 -39.3125 L 21.765625 -38.65625 L 16.828125 -38.65625 C 16.203125 -39.09375 15.460938 -39.640625 14.609375 -40.296875 C 13.765625 -40.960938 12.898438 -41.65625 12.015625 -42.375 C 11.128906 -43.101562 10.300781 -43.800781 9.53125 -44.46875 C 8.769531 -45.132812 8.15625 -45.691406 7.6875 -46.140625 L 7.6875 -46.65625 Z M 16.03125 -46.65625 "/></g></g></g><g fill="#006636" fill-opacity="1"><g transform="translate(115.111662, 454.641011)"><g><path d="M 36.125 0 L 26.515625 0 L 11 -26.984375 L 10.78125 -26.984375 C 10.84375 -25.859375 10.898438 -24.722656 10.953125 -23.578125 C 11.003906 -22.441406 11.050781 -21.304688 11.09375 -20.171875 C 11.144531 -19.046875 11.195312 -17.914062 11.25 -16.78125 L 11.25 0 L 4.484375 0 L 4.484375 -35.65625 L 14.03125 -35.65625 L 29.515625 -8.953125 L 29.6875 -8.953125 C 29.65625 -10.054688 29.613281 -11.148438 29.5625 -12.234375 C 29.507812 -13.328125 29.460938 -14.414062 29.421875 -15.5 C 29.378906 -16.59375 29.34375 -17.6875 29.3125 -18.78125 L 29.3125 -35.65625 L 36.125 -35.65625 Z M 36.125 0 "/></g></g></g><g fill="#006636" fill-opacity="1"><g transform="translate(155.726732, 454.641011)"><g/></g></g><g fill="#006636" fill-opacity="1"><g transform="translate(168.704039, 454.641011)"><g><path d="M 18.25 0 L 10.6875 0 L 10.6875 -29.359375 L 1 -29.359375 L 1 -35.65625 L 27.921875 -35.65625 L 27.921875 -29.359375 L 18.25 -29.359375 Z M 18.25 0 "/></g></g></g><g fill="#006636" fill-opacity="1"><g transform="translate(197.634653, 454.641011)"><g><path d="M 19.59375 0 L 11 -27.984375 L 10.78125 -27.984375 C 10.8125 -27.316406 10.863281 -26.3125 10.9375 -24.96875 C 11.007812 -23.625 11.078125 -22.195312 11.140625 -20.6875 C 11.210938 -19.175781 11.25 -17.8125 11.25 -16.59375 L 11.25 0 L 4.484375 0 L 4.484375 -35.65625 L 14.78125 -35.65625 L 23.21875 -8.390625 L 23.359375 -8.390625 L 32.3125 -35.65625 L 42.609375 -35.65625 L 42.609375 0 L 35.5625 0 L 35.5625 -16.875 C 35.5625 -18 35.582031 -19.289062 35.625 -20.75 C 35.664062 -22.21875 35.71875 -23.613281 35.78125 -24.9375 C 35.84375 -26.257812 35.890625 -27.253906 35.921875 -27.921875 L 35.703125 -27.921875 L 26.515625 0 Z M 19.59375 0 "/></g></g></g><g fill="#006636" fill-opacity="1"><g transform="translate(244.738377, 454.641011)"><g><path d="M 15.6875 -35.65625 C 19.425781 -35.65625 22.664062 -34.992188 25.40625 -33.671875 C 28.15625 -32.347656 30.285156 -30.390625 31.796875 -27.796875 C 33.316406 -25.203125 34.078125 -21.992188 34.078125 -18.171875 C 34.078125 -14.148438 33.304688 -10.796875 31.765625 -8.109375 C 30.234375 -5.421875 28.007812 -3.394531 25.09375 -2.03125 C 22.1875 -0.675781 18.679688 0 14.578125 0 L 4.484375 0 L 4.484375 -14.53125 L 1.140625 -14.53125 L 1.140625 -20.734375 L 4.484375 -20.734375 L 4.484375 -35.65625 Z M 16.03125 -29.46875 L 12.046875 -29.46875 L 12.046875 -20.734375 L 17.828125 -20.734375 L 17.828125 -14.53125 L 12.046875 -14.53125 L 12.046875 -6.25 L 15.25 -6.25 C 18.882812 -6.25 21.617188 -7.226562 23.453125 -9.1875 C 25.296875 -11.15625 26.21875 -14.082031 26.21875 -17.96875 C 26.21875 -20.601562 25.816406 -22.769531 25.015625 -24.46875 C 24.222656 -26.175781 23.070312 -27.4375 21.5625 -28.25 C 20.050781 -29.0625 18.207031 -29.46875 16.03125 -29.46875 Z M 16.03125 -29.46875 "/></g></g></g><g fill="#006636" fill-opacity="1"><g transform="translate(281.718836, 454.641011)"><g><path d="M 18.25 0 L 10.6875 0 L 10.6875 -29.359375 L 1 -29.359375 L 1 -35.65625 L 27.921875 -35.65625 L 27.921875 -29.359375 L 18.25 -29.359375 Z M 18.25 0 "/></g></g></g><g fill="#006636" fill-opacity="1"><g transform="translate(310.649428, 454.641011)"><g/></g></g><g fill="#006636" fill-opacity="1"><g transform="translate(323.626735, 454.641011)"><g><path d="M 32.46875 -35.65625 L 20.34375 0 L 12.09375 0 L 0 -35.65625 L 7.640625 -35.65625 L 14.34375 -14.4375 C 14.457031 -14.082031 14.644531 -13.410156 14.90625 -12.421875 C 15.164062 -11.441406 15.425781 -10.398438 15.6875 -9.296875 C 15.957031 -8.203125 16.144531 -7.296875 16.25 -6.578125 C 16.34375 -7.296875 16.515625 -8.195312 16.765625 -9.28125 C 17.015625 -10.375 17.265625 -11.410156 17.515625 -12.390625 C 17.773438 -13.378906 17.960938 -14.0625 18.078125 -14.4375 L 24.828125 -35.65625 Z M 32.46875 -35.65625 "/></g></g></g><g fill="#006636" fill-opacity="1"><g transform="translate(356.094409, 454.641011)"><g><path d="M 33.515625 -35.65625 L 33.515625 -12.578125 C 33.515625 -10.128906 32.972656 -7.914062 31.890625 -5.9375 C 30.804688 -3.957031 29.171875 -2.390625 26.984375 -1.234375 C 24.796875 -0.0859375 22.046875 0.484375 18.734375 0.484375 C 14.015625 0.484375 10.421875 -0.71875 7.953125 -3.125 C 5.484375 -5.53125 4.25 -8.71875 4.25 -12.6875 L 4.25 -35.65625 L 11.78125 -35.65625 L 11.78125 -13.828125 C 11.78125 -10.890625 12.378906 -8.828125 13.578125 -7.640625 C 14.785156 -6.453125 16.566406 -5.859375 18.921875 -5.859375 C 20.585938 -5.859375 21.9375 -6.140625 22.96875 -6.703125 C 24 -7.273438 24.757812 -8.15625 25.25 -9.34375 C 25.738281 -10.53125 25.984375 -12.039062 25.984375 -13.875 L 25.984375 -35.65625 Z M 33.515625 -35.65625 "/></g></g></g><g fill="#006636" fill-opacity="1"><g transform="translate(393.855446, 454.641011)"><g><path d="M 4.484375 0 L 4.484375 -35.65625 L 12.046875 -35.65625 L 12.046875 0 Z M 4.484375 0 "/></g></g></g><g fill="#006636" fill-opacity="1"><g transform="translate(410.394195, 454.641011)"><g/></g></g><g fill="#006636" fill-opacity="1"><g transform="translate(423.371502, 454.641011)"><g><path d="M 33.171875 0 L 24.59375 0 L 15.25 -15.03125 L 12.046875 -12.734375 L 12.046875 0 L 4.484375 0 L 4.484375 -35.65625 L 12.046875 -35.65625 L 12.046875 -19.34375 C 12.554688 -20.039062 13.050781 -20.738281 13.53125 -21.4375 C 14.019531 -22.132812 14.519531 -22.832031 15.03125 -23.53125 L 24.6875 -35.65625 L 33.078125 -35.65625 L 20.640625 -19.875 Z M 33.171875 0 "/></g></g></g><g fill="#006636" fill-opacity="1"><g transform="translate(456.546551, 454.641011)"><g><path d="M 33.703125 0 L 26.171875 0 L 26.171875 -15.390625 L 12.046875 -15.390625 L 12.046875 0 L 4.484375 0 L 4.484375 -35.65625 L 12.046875 -35.65625 L 12.046875 -21.6875 L 26.171875 -21.6875 L 26.171875 -35.65625 L 33.703125 -35.65625 Z M 33.703125 0 "/></g></g></g><g fill="#006636" fill-opacity="1"><g transform="translate(494.771076, 454.641011)"><g><path d="M 36.859375 -17.875 C 36.859375 -15.125 36.515625 -12.625 35.828125 -10.375 C 35.148438 -8.125 34.113281 -6.1875 32.71875 -4.5625 C 31.332031 -2.9375 29.570312 -1.6875 27.4375 -0.8125 C 25.3125 0.0507812 22.789062 0.484375 19.875 0.484375 C 16.96875 0.484375 14.445312 0.0507812 12.3125 -0.8125 C 10.1875 -1.6875 8.425781 -2.9375 7.03125 -4.5625 C 5.644531 -6.1875 4.609375 -8.128906 3.921875 -10.390625 C 3.242188 -12.648438 2.90625 -15.160156 2.90625 -17.921875 C 2.90625 -21.617188 3.507812 -24.835938 4.71875 -27.578125 C 5.925781 -30.316406 7.789062 -32.441406 10.3125 -33.953125 C 12.832031 -35.460938 16.035156 -36.21875 19.921875 -36.21875 C 23.796875 -36.21875 26.976562 -35.460938 29.46875 -33.953125 C 31.96875 -32.441406 33.820312 -30.3125 35.03125 -27.5625 C 36.25 -24.8125 36.859375 -21.582031 36.859375 -17.875 Z M 10.828125 -17.875 C 10.828125 -15.382812 11.140625 -13.238281 11.765625 -11.4375 C 12.390625 -9.644531 13.367188 -8.265625 14.703125 -7.296875 C 16.035156 -6.335938 17.757812 -5.859375 19.875 -5.859375 C 22.019531 -5.859375 23.757812 -6.335938 25.09375 -7.296875 C 26.425781 -8.265625 27.394531 -9.644531 28 -11.4375 C 28.613281 -13.238281 28.921875 -15.382812 28.921875 -17.875 C 28.921875 -21.613281 28.222656 -24.554688 26.828125 -26.703125 C 25.429688 -28.847656 23.128906 -29.921875 19.921875 -29.921875 C 17.796875 -29.921875 16.0625 -29.4375 14.71875 -28.46875 C 13.375 -27.507812 12.390625 -26.128906 11.765625 -24.328125 C 11.140625 -22.535156 10.828125 -20.382812 10.828125 -17.875 Z M 26.171875 -44.515625 C 26.171875 -43.265625 25.835938 -42.234375 25.171875 -41.421875 C 24.503906 -40.609375 23.519531 -40.039062 22.21875 -39.71875 L 21.96875 -37.984375 L 17.71875 -37.984375 L 17.15625 -41.5625 C 18.382812 -41.757812 19.21875 -42.066406 19.65625 -42.484375 C 20.09375 -42.898438 20.3125 -43.40625 20.3125 -44 C 20.3125 -44.519531 20.140625 -44.921875 19.796875 -45.203125 C 19.453125 -45.484375 19.003906 -45.625 18.453125 -45.625 C 17.804688 -45.625 17.207031 -45.566406 16.65625 -45.453125 C 16.113281 -45.347656 15.582031 -45.21875 15.0625 -45.0625 L 15.0625 -49.15625 C 15.539062 -49.3125 16.175781 -49.441406 16.96875 -49.546875 C 17.757812 -49.660156 18.554688 -49.71875 19.359375 -49.71875 C 21.617188 -49.71875 23.316406 -49.257812 24.453125 -48.34375 C 25.597656 -47.4375 26.171875 -46.160156 26.171875 -44.515625 Z M 26.171875 -44.515625 "/></g></g></g><g fill="#006636" fill-opacity="1"><g transform="translate(534.532399, 454.641011)"><g><path d="M 25.03125 0 L 4.484375 0 L 4.484375 -35.65625 L 25.03125 -35.65625 L 25.03125 -29.46875 L 12.046875 -29.46875 L 12.046875 -21.640625 L 24.125 -21.640625 L 24.125 -15.4375 L 12.046875 -15.4375 L 12.046875 -6.25 L 25.03125 -6.25 Z M 25.03125 0 "/></g></g></g><g fill="#006636" fill-opacity="1"><g transform="translate(562.511635, 454.641011)"><g/></g></g><g fill="#006636" fill-opacity="1"><g transform="translate(575.488988, 454.641011)"><g><path d="M 15.484375 -36.171875 C 17.398438 -36.171875 19.109375 -35.867188 20.609375 -35.265625 C 22.109375 -34.660156 23.289062 -33.78125 24.15625 -32.625 C 25.03125 -31.476562 25.46875 -30.078125 25.46875 -28.421875 C 25.46875 -26.128906 24.785156 -24.203125 23.421875 -22.640625 C 22.066406 -21.078125 20.375 -19.707031 18.34375 -18.53125 L 25.265625 -11.78125 C 25.953125 -12.90625 26.535156 -14.09375 27.015625 -15.34375 C 27.492188 -16.59375 27.910156 -17.851562 28.265625 -19.125 L 36.03125 -19.125 C 35.519531 -17.25 34.78125 -15.25 33.8125 -13.125 C 32.84375 -11.007812 31.613281 -9.015625 30.125 -7.140625 L 37.46875 0 L 28.265625 0 L 25.46875 -2.75 C 24.507812 -2.082031 23.476562 -1.503906 22.375 -1.015625 C 21.28125 -0.535156 20.109375 -0.164062 18.859375 0.09375 C 17.617188 0.351562 16.304688 0.484375 14.921875 0.484375 C 12.222656 0.484375 9.90625 0.0625 7.96875 -0.78125 C 6.039062 -1.625 4.5625 -2.804688 3.53125 -4.328125 C 2.507812 -5.847656 2 -7.617188 2 -9.640625 C 2 -11.328125 2.257812 -12.773438 2.78125 -13.984375 C 3.300781 -15.203125 4.046875 -16.269531 5.015625 -17.1875 C 5.992188 -18.101562 7.164062 -18.953125 8.53125 -19.734375 C 7.675781 -20.742188 6.988281 -21.6875 6.46875 -22.5625 C 5.957031 -23.4375 5.59375 -24.304688 5.375 -25.171875 C 5.15625 -26.046875 5.046875 -26.960938 5.046875 -27.921875 C 5.046875 -29.617188 5.488281 -31.078125 6.375 -32.296875 C 7.257812 -33.523438 8.488281 -34.476562 10.0625 -35.15625 C 11.632812 -35.832031 13.441406 -36.171875 15.484375 -36.171875 Z M 12.875 -15.296875 C 12.257812 -14.816406 11.71875 -14.328125 11.25 -13.828125 C 10.789062 -13.328125 10.4375 -12.789062 10.1875 -12.21875 C 9.945312 -11.644531 9.828125 -11.019531 9.828125 -10.34375 C 9.828125 -8.914062 10.363281 -7.789062 11.4375 -6.96875 C 12.507812 -6.15625 13.84375 -5.75 15.4375 -5.75 C 16.507812 -5.75 17.507812 -5.878906 18.4375 -6.140625 C 19.363281 -6.398438 20.207031 -6.769531 20.96875 -7.25 Z M 15.4375 -30.421875 C 14.613281 -30.421875 13.820312 -30.207031 13.0625 -29.78125 C 12.300781 -29.351562 11.921875 -28.566406 11.921875 -27.421875 C 11.921875 -26.609375 12.132812 -25.8125 12.5625 -25.03125 C 12.988281 -24.257812 13.550781 -23.476562 14.25 -22.6875 C 15.644531 -23.445312 16.71875 -24.210938 17.46875 -24.984375 C 18.21875 -25.753906 18.59375 -26.640625 18.59375 -27.640625 C 18.59375 -28.628906 18.253906 -29.335938 17.578125 -29.765625 C 16.898438 -30.203125 16.1875 -30.421875 15.4375 -30.421875 Z M 15.4375 -30.421875 "/></g></g></g><g fill="#006636" fill-opacity="1"><g transform="translate(612.957305, 454.641011)"><g/></g></g><g fill="#006636" fill-opacity="1"><g transform="translate(625.934566, 454.641011)"><g><path d="M 18.25 0 L 10.6875 0 L 10.6875 -29.359375 L 1 -29.359375 L 1 -35.65625 L 27.921875 -35.65625 L 27.921875 -29.359375 L 18.25 -29.359375 Z M 18.25 0 "/></g></g></g><g fill="#006636" fill-opacity="1"><g transform="translate(654.865204, 454.641011)"><g><path d="M 33.703125 0 L 26.171875 0 L 26.171875 -15.390625 L 12.046875 -15.390625 L 12.046875 0 L 4.484375 0 L 4.484375 -35.65625 L 12.046875 -35.65625 L 12.046875 -21.6875 L 26.171875 -21.6875 L 26.171875 -35.65625 L 33.703125 -35.65625 Z M 33.703125 0 "/></g></g></g><g fill="#006636" fill-opacity="1"><g transform="translate(693.089728, 454.641011)"><g><path d="M 4.484375 0 L 4.484375 -35.65625 L 12.046875 -35.65625 L 12.046875 0 Z M 8.234375 10.484375 C 7.117188 10.484375 6.164062 10.21875 5.375 9.6875 C 4.582031 9.164062 4.1875 8.222656 4.1875 6.859375 C 4.1875 5.453125 4.582031 4.488281 5.375 3.96875 C 6.164062 3.445312 7.117188 3.1875 8.234375 3.1875 C 9.347656 3.1875 10.300781 3.445312 11.09375 3.96875 C 11.894531 4.488281 12.296875 5.453125 12.296875 6.859375 C 12.296875 8.222656 11.894531 9.164062 11.09375 9.6875 C 10.300781 10.21875 9.347656 10.484375 8.234375 10.484375 Z M 8.234375 10.484375 "/></g></g></g><g fill="#006636" fill-opacity="1"><g transform="translate(709.628454, 454.641011)"><g><path d="M 36.125 0 L 26.515625 0 L 11 -26.984375 L 10.78125 -26.984375 C 10.84375 -25.859375 10.898438 -24.722656 10.953125 -23.578125 C 11.003906 -22.441406 11.050781 -21.304688 11.09375 -20.171875 C 11.144531 -19.046875 11.195312 -17.914062 11.25 -16.78125 L 11.25 0 L 4.484375 0 L 4.484375 -35.65625 L 14.03125 -35.65625 L 29.515625 -8.953125 L 29.6875 -8.953125 C 29.65625 -10.054688 29.613281 -11.148438 29.5625 -12.234375 C 29.507812 -13.328125 29.460938 -14.414062 29.421875 -15.5 C 29.378906 -16.59375 29.34375 -17.6875 29.3125 -18.78125 L 29.3125 -35.65625 L 36.125 -35.65625 Z M 36.125 0 "/></g></g></g><g fill="#006636" fill-opacity="1"><g transform="translate(750.243513, 454.641011)"><g><path d="M 33.703125 0 L 26.171875 0 L 26.171875 -15.390625 L 12.046875 -15.390625 L 12.046875 0 L 4.484375 0 L 4.484375 -35.65625 L 12.046875 -35.65625 L 12.046875 -21.6875 L 26.171875 -21.6875 L 26.171875 -35.65625 L 33.703125 -35.65625 Z M 33.703125 0 "/></g></g></g><g fill="#006636" fill-opacity="1"><g transform="translate(788.468038, 454.641011)"><g/></g></g><g fill="#006636" fill-opacity="1"><g transform="translate(801.445345, 454.641011)"><g><path d="M 32.46875 -35.65625 L 20.34375 0 L 12.09375 0 L 0 -35.65625 L 7.640625 -35.65625 L 14.34375 -14.4375 C 14.457031 -14.082031 14.644531 -13.410156 14.90625 -12.421875 C 15.164062 -11.441406 15.425781 -10.398438 15.6875 -9.296875 C 15.957031 -8.203125 16.144531 -7.296875 16.25 -6.578125 C 16.34375 -7.296875 16.515625 -8.195312 16.765625 -9.28125 C 17.015625 -10.375 17.265625 -11.410156 17.515625 -12.390625 C 17.773438 -13.378906 17.960938 -14.0625 18.078125 -14.4375 L 24.828125 -35.65625 Z M 32.46875 -35.65625 "/></g></g></g><g fill="#006636" fill-opacity="1"><g transform="translate(833.913018, 454.641011)"><g><path d="M 33.515625 -35.65625 L 33.515625 -31.078125 C 34.328125 -31.367188 34.988281 -31.832031 35.5 -32.46875 C 36.007812 -33.113281 36.390625 -33.90625 36.640625 -34.84375 C 36.898438 -35.78125 37.03125 -36.816406 37.03125 -37.953125 L 44.375 -37.953125 L 44.703125 -37.421875 C 44.429688 -36.066406 44.066406 -34.796875 43.609375 -33.609375 C 43.148438 -32.421875 42.519531 -31.351562 41.71875 -30.40625 C 40.914062 -29.457031 39.847656 -28.65625 38.515625 -28 C 37.191406 -27.351562 35.523438 -26.882812 33.515625 -26.59375 L 33.515625 -12.578125 C 33.515625 -10.128906 32.972656 -7.914062 31.890625 -5.9375 C 30.804688 -3.957031 29.171875 -2.390625 26.984375 -1.234375 C 24.796875 -0.0859375 22.046875 0.484375 18.734375 0.484375 C 14.015625 0.484375 10.421875 -0.71875 7.953125 -3.125 C 5.484375 -5.53125 4.25 -8.71875 4.25 -12.6875 L 4.25 -35.65625 L 11.78125 -35.65625 L 11.78125 -13.25 C 11.78125 -10.59375 12.378906 -8.695312 13.578125 -7.5625 C 14.785156 -6.425781 16.566406 -5.859375 18.921875 -5.859375 C 20.585938 -5.859375 21.9375 -6.132812 22.96875 -6.6875 C 24 -7.238281 24.757812 -8.066406 25.25 -9.171875 C 25.738281 -10.273438 25.984375 -11.648438 25.984375 -13.296875 L 25.984375 -35.65625 Z M 33.515625 -35.65625 "/></g></g></g><g fill="#006636" fill-opacity="1"><g transform="translate(878.113969, 454.641011)"><g><path d="M 36.859375 -17.875 C 36.859375 -15.125 36.515625 -12.625 35.828125 -10.375 C 35.148438 -8.125 34.113281 -6.1875 32.71875 -4.5625 C 31.332031 -2.9375 29.570312 -1.6875 27.4375 -0.8125 C 25.3125 0.0507812 22.789062 0.484375 19.875 0.484375 C 16.96875 0.484375 14.445312 0.0507812 12.3125 -0.8125 C 10.1875 -1.6875 8.425781 -2.9375 7.03125 -4.5625 C 5.644531 -6.1875 4.609375 -8.128906 3.921875 -10.390625 C 3.242188 -12.648438 2.90625 -15.160156 2.90625 -17.921875 C 2.90625 -21.617188 3.515625 -24.835938 4.734375 -27.578125 C 5.953125 -30.316406 7.820312 -32.441406 10.34375 -33.953125 C 12.875 -35.460938 16.082031 -36.21875 19.96875 -36.21875 C 22.851562 -36.21875 25.363281 -35.785156 27.5 -34.921875 C 29.632812 -34.066406 31.382812 -32.847656 32.75 -31.265625 C 33.257812 -31.609375 33.679688 -32.097656 34.015625 -32.734375 C 34.347656 -33.378906 34.597656 -34.144531 34.765625 -35.03125 C 34.941406 -35.925781 35.03125 -36.898438 35.03125 -37.953125 L 42.375 -37.953125 L 42.703125 -37.421875 C 42.148438 -34.703125 41.3125 -32.492188 40.1875 -30.796875 C 39.070312 -29.109375 37.46875 -27.835938 35.375 -26.984375 C 35.875 -25.679688 36.242188 -24.269531 36.484375 -22.75 C 36.734375 -21.226562 36.859375 -19.601562 36.859375 -17.875 Z M 10.828125 -17.875 C 10.828125 -15.382812 11.140625 -13.238281 11.765625 -11.4375 C 12.390625 -9.644531 13.367188 -8.265625 14.703125 -7.296875 C 16.035156 -6.335938 17.757812 -5.859375 19.875 -5.859375 C 22.019531 -5.859375 23.757812 -6.335938 25.09375 -7.296875 C 26.425781 -8.265625 27.394531 -9.644531 28 -11.4375 C 28.613281 -13.238281 28.921875 -15.382812 28.921875 -17.875 C 28.921875 -21.613281 28.222656 -24.554688 26.828125 -26.703125 C 25.429688 -28.847656 23.128906 -29.921875 19.921875 -29.921875 C 17.796875 -29.921875 16.0625 -29.4375 14.71875 -28.46875 C 13.375 -27.507812 12.390625 -26.128906 11.765625 -24.328125 C 11.140625 -22.535156 10.828125 -20.382812 10.828125 -17.875 Z M 19.921875 10.484375 C 18.804688 10.484375 17.851562 10.21875 17.0625 9.6875 C 16.269531 9.164062 15.875 8.222656 15.875 6.859375 C 15.875 5.453125 16.269531 4.488281 17.0625 3.96875 C 17.851562 3.445312 18.804688 3.1875 19.921875 3.1875 C 21.035156 3.1875 21.988281 3.445312 22.78125 3.96875 C 23.582031 4.488281 23.984375 5.453125 23.984375 6.859375 C 23.984375 8.222656 23.582031 9.164062 22.78125 9.6875 C 21.988281 10.21875 21.035156 10.484375 19.921875 10.484375 Z M 19.921875 10.484375 "/></g></g></g><g fill="#006636" fill-opacity="1"><g transform="translate(919.338852, 454.641011)"><g><path d="M 36.125 0 L 26.515625 0 L 11 -26.984375 L 10.78125 -26.984375 C 10.84375 -25.859375 10.898438 -24.722656 10.953125 -23.578125 C 11.003906 -22.441406 11.050781 -21.304688 11.09375 -20.171875 C 11.144531 -19.046875 11.195312 -17.914062 11.25 -16.78125 L 11.25 0 L 4.484375 0 L 4.484375 -35.65625 L 14.03125 -35.65625 L 29.515625 -8.953125 L 29.6875 -8.953125 C 29.65625 -10.054688 29.613281 -11.148438 29.5625 -12.234375 C 29.507812 -13.328125 29.460938 -14.414062 29.421875 -15.5 C 29.378906 -16.59375 29.34375 -17.6875 29.3125 -18.78125 L 29.3125 -35.65625 L 36.125 -35.65625 Z M 36.125 0 "/></g></g></g><g fill="#006636" fill-opacity="1"><g transform="translate(959.953865, 454.641011)"><g><path d="M 18.03125 -20.03125 L 32.171875 -20.03125 L 32.171875 -1.53125 C 30.296875 -0.914062 28.347656 -0.425781 26.328125 -0.0625 C 24.316406 0.300781 22.035156 0.484375 19.484375 0.484375 C 15.941406 0.484375 12.929688 -0.210938 10.453125 -1.609375 C 7.984375 -3.003906 6.109375 -5.066406 4.828125 -7.796875 C 3.546875 -10.535156 2.90625 -13.894531 2.90625 -17.875 C 2.90625 -21.613281 3.625 -24.847656 5.0625 -27.578125 C 6.5 -30.316406 8.601562 -32.429688 11.375 -33.921875 C 14.144531 -35.421875 17.53125 -36.171875 21.53125 -36.171875 C 23.414062 -36.171875 25.273438 -35.96875 27.109375 -35.5625 C 28.953125 -35.15625 30.625 -34.628906 32.125 -33.984375 L 29.609375 -27.921875 C 28.523438 -28.472656 27.28125 -28.9375 25.875 -29.3125 C 24.476562 -29.6875 23.015625 -29.875 21.484375 -29.875 C 19.296875 -29.875 17.390625 -29.367188 15.765625 -28.359375 C 14.148438 -27.359375 12.898438 -25.953125 12.015625 -24.140625 C 11.128906 -22.328125 10.6875 -20.191406 10.6875 -17.734375 C 10.6875 -15.410156 11 -13.347656 11.625 -11.546875 C 12.257812 -9.753906 13.257812 -8.347656 14.625 -7.328125 C 16 -6.316406 17.78125 -5.8125 19.96875 -5.8125 C 21.050781 -5.8125 21.960938 -5.863281 22.703125 -5.96875 C 23.441406 -6.070312 24.132812 -6.179688 24.78125 -6.296875 L 24.78125 -13.734375 L 18.03125 -13.734375 Z M 18.03125 -20.03125 "/></g></g></g><g fill="#ff4500" fill-opacity="1"><g transform="translate(124.01313, 541.249833)"><g><path d="M 7.828125 -35.6875 L 7.828125 -25.015625 C 7.828125 -24.410156 7.8125 -23.796875 7.78125 -23.171875 C 7.75 -22.554688 7.691406 -21.988281 7.609375 -21.46875 L 7.859375 -21.46875 C 8.378906 -22.351562 9.039062 -23.097656 9.84375 -23.703125 C 10.644531 -24.304688 11.554688 -24.765625 12.578125 -25.078125 C 13.609375 -25.390625 14.695312 -25.546875 15.84375 -25.546875 C 17.863281 -25.546875 19.550781 -25.222656 20.90625 -24.578125 C 22.257812 -23.941406 23.273438 -22.945312 23.953125 -21.59375 C 24.628906 -20.25 24.96875 -18.507812 24.96875 -16.375 L 24.96875 0 L 21.21875 0 L 21.21875 -16.125 C 21.21875 -18.21875 20.738281 -19.785156 19.78125 -20.828125 C 18.820312 -21.867188 17.359375 -22.390625 15.390625 -22.390625 C 13.523438 -22.390625 12.035156 -22.03125 10.921875 -21.3125 C 9.816406 -20.601562 9.023438 -19.5625 8.546875 -18.1875 C 8.066406 -16.8125 7.828125 -15.128906 7.828125 -13.140625 L 7.828125 0 L 4.015625 0 L 4.015625 -35.6875 Z M 7.828125 -35.6875 "/></g></g></g><g fill="#ff4500" fill-opacity="1"><g transform="translate(152.812708, 541.249833)"><g><path d="M 13.421875 -25.546875 C 16.410156 -25.546875 18.628906 -24.875 20.078125 -23.53125 C 21.535156 -22.1875 22.265625 -20.035156 22.265625 -17.078125 L 22.265625 0 L 19.5 0 L 18.765625 -3.71875 L 18.578125 -3.71875 C 17.867188 -2.800781 17.132812 -2.03125 16.375 -1.40625 C 15.613281 -0.789062 14.726562 -0.328125 13.71875 -0.015625 C 12.71875 0.296875 11.492188 0.453125 10.046875 0.453125 C 8.515625 0.453125 7.15625 0.1875 5.96875 -0.34375 C 4.789062 -0.875 3.859375 -1.679688 3.171875 -2.765625 C 2.492188 -3.859375 2.15625 -5.238281 2.15625 -6.90625 C 2.15625 -9.414062 3.148438 -11.34375 5.140625 -12.6875 C 7.128906 -14.03125 10.15625 -14.765625 14.21875 -14.890625 L 18.546875 -15.0625 L 18.546875 -16.609375 C 18.546875 -18.773438 18.078125 -20.289062 17.140625 -21.15625 C 16.210938 -22.03125 14.898438 -22.46875 13.203125 -22.46875 C 11.890625 -22.46875 10.632812 -22.273438 9.4375 -21.890625 C 8.25 -21.515625 7.117188 -21.066406 6.046875 -20.546875 L 4.890625 -23.4375 C 6.015625 -24.019531 7.3125 -24.515625 8.78125 -24.921875 C 10.25 -25.335938 11.796875 -25.546875 13.421875 -25.546875 Z M 18.5 -12.390625 L 14.671875 -12.21875 C 11.535156 -12.101562 9.328125 -11.59375 8.046875 -10.6875 C 6.765625 -9.78125 6.125 -8.503906 6.125 -6.859375 C 6.125 -5.421875 6.554688 -4.359375 7.421875 -3.671875 C 8.296875 -2.984375 9.453125 -2.640625 10.890625 -2.640625 C 13.117188 -2.640625 14.941406 -3.257812 16.359375 -4.5 C 17.785156 -5.738281 18.5 -7.59375 18.5 -10.0625 Z M 18.5 -12.390625 "/></g></g></g><g fill="#ff4500" fill-opacity="1"><g transform="translate(178.906593, 541.249833)"><g><path d="M 12.125 -2.65625 C 12.757812 -2.65625 13.40625 -2.707031 14.0625 -2.8125 C 14.71875 -2.925781 15.25 -3.054688 15.65625 -3.203125 L 15.65625 -0.25 C 15.21875 -0.0507812 14.601562 0.113281 13.8125 0.25 C 13.03125 0.382812 12.265625 0.453125 11.515625 0.453125 C 10.179688 0.453125 8.972656 0.222656 7.890625 -0.234375 C 6.804688 -0.703125 5.9375 -1.492188 5.28125 -2.609375 C 4.632812 -3.722656 4.3125 -5.269531 4.3125 -7.25 L 4.3125 -22.15625 L 0.734375 -22.15625 L 0.734375 -24.015625 L 4.328125 -25.5 L 5.84375 -30.953125 L 8.140625 -30.953125 L 8.140625 -25.140625 L 15.5 -25.140625 L 15.5 -22.15625 L 8.140625 -22.15625 L 8.140625 -7.359375 C 8.140625 -5.785156 8.5 -4.609375 9.21875 -3.828125 C 9.945312 -3.046875 10.914062 -2.65625 12.125 -2.65625 Z M 12.125 -2.65625 "/></g></g></g><g fill="#ff4500" fill-opacity="1"><g transform="translate(195.645202, 541.249833)"><g><path d="M 7.828125 -35.6875 L 7.828125 -25.015625 C 7.828125 -24.410156 7.8125 -23.796875 7.78125 -23.171875 C 7.75 -22.554688 7.691406 -21.988281 7.609375 -21.46875 L 7.859375 -21.46875 C 8.378906 -22.351562 9.039062 -23.097656 9.84375 -23.703125 C 10.644531 -24.304688 11.554688 -24.765625 12.578125 -25.078125 C 13.609375 -25.390625 14.695312 -25.546875 15.84375 -25.546875 C 17.863281 -25.546875 19.550781 -25.222656 20.90625 -24.578125 C 22.257812 -23.941406 23.273438 -22.945312 23.953125 -21.59375 C 24.628906 -20.25 24.96875 -18.507812 24.96875 -16.375 L 24.96875 0 L 21.21875 0 L 21.21875 -16.125 C 21.21875 -18.21875 20.738281 -19.785156 19.78125 -20.828125 C 18.820312 -21.867188 17.359375 -22.390625 15.390625 -22.390625 C 13.523438 -22.390625 12.035156 -22.03125 10.921875 -21.3125 C 9.816406 -20.601562 9.023438 -19.5625 8.546875 -18.1875 C 8.066406 -16.8125 7.828125 -15.128906 7.828125 -13.140625 L 7.828125 0 L 4.015625 0 L 4.015625 -35.6875 Z M 7.828125 -35.6875 "/></g></g></g><g fill="#ff4500" fill-opacity="1"><g transform="translate(224.444779, 541.249833)"><g><path d="M 0.046875 -25.140625 L 4.125 -25.140625 L 9.671875 -10.546875 C 9.992188 -9.691406 10.289062 -8.867188 10.5625 -8.078125 C 10.84375 -7.296875 11.085938 -6.546875 11.296875 -5.828125 C 11.515625 -5.109375 11.6875 -4.410156 11.8125 -3.734375 L 11.96875 -3.734375 C 12.1875 -4.503906 12.492188 -5.507812 12.890625 -6.75 C 13.285156 -8 13.710938 -9.273438 14.171875 -10.578125 L 19.421875 -25.140625 L 23.53125 -25.140625 L 12.59375 3.6875 C 12.007812 5.238281 11.332031 6.585938 10.5625 7.734375 C 9.789062 8.878906 8.851562 9.757812 7.75 10.375 C 6.644531 11 5.316406 11.3125 3.765625 11.3125 C 3.046875 11.3125 2.410156 11.265625 1.859375 11.171875 C 1.304688 11.085938 0.832031 10.992188 0.4375 10.890625 L 0.4375 7.84375 C 0.769531 7.914062 1.175781 7.984375 1.65625 8.046875 C 2.144531 8.109375 2.648438 8.140625 3.171875 8.140625 C 4.117188 8.140625 4.9375 7.957031 5.625 7.59375 C 6.320312 7.238281 6.921875 6.71875 7.421875 6.03125 C 7.929688 5.34375 8.367188 4.523438 8.734375 3.578125 L 10.109375 0.046875 Z M 0.046875 -25.140625 "/></g></g></g><g fill="#ff4500" fill-opacity="1"><g transform="translate(247.97055, 541.249833)"><g><path d="M 25.6875 -12.609375 C 25.6875 -10.546875 25.414062 -8.703125 24.875 -7.078125 C 24.34375 -5.460938 23.570312 -4.097656 22.5625 -2.984375 C 21.550781 -1.867188 20.332031 -1.015625 18.90625 -0.421875 C 17.476562 0.160156 15.863281 0.453125 14.0625 0.453125 C 12.375 0.453125 10.832031 0.160156 9.4375 -0.421875 C 8.039062 -1.015625 6.832031 -1.867188 5.8125 -2.984375 C 4.789062 -4.097656 4 -5.460938 3.4375 -7.078125 C 2.882812 -8.703125 2.609375 -10.546875 2.609375 -12.609375 C 2.609375 -15.359375 3.070312 -17.703125 4 -19.640625 C 4.9375 -21.578125 6.273438 -23.050781 8.015625 -24.0625 C 9.753906 -25.082031 11.820312 -25.59375 14.21875 -25.59375 C 16.507812 -25.59375 18.515625 -25.078125 20.234375 -24.046875 C 21.953125 -23.023438 23.289062 -21.546875 24.25 -19.609375 C 25.207031 -17.679688 25.6875 -15.347656 25.6875 -12.609375 Z M 6.5625 -12.609375 C 6.5625 -10.597656 6.828125 -8.847656 7.359375 -7.359375 C 7.898438 -5.878906 8.726562 -4.734375 9.84375 -3.921875 C 10.957031 -3.109375 12.394531 -2.703125 14.15625 -2.703125 C 15.894531 -2.703125 17.328125 -3.109375 18.453125 -3.921875 C 19.578125 -4.734375 20.40625 -5.878906 20.9375 -7.359375 C 21.46875 -8.847656 21.734375 -10.597656 21.734375 -12.609375 C 21.734375 -14.617188 21.46875 -16.351562 20.9375 -17.8125 C 20.40625 -19.269531 19.578125 -20.394531 18.453125 -21.1875 C 17.335938 -21.988281 15.894531 -22.390625 14.125 -22.390625 C 11.507812 -22.390625 9.59375 -21.523438 8.375 -19.796875 C 7.164062 -18.066406 6.5625 -15.671875 6.5625 -12.609375 Z M 6.5625 -12.609375 "/></g></g></g><g fill="#ff4500" fill-opacity="1"><g transform="translate(276.219817, 541.249833)"><g><path d="M 3.4375 -2.390625 C 3.4375 -3.453125 3.695312 -4.207031 4.21875 -4.65625 C 4.738281 -5.113281 5.375 -5.34375 6.125 -5.34375 C 6.90625 -5.34375 7.5625 -5.113281 8.09375 -4.65625 C 8.625 -4.207031 8.890625 -3.453125 8.890625 -2.390625 C 8.890625 -1.328125 8.625 -0.554688 8.09375 -0.078125 C 7.5625 0.398438 6.90625 0.640625 6.125 0.640625 C 5.375 0.640625 4.738281 0.398438 4.21875 -0.078125 C 3.695312 -0.554688 3.4375 -1.328125 3.4375 -2.390625 Z M 3.4375 -2.390625 "/></g></g></g><g fill="#ff4500" fill-opacity="1"><g transform="translate(288.555942, 541.249833)"><g><path d="M 14.078125 0.453125 C 11.816406 0.453125 9.820312 -0.0078125 8.09375 -0.9375 C 6.363281 -1.875 5.015625 -3.296875 4.046875 -5.203125 C 3.085938 -7.117188 2.609375 -9.53125 2.609375 -12.4375 C 2.609375 -15.476562 3.117188 -17.960938 4.140625 -19.890625 C 5.160156 -21.828125 6.5625 -23.257812 8.34375 -24.1875 C 10.132812 -25.125 12.171875 -25.59375 14.453125 -25.59375 C 15.703125 -25.59375 16.910156 -25.46875 18.078125 -25.21875 C 19.253906 -24.96875 20.21875 -24.648438 20.96875 -24.265625 L 19.8125 -21.078125 C 19.050781 -21.378906 18.164062 -21.648438 17.15625 -21.890625 C 16.15625 -22.140625 15.222656 -22.265625 14.359375 -22.265625 C 12.617188 -22.265625 11.171875 -21.890625 10.015625 -21.140625 C 8.859375 -20.390625 7.992188 -19.285156 7.421875 -17.828125 C 6.847656 -16.378906 6.5625 -14.59375 6.5625 -12.46875 C 6.5625 -10.4375 6.835938 -8.703125 7.390625 -7.265625 C 7.953125 -5.828125 8.785156 -4.726562 9.890625 -3.96875 C 11.003906 -3.21875 12.394531 -2.84375 14.0625 -2.84375 C 15.382812 -2.84375 16.582031 -2.984375 17.65625 -3.265625 C 18.726562 -3.546875 19.703125 -3.878906 20.578125 -4.265625 L 20.578125 -0.875 C 19.734375 -0.445312 18.796875 -0.117188 17.765625 0.109375 C 16.734375 0.335938 15.503906 0.453125 14.078125 0.453125 Z M 14.078125 0.453125 "/></g></g></g><g fill="#ff4500" fill-opacity="1"><g transform="translate(311.049881, 541.249833)"><g><path d="M 25.6875 -12.609375 C 25.6875 -10.546875 25.414062 -8.703125 24.875 -7.078125 C 24.34375 -5.460938 23.570312 -4.097656 22.5625 -2.984375 C 21.550781 -1.867188 20.332031 -1.015625 18.90625 -0.421875 C 17.476562 0.160156 15.863281 0.453125 14.0625 0.453125 C 12.375 0.453125 10.832031 0.160156 9.4375 -0.421875 C 8.039062 -1.015625 6.832031 -1.867188 5.8125 -2.984375 C 4.789062 -4.097656 4 -5.460938 3.4375 -7.078125 C 2.882812 -8.703125 2.609375 -10.546875 2.609375 -12.609375 C 2.609375 -15.359375 3.070312 -17.703125 4 -19.640625 C 4.9375 -21.578125 6.273438 -23.050781 8.015625 -24.0625 C 9.753906 -25.082031 11.820312 -25.59375 14.21875 -25.59375 C 16.507812 -25.59375 18.515625 -25.078125 20.234375 -24.046875 C 21.953125 -23.023438 23.289062 -21.546875 24.25 -19.609375 C 25.207031 -17.679688 25.6875 -15.347656 25.6875 -12.609375 Z M 6.5625 -12.609375 C 6.5625 -10.597656 6.828125 -8.847656 7.359375 -7.359375 C 7.898438 -5.878906 8.726562 -4.734375 9.84375 -3.921875 C 10.957031 -3.109375 12.394531 -2.703125 14.15625 -2.703125 C 15.894531 -2.703125 17.328125 -3.109375 18.453125 -3.921875 C 19.578125 -4.734375 20.40625 -5.878906 20.9375 -7.359375 C 21.46875 -8.847656 21.734375 -10.597656 21.734375 -12.609375 C 21.734375 -14.617188 21.46875 -16.351562 20.9375 -17.8125 C 20.40625 -19.269531 19.578125 -20.394531 18.453125 -21.1875 C 17.335938 -21.988281 15.894531 -22.390625 14.125 -22.390625 C 11.507812 -22.390625 9.59375 -21.523438 8.375 -19.796875 C 7.164062 -18.066406 6.5625 -15.671875 6.5625 -12.609375 Z M 6.5625 -12.609375 "/></g></g></g><g fill="#ff4500" fill-opacity="1"><g transform="translate(339.299137, 541.249833)"><g><path d="M 31.3125 -25.59375 C 34.070312 -25.59375 36.15625 -24.867188 37.5625 -23.421875 C 38.96875 -21.984375 39.671875 -19.664062 39.671875 -16.46875 L 39.671875 0 L 35.921875 0 L 35.921875 -16.28125 C 35.921875 -18.3125 35.476562 -19.835938 34.59375 -20.859375 C 33.71875 -21.878906 32.414062 -22.390625 30.6875 -22.390625 C 28.257812 -22.390625 26.492188 -21.679688 25.390625 -20.265625 C 24.285156 -18.859375 23.734375 -16.789062 23.734375 -14.0625 L 23.734375 0 L 19.953125 0 L 19.953125 -16.28125 C 19.953125 -17.644531 19.753906 -18.773438 19.359375 -19.671875 C 18.972656 -20.578125 18.394531 -21.253906 17.625 -21.703125 C 16.851562 -22.160156 15.878906 -22.390625 14.703125 -22.390625 C 13.035156 -22.390625 11.695312 -22.039062 10.6875 -21.34375 C 9.675781 -20.65625 8.945312 -19.632812 8.5 -18.28125 C 8.050781 -16.9375 7.828125 -15.273438 7.828125 -13.296875 L 7.828125 0 L 4.015625 0 L 4.015625 -25.140625 L 7.09375 -25.140625 L 7.65625 -21.578125 L 7.859375 -21.578125 C 8.367188 -22.453125 9.003906 -23.1875 9.765625 -23.78125 C 10.535156 -24.375 11.394531 -24.820312 12.34375 -25.125 C 13.289062 -25.4375 14.296875 -25.59375 15.359375 -25.59375 C 17.273438 -25.59375 18.878906 -25.238281 20.171875 -24.53125 C 21.460938 -23.820312 22.398438 -22.738281 22.984375 -21.28125 L 23.1875 -21.28125 C 24.007812 -22.738281 25.140625 -23.820312 26.578125 -24.53125 C 28.015625 -25.238281 29.59375 -25.59375 31.3125 -25.59375 Z M 31.3125 -25.59375 "/></g></g></g><g fill="#ff4500" fill-opacity="1"><g transform="translate(702.793024, 541.249833)"><g><path d="M 24.46875 -16.8125 C 24.46875 -14.09375 24.257812 -11.660156 23.84375 -9.515625 C 23.4375 -7.378906 22.789062 -5.566406 21.90625 -4.078125 C 21.019531 -2.597656 19.875 -1.472656 18.46875 -0.703125 C 17.0625 0.0664062 15.367188 0.453125 13.390625 0.453125 C 10.898438 0.453125 8.835938 -0.222656 7.203125 -1.578125 C 5.578125 -2.941406 4.363281 -4.910156 3.5625 -7.484375 C 2.757812 -10.066406 2.359375 -13.175781 2.359375 -16.8125 C 2.359375 -20.382812 2.722656 -23.457031 3.453125 -26.03125 C 4.179688 -28.613281 5.351562 -30.597656 6.96875 -31.984375 C 8.59375 -33.367188 10.734375 -34.0625 13.390625 -34.0625 C 15.910156 -34.0625 17.988281 -33.375 19.625 -32 C 21.257812 -30.632812 22.472656 -28.660156 23.265625 -26.078125 C 24.066406 -23.503906 24.46875 -20.414062 24.46875 -16.8125 Z M 6.1875 -16.8125 C 6.1875 -13.6875 6.421875 -11.082031 6.890625 -9 C 7.367188 -6.925781 8.140625 -5.375 9.203125 -4.34375 C 10.265625 -3.3125 11.660156 -2.796875 13.390625 -2.796875 C 15.117188 -2.796875 16.515625 -3.304688 17.578125 -4.328125 C 18.640625 -5.359375 19.410156 -6.910156 19.890625 -8.984375 C 20.378906 -11.066406 20.625 -13.675781 20.625 -16.8125 C 20.625 -19.882812 20.382812 -22.457031 19.90625 -24.53125 C 19.4375 -26.601562 18.671875 -28.160156 17.609375 -29.203125 C 16.554688 -30.253906 15.148438 -30.78125 13.390625 -30.78125 C 11.628906 -30.78125 10.222656 -30.253906 9.171875 -29.203125 C 8.117188 -28.160156 7.359375 -26.601562 6.890625 -24.53125 C 6.421875 -22.457031 6.1875 -19.882812 6.1875 -16.8125 Z M 6.1875 -16.8125 "/></g></g></g><g fill="#ff4500" fill-opacity="1"><g transform="translate(729.643586, 541.249833)"><g><path d="M 13.390625 -34.015625 C 15.335938 -34.015625 17.054688 -33.707031 18.546875 -33.09375 C 20.046875 -32.476562 21.21875 -31.578125 22.0625 -30.390625 C 22.914062 -29.210938 23.34375 -27.757812 23.34375 -26.03125 C 23.34375 -24.664062 23.046875 -23.472656 22.453125 -22.453125 C 21.867188 -21.441406 21.078125 -20.554688 20.078125 -19.796875 C 19.085938 -19.046875 17.988281 -18.375 16.78125 -17.78125 C 18.21875 -17.113281 19.515625 -16.367188 20.671875 -15.546875 C 21.828125 -14.722656 22.738281 -13.753906 23.40625 -12.640625 C 24.082031 -11.523438 24.421875 -10.203125 24.421875 -8.671875 C 24.421875 -6.785156 23.96875 -5.160156 23.0625 -3.796875 C 22.15625 -2.429688 20.878906 -1.378906 19.234375 -0.640625 C 17.597656 0.0859375 15.679688 0.453125 13.484375 0.453125 C 11.117188 0.453125 9.101562 0.0976562 7.4375 -0.609375 C 5.78125 -1.316406 4.519531 -2.335938 3.65625 -3.671875 C 2.789062 -5.015625 2.359375 -6.628906 2.359375 -8.515625 C 2.359375 -10.054688 2.6875 -11.394531 3.34375 -12.53125 C 4 -13.664062 4.867188 -14.644531 5.953125 -15.46875 C 7.046875 -16.300781 8.234375 -17 9.515625 -17.5625 C 8.398438 -18.175781 7.378906 -18.875 6.453125 -19.65625 C 5.523438 -20.4375 4.789062 -21.347656 4.25 -22.390625 C 3.707031 -23.441406 3.4375 -24.660156 3.4375 -26.046875 C 3.4375 -27.742188 3.867188 -29.1875 4.734375 -30.375 C 5.597656 -31.5625 6.78125 -32.460938 8.28125 -33.078125 C 9.789062 -33.703125 11.492188 -34.015625 13.390625 -34.015625 Z M 6.09375 -8.484375 C 6.09375 -6.773438 6.695312 -5.363281 7.90625 -4.25 C 9.113281 -3.144531 10.941406 -2.59375 13.390625 -2.59375 C 15.710938 -2.59375 17.507812 -3.144531 18.78125 -4.25 C 20.050781 -5.363281 20.6875 -6.820312 20.6875 -8.625 C 20.6875 -9.738281 20.394531 -10.71875 19.8125 -11.5625 C 19.226562 -12.414062 18.398438 -13.175781 17.328125 -13.84375 C 16.265625 -14.519531 15.003906 -15.132812 13.546875 -15.6875 L 12.734375 -15.984375 C 11.328125 -15.398438 10.128906 -14.753906 9.140625 -14.046875 C 8.148438 -13.335938 7.394531 -12.53125 6.875 -11.625 C 6.351562 -10.726562 6.09375 -9.679688 6.09375 -8.484375 Z M 13.34375 -30.890625 C 11.539062 -30.890625 10.066406 -30.457031 8.921875 -29.59375 C 7.773438 -28.726562 7.203125 -27.488281 7.203125 -25.875 C 7.203125 -24.707031 7.476562 -23.722656 8.03125 -22.921875 C 8.59375 -22.117188 9.351562 -21.429688 10.3125 -20.859375 C 11.28125 -20.285156 12.359375 -19.753906 13.546875 -19.265625 C 14.710938 -19.753906 15.742188 -20.289062 16.640625 -20.875 C 17.546875 -21.46875 18.257812 -22.171875 18.78125 -22.984375 C 19.300781 -23.796875 19.5625 -24.765625 19.5625 -25.890625 C 19.5625 -27.515625 18.988281 -28.753906 17.84375 -29.609375 C 16.707031 -30.460938 15.207031 -30.890625 13.34375 -30.890625 Z M 13.34375 -30.890625 "/></g></g></g><g fill="#ff4500" fill-opacity="1"><g transform="translate(756.494148, 541.249833)"><g><path d="M 24.28125 0 L 2.3125 0 L 2.3125 -3.1875 L 11.28125 -12.296875 C 12.945312 -13.972656 14.347656 -15.46875 15.484375 -16.78125 C 16.628906 -18.101562 17.5 -19.398438 18.09375 -20.671875 C 18.6875 -21.953125 18.984375 -23.359375 18.984375 -24.890625 C 18.984375 -26.785156 18.421875 -28.234375 17.296875 -29.234375 C 16.179688 -30.234375 14.703125 -30.734375 12.859375 -30.734375 C 11.253906 -30.734375 9.832031 -30.457031 8.59375 -29.90625 C 7.363281 -29.351562 6.097656 -28.570312 4.796875 -27.5625 L 2.75 -30.140625 C 3.632812 -30.890625 4.597656 -31.550781 5.640625 -32.125 C 6.691406 -32.707031 7.816406 -33.164062 9.015625 -33.5 C 10.222656 -33.84375 11.503906 -34.015625 12.859375 -34.015625 C 14.929688 -34.015625 16.710938 -33.65625 18.203125 -32.9375 C 19.703125 -32.21875 20.859375 -31.191406 21.671875 -29.859375 C 22.492188 -28.523438 22.90625 -26.941406 22.90625 -25.109375 C 22.90625 -23.335938 22.550781 -21.691406 21.84375 -20.171875 C 21.144531 -18.648438 20.160156 -17.144531 18.890625 -15.65625 C 17.628906 -14.164062 16.148438 -12.585938 14.453125 -10.921875 L 7.15625 -3.640625 L 7.15625 -3.484375 L 24.28125 -3.484375 Z M 24.28125 0 "/></g></g></g><g fill="#ff4500" fill-opacity="1"><g transform="translate(783.34471, 541.249833)"><g><path d="M 6.65625 0 L 20.40625 -30.046875 L 2.140625 -30.046875 L 2.140625 -33.53125 L 24.5 -33.53125 L 24.5 -30.59375 L 10.828125 0 Z M 6.65625 0 "/></g></g></g><g fill="#ff4500" fill-opacity="1"><g transform="translate(810.195272, 541.249833)"><g/></g></g><g fill="#ff4500" fill-opacity="1"><g transform="translate(822.39382, 541.249833)"><g><path d="M 24.46875 -16.8125 C 24.46875 -14.09375 24.257812 -11.660156 23.84375 -9.515625 C 23.4375 -7.378906 22.789062 -5.566406 21.90625 -4.078125 C 21.019531 -2.597656 19.875 -1.472656 18.46875 -0.703125 C 17.0625 0.0664062 15.367188 0.453125 13.390625 0.453125 C 10.898438 0.453125 8.835938 -0.222656 7.203125 -1.578125 C 5.578125 -2.941406 4.363281 -4.910156 3.5625 -7.484375 C 2.757812 -10.066406 2.359375 -13.175781 2.359375 -16.8125 C 2.359375 -20.382812 2.722656 -23.457031 3.453125 -26.03125 C 4.179688 -28.613281 5.351562 -30.597656 6.96875 -31.984375 C 8.59375 -33.367188 10.734375 -34.0625 13.390625 -34.0625 C 15.910156 -34.0625 17.988281 -33.375 19.625 -32 C 21.257812 -30.632812 22.472656 -28.660156 23.265625 -26.078125 C 24.066406 -23.503906 24.46875 -20.414062 24.46875 -16.8125 Z M 6.1875 -16.8125 C 6.1875 -13.6875 6.421875 -11.082031 6.890625 -9 C 7.367188 -6.925781 8.140625 -5.375 9.203125 -4.34375 C 10.265625 -3.3125 11.660156 -2.796875 13.390625 -2.796875 C 15.117188 -2.796875 16.515625 -3.304688 17.578125 -4.328125 C 18.640625 -5.359375 19.410156 -6.910156 19.890625 -8.984375 C 20.378906 -11.066406 20.625 -13.675781 20.625 -16.8125 C 20.625 -19.882812 20.382812 -22.457031 19.90625 -24.53125 C 19.4375 -26.601562 18.671875 -28.160156 17.609375 -29.203125 C 16.554688 -30.253906 15.148438 -30.78125 13.390625 -30.78125 C 11.628906 -30.78125 10.222656 -30.253906 9.171875 -29.203125 C 8.117188 -28.160156 7.359375 -26.601562 6.890625 -24.53125 C 6.421875 -22.457031 6.1875 -19.882812 6.1875 -16.8125 Z M 6.1875 -16.8125 "/></g></g></g><g fill="#ff4500" fill-opacity="1"><g transform="translate(849.244382, 541.249833)"><g><path d="M 24.46875 -16.8125 C 24.46875 -14.09375 24.257812 -11.660156 23.84375 -9.515625 C 23.4375 -7.378906 22.789062 -5.566406 21.90625 -4.078125 C 21.019531 -2.597656 19.875 -1.472656 18.46875 -0.703125 C 17.0625 0.0664062 15.367188 0.453125 13.390625 0.453125 C 10.898438 0.453125 8.835938 -0.222656 7.203125 -1.578125 C 5.578125 -2.941406 4.363281 -4.910156 3.5625 -7.484375 C 2.757812 -10.066406 2.359375 -13.175781 2.359375 -16.8125 C 2.359375 -20.382812 2.722656 -23.457031 3.453125 -26.03125 C 4.179688 -28.613281 5.351562 -30.597656 6.96875 -31.984375 C 8.59375 -33.367188 10.734375 -34.0625 13.390625 -34.0625 C 15.910156 -34.0625 17.988281 -33.375 19.625 -32 C 21.257812 -30.632812 22.472656 -28.660156 23.265625 -26.078125 C 24.066406 -23.503906 24.46875 -20.414062 24.46875 -16.8125 Z M 6.1875 -16.8125 C 6.1875 -13.6875 6.421875 -11.082031 6.890625 -9 C 7.367188 -6.925781 8.140625 -5.375 9.203125 -4.34375 C 10.265625 -3.3125 11.660156 -2.796875 13.390625 -2.796875 C 15.117188 -2.796875 16.515625 -3.304688 17.578125 -4.328125 C 18.640625 -5.359375 19.410156 -6.910156 19.890625 -8.984375 C 20.378906 -11.066406 20.625 -13.675781 20.625 -16.8125 C 20.625 -19.882812 20.382812 -22.457031 19.90625 -24.53125 C 19.4375 -26.601562 18.671875 -28.160156 17.609375 -29.203125 C 16.554688 -30.253906 15.148438 -30.78125 13.390625 -30.78125 C 11.628906 -30.78125 10.222656 -30.253906 9.171875 -29.203125 C 8.117188 -28.160156 7.359375 -26.601562 6.890625 -24.53125 C 6.421875 -22.457031 6.1875 -19.882812 6.1875 -16.8125 Z M 6.1875 -16.8125 "/></g></g></g><g fill="#ff4500" fill-opacity="1"><g transform="translate(876.094944, 541.249833)"><g><path d="M 24.46875 -16.8125 C 24.46875 -14.09375 24.257812 -11.660156 23.84375 -9.515625 C 23.4375 -7.378906 22.789062 -5.566406 21.90625 -4.078125 C 21.019531 -2.597656 19.875 -1.472656 18.46875 -0.703125 C 17.0625 0.0664062 15.367188 0.453125 13.390625 0.453125 C 10.898438 0.453125 8.835938 -0.222656 7.203125 -1.578125 C 5.578125 -2.941406 4.363281 -4.910156 3.5625 -7.484375 C 2.757812 -10.066406 2.359375 -13.175781 2.359375 -16.8125 C 2.359375 -20.382812 2.722656 -23.457031 3.453125 -26.03125 C 4.179688 -28.613281 5.351562 -30.597656 6.96875 -31.984375 C 8.59375 -33.367188 10.734375 -34.0625 13.390625 -34.0625 C 15.910156 -34.0625 17.988281 -33.375 19.625 -32 C 21.257812 -30.632812 22.472656 -28.660156 23.265625 -26.078125 C 24.066406 -23.503906 24.46875 -20.414062 24.46875 -16.8125 Z M 6.1875 -16.8125 C 6.1875 -13.6875 6.421875 -11.082031 6.890625 -9 C 7.367188 -6.925781 8.140625 -5.375 9.203125 -4.34375 C 10.265625 -3.3125 11.660156 -2.796875 13.390625 -2.796875 C 15.117188 -2.796875 16.515625 -3.304688 17.578125 -4.328125 C 18.640625 -5.359375 19.410156 -6.910156 19.890625 -8.984375 C 20.378906 -11.066406 20.625 -13.675781 20.625 -16.8125 C 20.625 -19.882812 20.382812 -22.457031 19.90625 -24.53125 C 19.4375 -26.601562 18.671875 -28.160156 17.609375 -29.203125 C 16.554688 -30.253906 15.148438 -30.78125 13.390625 -30.78125 C 11.628906 -30.78125 10.222656 -30.253906 9.171875 -29.203125 C 8.117188 -28.160156 7.359375 -26.601562 6.890625 -24.53125 C 6.421875 -22.457031 6.1875 -19.882812 6.1875 -16.8125 Z M 6.1875 -16.8125 "/></g></g></g><g fill="#ff4500" fill-opacity="1"><g transform="translate(902.945495, 541.249833)"><g/></g></g><g fill="#ff4500" fill-opacity="1"><g transform="translate(915.144042, 541.249833)"><g><path d="M 24.28125 0 L 2.3125 0 L 2.3125 -3.1875 L 11.28125 -12.296875 C 12.945312 -13.972656 14.347656 -15.46875 15.484375 -16.78125 C 16.628906 -18.101562 17.5 -19.398438 18.09375 -20.671875 C 18.6875 -21.953125 18.984375 -23.359375 18.984375 -24.890625 C 18.984375 -26.785156 18.421875 -28.234375 17.296875 -29.234375 C 16.179688 -30.234375 14.703125 -30.734375 12.859375 -30.734375 C 11.253906 -30.734375 9.832031 -30.457031 8.59375 -29.90625 C 7.363281 -29.351562 6.097656 -28.570312 4.796875 -27.5625 L 2.75 -30.140625 C 3.632812 -30.890625 4.597656 -31.550781 5.640625 -32.125 C 6.691406 -32.707031 7.816406 -33.164062 9.015625 -33.5 C 10.222656 -33.84375 11.503906 -34.015625 12.859375 -34.015625 C 14.929688 -34.015625 16.710938 -33.65625 18.203125 -32.9375 C 19.703125 -32.21875 20.859375 -31.191406 21.671875 -29.859375 C 22.492188 -28.523438 22.90625 -26.941406 22.90625 -25.109375 C 22.90625 -23.335938 22.550781 -21.691406 21.84375 -20.171875 C 21.144531 -18.648438 20.160156 -17.144531 18.890625 -15.65625 C 17.628906 -14.164062 16.148438 -12.585938 14.453125 -10.921875 L 7.15625 -3.640625 L 7.15625 -3.484375 L 24.28125 -3.484375 Z M 24.28125 0 "/></g></g></g><g fill="#ff4500" fill-opacity="1"><g transform="translate(941.994615, 541.249833)"><g><path d="M 25.96875 -7.78125 L 20.9375 -7.78125 L 20.9375 0 L 17.21875 0 L 17.21875 -7.78125 L 1.015625 -7.78125 L 1.015625 -10.984375 L 16.96875 -33.71875 L 20.9375 -33.71875 L 20.9375 -11.21875 L 25.96875 -11.21875 Z M 17.21875 -11.21875 L 17.21875 -22.171875 C 17.21875 -23.015625 17.222656 -23.773438 17.234375 -24.453125 C 17.253906 -25.140625 17.28125 -25.773438 17.3125 -26.359375 C 17.34375 -26.953125 17.367188 -27.515625 17.390625 -28.046875 C 17.421875 -28.578125 17.441406 -29.101562 17.453125 -29.625 L 17.265625 -29.625 C 16.972656 -29.019531 16.640625 -28.375 16.265625 -27.6875 C 15.890625 -27.007812 15.515625 -26.40625 15.140625 -25.875 L 4.796875 -11.21875 Z M 17.21875 -11.21875 "/></g></g></g><g fill="#ff4500" fill-opacity="1"><g transform="translate(968.845189, 541.249833)"><g><path d="M 13.390625 -34.015625 C 15.335938 -34.015625 17.054688 -33.707031 18.546875 -33.09375 C 20.046875 -32.476562 21.21875 -31.578125 22.0625 -30.390625 C 22.914062 -29.210938 23.34375 -27.757812 23.34375 -26.03125 C 23.34375 -24.664062 23.046875 -23.472656 22.453125 -22.453125 C 21.867188 -21.441406 21.078125 -20.554688 20.078125 -19.796875 C 19.085938 -19.046875 17.988281 -18.375 16.78125 -17.78125 C 18.21875 -17.113281 19.515625 -16.367188 20.671875 -15.546875 C 21.828125 -14.722656 22.738281 -13.753906 23.40625 -12.640625 C 24.082031 -11.523438 24.421875 -10.203125 24.421875 -8.671875 C 24.421875 -6.785156 23.96875 -5.160156 23.0625 -3.796875 C 22.15625 -2.429688 20.878906 -1.378906 19.234375 -0.640625 C 17.597656 0.0859375 15.679688 0.453125 13.484375 0.453125 C 11.117188 0.453125 9.101562 0.0976562 7.4375 -0.609375 C 5.78125 -1.316406 4.519531 -2.335938 3.65625 -3.671875 C 2.789062 -5.015625 2.359375 -6.628906 2.359375 -8.515625 C 2.359375 -10.054688 2.6875 -11.394531 3.34375 -12.53125 C 4 -13.664062 4.867188 -14.644531 5.953125 -15.46875 C 7.046875 -16.300781 8.234375 -17 9.515625 -17.5625 C 8.398438 -18.175781 7.378906 -18.875 6.453125 -19.65625 C 5.523438 -20.4375 4.789062 -21.347656 4.25 -22.390625 C 3.707031 -23.441406 3.4375 -24.660156 3.4375 -26.046875 C 3.4375 -27.742188 3.867188 -29.1875 4.734375 -30.375 C 5.597656 -31.5625 6.78125 -32.460938 8.28125 -33.078125 C 9.789062 -33.703125 11.492188 -34.015625 13.390625 -34.015625 Z M 6.09375 -8.484375 C 6.09375 -6.773438 6.695312 -5.363281 7.90625 -4.25 C 9.113281 -3.144531 10.941406 -2.59375 13.390625 -2.59375 C 15.710938 -2.59375 17.507812 -3.144531 18.78125 -4.25 C 20.050781 -5.363281 20.6875 -6.820312 20.6875 -8.625 C 20.6875 -9.738281 20.394531 -10.71875 19.8125 -11.5625 C 19.226562 -12.414062 18.398438 -13.175781 17.328125 -13.84375 C 16.265625 -14.519531 15.003906 -15.132812 13.546875 -15.6875 L 12.734375 -15.984375 C 11.328125 -15.398438 10.128906 -14.753906 9.140625 -14.046875 C 8.148438 -13.335938 7.394531 -12.53125 6.875 -11.625 C 6.351562 -10.726562 6.09375 -9.679688 6.09375 -8.484375 Z M 13.34375 -30.890625 C 11.539062 -30.890625 10.066406 -30.457031 8.921875 -29.59375 C 7.773438 -28.726562 7.203125 -27.488281 7.203125 -25.875 C 7.203125 -24.707031 7.476562 -23.722656 8.03125 -22.921875 C 8.59375 -22.117188 9.351562 -21.429688 10.3125 -20.859375 C 11.28125 -20.285156 12.359375 -19.753906 13.546875 -19.265625 C 14.710938 -19.753906 15.742188 -20.289062 16.640625 -20.875 C 17.546875 -21.46875 18.257812 -22.171875 18.78125 -22.984375 C 19.300781 -23.796875 19.5625 -24.765625 19.5625 -25.890625 C 19.5625 -27.515625 18.988281 -28.753906 17.84375 -29.609375 C 16.707031 -30.460938 15.207031 -30.890625 13.34375 -30.890625 Z M 13.34375 -30.890625 "/></g></g></g><g clip-path="url(#99a93f853d)"><g clip-path="url(#beb05f900d)"><g clip-path="url(#ef12856244)"><path fill="#006636" d="M 62.519531 162.828125 C 66.195312 158.121094 73 157.289062 77.707031 160.964844 C 158.039062 223.726562 274.46875 209.433594 337.230469 129.097656 C 340.910156 124.390625 347.710938 123.554688 352.417969 127.234375 C 357.125 130.910156 357.960938 137.714844 354.285156 142.421875 C 337.125 164.382812 316.171875 182.34375 292 195.777344 C 268.648438 208.757812 243.328125 216.988281 216.71875 220.253906 C 190.109375 223.519531 163.535156 221.648438 137.753906 214.71875 C 111.050781 207.527344 86.375 195.171875 64.414062 178.011719 C 59.675781 174.339844 58.839844 167.535156 62.519531 162.828125 Z M 62.519531 162.828125 " fill-opacity="1" fill-rule="nonzero"/></g></g></g><g clip-path="url(#e6b2852115)"><g clip-path="url(#d3ff532a88)"><g transform="matrix(1, 0, 0, 1, 227, 53)"><g clip-path="url(#6685d9cd62)"><g clip-path="url(#60fe579051)"><g clip-path="url(#6cb094b4de)"><path fill="#006636" d="M 0.769531 0.417969 L 75.714844 0.417969 L 75.714844 300.210938 L 0.769531 300.210938 Z M 0.769531 0.417969 " fill-opacity="1" fill-rule="nonzero"/></g></g></g></g></g></g><g clip-path="url(#3c3b825a0d)"><g clip-path="url(#cebe86ce3f)"><g transform="matrix(1, 0, 0, 1, 227, 68)"><g clip-path="url(#08cedac58c)"><g clip-path="url(#c765224e41)"><g clip-path="url(#602b61b5ec)"><path fill="#ff4500" d="M 0.769531 0.40625 L 45.738281 0.40625 L 45.738281 45.375 L 0.769531 45.375 Z M 0.769531 0.40625 " fill-opacity="1" fill-rule="nonzero"/></g></g></g></g><path stroke-linecap="butt" transform="matrix(0.749483, 0, 0, 0.749483, 227.767814, 68.407177)" fill="none" stroke-linejoin="miter" d="M 30.002119 -0.00123703 C 13.433417 -0.00123703 0.0022919 13.429888 0.0022919 29.99859 C 0.0022919 46.567292 13.433417 59.998417 30.002119 59.998417 C 46.570821 59.998417 60.001946 46.567292 60.001946 29.99859 C 60.001946 13.429888 46.570821 -0.00123703 30.002119 -0.00123703 Z M 30.002119 -0.00123703 " stroke="#ffffff" stroke-width="16" stroke-opacity="1" stroke-miterlimit="4"/></g></g><g clip-path="url(#1408aedfa4)"><g clip-path="url(#14ab153d4b)"><g transform="matrix(1, 0, 0, 1, 102, 83)"><g clip-path="url(#058e4e529a)"><g clip-path="url(#68d50a8176)"><g clip-path="url(#f55006f6f9)"><path fill="#006636" d="M 0.855469 0.398438 L 75.800781 0.398438 L 75.800781 240.171875 L 0.855469 240.171875 Z M 0.855469 0.398438 " fill-opacity="1" fill-rule="nonzero"/></g></g></g></g></g></g><g clip-path="url(#18a525b71e)"><g clip-path="url(#47ed7100b4)"><g transform="matrix(1, 0, 0, 1, 132, 98)"><g clip-path="url(#9739ad6f21)"><g clip-path="url(#447fc477fe)"><g clip-path="url(#597a0a928d)"><path fill="#ff4500" d="M 0.832031 0.386719 L 45.800781 0.386719 L 45.800781 45.355469 L 0.832031 45.355469 Z M 0.832031 0.386719 " fill-opacity="1" fill-rule="nonzero"/></g></g></g></g><path stroke-linecap="butt" transform="matrix(0.749483, 0, 0, 0.749483, 132.833219, 98.386515)" fill="none" stroke-linejoin="miter" d="M 29.998242 0.000272222 C 13.42954 0.000272222 -0.0015846 13.431397 -0.0015846 30.000099 C -0.0015846 46.568802 13.42954 59.999926 29.998242 59.999926 C 46.566945 59.999926 59.998069 46.568802 59.998069 30.000099 C 59.998069 13.431397 46.566945 0.000272222 29.998242 0.000272222 Z M 29.998242 0.000272222 " stroke="#ffffff" stroke-width="16" stroke-opacity="1" stroke-miterlimit="4"/></g></g></svg>