<?xml version="1.0" encoding="UTF-8"?>
<svg version="1.1" xmlns="http://www.w3.org/2000/svg" width="141" height="52">
<path d="M0 0 C2.31 0.33 4.62 0.66 7 1 C6.855625 1.99 6.71125 2.98 6.5625 4 C5.99074821 7.99409465 5.49180166 11.99532937 5 16 C4.34 16 3.68 16 3 16 C3.495 17.485 3.495 17.485 4 19 C3.34 19 2.68 19 2 19 C2.495 20.98 2.495 20.98 3 23 C2.34 23 1.68 23 1 23 C0.67 26.63 0.34 30.26 0 34 C-0.66 34 -1.32 34 -2 34 C-2 36.31 -2 38.62 -2 41 C-2.66 41 -3.32 41 -4 41 C-3.505 42.98 -3.505 42.98 -3 45 C-3.66 45 -4.32 45 -5 45 C-4.979375 45.969375 -4.95875 46.93875 -4.9375 47.9375 C-5 51 -5 51 -6 52 C-8.96787593 52.10030595 -11.90737172 52.13871785 -14.875 52.125 C-15.70386719 52.12886719 -16.53273437 52.13273437 -17.38671875 52.13671875 C-18.18464844 52.13542969 -18.98257813 52.13414063 -19.8046875 52.1328125 C-20.53671387 52.13168457 -21.26874023 52.13055664 -22.02294922 52.12939453 C-24 52 -24 52 -27 51 C-28 49 -29 47 -30 45 C-31.485 44.505 -31.485 44.505 -33 44 C-34 42 -35 40 -36 38 C-38.39585286 35.35412766 -38.39585286 35.35412766 -41 33 C-42.33333333 31.66666667 -43.66666667 30.33333333 -45 29 C-45.33623796 30.2909136 -45.66889249 31.58276097 -46 32.875 C-46.185625 33.59429687 -46.37125 34.31359375 -46.5625 35.0546875 C-47.07313965 36.99289317 -47.07313965 36.99289317 -47 39 C-47.66 39 -48.32 39 -49 39 C-49.33 42.63 -49.66 46.26 -50 50 C-50.66 50 -51.32 50 -52 50 C-52 50.66 -52 51.32 -52 52 C-54.31 52 -56.62 52 -59 52 C-59 50.02 -59 48.04 -59 46 C-58.34 46 -57.68 46 -57 46 C-56.67 42.37 -56.34 38.74 -56 35 C-55.34 35 -54.68 35 -54 35 C-53.814375 33.2365625 -53.814375 33.2365625 -53.625 31.4375 C-53.12857028 27.48004615 -52.22050007 23.80508847 -51 20 C-50.71125 19.05125 -50.4225 18.1025 -50.125 17.125 C-49 15 -49 15 -46.875 14.1875 C-46.25625 14.125625 -45.6375 14.06375 -45 14 C-44.566875 14.969375 -44.13375 15.93875 -43.6875 16.9375 C-42.2985139 20.27731765 -42.2985139 20.27731765 -39 21 C-38 23 -37 25 -36 27 C-35.01 27.33 -34.02 27.66 -33 28 C-32 30 -31 32 -30 34 C-28.515 34.495 -28.515 34.495 -27 35 C-25.3125 38.0625 -25.3125 38.0625 -24 41 C-23.34 41 -22.68 41 -22 41 C-21.34 41.99 -20.68 42.98 -20 44 C-18.02252878 44.36297936 -18.02252878 44.36297936 -15.875 44.1875 C-14.59625 44.125625 -13.3175 44.06375 -12 44 C-11.49713066 42.0424015 -10.9977901 40.08389623 -10.5 38.125 C-10.2215625 37.03445312 -9.943125 35.94390625 -9.65625 34.8203125 C-8.92445582 32.15794931 -8.92445582 32.15794931 -9 30 C-8.34 30 -7.68 30 -7 30 C-6.67 26.37 -6.34 22.74 -6 19 C-5.34 19 -4.68 19 -4 19 C-3.96261719 18.38253906 -3.92523438 17.76507812 -3.88671875 17.12890625 C-3.41276584 11.0232776 -2.19399627 5.71266953 0 0 Z " fill="#007541" transform="translate(134,0)"/>
<path d="M0 0 C2.50659864 0.06719044 5.00923648 0.15730258 7.51391602 0.27709961 C8.3859668 0.29192383 9.25801758 0.30674805 10.15649414 0.32202148 C12.57064826 0.43150272 14.74065824 0.59131037 17.07641602 1.21459961 C19.05297852 3.64819336 19.05297852 3.64819336 20.07641602 6.21459961 C21.38842006 7.56892636 22.72273005 8.90193443 24.07641602 10.21459961 C25.40974935 11.88126628 26.74308268 13.54793294 28.07641602 15.21459961 C28.75704102 15.89522461 29.43766602 16.57584961 30.13891602 17.27709961 C32.56590917 19.70409276 34.53983328 22.14143414 36.07641602 25.21459961 C36.25817383 24.2574707 36.25817383 24.2574707 36.44360352 23.28100586 C36.61118164 22.4547168 36.77875977 21.62842773 36.95141602 20.77709961 C37.11383789 19.95338867 37.27625977 19.12967773 37.44360352 18.28100586 C37.65243164 17.5990918 37.86125977 16.91717773 38.07641602 16.21459961 C38.73641602 15.88459961 39.39641602 15.55459961 40.07641602 15.21459961 C40.4700366 13.02566888 40.4700366 13.02566888 40.57641602 10.46459961 C40.8739719 6.68834499 41.36012678 3.64717808 43.07641602 0.21459961 C45.38641602 0.54459961 47.69641602 0.87459961 50.07641602 1.21459961 C49.74641602 4.84459961 49.41641602 8.47459961 49.07641602 12.21459961 C48.41641602 12.21459961 47.75641602 12.21459961 47.07641602 12.21459961 C47.07641602 14.52459961 47.07641602 16.83459961 47.07641602 19.21459961 C46.41641602 19.21459961 45.75641602 19.21459961 45.07641602 19.21459961 C45.57141602 21.19459961 45.57141602 21.19459961 46.07641602 23.21459961 C45.41641602 23.21459961 44.75641602 23.21459961 44.07641602 23.21459961 C43.74641602 26.84459961 43.41641602 30.47459961 43.07641602 34.21459961 C42.41641602 34.21459961 41.75641602 34.21459961 41.07641602 34.21459961 C41.07641602 35.86459961 41.07641602 37.51459961 41.07641602 39.21459961 C38.76391602 39.02709961 38.76391602 39.02709961 36.07641602 38.21459961 C34.51391602 35.90209961 34.51391602 35.90209961 33.07641602 33.21459961 C31.76441197 31.86027286 30.43010198 30.52726479 29.07641602 29.21459961 C28.43704102 28.41022461 27.79766602 27.60584961 27.13891602 26.77709961 C25.08537284 24.13174902 25.08537284 24.13174902 22.51391602 21.65209961 C20.45063469 19.58881828 18.79367285 17.55631348 17.07641602 15.21459961 C16.09702811 14.19440388 15.09746153 13.19310156 14.07641602 12.21459961 C13.68454102 11.65772461 13.29266602 11.10084961 12.88891602 10.52709961 C9.86161215 8.33491405 6.73032463 9.03489919 3.07641602 9.21459961 C1.56872976 14.16842586 0.50295428 19.06845381 -0.36108398 24.17553711 C-0.54670898 24.84842773 -0.73233398 25.52131836 -0.92358398 26.21459961 C-1.58358398 26.54459961 -2.24358398 26.87459961 -2.92358398 27.21459961 C-2.92358398 29.52459961 -2.92358398 31.83459961 -2.92358398 34.21459961 C-3.58358398 34.21459961 -4.24358398 34.21459961 -4.92358398 34.21459961 C-4.59358398 35.53459961 -4.26358398 36.85459961 -3.92358398 38.21459961 C-4.58358398 38.21459961 -5.24358398 38.21459961 -5.92358398 38.21459961 C-5.92358398 40.52459961 -5.92358398 42.83459961 -5.92358398 45.21459961 C-6.58358398 45.21459961 -7.24358398 45.21459961 -7.92358398 45.21459961 C-7.59358398 46.53459961 -7.26358398 47.85459961 -6.92358398 49.21459961 C-7.58358398 49.21459961 -8.24358398 49.21459961 -8.92358398 49.21459961 C-8.92358398 50.20459961 -8.92358398 51.19459961 -8.92358398 52.21459961 C-11.23358398 52.21459961 -13.54358398 52.21459961 -15.92358398 52.21459961 C-14.88297515 46.09271998 -13.65948717 40.18176682 -11.92358398 34.21459961 C-11.41662201 31.56493115 -10.93610336 28.91359804 -10.48608398 26.25366211 C-10.30045898 25.58077148 -10.11483398 24.90788086 -9.92358398 24.21459961 C-9.26358398 23.88459961 -8.60358398 23.55459961 -7.92358398 23.21459961 C-7.45525749 20.62854629 -7.45525749 20.62854629 -7.29858398 17.65209961 C-7.22381836 16.64018555 -7.14905273 15.62827148 -7.07202148 14.58569336 C-7.02303711 13.80323242 -6.97405273 13.02077148 -6.92358398 12.21459961 C-6.26358398 12.21459961 -5.60358398 12.21459961 -4.92358398 12.21459961 C-4.87459961 11.51592773 -4.82561523 10.81725586 -4.77514648 10.09741211 C-4.70038086 9.18733398 -4.62561523 8.27725586 -4.54858398 7.33959961 C-4.47897461 6.43467773 -4.40936523 5.52975586 -4.33764648 4.59741211 C-3.82453407 1.64459541 -3.09953887 0.34579194 0 0 Z " fill="#D4731B" transform="translate(77.923583984375,-0.214599609375)"/>
<path d="M0 0 C14.19 0 28.38 0 43 0 C42.34 2.31 41.68 4.62 41 7 C30.605 7.495 30.605 7.495 20 8 C21.32 8.66 22.64 9.32 24 10 C24.66 10.66 25.32 11.32 26 12 C27.99119932 13.52658615 30.00402013 15.00280191 32.0625 16.4375 C34.33252737 18.26816724 35.68274676 19.36549352 37 22 C36.94718599 25.05264991 36.53258913 27.99696732 36 31 C35.34 31 34.68 31 34 31 C34 33.31 34 35.62 34 38 C30.99633486 39.00122171 29.02260407 39.12112011 25.88598633 39.11352539 C24.84513382 39.11344986 23.80428131 39.11337433 22.73188782 39.11329651 C21.60993515 39.10813522 20.48798248 39.10297394 19.33203125 39.09765625 C17.60710701 39.09553383 17.60710701 39.09553383 15.84733582 39.09336853 C12.16903092 39.08776429 8.49078655 39.07521104 4.8125 39.0625 C2.32096442 39.05748555 -0.17057211 39.05292255 -2.66210938 39.04882812 C-8.77476029 39.03779347 -14.88737582 39.02105118 -21 39 C-21 36 -21 36 -19 32 C3.77 31.505 3.77 31.505 27 31 C27 29.68 27 28.36 27 27 C27.66 27 28.32 27 29 27 C26.57305624 23.79296718 24.31287434 21.27760111 21 19 C17.94402643 16.73266477 14.97129491 14.37703593 12 12 C10.67151309 10.99357052 9.33849671 9.99307821 8 9 C6.9790625 8.2265625 6.9790625 8.2265625 5.9375 7.4375 C4.32695275 6.24257785 2.66860864 5.11240576 1 4 C0.67 2.68 0.34 1.36 0 0 Z " fill="#007743" transform="translate(22,13)"/>
<path d="M0 0 C1.04085251 0.00007553 2.08170502 0.00015106 3.15409851 0.00022888 C4.27605118 0.00539017 5.39800385 0.01055145 6.55395508 0.01586914 C7.70390457 0.01728409 8.85385406 0.01869904 10.03865051 0.02015686 C13.71695541 0.02576111 17.39519978 0.03831435 21.07348633 0.05102539 C23.56502191 0.05603984 26.05655844 0.06060284 28.5480957 0.06469727 C34.66074662 0.07573192 40.77336215 0.09247421 46.88598633 0.11352539 C46.01098633 5.98852539 46.01098633 5.98852539 44.88598633 7.11352539 C43.4441434 7.23574064 41.99655489 7.29125297 40.54980469 7.31884766 C39.62892563 7.33879288 38.70804657 7.3587381 37.75926208 7.37928772 C36.25771324 7.40435646 36.25771324 7.40435646 34.72583008 7.42993164 C33.70622696 7.45071274 32.68662384 7.47149384 31.63612366 7.49290466 C28.36531585 7.55851391 25.09442496 7.61733773 21.82348633 7.67602539 C19.61188905 7.71919981 17.4003003 7.76281373 15.1887207 7.80688477 C9.75456482 7.91420679 4.32032551 8.01595162 -1.11401367 8.11352539 C-1.11401367 9.43352539 -1.11401367 10.75352539 -1.11401367 12.11352539 C-1.77401367 12.11352539 -2.43401367 12.11352539 -3.11401367 12.11352539 C-2.78401367 13.10352539 -2.45401367 14.09352539 -2.11401367 15.11352539 C-2.77401367 15.11352539 -3.43401367 15.11352539 -4.11401367 15.11352539 C-2.20889819 17.01864087 -0.28104608 18.52011921 1.88598633 20.11352539 C5.88598633 23.11352539 5.88598633 23.11352539 7.82348633 24.61352539 C9.9325069 26.19558272 9.9325069 26.19558272 12.51098633 27.67602539 C14.88598633 29.11352539 14.88598633 29.11352539 16.88598633 31.11352539 C19.16937168 32.8813076 21.48112249 34.51028283 23.88598633 36.11352539 C23.22598633 37.43352539 22.56598633 38.75352539 21.88598633 40.11352539 C9.01598633 40.11352539 -3.85401367 40.11352539 -17.11401367 40.11352539 C-16.78401367 37.47352539 -16.45401367 34.83352539 -16.11401367 32.11352539 C-9.18401367 32.11352539 -2.25401367 32.11352539 4.88598633 32.11352539 C3.23598633 31.45352539 1.58598633 30.79352539 -0.11401367 30.11352539 C-0.44401367 29.45352539 -0.77401367 28.79352539 -1.11401367 28.11352539 C-2.10401367 27.45352539 -3.09401367 26.79352539 -4.11401367 26.11352539 C-5.47319225 25.14894705 -6.80486088 24.1449791 -8.11401367 23.11352539 C-8.87713867 22.53602539 -9.64026367 21.95852539 -10.42651367 21.36352539 C-12.11401367 19.11352539 -12.11401367 19.11352539 -11.92651367 15.61352539 C-11.65838867 14.45852539 -11.39026367 13.30352539 -11.11401367 12.11352539 C-10.92838867 11.30915039 -10.74276367 10.50477539 -10.55151367 9.67602539 C-10.40713867 9.16040039 -10.26276367 8.64477539 -10.11401367 8.11352539 C-9.45401367 8.11352539 -8.79401367 8.11352539 -8.11401367 8.11352539 C-8.11401367 5.80352539 -8.11401367 3.49352539 -8.11401367 1.11352539 C-5.11034854 0.11230368 -3.13661774 -0.00759472 0 0 Z " fill="#D8741B" transform="translate(21.114013671875,0.886474609375)"/>
<path d="M0 0 C0.66 0 1.32 0 2 0 C1.67 1.32 1.34 2.64 1 4 C-11.87 4 -24.74 4 -38 4 C-38 3.01 -38 2.02 -38 1 C-19.19 1.495 -19.19 1.495 0 2 C0 1.34 0 0.68 0 0 Z " fill="#AF6117" transform="translate(42,37)"/>
</svg>
