<svg xmlns="http://www.w3.org/2000/svg" xmlns:xlink="http://www.w3.org/1999/xlink" width="980" zoomAndPan="magnify" viewBox="0 0 735 331.499995" height="442" preserveAspectRatio="xMidYMid meet" version="1.0"><defs><g/></defs><g fill="#ff6300" fill-opacity="1"><g transform="translate(63.903228, 186.768288)"><g><path d="M 90.921875 -0.59375 C 89.816406 -0.300781 88.09375 -0.00390625 85.75 0.296875 C 83.40625 0.597656 81.082031 0.75 78.78125 0.75 C 76.488281 0.75 74.46875 0.570312 72.71875 0.21875 C 70.96875 -0.125 69.492188 -0.742188 68.296875 -1.640625 C 67.097656 -2.546875 66.195312 -3.796875 65.59375 -5.390625 C 65 -6.984375 64.703125 -9.082031 64.703125 -11.6875 L 64.703125 -35.046875 L 35.953125 -35.046875 L 35.953125 -0.59375 C 34.847656 -0.300781 33.125 -0.00390625 30.78125 0.296875 C 28.4375 0.597656 26.113281 0.75 23.8125 0.75 C 21.519531 0.75 19.5 0.570312 17.75 0.21875 C 16 -0.125 14.523438 -0.742188 13.328125 -1.640625 C 12.128906 -2.546875 11.226562 -3.796875 10.625 -5.390625 C 10.03125 -6.984375 9.734375 -9.082031 9.734375 -11.6875 L 9.734375 -90.765625 C 10.835938 -90.960938 12.585938 -91.234375 14.984375 -91.578125 C 17.378906 -91.929688 19.675781 -92.109375 21.875 -92.109375 C 24.164062 -92.109375 26.1875 -91.929688 27.9375 -91.578125 C 29.6875 -91.234375 31.160156 -90.613281 32.359375 -89.71875 C 33.554688 -88.820312 34.453125 -87.570312 35.046875 -85.96875 C 35.648438 -84.375 35.953125 -82.28125 35.953125 -79.6875 L 35.953125 -55.71875 L 64.703125 -55.71875 L 64.703125 -90.765625 C 65.804688 -90.960938 67.554688 -91.234375 69.953125 -91.578125 C 72.347656 -91.929688 74.644531 -92.109375 76.84375 -92.109375 C 79.132812 -92.109375 81.15625 -91.929688 82.90625 -91.578125 C 84.65625 -91.234375 86.128906 -90.613281 87.328125 -89.71875 C 88.523438 -88.820312 89.421875 -87.570312 90.015625 -85.96875 C 90.617188 -84.375 90.921875 -82.28125 90.921875 -79.6875 Z M 90.921875 -0.59375 "/></g></g></g><g fill="#ff6300" fill-opacity="1"><g transform="translate(172.04015, 186.768288)"><g><path d="M 29.0625 -88.078125 C 30.757812 -89.066406 33.328125 -90.007812 36.765625 -90.90625 C 40.210938 -91.8125 43.6875 -92.265625 47.1875 -92.265625 C 52.175781 -92.265625 56.59375 -91.539062 60.4375 -90.09375 C 64.28125 -88.644531 66.75 -86.375 67.84375 -83.28125 C 69.644531 -78.082031 71.59375 -72.035156 73.6875 -65.140625 C 75.789062 -58.253906 77.890625 -51.140625 79.984375 -43.796875 C 82.078125 -36.460938 84.125 -29.226562 86.125 -22.09375 C 88.125 -14.957031 89.867188 -8.640625 91.359375 -3.140625 C 90.160156 -1.742188 88.363281 -0.625 85.96875 0.21875 C 83.570312 1.070312 80.726562 1.5 77.4375 1.5 C 75.039062 1.5 73.019531 1.296875 71.375 0.890625 C 69.726562 0.492188 68.378906 -0.0976562 67.328125 -0.890625 C 66.273438 -1.691406 65.425781 -2.738281 64.78125 -4.03125 C 64.132812 -5.332031 63.5625 -6.832031 63.0625 -8.53125 L 60.359375 -18.875 L 33.25 -18.875 C 32.445312 -15.875 31.644531 -12.773438 30.84375 -9.578125 C 30.050781 -6.390625 29.253906 -3.296875 28.453125 -0.296875 C 27.054688 0.203125 25.582031 0.625 24.03125 0.96875 C 22.488281 1.320312 20.617188 1.5 18.421875 1.5 C 13.328125 1.5 9.554688 0.625 7.109375 -1.125 C 4.660156 -2.875 3.4375 -5.296875 3.4375 -8.390625 C 3.4375 -9.785156 3.632812 -11.179688 4.03125 -12.578125 C 4.4375 -13.972656 4.890625 -15.625 5.390625 -17.53125 C 6.085938 -20.21875 7.0625 -23.554688 8.3125 -27.546875 C 9.5625 -31.546875 10.929688 -35.867188 12.421875 -40.515625 C 13.921875 -45.160156 15.519531 -49.925781 17.21875 -54.8125 C 18.914062 -59.707031 20.515625 -64.328125 22.015625 -68.671875 C 23.515625 -73.015625 24.890625 -76.882812 26.140625 -80.28125 C 27.390625 -83.675781 28.363281 -86.273438 29.0625 -88.078125 Z M 47.03125 -68.75 C 45.632812 -64.550781 44.0625 -59.878906 42.3125 -54.734375 C 40.5625 -49.597656 38.988281 -44.382812 37.59375 -39.09375 L 56.171875 -39.09375 C 54.773438 -44.488281 53.351562 -49.753906 51.90625 -54.890625 C 50.457031 -60.035156 49.132812 -64.65625 47.9375 -68.75 Z M 47.03125 -68.75 "/></g></g></g><g fill="#ff6300" fill-opacity="1"><g transform="translate(273.437214, 186.768288)"><g><path d="M 5.546875 -69.796875 C 4.847656 -70.898438 4.195312 -72.398438 3.59375 -74.296875 C 3 -76.191406 2.703125 -78.1875 2.703125 -80.28125 C 2.703125 -84.175781 3.570312 -86.972656 5.3125 -88.671875 C 7.0625 -90.367188 9.332031 -91.21875 12.125 -91.21875 L 77.4375 -91.21875 C 78.132812 -90.113281 78.78125 -88.613281 79.375 -86.71875 C 79.976562 -84.820312 80.28125 -82.828125 80.28125 -80.734375 C 80.28125 -76.835938 79.40625 -74.039062 77.65625 -72.34375 C 75.914062 -70.644531 73.644531 -69.796875 70.84375 -69.796875 L 54.21875 -69.796875 L 54.21875 -0.59375 C 53.125 -0.300781 51.398438 -0.00390625 49.046875 0.296875 C 46.703125 0.597656 44.382812 0.75 42.09375 0.75 C 39.789062 0.75 37.765625 0.570312 36.015625 0.21875 C 34.273438 -0.125 32.804688 -0.742188 31.609375 -1.640625 C 30.410156 -2.546875 29.507812 -3.796875 28.90625 -5.390625 C 28.3125 -6.984375 28.015625 -9.082031 28.015625 -11.6875 L 28.015625 -69.796875 Z M 5.546875 -69.796875 "/></g></g></g><g fill="#ff6300" fill-opacity="1"><g transform="translate(364.20032, 186.768288)"><g><path d="M 90.921875 -0.59375 C 89.816406 -0.300781 88.09375 -0.00390625 85.75 0.296875 C 83.40625 0.597656 81.082031 0.75 78.78125 0.75 C 76.488281 0.75 74.46875 0.570312 72.71875 0.21875 C 70.96875 -0.125 69.492188 -0.742188 68.296875 -1.640625 C 67.097656 -2.546875 66.195312 -3.796875 65.59375 -5.390625 C 65 -6.984375 64.703125 -9.082031 64.703125 -11.6875 L 64.703125 -35.046875 L 35.953125 -35.046875 L 35.953125 -0.59375 C 34.847656 -0.300781 33.125 -0.00390625 30.78125 0.296875 C 28.4375 0.597656 26.113281 0.75 23.8125 0.75 C 21.519531 0.75 19.5 0.570312 17.75 0.21875 C 16 -0.125 14.523438 -0.742188 13.328125 -1.640625 C 12.128906 -2.546875 11.226562 -3.796875 10.625 -5.390625 C 10.03125 -6.984375 9.734375 -9.082031 9.734375 -11.6875 L 9.734375 -90.765625 C 10.835938 -90.960938 12.585938 -91.234375 14.984375 -91.578125 C 17.378906 -91.929688 19.675781 -92.109375 21.875 -92.109375 C 24.164062 -92.109375 26.1875 -91.929688 27.9375 -91.578125 C 29.6875 -91.234375 31.160156 -90.613281 32.359375 -89.71875 C 33.554688 -88.820312 34.453125 -87.570312 35.046875 -85.96875 C 35.648438 -84.375 35.953125 -82.28125 35.953125 -79.6875 L 35.953125 -55.71875 L 64.703125 -55.71875 L 64.703125 -90.765625 C 65.804688 -90.960938 67.554688 -91.234375 69.953125 -91.578125 C 72.347656 -91.929688 74.644531 -92.109375 76.84375 -92.109375 C 79.132812 -92.109375 81.15625 -91.929688 82.90625 -91.578125 C 84.65625 -91.234375 86.128906 -90.613281 87.328125 -89.71875 C 88.523438 -88.820312 89.421875 -87.570312 90.015625 -85.96875 C 90.617188 -84.375 90.921875 -82.28125 90.921875 -79.6875 Z M 90.921875 -0.59375 "/></g></g></g><g fill="#ff6300" fill-opacity="1"><g transform="translate(472.33723, 186.768288)"><g><path d="M 57.359375 -0.59375 C 56.265625 -0.300781 54.566406 -0.00390625 52.265625 0.296875 C 49.972656 0.597656 47.726562 0.75 45.53125 0.75 C 40.9375 0.75 37.488281 -0.0195312 35.1875 -1.5625 C 32.894531 -3.113281 31.75 -6.390625 31.75 -11.390625 L 31.75 -31.609375 C 29.257812 -35.296875 26.566406 -39.382812 23.671875 -43.875 C 20.773438 -48.375 17.925781 -52.96875 15.125 -57.65625 C 12.332031 -62.351562 9.738281 -66.972656 7.34375 -71.515625 C 4.945312 -76.054688 3 -80.226562 1.5 -84.03125 C 2.789062 -85.820312 4.5625 -87.46875 6.8125 -88.96875 C 9.0625 -90.46875 11.832031 -91.21875 15.125 -91.21875 C 19.019531 -91.21875 22.191406 -90.414062 24.640625 -88.8125 C 27.085938 -87.21875 29.410156 -84.222656 31.609375 -79.828125 L 44.03125 -54.8125 L 44.9375 -54.8125 C 46.332031 -57.914062 47.550781 -60.738281 48.59375 -63.28125 C 49.644531 -65.832031 50.671875 -68.378906 51.671875 -70.921875 C 52.671875 -73.460938 53.71875 -76.109375 54.8125 -78.859375 C 55.914062 -81.609375 57.164062 -84.78125 58.5625 -88.375 C 60.363281 -89.269531 62.359375 -89.96875 64.546875 -90.46875 C 66.742188 -90.96875 68.84375 -91.21875 70.84375 -91.21875 C 74.34375 -91.21875 77.3125 -90.289062 79.75 -88.4375 C 82.195312 -86.59375 83.421875 -83.828125 83.421875 -80.140625 C 83.421875 -78.929688 83.171875 -77.476562 82.671875 -75.78125 C 82.179688 -74.09375 81.035156 -71.523438 79.234375 -68.078125 C 77.429688 -64.628906 74.804688 -59.957031 71.359375 -54.0625 C 67.921875 -48.175781 63.253906 -40.488281 57.359375 -31 Z M 57.359375 -0.59375 "/></g></g></g><g fill="#ff6300" fill-opacity="1"><g transform="translate(565.796297, 186.768288)"><g><path d="M 5.25 -45.53125 C 5.25 -53.320312 6.46875 -60.210938 8.90625 -66.203125 C 11.351562 -72.191406 14.695312 -77.207031 18.9375 -81.25 C 23.1875 -85.300781 28.179688 -88.375 33.921875 -90.46875 C 39.660156 -92.5625 45.878906 -93.609375 52.578125 -93.609375 C 59.265625 -93.609375 65.476562 -92.5625 71.21875 -90.46875 C 76.957031 -88.375 81.972656 -85.300781 86.265625 -81.25 C 90.566406 -77.207031 93.9375 -72.191406 96.375 -66.203125 C 98.820312 -60.210938 100.046875 -53.320312 100.046875 -45.53125 C 100.046875 -37.738281 98.847656 -30.820312 96.453125 -24.78125 C 94.054688 -18.75 90.738281 -13.707031 86.5 -9.65625 C 82.257812 -5.613281 77.242188 -2.539062 71.453125 -0.4375 C 65.660156 1.65625 59.367188 2.703125 52.578125 2.703125 C 45.785156 2.703125 39.492188 1.628906 33.703125 -0.515625 C 27.910156 -2.671875 22.914062 -5.796875 18.71875 -9.890625 C 14.53125 -13.984375 11.238281 -19.023438 8.84375 -25.015625 C 6.445312 -31.003906 5.25 -37.84375 5.25 -45.53125 Z M 32.203125 -45.53125 C 32.203125 -36.445312 34.046875 -29.65625 37.734375 -25.15625 C 41.429688 -20.664062 46.378906 -18.421875 52.578125 -18.421875 C 58.867188 -18.421875 63.859375 -20.664062 67.546875 -25.15625 C 71.242188 -29.65625 73.09375 -36.445312 73.09375 -45.53125 C 73.09375 -54.519531 71.269531 -61.257812 67.625 -65.75 C 63.976562 -70.25 59.007812 -72.5 52.71875 -72.5 C 46.53125 -72.5 41.5625 -70.273438 37.8125 -65.828125 C 34.070312 -61.378906 32.203125 -54.613281 32.203125 -45.53125 Z M 32.203125 -45.53125 "/></g></g></g><g fill="#7ed957" fill-opacity="1"><g transform="translate(70.508499, 274.481946)"><g><path d="M 41.4375 0 L 36.0625 0 L 36.0625 -21.828125 L 11.71875 -21.828125 L 11.71875 0 L 6.34375 0 L 6.34375 -46.328125 L 11.71875 -46.328125 L 11.71875 -26.578125 L 36.0625 -26.578125 L 36.0625 -46.328125 L 41.4375 -46.328125 Z M 41.4375 0 "/></g></g></g><g fill="#7ed957" fill-opacity="1"><g transform="translate(118.355373, 274.481946)"><g><path d="M 18.53125 -35.296875 C 22.675781 -35.296875 25.75 -34.363281 27.75 -32.5 C 29.757812 -30.644531 30.765625 -27.679688 30.765625 -23.609375 L 30.765625 0 L 26.9375 0 L 25.921875 -5.140625 L 25.671875 -5.140625 C 24.691406 -3.867188 23.671875 -2.804688 22.609375 -1.953125 C 21.554688 -1.097656 20.335938 -0.453125 18.953125 -0.015625 C 17.578125 0.421875 15.882812 0.640625 13.875 0.640625 C 11.757812 0.640625 9.882812 0.269531 8.25 -0.46875 C 6.613281 -1.207031 5.328125 -2.328125 4.390625 -3.828125 C 3.453125 -5.328125 2.984375 -7.226562 2.984375 -9.53125 C 2.984375 -13 4.351562 -15.660156 7.09375 -17.515625 C 9.84375 -19.378906 14.023438 -20.394531 19.640625 -20.5625 L 25.640625 -20.8125 L 25.640625 -22.9375 C 25.640625 -25.9375 24.992188 -28.035156 23.703125 -29.234375 C 22.410156 -30.441406 20.59375 -31.046875 18.25 -31.046875 C 16.4375 -31.046875 14.703125 -30.78125 13.046875 -30.25 C 11.398438 -29.726562 9.835938 -29.109375 8.359375 -28.390625 L 6.75 -32.375 C 8.3125 -33.1875 10.101562 -33.875 12.125 -34.4375 C 14.15625 -35.007812 16.289062 -35.296875 18.53125 -35.296875 Z M 25.5625 -17.109375 L 20.28125 -16.890625 C 15.945312 -16.722656 12.890625 -16.015625 11.109375 -14.765625 C 9.335938 -13.515625 8.453125 -11.75 8.453125 -9.46875 C 8.453125 -7.488281 9.054688 -6.019531 10.265625 -5.0625 C 11.472656 -4.113281 13.066406 -3.640625 15.046875 -3.640625 C 18.128906 -3.640625 20.648438 -4.492188 22.609375 -6.203125 C 24.578125 -7.921875 25.5625 -10.488281 25.5625 -13.90625 Z M 25.5625 -17.109375 "/></g></g></g><g fill="#7ed957" fill-opacity="1"><g transform="translate(154.414806, 274.481946)"><g><path d="M 21.859375 -35.359375 C 26.191406 -35.359375 29.644531 -33.867188 32.21875 -30.890625 C 34.800781 -27.910156 36.09375 -23.429688 36.09375 -17.453125 C 36.09375 -13.503906 35.5 -10.1875 34.3125 -7.5 C 33.132812 -4.820312 31.472656 -2.796875 29.328125 -1.421875 C 27.179688 -0.046875 24.648438 0.640625 21.734375 0.640625 C 19.898438 0.640625 18.285156 0.394531 16.890625 -0.09375 C 15.492188 -0.582031 14.296875 -1.238281 13.296875 -2.0625 C 12.304688 -2.882812 11.488281 -3.78125 10.84375 -4.75 L 10.453125 -4.75 C 10.515625 -3.925781 10.59375 -2.929688 10.6875 -1.765625 C 10.789062 -0.609375 10.84375 0.398438 10.84375 1.265625 L 10.84375 15.53125 L 5.546875 15.53125 L 5.546875 -34.734375 L 9.890625 -34.734375 L 10.578125 -29.59375 L 10.84375 -29.59375 C 11.507812 -30.644531 12.328125 -31.609375 13.296875 -32.484375 C 14.273438 -33.367188 15.46875 -34.066406 16.875 -34.578125 C 18.28125 -35.097656 19.941406 -35.359375 21.859375 -35.359375 Z M 20.9375 -30.921875 C 18.53125 -30.921875 16.59375 -30.457031 15.125 -29.53125 C 13.65625 -28.601562 12.582031 -27.210938 11.90625 -25.359375 C 11.238281 -23.515625 10.882812 -21.195312 10.84375 -18.40625 L 10.84375 -17.390625 C 10.84375 -14.453125 11.160156 -11.96875 11.796875 -9.9375 C 12.441406 -7.914062 13.507812 -6.375 15 -5.3125 C 16.488281 -4.257812 18.488281 -3.734375 21 -3.734375 C 23.15625 -3.734375 24.953125 -4.3125 26.390625 -5.46875 C 27.828125 -6.632812 28.898438 -8.257812 29.609375 -10.34375 C 30.316406 -12.425781 30.671875 -14.816406 30.671875 -17.515625 C 30.671875 -21.617188 29.875 -24.878906 28.28125 -27.296875 C 26.6875 -29.710938 24.238281 -30.921875 20.9375 -30.921875 Z M 20.9375 -30.921875 "/></g></g></g><g fill="#7ed957" fill-opacity="1"><g transform="translate(194.118206, 274.481946)"><g><path d="M 21.859375 -35.359375 C 26.191406 -35.359375 29.644531 -33.867188 32.21875 -30.890625 C 34.800781 -27.910156 36.09375 -23.429688 36.09375 -17.453125 C 36.09375 -13.503906 35.5 -10.1875 34.3125 -7.5 C 33.132812 -4.820312 31.472656 -2.796875 29.328125 -1.421875 C 27.179688 -0.046875 24.648438 0.640625 21.734375 0.640625 C 19.898438 0.640625 18.285156 0.394531 16.890625 -0.09375 C 15.492188 -0.582031 14.296875 -1.238281 13.296875 -2.0625 C 12.304688 -2.882812 11.488281 -3.78125 10.84375 -4.75 L 10.453125 -4.75 C 10.515625 -3.925781 10.59375 -2.929688 10.6875 -1.765625 C 10.789062 -0.609375 10.84375 0.398438 10.84375 1.265625 L 10.84375 15.53125 L 5.546875 15.53125 L 5.546875 -34.734375 L 9.890625 -34.734375 L 10.578125 -29.59375 L 10.84375 -29.59375 C 11.507812 -30.644531 12.328125 -31.609375 13.296875 -32.484375 C 14.273438 -33.367188 15.46875 -34.066406 16.875 -34.578125 C 18.28125 -35.097656 19.941406 -35.359375 21.859375 -35.359375 Z M 20.9375 -30.921875 C 18.53125 -30.921875 16.59375 -30.457031 15.125 -29.53125 C 13.65625 -28.601562 12.582031 -27.210938 11.90625 -25.359375 C 11.238281 -23.515625 10.882812 -21.195312 10.84375 -18.40625 L 10.84375 -17.390625 C 10.84375 -14.453125 11.160156 -11.96875 11.796875 -9.9375 C 12.441406 -7.914062 13.507812 -6.375 15 -5.3125 C 16.488281 -4.257812 18.488281 -3.734375 21 -3.734375 C 23.15625 -3.734375 24.953125 -4.3125 26.390625 -5.46875 C 27.828125 -6.632812 28.898438 -8.257812 29.609375 -10.34375 C 30.316406 -12.425781 30.671875 -14.816406 30.671875 -17.515625 C 30.671875 -21.617188 29.875 -24.878906 28.28125 -27.296875 C 26.6875 -29.710938 24.238281 -30.921875 20.9375 -30.921875 Z M 20.9375 -30.921875 "/></g></g></g><g fill="#7ed957" fill-opacity="1"><g transform="translate(233.821605, 274.481946)"><g><path d="M 0.0625 -34.734375 L 5.703125 -34.734375 L 13.375 -14.578125 C 13.8125 -13.390625 14.21875 -12.25 14.59375 -11.15625 C 14.976562 -10.070312 15.316406 -9.035156 15.609375 -8.046875 C 15.910156 -7.054688 16.144531 -6.097656 16.3125 -5.171875 L 16.546875 -5.171875 C 16.835938 -6.222656 17.253906 -7.609375 17.796875 -9.328125 C 18.347656 -11.046875 18.941406 -12.804688 19.578125 -14.609375 L 26.84375 -34.734375 L 32.515625 -34.734375 L 17.390625 5.09375 C 16.585938 7.226562 15.648438 9.085938 14.578125 10.671875 C 13.515625 12.253906 12.222656 13.472656 10.703125 14.328125 C 9.179688 15.191406 7.347656 15.625 5.203125 15.625 C 4.203125 15.625 3.320312 15.5625 2.5625 15.4375 C 1.800781 15.320312 1.148438 15.191406 0.609375 15.046875 L 0.609375 10.84375 C 1.066406 10.945312 1.628906 11.039062 2.296875 11.125 C 2.960938 11.207031 3.65625 11.25 4.375 11.25 C 5.6875 11.25 6.820312 11 7.78125 10.5 C 8.738281 10.007812 9.566406 9.285156 10.265625 8.328125 C 10.960938 7.378906 11.566406 6.25 12.078125 4.9375 L 13.96875 0.0625 Z M 0.0625 -34.734375 "/></g></g></g><g fill="#7ed957" fill-opacity="1"><g transform="translate(266.33213, 274.481946)"><g/></g></g><g fill="#7ed957" fill-opacity="1"><g transform="translate(283.18944, 274.481946)"><g><path d="M 41.4375 0 L 36.0625 0 L 36.0625 -21.828125 L 11.71875 -21.828125 L 11.71875 0 L 6.34375 0 L 6.34375 -46.328125 L 11.71875 -46.328125 L 11.71875 -26.578125 L 36.0625 -26.578125 L 36.0625 -46.328125 L 41.4375 -46.328125 Z M 41.4375 0 "/></g></g></g><g fill="#7ed957" fill-opacity="1"><g transform="translate(331.036314, 274.481946)"><g><path d="M 18.921875 -35.359375 C 21.878906 -35.359375 24.410156 -34.703125 26.515625 -33.390625 C 28.628906 -32.085938 30.242188 -30.253906 31.359375 -27.890625 C 32.484375 -25.535156 33.046875 -22.785156 33.046875 -19.640625 L 33.046875 -16.375 L 9.0625 -16.375 C 9.125 -12.300781 10.132812 -9.195312 12.09375 -7.0625 C 14.0625 -4.925781 16.832031 -3.859375 20.40625 -3.859375 C 22.601562 -3.859375 24.546875 -4.054688 26.234375 -4.453125 C 27.921875 -4.859375 29.675781 -5.453125 31.5 -6.234375 L 31.5 -1.609375 C 29.738281 -0.828125 28 -0.257812 26.28125 0.09375 C 24.5625 0.457031 22.53125 0.640625 20.1875 0.640625 C 16.84375 0.640625 13.929688 -0.0390625 11.453125 -1.40625 C 8.972656 -2.769531 7.046875 -4.769531 5.671875 -7.40625 C 4.296875 -10.050781 3.609375 -13.285156 3.609375 -17.109375 C 3.609375 -20.847656 4.234375 -24.082031 5.484375 -26.8125 C 6.742188 -29.550781 8.519531 -31.660156 10.8125 -33.140625 C 13.113281 -34.617188 15.816406 -35.359375 18.921875 -35.359375 Z M 18.859375 -31.046875 C 16.046875 -31.046875 13.800781 -30.125 12.125 -28.28125 C 10.457031 -26.445312 9.46875 -23.882812 9.15625 -20.59375 L 27.53125 -20.59375 C 27.507812 -22.664062 27.1875 -24.488281 26.5625 -26.0625 C 25.945312 -27.632812 25.003906 -28.859375 23.734375 -29.734375 C 22.460938 -30.609375 20.835938 -31.046875 18.859375 -31.046875 Z M 18.859375 -31.046875 "/></g></g></g><g fill="#7ed957" fill-opacity="1"><g transform="translate(367.475986, 274.481946)"><g><path d="M 18.53125 -35.296875 C 22.675781 -35.296875 25.75 -34.363281 27.75 -32.5 C 29.757812 -30.644531 30.765625 -27.679688 30.765625 -23.609375 L 30.765625 0 L 26.9375 0 L 25.921875 -5.140625 L 25.671875 -5.140625 C 24.691406 -3.867188 23.671875 -2.804688 22.609375 -1.953125 C 21.554688 -1.097656 20.335938 -0.453125 18.953125 -0.015625 C 17.578125 0.421875 15.882812 0.640625 13.875 0.640625 C 11.757812 0.640625 9.882812 0.269531 8.25 -0.46875 C 6.613281 -1.207031 5.328125 -2.328125 4.390625 -3.828125 C 3.453125 -5.328125 2.984375 -7.226562 2.984375 -9.53125 C 2.984375 -13 4.351562 -15.660156 7.09375 -17.515625 C 9.84375 -19.378906 14.023438 -20.394531 19.640625 -20.5625 L 25.640625 -20.8125 L 25.640625 -22.9375 C 25.640625 -25.9375 24.992188 -28.035156 23.703125 -29.234375 C 22.410156 -30.441406 20.59375 -31.046875 18.25 -31.046875 C 16.4375 -31.046875 14.703125 -30.78125 13.046875 -30.25 C 11.398438 -29.726562 9.835938 -29.109375 8.359375 -28.390625 L 6.75 -32.375 C 8.3125 -33.1875 10.101562 -33.875 12.125 -34.4375 C 14.15625 -35.007812 16.289062 -35.296875 18.53125 -35.296875 Z M 25.5625 -17.109375 L 20.28125 -16.890625 C 15.945312 -16.722656 12.890625 -16.015625 11.109375 -14.765625 C 9.335938 -13.515625 8.453125 -11.75 8.453125 -9.46875 C 8.453125 -7.488281 9.054688 -6.019531 10.265625 -5.0625 C 11.472656 -4.113281 13.066406 -3.640625 15.046875 -3.640625 C 18.128906 -3.640625 20.648438 -4.492188 22.609375 -6.203125 C 24.578125 -7.921875 25.5625 -10.488281 25.5625 -13.90625 Z M 25.5625 -17.109375 "/></g></g></g><g fill="#7ed957" fill-opacity="1"><g transform="translate(403.535419, 274.481946)"><g><path d="M 10.84375 0 L 5.546875 0 L 5.546875 -49.296875 L 10.84375 -49.296875 Z M 10.84375 0 "/></g></g></g><g fill="#7ed957" fill-opacity="1"><g transform="translate(419.91744, 274.481946)"><g><path d="M 16.765625 -3.671875 C 17.628906 -3.671875 18.515625 -3.742188 19.421875 -3.890625 C 20.328125 -4.046875 21.066406 -4.226562 21.640625 -4.4375 L 21.640625 -0.34375 C 21.023438 -0.0703125 20.171875 0.15625 19.078125 0.34375 C 17.992188 0.539062 16.9375 0.640625 15.90625 0.640625 C 14.070312 0.640625 12.40625 0.316406 10.90625 -0.328125 C 9.40625 -0.972656 8.203125 -2.066406 7.296875 -3.609375 C 6.398438 -5.148438 5.953125 -7.285156 5.953125 -10.015625 L 5.953125 -30.609375 L 1.015625 -30.609375 L 1.015625 -33.171875 L 5.984375 -35.234375 L 8.078125 -42.78125 L 11.25 -42.78125 L 11.25 -34.734375 L 21.421875 -34.734375 L 21.421875 -30.609375 L 11.25 -30.609375 L 11.25 -10.171875 C 11.25 -7.992188 11.75 -6.363281 12.75 -5.28125 C 13.757812 -4.207031 15.097656 -3.671875 16.765625 -3.671875 Z M 16.765625 -3.671875 "/></g></g></g><g fill="#7ed957" fill-opacity="1"><g transform="translate(443.04871, 274.481946)"><g><path d="M 10.796875 -49.296875 L 10.796875 -34.5625 C 10.796875 -33.71875 10.773438 -32.867188 10.734375 -32.015625 C 10.691406 -31.160156 10.617188 -30.375 10.515625 -29.65625 L 10.875 -29.65625 C 11.582031 -30.882812 12.488281 -31.914062 13.59375 -32.75 C 14.707031 -33.582031 15.972656 -34.210938 17.390625 -34.640625 C 18.804688 -35.078125 20.304688 -35.296875 21.890625 -35.296875 C 24.679688 -35.296875 27.007812 -34.851562 28.875 -33.96875 C 30.75 -33.082031 32.15625 -31.707031 33.09375 -29.84375 C 34.03125 -27.988281 34.5 -25.582031 34.5 -22.625 L 34.5 0 L 29.3125 0 L 29.3125 -22.28125 C 29.3125 -25.164062 28.648438 -27.328125 27.328125 -28.765625 C 26.003906 -30.203125 23.984375 -30.921875 21.265625 -30.921875 C 18.679688 -30.921875 16.625 -30.429688 15.09375 -29.453125 C 13.5625 -28.472656 12.460938 -27.03125 11.796875 -25.125 C 11.128906 -23.226562 10.796875 -20.90625 10.796875 -18.15625 L 10.796875 0 L 5.546875 0 L 5.546875 -49.296875 Z M 10.796875 -49.296875 "/></g></g></g><g fill="#7ed957" fill-opacity="1"><g transform="translate(482.847148, 274.481946)"><g><path d="M 0.0625 -34.734375 L 5.703125 -34.734375 L 13.375 -14.578125 C 13.8125 -13.390625 14.21875 -12.25 14.59375 -11.15625 C 14.976562 -10.070312 15.316406 -9.035156 15.609375 -8.046875 C 15.910156 -7.054688 16.144531 -6.097656 16.3125 -5.171875 L 16.546875 -5.171875 C 16.835938 -6.222656 17.253906 -7.609375 17.796875 -9.328125 C 18.347656 -11.046875 18.941406 -12.804688 19.578125 -14.609375 L 26.84375 -34.734375 L 32.515625 -34.734375 L 17.390625 5.09375 C 16.585938 7.226562 15.648438 9.085938 14.578125 10.671875 C 13.515625 12.253906 12.222656 13.472656 10.703125 14.328125 C 9.179688 15.191406 7.347656 15.625 5.203125 15.625 C 4.203125 15.625 3.320312 15.5625 2.5625 15.4375 C 1.800781 15.320312 1.148438 15.191406 0.609375 15.046875 L 0.609375 10.84375 C 1.066406 10.945312 1.628906 11.039062 2.296875 11.125 C 2.960938 11.207031 3.65625 11.25 4.375 11.25 C 5.6875 11.25 6.820312 11 7.78125 10.5 C 8.738281 10.007812 9.566406 9.285156 10.265625 8.328125 C 10.960938 7.378906 11.566406 6.25 12.078125 4.9375 L 13.96875 0.0625 Z M 0.0625 -34.734375 "/></g></g></g><g fill="#7ed957" fill-opacity="1"><g transform="translate(515.35765, 274.481946)"><g/></g></g><g fill="#7ed957" fill-opacity="1"><g transform="translate(532.21496, 274.481946)"><g><path d="M 18.15625 -23.09375 L 30.484375 -46.328125 L 36.28125 -46.328125 L 20.84375 -17.96875 L 20.84375 0 L 15.46875 0 L 15.46875 -17.71875 L 0 -46.328125 L 5.890625 -46.328125 Z M 18.15625 -23.09375 "/></g></g></g><g fill="#7ed957" fill-opacity="1"><g transform="translate(568.496188, 274.481946)"><g><path d="M 35.484375 -17.421875 C 35.484375 -14.578125 35.113281 -12.035156 34.375 -9.796875 C 33.632812 -7.554688 32.566406 -5.664062 31.171875 -4.125 C 29.785156 -2.582031 28.101562 -1.398438 26.125 -0.578125 C 24.144531 0.234375 21.910156 0.640625 19.421875 0.640625 C 17.097656 0.640625 14.96875 0.234375 13.03125 -0.578125 C 11.101562 -1.398438 9.4375 -2.582031 8.03125 -4.125 C 6.625 -5.664062 5.535156 -7.554688 4.765625 -9.796875 C 3.992188 -12.035156 3.609375 -14.578125 3.609375 -17.421875 C 3.609375 -21.222656 4.253906 -24.457031 5.546875 -27.125 C 6.835938 -29.800781 8.679688 -31.84375 11.078125 -33.25 C 13.472656 -34.65625 16.328125 -35.359375 19.640625 -35.359375 C 22.804688 -35.359375 25.578125 -34.648438 27.953125 -33.234375 C 30.335938 -31.816406 32.1875 -29.769531 33.5 -27.09375 C 34.820312 -24.425781 35.484375 -21.203125 35.484375 -17.421875 Z M 9.0625 -17.421875 C 9.0625 -14.640625 9.429688 -12.222656 10.171875 -10.171875 C 10.910156 -8.117188 12.050781 -6.53125 13.59375 -5.40625 C 15.132812 -4.289062 17.117188 -3.734375 19.546875 -3.734375 C 21.953125 -3.734375 23.929688 -4.289062 25.484375 -5.40625 C 27.035156 -6.53125 28.179688 -8.117188 28.921875 -10.171875 C 29.660156 -12.222656 30.03125 -14.640625 30.03125 -17.421875 C 30.03125 -20.191406 29.660156 -22.582031 28.921875 -24.59375 C 28.179688 -26.613281 27.039062 -28.171875 25.5 -29.265625 C 23.957031 -30.367188 21.960938 -30.921875 19.515625 -30.921875 C 15.898438 -30.921875 13.253906 -29.726562 11.578125 -27.34375 C 9.898438 -24.957031 9.0625 -21.648438 9.0625 -17.421875 Z M 9.0625 -17.421875 "/></g></g></g><g fill="#7ed957" fill-opacity="1"><g transform="translate(607.534167, 274.481946)"><g><path d="M 34.21875 -34.734375 L 34.21875 0 L 29.90625 0 L 29.15625 -4.875 L 28.859375 -4.875 C 28.140625 -3.675781 27.207031 -2.664062 26.0625 -1.84375 C 24.925781 -1.019531 23.644531 -0.398438 22.21875 0.015625 C 20.800781 0.429688 19.289062 0.640625 17.6875 0.640625 C 14.9375 0.640625 12.628906 0.195312 10.765625 -0.6875 C 8.910156 -1.582031 7.515625 -2.957031 6.578125 -4.8125 C 5.640625 -6.675781 5.171875 -9.066406 5.171875 -11.984375 L 5.171875 -34.734375 L 10.484375 -34.734375 L 10.484375 -12.359375 C 10.484375 -9.460938 11.140625 -7.300781 12.453125 -5.875 C 13.765625 -4.445312 15.757812 -3.734375 18.4375 -3.734375 C 21.019531 -3.734375 23.078125 -4.21875 24.609375 -5.1875 C 26.140625 -6.164062 27.238281 -7.597656 27.90625 -9.484375 C 28.582031 -11.378906 28.921875 -13.695312 28.921875 -16.4375 L 28.921875 -34.734375 Z M 34.21875 -34.734375 "/></g></g></g><g fill="#7ed957" fill-opacity="1"><g transform="translate(647.332627, 274.481946)"><g><path d="M 10.296875 -12.859375 L 6.84375 -12.859375 L 5.390625 -46.328125 L 11.75 -46.328125 Z M 4.75 -3.296875 C 4.75 -4.773438 5.109375 -5.820312 5.828125 -6.4375 C 6.546875 -7.0625 7.441406 -7.375 8.515625 -7.375 C 9.578125 -7.375 10.472656 -7.0625 11.203125 -6.4375 C 11.929688 -5.820312 12.296875 -4.773438 12.296875 -3.296875 C 12.296875 -1.835938 11.929688 -0.773438 11.203125 -0.109375 C 10.472656 0.554688 9.578125 0.890625 8.515625 0.890625 C 7.441406 0.890625 6.546875 0.554688 5.828125 -0.109375 C 5.109375 -0.773438 4.75 -1.835938 4.75 -3.296875 Z M 4.75 -3.296875 "/></g></g></g></svg>