<svg xmlns="http://www.w3.org/2000/svg" xmlns:xlink="http://www.w3.org/1999/xlink" width="408" zoomAndPan="magnify" viewBox="0 50 306 306" height="408" preserveAspectRatio="xMidYMid meet" version="1.0"><defs><clipPath id="d6e0eff138"><path d="M 4 124 L 301 124 L 301 222 L 4 222 Z M 4 124 " clip-rule="nonzero"/></clipPath><clipPath id="269344b53b"><path d="M 305.296875 133.90625 L 171.390625 305.296875 L 0 171.390625 L 133.90625 0 Z M 305.296875 133.90625 " clip-rule="nonzero"/></clipPath><clipPath id="755d44d962"><path d="M 305.296875 133.90625 L 171.390625 305.296875 L 0 171.390625 L 133.90625 0 Z M 305.296875 133.90625 " clip-rule="nonzero"/></clipPath><clipPath id="6997e2aa16"><path d="M 47.03125 83.375 L 122.03125 83.375 L 122.03125 323.609375 L 47.03125 323.609375 Z M 47.03125 83.375 " clip-rule="nonzero"/></clipPath><clipPath id="52845b75ce"><path d="M 84.53125 83.375 C 105.242188 83.375 122.03125 100.164062 122.03125 120.875 L 122.03125 285.875 C 122.03125 306.585938 105.242188 323.375 84.53125 323.375 C 63.820312 323.375 47.03125 306.585938 47.03125 285.875 L 47.03125 120.875 C 47.03125 100.164062 63.820312 83.375 84.53125 83.375 Z M 84.53125 83.375 " clip-rule="nonzero"/></clipPath><clipPath id="2c722ebbc6"><path d="M 77.03125 98.375 L 122.03125 98.375 L 122.03125 143.375 L 77.03125 143.375 Z M 77.03125 98.375 " clip-rule="nonzero"/></clipPath><clipPath id="0ef8c7bbcd"><path d="M 99.53125 98.375 C 87.101562 98.375 77.03125 108.445312 77.03125 120.875 C 77.03125 133.300781 87.101562 143.375 99.53125 143.375 C 111.957031 143.375 122.03125 133.300781 122.03125 120.875 C 122.03125 108.445312 111.957031 98.375 99.53125 98.375 Z M 99.53125 98.375 " clip-rule="nonzero"/></clipPath><clipPath id="302ba985e2"><path d="M 172.03125 53.375 L 247.03125 53.375 L 247.03125 353.375 L 172.03125 353.375 Z M 172.03125 53.375 " clip-rule="nonzero"/></clipPath><clipPath id="274b06924e"><path d="M 209.53125 53.375 C 230.242188 53.375 247.03125 70.164062 247.03125 90.875 L 247.03125 315.875 C 247.03125 336.582031 230.242188 353.375 209.53125 353.375 C 188.820312 353.375 172.03125 336.582031 172.03125 315.875 L 172.03125 90.875 C 172.03125 70.164062 188.820312 53.375 209.53125 53.375 Z M 209.53125 53.375 " clip-rule="nonzero"/></clipPath><clipPath id="2e4dff8bdf"><path d="M 172.03125 68.375 L 217.03125 68.375 L 217.03125 113.375 L 172.03125 113.375 Z M 172.03125 68.375 " clip-rule="nonzero"/></clipPath><clipPath id="16c4a72ac6"><path d="M 194.53125 68.375 C 182.101562 68.375 172.03125 78.445312 172.03125 90.875 C 172.03125 103.300781 182.101562 113.375 194.53125 113.375 C 206.957031 113.375 217.03125 103.300781 217.03125 90.875 C 217.03125 78.445312 206.957031 68.375 194.53125 68.375 Z M 194.53125 68.375 " clip-rule="nonzero"/></clipPath></defs><g clip-path="url(#d6e0eff138)"><g clip-path="url(#269344b53b)"><g clip-path="url(#755d44d962)"><path fill="#7ed957" d="M 6.664062 162.859375 C 10.34375 158.152344 17.15625 157.316406 21.863281 160.996094 C 102.253906 223.800781 218.761719 209.496094 281.570312 129.105469 C 285.25 124.398438 292.058594 123.5625 296.765625 127.242188 C 301.476562 130.921875 302.3125 137.730469 298.632812 142.4375 C 281.460938 164.417969 260.496094 182.386719 236.304688 195.832031 C 212.941406 208.820312 187.601562 217.054688 160.972656 220.324219 C 134.347656 223.59375 107.753906 221.722656 81.953125 214.785156 C 55.230469 207.589844 30.542969 195.226562 8.5625 178.054688 C 3.824219 174.378906 2.988281 167.570312 6.664062 162.859375 Z M 6.664062 162.859375 " fill-opacity="1" fill-rule="nonzero"/></g></g></g><g clip-path="url(#6997e2aa16)"><g clip-path="url(#52845b75ce)"><path fill="#7ed957" d="M 47.03125 83.375 L 122.03125 83.375 L 122.03125 323.316406 L 47.03125 323.316406 Z M 47.03125 83.375 " fill-opacity="1" fill-rule="nonzero"/></g></g><g clip-path="url(#2c722ebbc6)"><g clip-path="url(#0ef8c7bbcd)"><path fill="#ff6300" d="M 77.03125 98.375 L 122.03125 98.375 L 122.03125 143.375 L 77.03125 143.375 Z M 77.03125 98.375 " fill-opacity="1" fill-rule="nonzero"/><path stroke-linecap="butt" transform="matrix(0.75, 0, 0, 0.75, 77.029754, 98.373347)" fill="none" stroke-linejoin="miter" d="M 30.001995 0.0022035 C 13.429078 0.0022035 0.00199458 13.429287 0.00199458 30.002204 C 0.00199458 46.569913 13.429078 60.002204 30.001995 60.002204 C 46.569704 60.002204 60.001996 46.569913 60.001996 30.002204 C 60.001996 13.429287 46.569704 0.0022035 30.001995 0.0022035 Z M 30.001995 0.0022035 " stroke="#ffffff" stroke-width="12" stroke-opacity="1" stroke-miterlimit="4"/></g></g><g clip-path="url(#302ba985e2)"><g clip-path="url(#274b06924e)"><path fill="#7ed957" d="M 172.03125 53.375 L 247.03125 53.375 L 247.03125 353.375 L 172.03125 353.375 Z M 172.03125 53.375 " fill-opacity="1" fill-rule="nonzero"/></g></g><g clip-path="url(#2e4dff8bdf)"><g clip-path="url(#16c4a72ac6)"><path fill="#ff6300" d="M 172.03125 68.375 L 217.03125 68.375 L 217.03125 113.375 L 172.03125 113.375 Z M 172.03125 68.375 " fill-opacity="1" fill-rule="nonzero"/><path stroke-linecap="butt" transform="matrix(0.75, 0, 0, 0.75, 172.029748, 68.37335)" fill="none" stroke-linejoin="miter" d="M 30.002003 0.00220032 C 13.429086 0.00220032 0.00200252 13.429284 0.00200252 30.002201 C 0.00200252 46.569909 13.429086 60.002201 30.002003 60.002201 C 46.569712 60.002201 60.002003 46.569909 60.002003 30.002201 C 60.002003 13.429284 46.569712 0.00220032 30.002003 0.00220032 Z M 30.002003 0.00220032 " stroke="#ffffff" stroke-width="12" stroke-opacity="1" stroke-miterlimit="4"/></g></g></svg>