<?xml version="1.0" encoding="UTF-8" standalone="no"?>
<!DOCTYPE svg PUBLIC "-//W3C//DTD SVG 1.1//EN" "http://www.w3.org/Graphics/SVG/1.1/DTD/svg11.dtd">
<svg xmlns="http://www.w3.org/2000/svg" version="1.1" viewBox="0.00 0.00 192.00 192.00">
<g stroke-width="2.00" fill="none" stroke-linecap="butt">
<path stroke="#a44ae4" vector-effect="non-scaling-stroke" d="
  M 100.38 0.74
  Q 116.37 18.00 134.98 32.05
  Q 162.30 52.69 189.53 73.71"
/>
<path stroke="#7f42cc" vector-effect="non-scaling-stroke" d="
  M 191.52 108.82
  Q 179.32 99.51 168.42 88.97
  Q 168.08 88.64 168.10 89.12
  Q 168.16 90.29 167.81 91.31"
/>
<path stroke="#c29eec" vector-effect="non-scaling-stroke" d="
  M 167.81 91.31
  Q 168.05 85.28 167.26 83.73
  Q 163.74 76.73 156.95 77.17"
/>
<path stroke="#7f42cc" vector-effect="non-scaling-stroke" d="
  M 156.95 77.17
  Q 154.24 77.13 150.77 74.21"
/>
<path stroke="#c9a3ed" vector-effect="non-scaling-stroke" d="
  M 150.77 74.21
  Q 146.31 59.81 133.23 55.59
  Q 128.33 54.01 117.06 54.01
  Q 107.36 54.00 100.74 54.08
  A 1.55 1.54 89.8 0 1 99.18 52.52
  L 99.24 40.50
  Q 99.24 40.11 99.56 39.70
  Q 99.98 39.16 101.51 38.07
  C 105.49 35.23 106.67 29.39 103.55 25.42
  Q 98.79 19.37 90.46 23.32"
/>
<path stroke="#8047d6" vector-effect="non-scaling-stroke" d="
  M 90.46 23.32
  L 66.65 5.27"
/>
<path stroke="#b4a2e5" vector-effect="non-scaling-stroke" d="
  M 90.46 23.32
  Q 84.31 28.87 88.60 35.77
  C 89.69 37.51 91.30 38.23 92.68 39.61
  A 0.87 0.85 -68.0 0 1 92.93 40.22
  L 92.93 52.23
  Q 92.93 54.05 91.10 54.04
  Q 79.86 53.98 69.25 54.07
  Q 59.61 54.15 52.64 58.55"
/>
<path stroke="#5746c0" vector-effect="non-scaling-stroke" d="
  M 52.64 58.55
  Q 37.00 47.24 23.00 34.39"
/>
<path stroke="#b39ddb" vector-effect="non-scaling-stroke" d="
  M 150.77 74.21
  L 150.48 88.49"
/>
<path stroke="#ebf2fc" vector-effect="non-scaling-stroke" d="
  M 150.48 88.49
  Q 141.81 89.05 132.60 87.52"
/>
<path stroke="#b39ddb" vector-effect="non-scaling-stroke" d="
  M 132.60 87.52
  C 126.50 75.61 110.61 77.81 107.14 90.54"
/>
<path stroke="#ebf2fc" vector-effect="non-scaling-stroke" d="
  M 107.14 90.54
  L 84.98 91.02"
/>
<path stroke="#a099ca" vector-effect="non-scaling-stroke" d="
  M 84.98 91.02
  C 82.07 76.27 62.82 75.86 58.63 90.24"
/>
<path stroke="#ebf2fc" vector-effect="non-scaling-stroke" d="
  M 58.63 90.24
  L 41.27 89.55"
/>
<path stroke="#a0a2d7" vector-effect="non-scaling-stroke" d="
  M 41.27 89.55
  Q 40.89 78.56 41.35 75.70
  C 42.53 68.39 46.77 62.82 52.64 58.55"
/>
<path stroke="#8e97d7" vector-effect="non-scaling-stroke" d="
  M 41.27 89.55
  L 41.18 99.97"
/>
<path stroke="#36429d" vector-effect="non-scaling-stroke" d="
  M 41.18 99.97
  L 34.98 99.22"
/>
<path stroke="#999dd6" vector-effect="non-scaling-stroke" d="
  M 34.98 99.22
  L 34.96 77.12
  A 0.48 0.48 0.0 0 0 34.36 76.65
  Q 30.60 77.55 28.05 79.53"
/>
<path stroke="#36429d" vector-effect="non-scaling-stroke" d="
  M 28.05 79.53
  L 6.22 62.70"
/>
<path stroke="#8c99c1" vector-effect="non-scaling-stroke" d="
  M 28.05 79.53
  Q 24.52 82.56 24.48 86.00
  Q 24.37 95.44 24.44 102.17
  Q 24.49 106.99 25.78 109.07
  Q 28.22 113.02 34.11 114.51
  Q 34.98 114.73 34.98 113.83
  L 34.98 99.22"
/>
<path stroke="#8192c2" vector-effect="non-scaling-stroke" d="
  M 41.18 99.97
  Q 41.23 109.84 41.13 119.76
  C 40.98 134.68 49.57 144.52 63.96 147.03
  Q 64.55 147.13 64.55 147.73
  L 64.55 171.52
  A 0.35 0.35 0.0 0 0 65.12 171.80
  L 89.42 152.49"
/>
<path stroke="#363990" vector-effect="non-scaling-stroke" d="
  M 89.42 152.49
  Q 103.85 161.85 114.15 176.31
  Q 120.42 185.13 122.40 188.08"
/>
<path stroke="#ac98da" vector-effect="non-scaling-stroke" d="
  M 156.95 77.17
  L 157.11 113.63
  A 0.77 0.77 0.0 0 0 158.01 114.39
  Q 162.54 113.59 165.75 109.99
  Q 167.74 107.76 167.81 103.00
  Q 167.90 97.13 167.81 91.31"
/>
<path stroke="#5639a9" vector-effect="non-scaling-stroke" d="
  M 166.63 161.55
  L 149.27 132.76"
/>
<path stroke="#a092db" vector-effect="non-scaling-stroke" d="
  M 149.27 132.76
  Q 152.37 111.11 150.48 88.49"
/>
<path stroke="#8e8eca" vector-effect="non-scaling-stroke" d="
  M 84.98 91.02
  Q 85.58 98.33 80.15 102.88
  Q 74.86 107.32 69.21 105.87
  Q 57.47 102.87 58.63 90.24"
/>
<path stroke="#a092db" vector-effect="non-scaling-stroke" d="
  M 132.60 87.52
  Q 135.28 95.50 130.88 100.95
  C 127.39 105.27 121.35 107.35 116.06 105.24
  Q 106.35 101.35 107.14 90.54"
/>
<path stroke="#8e8eca" vector-effect="non-scaling-stroke" d="
  M 149.27 132.76
  Q 144.60 139.22 139.73 142.71
  Q 133.79 146.97 125.50 146.91
  Q 112.00 146.82 98.51 146.94
  C 95.30 146.96 91.79 150.39 89.42 152.49"
/>
<path stroke="#8192c2" vector-effect="non-scaling-stroke" d="
  M 111.60 124.31
  A 3.43 3.43 0.0 0 0 108.17 120.88
  L 83.87 120.88
  A 3.43 3.43 0.0 0 0 80.44 124.31
  L 80.44 124.51
  A 3.43 3.43 0.0 0 0 83.87 127.94
  L 108.17 127.94
  A 3.43 3.43 0.0 0 0 111.60 124.51
  L 111.60 124.31"
/>
</g>
<path fill="#9548de" d="
  M 100.38 0.74
  Q 116.37 18.00 134.98 32.05
  Q 162.30 52.69 189.53 73.71
  L 192.00 89.74
  L 192.00 104.37
  L 191.52 108.82
  Q 179.32 99.51 168.42 88.97
  Q 168.08 88.64 168.10 89.12
  Q 168.16 90.29 167.81 91.31
  Q 168.05 85.28 167.26 83.73
  Q 163.74 76.73 156.95 77.17
  Q 154.24 77.13 150.77 74.21
  Q 146.31 59.81 133.23 55.59
  Q 128.33 54.01 117.06 54.01
  Q 107.36 54.00 100.74 54.08
  A 1.55 1.54 89.8 0 1 99.18 52.52
  L 99.24 40.50
  Q 99.24 40.11 99.56 39.70
  Q 99.98 39.16 101.51 38.07
  C 105.49 35.23 106.67 29.39 103.55 25.42
  Q 98.79 19.37 90.46 23.32
  L 66.65 5.27
  Q 83.30 -0.09 100.38 0.74
  Z"
/>
<path fill="#b34be9" d="
  M 189.53 73.71
  Q 162.30 52.69 134.98 32.05
  Q 116.37 18.00 100.38 0.74
  Q 109.29 0.91 117.75 2.99
  C 152.83 11.61 180.85 38.45 189.53 73.71
  Z"
/>
<path fill="#6b46cd" d="
  M 66.65 5.27
  L 90.46 23.32
  Q 84.31 28.87 88.60 35.77
  C 89.69 37.51 91.30 38.23 92.68 39.61
  A 0.87 0.85 -68.0 0 1 92.93 40.22
  L 92.93 52.23
  Q 92.93 54.05 91.10 54.04
  Q 79.86 53.98 69.25 54.07
  Q 59.61 54.15 52.64 58.55
  Q 37.00 47.24 23.00 34.39
  Q 40.80 13.67 66.65 5.27
  Z"
/>
<path fill="#fdfdfc" d="
  M 150.77 74.21
  L 150.48 88.49
  Q 141.81 89.05 132.60 87.52
  C 126.50 75.61 110.61 77.81 107.14 90.54
  L 84.98 91.02
  C 82.07 76.27 62.82 75.86 58.63 90.24
  L 41.27 89.55
  Q 40.89 78.56 41.35 75.70
  C 42.53 68.39 46.77 62.82 52.64 58.55
  Q 59.61 54.15 69.25 54.07
  Q 79.86 53.98 91.10 54.04
  Q 92.93 54.05 92.93 52.23
  L 92.93 40.22
  A 0.87 0.85 -68.0 0 0 92.68 39.61
  C 91.30 38.23 89.69 37.51 88.60 35.77
  Q 84.31 28.87 90.46 23.32
  Q 98.79 19.37 103.55 25.42
  C 106.67 29.39 105.49 35.23 101.51 38.07
  Q 99.98 39.16 99.56 39.70
  Q 99.24 40.11 99.24 40.50
  L 99.18 52.52
  A 1.55 1.54 89.8 0 0 100.74 54.08
  Q 107.36 54.00 117.06 54.01
  Q 128.33 54.01 133.23 55.59
  Q 146.31 59.81 150.77 74.21
  Z"
/>
<path fill="#4346b2" d="
  M 23.00 34.39
  Q 37.00 47.24 52.64 58.55
  C 46.77 62.82 42.53 68.39 41.35 75.70
  Q 40.89 78.56 41.27 89.55
  L 41.18 99.97
  L 34.98 99.22
  L 34.96 77.12
  A 0.48 0.48 0.0 0 0 34.36 76.65
  Q 30.60 77.55 28.05 79.53
  L 6.22 62.70
  Q 11.92 47.06 23.00 34.39
  Z"
/>
<path fill="#293d88" d="
  M 28.05 79.53
  Q 24.52 82.56 24.48 86.00
  Q 24.37 95.44 24.44 102.17
  Q 24.49 106.99 25.78 109.07
  Q 28.22 113.02 34.11 114.51
  Q 34.98 114.73 34.98 113.83
  L 34.98 99.22
  L 41.18 99.97
  Q 41.23 109.84 41.13 119.76
  C 40.98 134.68 49.57 144.52 63.96 147.03
  Q 64.55 147.13 64.55 147.73
  L 64.55 171.52
  A 0.35 0.35 0.0 0 0 65.12 171.80
  L 89.42 152.49
  Q 103.85 161.85 114.15 176.31
  Q 120.42 185.13 122.40 188.08
  C 115.22 190.43 107.74 191.32 100.24 192.00
  L 91.78 192.00
  C 26.41 187.88 -16.62 124.96 6.22 62.70
  L 28.05 79.53
  Z"
/>
<path fill="#683cba" d="
  M 156.95 77.17
  L 157.11 113.63
  A 0.77 0.77 0.0 0 0 158.01 114.39
  Q 162.54 113.59 165.75 109.99
  Q 167.74 107.76 167.81 103.00
  Q 167.90 97.13 167.81 91.31
  Q 168.16 90.29 168.10 89.12
  Q 168.08 88.64 168.42 88.97
  Q 179.32 99.51 191.52 108.82
  C 189.21 128.72 179.92 146.76 166.63 161.55
  L 149.27 132.76
  Q 152.37 111.11 150.48 88.49
  L 150.77 74.21
  Q 154.24 77.13 156.95 77.17
  Z"
/>
<path fill="#eff4fa" d="
  M 34.98 99.22
  L 34.98 113.83
  Q 34.98 114.73 34.11 114.51
  Q 28.22 113.02 25.78 109.07
  Q 24.49 106.99 24.44 102.17
  Q 24.37 95.44 24.48 86.00
  Q 24.52 82.56 28.05 79.53
  Q 30.60 77.55 34.36 76.65
  A 0.48 0.48 0.0 0 1 34.96 77.12
  L 34.98 99.22
  Z"
/>
<path fill="#eff4fa" d="
  M 167.81 91.31
  Q 167.90 97.13 167.81 103.00
  Q 167.74 107.76 165.75 109.99
  Q 162.54 113.59 158.01 114.39
  A 0.77 0.77 0.0 0 1 157.11 113.63
  L 156.95 77.17
  Q 163.74 76.73 167.26 83.73
  Q 168.05 85.28 167.81 91.31
  Z"
/>
<path fill="#433597" d="
  M 84.98 91.02
  Q 85.58 98.33 80.15 102.88
  Q 74.86 107.32 69.21 105.87
  Q 57.47 102.87 58.63 90.24
  C 62.82 75.86 82.07 76.27 84.98 91.02
  Z"
/>
<path fill="#683cba" d="
  M 132.60 87.52
  Q 135.28 95.50 130.88 100.95
  C 127.39 105.27 121.35 107.35 116.06 105.24
  Q 106.35 101.35 107.14 90.54
  C 110.61 77.81 126.50 75.61 132.60 87.52
  Z"
/>
<path fill="#d8e7fc" d="
  M 150.48 88.49
  Q 152.37 111.11 149.27 132.76
  Q 144.60 139.22 139.73 142.71
  Q 133.79 146.97 125.50 146.91
  Q 112.00 146.82 98.51 146.94
  C 95.30 146.96 91.79 150.39 89.42 152.49
  L 65.12 171.80
  A 0.35 0.35 0.0 0 1 64.55 171.52
  L 64.55 147.73
  Q 64.55 147.13 63.96 147.03
  C 49.57 144.52 40.98 134.68 41.13 119.76
  Q 41.23 109.84 41.18 99.97
  L 41.27 89.55
  L 58.63 90.24
  Q 57.47 102.87 69.21 105.87
  Q 74.86 107.32 80.15 102.88
  Q 85.58 98.33 84.98 91.02
  L 107.14 90.54
  Q 106.35 101.35 116.06 105.24
  C 121.35 107.35 127.39 105.27 130.88 100.95
  Q 135.28 95.50 132.60 87.52
  Q 141.81 89.05 150.48 88.49
  Z
  M 111.60 124.31
  A 3.43 3.43 0.0 0 0 108.17 120.88
  L 83.87 120.88
  A 3.43 3.43 0.0 0 0 80.44 124.31
  L 80.44 124.51
  A 3.43 3.43 0.0 0 0 83.87 127.94
  L 108.17 127.94
  A 3.43 3.43 0.0 0 0 111.60 124.51
  L 111.60 124.31
  Z"
/>
<rect fill="#293d88" x="80.44" y="120.88" width="31.16" height="7.06" rx="3.43"/>
<path fill="#433597" d="
  M 166.63 161.55
  Q 148.24 180.86 122.40 188.08
  Q 120.42 185.13 114.15 176.31
  Q 103.85 161.85 89.42 152.49
  C 91.79 150.39 95.30 146.96 98.51 146.94
  Q 112.00 146.82 125.50 146.91
  Q 133.79 146.97 139.73 142.71
  Q 144.60 139.22 149.27 132.76
  L 166.63 161.55
  Z"
/>
</svg>
