<svg xmlns="http://www.w3.org/2000/svg" xmlns:xlink="http://www.w3.org/1999/xlink" width="540" zoomAndPan="magnify"
    viewBox="0 0 404.88 404.99999" height="540" preserveAspectRatio="xMidYMid meet" version="1.0">
    <defs>
        <clipPath id="1020a1386c">
            <path d="M 54 124 L 351 124 L 351 222 L 54 222 Z M 54 124 " clip-rule="nonzero" />
        </clipPath>
        <clipPath id="71cbde8f1f">
            <path
                d="M 355.042969 133.925781 L 221.175781 305.269531 L 49.835938 171.402344 L 183.703125 0.0585938 Z M 355.042969 133.925781 "
                clip-rule="nonzero" />
        </clipPath>
        <clipPath id="fff17c658d">
            <path
                d="M 355.042969 133.925781 L 221.175781 305.269531 L 49.835938 171.402344 L 183.703125 0.0585938 Z M 355.042969 133.925781 "
                clip-rule="nonzero" />
        </clipPath>
        <clipPath id="6336e94912">
            <path
                d="M 96.851562 83.410156 L 171.828125 83.410156 L 171.828125 323.570312 L 96.851562 323.570312 Z M 96.851562 83.410156 "
                clip-rule="nonzero" />
        </clipPath>
        <clipPath id="7819bc4da6">
            <path
                d="M 134.339844 83.410156 C 155.046875 83.410156 171.828125 100.191406 171.828125 120.898438 L 171.828125 285.847656 C 171.828125 306.554688 155.046875 323.335938 134.339844 323.335938 C 113.636719 323.335938 96.851562 306.554688 96.851562 285.847656 L 96.851562 120.898438 C 96.851562 100.191406 113.636719 83.410156 134.339844 83.410156 Z M 134.339844 83.410156 "
                clip-rule="nonzero" />
        </clipPath>
        <clipPath id="f90a0662c8">
            <path
                d="M 126.84375 98.402344 L 171.828125 98.402344 L 171.828125 143.390625 L 126.84375 143.390625 Z M 126.84375 98.402344 "
                clip-rule="nonzero" />
        </clipPath>
        <clipPath id="17ac21fd1c">
            <path
                d="M 149.335938 98.402344 C 136.914062 98.402344 126.84375 108.476562 126.84375 120.898438 C 126.84375 133.320312 136.914062 143.390625 149.335938 143.390625 C 161.757812 143.390625 171.828125 133.320312 171.828125 120.898438 C 171.828125 108.476562 161.757812 98.402344 149.335938 98.402344 Z M 149.335938 98.402344 "
                clip-rule="nonzero" />
        </clipPath>
        <clipPath id="025941ba8d">
            <path
                d="M 221.816406 53.417969 L 296.792969 53.417969 L 296.792969 353.328125 L 221.816406 353.328125 Z M 221.816406 53.417969 "
                clip-rule="nonzero" />
        </clipPath>
        <clipPath id="203196e8f2">
            <path
                d="M 259.304688 53.417969 C 280.007812 53.417969 296.792969 70.203125 296.792969 90.90625 L 296.792969 315.839844 C 296.792969 336.542969 280.007812 353.328125 259.304688 353.328125 C 238.597656 353.328125 221.816406 336.542969 221.816406 315.839844 L 221.816406 90.90625 C 221.816406 70.203125 238.597656 53.417969 259.304688 53.417969 Z M 259.304688 53.417969 "
                clip-rule="nonzero" />
        </clipPath>
        <clipPath id="07ec3dd6ad">
            <path
                d="M 221.816406 68.414062 L 266.800781 68.414062 L 266.800781 113.398438 L 221.816406 113.398438 Z M 221.816406 68.414062 "
                clip-rule="nonzero" />
        </clipPath>
        <clipPath id="550c167a2f">
            <path
                d="M 244.308594 68.414062 C 231.886719 68.414062 221.816406 78.484375 221.816406 90.90625 C 221.816406 103.328125 231.886719 113.398438 244.308594 113.398438 C 256.730469 113.398438 266.800781 103.328125 266.800781 90.90625 C 266.800781 78.484375 256.730469 68.414062 244.308594 68.414062 Z M 244.308594 68.414062 "
                clip-rule="nonzero" />
        </clipPath>
    </defs>
      <rect x="0" y="0" width="540" height="540" fill="white" />

    <g clip-path="url(#1020a1386c)">
        <g clip-path="url(#71cbde8f1f)">
            <g clip-path="url(#fff17c658d)">
                <path fill="#0a703f"
                    d="M 56.5 162.871094 C 60.179688 158.164062 66.984375 157.328125 71.695312 161.007812 C 152.058594 223.792969 268.53125 209.492188 331.320312 129.128906 C 335 124.417969 341.804688 123.585938 346.515625 127.261719 C 351.222656 130.941406 352.058594 137.746094 348.378906 142.457031 C 331.214844 164.429688 310.253906 182.394531 286.070312 195.835938 C 262.710938 208.820312 237.382812 217.050781 210.761719 220.320312 C 184.144531 223.585938 157.554688 221.714844 131.765625 214.78125 C 105.050781 207.589844 80.367188 195.226562 58.394531 178.0625 C 53.65625 174.386719 52.820312 167.582031 56.5 162.871094 Z M 56.5 162.871094 "
                    fill-opacity="1" fill-rule="nonzero" />
            </g>
        </g>
    </g>
    <g clip-path="url(#6336e94912)">
        <g clip-path="url(#7819bc4da6)">
            <path fill="#0a703f"
                d="M 96.851562 83.410156 L 171.828125 83.410156 L 171.828125 323.277344 L 96.851562 323.277344 Z M 96.851562 83.410156 "
                fill-opacity="1" fill-rule="nonzero" />
        </g>
    </g>
    <g clip-path="url(#f90a0662c8)">
        <g clip-path="url(#17ac21fd1c)">
            <path fill="#ff6300"
                d="M 126.84375 98.402344 L 171.828125 98.402344 L 171.828125 143.390625 L 126.84375 143.390625 Z M 126.84375 98.402344 "
                fill-opacity="1" fill-rule="nonzero" />
            <path stroke-linecap="butt" transform="matrix(0.749778, 0, 0, 0.749778, 126.8428, 98.404198)" fill="none"
                stroke-linejoin="miter"
                d="M 29.999739 -0.00247365 C 13.43233 -0.00247365 0.00126741 13.433799 0.00126741 30.001207 C 0.00126741 46.568616 13.43233 59.999678 29.999739 59.999678 C 46.567147 59.999678 59.99821 46.568616 59.99821 30.001207 C 59.99821 13.433799 46.567147 -0.00247365 29.999739 -0.00247365 Z M 29.999739 -0.00247365 "
                stroke="#ffffff" stroke-width="12" stroke-opacity="1" stroke-miterlimit="4" />
        </g>
    </g>
    <g clip-path="url(#025941ba8d)">
        <g clip-path="url(#203196e8f2)">
            <path fill="#0a703f"
                d="M 221.816406 53.417969 L 296.792969 53.417969 L 296.792969 353.328125 L 221.816406 353.328125 Z M 221.816406 53.417969 "
                fill-opacity="1" fill-rule="nonzero" />
        </g>
    </g>
    <g clip-path="url(#07ec3dd6ad)">
        <g clip-path="url(#550c167a2f)">
            <path fill="#ff6300"
                d="M 221.816406 68.414062 L 266.800781 68.414062 L 266.800781 113.398438 L 221.816406 113.398438 Z M 221.816406 68.414062 "
                fill-opacity="1" fill-rule="nonzero" />
            <path stroke-linecap="butt" transform="matrix(0.749778, 0, 0, 0.749778, 221.81463, 68.413089)" fill="none"
                stroke-linejoin="miter"
                d="M 30.00084 0.00129894 C 13.433432 0.00129894 0.00236901 13.432362 0.00236901 29.99977 C 0.00236901 46.567179 13.433432 59.998241 30.00084 59.998241 C 46.568249 59.998241 59.999311 46.567179 59.999311 29.99977 C 59.999311 13.432362 46.568249 0.00129894 30.00084 0.00129894 Z M 30.00084 0.00129894 "
                stroke="#ffffff" stroke-width="12" stroke-opacity="1" stroke-miterlimit="4" />
        </g>
    </g>
</svg>