<svg xmlns="http://www.w3.org/2000/svg" xmlns:xlink="http://www.w3.org/1999/xlink" width="976" zoomAndPan="magnify" viewBox="0 0 732 675.000002" height="900" preserveAspectRatio="xMidYMid meet" version="1.0"><defs><g/><clipPath id="63105dd98d"><path d="M 217 124 L 514 124 L 514 222 L 217 222 Z M 217 124 " clip-rule="nonzero"/></clipPath><clipPath id="545744e07a"><path d="M 518.277344 133.707031 L 384.570312 304.847656 L 213.429688 171.140625 L 347.140625 0 Z M 518.277344 133.707031 " clip-rule="nonzero"/></clipPath><clipPath id="75b8183e8b"><path d="M 518.277344 133.707031 L 384.570312 304.847656 L 213.429688 171.140625 L 347.140625 0 Z M 518.277344 133.707031 " clip-rule="nonzero"/></clipPath><clipPath id="cff29d0121"><path d="M 260.390625 83.25 L 335.28125 83.25 L 335.28125 323 L 260.390625 323 Z M 260.390625 83.25 " clip-rule="nonzero"/></clipPath><clipPath id="d4e3c3e56d"><path d="M 297.835938 83.25 C 318.515625 83.25 335.28125 100.015625 335.28125 120.695312 L 335.28125 285.449219 C 335.28125 306.128906 318.515625 322.894531 297.835938 322.894531 C 277.15625 322.894531 260.390625 306.128906 260.390625 285.449219 L 260.390625 120.695312 C 260.390625 100.015625 277.15625 83.25 297.835938 83.25 Z M 297.835938 83.25 " clip-rule="nonzero"/></clipPath><clipPath id="9f95bcfd35"><path d="M 0.390625 0.25 L 75.28125 0.25 L 75.28125 240 L 0.390625 240 Z M 0.390625 0.25 " clip-rule="nonzero"/></clipPath><clipPath id="9aaf38b57e"><path d="M 37.835938 0.25 C 58.515625 0.25 75.28125 17.015625 75.28125 37.695312 L 75.28125 202.449219 C 75.28125 223.128906 58.515625 239.894531 37.835938 239.894531 C 17.15625 239.894531 0.390625 223.128906 0.390625 202.449219 L 0.390625 37.695312 C 0.390625 17.015625 17.15625 0.25 37.835938 0.25 Z M 37.835938 0.25 " clip-rule="nonzero"/></clipPath><clipPath id="0c7562f769"><rect x="0" width="76" y="0" height="240"/></clipPath><clipPath id="5abeac9306"><path d="M 290.347656 98.226562 L 335.28125 98.226562 L 335.28125 143.160156 L 290.347656 143.160156 Z M 290.347656 98.226562 " clip-rule="nonzero"/></clipPath><clipPath id="745de05ac6"><path d="M 312.8125 98.226562 C 300.40625 98.226562 290.347656 108.285156 290.347656 120.695312 C 290.347656 133.101562 300.40625 143.160156 312.8125 143.160156 C 325.222656 143.160156 335.28125 133.101562 335.28125 120.695312 C 335.28125 108.285156 325.222656 98.226562 312.8125 98.226562 Z M 312.8125 98.226562 " clip-rule="nonzero"/></clipPath><clipPath id="601cc19d93"><path d="M 0.347656 0.226562 L 45.28125 0.226562 L 45.28125 45.160156 L 0.347656 45.160156 Z M 0.347656 0.226562 " clip-rule="nonzero"/></clipPath><clipPath id="a5829aa51f"><path d="M 22.8125 0.226562 C 10.40625 0.226562 0.347656 10.285156 0.347656 22.695312 C 0.347656 35.101562 10.40625 45.160156 22.8125 45.160156 C 35.222656 45.160156 45.28125 35.101562 45.28125 22.695312 C 45.28125 10.285156 35.222656 0.226562 22.8125 0.226562 Z M 22.8125 0.226562 " clip-rule="nonzero"/></clipPath><clipPath id="ee5e4936cd"><rect x="0" width="46" y="0" height="46"/></clipPath><clipPath id="592f4a139b"><path d="M 385.207031 53.292969 L 460.09375 53.292969 L 460.09375 352.851562 L 385.207031 352.851562 Z M 385.207031 53.292969 " clip-rule="nonzero"/></clipPath><clipPath id="6c95505f34"><path d="M 422.652344 53.292969 C 443.332031 53.292969 460.09375 70.058594 460.09375 90.738281 L 460.09375 315.40625 C 460.09375 336.085938 443.332031 352.851562 422.652344 352.851562 C 401.972656 352.851562 385.207031 336.085938 385.207031 315.40625 L 385.207031 90.738281 C 385.207031 70.058594 401.972656 53.292969 422.652344 53.292969 Z M 422.652344 53.292969 " clip-rule="nonzero"/></clipPath><clipPath id="ee16412997"><path d="M 0.207031 0.292969 L 75.09375 0.292969 L 75.09375 299.851562 L 0.207031 299.851562 Z M 0.207031 0.292969 " clip-rule="nonzero"/></clipPath><clipPath id="8f345b9ee6"><path d="M 37.652344 0.292969 C 58.332031 0.292969 75.09375 17.058594 75.09375 37.738281 L 75.09375 262.40625 C 75.09375 283.085938 58.332031 299.851562 37.652344 299.851562 C 16.972656 299.851562 0.207031 283.085938 0.207031 262.40625 L 0.207031 37.738281 C 0.207031 17.058594 16.972656 0.292969 37.652344 0.292969 Z M 37.652344 0.292969 " clip-rule="nonzero"/></clipPath><clipPath id="d4809bfb7d"><rect x="0" width="76" y="0" height="300"/></clipPath><clipPath id="514dda7a71"><path d="M 385.207031 68.273438 L 430.140625 68.273438 L 430.140625 113.207031 L 385.207031 113.207031 Z M 385.207031 68.273438 " clip-rule="nonzero"/></clipPath><clipPath id="fc45e4caaf"><path d="M 407.671875 68.273438 C 395.265625 68.273438 385.207031 78.332031 385.207031 90.738281 C 385.207031 103.148438 395.265625 113.207031 407.671875 113.207031 C 420.082031 113.207031 430.140625 103.148438 430.140625 90.738281 C 430.140625 78.332031 420.082031 68.273438 407.671875 68.273438 Z M 407.671875 68.273438 " clip-rule="nonzero"/></clipPath><clipPath id="1bbf6cf27b"><path d="M 0.207031 0.273438 L 45.140625 0.273438 L 45.140625 45.207031 L 0.207031 45.207031 Z M 0.207031 0.273438 " clip-rule="nonzero"/></clipPath><clipPath id="70a1fc9976"><path d="M 22.671875 0.273438 C 10.265625 0.273438 0.207031 10.332031 0.207031 22.738281 C 0.207031 35.148438 10.265625 45.207031 22.671875 45.207031 C 35.082031 45.207031 45.140625 35.148438 45.140625 22.738281 C 45.140625 10.332031 35.082031 0.273438 22.671875 0.273438 Z M 22.671875 0.273438 " clip-rule="nonzero"/></clipPath><clipPath id="a4cd0604be"><rect x="0" width="46" y="0" height="46"/></clipPath></defs><g clip-path="url(#63105dd98d)"><g clip-path="url(#545744e07a)"><g clip-path="url(#75b8183e8b)"><path fill="#006636" d="M 220.085938 162.621094 C 223.761719 157.917969 230.558594 157.082031 235.261719 160.757812 C 315.535156 223.46875 431.871094 209.1875 494.582031 128.914062 C 498.257812 124.210938 505.054688 123.378906 509.757812 127.050781 C 514.460938 130.726562 515.296875 137.523438 511.621094 142.226562 C 494.476562 164.175781 473.542969 182.117188 449.386719 195.542969 C 426.054688 208.511719 400.753906 216.734375 374.167969 220 C 347.578125 223.261719 321.023438 221.394531 295.265625 214.46875 C 268.582031 207.285156 243.925781 194.9375 221.980469 177.792969 C 217.25 174.121094 216.414062 167.320312 220.085938 162.621094 Z M 220.085938 162.621094 " fill-opacity="1" fill-rule="nonzero"/></g></g></g><g clip-path="url(#cff29d0121)"><g clip-path="url(#d4e3c3e56d)"><g transform="matrix(1, 0, 0, 1, 260, 83)"><g clip-path="url(#0c7562f769)"><g clip-path="url(#9f95bcfd35)"><g clip-path="url(#9aaf38b57e)"><path fill="#006636" d="M 0.390625 0.25 L 75.28125 0.25 L 75.28125 239.835938 L 0.390625 239.835938 Z M 0.390625 0.25 " fill-opacity="1" fill-rule="nonzero"/></g></g></g></g></g></g><g clip-path="url(#5abeac9306)"><g clip-path="url(#745de05ac6)"><g transform="matrix(1, 0, 0, 1, 290, 98)"><g clip-path="url(#ee5e4936cd)"><g clip-path="url(#601cc19d93)"><g clip-path="url(#a5829aa51f)"><path fill="#ff4500" d="M 0.347656 0.226562 L 45.28125 0.226562 L 45.28125 45.160156 L 0.347656 45.160156 Z M 0.347656 0.226562 " fill-opacity="1" fill-rule="nonzero"/></g></g></g></g><path stroke-linecap="butt" transform="matrix(0.748891, 0, 0, 0.748891, 290.347155, 98.227849)" fill="none" stroke-linejoin="miter" d="M 29.998169 -0.00171741 C 13.431996 -0.00171741 0.000669628 13.429609 0.000669628 30.000998 C 0.000669628 46.56717 13.431996 59.998497 29.998169 59.998497 C 46.569557 59.998497 60.000884 46.56717 60.000884 30.000998 C 60.000884 13.429609 46.569557 -0.00171741 29.998169 -0.00171741 Z M 29.998169 -0.00171741 " stroke="#ffffff" stroke-width="16" stroke-opacity="1" stroke-miterlimit="4"/></g></g><g clip-path="url(#592f4a139b)"><g clip-path="url(#6c95505f34)"><g transform="matrix(1, 0, 0, 1, 385, 53)"><g clip-path="url(#d4809bfb7d)"><g clip-path="url(#ee16412997)"><g clip-path="url(#8f345b9ee6)"><path fill="#006636" d="M 0.207031 0.292969 L 75.09375 0.292969 L 75.09375 299.851562 L 0.207031 299.851562 Z M 0.207031 0.292969 " fill-opacity="1" fill-rule="nonzero"/></g></g></g></g></g></g><g clip-path="url(#514dda7a71)"><g clip-path="url(#fc45e4caaf)"><g transform="matrix(1, 0, 0, 1, 385, 68)"><g clip-path="url(#a4cd0604be)"><g clip-path="url(#1bbf6cf27b)"><g clip-path="url(#70a1fc9976)"><path fill="#ff4500" d="M 0.207031 0.273438 L 45.140625 0.273438 L 45.140625 45.207031 L 0.207031 45.207031 Z M 0.207031 0.273438 " fill-opacity="1" fill-rule="nonzero"/></g></g></g></g><path stroke-linecap="butt" transform="matrix(0.748891, 0, 0, 0.748891, 385.206627, 68.272229)" fill="none" stroke-linejoin="miter" d="M 29.998039 0.00161437 C 13.431866 0.00161437 0.000539341 13.432941 0.000539341 29.999114 C 0.000539341 46.570502 13.431866 60.001829 29.998039 60.001829 C 46.569427 60.001829 60.000754 46.570502 60.000754 29.999114 C 60.000754 13.432941 46.569427 0.00161437 29.998039 0.00161437 Z M 29.998039 0.00161437 " stroke="#ffffff" stroke-width="16" stroke-opacity="1" stroke-miterlimit="4"/></g></g><g fill="#ff4500" fill-opacity="1"><g transform="translate(80.972259, 533.333246)"><g><path d="M 90.921875 -0.59375 C 89.816406 -0.300781 88.09375 -0.00390625 85.75 0.296875 C 83.40625 0.597656 81.082031 0.75 78.78125 0.75 C 76.488281 0.75 74.46875 0.570312 72.71875 0.21875 C 70.96875 -0.121094 69.492188 -0.742188 68.296875 -1.640625 C 67.097656 -2.546875 66.195312 -3.796875 65.59375 -5.390625 C 65 -6.984375 64.703125 -9.082031 64.703125 -11.6875 L 64.703125 -35.046875 L 35.953125 -35.046875 L 35.953125 -0.59375 C 34.847656 -0.300781 33.125 -0.00390625 30.78125 0.296875 C 28.4375 0.597656 26.113281 0.75 23.8125 0.75 C 21.519531 0.75 19.5 0.570312 17.75 0.21875 C 16 -0.121094 14.523438 -0.742188 13.328125 -1.640625 C 12.128906 -2.546875 11.226562 -3.796875 10.625 -5.390625 C 10.03125 -6.984375 9.734375 -9.082031 9.734375 -11.6875 L 9.734375 -90.765625 C 10.835938 -90.960938 12.585938 -91.234375 14.984375 -91.578125 C 17.378906 -91.929688 19.675781 -92.109375 21.875 -92.109375 C 24.164062 -92.109375 26.1875 -91.929688 27.9375 -91.578125 C 29.6875 -91.234375 31.160156 -90.613281 32.359375 -89.71875 C 33.554688 -88.820312 34.453125 -87.570312 35.046875 -85.96875 C 35.648438 -84.375 35.953125 -82.28125 35.953125 -79.6875 L 35.953125 -55.71875 L 64.703125 -55.71875 L 64.703125 -90.765625 C 65.804688 -90.960938 67.554688 -91.234375 69.953125 -91.578125 C 72.347656 -91.929688 74.644531 -92.109375 76.84375 -92.109375 C 79.132812 -92.109375 81.15625 -91.929688 82.90625 -91.578125 C 84.65625 -91.234375 86.128906 -90.613281 87.328125 -89.71875 C 88.523438 -88.820312 89.421875 -87.570312 90.015625 -85.96875 C 90.617188 -84.375 90.921875 -82.28125 90.921875 -79.6875 Z M 90.921875 -0.59375 "/></g></g></g><g fill="#ff4500" fill-opacity="1"><g transform="translate(181.623173, 533.333246)"><g><path d="M 29.0625 -88.078125 C 30.757812 -89.066406 33.328125 -90.007812 36.765625 -90.90625 C 40.210938 -91.8125 43.6875 -92.265625 47.1875 -92.265625 C 52.175781 -92.265625 56.59375 -91.539062 60.4375 -90.09375 C 64.28125 -88.644531 66.75 -86.375 67.84375 -83.28125 C 69.644531 -78.082031 71.59375 -72.035156 73.6875 -65.140625 C 75.789062 -58.253906 77.890625 -51.140625 79.984375 -43.796875 C 82.078125 -36.460938 84.125 -29.226562 86.125 -22.09375 C 88.125 -14.957031 89.867188 -8.640625 91.359375 -3.140625 C 90.160156 -1.742188 88.363281 -0.625 85.96875 0.21875 C 83.570312 1.070312 80.726562 1.5 77.4375 1.5 C 75.039062 1.5 73.019531 1.296875 71.375 0.890625 C 69.726562 0.492188 68.378906 -0.0976562 67.328125 -0.890625 C 66.273438 -1.691406 65.425781 -2.738281 64.78125 -4.03125 C 64.132812 -5.332031 63.5625 -6.832031 63.0625 -8.53125 L 60.359375 -18.875 L 33.25 -18.875 C 32.445312 -15.875 31.644531 -12.773438 30.84375 -9.578125 C 30.050781 -6.390625 29.253906 -3.296875 28.453125 -0.296875 C 27.054688 0.199219 25.582031 0.625 24.03125 0.96875 C 22.488281 1.320312 20.617188 1.5 18.421875 1.5 C 13.328125 1.5 9.554688 0.621094 7.109375 -1.125 C 4.660156 -2.875 3.4375 -5.296875 3.4375 -8.390625 C 3.4375 -9.785156 3.632812 -11.179688 4.03125 -12.578125 C 4.4375 -13.972656 4.890625 -15.625 5.390625 -17.53125 C 6.085938 -20.21875 7.0625 -23.554688 8.3125 -27.546875 C 9.5625 -31.546875 10.929688 -35.867188 12.421875 -40.515625 C 13.921875 -45.160156 15.519531 -49.925781 17.21875 -54.8125 C 18.914062 -59.707031 20.515625 -64.328125 22.015625 -68.671875 C 23.515625 -73.015625 24.890625 -76.882812 26.140625 -80.28125 C 27.390625 -83.675781 28.363281 -86.273438 29.0625 -88.078125 Z M 47.03125 -68.75 C 45.632812 -64.550781 44.0625 -59.878906 42.3125 -54.734375 C 40.5625 -49.597656 38.988281 -44.382812 37.59375 -39.09375 L 56.171875 -39.09375 C 54.773438 -44.488281 53.351562 -49.753906 51.90625 -54.890625 C 50.457031 -60.035156 49.132812 -64.65625 47.9375 -68.75 Z M 47.03125 -68.75 "/></g></g></g><g fill="#ff4500" fill-opacity="1"><g transform="translate(275.534049, 533.333246)"><g><path d="M 5.546875 -69.796875 C 4.847656 -70.898438 4.195312 -72.398438 3.59375 -74.296875 C 3 -76.191406 2.703125 -78.1875 2.703125 -80.28125 C 2.703125 -84.175781 3.570312 -86.972656 5.3125 -88.671875 C 7.0625 -90.367188 9.332031 -91.21875 12.125 -91.21875 L 77.4375 -91.21875 C 78.132812 -90.113281 78.78125 -88.613281 79.375 -86.71875 C 79.976562 -84.820312 80.28125 -82.828125 80.28125 -80.734375 C 80.28125 -76.835938 79.40625 -74.039062 77.65625 -72.34375 C 75.914062 -70.644531 73.644531 -69.796875 70.84375 -69.796875 L 54.21875 -69.796875 L 54.21875 -0.59375 C 53.125 -0.300781 51.398438 -0.00390625 49.046875 0.296875 C 46.703125 0.597656 44.382812 0.75 42.09375 0.75 C 39.789062 0.75 37.765625 0.570312 36.015625 0.21875 C 34.273438 -0.121094 32.804688 -0.742188 31.609375 -1.640625 C 30.410156 -2.546875 29.507812 -3.796875 28.90625 -5.390625 C 28.3125 -6.984375 28.015625 -9.082031 28.015625 -11.6875 L 28.015625 -69.796875 Z M 5.546875 -69.796875 "/></g></g></g><g fill="#ff4500" fill-opacity="1"><g transform="translate(358.810705, 533.333246)"><g><path d="M 90.921875 -0.59375 C 89.816406 -0.300781 88.09375 -0.00390625 85.75 0.296875 C 83.40625 0.597656 81.082031 0.75 78.78125 0.75 C 76.488281 0.75 74.46875 0.570312 72.71875 0.21875 C 70.96875 -0.121094 69.492188 -0.742188 68.296875 -1.640625 C 67.097656 -2.546875 66.195312 -3.796875 65.59375 -5.390625 C 65 -6.984375 64.703125 -9.082031 64.703125 -11.6875 L 64.703125 -35.046875 L 35.953125 -35.046875 L 35.953125 -0.59375 C 34.847656 -0.300781 33.125 -0.00390625 30.78125 0.296875 C 28.4375 0.597656 26.113281 0.75 23.8125 0.75 C 21.519531 0.75 19.5 0.570312 17.75 0.21875 C 16 -0.121094 14.523438 -0.742188 13.328125 -1.640625 C 12.128906 -2.546875 11.226562 -3.796875 10.625 -5.390625 C 10.03125 -6.984375 9.734375 -9.082031 9.734375 -11.6875 L 9.734375 -90.765625 C 10.835938 -90.960938 12.585938 -91.234375 14.984375 -91.578125 C 17.378906 -91.929688 19.675781 -92.109375 21.875 -92.109375 C 24.164062 -92.109375 26.1875 -91.929688 27.9375 -91.578125 C 29.6875 -91.234375 31.160156 -90.613281 32.359375 -89.71875 C 33.554688 -88.820312 34.453125 -87.570312 35.046875 -85.96875 C 35.648438 -84.375 35.953125 -82.28125 35.953125 -79.6875 L 35.953125 -55.71875 L 64.703125 -55.71875 L 64.703125 -90.765625 C 65.804688 -90.960938 67.554688 -91.234375 69.953125 -91.578125 C 72.347656 -91.929688 74.644531 -92.109375 76.84375 -92.109375 C 79.132812 -92.109375 81.15625 -91.929688 82.90625 -91.578125 C 84.65625 -91.234375 86.128906 -90.613281 87.328125 -89.71875 C 88.523438 -88.820312 89.421875 -87.570312 90.015625 -85.96875 C 90.617188 -84.375 90.921875 -82.28125 90.921875 -79.6875 Z M 90.921875 -0.59375 "/></g></g></g><g fill="#ff4500" fill-opacity="1"><g transform="translate(459.46163, 533.333246)"><g><path d="M 57.359375 -0.59375 C 56.265625 -0.300781 54.566406 -0.00390625 52.265625 0.296875 C 49.972656 0.597656 47.726562 0.75 45.53125 0.75 C 40.9375 0.75 37.488281 -0.0195312 35.1875 -1.5625 C 32.894531 -3.113281 31.75 -6.390625 31.75 -11.390625 L 31.75 -31.609375 C 29.257812 -35.296875 26.566406 -39.382812 23.671875 -43.875 C 20.773438 -48.375 17.925781 -52.96875 15.125 -57.65625 C 12.332031 -62.351562 9.738281 -66.972656 7.34375 -71.515625 C 4.945312 -76.054688 3 -80.226562 1.5 -84.03125 C 2.789062 -85.820312 4.5625 -87.46875 6.8125 -88.96875 C 9.0625 -90.46875 11.832031 -91.21875 15.125 -91.21875 C 19.019531 -91.21875 22.191406 -90.414062 24.640625 -88.8125 C 27.085938 -87.21875 29.410156 -84.222656 31.609375 -79.828125 L 44.03125 -54.8125 L 44.9375 -54.8125 C 46.332031 -57.914062 47.550781 -60.738281 48.59375 -63.28125 C 49.644531 -65.832031 50.671875 -68.378906 51.671875 -70.921875 C 52.671875 -73.460938 53.71875 -76.109375 54.8125 -78.859375 C 55.914062 -81.609375 57.164062 -84.78125 58.5625 -88.375 C 60.363281 -89.269531 62.359375 -89.96875 64.546875 -90.46875 C 66.742188 -90.96875 68.84375 -91.21875 70.84375 -91.21875 C 74.34375 -91.21875 77.3125 -90.289062 79.75 -88.4375 C 82.195312 -86.59375 83.421875 -83.828125 83.421875 -80.140625 C 83.421875 -78.929688 83.171875 -77.476562 82.671875 -75.78125 C 82.179688 -74.09375 81.035156 -71.523438 79.234375 -68.078125 C 77.429688 -64.628906 74.804688 -59.957031 71.359375 -54.0625 C 67.921875 -48.175781 63.253906 -40.488281 57.359375 -31 Z M 57.359375 -0.59375 "/></g></g></g><g fill="#ff4500" fill-opacity="1"><g transform="translate(545.434296, 533.333246)"><g><path d="M 5.25 -45.53125 C 5.25 -53.320312 6.46875 -60.210938 8.90625 -66.203125 C 11.351562 -72.191406 14.695312 -77.207031 18.9375 -81.25 C 23.1875 -85.300781 28.179688 -88.375 33.921875 -90.46875 C 39.660156 -92.5625 45.878906 -93.609375 52.578125 -93.609375 C 59.265625 -93.609375 65.476562 -92.5625 71.21875 -90.46875 C 76.957031 -88.375 81.972656 -85.300781 86.265625 -81.25 C 90.566406 -77.207031 93.9375 -72.191406 96.375 -66.203125 C 98.820312 -60.210938 100.046875 -53.320312 100.046875 -45.53125 C 100.046875 -37.738281 98.847656 -30.820312 96.453125 -24.78125 C 94.054688 -18.75 90.738281 -13.707031 86.5 -9.65625 C 82.257812 -5.613281 77.242188 -2.539062 71.453125 -0.4375 C 65.660156 1.652344 59.367188 2.703125 52.578125 2.703125 C 45.785156 2.703125 39.492188 1.628906 33.703125 -0.515625 C 27.910156 -2.671875 22.914062 -5.796875 18.71875 -9.890625 C 14.53125 -13.984375 11.238281 -19.023438 8.84375 -25.015625 C 6.445312 -31.003906 5.25 -37.84375 5.25 -45.53125 Z M 32.203125 -45.53125 C 32.203125 -36.445312 34.046875 -29.65625 37.734375 -25.15625 C 41.429688 -20.664062 46.378906 -18.421875 52.578125 -18.421875 C 58.867188 -18.421875 63.859375 -20.664062 67.546875 -25.15625 C 71.242188 -29.65625 73.09375 -36.445312 73.09375 -45.53125 C 73.09375 -54.519531 71.269531 -61.257812 67.625 -65.75 C 63.976562 -70.25 59.007812 -72.5 52.71875 -72.5 C 46.53125 -72.5 41.5625 -70.273438 37.8125 -65.828125 C 34.070312 -61.378906 32.203125 -54.613281 32.203125 -45.53125 Z M 32.203125 -45.53125 "/></g></g></g><g fill="#006636" fill-opacity="1"><g transform="translate(87.121352, 619.092126)"><g><path d="M 38.90625 0 L 33.84375 0 L 33.84375 -20.484375 L 11 -20.484375 L 11 0 L 5.953125 0 L 5.953125 -43.484375 L 11 -43.484375 L 11 -24.953125 L 33.84375 -24.953125 L 33.84375 -43.484375 L 38.90625 -43.484375 Z M 38.90625 0 "/></g></g></g><g fill="#006636" fill-opacity="1"><g transform="translate(132.027528, 619.092126)"><g><path d="M 17.390625 -33.125 C 21.273438 -33.125 24.160156 -32.25 26.046875 -30.5 C 27.929688 -28.757812 28.875 -25.976562 28.875 -22.15625 L 28.875 0 L 25.28125 0 L 24.328125 -4.8125 L 24.09375 -4.8125 C 23.175781 -3.625 22.222656 -2.628906 21.234375 -1.828125 C 20.242188 -1.023438 19.097656 -0.421875 17.796875 -0.015625 C 16.492188 0.390625 14.90625 0.59375 13.03125 0.59375 C 11.039062 0.59375 9.273438 0.246094 7.734375 -0.4375 C 6.203125 -1.132812 4.992188 -2.1875 4.109375 -3.59375 C 3.234375 -5 2.796875 -6.785156 2.796875 -8.953125 C 2.796875 -12.203125 4.082031 -14.695312 6.65625 -16.4375 C 9.238281 -18.1875 13.164062 -19.140625 18.4375 -19.296875 L 24.0625 -19.53125 L 24.0625 -21.53125 C 24.0625 -24.34375 23.457031 -26.3125 22.25 -27.4375 C 21.039062 -28.570312 19.332031 -29.140625 17.125 -29.140625 C 15.425781 -29.140625 13.800781 -28.890625 12.25 -28.390625 C 10.707031 -27.898438 9.238281 -27.316406 7.84375 -26.640625 L 6.328125 -30.390625 C 7.796875 -31.148438 9.484375 -31.796875 11.390625 -32.328125 C 13.296875 -32.859375 15.296875 -33.125 17.390625 -33.125 Z M 24 -16.0625 L 19.03125 -15.84375 C 14.96875 -15.6875 12.101562 -15.023438 10.4375 -13.859375 C 8.769531 -12.691406 7.9375 -11.035156 7.9375 -8.890625 C 7.9375 -7.023438 8.5 -5.644531 9.625 -4.75 C 10.757812 -3.863281 12.257812 -3.421875 14.125 -3.421875 C 17.019531 -3.421875 19.390625 -4.222656 21.234375 -5.828125 C 23.078125 -7.429688 24 -9.84375 24 -13.0625 Z M 24 -16.0625 "/></g></g></g><g fill="#006636" fill-opacity="1"><g transform="translate(165.870726, 619.092126)"><g><path d="M 20.515625 -33.1875 C 24.578125 -33.1875 27.816406 -31.785156 30.234375 -28.984375 C 32.660156 -26.191406 33.875 -21.992188 33.875 -16.390625 C 33.875 -12.679688 33.316406 -9.566406 32.203125 -7.046875 C 31.097656 -4.523438 29.535156 -2.617188 27.515625 -1.328125 C 25.503906 -0.046875 23.132812 0.59375 20.40625 0.59375 C 18.675781 0.59375 17.15625 0.367188 15.84375 -0.078125 C 14.539062 -0.535156 13.421875 -1.148438 12.484375 -1.921875 C 11.554688 -2.703125 10.785156 -3.546875 10.171875 -4.453125 L 9.8125 -4.453125 C 9.875 -3.679688 9.945312 -2.75 10.03125 -1.65625 C 10.125 -0.570312 10.171875 0.375 10.171875 1.1875 L 10.171875 14.578125 L 5.203125 14.578125 L 5.203125 -32.59375 L 9.28125 -32.59375 L 9.9375 -27.78125 L 10.171875 -27.78125 C 10.804688 -28.769531 11.578125 -29.675781 12.484375 -30.5 C 13.398438 -31.320312 14.515625 -31.972656 15.828125 -32.453125 C 17.148438 -32.941406 18.710938 -33.1875 20.515625 -33.1875 Z M 19.65625 -29.03125 C 17.394531 -29.03125 15.578125 -28.59375 14.203125 -27.71875 C 12.828125 -26.84375 11.820312 -25.535156 11.1875 -23.796875 C 10.550781 -22.066406 10.210938 -19.894531 10.171875 -17.28125 L 10.171875 -16.328125 C 10.171875 -13.566406 10.472656 -11.234375 11.078125 -9.328125 C 11.679688 -7.429688 12.679688 -5.988281 14.078125 -5 C 15.472656 -4.007812 17.351562 -3.515625 19.71875 -3.515625 C 21.738281 -3.515625 23.421875 -4.054688 24.765625 -5.140625 C 26.117188 -6.234375 27.125 -7.753906 27.78125 -9.703125 C 28.445312 -11.660156 28.78125 -13.910156 28.78125 -16.453125 C 28.78125 -20.296875 28.03125 -23.351562 26.53125 -25.625 C 25.039062 -27.894531 22.75 -29.03125 19.65625 -29.03125 Z M 19.65625 -29.03125 "/></g></g></g><g fill="#006636" fill-opacity="1"><g transform="translate(203.133936, 619.092126)"><g><path d="M 20.515625 -33.1875 C 24.578125 -33.1875 27.816406 -31.785156 30.234375 -28.984375 C 32.660156 -26.191406 33.875 -21.992188 33.875 -16.390625 C 33.875 -12.679688 33.316406 -9.566406 32.203125 -7.046875 C 31.097656 -4.523438 29.535156 -2.617188 27.515625 -1.328125 C 25.503906 -0.046875 23.132812 0.59375 20.40625 0.59375 C 18.675781 0.59375 17.15625 0.367188 15.84375 -0.078125 C 14.539062 -0.535156 13.421875 -1.148438 12.484375 -1.921875 C 11.554688 -2.703125 10.785156 -3.546875 10.171875 -4.453125 L 9.8125 -4.453125 C 9.875 -3.679688 9.945312 -2.75 10.03125 -1.65625 C 10.125 -0.570312 10.171875 0.375 10.171875 1.1875 L 10.171875 14.578125 L 5.203125 14.578125 L 5.203125 -32.59375 L 9.28125 -32.59375 L 9.9375 -27.78125 L 10.171875 -27.78125 C 10.804688 -28.769531 11.578125 -29.675781 12.484375 -30.5 C 13.398438 -31.320312 14.515625 -31.972656 15.828125 -32.453125 C 17.148438 -32.941406 18.710938 -33.1875 20.515625 -33.1875 Z M 19.65625 -29.03125 C 17.394531 -29.03125 15.578125 -28.59375 14.203125 -27.71875 C 12.828125 -26.84375 11.820312 -25.535156 11.1875 -23.796875 C 10.550781 -22.066406 10.210938 -19.894531 10.171875 -17.28125 L 10.171875 -16.328125 C 10.171875 -13.566406 10.472656 -11.234375 11.078125 -9.328125 C 11.679688 -7.429688 12.679688 -5.988281 14.078125 -5 C 15.472656 -4.007812 17.351562 -3.515625 19.71875 -3.515625 C 21.738281 -3.515625 23.421875 -4.054688 24.765625 -5.140625 C 26.117188 -6.234375 27.125 -7.753906 27.78125 -9.703125 C 28.445312 -11.660156 28.78125 -13.910156 28.78125 -16.453125 C 28.78125 -20.296875 28.03125 -23.351562 26.53125 -25.625 C 25.039062 -27.894531 22.75 -29.03125 19.65625 -29.03125 Z M 19.65625 -29.03125 "/></g></g></g><g fill="#006636" fill-opacity="1"><g transform="translate(240.397147, 619.092126)"><g><path d="M 0.0625 -32.59375 L 5.359375 -32.59375 L 12.546875 -13.6875 C 12.960938 -12.570312 13.347656 -11.503906 13.703125 -10.484375 C 14.066406 -9.460938 14.382812 -8.484375 14.65625 -7.546875 C 14.9375 -6.617188 15.15625 -5.71875 15.3125 -4.84375 L 15.53125 -4.84375 C 15.800781 -5.832031 16.191406 -7.132812 16.703125 -8.75 C 17.222656 -10.375 17.78125 -12.023438 18.375 -13.703125 L 25.1875 -32.59375 L 30.515625 -32.59375 L 16.328125 4.78125 C 15.578125 6.789062 14.695312 8.535156 13.6875 10.015625 C 12.6875 11.503906 11.472656 12.648438 10.046875 13.453125 C 8.617188 14.253906 6.894531 14.65625 4.875 14.65625 C 3.945312 14.65625 3.125 14.597656 2.40625 14.484375 C 1.695312 14.378906 1.082031 14.257812 0.5625 14.125 L 0.5625 10.171875 C 1 10.265625 1.53125 10.351562 2.15625 10.4375 C 2.78125 10.519531 3.429688 10.5625 4.109375 10.5625 C 5.335938 10.5625 6.398438 10.328125 7.296875 9.859375 C 8.203125 9.390625 8.976562 8.707031 9.625 7.8125 C 10.28125 6.925781 10.847656 5.867188 11.328125 4.640625 L 13.109375 0.0625 Z M 0.0625 -32.59375 "/></g></g></g><g fill="#006636" fill-opacity="1"><g transform="translate(270.909555, 619.092126)"><g/></g></g><g fill="#006636" fill-opacity="1"><g transform="translate(286.730793, 619.092126)"><g><path d="M 38.90625 0 L 33.84375 0 L 33.84375 -20.484375 L 11 -20.484375 L 11 0 L 5.953125 0 L 5.953125 -43.484375 L 11 -43.484375 L 11 -24.953125 L 33.84375 -24.953125 L 33.84375 -43.484375 L 38.90625 -43.484375 Z M 38.90625 0 "/></g></g></g><g fill="#006636" fill-opacity="1"><g transform="translate(331.63698, 619.092126)"><g><path d="M 17.75 -33.1875 C 20.53125 -33.1875 22.910156 -32.570312 24.890625 -31.34375 C 26.867188 -30.113281 28.382812 -28.394531 29.4375 -26.1875 C 30.488281 -23.976562 31.015625 -21.394531 31.015625 -18.4375 L 31.015625 -15.375 L 8.5 -15.375 C 8.5625 -11.550781 9.515625 -8.632812 11.359375 -6.625 C 13.203125 -4.625 15.800781 -3.625 19.15625 -3.625 C 21.21875 -3.625 23.039062 -3.8125 24.625 -4.1875 C 26.207031 -4.570312 27.851562 -5.128906 29.5625 -5.859375 L 29.5625 -1.515625 C 27.914062 -0.785156 26.285156 -0.253906 24.671875 0.078125 C 23.054688 0.421875 21.144531 0.59375 18.9375 0.59375 C 15.8125 0.59375 13.082031 -0.0390625 10.75 -1.3125 C 8.414062 -2.59375 6.601562 -4.472656 5.3125 -6.953125 C 4.03125 -9.429688 3.390625 -12.46875 3.390625 -16.0625 C 3.390625 -19.570312 3.976562 -22.609375 5.15625 -25.171875 C 6.332031 -27.742188 7.992188 -29.722656 10.140625 -31.109375 C 12.296875 -32.492188 14.832031 -33.1875 17.75 -33.1875 Z M 17.6875 -29.140625 C 15.050781 -29.140625 12.953125 -28.273438 11.390625 -26.546875 C 9.828125 -24.828125 8.894531 -22.421875 8.59375 -19.328125 L 25.84375 -19.328125 C 25.820312 -21.273438 25.519531 -22.984375 24.9375 -24.453125 C 24.351562 -25.929688 23.460938 -27.082031 22.265625 -27.90625 C 21.078125 -28.726562 19.550781 -29.140625 17.6875 -29.140625 Z M 17.6875 -29.140625 "/></g></g></g><g fill="#006636" fill-opacity="1"><g transform="translate(365.83706, 619.092126)"><g><path d="M 17.390625 -33.125 C 21.273438 -33.125 24.160156 -32.25 26.046875 -30.5 C 27.929688 -28.757812 28.875 -25.976562 28.875 -22.15625 L 28.875 0 L 25.28125 0 L 24.328125 -4.8125 L 24.09375 -4.8125 C 23.175781 -3.625 22.222656 -2.628906 21.234375 -1.828125 C 20.242188 -1.023438 19.097656 -0.421875 17.796875 -0.015625 C 16.492188 0.390625 14.90625 0.59375 13.03125 0.59375 C 11.039062 0.59375 9.273438 0.246094 7.734375 -0.4375 C 6.203125 -1.132812 4.992188 -2.1875 4.109375 -3.59375 C 3.234375 -5 2.796875 -6.785156 2.796875 -8.953125 C 2.796875 -12.203125 4.082031 -14.695312 6.65625 -16.4375 C 9.238281 -18.1875 13.164062 -19.140625 18.4375 -19.296875 L 24.0625 -19.53125 L 24.0625 -21.53125 C 24.0625 -24.34375 23.457031 -26.3125 22.25 -27.4375 C 21.039062 -28.570312 19.332031 -29.140625 17.125 -29.140625 C 15.425781 -29.140625 13.800781 -28.890625 12.25 -28.390625 C 10.707031 -27.898438 9.238281 -27.316406 7.84375 -26.640625 L 6.328125 -30.390625 C 7.796875 -31.148438 9.484375 -31.796875 11.390625 -32.328125 C 13.296875 -32.859375 15.296875 -33.125 17.390625 -33.125 Z M 24 -16.0625 L 19.03125 -15.84375 C 14.96875 -15.6875 12.101562 -15.023438 10.4375 -13.859375 C 8.769531 -12.691406 7.9375 -11.035156 7.9375 -8.890625 C 7.9375 -7.023438 8.5 -5.644531 9.625 -4.75 C 10.757812 -3.863281 12.257812 -3.421875 14.125 -3.421875 C 17.019531 -3.421875 19.390625 -4.222656 21.234375 -5.828125 C 23.078125 -7.429688 24 -9.84375 24 -13.0625 Z M 24 -16.0625 "/></g></g></g><g fill="#006636" fill-opacity="1"><g transform="translate(399.680247, 619.092126)"><g><path d="M 10.171875 0 L 5.203125 0 L 5.203125 -46.28125 L 10.171875 -46.28125 Z M 10.171875 0 "/></g></g></g><g fill="#006636" fill-opacity="1"><g transform="translate(415.055402, 619.092126)"><g><path d="M 15.734375 -3.453125 C 16.546875 -3.453125 17.378906 -3.519531 18.234375 -3.65625 C 19.085938 -3.789062 19.78125 -3.957031 20.3125 -4.15625 L 20.3125 -0.328125 C 19.738281 -0.0664062 18.941406 0.148438 17.921875 0.328125 C 16.898438 0.503906 15.898438 0.59375 14.921875 0.59375 C 13.203125 0.59375 11.640625 0.289062 10.234375 -0.3125 C 8.828125 -0.914062 7.703125 -1.941406 6.859375 -3.390625 C 6.015625 -4.835938 5.59375 -6.835938 5.59375 -9.390625 L 5.59375 -28.734375 L 0.953125 -28.734375 L 0.953125 -31.140625 L 5.625 -33.0625 L 7.578125 -40.140625 L 10.5625 -40.140625 L 10.5625 -32.59375 L 20.109375 -32.59375 L 20.109375 -28.734375 L 10.5625 -28.734375 L 10.5625 -9.546875 C 10.5625 -7.503906 11.03125 -5.976562 11.96875 -4.96875 C 12.90625 -3.957031 14.160156 -3.453125 15.734375 -3.453125 Z M 15.734375 -3.453125 "/></g></g></g><g fill="#006636" fill-opacity="1"><g transform="translate(436.765022, 619.092126)"><g><path d="M 10.140625 -46.28125 L 10.140625 -32.453125 C 10.140625 -31.648438 10.117188 -30.847656 10.078125 -30.046875 C 10.035156 -29.242188 9.96875 -28.507812 9.875 -27.84375 L 10.203125 -27.84375 C 10.878906 -28.988281 11.734375 -29.953125 12.765625 -30.734375 C 13.804688 -31.515625 14.988281 -32.109375 16.3125 -32.515625 C 17.644531 -32.921875 19.054688 -33.125 20.546875 -33.125 C 23.160156 -33.125 25.34375 -32.707031 27.09375 -31.875 C 28.851562 -31.039062 30.175781 -29.75 31.0625 -28 C 31.945312 -26.257812 32.390625 -24.003906 32.390625 -21.234375 L 32.390625 0 L 27.515625 0 L 27.515625 -20.90625 C 27.515625 -23.625 26.894531 -25.65625 25.65625 -27 C 24.414062 -28.351562 22.515625 -29.03125 19.953125 -29.03125 C 17.535156 -29.03125 15.609375 -28.566406 14.171875 -27.640625 C 12.734375 -26.722656 11.703125 -25.367188 11.078125 -23.578125 C 10.453125 -21.796875 10.140625 -19.617188 10.140625 -17.046875 L 10.140625 0 L 5.203125 0 L 5.203125 -46.28125 Z M 10.140625 -46.28125 "/></g></g></g><g fill="#006636" fill-opacity="1"><g transform="translate(474.117467, 619.092126)"><g><path d="M 0.0625 -32.59375 L 5.359375 -32.59375 L 12.546875 -13.6875 C 12.960938 -12.570312 13.347656 -11.503906 13.703125 -10.484375 C 14.066406 -9.460938 14.382812 -8.484375 14.65625 -7.546875 C 14.9375 -6.617188 15.15625 -5.71875 15.3125 -4.84375 L 15.53125 -4.84375 C 15.800781 -5.832031 16.191406 -7.132812 16.703125 -8.75 C 17.222656 -10.375 17.78125 -12.023438 18.375 -13.703125 L 25.1875 -32.59375 L 30.515625 -32.59375 L 16.328125 4.78125 C 15.578125 6.789062 14.695312 8.535156 13.6875 10.015625 C 12.6875 11.503906 11.472656 12.648438 10.046875 13.453125 C 8.617188 14.253906 6.894531 14.65625 4.875 14.65625 C 3.945312 14.65625 3.125 14.597656 2.40625 14.484375 C 1.695312 14.378906 1.082031 14.257812 0.5625 14.125 L 0.5625 10.171875 C 1 10.265625 1.53125 10.351562 2.15625 10.4375 C 2.78125 10.519531 3.429688 10.5625 4.109375 10.5625 C 5.335938 10.5625 6.398438 10.328125 7.296875 9.859375 C 8.203125 9.390625 8.976562 8.707031 9.625 7.8125 C 10.28125 6.925781 10.847656 5.867188 11.328125 4.640625 L 13.109375 0.0625 Z M 0.0625 -32.59375 "/></g></g></g><g fill="#006636" fill-opacity="1"><g transform="translate(504.629864, 619.092126)"><g/></g></g><g fill="#006636" fill-opacity="1"><g transform="translate(520.451091, 619.092126)"><g><path d="M 17.046875 -21.6875 L 28.609375 -43.484375 L 34.046875 -43.484375 L 19.5625 -16.859375 L 19.5625 0 L 14.515625 0 L 14.515625 -16.625 L 0 -43.484375 L 5.53125 -43.484375 Z M 17.046875 -21.6875 "/></g></g></g><g fill="#006636" fill-opacity="1"><g transform="translate(554.50248, 619.092126)"><g><path d="M 33.3125 -16.359375 C 33.3125 -13.679688 32.960938 -11.289062 32.265625 -9.1875 C 31.566406 -7.082031 30.5625 -5.304688 29.25 -3.859375 C 27.945312 -2.410156 26.367188 -1.304688 24.515625 -0.546875 C 22.660156 0.210938 20.566406 0.59375 18.234375 0.59375 C 16.046875 0.59375 14.046875 0.210938 12.234375 -0.546875 C 10.421875 -1.304688 8.851562 -2.410156 7.53125 -3.859375 C 6.21875 -5.304688 5.195312 -7.082031 4.46875 -9.1875 C 3.75 -11.289062 3.390625 -13.679688 3.390625 -16.359375 C 3.390625 -19.921875 3.992188 -22.957031 5.203125 -25.46875 C 6.410156 -27.976562 8.140625 -29.890625 10.390625 -31.203125 C 12.640625 -32.523438 15.320312 -33.1875 18.4375 -33.1875 C 21.414062 -33.1875 24.019531 -32.519531 26.25 -31.1875 C 28.476562 -29.863281 30.210938 -27.945312 31.453125 -25.4375 C 32.691406 -22.9375 33.3125 -19.910156 33.3125 -16.359375 Z M 8.5 -16.359375 C 8.5 -13.742188 8.847656 -11.472656 9.546875 -9.546875 C 10.242188 -7.617188 11.3125 -6.128906 12.75 -5.078125 C 14.195312 -4.035156 16.0625 -3.515625 18.34375 -3.515625 C 20.601562 -3.515625 22.460938 -4.035156 23.921875 -5.078125 C 25.378906 -6.128906 26.453125 -7.617188 27.140625 -9.546875 C 27.835938 -11.472656 28.1875 -13.742188 28.1875 -16.359375 C 28.1875 -18.953125 27.835938 -21.195312 27.140625 -23.09375 C 26.453125 -24.988281 25.382812 -26.453125 23.9375 -27.484375 C 22.488281 -28.515625 20.613281 -29.03125 18.3125 -29.03125 C 14.925781 -29.03125 12.441406 -27.90625 10.859375 -25.65625 C 9.285156 -23.414062 8.5 -20.316406 8.5 -16.359375 Z M 8.5 -16.359375 "/></g></g></g><g fill="#006636" fill-opacity="1"><g transform="translate(591.141162, 619.092126)"><g><path d="M 32.125 -32.59375 L 32.125 0 L 28.078125 0 L 27.359375 -4.578125 L 27.09375 -4.578125 C 26.414062 -3.453125 25.539062 -2.5 24.46875 -1.71875 C 23.40625 -0.945312 22.203125 -0.367188 20.859375 0.015625 C 19.523438 0.398438 18.101562 0.59375 16.59375 0.59375 C 14.019531 0.59375 11.859375 0.175781 10.109375 -0.65625 C 8.367188 -1.488281 7.054688 -2.773438 6.171875 -4.515625 C 5.285156 -6.265625 4.84375 -8.503906 4.84375 -11.234375 L 4.84375 -32.59375 L 9.84375 -32.59375 L 9.84375 -11.59375 C 9.84375 -8.882812 10.457031 -6.859375 11.6875 -5.515625 C 12.914062 -4.179688 14.789062 -3.515625 17.3125 -3.515625 C 19.726562 -3.515625 21.65625 -3.96875 23.09375 -4.875 C 24.53125 -5.789062 25.566406 -7.132812 26.203125 -8.90625 C 26.835938 -10.675781 27.15625 -12.851562 27.15625 -15.4375 L 27.15625 -32.59375 Z M 32.125 -32.59375 "/></g></g></g><g fill="#006636" fill-opacity="1"><g transform="translate(628.493584, 619.092126)"><g><path d="M 9.671875 -12.078125 L 6.421875 -12.078125 L 5.0625 -43.484375 L 11.03125 -43.484375 Z M 4.453125 -3.09375 C 4.453125 -4.476562 4.789062 -5.460938 5.46875 -6.046875 C 6.144531 -6.628906 6.988281 -6.921875 8 -6.921875 C 8.988281 -6.921875 9.820312 -6.628906 10.5 -6.046875 C 11.1875 -5.460938 11.53125 -4.476562 11.53125 -3.09375 C 11.53125 -1.726562 11.1875 -0.734375 10.5 -0.109375 C 9.820312 0.515625 8.988281 0.828125 8 0.828125 C 6.988281 0.828125 6.144531 0.515625 5.46875 -0.109375 C 4.789062 -0.734375 4.453125 -1.726562 4.453125 -3.09375 Z M 4.453125 -3.09375 "/></g></g></g></svg>