<svg xmlns="http://www.w3.org/2000/svg" xmlns:xlink="http://www.w3.org/1999/xlink" width="976" zoomAndPan="magnify" viewBox="0 0 732 675.000002" height="900" preserveAspectRatio="xMidYMid meet" version="1.0"><defs><g/><clipPath id="6374a7307b"><path d="M 0.542969 0 L 731.457031 0 L 731.457031 674 L 0.542969 674 Z M 0.542969 0 " clip-rule="nonzero"/></clipPath><clipPath id="a4360042eb"><path d="M 217 124 L 514 124 L 514 222 L 217 222 Z M 217 124 " clip-rule="nonzero"/></clipPath><clipPath id="09ce8d1600"><path d="M 518.277344 133.707031 L 384.570312 304.847656 L 213.429688 171.140625 L 347.140625 0 Z M 518.277344 133.707031 " clip-rule="nonzero"/></clipPath><clipPath id="f6336d2d36"><path d="M 518.277344 133.707031 L 384.570312 304.847656 L 213.429688 171.140625 L 347.140625 0 Z M 518.277344 133.707031 " clip-rule="nonzero"/></clipPath><clipPath id="ea8ab49e50"><path d="M 260.390625 83.25 L 335.28125 83.25 L 335.28125 323 L 260.390625 323 Z M 260.390625 83.25 " clip-rule="nonzero"/></clipPath><clipPath id="8fb5d0efb6"><path d="M 297.835938 83.25 C 318.515625 83.25 335.28125 100.015625 335.28125 120.695312 L 335.28125 285.449219 C 335.28125 306.128906 318.515625 322.894531 297.835938 322.894531 C 277.15625 322.894531 260.390625 306.128906 260.390625 285.449219 L 260.390625 120.695312 C 260.390625 100.015625 277.15625 83.25 297.835938 83.25 Z M 297.835938 83.25 " clip-rule="nonzero"/></clipPath><clipPath id="1142ea6f1c"><path d="M 0.390625 0.25 L 75.28125 0.25 L 75.28125 240 L 0.390625 240 Z M 0.390625 0.25 " clip-rule="nonzero"/></clipPath><clipPath id="bb1f8b1864"><path d="M 37.835938 0.25 C 58.515625 0.25 75.28125 17.015625 75.28125 37.695312 L 75.28125 202.449219 C 75.28125 223.128906 58.515625 239.894531 37.835938 239.894531 C 17.15625 239.894531 0.390625 223.128906 0.390625 202.449219 L 0.390625 37.695312 C 0.390625 17.015625 17.15625 0.25 37.835938 0.25 Z M 37.835938 0.25 " clip-rule="nonzero"/></clipPath><clipPath id="fedc1cba63"><rect x="0" width="76" y="0" height="240"/></clipPath><clipPath id="fad6641a3d"><path d="M 290.347656 98.226562 L 335.28125 98.226562 L 335.28125 143.160156 L 290.347656 143.160156 Z M 290.347656 98.226562 " clip-rule="nonzero"/></clipPath><clipPath id="1ef1284ffb"><path d="M 312.8125 98.226562 C 300.40625 98.226562 290.347656 108.285156 290.347656 120.695312 C 290.347656 133.101562 300.40625 143.160156 312.8125 143.160156 C 325.222656 143.160156 335.28125 133.101562 335.28125 120.695312 C 335.28125 108.285156 325.222656 98.226562 312.8125 98.226562 Z M 312.8125 98.226562 " clip-rule="nonzero"/></clipPath><clipPath id="20657cd0a9"><path d="M 0.347656 0.226562 L 45.28125 0.226562 L 45.28125 45.160156 L 0.347656 45.160156 Z M 0.347656 0.226562 " clip-rule="nonzero"/></clipPath><clipPath id="e74be3ee4b"><path d="M 22.8125 0.226562 C 10.40625 0.226562 0.347656 10.285156 0.347656 22.695312 C 0.347656 35.101562 10.40625 45.160156 22.8125 45.160156 C 35.222656 45.160156 45.28125 35.101562 45.28125 22.695312 C 45.28125 10.285156 35.222656 0.226562 22.8125 0.226562 Z M 22.8125 0.226562 " clip-rule="nonzero"/></clipPath><clipPath id="65acc0511b"><rect x="0" width="46" y="0" height="46"/></clipPath><clipPath id="9d02e6e99e"><path d="M 385.207031 53.292969 L 460.09375 53.292969 L 460.09375 352.851562 L 385.207031 352.851562 Z M 385.207031 53.292969 " clip-rule="nonzero"/></clipPath><clipPath id="5480fdd1cb"><path d="M 422.652344 53.292969 C 443.332031 53.292969 460.09375 70.058594 460.09375 90.738281 L 460.09375 315.40625 C 460.09375 336.085938 443.332031 352.851562 422.652344 352.851562 C 401.972656 352.851562 385.207031 336.085938 385.207031 315.40625 L 385.207031 90.738281 C 385.207031 70.058594 401.972656 53.292969 422.652344 53.292969 Z M 422.652344 53.292969 " clip-rule="nonzero"/></clipPath><clipPath id="c2e2b42482"><path d="M 0.207031 0.292969 L 75.09375 0.292969 L 75.09375 299.851562 L 0.207031 299.851562 Z M 0.207031 0.292969 " clip-rule="nonzero"/></clipPath><clipPath id="4800f9c9a7"><path d="M 37.652344 0.292969 C 58.332031 0.292969 75.09375 17.058594 75.09375 37.738281 L 75.09375 262.40625 C 75.09375 283.085938 58.332031 299.851562 37.652344 299.851562 C 16.972656 299.851562 0.207031 283.085938 0.207031 262.40625 L 0.207031 37.738281 C 0.207031 17.058594 16.972656 0.292969 37.652344 0.292969 Z M 37.652344 0.292969 " clip-rule="nonzero"/></clipPath><clipPath id="9cf0b58d9e"><rect x="0" width="76" y="0" height="300"/></clipPath><clipPath id="f20cfbd4f1"><path d="M 385.207031 68.273438 L 430.140625 68.273438 L 430.140625 113.207031 L 385.207031 113.207031 Z M 385.207031 68.273438 " clip-rule="nonzero"/></clipPath><clipPath id="048ca25ad9"><path d="M 407.671875 68.273438 C 395.265625 68.273438 385.207031 78.332031 385.207031 90.738281 C 385.207031 103.148438 395.265625 113.207031 407.671875 113.207031 C 420.082031 113.207031 430.140625 103.148438 430.140625 90.738281 C 430.140625 78.332031 420.082031 68.273438 407.671875 68.273438 Z M 407.671875 68.273438 " clip-rule="nonzero"/></clipPath><clipPath id="ae3585e1ad"><path d="M 0.207031 0.273438 L 45.140625 0.273438 L 45.140625 45.207031 L 0.207031 45.207031 Z M 0.207031 0.273438 " clip-rule="nonzero"/></clipPath><clipPath id="9299e6eb94"><path d="M 22.671875 0.273438 C 10.265625 0.273438 0.207031 10.332031 0.207031 22.738281 C 0.207031 35.148438 10.265625 45.207031 22.671875 45.207031 C 35.082031 45.207031 45.140625 35.148438 45.140625 22.738281 C 45.140625 10.332031 35.082031 0.273438 22.671875 0.273438 Z M 22.671875 0.273438 " clip-rule="nonzero"/></clipPath><clipPath id="dcd9753b21"><rect x="0" width="46" y="0" height="46"/></clipPath></defs><g clip-path="url(#6374a7307b)"><path fill="#ffffff" d="M 0.542969 0 L 731.457031 0 L 731.457031 674 L 0.542969 674 Z M 0.542969 0 " fill-opacity="1" fill-rule="nonzero"/></g><g clip-path="url(#a4360042eb)"><g clip-path="url(#09ce8d1600)"><g clip-path="url(#f6336d2d36)"><path fill="#006636" d="M 220.085938 162.621094 C 223.761719 157.917969 230.558594 157.082031 235.261719 160.757812 C 315.535156 223.46875 431.871094 209.1875 494.582031 128.914062 C 498.257812 124.210938 505.054688 123.378906 509.757812 127.050781 C 514.460938 130.726562 515.296875 137.523438 511.621094 142.226562 C 494.476562 164.175781 473.542969 182.117188 449.386719 195.542969 C 426.054688 208.511719 400.753906 216.734375 374.167969 220 C 347.578125 223.261719 321.023438 221.394531 295.265625 214.46875 C 268.582031 207.285156 243.925781 194.9375 221.980469 177.792969 C 217.25 174.121094 216.414062 167.320312 220.085938 162.621094 Z M 220.085938 162.621094 " fill-opacity="1" fill-rule="nonzero"/></g></g></g><g clip-path="url(#ea8ab49e50)"><g clip-path="url(#8fb5d0efb6)"><g transform="matrix(1, 0, 0, 1, 260, 83)"><g clip-path="url(#fedc1cba63)"><g clip-path="url(#1142ea6f1c)"><g clip-path="url(#bb1f8b1864)"><path fill="#006636" d="M 0.390625 0.25 L 75.28125 0.25 L 75.28125 239.835938 L 0.390625 239.835938 Z M 0.390625 0.25 " fill-opacity="1" fill-rule="nonzero"/></g></g></g></g></g></g><g clip-path="url(#fad6641a3d)"><g clip-path="url(#1ef1284ffb)"><g transform="matrix(1, 0, 0, 1, 290, 98)"><g clip-path="url(#65acc0511b)"><g clip-path="url(#20657cd0a9)"><g clip-path="url(#e74be3ee4b)"><path fill="#ff4500" d="M 0.347656 0.226562 L 45.28125 0.226562 L 45.28125 45.160156 L 0.347656 45.160156 Z M 0.347656 0.226562 " fill-opacity="1" fill-rule="nonzero"/></g></g></g></g><path stroke-linecap="butt" transform="matrix(0.748891, 0, 0, 0.748891, 290.347155, 98.227849)" fill="none" stroke-linejoin="miter" d="M 29.998169 -0.00171741 C 13.431996 -0.00171741 0.000669628 13.429609 0.000669628 30.000998 C 0.000669628 46.56717 13.431996 59.998497 29.998169 59.998497 C 46.569557 59.998497 60.000884 46.56717 60.000884 30.000998 C 60.000884 13.429609 46.569557 -0.00171741 29.998169 -0.00171741 Z M 29.998169 -0.00171741 " stroke="#ffffff" stroke-width="16" stroke-opacity="1" stroke-miterlimit="4"/></g></g><g clip-path="url(#9d02e6e99e)"><g clip-path="url(#5480fdd1cb)"><g transform="matrix(1, 0, 0, 1, 385, 53)"><g clip-path="url(#9cf0b58d9e)"><g clip-path="url(#c2e2b42482)"><g clip-path="url(#4800f9c9a7)"><path fill="#006636" d="M 0.207031 0.292969 L 75.09375 0.292969 L 75.09375 299.851562 L 0.207031 299.851562 Z M 0.207031 0.292969 " fill-opacity="1" fill-rule="nonzero"/></g></g></g></g></g></g><g clip-path="url(#f20cfbd4f1)"><g clip-path="url(#048ca25ad9)"><g transform="matrix(1, 0, 0, 1, 385, 68)"><g clip-path="url(#dcd9753b21)"><g clip-path="url(#ae3585e1ad)"><g clip-path="url(#9299e6eb94)"><path fill="#ff4500" d="M 0.207031 0.273438 L 45.140625 0.273438 L 45.140625 45.207031 L 0.207031 45.207031 Z M 0.207031 0.273438 " fill-opacity="1" fill-rule="nonzero"/></g></g></g></g><path stroke-linecap="butt" transform="matrix(0.748891, 0, 0, 0.748891, 385.206627, 68.272229)" fill="none" stroke-linejoin="miter" d="M 29.998039 0.00161437 C 13.431866 0.00161437 0.000539341 13.432941 0.000539341 29.999114 C 0.000539341 46.570502 13.431866 60.001829 29.998039 60.001829 C 46.569427 60.001829 60.000754 46.570502 60.000754 29.999114 C 60.000754 13.432941 46.569427 0.00161437 29.998039 0.00161437 Z M 29.998039 0.00161437 " stroke="#ffffff" stroke-width="16" stroke-opacity="1" stroke-miterlimit="4"/></g></g><g fill="#ff4500" fill-opacity="1"><g transform="translate(80.972259, 533.333246)"><g><path d="M 90.921875 -0.59375 C 89.816406 -0.300781 88.09375 -0.00390625 85.75 0.296875 C 83.40625 0.597656 81.082031 0.75 78.78125 0.75 C 76.488281 0.75 74.46875 0.570312 72.71875 0.21875 C 70.96875 -0.121094 69.492188 -0.742188 68.296875 -1.640625 C 67.097656 -2.546875 66.195312 -3.796875 65.59375 -5.390625 C 65 -6.984375 64.703125 -9.082031 64.703125 -11.6875 L 64.703125 -35.046875 L 35.953125 -35.046875 L 35.953125 -0.59375 C 34.847656 -0.300781 33.125 -0.00390625 30.78125 0.296875 C 28.4375 0.597656 26.113281 0.75 23.8125 0.75 C 21.519531 0.75 19.5 0.570312 17.75 0.21875 C 16 -0.121094 14.523438 -0.742188 13.328125 -1.640625 C 12.128906 -2.546875 11.226562 -3.796875 10.625 -5.390625 C 10.03125 -6.984375 9.734375 -9.082031 9.734375 -11.6875 L 9.734375 -90.765625 C 10.835938 -90.960938 12.585938 -91.234375 14.984375 -91.578125 C 17.378906 -91.929688 19.675781 -92.109375 21.875 -92.109375 C 24.164062 -92.109375 26.1875 -91.929688 27.9375 -91.578125 C 29.6875 -91.234375 31.160156 -90.613281 32.359375 -89.71875 C 33.554688 -88.820312 34.453125 -87.570312 35.046875 -85.96875 C 35.648438 -84.375 35.953125 -82.28125 35.953125 -79.6875 L 35.953125 -55.71875 L 64.703125 -55.71875 L 64.703125 -90.765625 C 65.804688 -90.960938 67.554688 -91.234375 69.953125 -91.578125 C 72.347656 -91.929688 74.644531 -92.109375 76.84375 -92.109375 C 79.132812 -92.109375 81.15625 -91.929688 82.90625 -91.578125 C 84.65625 -91.234375 86.128906 -90.613281 87.328125 -89.71875 C 88.523438 -88.820312 89.421875 -87.570312 90.015625 -85.96875 C 90.617188 -84.375 90.921875 -82.28125 90.921875 -79.6875 Z M 90.921875 -0.59375 "/></g></g></g><g fill="#ff4500" fill-opacity="1"><g transform="translate(181.623173, 533.333246)"><g><path d="M 29.0625 -88.078125 C 30.757812 -89.066406 33.328125 -90.007812 36.765625 -90.90625 C 40.210938 -91.8125 43.6875 -92.265625 47.1875 -92.265625 C 52.175781 -92.265625 56.59375 -91.539062 60.4375 -90.09375 C 64.28125 -88.644531 66.75 -86.375 67.84375 -83.28125 C 69.644531 -78.082031 71.59375 -72.035156 73.6875 -65.140625 C 75.789062 -58.253906 77.890625 -51.140625 79.984375 -43.796875 C 82.078125 -36.460938 84.125 -29.226562 86.125 -22.09375 C 88.125 -14.957031 89.867188 -8.640625 91.359375 -3.140625 C 90.160156 -1.742188 88.363281 -0.625 85.96875 0.21875 C 83.570312 1.070312 80.726562 1.5 77.4375 1.5 C 75.039062 1.5 73.019531 1.296875 71.375 0.890625 C 69.726562 0.492188 68.378906 -0.0976562 67.328125 -0.890625 C 66.273438 -1.691406 65.425781 -2.738281 64.78125 -4.03125 C 64.132812 -5.332031 63.5625 -6.832031 63.0625 -8.53125 L 60.359375 -18.875 L 33.25 -18.875 C 32.445312 -15.875 31.644531 -12.773438 30.84375 -9.578125 C 30.050781 -6.390625 29.253906 -3.296875 28.453125 -0.296875 C 27.054688 0.199219 25.582031 0.625 24.03125 0.96875 C 22.488281 1.320312 20.617188 1.5 18.421875 1.5 C 13.328125 1.5 9.554688 0.621094 7.109375 -1.125 C 4.660156 -2.875 3.4375 -5.296875 3.4375 -8.390625 C 3.4375 -9.785156 3.632812 -11.179688 4.03125 -12.578125 C 4.4375 -13.972656 4.890625 -15.625 5.390625 -17.53125 C 6.085938 -20.21875 7.0625 -23.554688 8.3125 -27.546875 C 9.5625 -31.546875 10.929688 -35.867188 12.421875 -40.515625 C 13.921875 -45.160156 15.519531 -49.925781 17.21875 -54.8125 C 18.914062 -59.707031 20.515625 -64.328125 22.015625 -68.671875 C 23.515625 -73.015625 24.890625 -76.882812 26.140625 -80.28125 C 27.390625 -83.675781 28.363281 -86.273438 29.0625 -88.078125 Z M 47.03125 -68.75 C 45.632812 -64.550781 44.0625 -59.878906 42.3125 -54.734375 C 40.5625 -49.597656 38.988281 -44.382812 37.59375 -39.09375 L 56.171875 -39.09375 C 54.773438 -44.488281 53.351562 -49.753906 51.90625 -54.890625 C 50.457031 -60.035156 49.132812 -64.65625 47.9375 -68.75 Z M 47.03125 -68.75 "/></g></g></g><g fill="#ff4500" fill-opacity="1"><g transform="translate(275.534049, 533.333246)"><g><path d="M 5.546875 -69.796875 C 4.847656 -70.898438 4.195312 -72.398438 3.59375 -74.296875 C 3 -76.191406 2.703125 -78.1875 2.703125 -80.28125 C 2.703125 -84.175781 3.570312 -86.972656 5.3125 -88.671875 C 7.0625 -90.367188 9.332031 -91.21875 12.125 -91.21875 L 77.4375 -91.21875 C 78.132812 -90.113281 78.78125 -88.613281 79.375 -86.71875 C 79.976562 -84.820312 80.28125 -82.828125 80.28125 -80.734375 C 80.28125 -76.835938 79.40625 -74.039062 77.65625 -72.34375 C 75.914062 -70.644531 73.644531 -69.796875 70.84375 -69.796875 L 54.21875 -69.796875 L 54.21875 -0.59375 C 53.125 -0.300781 51.398438 -0.00390625 49.046875 0.296875 C 46.703125 0.597656 44.382812 0.75 42.09375 0.75 C 39.789062 0.75 37.765625 0.570312 36.015625 0.21875 C 34.273438 -0.121094 32.804688 -0.742188 31.609375 -1.640625 C 30.410156 -2.546875 29.507812 -3.796875 28.90625 -5.390625 C 28.3125 -6.984375 28.015625 -9.082031 28.015625 -11.6875 L 28.015625 -69.796875 Z M 5.546875 -69.796875 "/></g></g></g><g fill="#ff4500" fill-opacity="1"><g transform="translate(358.810705, 533.333246)"><g><path d="M 90.921875 -0.59375 C 89.816406 -0.300781 88.09375 -0.00390625 85.75 0.296875 C 83.40625 0.597656 81.082031 0.75 78.78125 0.75 C 76.488281 0.75 74.46875 0.570312 72.71875 0.21875 C 70.96875 -0.121094 69.492188 -0.742188 68.296875 -1.640625 C 67.097656 -2.546875 66.195312 -3.796875 65.59375 -5.390625 C 65 -6.984375 64.703125 -9.082031 64.703125 -11.6875 L 64.703125 -35.046875 L 35.953125 -35.046875 L 35.953125 -0.59375 C 34.847656 -0.300781 33.125 -0.00390625 30.78125 0.296875 C 28.4375 0.597656 26.113281 0.75 23.8125 0.75 C 21.519531 0.75 19.5 0.570312 17.75 0.21875 C 16 -0.121094 14.523438 -0.742188 13.328125 -1.640625 C 12.128906 -2.546875 11.226562 -3.796875 10.625 -5.390625 C 10.03125 -6.984375 9.734375 -9.082031 9.734375 -11.6875 L 9.734375 -90.765625 C 10.835938 -90.960938 12.585938 -91.234375 14.984375 -91.578125 C 17.378906 -91.929688 19.675781 -92.109375 21.875 -92.109375 C 24.164062 -92.109375 26.1875 -91.929688 27.9375 -91.578125 C 29.6875 -91.234375 31.160156 -90.613281 32.359375 -89.71875 C 33.554688 -88.820312 34.453125 -87.570312 35.046875 -85.96875 C 35.648438 -84.375 35.953125 -82.28125 35.953125 -79.6875 L 35.953125 -55.71875 L 64.703125 -55.71875 L 64.703125 -90.765625 C 65.804688 -90.960938 67.554688 -91.234375 69.953125 -91.578125 C 72.347656 -91.929688 74.644531 -92.109375 76.84375 -92.109375 C 79.132812 -92.109375 81.15625 -91.929688 82.90625 -91.578125 C 84.65625 -91.234375 86.128906 -90.613281 87.328125 -89.71875 C 88.523438 -88.820312 89.421875 -87.570312 90.015625 -85.96875 C 90.617188 -84.375 90.921875 -82.28125 90.921875 -79.6875 Z M 90.921875 -0.59375 "/></g></g></g><g fill="#ff4500" fill-opacity="1"><g transform="translate(459.46163, 533.333246)"><g><path d="M 57.359375 -0.59375 C 56.265625 -0.300781 54.566406 -0.00390625 52.265625 0.296875 C 49.972656 0.597656 47.726562 0.75 45.53125 0.75 C 40.9375 0.75 37.488281 -0.0195312 35.1875 -1.5625 C 32.894531 -3.113281 31.75 -6.390625 31.75 -11.390625 L 31.75 -31.609375 C 29.257812 -35.296875 26.566406 -39.382812 23.671875 -43.875 C 20.773438 -48.375 17.925781 -52.96875 15.125 -57.65625 C 12.332031 -62.351562 9.738281 -66.972656 7.34375 -71.515625 C 4.945312 -76.054688 3 -80.226562 1.5 -84.03125 C 2.789062 -85.820312 4.5625 -87.46875 6.8125 -88.96875 C 9.0625 -90.46875 11.832031 -91.21875 15.125 -91.21875 C 19.019531 -91.21875 22.191406 -90.414062 24.640625 -88.8125 C 27.085938 -87.21875 29.410156 -84.222656 31.609375 -79.828125 L 44.03125 -54.8125 L 44.9375 -54.8125 C 46.332031 -57.914062 47.550781 -60.738281 48.59375 -63.28125 C 49.644531 -65.832031 50.671875 -68.378906 51.671875 -70.921875 C 52.671875 -73.460938 53.71875 -76.109375 54.8125 -78.859375 C 55.914062 -81.609375 57.164062 -84.78125 58.5625 -88.375 C 60.363281 -89.269531 62.359375 -89.96875 64.546875 -90.46875 C 66.742188 -90.96875 68.84375 -91.21875 70.84375 -91.21875 C 74.34375 -91.21875 77.3125 -90.289062 79.75 -88.4375 C 82.195312 -86.59375 83.421875 -83.828125 83.421875 -80.140625 C 83.421875 -78.929688 83.171875 -77.476562 82.671875 -75.78125 C 82.179688 -74.09375 81.035156 -71.523438 79.234375 -68.078125 C 77.429688 -64.628906 74.804688 -59.957031 71.359375 -54.0625 C 67.921875 -48.175781 63.253906 -40.488281 57.359375 -31 Z M 57.359375 -0.59375 "/></g></g></g><g fill="#ff4500" fill-opacity="1"><g transform="translate(545.434296, 533.333246)"><g><path d="M 5.25 -45.53125 C 5.25 -53.320312 6.46875 -60.210938 8.90625 -66.203125 C 11.351562 -72.191406 14.695312 -77.207031 18.9375 -81.25 C 23.1875 -85.300781 28.179688 -88.375 33.921875 -90.46875 C 39.660156 -92.5625 45.878906 -93.609375 52.578125 -93.609375 C 59.265625 -93.609375 65.476562 -92.5625 71.21875 -90.46875 C 76.957031 -88.375 81.972656 -85.300781 86.265625 -81.25 C 90.566406 -77.207031 93.9375 -72.191406 96.375 -66.203125 C 98.820312 -60.210938 100.046875 -53.320312 100.046875 -45.53125 C 100.046875 -37.738281 98.847656 -30.820312 96.453125 -24.78125 C 94.054688 -18.75 90.738281 -13.707031 86.5 -9.65625 C 82.257812 -5.613281 77.242188 -2.539062 71.453125 -0.4375 C 65.660156 1.652344 59.367188 2.703125 52.578125 2.703125 C 45.785156 2.703125 39.492188 1.628906 33.703125 -0.515625 C 27.910156 -2.671875 22.914062 -5.796875 18.71875 -9.890625 C 14.53125 -13.984375 11.238281 -19.023438 8.84375 -25.015625 C 6.445312 -31.003906 5.25 -37.84375 5.25 -45.53125 Z M 32.203125 -45.53125 C 32.203125 -36.445312 34.046875 -29.65625 37.734375 -25.15625 C 41.429688 -20.664062 46.378906 -18.421875 52.578125 -18.421875 C 58.867188 -18.421875 63.859375 -20.664062 67.546875 -25.15625 C 71.242188 -29.65625 73.09375 -36.445312 73.09375 -45.53125 C 73.09375 -54.519531 71.269531 -61.257812 67.625 -65.75 C 63.976562 -70.25 59.007812 -72.5 52.71875 -72.5 C 46.53125 -72.5 41.5625 -70.273438 37.8125 -65.828125 C 34.070312 -61.378906 32.203125 -54.613281 32.203125 -45.53125 Z M 32.203125 -45.53125 "/></g></g></g><g fill="#006636" fill-opacity="1"><g transform="translate(86.653295, 601.418239)"><g><path d="M 25.59375 -30.65625 L 14.59375 0 L 11 0 L 0 -30.65625 L 3.734375 -30.65625 L 10.90625 -10.46875 C 11.195312 -9.65625 11.457031 -8.878906 11.6875 -8.140625 C 11.914062 -7.398438 12.117188 -6.6875 12.296875 -6 C 12.484375 -5.3125 12.644531 -4.644531 12.78125 -4 C 12.925781 -4.644531 13.085938 -5.3125 13.265625 -6 C 13.453125 -6.695312 13.660156 -7.414062 13.890625 -8.15625 C 14.128906 -8.90625 14.398438 -9.695312 14.703125 -10.53125 L 21.828125 -30.65625 Z M 25.59375 -30.65625 "/></g></g></g><g fill="#006636" fill-opacity="1"><g transform="translate(112.249281, 601.418239)"><g><path d="M 27.375 -30.65625 L 27.375 -10.8125 C 27.375 -8.644531 26.9375 -6.71875 26.0625 -5.03125 C 25.195312 -3.34375 23.882812 -2.007812 22.125 -1.03125 C 20.363281 -0.0625 18.15625 0.421875 15.5 0.421875 C 11.707031 0.421875 8.820312 -0.601562 6.84375 -2.65625 C 4.863281 -4.71875 3.875 -7.46875 3.875 -10.90625 L 3.875 -30.65625 L 7.46875 -30.65625 L 7.46875 -10.796875 C 7.46875 -8.191406 8.15625 -6.179688 9.53125 -4.765625 C 10.90625 -3.359375 12.960938 -2.65625 15.703125 -2.65625 C 17.578125 -2.65625 19.109375 -2.992188 20.296875 -3.671875 C 21.492188 -4.359375 22.382812 -5.3125 22.96875 -6.53125 C 23.550781 -7.75 23.84375 -9.164062 23.84375 -10.78125 L 23.84375 -30.65625 Z M 27.375 -30.65625 "/></g></g></g><g fill="#006636" fill-opacity="1"><g transform="translate(143.547239, 601.418239)"><g><path d="M 4.1875 0 L 4.1875 -30.65625 L 7.75 -30.65625 L 7.75 0 Z M 4.1875 0 "/></g></g></g><g fill="#006636" fill-opacity="1"><g transform="translate(155.538149, 601.418239)"><g/></g></g><g fill="#006636" fill-opacity="1"><g transform="translate(166.690534, 601.418239)"><g><path d="M 26.296875 0 L 22.078125 0 L 11.03125 -14.90625 L 7.75 -11.96875 L 7.75 0 L 4.1875 0 L 4.1875 -30.65625 L 7.75 -30.65625 L 7.75 -15.375 C 8.550781 -16.28125 9.367188 -17.179688 10.203125 -18.078125 C 11.046875 -18.984375 11.878906 -19.894531 12.703125 -20.8125 L 21.65625 -30.65625 L 25.828125 -30.65625 L 13.625 -17.359375 Z M 26.296875 0 "/></g></g></g><g fill="#006636" fill-opacity="1"><g transform="translate(192.978298, 601.418239)"><g><path d="M 27.421875 0 L 23.859375 0 L 23.859375 -14.4375 L 7.75 -14.4375 L 7.75 0 L 4.1875 0 L 4.1875 -30.65625 L 7.75 -30.65625 L 7.75 -17.59375 L 23.859375 -17.59375 L 23.859375 -30.65625 L 27.421875 -30.65625 Z M 27.421875 0 "/></g></g></g><g fill="#006636" fill-opacity="1"><g transform="translate(224.632622, 601.418239)"><g><path d="M 30.78125 -15.375 C 30.78125 -13.007812 30.476562 -10.859375 29.875 -8.921875 C 29.269531 -6.984375 28.378906 -5.316406 27.203125 -3.921875 C 26.023438 -2.535156 24.5625 -1.460938 22.8125 -0.703125 C 21.0625 0.0429688 19.035156 0.421875 16.734375 0.421875 C 14.359375 0.421875 12.285156 0.0429688 10.515625 -0.703125 C 8.742188 -1.460938 7.273438 -2.539062 6.109375 -3.9375 C 4.941406 -5.332031 4.066406 -7 3.484375 -8.9375 C 2.910156 -10.882812 2.625 -13.039062 2.625 -15.40625 C 2.625 -18.539062 3.140625 -21.285156 4.171875 -23.640625 C 5.203125 -26.003906 6.769531 -27.84375 8.875 -29.15625 C 10.976562 -30.476562 13.617188 -31.140625 16.796875 -31.140625 C 19.828125 -31.140625 22.378906 -30.488281 24.453125 -29.1875 C 26.523438 -27.882812 28.097656 -26.054688 29.171875 -23.703125 C 30.242188 -21.347656 30.78125 -18.570312 30.78125 -15.375 Z M 6.375 -15.375 C 6.375 -12.769531 6.742188 -10.515625 7.484375 -8.609375 C 8.222656 -6.710938 9.359375 -5.242188 10.890625 -4.203125 C 12.421875 -3.171875 14.367188 -2.65625 16.734375 -2.65625 C 19.109375 -2.65625 21.050781 -3.171875 22.5625 -4.203125 C 24.082031 -5.242188 25.207031 -6.710938 25.9375 -8.609375 C 26.664062 -10.515625 27.03125 -12.769531 27.03125 -15.375 C 27.03125 -19.320312 26.203125 -22.410156 24.546875 -24.640625 C 22.890625 -26.867188 20.304688 -27.984375 16.796875 -27.984375 C 14.421875 -27.984375 12.460938 -27.472656 10.921875 -26.453125 C 9.378906 -25.429688 8.234375 -23.976562 7.484375 -22.09375 C 6.742188 -20.21875 6.375 -17.976562 6.375 -15.375 Z M 21.375 -38.5 C 21.375 -37.425781 21.046875 -36.59375 20.390625 -36 C 19.734375 -35.40625 18.894531 -34.988281 17.875 -34.75 L 17.6875 -32.421875 L 15.515625 -32.421875 L 15.234375 -36.046875 C 16.304688 -36.222656 17.144531 -36.484375 17.75 -36.828125 C 18.363281 -37.171875 18.671875 -37.6875 18.671875 -38.375 C 18.671875 -39.0625 18.398438 -39.53125 17.859375 -39.78125 C 17.328125 -40.03125 16.648438 -40.15625 15.828125 -40.15625 C 15.429688 -40.15625 15.039062 -40.132812 14.65625 -40.09375 C 14.269531 -40.0625 13.953125 -40.019531 13.703125 -39.96875 L 13.703125 -42.0625 C 13.984375 -42.144531 14.316406 -42.210938 14.703125 -42.265625 C 15.097656 -42.316406 15.570312 -42.34375 16.125 -42.34375 C 17.8125 -42.34375 19.109375 -42.019531 20.015625 -41.375 C 20.921875 -40.738281 21.375 -39.78125 21.375 -38.5 Z M 21.375 -38.5 "/></g></g></g><g fill="#006636" fill-opacity="1"><g transform="translate(258.026893, 601.418239)"><g><path d="M 21.265625 0 L 4.1875 0 L 4.1875 -30.65625 L 21.265625 -30.65625 L 21.265625 -27.5 L 7.75 -27.5 L 7.75 -17.59375 L 20.484375 -17.59375 L 20.484375 -14.484375 L 7.75 -14.484375 L 7.75 -3.140625 L 21.265625 -3.140625 Z M 21.265625 0 "/></g></g></g><g fill="#006636" fill-opacity="1"><g transform="translate(281.882934, 601.418239)"><g/></g></g><g fill="#006636" fill-opacity="1"><g transform="translate(293.035319, 601.418239)"><g><path d="M 13.0625 -31.140625 C 14.570312 -31.140625 15.875 -30.875 16.96875 -30.34375 C 18.070312 -29.820312 18.921875 -29.070312 19.515625 -28.09375 C 20.109375 -27.113281 20.40625 -25.929688 20.40625 -24.546875 C 20.40625 -22.734375 19.8125 -21.195312 18.625 -19.9375 C 17.445312 -18.675781 15.945312 -17.53125 14.125 -16.5 L 22.640625 -8.234375 C 23.410156 -9.128906 24.039062 -10.164062 24.53125 -11.34375 C 25.019531 -12.53125 25.429688 -13.816406 25.765625 -15.203125 L 29.28125 -15.203125 C 28.84375 -13.359375 28.269531 -11.660156 27.5625 -10.109375 C 26.851562 -8.554688 25.96875 -7.191406 24.90625 -6.015625 L 31.046875 0 L 26.328125 0 L 22.53125 -3.703125 C 21.644531 -2.878906 20.6875 -2.15625 19.65625 -1.53125 C 18.625 -0.914062 17.484375 -0.4375 16.234375 -0.09375 C 14.984375 0.246094 13.554688 0.421875 11.953125 0.421875 C 9.992188 0.421875 8.296875 0.0976562 6.859375 -0.546875 C 5.421875 -1.191406 4.304688 -2.132812 3.515625 -3.375 C 2.722656 -4.613281 2.328125 -6.140625 2.328125 -7.953125 C 2.328125 -9.429688 2.597656 -10.703125 3.140625 -11.765625 C 3.691406 -12.828125 4.46875 -13.769531 5.46875 -14.59375 C 6.476562 -15.414062 7.679688 -16.21875 9.078125 -17 C 8.421875 -17.726562 7.796875 -18.46875 7.203125 -19.21875 C 6.617188 -19.96875 6.144531 -20.769531 5.78125 -21.625 C 5.414062 -22.488281 5.234375 -23.4375 5.234375 -24.46875 C 5.234375 -25.863281 5.550781 -27.054688 6.1875 -28.046875 C 6.832031 -29.046875 7.738281 -29.8125 8.90625 -30.34375 C 10.070312 -30.875 11.457031 -31.140625 13.0625 -31.140625 Z M 11.171875 -14.796875 C 10.085938 -14.171875 9.15625 -13.550781 8.375 -12.9375 C 7.601562 -12.320312 7.007812 -11.628906 6.59375 -10.859375 C 6.175781 -10.085938 5.96875 -9.160156 5.96875 -8.078125 C 5.96875 -6.441406 6.519531 -5.128906 7.625 -4.140625 C 8.726562 -3.148438 10.207031 -2.65625 12.0625 -2.65625 C 13.957031 -2.65625 15.570312 -2.96875 16.90625 -3.59375 C 18.238281 -4.226562 19.375 -4.992188 20.3125 -5.890625 Z M 12.9375 -28.265625 C 11.664062 -28.265625 10.632812 -27.929688 9.84375 -27.265625 C 9.050781 -26.597656 8.65625 -25.671875 8.65625 -24.484375 C 8.65625 -23.421875 8.941406 -22.441406 9.515625 -21.546875 C 10.085938 -20.648438 10.90625 -19.660156 11.96875 -18.578125 C 13.71875 -19.535156 14.988281 -20.46875 15.78125 -21.375 C 16.570312 -22.28125 16.96875 -23.335938 16.96875 -24.546875 C 16.96875 -25.648438 16.597656 -26.546875 15.859375 -27.234375 C 15.128906 -27.921875 14.15625 -28.265625 12.9375 -28.265625 Z M 12.9375 -28.265625 "/></g></g></g><g fill="#006636" fill-opacity="1"><g transform="translate(324.312308, 601.418239)"><g/></g></g><g fill="#006636" fill-opacity="1"><g transform="translate(335.464692, 601.418239)"><g><path d="M 13.609375 0 L 10.015625 0 L 10.015625 -27.5 L 0.375 -27.5 L 0.375 -30.65625 L 23.203125 -30.65625 L 23.203125 -27.5 L 13.609375 -27.5 Z M 13.609375 0 "/></g></g></g><g fill="#006636" fill-opacity="1"><g transform="translate(359.111102, 601.418239)"><g><path d="M 27.421875 0 L 23.859375 0 L 23.859375 -14.4375 L 7.75 -14.4375 L 7.75 0 L 4.1875 0 L 4.1875 -30.65625 L 7.75 -30.65625 L 7.75 -17.59375 L 23.859375 -17.59375 L 23.859375 -30.65625 L 27.421875 -30.65625 Z M 27.421875 0 "/></g></g></g><g fill="#006636" fill-opacity="1"><g transform="translate(390.765415, 601.418239)"><g><path d="M 4.1875 0 L 4.1875 -30.65625 L 7.75 -30.65625 L 7.75 0 Z M 5.96875 7.359375 C 5.375 7.359375 4.875 7.171875 4.46875 6.796875 C 4.0625 6.421875 3.859375 5.847656 3.859375 5.078125 C 3.859375 4.296875 4.0625 3.71875 4.46875 3.34375 C 4.875 2.96875 5.375 2.78125 5.96875 2.78125 C 6.5625 2.78125 7.0625 2.96875 7.46875 3.34375 C 7.875 3.71875 8.078125 4.296875 8.078125 5.078125 C 8.078125 5.847656 7.875 6.421875 7.46875 6.796875 C 7.0625 7.171875 6.5625 7.359375 5.96875 7.359375 Z M 5.96875 7.359375 "/></g></g></g><g fill="#006636" fill-opacity="1"><g transform="translate(402.756348, 601.418239)"><g><path d="M 28.15625 0 L 24.046875 0 L 7.34375 -25.75 L 7.171875 -25.75 C 7.210938 -25.0625 7.257812 -24.28125 7.3125 -23.40625 C 7.375 -22.53125 7.421875 -21.597656 7.453125 -20.609375 C 7.484375 -19.628906 7.5 -18.628906 7.5 -17.609375 L 7.5 0 L 4.1875 0 L 4.1875 -30.65625 L 8.28125 -30.65625 L 24.921875 -4.984375 L 25.078125 -4.984375 C 25.046875 -5.472656 25.007812 -6.164062 24.96875 -7.0625 C 24.925781 -7.96875 24.882812 -8.941406 24.84375 -9.984375 C 24.8125 -11.023438 24.796875 -11.992188 24.796875 -12.890625 L 24.796875 -30.65625 L 28.15625 -30.65625 Z M 28.15625 0 "/></g></g></g><g fill="#006636" fill-opacity="1"><g transform="translate(435.081481, 601.418239)"><g><path d="M 27.421875 0 L 23.859375 0 L 23.859375 -14.4375 L 7.75 -14.4375 L 7.75 0 L 4.1875 0 L 4.1875 -30.65625 L 7.75 -30.65625 L 7.75 -17.59375 L 23.859375 -17.59375 L 23.859375 -30.65625 L 27.421875 -30.65625 Z M 27.421875 0 "/></g></g></g><g fill="#006636" fill-opacity="1"><g transform="translate(466.735795, 601.418239)"><g/></g></g><g fill="#006636" fill-opacity="1"><g transform="translate(477.888202, 601.418239)"><g><path d="M 25.59375 -30.65625 L 14.59375 0 L 11 0 L 0 -30.65625 L 3.734375 -30.65625 L 10.90625 -10.46875 C 11.195312 -9.65625 11.457031 -8.878906 11.6875 -8.140625 C 11.914062 -7.398438 12.117188 -6.6875 12.296875 -6 C 12.484375 -5.3125 12.644531 -4.644531 12.78125 -4 C 12.925781 -4.644531 13.085938 -5.3125 13.265625 -6 C 13.453125 -6.695312 13.660156 -7.414062 13.890625 -8.15625 C 14.128906 -8.90625 14.398438 -9.695312 14.703125 -10.53125 L 21.828125 -30.65625 Z M 25.59375 -30.65625 "/></g></g></g><g fill="#006636" fill-opacity="1"><g transform="translate(503.484178, 601.418239)"><g><path d="M 27.375 -30.65625 L 27.375 -26.453125 C 28.289062 -26.609375 28.988281 -26.953125 29.46875 -27.484375 C 29.945312 -28.015625 30.28125 -28.710938 30.46875 -29.578125 C 30.65625 -30.441406 30.75 -31.457031 30.75 -32.625 L 34.421875 -32.625 L 34.71875 -32.1875 C 34.550781 -31.164062 34.3125 -30.203125 34 -29.296875 C 33.6875 -28.398438 33.253906 -27.585938 32.703125 -26.859375 C 32.148438 -26.140625 31.4375 -25.535156 30.5625 -25.046875 C 29.695312 -24.554688 28.632812 -24.203125 27.375 -23.984375 L 27.375 -10.8125 C 27.375 -8.644531 26.960938 -6.71875 26.140625 -5.03125 C 25.328125 -3.34375 24.066406 -2.007812 22.359375 -1.03125 C 20.660156 -0.0625 18.46875 0.421875 15.78125 0.421875 C 11.914062 0.421875 8.960938 -0.601562 6.921875 -2.65625 C 4.890625 -4.71875 3.875 -7.46875 3.875 -10.90625 L 3.875 -30.65625 L 7.46875 -30.65625 L 7.46875 -10.75 C 7.46875 -8.175781 8.164062 -6.179688 9.5625 -4.765625 C 10.96875 -3.359375 13.070312 -2.65625 15.875 -2.65625 C 17.75 -2.65625 19.269531 -2.992188 20.4375 -3.671875 C 21.613281 -4.359375 22.472656 -5.304688 23.015625 -6.515625 C 23.566406 -7.734375 23.84375 -9.140625 23.84375 -10.734375 L 23.84375 -30.65625 Z M 27.375 -30.65625 "/></g></g></g><g fill="#006636" fill-opacity="1"><g transform="translate(536.647859, 601.418239)"><g><path d="M 30.734375 -15.375 C 30.734375 -13.007812 30.4375 -10.859375 29.84375 -8.921875 C 29.25 -6.984375 28.359375 -5.316406 27.171875 -3.921875 C 25.992188 -2.535156 24.535156 -1.460938 22.796875 -0.703125 C 21.054688 0.0429688 19.035156 0.421875 16.734375 0.421875 C 14.335938 0.421875 12.253906 0.0429688 10.484375 -0.703125 C 8.722656 -1.460938 7.257812 -2.539062 6.09375 -3.9375 C 4.925781 -5.332031 4.054688 -7 3.484375 -8.9375 C 2.910156 -10.882812 2.625 -13.039062 2.625 -15.40625 C 2.625 -18.539062 3.140625 -21.285156 4.171875 -23.640625 C 5.203125 -26.003906 6.765625 -27.84375 8.859375 -29.15625 C 10.960938 -30.476562 13.609375 -31.140625 16.796875 -31.140625 C 19.128906 -31.140625 21.175781 -30.738281 22.9375 -29.9375 C 24.707031 -29.144531 26.1875 -28.035156 27.375 -26.609375 C 28.164062 -26.828125 28.757812 -27.210938 29.15625 -27.765625 C 29.5625 -28.316406 29.84375 -29.003906 30 -29.828125 C 30.15625 -30.660156 30.234375 -31.59375 30.234375 -32.625 L 33.96875 -32.625 L 34.25 -32.1875 C 33.957031 -30.4375 33.40625 -28.867188 32.59375 -27.484375 C 31.789062 -26.097656 30.515625 -25.078125 28.765625 -24.421875 C 29.421875 -23.191406 29.910156 -21.816406 30.234375 -20.296875 C 30.566406 -18.785156 30.734375 -17.144531 30.734375 -15.375 Z M 6.375 -15.375 C 6.375 -12.769531 6.738281 -10.515625 7.46875 -8.609375 C 8.207031 -6.710938 9.34375 -5.242188 10.875 -4.203125 C 12.40625 -3.171875 14.359375 -2.65625 16.734375 -2.65625 C 19.117188 -2.65625 21.066406 -3.171875 22.578125 -4.203125 C 24.085938 -5.242188 25.195312 -6.710938 25.90625 -8.609375 C 26.625 -10.515625 26.984375 -12.769531 26.984375 -15.375 C 26.984375 -19.3125 26.164062 -22.394531 24.53125 -24.625 C 22.894531 -26.863281 20.316406 -27.984375 16.796875 -27.984375 C 14.398438 -27.984375 12.429688 -27.472656 10.890625 -26.453125 C 9.359375 -25.429688 8.222656 -23.976562 7.484375 -22.09375 C 6.742188 -20.207031 6.375 -17.96875 6.375 -15.375 Z M 16.609375 7.359375 C 16.015625 7.359375 15.515625 7.171875 15.109375 6.796875 C 14.703125 6.421875 14.5 5.847656 14.5 5.078125 C 14.5 4.296875 14.703125 3.71875 15.109375 3.34375 C 15.515625 2.96875 16.015625 2.78125 16.609375 2.78125 C 17.203125 2.78125 17.703125 2.96875 18.109375 3.34375 C 18.515625 3.71875 18.71875 4.296875 18.71875 5.078125 C 18.71875 5.847656 18.515625 6.421875 18.109375 6.796875 C 17.703125 7.171875 17.203125 7.359375 16.609375 7.359375 Z M 16.609375 7.359375 "/></g></g></g><g fill="#006636" fill-opacity="1"><g transform="translate(570.167885, 601.418239)"><g><path d="M 28.15625 0 L 24.046875 0 L 7.34375 -25.75 L 7.171875 -25.75 C 7.210938 -25.0625 7.257812 -24.28125 7.3125 -23.40625 C 7.375 -22.53125 7.421875 -21.597656 7.453125 -20.609375 C 7.484375 -19.628906 7.5 -18.628906 7.5 -17.609375 L 7.5 0 L 4.1875 0 L 4.1875 -30.65625 L 8.28125 -30.65625 L 24.921875 -4.984375 L 25.078125 -4.984375 C 25.046875 -5.472656 25.007812 -6.164062 24.96875 -7.0625 C 24.925781 -7.96875 24.882812 -8.941406 24.84375 -9.984375 C 24.8125 -11.023438 24.796875 -11.992188 24.796875 -12.890625 L 24.796875 -30.65625 L 28.15625 -30.65625 Z M 28.15625 0 "/></g></g></g><g fill="#006636" fill-opacity="1"><g transform="translate(602.493042, 601.418239)"><g><path d="M 17.296875 -16.0625 L 28.015625 -16.0625 L 28.015625 -1.1875 C 26.398438 -0.644531 24.742188 -0.242188 23.046875 0.015625 C 21.347656 0.285156 19.453125 0.421875 17.359375 0.421875 C 14.171875 0.421875 11.484375 -0.210938 9.296875 -1.484375 C 7.109375 -2.753906 5.445312 -4.566406 4.3125 -6.921875 C 3.1875 -9.285156 2.625 -12.085938 2.625 -15.328125 C 2.625 -18.492188 3.25 -21.257812 4.5 -23.625 C 5.75 -25.988281 7.554688 -27.820312 9.921875 -29.125 C 12.296875 -30.4375 15.144531 -31.09375 18.46875 -31.09375 C 20.175781 -31.09375 21.796875 -30.9375 23.328125 -30.625 C 24.859375 -30.3125 26.28125 -29.863281 27.59375 -29.28125 L 26.234375 -26.1875 C 25.097656 -26.675781 23.847656 -27.09375 22.484375 -27.4375 C 21.117188 -27.789062 19.710938 -27.96875 18.265625 -27.96875 C 15.765625 -27.96875 13.617188 -27.445312 11.828125 -26.40625 C 10.046875 -25.375 8.679688 -23.914062 7.734375 -22.03125 C 6.796875 -20.144531 6.328125 -17.910156 6.328125 -15.328125 C 6.328125 -12.765625 6.738281 -10.535156 7.5625 -8.640625 C 8.394531 -6.753906 9.679688 -5.285156 11.421875 -4.234375 C 13.171875 -3.179688 15.421875 -2.65625 18.171875 -2.65625 C 19.554688 -2.65625 20.742188 -2.734375 21.734375 -2.890625 C 22.734375 -3.054688 23.640625 -3.253906 24.453125 -3.484375 L 24.453125 -12.875 L 17.296875 -12.875 Z M 17.296875 -16.0625 "/></g></g></g><g fill="#006636" fill-opacity="1"><g transform="translate(633.707159, 601.418239)"><g><path d="M 6.8125 -8.515625 L 4.53125 -8.515625 L 3.5625 -30.65625 L 7.78125 -30.65625 Z M 3.140625 -2.1875 C 3.140625 -3.15625 3.378906 -3.847656 3.859375 -4.265625 C 4.335938 -4.679688 4.929688 -4.890625 5.640625 -4.890625 C 6.335938 -4.890625 6.925781 -4.679688 7.40625 -4.265625 C 7.894531 -3.847656 8.140625 -3.15625 8.140625 -2.1875 C 8.140625 -1.21875 7.894531 -0.507812 7.40625 -0.0625 C 6.925781 0.375 6.335938 0.59375 5.640625 0.59375 C 4.929688 0.59375 4.335938 0.375 3.859375 -0.0625 C 3.378906 -0.507812 3.140625 -1.21875 3.140625 -2.1875 Z M 3.140625 -2.1875 "/></g></g></g></svg>