<svg xmlns="http://www.w3.org/2000/svg" xmlns:xlink="http://www.w3.org/1999/xlink" width="540" zoomAndPan="magnify" viewBox="0 0 404.88 404.99999" height="540" preserveAspectRatio="xMidYMid meet" version="1.0"><defs><clipPath id="a86bede6a5"><path d="M 54 124 L 351 124 L 351 222 L 54 222 Z M 54 124 " clip-rule="nonzero"/></clipPath><clipPath id="eb1d334646"><path d="M 355.042969 133.925781 L 221.175781 305.269531 L 49.835938 171.402344 L 183.703125 0.0585938 Z M 355.042969 133.925781 " clip-rule="nonzero"/></clipPath><clipPath id="e2197f0d5d"><path d="M 355.042969 133.925781 L 221.175781 305.269531 L 49.835938 171.402344 L 183.703125 0.0585938 Z M 355.042969 133.925781 " clip-rule="nonzero"/></clipPath><clipPath id="98d0528c20"><path d="M 96.851562 83.410156 L 171.828125 83.410156 L 171.828125 323.570312 L 96.851562 323.570312 Z M 96.851562 83.410156 " clip-rule="nonzero"/></clipPath><clipPath id="4f3c0c9977"><path d="M 134.339844 83.410156 C 155.046875 83.410156 171.828125 100.191406 171.828125 120.898438 L 171.828125 285.847656 C 171.828125 306.554688 155.046875 323.335938 134.339844 323.335938 C 113.636719 323.335938 96.851562 306.554688 96.851562 285.847656 L 96.851562 120.898438 C 96.851562 100.191406 113.636719 83.410156 134.339844 83.410156 Z M 134.339844 83.410156 " clip-rule="nonzero"/></clipPath><clipPath id="973da9d6a2"><path d="M 0.851562 0.410156 L 75.828125 0.410156 L 75.828125 240.484375 L 0.851562 240.484375 Z M 0.851562 0.410156 " clip-rule="nonzero"/></clipPath><clipPath id="87691ce185"><path d="M 38.339844 0.410156 C 59.046875 0.410156 75.828125 17.191406 75.828125 37.898438 L 75.828125 202.847656 C 75.828125 223.554688 59.046875 240.335938 38.339844 240.335938 C 17.636719 240.335938 0.851562 223.554688 0.851562 202.847656 L 0.851562 37.898438 C 0.851562 17.191406 17.636719 0.410156 38.339844 0.410156 Z M 38.339844 0.410156 " clip-rule="nonzero"/></clipPath><clipPath id="1b685d25bd"><rect x="0" width="76" y="0" height="241"/></clipPath><clipPath id="214c77c354"><path d="M 126.84375 98.402344 L 171.828125 98.402344 L 171.828125 143.390625 L 126.84375 143.390625 Z M 126.84375 98.402344 " clip-rule="nonzero"/></clipPath><clipPath id="b30a607c8e"><path d="M 149.335938 98.402344 C 136.914062 98.402344 126.84375 108.476562 126.84375 120.898438 C 126.84375 133.320312 136.914062 143.390625 149.335938 143.390625 C 161.757812 143.390625 171.828125 133.320312 171.828125 120.898438 C 171.828125 108.476562 161.757812 98.402344 149.335938 98.402344 Z M 149.335938 98.402344 " clip-rule="nonzero"/></clipPath><clipPath id="d1b72bb1d5"><path d="M 0.84375 0.402344 L 45.828125 0.402344 L 45.828125 45.390625 L 0.84375 45.390625 Z M 0.84375 0.402344 " clip-rule="nonzero"/></clipPath><clipPath id="20fd6db1d6"><path d="M 23.335938 0.402344 C 10.914062 0.402344 0.84375 10.476562 0.84375 22.898438 C 0.84375 35.320312 10.914062 45.390625 23.335938 45.390625 C 35.757812 45.390625 45.828125 35.320312 45.828125 22.898438 C 45.828125 10.476562 35.757812 0.402344 23.335938 0.402344 Z M 23.335938 0.402344 " clip-rule="nonzero"/></clipPath><clipPath id="afb615b39d"><rect x="0" width="46" y="0" height="46"/></clipPath><clipPath id="9842370720"><path d="M 221.816406 53.417969 L 296.792969 53.417969 L 296.792969 353.328125 L 221.816406 353.328125 Z M 221.816406 53.417969 " clip-rule="nonzero"/></clipPath><clipPath id="659586a581"><path d="M 259.304688 53.417969 C 280.007812 53.417969 296.792969 70.203125 296.792969 90.90625 L 296.792969 315.839844 C 296.792969 336.542969 280.007812 353.328125 259.304688 353.328125 C 238.597656 353.328125 221.816406 336.542969 221.816406 315.839844 L 221.816406 90.90625 C 221.816406 70.203125 238.597656 53.417969 259.304688 53.417969 Z M 259.304688 53.417969 " clip-rule="nonzero"/></clipPath><clipPath id="ccb5e02a4f"><path d="M 0.816406 0.417969 L 75.792969 0.417969 L 75.792969 300.328125 L 0.816406 300.328125 Z M 0.816406 0.417969 " clip-rule="nonzero"/></clipPath><clipPath id="3e17ccbc8b"><path d="M 38.304688 0.417969 C 59.007812 0.417969 75.792969 17.203125 75.792969 37.90625 L 75.792969 262.839844 C 75.792969 283.542969 59.007812 300.328125 38.304688 300.328125 C 17.597656 300.328125 0.816406 283.542969 0.816406 262.839844 L 0.816406 37.90625 C 0.816406 17.203125 17.597656 0.417969 38.304688 0.417969 Z M 38.304688 0.417969 " clip-rule="nonzero"/></clipPath><clipPath id="3f82e4b7ea"><rect x="0" width="76" y="0" height="301"/></clipPath><clipPath id="445e40e3f3"><path d="M 221.816406 68.414062 L 266.800781 68.414062 L 266.800781 113.398438 L 221.816406 113.398438 Z M 221.816406 68.414062 " clip-rule="nonzero"/></clipPath><clipPath id="449e32cc4a"><path d="M 244.308594 68.414062 C 231.886719 68.414062 221.816406 78.484375 221.816406 90.90625 C 221.816406 103.328125 231.886719 113.398438 244.308594 113.398438 C 256.730469 113.398438 266.800781 103.328125 266.800781 90.90625 C 266.800781 78.484375 256.730469 68.414062 244.308594 68.414062 Z M 244.308594 68.414062 " clip-rule="nonzero"/></clipPath><clipPath id="6ee4dae703"><path d="M 0.816406 0.414062 L 45.800781 0.414062 L 45.800781 45.398438 L 0.816406 45.398438 Z M 0.816406 0.414062 " clip-rule="nonzero"/></clipPath><clipPath id="8b2ed371b5"><path d="M 23.308594 0.414062 C 10.886719 0.414062 0.816406 10.484375 0.816406 22.90625 C 0.816406 35.328125 10.886719 45.398438 23.308594 45.398438 C 35.730469 45.398438 45.800781 35.328125 45.800781 22.90625 C 45.800781 10.484375 35.730469 0.414062 23.308594 0.414062 Z M 23.308594 0.414062 " clip-rule="nonzero"/></clipPath><clipPath id="2126f3303b"><rect x="0" width="46" y="0" height="46"/></clipPath></defs><g clip-path="url(#a86bede6a5)"><g clip-path="url(#eb1d334646)"><g clip-path="url(#e2197f0d5d)"><path fill="#006636" d="M 56.5 162.871094 C 60.179688 158.164062 66.984375 157.328125 71.695312 161.007812 C 152.058594 223.792969 268.53125 209.492188 331.320312 129.128906 C 335 124.417969 341.804688 123.585938 346.515625 127.261719 C 351.222656 130.941406 352.058594 137.746094 348.378906 142.457031 C 331.214844 164.429688 310.253906 182.394531 286.070312 195.835938 C 262.710938 208.820312 237.382812 217.050781 210.761719 220.320312 C 184.144531 223.585938 157.554688 221.714844 131.765625 214.78125 C 105.050781 207.589844 80.367188 195.226562 58.394531 178.0625 C 53.65625 174.386719 52.820312 167.582031 56.5 162.871094 Z M 56.5 162.871094 " fill-opacity="1" fill-rule="nonzero"/></g></g></g><g clip-path="url(#98d0528c20)"><g clip-path="url(#4f3c0c9977)"><g transform="matrix(1, 0, 0, 1, 96, 83)"><g clip-path="url(#1b685d25bd)"><g clip-path="url(#973da9d6a2)"><g clip-path="url(#87691ce185)"><path fill="#006636" d="M 0.851562 0.410156 L 75.828125 0.410156 L 75.828125 240.277344 L 0.851562 240.277344 Z M 0.851562 0.410156 " fill-opacity="1" fill-rule="nonzero"/></g></g></g></g></g></g><g clip-path="url(#214c77c354)"><g clip-path="url(#b30a607c8e)"><g transform="matrix(1, 0, 0, 1, 126, 98)"><g clip-path="url(#afb615b39d)"><g clip-path="url(#d1b72bb1d5)"><g clip-path="url(#20fd6db1d6)"><path fill="#ff4500" d="M 0.84375 0.402344 L 45.828125 0.402344 L 45.828125 45.390625 L 0.84375 45.390625 Z M 0.84375 0.402344 " fill-opacity="1" fill-rule="nonzero"/></g></g></g></g><path stroke-linecap="butt" transform="matrix(0.749778, 0, 0, 0.749778, 126.8428, 98.404198)" fill="none" stroke-linejoin="miter" d="M 29.999739 -0.00247365 C 13.43233 -0.00247365 0.00126741 13.433799 0.00126741 30.001207 C 0.00126741 46.568616 13.43233 59.999678 29.999739 59.999678 C 46.567147 59.999678 59.99821 46.568616 59.99821 30.001207 C 59.99821 13.433799 46.567147 -0.00247365 29.999739 -0.00247365 Z M 29.999739 -0.00247365 " stroke="#ffffff" stroke-width="16" stroke-opacity="1" stroke-miterlimit="4"/></g></g><g clip-path="url(#9842370720)"><g clip-path="url(#659586a581)"><g transform="matrix(1, 0, 0, 1, 221, 53)"><g clip-path="url(#3f82e4b7ea)"><g clip-path="url(#ccb5e02a4f)"><g clip-path="url(#3e17ccbc8b)"><path fill="#006636" d="M 0.816406 0.417969 L 75.792969 0.417969 L 75.792969 300.328125 L 0.816406 300.328125 Z M 0.816406 0.417969 " fill-opacity="1" fill-rule="nonzero"/></g></g></g></g></g></g><g clip-path="url(#445e40e3f3)"><g clip-path="url(#449e32cc4a)"><g transform="matrix(1, 0, 0, 1, 221, 68)"><g clip-path="url(#2126f3303b)"><g clip-path="url(#6ee4dae703)"><g clip-path="url(#8b2ed371b5)"><path fill="#ff4500" d="M 0.816406 0.414062 L 45.800781 0.414062 L 45.800781 45.398438 L 0.816406 45.398438 Z M 0.816406 0.414062 " fill-opacity="1" fill-rule="nonzero"/></g></g></g></g><path stroke-linecap="butt" transform="matrix(0.749778, 0, 0, 0.749778, 221.81463, 68.413089)" fill="none" stroke-linejoin="miter" d="M 30.00084 0.00129894 C 13.433432 0.00129894 0.00236901 13.432362 0.00236901 29.99977 C 0.00236901 46.567179 13.433432 59.998241 30.00084 59.998241 C 46.568249 59.998241 59.999311 46.567179 59.999311 29.99977 C 59.999311 13.432362 46.568249 0.00129894 30.00084 0.00129894 Z M 30.00084 0.00129894 " stroke="#ffffff" stroke-width="16" stroke-opacity="1" stroke-miterlimit="4"/></g></g></svg>